<?xml version="1.0" encoding="UTF-8" standalone="no"?>
<!-- Created with Inkscape (http://www.inkscape.org/) -->

<svg
   width="253.70724mm"
   height="240.61481mm"
   viewBox="0 0 253.70724 240.61481"
   version="1.1"
   id="svg1"
   xml:space="preserve"
   inkscape:version="1.4 (86a8ad7, 2024-10-11)"
   sodipodi:docname="hydra.svg"
   xmlns:inkscape="http://www.inkscape.org/namespaces/inkscape"
   xmlns:sodipodi="http://sodipodi.sourceforge.net/DTD/sodipodi-0.dtd"
   xmlns="http://www.w3.org/2000/svg"
   xmlns:svg="http://www.w3.org/2000/svg"><sodipodi:namedview
     id="namedview1"
     pagecolor="#ffffff"
     bordercolor="#000000"
     borderopacity="0.25"
     inkscape:showpageshadow="2"
     inkscape:pageopacity="0.0"
     inkscape:pagecheckerboard="0"
     inkscape:deskcolor="#d1d1d1"
     inkscape:document-units="mm"
     inkscape:zoom="0.53858859"
     inkscape:cx="702.76275"
     inkscape:cy="723.1865"
     inkscape:window-width="1828"
     inkscape:window-height="1057"
     inkscape:window-x="3924"
     inkscape:window-y="-8"
     inkscape:window-maximized="1"
     inkscape:current-layer="layer1" /><defs
     id="defs1" /><g
     inkscape:label="Warstwa 1"
     inkscape:groupmode="layer"
     id="layer1"
     transform="translate(35.088092,-46.296983)"><path
       style="fill:#000000"
       d="m 57.355206,285.39513 c 1.811302,-4.03408 4.423019,-7.47962 7.84606,-10.35102 0.560985,-0.47058 0.974707,-0.90086 0.919382,-0.95619 -0.182428,-0.18243 -3.36948,1.57055 -4.571509,2.51447 -0.648594,0.50932 -1.774346,1.71531 -2.501672,2.67998 -1.22418,1.62366 -1.415877,1.76796 -2.580662,1.94263 -2.009293,0.30131 -5.56124,1.40717 -7.713071,2.40138 -1.092587,0.5048 -2.02749,0.87686 -2.077562,0.82679 -0.182011,-0.18201 0.965245,-3.13688 1.944206,-5.00748 1.322694,-2.52742 4.445954,-6.65797 6.357781,-8.40825 3.395455,-3.10854 5.47555,-3.37653 11.98126,-1.54361 3.760415,1.05946 4.353763,1.15543 7.143749,1.15543 2.777981,0 3.180093,-0.0643 4.621772,-0.73938 1.972579,-0.92365 3.60976,-2.15512 7.221973,-5.43228 1.562346,-1.41743 3.376411,-2.94456 4.031254,-3.39362 1.632646,-1.11959 5.02658,-2.79287 7.379688,-3.63833 2.876545,-1.03354 2.908385,-1.06513 1.600909,-1.58828 -4.035071,-1.61451 -15.35214,-11.42985 -18.081104,-15.6818 -2.085463,-3.24933 -3.480179,-7.34926 -4.214431,-12.38881 l -0.346943,-2.38125 -0.178218,1.45521 c -0.559095,4.56522 -0.0062,9.80921 1.373296,13.0247 1.592035,3.71096 6.749376,9.72569 12.20222,14.2308 0.945885,0.78149 1.817045,1.50128 1.93591,1.59954 0.118866,0.0983 -0.476447,0.5667 -1.322916,1.04097 -2.449268,1.37232 -3.95548,2.56209 -7.592091,5.99707 -1.873971,1.77007 -3.80285,3.43137 -4.286396,3.69178 -0.871499,0.46933 -0.901812,0.46582 -3.471945,-0.40299 C 67.47228,263.506 60.668657,259.2212 54.78622,253.32734 45.519595,244.04271 40.143652,233.16758 37.726599,218.81701 36.734763,212.92826 36.44292,208.2737 36.608392,200.98293 c 0.162633,-7.16569 0.658306,-11.29902 2.020959,-16.85241 2.549131,-10.38881 6.683818,-18.01061 15.501396,-28.575 6.648019,-7.96503 9.391497,-12.27554 10.451984,-16.42201 1.10924,-4.33708 0.26025,-8.0909 -2.469404,-10.91849 -1.87091,-1.93804 -3.294739,-2.51279 -6.530991,-2.63633 -5.514165,-0.2105 -11.06264,1.83567 -17.791685,6.5612 -3.188703,2.2393 -10.155451,9.16959 -13.697729,13.62605 -1.503701,1.89177 -3.561783,4.42444 -4.573516,5.62815 -1.618013,1.92504 -1.882923,2.39565 -2.200003,3.90831 -0.50322,2.40066 -1.674923,5.29965 -2.869222,7.09894 -0.637652,0.96066 -2.148105,2.48429 -4.083161,4.11878 -3.4811255,2.94042 -6.1290715,5.62579 -7.4315798,7.53662 -0.4886164,0.71682 -1.6228541,2.92101 -2.52052807,4.8982 -2.09594583,4.61646 -2.79196583,5.69928 -4.08858803,6.36077 -1.30304,0.66476 -3.8754288,0.7125 -6.1901687,0.11488 -1.6690934,-0.43093 -5.7267324,-2.38523 -5.7267324,-2.75819 0,-0.11469 0.582951,-0.41816 1.295446,-0.67437 l 1.295446,-0.46583 -1.427884,-1.87416 c -1.221729,-1.60356 -2.483429,-4.21717 -2.181544,-4.51906 0.05154,-0.0515 1.619075,0.67055 3.483408,1.60464 1.864333,0.9341 3.5495511,1.69836 3.7449295,1.69836 0.7282546,0 3.7925882,-3.70756 4.9811167,-6.02669 1.349481,-2.63318 3.6936721,-8.66906 3.5736003,-9.20139 -0.0584366,-0.25907 -0.6772628,-0.0739 -2.2846885,0.68358 -2.5750286,1.21347 -4.6691141,3.17852 -6.1298304,5.75209 -0.5093229,0.89736 -1.0451046,1.59653 -1.1906246,1.55371 -0.145521,-0.0428 -0.423701,-0.54498 -0.618178,-1.11593 -0.460309,-1.35138 -0.249147,-3.43376 0.496388,-4.89513 0.8204369,-1.60819 3.2080087,-4.0266 5.4666628,-5.53728 l 1.9159425,-1.28146 -1.176046,-0.56932 c -1.5513656,-0.751 -5.1741006,-1.36874 -6.8612643,-1.16996 -1.706685,0.20108 -2.74835,0.51754 -5.015635,1.52374 l -1.823379,0.8092 0.147373,3.51494 0.147374,3.51494 -0.750312,-0.388 c -0.857047,-0.44319 -2.359097,-2.20648 -3.042127,-3.57121 -0.254909,-0.50932 -0.491449,-0.95924 -0.525644,-0.99981 -0.0342,-0.0406 -0.894169,0.40591 -1.911055,0.99218 -1.016886,0.58628 -1.999668,1.06596 -2.18396,1.06596 -0.56032,0 -0.07281,3.37207 0.96585,6.68073 0.216112,0.68843 -0.426361,0.57727 -1.838061,-0.318 -1.230043,-0.78007 -2.541782,-2.32315 -3.298125,-3.87979 l -0.400539,-0.82435 -1.207771,0.36348 c -0.965535,0.29058 -1.250724,0.29672 -1.421935,0.0306 -0.559482,-0.86962 -1.2625,-3.22399 -1.550187,-5.19149 -0.523704,-3.58163 0.134202,-6.13938 2.145129,-8.33966 1.318754,-1.44292 2.034186,-1.85583 3.686375,-2.12754 2.213123,-0.36396 7.717697,-3.74536 11.906249,-7.31389 5.432513,-4.62834 6.757192,-5.334 15.4200413,-8.21436 3.5201571,-1.17044 7.265243,-2.5277 8.3224132,-3.01614 2.2741147,-1.05071 2.3961343,-0.87847 1.1407927,1.61026 -0.4297342,0.85195 -0.7284753,1.60186 -0.6638691,1.66647 0.2073366,0.20734 3.3641169,-1.56194 5.5350929,-3.10225 1.158033,-0.82163 4.316013,-3.63699 7.017733,-6.25637 2.70172,-2.61937 6.040488,-5.61743 7.419485,-6.66235 6.851482,-5.19164 13.608413,-8.41962 21.588174,-10.31328 2.935481,-0.69662 3.503972,-0.74495 8.56805,-0.72838 5.204977,0.017 5.550739,0.0512 8.564209,0.84699 5.415484,1.43006 8.131339,3.02446 12.104531,7.1062 3.487015,3.58228 5.541846,7.12388 6.736182,11.61015 0.742074,2.78744 0.68896,8.76199 -0.104014,11.70005 -1.173534,4.34808 -1.775233,5.65208 -3.365722,7.29417 -0.953748,0.98469 -1.829998,2.25824 -2.445511,3.55434 -0.903905,1.90337 -0.965666,2.20374 -1.071283,5.21013 l -0.112078,3.19032 -2.635286,3.70416 c -6.104944,8.58113 -8.432986,14.49783 -7.701713,19.57384 0.333051,2.31182 1.483136,4.91081 2.782801,6.28864 0.904092,0.95847 0.983049,0.98694 2.359865,0.85103 5.866721,-0.57913 12.098724,-4.6062 21.057971,-13.60749 l 4.500452,-4.52157 0.150328,1.26403 c 0.08268,0.69521 0.39851,1.84225 0.701845,2.54896 l 0.551517,1.28495 -0.796423,0.90707 c -1.038324,1.18259 -1.00454,1.71113 0.195764,3.06272 3.141359,3.5373 6.847099,5.39748 11.319719,5.6822 4.51518,0.28743 7.14149,-1.21203 9.26762,-5.29125 1.0329,-1.98172 4.37736,-7.06613 4.9734,-7.5608 0.81777,-0.67869 -0.66182,6.21418 -2.09467,9.7583 -1.9623,4.85368 -5.31451,10.39072 -8.08142,13.34856 -0.85809,0.9173 -1.56017,1.72802 -1.56017,1.8016 0,0.0736 0.50602,-0.0422 1.12448,-0.25727 1.70402,-0.5926 7.66408,-1.86249 11.6213,-2.47613 4.51088,-0.69949 12.32419,-0.95484 16.38388,-0.53546 10.72167,1.1076 20.28409,4.76702 28.41721,10.8749 2.89428,2.17357 7.91541,7.31427 9.99224,10.23018 6.53689,9.17791 10.01018,20.06926 9.64654,30.24903 -0.14433,4.04013 -0.80773,7.09704 -2.08562,9.61029 -2.19036,4.30783 -6.58975,8.4422 -10.18757,9.57385 -0.79315,0.24948 -1.47742,0.41065 -1.52061,0.35816 -0.0432,-0.0525 -0.59197,-0.9884 -1.21953,-2.0798 -3.61127,-6.2805 -8.66076,-12.5567 -12.47671,-15.50775 -0.82569,-0.63855 -1.56719,-1.161 -1.64778,-1.161 -0.0806,0 0.56472,0.9458 1.43403,2.10177 2.26938,3.01772 5.21757,7.60443 7.90348,12.29601 4.91522,8.58561 7.00164,14.86952 5.74433,17.30087 -0.91647,1.77226 -0.80449,1.75388 -11.78821,1.93449 -10.5907,0.17415 -13.67939,0.49256 -17.73938,1.82871 -1.24718,0.41045 -3.10126,0.665 -6.74687,0.92631 -5.3457,0.38315 -7.54956,0.8462 -10.59088,2.22519 l -1.68692,0.76489 0.53398,-1.36672 c 1.24402,-3.18409 2.71303,-5.32153 5.89452,-8.57663 1.1734,-1.20054 1.96441,-2.18281 1.7578,-2.18281 -0.2066,0 -1.20698,0.49389 -2.22305,1.09753 -1.83455,1.08988 -3.77715,2.85385 -5.35769,4.86502 -0.76296,0.97083 -1.01898,1.09638 -3.43958,1.68666 -1.4384,0.35076 -3.79686,1.03447 -5.24104,1.51936 -1.44417,0.48489 -2.66134,0.84606 -2.70481,0.80259 -0.20095,-0.20095 0.58484,-2.35243 1.51671,-4.15274 2.08252,-4.02326 5.57234,-7.71458 8.44408,-8.93162 2.74123,-1.16174 3.49265,-1.23834 12.30313,-1.25424 l 8.46666,-0.0153 2.91042,-0.86753 c 1.60073,-0.47715 3.0121,-0.9679 3.13639,-1.09055 0.12429,-0.12266 -1.42353,-1.45273 -3.43958,-2.95571 -9.81052,-7.3138 -15.11225,-12.70377 -19.04923,-19.36625 -3.67664,-6.22192 -4.3801,-11.3114 -2.3224,-16.8023 1.35925,-3.62709 3.36449,-5.71587 7.26597,-7.56867 2.95589,-1.40375 5.25945,-1.81043 9.38177,-1.65631 5.39718,0.20178 10.61459,1.8354 15.51913,4.85917 1.06885,0.65898 2.06243,1.26258 2.20795,1.34135 0.14552,0.0788 -0.62839,-0.77061 -1.71979,-1.88751 -3.53366,-3.61619 -7.98909,-6.21249 -12.60026,-7.34249 -3.19247,-0.78234 -8.04306,-0.77568 -11.07995,0.0152 -5.44548,1.41814 -9.88856,4.86436 -11.97156,9.28557 -1.65886,3.52096 -2.02736,5.1697 -2.0402,9.12813 -0.013,4.00387 0.44059,5.84905 2.39765,9.75376 3.45304,6.88947 9.38647,13.10324 19.36084,20.27556 3.31446,2.38335 3.22458,2.53265 -1.37315,2.28101 -10.91561,-0.59745 -12.20334,-0.52674 -16.71969,0.91809 -1.93332,0.61848 -2.88455,0.77053 -4.82042,0.77053 h -2.4118 l 1.05492,-1.50595 c 1.29539,-1.84923 1.83904,-3.598 1.83904,-5.91574 0,-7.26021 -4.35509,-17.30179 -10.56221,-24.35344 l -1.36049,-1.5456 -0.10454,-3.38182 c -0.20261,-6.55439 -2.09522,-10.8227 -6.36131,-14.34638 -1.356,-1.12002 -3.54625,-2.51404 -3.69865,-2.35408 -0.0469,0.0492 0.66187,1.08082 1.57502,2.29247 1.75033,2.32252 3.47565,5.55159 4.26561,7.98346 0.37625,1.15827 0.48215,2.46552 0.51897,6.4064 l 0.0463,4.95119 1.38435,1.5147 c 3.06166,3.34994 6.35846,8.12321 7.80906,11.30636 1.94371,4.26517 3.50101,10.50211 3.17128,12.70088 -0.58399,3.8943 -6.97235,9.85681 -13.32079,12.43282 -0.92866,0.37682 -3.75095,1.22252 -6.271766,1.87933 -5.179123,1.34945 -7.308273,2.08276 -7.824504,2.69488 -0.195159,0.2314 -0.84056,1.32824 -1.434226,2.4374 l -1.079391,2.01667 -2.889358,0.16477 c -1.589148,0.0906 -6.356341,0.17993 -10.593763,0.19844 -9.876556,0.0431 -12.773539,0.52404 -17.480388,2.90166 l -1.636876,0.82685 z m 3.661645,-40.41617 c 4.368014,-1.11516 8.155711,-4.27041 9.773029,-8.1412 0.328342,-0.78583 0.183942,-0.69737 -1.401472,0.85856 -2.063003,2.02463 -4.758116,3.46115 -8.060295,4.2962 -1.836648,0.46445 -2.655288,0.52167 -5.602023,0.39154 -1.898075,-0.0838 -3.808233,-0.23225 -4.244796,-0.32987 l -0.79375,-0.17747 1.182756,1.2265 c 0.712783,0.73915 1.711547,1.43 2.513541,1.73863 1.64736,0.63396 4.459207,0.69208 6.63301,0.13711 z m -7.568086,-18.80713 c 1.983146,-0.48453 6.031232,-2.31228 7.768508,-3.50756 1.875402,-1.29031 3.85865,-3.06651 5.27097,-4.7207 1.392954,-1.6315 3.646175,-5.24918 3.646175,-5.85415 0,-0.19941 -0.96355,0.59581 -2.141224,1.76718 -3.500094,3.48134 -6.758677,5.73147 -10.427797,7.20066 -3.490688,1.39774 -5.014023,1.69532 -8.597644,1.67952 -2.820205,-0.0124 -3.609285,-0.11485 -5.357812,-0.69535 -1.127787,-0.37441 -2.050521,-0.60206 -2.050521,-0.50587 0,0.0962 0.545718,0.79871 1.212706,1.56118 1.238357,1.41563 2.84067,2.51403 4.5669,3.13066 1.333562,0.47636 4.033071,0.4518 6.109739,-0.0556 z m -82.028363,-70.63994 c 0.753008,-0.82391 1.321532,-1.5456 1.263387,-1.60374 -0.196317,-0.19632 -2.425901,0.89323 -2.889452,1.41201 -0.252933,0.28306 -0.538429,0.90742 -0.634435,1.38745 -0.162623,0.81311 -0.13812,0.85328 0.358419,0.58754 0.293136,-0.15688 1.149072,-0.95935 1.902081,-1.78326 z m 20.1001549,-8.10112 c 0.7378942,-0.35294 1.457807,-0.99537 1.9843749,-1.77081 0.454501,-0.66932 1.3167151,-1.72296 1.9160311,-2.34142 l 1.0896655,-1.12448 -0.9573738,2.1e-4 c -1.6504709,3.6e-4 -4.1378733,1.40477 -6.4179816,3.62365 -1.144009,1.11328 -2.080017,2.13795 -2.080017,2.27703 0,0.41702 3.1999081,-0.0589 4.4653009,-0.66418 z M 13.249005,282.68568 c 0,-0.4792 2.146875,-4.56738 3.264071,-6.21558 1.125214,-1.66004 3.53477,-4.21144 5.329024,-5.64273 1.519752,-1.21232 0.469386,-1.11805 -1.700531,0.15262 -2.135801,1.25069 -4.480747,3.39633 -5.574333,5.10053 -0.464325,0.72359 -0.939047,1.31562 -1.054937,1.31562 -0.11589,0 -1.561994,0.23157 -3.213564,0.5146 -2.6591591,0.4557 -5.1318454,1.10198 -6.6908518,1.74878 -0.4110652,0.17055 -0.2862032,-0.20403 0.6283984,-1.88517 1.7751262,-3.26287 3.8918563,-6.08594 6.6314734,-8.84437 3.340957,-3.36389 5.063187,-4.29716 8.202083,-4.44465 1.922052,-0.0903 2.729702,0.0226 5.556249,0.77651 2.646634,0.70596 3.814392,0.88291 5.845865,0.88584 2.498781,0.004 2.578131,-0.016 5.062243,-1.24924 1.388019,-0.68909 3.579411,-2.06978 4.86976,-3.06818 2.647431,-2.04844 6.432507,-5.91388 8.08388,-8.25553 l 1.103813,-1.5652 3.019972,3.16938 c 3.508589,3.68217 6.212158,5.92555 10.176208,8.44405 l 2.839868,1.80427 -3.633618,-0.0348 c -3.50452,-0.0336 -3.686511,-0.008 -5.122391,0.71977 -2.904284,1.47203 -8.254035,7.13532 -10.090384,10.68175 -0.470942,0.90951 -1.034852,1.73202 -1.253133,1.82781 -0.218282,0.0958 -5.337969,0.26451 -11.377083,0.37493 -11.951467,0.21853 -13.066729,0.34198 -16.933332,1.87447 -1.091407,0.43256 -2.43086,1.07949 -2.976563,1.43762 -0.545703,0.35812 -0.992187,0.52774 -0.992187,0.37692 z M 191.19912,253.53647 c 2.29398,-6.72629 1.83147,-16.62796 -1.19031,-25.48306 -0.44655,-1.30856 -0.8119,-2.46942 -0.8119,-2.57969 0,-0.11027 0.38696,-0.20191 0.8599,-0.20364 1.32789,-0.005 3.50655,-0.66526 5.02532,-1.5233 1.50484,-0.85018 2.9182,-2.63304 3.36628,-4.24634 0.47213,-1.69986 0.31953,-4.51629 -0.34699,-6.40415 -2.06856,-5.85901 -7.72062,-11.02792 -20.78455,-19.00781 -4.62632,-2.82591 -7.25348,-4.81744 -9.9544,-7.54598 -4.03891,-4.0802 -6.54754,-8.66699 -7.39355,-13.51839 -0.6836,-3.92006 -0.44658,-6.73288 0.89745,-10.65009 1.91312,-5.57586 6.41847,-10.53635 11.94986,-13.15708 10.10193,-4.7862 24.03659,-1.45515 31.21442,7.46175 2.49449,3.09886 4.09169,6.26554 5.23857,10.3862 l 0.55229,1.98438 -0.95841,-1.19063 c -1.68941,-2.09871 -5.67428,-5.80329 -7.69922,-7.15765 -9.28749,-6.21185 -19.22859,-6.26737 -25.35036,-0.14156 -3.42295,3.42521 -4.48638,6.84447 -3.32148,10.67963 1.61295,5.31028 6.76234,9.23073 20.67503,15.74076 10.85258,5.07814 17.91005,11.24001 21.88884,19.11111 2.53377,5.01248 3.57079,9.36318 3.5632,14.94896 -0.0157,11.5434 -5.8652,21.99743 -16.16075,28.88193 -3.79931,2.54055 -8.4741,4.80762 -11.06933,5.36814 l -0.85059,0.18372 z M 34.538729,183.5341 c -0.606926,-11.28404 1.496005,-21.29669 7.071015,-33.66712 3.114868,-6.91161 6.790085,-13.20303 11.027576,-18.87756 l 1.750393,-2.344 1.324915,0.11261 c 3.687846,0.31344 6.364559,3.47576 6.333817,7.48291 -0.03067,3.99816 -2.061533,7.88603 -7.452055,14.26622 -6.031947,7.13937 -7.601962,9.13636 -10.001379,12.72127 -2.720807,4.0651 -5.087072,8.61396 -6.606396,12.7 -1.092055,2.93695 -2.770902,9.13083 -2.774731,10.23699 -0.0014,0.3916 -0.109356,0.77805 -0.240001,0.8588 -0.132562,0.0819 -0.323987,-1.46047 -0.433154,-3.49012 z m 73.298811,-2.02171 c -1.70466,-0.4177 -3.93371,-1.54664 -5.35773,-2.71352 -1.30946,-1.073 -1.40519,-1.41466 -0.39696,-1.4167 0.40019,-8.1e-4 1.17566,-0.12591 1.72329,-0.27799 l 0.99568,-0.27651 -0.74957,-1.11107 c -0.41227,-0.6111 -0.8825,-1.46827 -1.04497,-1.90483 -0.404,-1.08559 -0.89901,-3.61934 -0.73847,-3.77988 0.0719,-0.0719 0.61697,0.30844 1.21119,0.84528 1.24669,1.12631 3.21667,2.42073 5.24279,3.44488 l 1.41441,0.71495 1.31146,-1.40637 c 2.26167,-2.42532 3.25973,-4.43009 5.24959,-10.5447 1.01134,-3.1077 1.79445,-5.6947 1.74025,-5.74889 -0.32769,-0.3277 -2.94878,1.23957 -4.08859,2.44476 -1.4995,1.58549 -1.9989,2.96112 -2.28146,6.28437 -0.21267,2.50129 -0.81441,3.52543 -2.58846,4.40544 -0.69696,0.34573 -1.32398,0.57182 -1.39338,0.50242 -0.0694,-0.0694 0.11145,-0.64992 0.40188,-1.29005 0.58782,-1.2956 0.67337,-3.0958 0.27535,-5.79409 -0.53009,-3.59367 0.54155,-6.39063 3.49691,-9.12684 0.98697,-0.91379 1.7945,-1.73438 1.7945,-1.82354 0,-0.313 -4.38484,-0.14886 -6.17915,0.23131 -0.99743,0.21132 -2.63647,0.76355 -3.64229,1.22716 l -1.82877,0.84294 0.17165,0.95105 c 0.0944,0.52308 0.38291,1.64016 0.64111,2.48242 l 0.46944,1.53136 -0.57068,-0.16803 c -0.98735,-0.29071 -2.48484,-1.38274 -3.222693,-2.35011 l -0.710446,-0.93145 -1.22919,0.70354 c -0.676054,0.38694 -1.258692,0.72177 -1.294752,0.74406 -0.03606,0.0223 0.339727,1.51914 0.835081,3.32635 0.495354,1.8072 0.845218,3.3425 0.777475,3.41176 -0.321722,0.32895 -3.167625,-1.54965 -4.339643,-2.86462 -0.719615,-0.8074 -1.308391,-1.5525 -1.308391,-1.65579 0,-0.10329 -0.773907,0.0638 -1.719792,0.37135 -1.387154,0.45099 -1.716898,0.66385 -1.704831,1.10051 0.01349,0.48821 1.172229,4.08618 1.686825,5.23772 0.277309,0.62055 -0.10994,0.59214 -1.622952,-0.11906 -1.271045,-0.59746 -2.994832,-2.12123 -3.968987,-3.50844 -0.514492,-0.73265 -0.598173,-0.76129 -1.295736,-0.44346 -0.88226,0.40199 -1.105395,0.19314 -2.13021,-1.99375 -1.947964,-4.15685 -1.743805,-8.93544 0.507641,-11.88198 1.259761,-1.64869 1.620097,-1.80236 4.05508,-1.72933 4.55339,0.13656 8.350463,-1.95865 15.374021,-8.48333 6.42309,-5.96686 12.5183,-9.10715 24.2997,-12.51935 2.29467,-0.6646 4.27155,-1.17483 4.39309,-1.13384 0.12153,0.041 -0.19089,0.87819 -0.69426,1.86046 -0.50337,0.98226 -0.86058,1.78593 -0.7938,1.78593 0.25154,0 12.02122,-3.51608 14.81108,-4.42467 6.3722,-2.07527 9.58823,-3.87319 12.77282,-7.14065 3.22907,-3.31309 5.41989,-8.6377 4.96667,-12.0711 -0.583,-4.41645 -3.76414,-7.800415 -8.49007,-9.031362 -5.77012,-1.502927 -13.6331,1.252443 -18.46376,6.470132 -4.12827,4.45903 -6.71096,10.222 -7.73693,17.26407 -0.23882,1.63925 -0.46346,3.01221 -0.49919,3.05102 -0.0357,0.0388 -1.4818,0.47669 -3.2135,0.97306 -8.82196,2.52875 -13.68226,4.79584 -19.5527,9.1204 -1.16417,0.8576 -2.14309,1.53433 -2.17539,1.50384 -0.0323,-0.0305 0.58892,-3.89782 1.38047,-8.59406 2.33385,-13.84669 4.25729,-20.03721 8.64149,-27.81234 2.26073,-4.00928 4.65705,-7.118828 8.15586,-10.583333 6.97736,-6.908951 14.53267,-10.73703 24.61111,-12.469809 2.90117,-0.498797 9.88003,-0.419472 13.09687,0.148866 5.07482,0.896597 9.69707,2.695032 13.59024,5.287715 8.788,5.852434 13.47493,16.350187 12.46179,27.911861 -0.78601,8.96972 -4.67463,16.96387 -11.60211,23.85141 -2.94764,2.93065 -5.54371,4.83608 -8.89367,6.52768 -3.26437,1.64839 -4.76677,2.18425 -11.71125,4.17704 -7.80503,2.23974 -10.34577,3.23469 -13.06532,5.11635 -2.14596,1.48479 -2.21721,1.56809 -2.42489,2.83463 -0.82751,5.04659 -2.15925,8.50359 -4.14481,10.7593 -0.58824,0.66828 -2.10616,1.91004 -3.37315,2.75948 -4.46953,2.99654 -7.19464,6.06679 -10.11264,11.39343 -2.21307,4.03984 -2.78525,4.79758 -4.05953,5.37607 -1.30041,0.59034 -4.06563,0.65719 -6.14174,0.14847 z M 86.515144,154.45892 c 0.886017,-0.96693 1.61094,-1.8533 1.61094,-1.96971 0,-0.40344 -2.671842,0.90074 -2.964102,1.44683 -0.414672,0.77482 -0.725714,2.28094 -0.471057,2.28094 0.117304,0 0.938202,-0.79113 1.824219,-1.75806 z m 24.838006,-10.91324 c 0.60006,-0.30613 1.42375,-1.00053 1.83042,-1.54311 0.40666,-0.54258 1.34635,-1.61443 2.08819,-2.38189 l 1.3488,-1.39537 h -0.83776 c -2.32331,0 -5.76228,1.93451 -8.47443,4.76709 l -1.32291,1.38167 2.13833,-0.1359 c 1.43141,-0.091 2.49903,-0.3199 3.22936,-0.69249 z M 87.502224,124.26092 c -1.104732,-3.93723 -4.304199,-9.00353 -7.680461,-12.16185 -1.921328,-1.79731 -4.574078,-3.75507 -6.018244,-4.44153 l -0.961108,-0.45684 4.941898,-4.92676 c 5.518332,-5.501419 7.632942,-8.238071 9.940206,-12.864251 3.096566,-6.208772 3.317368,-11.113903 0.74438,-16.536458 -1.295948,-2.7312 -4.648605,-6.076707 -7.486561,-7.470592 -2.99877,-1.472871 -5.061701,-1.867391 -8.995832,-1.720388 -2.672853,0.09987 -3.718417,0.261544 -5.450466,0.842776 -6.496534,2.180077 -13.66082,8.325264 -20.991472,18.005495 -3.400899,4.490937 -7.891306,10.085109 -10.372611,12.922253 l -0.888574,1.016004 -0.012,-1.942045 c -0.007,-1.136311 -0.21964,-2.600683 -0.512469,-3.529545 l -0.500468,-1.5875 -0.208065,2.112088 c -0.401823,4.078949 -2.081641,8.152963 -4.404622,10.682403 -0.770182,0.83863 -2.472604,2.10148 -4.484113,3.32631 -5.626888,3.42625 -7.22199,4.85959 -9.444766,8.48696 -3.548462,5.79077 -4.641779,7.30107 -5.5643452,7.68655 -1.8459864,0.7713 -4.9425407,0.25387 -8.0514483,-1.34538 -2.6561596,-1.36635 -2.6080848,-1.27952 -1.16847412,-2.11057 0.70282152,-0.40572 1.32658632,-0.7789 1.38614412,-0.82929 0.059558,-0.0504 -0.5707141,-0.80348 -1.40060398,-1.67353 -1.47108532,-1.54228 -2.42937642,-3.22947 -2.82310872,-4.97044 -0.1069595,-0.47294 -0.1492678,-0.85989 -0.094019,-0.85989 0.055249,0 0.6787629,0.35583 1.3855855,0.79075 1.55953577,0.95959 6.0036833,3.07742 6.942749,3.30852 0.5825321,0.14337 0.8214315,-0.0142 1.6769451,-1.10615 1.7469786,-2.22975 4.3000206,-8.00367 5.0400446,-11.39849 l 0.188502,-0.86474 -1.350301,0.53224 c -2.4328272,0.95893 -3.8157111,1.77396 -6.473194,3.81512 -2.5564343,1.96355 -3.0685952,2.2599 -3.0685952,1.77562 0,-0.84586 1.218793,-3.89826 2.1024289,-5.26542 1.5230575,-2.356465 4.7683676,-4.67174 7.5193043,-5.364434 0.674401,-0.169816 1.226183,-0.355831 1.226183,-0.413367 0,-0.23679 -1.794552,-1.742963 -2.8070435,-2.355959 C 8.7856395,93.006548 7.3005581,92.45851 6.0834472,92.150728 3.2882039,91.44387 0.85040791,91.575863 -2.5598486,92.618713 l -2.4473957,0.748409 0.00406,1.328575 c 0.00362,1.184117 0.6875205,4.469524 1.2054462,5.790873 0.1664526,0.42467 0.104773,0.46609 -0.4418803,0.29679 -1.6266889,-0.50381 -2.7074349,-1.304885 -3.8448976,-2.849918 -0.6659154,-0.904523 -1.3784194,-1.968757 -1.5833422,-2.364965 -0.2986153,-0.577358 -0.5164348,-0.697596 -1.0971328,-0.605625 -0.398501,0.06311 -1.285787,0.185574 -1.971747,0.272134 -1.23491,0.15583 -1.2457,0.16571 -1.094901,1.0025 0.08377,0.464815 0.54333,2.035744 1.021254,3.490952 0.477925,1.455212 0.821456,2.695792 0.763402,2.756842 -0.05805,0.0611 -0.704068,-0.16931 -1.435588,-0.51194 -1.521224,-0.7125 -3.635598,-2.820549 -4.470529,-4.457149 -0.549156,-1.076434 -0.602904,-1.109034 -1.550573,-0.940472 -0.539934,0.09604 -1.08399,0.189845 -1.209014,0.208459 -0.359884,0.05358 -0.914534,-1.778564 -1.225099,-4.046804 -0.229218,-1.674113 -0.20814,-2.455017 0.107075,-3.966792 0.462811,-2.219657 1.678403,-4.62735 2.966601,-5.875873 l 0.921741,-0.893353 2.829541,-0.0186 c 2.050668,-0.01348 3.446372,-0.182982 5.07041,-0.615769 4.8631041,-1.29596 6.2960809,-1.925663 11.3851711,-5.003064 4.7436956,-2.868539 6.6336579,-3.60472 13.0430279,-5.080539 3.085553,-0.710479 7.135729,-1.655444 9.000391,-2.099922 1.864662,-0.444479 3.495578,-0.808143 3.624257,-0.808143 0.456756,0 -0.36407,1.686829 -1.643136,3.376709 l -1.297605,1.714374 1.005803,-0.186316 c 3.112982,-0.576653 6.58691,-2.321307 9.077318,-4.558755 0.778729,-0.69963 2.508311,-2.646677 3.843517,-4.326771 4.169706,-5.246757 7.599494,-8.259834 13.176627,-11.575696 4.760427,-2.830293 9.330247,-4.601695 14.990887,-5.810926 3.070504,-0.655924 3.776543,-0.707185 9.791409,-0.710897 6.988707,-0.0043 8.905632,0.228034 13.32812,1.61548 2.730678,0.856684 6.670738,2.878534 8.932605,4.583787 2.291896,1.727891 5.579256,5.221561 7.238916,7.693226 4.14042,6.166144 6.01296,12.482167 5.99598,20.224326 -0.0152,6.953229 -1.47123,12.693755 -4.89881,19.314582 -2.11517,4.085718 -3.37858,6.098238 -6.830439,10.880428 -1.890244,2.61874 -10.848439,14.2178 -11.582247,14.99668 -0.110129,0.1169 -0.396847,-0.48819 -0.637152,-1.34463 z M -16.969099,89.024599 c 1.209998,-0.637735 3.153564,-2.287545 2.944872,-2.499777 -0.25486,-0.259183 -2.772109,0.597075 -3.224333,1.096777 -0.446344,0.493205 -1.069472,1.920381 -0.838469,1.920381 0.07496,0 0.578024,-0.232821 1.11793,-0.517381 z M 10.655832,82.63261 c 0.538286,-0.272777 1.19313,-0.808919 1.455208,-1.191427 0.262079,-0.382508 0.998815,-1.276153 1.637192,-1.985877 l 1.160685,-1.290408 -0.896102,0.0031 c -1.351304,0.0047 -3.527094,0.655566 -5.0001346,1.495658 -2.058066,1.17374 -4.2313821,2.839328 -4.002936,3.067774 0.3631331,0.363133 2.5127504,0.683418 3.6090522,0.537735 0.5820833,-0.07735 1.4987494,-0.363819 2.0370354,-0.636595 z"
       id="path1" /></g></svg>
