<?xml version="1.0" encoding="UTF-8" standalone="no"?>
<!-- Created with Inkscape (http://www.inkscape.org/) -->

<svg
   width="240.39165mm"
   height="242.2561mm"
   viewBox="0 0 240.39164 242.25611"
   version="1.1"
   id="svg1"
   xml:space="preserve"
   inkscape:version="1.4 (86a8ad7, 2024-10-11)"
   sodipodi:docname="hydra2.svg"
   xmlns:inkscape="http://www.inkscape.org/namespaces/inkscape"
   xmlns:sodipodi="http://sodipodi.sourceforge.net/DTD/sodipodi-0.dtd"
   xmlns="http://www.w3.org/2000/svg"
   xmlns:svg="http://www.w3.org/2000/svg"><sodipodi:namedview
     id="namedview1"
     pagecolor="#ffffff"
     bordercolor="#000000"
     borderopacity="0.25"
     inkscape:showpageshadow="2"
     inkscape:pageopacity="0.0"
     inkscape:pagecheckerboard="0"
     inkscape:deskcolor="#d1d1d1"
     inkscape:document-units="mm"
     inkscape:zoom="0.53858859"
     inkscape:cx="721.3298"
     inkscape:cy="721.3298"
     inkscape:window-width="1828"
     inkscape:window-height="1057"
     inkscape:window-x="3924"
     inkscape:window-y="-8"
     inkscape:window-maximized="1"
     inkscape:current-layer="layer1" /><defs
     id="defs1" /><g
     inkscape:label="Warstwa 1"
     inkscape:groupmode="layer"
     id="layer1"
     transform="translate(40.071769,-47.013965)"><path
       style="fill:#000000"
       d="m 72.287976,289.14113 c -7.25255,-0.44061 -15.03418,-1.66977 -22.40933,-3.5397 -7.92774,-2.01004 -14.84455,-4.66123 -22.90353,-8.77886 -3.77595,-1.92928 -4.98067,-2.42439 -6.13124,-2.5198 -1.91462,-0.15878 -4.8641,0.52613 -8.42,1.95522 -3.3583102,1.34968 -3.7478702,1.41307 -3.4897402,0.56787 0.99644,-3.26262 3.3333002,-6.06262 7.7252002,-9.25622 1.20054,-0.87299 2.18281,-1.64824 2.18281,-1.72278 0,-0.27691 -2.81715,0.24932 -3.90281,0.72904 -1.35776,0.59994 -3.76457,2.8222 -4.75905,4.39413 -0.4884702,0.77211 -0.9715402,1.19936 -1.4830702,1.31171 -0.41725,0.0916 -2.35346,0.67561 -4.30269,1.29771 -4.09556998,1.3071 -4.05970998,1.32855 -2.65808,-1.5897 2.00465,-4.17374 6.62921,-9.15372 10.0877202,-10.86301 1.91302,-0.94547 1.94546,-0.95128 3.74625,-0.6709 0.99909,0.15555 2.82855,0.59175 4.06548,0.96934 4.46463,1.36288 7.67777,1.11376 11.50316,-0.89185 2.2453,-1.17718 5.73222,-4.52783 7.89465,-7.58611 0.82316,-1.16417 1.74086,-2.40315 2.03935,-2.7533 l 0.5427,-0.63663 2.83455,2.77221 c 3.40573,3.33085 5.5516,5.07024 9.58506,7.76945 l 3.03907,2.03376 -1.98438,-0.22712 c -5.75616,-0.65882 -7.27582,-0.0907 -11.64166,4.35239 -4.56754,4.64833 -7.16504,8.83763 -7.36173,11.87313 -0.0957,1.47679 -0.0399,1.70205 0.57313,2.3151 0.93527,0.93528 2.1186,0.88773 6.14537,-0.24691 4.08467,-1.15095 4.175,-1.15437 3.95434,-0.14969 -0.78421,3.57048 0.7885,4.25524 5.82257,2.53516 5.28855,-1.80703 5.69271,-1.85593 15.34027,-1.85613 7.62953,-1.5e-4 8.81472,-0.0547 9.39271,-0.43212 0.53316,-0.34817 1.68974,-0.46132 5.96274,-0.58335 2.91571,-0.0833 7.51076,-0.40161 10.21124,-0.70743 l 4.90996,-0.55604 0.94095,0.94095 c 1.173374,1.17337 1.707654,1.18937 5.287834,0.15838 1.49462,-0.43041 3.2235,-0.86235 3.84197,-0.95986 1.11512,-0.17582 1.12448,-0.1706 1.12448,0.62675 0,1.05081 1.28036,2.17401 2.47821,2.17401 0.46757,0 1.97648,-0.34616 3.35314,-0.76924 2.18503,-0.6715 8.34007,-1.62733 10.33448,-1.60485 1.86113,0.021 -11.85039,4.95988 -18.31436,6.59686 -7.937234,2.01008 -13.627764,2.9309 -21.267104,3.44135 -3.70216,0.24738 -10.54595,0.29028 -13.89062,0.0871 z m -22.90275,-8.83596 c 0.30233,-1.54977 2.46554,-5.66567 3.69845,-7.03696 0.64934,-0.72222 1.60373,-1.60131 2.12086,-1.95352 1.17294,-0.79888 1.18646,-1.03726 0.0588,-1.03726 -1.76371,0 -4.51887,2.25146 -6.23269,5.09323 -0.49709,0.82424 -0.74572,0.99218 -1.4689,0.99218 -1.26828,0 -5.89326,1.2227 -7.35454,1.9443 -0.70469,0.348 -1.25401,0.49311 -1.25049,0.33035 0.0343,-1.58423 4.38929,-8.50422 7.01608,-11.14834 2.87058,-2.88952 5.94759,-3.71979 9.24951,-2.49581 3.90535,1.44766 4.59736,1.62922 6.73208,1.76632 4.30471,0.27646 6.5624,-0.70234 11.39188,-4.93886 3.4143,-2.99508 7.38514,-5.81129 10.25261,-7.27137 1.05502,-0.53721 1.9162,-1.05794 1.91373,-1.15718 -0.002,-0.0993 -0.80614,-0.62775 -1.78593,-1.17445 -1.71542,-0.95716 -3.17122,-2.14317 -7.98546,-6.50554 -2.67117,-2.42046 -6.2354,-6.82649 -7.55749,-9.34243 -1.02025,-1.94156 -2.09205,-5.71157 -2.40159,-8.44758 -0.29902,-2.64295 -0.69226,-1.02352 -0.71203,2.93226 -0.0147,2.94287 0.0636,3.54052 0.71057,5.42396 1.29661,3.7746 2.33855,5.39013 6.10545,9.4665 1.9332,2.09203 4.36112,4.56836 5.39538,5.50297 1.03425,0.9346 1.88162,1.76965 1.88303,1.85567 0.001,0.086 -0.59166,0.47981 -1.31794,0.8751 -2.45506,1.3362 -5.41383,3.75246 -8.13382,6.64241 l -2.70745,2.87663 -1.52588,-0.47118 c -3.46421,-1.06973 -10.66802,-5.28722 -14.75505,-8.63839 -2.32247,-1.90431 -7.05853,-6.7525 -8.64462,-8.84929 -5.48075,-7.24548 -9.47048,-16.14469 -11.32354,-25.25746 -1.12823,-5.54828 -1.43225,-9.12347 -1.24874,-14.6851 0.29537,-8.952 2.03027,-17.05289 5.17614,-24.16934 1.33123,-3.01146 4.32269,-8.61996 5.67136,-10.63289 0.69384,-1.03558 5.40905,-6.95396 10.68798,-13.41519 1.94219,-2.37719 3.2502,-4.77708 4.05357,-7.43741 0.83,-2.74849 0.68324,-6.28892 -0.33252,-8.0222 -1.03663,-1.76887 -2.58771,-3.04536 -4.35942,-3.58765 -2.0902,-0.63978 -6.96282,-0.6335 -9.3375,0.012 -4.12488,1.1213 -8.4947,3.86934 -13.52687,8.50659 -2.93557,2.7052 -3.06343,2.83956 -7.55857,7.94258 -5.05418,5.73767 -5.63845,6.61853 -5.92997,8.94021 -0.40115,3.19482 -1.09595,4.2379 -6.4962602,9.75258 -2.66092,2.71728 -5.30338,5.66047 -5.87212,6.54043 -0.56875,0.87996 -1.65580998,3.01988 -2.41568998,4.7554 -2.36493002,5.40134 -3.17374002,6.0065 -7.46682002,5.58683 -3.6520098,-0.357 -5.1171398,-0.72138 -6.0470898,-1.50387 -0.71666,-0.60304 -1.11536,-1.37657 -0.5198,-1.00849 0.34129,0.21093 2.38736,-0.3462 2.38736,-0.65005 0,-0.13011 -0.22887,-0.3092 -0.50859,-0.39798 -1.37831,-0.43746 -3.59619,-3.9552 -3.3882,-5.37398 l 0.10526,-0.71797 0.20818,0.85561 c 0.21851,0.89802 0.67293,0.93504 0.67293,0.0548 0,-0.28245 0.0476,-0.51355 0.1057,-0.51355 0.0581,0 0.70988,0.40657 1.44831,0.9035 2.42035,1.62878 4.5850098,1.61015 6.1768198,-0.0532 1.52225,-1.59063 6.14813,-9.81964 6.35182,-11.2993 0.0623,-0.45292 -0.0577,-0.51504 -0.85348,-0.44155 -1.46026,0.13485 -2.3066,0.78258 -4.89315,3.74488 -2.35497,2.69707 -4.1557198,4.24954 -5.3545998,4.61631 -0.58014,0.17749 -0.57622,0.14687 0.22486,-1.75387 2.6338598,-6.24942 3.6662998,-7.74972 6.5015098,-9.4477 l 1.73719,-1.04039 -1.0341,-0.52755 c -1.84971,-0.94365 -4.03908,-1.44612 -5.6293598,-1.29196 -2.10485,0.20405 -4.7747,1.10586 -6.08588,2.05568 -1.1084,0.80292 -1.1244,0.83684 -0.96844,2.05336 0.33598,2.62077 0.47289,4.80883 0.30089,4.80883 -0.31999,0 -1.31614,-0.59185 -2.12913,-1.265 -1.04083,-0.86179 -1.71588,-1.89815 -1.71805,-2.6376 -0.002,-0.67198 -0.46204,-0.73731 -1.72153,-0.24446 -1.85696,0.72665 -1.85276,0.71829 -1.21649,2.41889 0.57438,1.53515 1.05065,4.63859 0.71187,4.63859 -1.01146,0 -3.78196,-2.71813 -4.70318,-4.61427 -0.60377,-1.24275 -0.935,-1.44023 -1.48805,-0.88717 -1.27603,1.27602 -2.7616,-5.58012 -1.88792,-8.71305 0.53011,-1.90092 2.52702,-3.78804 4.81363,-4.54898 2.47474,-0.82353 5.83247,-2.93733 8.83749,-5.56347 4.45829,-3.89619 7.17225,-5.47249 13.5417098,-7.86519 4.24631002,-1.59515 6.05793,-2.45705 9.24031,-4.39623 1.20163,-0.73221 2.24373,-1.27235 2.31578,-1.2003 0.32053,0.32053 -1.89134,5.52019 -2.51117,5.90326 -0.14828,0.0916 -0.26961,0.29236 -0.26961,0.44603 0,0.37457 1.05527,-0.33122 3.39786,-2.27258 1.06846,-0.88546 2.4972102,-1.99754 3.1750002,-2.47129 0.67779,-0.47375 2.78016,-2.44311 4.67193,-4.37636 8.14485,-8.32341 17.20119,-13.3743 26.9875,-15.05141 5.44894,-0.93381 11.77803,-0.39872 16.28739,1.377 4.80478,1.89206 8.96267,5.81504 11.71051,11.04889 2.17841,4.14927 3.26837,9.08939 3.01346,13.65823 -0.20862,3.7392 -0.73312,5.29656 -2.28098,6.77272 -1.38334,1.31926 -2.68078,3.0689 -3.95288,5.33058 -0.84916,1.50973 -1.44379,4.42818 -1.18386,5.81044 0.0872,0.46392 -0.45502,1.51615 -2.03054,3.94023 -2.70085,4.15549 -5.60211,9.95059 -6.24901,12.48206 -0.30393,1.18934 -0.49561,2.86272 -0.4963,4.33271 -10e-4,2.22764 0.0669,2.53265 0.97315,4.36562 0.53585,1.08386 1.32845,2.30974 1.76133,2.72418 l 0.78706,0.75354 1.52625,-0.4437 c 1.72564,-0.50165 5.95058,-2.56171 8.24006,-4.01781 4.03767,-2.56793 10.34011,-8.15073 12.71087,-11.25947 0.53025,-0.69532 1.03052,-1.26421 1.1117,-1.26421 0.48257,0 1.2873,4.99173 0.84845,5.26296 -0.15212,0.094 -0.36005,0.80015 -0.46207,1.56919 l -0.18548,1.39826 1.21992,1.13604 c 2.60309,2.42411 5.85745,3.59968 9.95395,3.59565 2.34401,-0.002 2.62762,-0.0618 3.974994,-0.83442 2.29848,-1.31793 4.21588,-3.44756 5.67833,-6.30685 1.31861,-2.57804 2.7632,-4.88015 2.947,-4.69634 0.42726,0.42725 -2.11093,9.97117 -3.59036,13.50025 -0.88075,2.10095 -3.67172,6.38524 -5.443114,8.35545 -0.68344,0.76015 -1.19366,1.43105 -1.13383,1.49088 0.0598,0.0598 1.11683,-0.29822 2.348894,-0.79567 4.77521,-1.92803 9.89176,-2.77332 16.78687,-2.77332 11.91527,0 21.64303,2.5801 29.619,7.85585 3.05711,2.02214 8.33631,7.11905 10.92242,10.54526 4.26662,5.65264 8.08813,14.70438 9.08433,21.51742 0.40436,2.76547 0.18636,8.32653 -0.41102,10.48459 -1.06161,3.83515 -3.62117,7.84975 -6.41523,10.06212 -1.77545,1.40582 -5.08758,3.12545 -5.7664,2.99385 -0.25929,-0.0503 -0.59039,-0.44857 -0.73579,-0.88513 -0.46512,-1.39658 -2.71945,-4.95057 -4.78309,-7.54063 -1.94286,-2.43846 -8.08658,-8.82614 -8.29174,-8.62098 -0.0559,0.0559 0.42252,0.79812 1.0632,1.64935 5.61278,7.4573 11.98049,20.459 12.29962,25.11357 0.15008,2.18897 -0.28277,3.31725 -1.44407,3.76418 -0.42089,0.16198 -3.59291,0.33886 -7.35466,0.41012 -6.56706,0.12441 -11.1864,0.4842 -19.31459,1.50437 -7.61279,0.95549 -10.32822,1.6217 -12.43375,3.05055 -1.76068,1.19483 -1.75726,0.49437 0.0157,-3.22196 0.96125,-2.01485 1.4687,-2.70881 3.08027,-4.21237 1.06118,-0.99007 1.6913,-1.71532 1.40026,-1.61168 -1.35446,0.48232 -4.83626,2.83219 -6.27709,4.23641 l -1.59693,1.55636 -3.51175,0.74445 c -1.93146,0.40945 -3.95276,0.92872 -4.49177,1.15393 l -0.98002,0.40948 0.1674,-0.72591 c 0.30481,-1.32175 2.23331,-4.932 3.59555,-6.73104 1.60675,-2.12195 4.13072,-4.29925 5.96115,-5.14238 1.12816,-0.51965 2.00304,-0.6497 5.68854,-0.84558 2.39543,-0.12731 6.31382,-0.17479 8.70753,-0.10551 2.73708,0.0792 4.99746,0.0106 6.09099,-0.18478 1.73235,-0.30959 3.80166,-1.25178 3.78328,-1.72259 -0.005,-0.13619 -1.30345,-1.04612 -2.88474,-2.02205 -6.0382,-3.72664 -8.00216,-5.09301 -10.29617,-7.16329 -6.96317,-6.28405 -10.67998,-12.84814 -11.14236,-19.67804 -0.19161,-2.8303 0.22479,-4.61015 1.70067,-7.26919 2.64705,-4.76911 6.39214,-6.61458 13.42321,-6.61458 5.33066,0 8.81958,1.10785 13.71678,4.35555 0.99579,0.66038 1.86319,1.2007 1.92754,1.2007 0.2603,0 -0.4707,-1.04551 -1.64143,-2.34765 -3.44097,-3.82718 -8.0079,-5.68946 -14.81583,-6.04153 -3.6219,-0.1873 -6.10339,0.30204 -9.07559,1.78967 -2.62724,1.31497 -4.30546,2.79767 -5.85737,5.17495 -1.94473,2.97904 -2.5141,5.0879 -2.49194,9.22976 0.0195,3.63927 0.40044,5.32121 2.15748,9.525 1.95132,4.66862 7.40389,11.00036 12.66281,14.70456 1.15205,0.81147 2.90638,2.04363 3.89851,2.73815 0.99213,0.69451 1.73498,1.33163 1.65079,1.41582 -0.0842,0.0842 -1.43171,0.12483 -2.99449,0.0903 -3.05202,-0.0674 -12.67824,0.62627 -14.58276,1.05088 -1.38742,0.30932 -1.91708,0.5766 -3.4441,1.73799 -0.78358,0.59595 -1.452,0.88417 -2.05053,0.88417 -0.48839,0 -0.88799,-0.0661 -0.88799,-0.14681 0,-0.0808 0.50012,-0.88326 1.11137,-1.78338 1.41437,-2.08275 1.77412,-3.10805 1.78284,-5.08127 0.0145,-3.28184 -1.80528,-9.51742 -4.08808,-14.00795 -0.80956,-1.5925 -2.65806,-4.69591 -4.107784,-6.89647 l -2.63585,-4.00102 v -2.50679 c 0,-2.90682 -0.45412,-4.89765 -1.71561,-7.52121 -1.02353,-2.12867 -3.53216,-5.01554 -5.52408,-6.35697 -1.44287,-0.97169 -1.88844,-0.99259 -1.05922,-0.0497 1.38477,1.57463 3.35331,5.33129 4.47074,8.53177 0.63935,1.83118 0.74216,2.53873 0.76224,5.24594 0.0202,2.716 -0.0392,3.17507 -0.44965,3.47596 -0.43372,0.31797 -0.36533,0.42564 0.82578,1.29999 3.06646,2.25099 6.736544,8.49714 8.941534,15.21769 1.68182,5.12598 2.00123,6.90453 1.52685,8.50194 -0.80465,2.70954 -3.71566,6.07673 -6.954324,8.04411 -2.00163,1.21592 -4.17498,2.02498 -8.98042,3.34307 -8.6403,2.36995 -8.91824,2.51357 -10.71969,5.539 l -0.86648,1.45521 -3.95331,0.30748 c -2.17432,0.16911 -6.57269,0.31998 -9.77415,0.33526 -6.9114,0.033 -7.90701,0.22628 -13.32506,2.58694 -0.28188,0.12281 -0.32221,-0.0391 -0.18498,-0.74256 z m 3.12613,-37.14168 c 3.22499,-0.84 5.83564,-2.7327 7.04851,-5.11013 0.77112,-1.51151 0.71597,-1.55558 -0.5672,-0.45322 -2.98675,2.56589 -9.75324,4.55212 -13.22917,3.88327 -1.42369,-0.27395 -1.53617,-0.1357 -0.60292,0.74103 1.30662,1.22752 4.6188,1.65064 7.35078,0.93905 z m -5.88264,-16.82505 c 3.93008,-1.0869 8.78141,-4.20232 10.90403,-7.00234 0.54781,-0.72264 1.43075,-2.14732 1.96209,-3.16596 l 0.96608,-1.85208 -2.13629,2.26825 c -4.7254,5.01729 -9.13142,7.02135 -16.06686,7.30792 -3.46315,0.1431 -4.23324,0.0185 -6.83636,-1.10619 -0.42426,-0.18331 -0.39866,-0.0371 0.20048,1.14528 1.12047,2.21114 2.69658,2.92325 6.50891,2.94083 1.76287,0.008 3.11283,-0.15266 4.49792,-0.53571 z m -74.18254,-61.96049 c 0.44202,-0.47294 1.0688,-1.24685 1.39284,-1.71979 l 0.58916,-0.85989 h -0.6206 c -1.20028,0 -2.59043,1.55482 -2.59043,2.89727 0,0.75613 0.29733,0.6793 1.22903,-0.31759 z m 18.4061098,-7.80029 c 0.87338,-0.49014 2.17336,-1.65846 3.45908,-3.10877 1.13291,-1.27793 2.02588,-2.35444 1.98437,-2.39224 -0.0656,-0.0597 -1.35907,0.14711 -3.63846,0.58182 -0.36126,0.0689 -1.77861,1.23463 -3.1749998,2.61135 -1.38733,1.36779 -2.76055,2.67623 -3.05159,2.90764 -0.49436,0.39307 -0.41236,0.41301 1.2466,0.3031 1.32908,-0.0881 2.12774,-0.31517 3.1749998,-0.9029 z m 11.18882,103.08656 c -3.73363,-3.05754 -5.05735,-4.36029 -10.32003,-10.15658 -7.7102598,-8.49204 -10.8935398,-12.81416 -15.4655898,-20.99846 -7.51584,-13.4539 -11.60626,-24.036 -13.87182,-35.88696 -4.26128,-22.29045 -3.00203,-42.4584 3.98019,-63.74614 2.51363,-7.66365 5.48211,-14.84089 8.13249,-19.66285 1.4235,-2.58982 1.68716,-2.66042 1.73257,-0.46392 0.012,0.58208 0.31587,2.12109 0.67519,3.42002 0.71679,2.59119 1.61354,3.85602 2.73389,3.85602 0.35692,0 0.79117,0.19451 0.965,0.43225 0.25949,0.35487 -0.003,1.17189 -1.46374,4.56406 -4.23026,9.82054 -7.49404,21.17287 -8.83265,30.72244 -0.6007,4.28534 -0.55314,4.15143 -1.59665,4.49582 -1.26191,0.41647 -2.91011,2.35803 -3.31658,3.9069 -0.49238,1.87623 -0.64477,6.41833 -0.27952,8.3311 0.45012,2.35725 2.05853,5.7266 2.82557,5.91912 0.331,0.0831 0.72848,0.0728 0.8833,-0.0229 0.40226,-0.24861 0.47345,0.0817 0.93919,4.35749 0.92602,8.50142 2.34832,15.87833 4.35425,22.58376 2.49501,8.34038 8.17385,20.50759 12.79898,27.42249 6.8355498,10.21962 14.5090998,18.77511 23.59262,26.30417 1.16417,0.96494 2.15331,1.86147 2.19808,1.99229 0.0448,0.13082 -0.99826,0.79548 -2.31787,1.47703 -1.3196002,0.68155 -2.9810802,1.76227 -3.6921602,2.40159 -0.71108,0.63933 -1.39445,1.15618 -1.51859,1.14855 -0.12414,-0.008 -1.53539,-1.08639 -3.13612,-2.39726 z M 168.98546,250.36677 c 1.47129,-4.17185 1.84353,-7.00964 1.45705,-11.10794 -0.50528,-5.35809 -1.68208,-9.40176 -3.68206,-12.65214 l -0.81153,-1.3189 0.72838,0.18407 c 1.39379,0.35223 3.88593,0.22717 5.14782,-0.25833 3.47041,-1.3352 4.6337,-5.90525 2.75978,-10.84196 -0.75471,-1.98823 -2.59974,-4.80402 -4.66733,-7.12305 -1.81712,-2.0381 -5.27817,-4.59337 -10.84626,-8.00771 -7.83042,-4.80161 -10.12163,-6.71874 -13.75992,-11.51338 -2.73659,-3.60635 -3.82556,-6.05414 -4.52035,-10.16087 -0.84187,-4.97611 1.47913,-12.23755 5.19406,-16.25001 6.27651,-6.77921 17.03941,-8.30865 26.44767,-3.75829 7.04539,3.40755 11.76301,8.70578 13.37948,15.02613 0.82804,3.23758 0.70123,3.58175 -0.60111,1.63149 -0.61174,-0.91609 -1.82785,-2.43059 -2.70247,-3.36556 -4.42132,-4.72641 -9.4953,-7.08216 -15.89674,-7.38054 -5.01491,-0.23375 -8.56151,0.90074 -11.26173,3.60242 -1.74588,1.74682 -2.74528,3.67085 -3.31083,6.37399 -0.70833,3.38556 -0.14648,5.261 2.35881,7.87358 2.56106,2.67074 6.33333,4.98922 15.20286,9.34385 9.37664,4.6036 11.61655,5.98639 15.00154,9.26106 4.65843,4.5066 7.41088,9.54137 8.72292,15.95591 0.55433,2.7101 0.5583,8.01956 0.008,11.13746 -1.89027,10.7164 -8.06505,18.86634 -18.01788,23.78137 -2.23445,1.10344 -5.21955,2.26791 -6.76604,2.63939 l -0.70784,0.17003 z m 22.98513,-45.7771 c -0.89365,-1.34334 -2.36447,-3.32041 -3.26849,-4.39347 l -1.64367,-1.95103 1.0813,-5.32501 c 2.26064,-11.13293 2.78783,-15.82802 2.78153,-24.77189 -0.008,-10.9542 -0.92364,-18.58013 -3.44793,-28.70729 -2.79399,-11.20917 -7.8398,-22.49715 -14.84294,-33.20521 -7.66785,-11.724409 -20.19396,-24.181959 -32.05322,-31.877799 -18.78965,-12.19318 -41.569774,-18.46058 -64.564074,-17.76325 -10.23609,0.31043 -16.29764,1.20227 -25.42246,3.74046 -10.14255,2.82129 -14.49584,4.55873 -23.41412,9.3448 -8.1996,4.4004 -18.5168202,11.71644 -24.2649702,17.20654 -2.01976998,1.9291 -2.95318998,2.59611 -5.23607,3.74168 -1.52797,0.76675 -3.61156,1.67984 -4.63021,2.0291 -1.77731,0.60938 -7.7900498,1.77556 -8.0117198,1.5539 -0.19206,-0.19206 3.78495,-5.25937 6.3522898,-8.09377 8.55686002,-9.44697 18.9584902,-17.90086 29.0497302,-23.61005 6.65454,-3.76484 11.49901,-6.00456 18.25033,-8.43755 10.70806,-3.8589 20.54513,-5.91424 32.80833,-6.85493 5.16357,-0.39609 16.8201,-0.17828 21.69583,0.40539 17.301214,2.07112 32.710734,7.09039 47.032344,15.31962 10.70057,6.14857 16.93472,10.94177 25.21409,19.38615 10.96674,11.18529 17.81064,20.925369 23.67895,33.699289 5.1028,11.10759 7.30631,17.9688 9.09204,28.31042 2.88777,16.72382 2.81562,31.77712 -0.22194,46.30208 -0.76331,3.64997 -3.29457,13.30251 -4.0403,15.40703 l -0.34983,0.98724 z M 27.609226,192.62222 c -0.0998,-8.62674 1.4786,-18.44819 4.20968,-26.19375 2.44238,-6.92679 8.29791,-18.29607 12.09383,-23.48177 l 1.69466,-2.3151 1.2356,0.0116 c 3.06503,0.0287 4.64873,1.2289 5.50405,4.17109 0.48883,1.68149 0.22908,3.57375 -0.86044,6.26837 -1.23048,3.04326 -2.19545,4.42174 -7.7787,11.11208 -4.02206,4.81959 -5.37223,6.57095 -6.9631,9.03209 -1.98309,3.06794 -5.09462,9.29013 -6.06835,12.135 -0.95724,2.7967 -2.38451,8.27645 -2.79102,10.71562 -0.22524,1.35153 -0.24492,1.24785 -0.27621,-1.45521 z m 66.99489,-5.96405 c -1.69883,-0.33611 -4.91165,-1.76045 -5.92511,-2.62677 l -0.91291,-0.78038 0.79375,-0.0144 c 0.43657,-0.008 1.0526,-0.0838 1.36896,-0.16865 0.56399,-0.15127 0.55496,-0.19273 -0.46302,-2.12562 -0.90688,-1.72196 -1.03823,-2.19444 -1.03823,-3.7348 v -1.76345 l 1.65365,1.7653 c 1.77622,1.89615 3.01188,2.58049 4.65935,2.58049 0.92764,0 1.18946,-0.16469 2.4559,-1.54482 0.87518,-0.95374 2.34797,-3.2062 3.849274,-5.88698 2.62013,-4.67862 2.99225,-5.48397 2.99225,-6.47605 0,-0.54247 -0.12811,-0.64423 -0.81101,-0.64423 -0.98685,0 -2.89635,1.81224 -4.878694,4.63021 -1.54671,2.1987 -4.67339,5.95312 -4.95776,5.95312 -0.35626,0 -0.21595,-0.75009 0.55687,-2.97706 2.18492,-6.29605 3.43621,-8.26628 6.314574,-9.94264 0.9854,-0.5739 2.02977,-1.10262 2.32081,-1.17493 0.50385,-0.12519 0.5023,-0.13295 -0.0325,-0.16217 -0.30893,-0.0169 -1.13025,-0.2822 -1.82518,-0.5896 -1.548864,-0.68514 -3.026564,-0.56944 -7.517904,0.5886 -3.75321,0.96772 -4.04377,1.18544 -3.59809,2.69609 0.18022,0.61087 0.39865,1.56526 0.4854,2.12087 l 0.15773,1.0102 -0.84618,-0.17652 c -1.49566,-0.31201 -2.37088,-0.95155 -3.00906,-2.19877 -0.14926,-0.29169 -1.24096,0.38448 -1.79633,1.11261 -0.63632,0.83426 -0.64258,0.88797 -0.26755,2.29721 0.21121,0.79365 0.38543,1.949 0.38715,2.56747 0.003,0.90756 -0.0887,1.12448 -0.47306,1.12448 -0.83229,0 -2.6998,-1.41617 -3.17117,-2.40476 -0.42182,-0.88469 -1.32001,-1.56399 -2.06793,-1.56399 -0.17498,0 -0.55728,0.37768 -0.84955,0.83929 -0.45936,0.72551 -0.48341,0.91384 -0.17741,1.38907 0.42209,0.65552 1.01418,3.75752 0.78729,4.12464 -0.50582,0.81842 -4.79174,-2.79033 -5.43866,-4.57936 -0.33693,-0.93177 -0.73886,-1.28659 -0.81027,-0.71531 -0.0182,0.14552 -0.048,0.40349 -0.0661,0.57326 -0.0671,0.62648 -0.57825,0.45731 -1.13844,-0.37678 -1.76002,-2.62061 -2.24056,-7.41982 -0.9935,-9.92233 0.93923,-1.88479 2.16094,-2.89791 3.74135,-3.10257 0.69737,-0.0903 1.72971,-0.23047 2.29409,-0.31147 2.57936,-0.37018 8.13494,-3.81326 12.60755,-7.81355 3.19503,-2.85763 4.55985,-3.80332 7.95307,-5.51072 4.874234,-2.45262 14.136784,-6.2113 16.602674,-6.73724 0.83419,-0.17793 0.86682,-0.15778 0.58803,0.36315 -0.16234,0.30333 -0.39558,1.089 -0.51831,1.74593 -0.27567,1.47557 -0.19975,1.48423 2.44514,0.27892 1.1049,-0.50352 3.88796,-1.56259 6.18459,-2.35349 10.10364,-3.47941 11.52065,-4.19947 14.95538,-7.59954 1.49824,-1.48312 2.27996,-2.51663 2.91041,-3.84785 0.81266,-1.71596 0.86155,-1.98661 0.85445,-4.73051 -0.006,-2.42901 -0.11102,-3.17041 -0.63322,-4.48228 -1.6383,-4.11573 -5.94372,-6.02715 -11.68507,-5.18765 -2.82346,0.41284 -4.51221,1.05858 -6.97785,2.66817 -3.62293,2.36507 -5.8386,4.81726 -7.96597,8.8163 -1.52481,2.86635 -2.10852,4.60125 -2.90575,8.6365 -0.73088,3.69938 -0.9658,4.05958 -2.8132,4.31345 -3.24573,0.44603 -14.743554,6.20379 -17.905344,8.96646 -0.48822,0.4266 -0.94952,0.71379 -1.0251,0.63821 -0.49275,-0.49275 1.26882,-12.95677 2.59483,-18.35979 4.6629,-18.99959 16.312094,-31.054249 33.581494,-34.750339 3.51447,-0.75218 9.91112,-0.8318 12.84139,-0.15982 4.14697,0.95099 9.91153,3.5128 13.22904,5.87909 2.02647,1.44542 4.83735,4.304249 6.24641,6.352949 1.46504,2.13011 3.25176,5.9588 3.76588,8.06979 0.97462,4.00181 0.76305,10.27339 -0.51694,15.3232 -1.29129,5.09439 -4.52575,10.50905 -8.74032,14.63178 -5.50352,5.38358 -10.72369,8.03776 -22.59212,11.48689 -4.4128,1.28241 -7.51617,2.63905 -9.71565,4.24718 -1.36053,0.99475 -1.38138,1.03089 -1.38906,2.40732 -0.0222,3.98357 -2.82871,8.54911 -7.74804,12.60434 -3.08785,2.54545 -3.89294,3.52582 -6.53576,7.95866 -2.13209,3.57617 -3.76393,5.40157 -5.684294,6.35853 -1.36792,0.68166 -1.93546,0.73861 -3.76106,0.37742 z m -20.7165,-24.14071 c 0.56859,-0.44806 1.31078,-1.56277 1.31078,-1.96869 0,-0.1859 -0.16236,-0.338 -0.3608,-0.338 -0.58742,0 -1.75587,1.34451 -1.75587,2.02045 0,0.69524 0.19774,0.76547 0.80589,0.28624 z m 20.69674,-9.04544 c 2.34847,-0.49765 4.56397,-1.70412 6.170604,-3.36025 l 1.29864,-1.33867 -1.92059,0.12743 c -2.459694,0.16319 -4.587134,1.19175 -6.942954,3.35674 -1.96264,1.80365 -1.84959,1.90215 1.3943,1.21475 z m -18.95438,-17.89239 c -0.30412,-1.52062 -1.7692,-4.19041 -3.79654,-6.91842 -3.65256,-4.9149 -5.46233,-6.70215 -8.20179,-8.09972 -0.60354,-0.3079 -1.1608,-0.66249 -1.23835,-0.78797 -0.0776,-0.12549 1.11425,-1.28805 2.64846,-2.58347 5.68387,-4.79923 10.01776,-10.64628 11.94361,-16.11366 0.79322,-2.251929 1.09018,-6.607059 0.60866,-8.926549 -0.70967,-3.41845 -3.56249,-7.24662 -6.51542,-8.74299 -2.61904,-1.32717 -4.1875,-1.63896 -8.18334,-1.62676 -3.33434,0.0102 -3.91283,0.0836 -5.79415,0.7355 -2.47526,0.85769 -4.89929,2.2316 -7.8945,4.47453 -3.70295,2.7729 -7.5539,6.9904 -14.73278,16.135089 -3.11961,3.97385 -5.51246,6.55014 -6.08377,6.55014 -0.14538,0 -0.29997,-0.8632 -0.34354,-1.91823 -0.0839,-2.03175 -0.11635,-1.98377 -0.85026,1.25677 -0.49083,2.16726 -1.63259,4.60683 -2.83189,6.05081 -0.46764,0.56305 -2.58606,2.1615 -4.7076,3.5521 -5.30342,3.47622 -7.3734,5.57446 -9.36754,9.49543 -2.2160002,4.35718 -3.6681102,5.33453 -7.4543802,5.01724 -2.60160998,-0.21803 -4.09806,-0.79805 -5.31374,-2.05961 l -1.03626,-1.07538 1.36053,0.18009 c 0.88961,0.11776 1.42285002,0.0792 1.54059002,-0.11127 0.099,-0.16024 -0.35486,-0.88633 -1.00867002,-1.61352 -1.31766,-1.46555 -2.37889,-3.42958 -2.24074,-4.14695 0.13223,-0.68663 0.8983,-0.71995 1.79945,-0.0783 0.43602,0.31047 1.24038002,0.62808 1.78747002,0.7058 0.54709,0.0777 1.40078998,0.32321 1.89710998,0.54553 1.34711,0.60341 3.49863,0.0767 4.36788,-1.06926 0.9921,-1.30795 4.6515902,-8.49242 4.6515902,-9.1322 0,-0.47031 -0.15468,-0.57199 -0.8701002,-0.57199 -1.22393,0 -2.40474,0.67116 -4.97095,2.82544 -2.49673,2.09596 -5.29998998,4.11338 -5.47393998,3.93943 -0.25535,-0.25535 1.33561,-4.06465 2.34406998,-5.6125 1.87504,-2.87792 3.77153,-4.33362 6.37258,-4.89145 l 1.39686,-0.29957 -0.95443,-0.82495 c -0.52494,-0.45372 -1.64692,-1.3012 -2.4933,-1.88328 -1.43304,-0.98556 -1.65813,-1.05609 -3.27347,-1.02574 -2.29971998,0.0432 -6.83582,1.01153 -7.67791,1.63902 -0.6409,0.47756 -0.67728,0.64866 -0.80358,3.77992 l -0.13229,3.27972 -1.27907,-1.17874 c -1.33229,-1.22777 -2.29281,-2.78011 -2.29281,-3.70551 0,-0.81087 -1.9738598,-0.7572 -3.0228898,0.0822 l -0.77394,0.61927 0.44321,1.57959 c 0.47721,1.70079 0.59478,4.05842 0.20238,4.05842 -0.31822,0 -2.88381,-2.03507 -3.64949,-2.89484 -0.33162,-0.37237 -0.87188,-1.23771 -1.20058,-1.92296 -0.67363,-1.40434 -0.84991,-1.50303 -1.27293,-0.71262 -0.29598,0.55305 -0.29834,0.55314 -0.66788,0.0255 -1.07252,-1.53124 -1.52849,-7.21609 -0.78075,-9.73402 0.43761,-1.4736 1.53026,-2.663169 3.22568,-3.511799 1.36717,-0.68432 2.67691,-0.97823 5.97544,-1.34089 2.8570998,-0.31412 4.4329698,-0.88369 11.12109982,-4.01953 4.80327998,-2.25209 7.30681998,-3.10181 12.75794018,-4.33013 2.32834,-0.52465 5.39647,-1.26319 6.81808,-1.64121 1.42161,-0.37802 2.6509,-0.62115 2.73175,-0.5403 0.0808,0.0809 -0.31732,1.11814 -0.88482,2.30507 l -1.03184,2.15807 0.68134,-0.16769 c 0.91121,-0.22425 3.75728,-1.82262 4.7846,-2.68705 0.45389,-0.38193 2.17092,-2.25503 3.8156,-4.16243 8.823,-10.23237 15.86506,-14.47525 28.46133,-17.1481 3.8659,-0.82032 4.39688,-0.86916 9.26042,-0.85172 5.6624,0.0203 7.55714,0.35794 12.30543,2.19282 7.0591,2.72785 13.11628,8.95916 15.90139,16.35852 1.3101,3.4806 1.55933,5.17324 1.55086,10.53255 -0.009,5.625559 -0.28862,7.224769 -2.29079,13.096869 -1.71197,5.02096 -5.57827,11.38079 -11.74181,19.31458 -3.20724,4.1284 -7.198,8.99584 -7.37559,8.99584 -0.0447,0 -0.15494,-0.36839 -0.24499,-0.81864 z m -90.60722,-31.37076 c 0.3898,-0.41317 0.78966,-1.07865 0.88858,-1.47883 0.17336,-0.70138 0.14214,-0.7276 -0.86617,-0.7276 -0.66574,0 -1.19303,0.16832 -1.45044,0.46302 -0.53796,0.6159 -1.08709,2.36928 -0.89708,2.86443 0.13317,0.34704 0.24094,0.34859 0.88402,0.0127 0.40279,-0.21038 1.05129,-0.72056 1.44109,-1.13373 z M 7.5062158,98.501781 c 0.77773,-0.35856 2.11905,-1.22902 2.9807102,-1.93436 l 1.56665,-1.28244 -1.03749,-0.45811 c -2.0603102,-0.90974 -3.0477502,-0.63706 -5.4390402,1.50198 -0.92612,0.82843 -2.18987,1.75324 -2.80834,2.05513 -0.61846,0.3019 -1.12448,0.66102 -1.12448,0.79806 0,0.51195 4.37798,0.004 5.86199,-0.68026 z"
       id="path1" /></g></svg>
