<?xml version="1.0" encoding="UTF-8" standalone="no"?>
<!-- Created with Inkscape (http://www.inkscape.org/) -->

<svg
   width="238.71577mm"
   height="239.81094mm"
   viewBox="0 0 238.71577 239.81094"
   version="1.1"
   id="svg1"
   xml:space="preserve"
   inkscape:version="1.4 (86a8ad7, 2024-10-11)"
   sodipodi:docname="Poseidon.svg"
   xmlns:inkscape="http://www.inkscape.org/namespaces/inkscape"
   xmlns:sodipodi="http://sodipodi.sourceforge.net/DTD/sodipodi-0.dtd"
   xmlns="http://www.w3.org/2000/svg"
   xmlns:svg="http://www.w3.org/2000/svg"><sodipodi:namedview
     id="namedview1"
     pagecolor="#ffffff"
     bordercolor="#000000"
     borderopacity="0.25"
     inkscape:showpageshadow="2"
     inkscape:pageopacity="0.0"
     inkscape:pagecheckerboard="0"
     inkscape:deskcolor="#d1d1d1"
     inkscape:document-units="mm"
     inkscape:zoom="0.53858859"
     inkscape:cx="-481.81488"
     inkscape:cy="530.08921"
     inkscape:window-width="1828"
     inkscape:window-height="1057"
     inkscape:window-x="3924"
     inkscape:window-y="-8"
     inkscape:window-maximized="1"
     inkscape:current-layer="layer1" /><defs
     id="defs1" /><g
     inkscape:label="Warstwa 1"
     inkscape:groupmode="layer"
     id="layer1"
     transform="translate(-278.20131,-97.715081)"><path
       style="fill:#000000"
       d="m 391.02338,337.28676 c -13.41838,-0.76731 -27.93249,-4.21472 -40.20097,-9.5486 -3.41369,-1.48415 -9.50133,-4.48802 -11.58383,-5.71591 -1.25401,-0.73939 -1.43952,-0.77733 -2.5049,-0.51234 -0.63282,0.15741 -3.6509,0.29622 -6.70683,0.30847 l -5.55625,0.0223 -1.19385,-0.85956 c -3.21117,-2.31201 -6.59469,-8.82943 -8.06999,-15.5446 l -0.46503,-2.11667 -3.33882,-3.43958 c -8.12569,-8.3709 -14.25523,-16.92899 -19.87007,-27.74265 -5.34692,-10.29771 -9.56191,-22.7777 -11.49582,-34.03756 -2.31004,-13.44981 -2.441,-26.98584 -0.38654,-39.95208 3.0575,-19.29663 10.91374,-37.82556 22.53603,-53.1512 14.38029,-18.96246 32.78117,-32.47329 55.09242,-40.45158 30.0893,-10.759654 64.8605,-8.718492 93.66249,5.49823 18.6554,9.20835 35.30862,23.954 46.76689,41.40991 11.00738,16.76902 17.35398,35.57098 18.99961,56.28686 0.40971,5.15759 0.18602,17.93291 -0.39724,22.68695 -3.45222,28.13853 -14.42294,51.18428 -33.84892,71.10509 -21.26695,21.80866 -48.59173,34.16277 -79.1511,35.78587 -5.34845,0.28408 -6.83798,0.28028 -12.28728,-0.0313 z m 11.50317,-13.13099 c 1.56715,-2.583 3.70248,-5.94651 4.74516,-7.47448 3.12015,-4.57232 8.62554,-13.06491 11.65325,-17.97623 2.67657,-4.34174 2.81233,-4.62912 2.34742,-4.96916 -0.2714,-0.19851 -0.77776,-0.43231 -1.12524,-0.51956 -0.77697,-0.1951 -0.85567,-0.0989 -4.04675,4.94412 -1.33517,2.11005 -4.89753,7.58692 -7.91634,12.17083 -3.01882,4.5839 -6.84814,10.53703 -8.50961,13.22916 -3.00684,4.87211 -3.01767,4.89557 -2.33526,5.06193 0.37707,0.0919 1.05737,0.18122 1.51179,0.19844 0.79539,0.0301 0.9325,-0.14389 3.67558,-4.66505 z m -14.9736,2.10916 c 2.1164,-3.53917 18.68303,-28.56238 21.94731,-33.15051 0.34246,-0.48134 0.29754,-0.51042 -0.79375,-0.51383 -0.63621,-0.002 -1.41174,-0.072 -1.7234,-0.15565 -0.73874,-0.19822 -2.34843,2.05811 -10.02327,14.04989 -3.16658,4.94771 -7.46685,11.6545 -9.55615,14.90398 -2.0893,3.24948 -3.79872,5.95096 -3.79872,6.0033 0,0.0868 1.18424,0.24682 2.51354,0.3397 0.37994,0.0265 0.78445,-0.38993 1.43444,-1.47688 z m 53.0279,-5.78209 c 2.66429,-1.11621 11.24,-5.52308 11.76782,-6.04723 0.0464,-0.046 -0.32555,-0.66095 -0.82649,-1.36643 -2.35116,-3.3111 -4.62454,-8.01193 -6.41243,-13.25944 l -1.10578,-3.24551 -0.31586,1.95802 c -0.84802,5.25685 -3.20784,12.56974 -6.28669,19.48195 -0.93987,2.11006 -1.77293,3.98466 -1.85125,4.16579 -0.14264,0.32986 1.65632,-0.27347 5.03068,-1.68715 z M 339.7225,313.76527 c 6.70424,-0.97945 13.87471,-3.09902 21.63281,-6.39458 5.68011,-2.41285 21.58133,-10.48814 32.16273,-16.33356 l 9.25161,-5.1108 1.19943,0.41712 c 1.96204,0.68234 3.03481,0.77402 5.38987,0.46062 2.44203,-0.32497 5.09454,-1.14209 7.24399,-2.23153 0.75915,-0.38477 1.50595,-0.69958 1.65956,-0.69958 0.15361,0 0.78264,0.46163 1.39786,1.02585 0.61521,0.56422 1.53038,1.27456 2.03371,1.57853 0.50332,0.30397 1.09905,0.94366 1.32382,1.42154 0.35032,0.74478 0.5619,0.88013 1.48154,0.94775 2.16792,0.15939 3.50174,-0.989 3.17452,-2.7332 -0.10048,-0.53562 -1.31538,-2.63903 -2.83664,-4.91121 -1.46349,-2.18588 -2.61698,-4.01824 -2.56332,-4.07189 0.20624,-0.20625 4.99504,2.85277 6.4254,4.10444 1.65452,1.44783 1.84116,1.49988 3.25699,0.9083 1.37153,-0.57306 1.91942,-1.14568 1.91942,-2.00608 0,-0.77486 -0.25031,-1.11306 -3.59923,-4.86299 -3.02738,-3.38988 -5.0605,-6.64201 -4.50171,-7.2008 0.23334,-0.23334 7.60677,4.79276 9.13241,6.22511 1.48876,1.39772 1.74798,1.40778 3.12527,0.12119 1.74477,-1.62985 1.50602,-2.93352 -0.91656,-5.00477 -2.5098,-2.14581 -9.3256,-8.97749 -9.3256,-9.34732 0,-0.43215 0.65684,-0.20398 4.63021,1.60842 3.64543,1.66282 5.57877,2.72793 6.88573,3.79348 0.69828,0.5693 0.88279,0.61136 1.44726,0.32994 0.97933,-0.48825 1.85347,-1.96107 1.85347,-3.12288 0,-1.43802 -0.9836,-2.43172 -4.40436,-4.44958 -1.57942,-0.93169 -4.12184,-2.54983 -5.64981,-3.59588 -3.90893,-2.67606 -4.86093,-3.12467 -6.28921,-2.96368 -2.19603,0.24753 -4.34475,2.04238 -13.68683,11.43281 -7.23532,7.27277 -8.98057,8.89235 -10.18646,9.453 -1.69633,0.78866 -19.06503,5.20633 -24.16335,6.14586 -4.65489,0.85782 -8.3009,1.34246 -16.05331,2.13387 -15.58613,1.59111 -21.84451,3.12587 -31.29993,7.67576 -1.42594,0.68616 -2.63902,1.20117 -2.69571,1.14448 -0.52539,-0.52539 3.47178,-5.1375 5.78082,-6.67015 3.13368,-2.08002 7.2564,-3.72346 11.13209,-4.43758 l 1.7369,-0.32004 -0.005,-3.46 c -0.005,-4.02821 -0.44666,-6.47361 -1.58758,-8.79709 -1.29124,-2.62959 -4.33936,-5.05653 -7.7307,-6.15522 -1.93062,-0.62546 -1.47005,-1.07347 1.79742,-1.74838 6.08801,-1.25751 8.77477,-5.02487 9.2849,-13.0192 0.1205,-1.88834 0.27269,-2.71197 0.50111,-2.71197 0.18043,0 0.93435,0.54511 1.67538,1.21136 1.74624,1.57002 2.99609,4.11664 3.88155,7.90884 0.9081,3.88914 1.93636,5.96953 3.9442,7.98001 2.78902,2.79269 6.56599,4.30316 12.18311,4.8722 2.99546,0.30346 7.02854,0.15668 9.12812,-0.3322 4.78313,-1.11375 7.99822,-4.65074 9.18074,-10.09996 0.41877,-1.92976 0.41781,-2.24731 -0.0163,-5.39826 -0.25371,-1.84135 -0.50245,-3.38907 -0.55277,-3.43938 -0.0503,-0.0503 -0.73823,0.27351 -1.52869,0.71961 -2.19843,1.24072 -2.44383,1.15468 -2.98312,-1.04593 -0.89208,-3.6402 -3.35609,-6.40668 -8.23864,-9.24996 -3.40195,-1.98108 -5.62227,-4.11345 -6.97369,-6.69747 -0.89623,-1.71366 -0.97289,-1.78376 -2.38125,-2.17754 -0.80036,-0.22378 -2.64583,-0.89651 -4.10104,-1.49495 -5.80988,-2.38925 -6.90524,-2.6878 -9.82015,-2.67656 -3.55017,0.0137 -4.11594,0.32518 -1.99517,1.09845 2.53612,0.92472 7.59233,4.68168 9.27573,6.89224 l 0.68751,0.9028 -1.85209,-0.18793 c -2.55026,-0.25878 -5.42657,-1.02641 -9.5089,-2.53775 -5.36509,-1.98623 -6.47059,-2.23263 -10.07026,-2.24447 -3.56631,-0.0117 -5.6401,0.48292 -8.89363,2.12137 -6.18402,3.11422 -10.29748,9.8717 -10.28407,16.89436 0.006,3.02823 0.44928,5.126 1.85559,8.7771 1.65316,4.29196 2.11951,6.06974 2.29103,8.73369 0.14585,2.26529 -0.23115,5.14348 -0.67187,5.12942 -0.0946,-0.003 -0.95198,-1.44474 -1.90522,-3.20382 -0.95324,-1.75907 -1.84146,-3.21512 -1.97383,-3.23565 -0.67422,-0.10459 -2.39645,3.82401 -3.63728,8.29704 -0.80992,2.91962 -0.80386,8.3384 0.0125,11.19166 0.62769,2.19381 1.85185,4.82714 2.85631,6.14431 0.77767,1.01979 1.06494,2.34376 1.43393,6.60882 0.53995,6.24116 2.03154,12.12968 4.22229,16.66875 1.80494,3.73971 2.69392,4.18085 8.02394,3.98171 2.00664,-0.075 5.3232,-0.38098 7.37012,-0.68002 z m -9.73069,-6.55229 c 0.58835,-0.95197 9.92122,-6.84109 13.52879,-8.53678 4.41835,-2.07679 12.83499,-4.89447 19.71145,-6.5989 1.23693,-0.30658 2.48709,-0.62693 2.77813,-0.71188 l 0.52916,-0.15446 -0.52916,0.598 c -0.79586,0.89939 -7.40195,5.19205 -12.03854,7.8227 -7.14441,4.05349 -11.35904,5.83166 -16.62355,7.01354 -2.80574,0.62989 -7.62453,1.00182 -7.35628,0.56778 z m 153.76582,-19.90225 c 12.69186,-15.80912 20.62872,-33.94049 23.51051,-53.7086 1.52346,-10.45046 1.57465,-22.13099 0.14089,-32.14688 -0.52352,-3.65722 -1.55882,-9.06826 -2.12339,-11.09803 -0.25279,-0.90886 -0.32566,-0.98076 -0.56342,-0.55591 -0.61397,1.09711 -1.79841,5.04869 -2.31382,7.71947 -0.30214,1.56569 -0.58698,2.88434 -0.63298,2.93033 -0.046,0.046 -0.64647,-1.13783 -1.33441,-2.63073 -0.99209,-2.15293 -1.30223,-2.62243 -1.49949,-2.26995 -0.78223,1.39778 -3.97434,9.81359 -6.15357,16.22357 -1.38526,4.07458 -2.88789,8.23127 -3.33917,9.23708 -1.94632,4.33792 -4.87415,7.59422 -8.39091,9.3323 -1.90542,0.9417 -2.21134,1.01073 -4.88537,1.10225 -4.2314,0.14484 -8.79949,-1.02852 -13.58941,-3.49055 -1.16417,-0.59838 -2.20187,-1.09064 -2.30601,-1.0939 -0.10413,-0.003 -0.5602,0.57886 -1.01348,1.29361 l -0.82414,1.29954 0.81504,0.63786 c 1.02763,0.80424 1.02529,1.41619 -0.0116,3.03206 -0.95079,1.48167 -1.42787,1.80079 -2.69214,1.80079 -0.51796,0 -1.20736,0.23567 -1.60545,0.54881 -0.83864,0.65967 -3.33562,4.41368 -6.0585,9.10848 -1.09719,1.89177 -2.89945,4.85425 -4.00503,6.58329 -1.88538,2.94858 -2.31153,3.86775 -1.79318,3.86775 0.42682,0 2.48302,1.94837 3.11837,2.95484 0.91499,1.44943 1.51632,3.98454 1.30033,5.48199 -0.22708,1.57431 -1.12643,3.5368 -2.35291,5.13433 -0.68391,0.8908 -0.90663,1.38755 -0.74868,1.6698 0.38045,0.67983 2.78674,-1.71938 3.81085,-3.79965 0.7732,-1.57058 0.87389,-2.04254 0.96586,-4.52705 0.11964,-3.23211 -0.22697,-5.13533 -1.30106,-7.14413 l -0.75954,-1.4205 2.14528,-3.60658 c 2.13127,-3.58303 4.68758,-7.68799 6.36509,-10.22117 0.64508,-0.97412 1.04906,-1.32842 1.53223,-1.34381 0.3609,-0.0115 0.92917,-0.0413 1.26283,-0.0661 0.33365,-0.0249 1.19225,-0.59303 1.908,-1.26252 l 1.30136,-1.21727 0.67916,0.75424 c 4.8355,5.37011 7.64945,13.55987 7.16824,20.86258 -0.21431,3.25218 -0.77232,6.82394 -1.43771,9.20249 l -0.50191,1.79415 0.73813,2.0423 c 3.49056,9.658 4.08266,11.6808 5.03123,17.18828 0.29463,1.71065 0.60976,4.71045 0.70028,6.66621 l 0.16459,3.55593 3.46266,-3.55774 c 1.90446,-1.95675 4.65682,-5.0452 6.11636,-6.86322 z m -175.35195,-5.42236 c -0.15319,-0.72749 -0.28169,-3.2277 -0.28555,-5.55604 -0.0103,-6.23399 1.06372,-10.74752 3.82172,-16.06016 l 1.15311,-2.22121 -0.49265,-2.36869 c -0.36925,-1.77538 -0.50139,-3.62787 -0.52755,-7.39577 -0.0306,-4.40599 0.0382,-5.31498 0.55669,-7.35726 2.58549,-10.18377 8.79902,-16.10395 21.23185,-20.22948 3.44613,-1.14351 4.49599,-1.6571 10.31875,-5.0479 3.56526,-2.07618 7.07131,-4.20319 7.79122,-4.72668 l 1.30893,-0.95181 -1.19533,-0.3035 c -2.51397,-0.63833 -5.03378,-2.71424 -6.07324,-5.00337 -0.57198,-1.25962 -0.679,-4.00313 -0.19739,-5.06015 l 0.31128,-0.68317 1.10863,1.08804 c 1.86162,1.82705 3.96326,1.68905 5.52844,-0.36301 0.36982,-0.48485 1.13298,-2.12209 1.69591,-3.6383 1.09167,-2.94032 2.44891,-5.795 3.90594,-8.21531 0.49327,-0.8194 0.89686,-1.56798 0.89686,-1.6635 0,-0.31362 -3.021,1.8885 -4.01832,2.92911 -0.53659,0.55988 -1.38359,1.69841 -1.88221,2.53008 l -0.9066,1.51212 -0.49904,-1.10667 c -0.38229,-0.84779 -0.49904,-1.72764 -0.49904,-3.76108 0,-2.42024 0.0724,-2.80723 0.82091,-4.38673 0.90782,-1.91574 2.19892,-3.53134 3.25327,-4.07094 0.37858,-0.19376 1.61812,-0.60597 2.75454,-0.91603 5.60263,-1.52861 8.57966,-4.71233 9.55095,-10.21404 l 0.18684,-1.05833 -1.1699,1.72434 c -2.33105,3.43579 -5.72565,5.91616 -8.55543,6.25131 -1.84898,0.21898 -4.06801,-0.46644 -5.39691,-1.66701 -0.57606,-0.52044 -1.04739,-1.05147 -1.04739,-1.18006 0,-0.12858 0.62508,-0.2344 1.38906,-0.23515 2.14198,-0.002 3.88531,-1.27198 4.82121,-3.5119 0.20645,-0.4941 0.68661,-2.77478 1.06703,-5.06818 0.73233,-4.41489 1.7475,-7.83794 2.93213,-9.88684 0.77277,-1.33657 3.04963,-4.28327 3.31085,-4.2849 0.17469,-0.001 0.50264,4.04919 0.50264,6.20793 0,1.13585 -0.18667,1.67337 -1.11146,3.2005 -1.03279,1.70546 -2.32813,4.75553 -2.32813,5.4819 0,0.17334 0.40402,-0.28478 0.89783,-1.01803 1.70473,-2.53138 5.07632,-5.18534 8.73491,-6.87571 2.3597,-1.09025 6.11411,-2.20171 8.16049,-2.41585 0.83675,-0.0876 1.52135,-0.24445 1.52135,-0.34866 0,-0.1042 -0.89368,-0.34233 -1.98595,-0.52917 -2.81998,-0.48237 -5.58746,-0.22268 -8.43663,0.79168 -1.67822,0.59748 -2.40678,0.7503 -2.54108,0.53299 -0.10356,-0.16756 -0.26938,-1.73965 -0.3685,-3.49354 -0.27173,-4.80799 -1.40775,-12.92193 -3.36097,-24.00548 -0.63225,-3.58764 -0.95003,-6.02971 -0.80369,-6.17605 0.14633,-0.14634 2.42412,1.40147 5.76058,3.91444 6.1755,4.6513 6.80234,5.17415 6.51423,5.43351 -0.11107,0.1 -1.22983,0.56455 -2.48614,1.03238 -1.7481,0.65096 -2.2628,0.95376 -2.19301,1.29015 0.0501,0.24176 0.52688,2.58269 1.05938,5.20207 0.53251,2.61937 1.01043,4.80919 1.06205,4.86626 0.0516,0.0571 1.0195,-0.50282 2.15086,-1.24419 2.4549,-1.60868 4.57975,-2.5794 6.78402,-3.09922 2.82921,-0.6672 2.63581,-0.91422 2.49666,3.18882 -0.0697,2.05568 -0.24371,3.70169 -0.40873,3.8667 -0.15802,0.15803 -1.81557,0.51153 -3.68343,0.78556 -3.84336,0.56385 -6.74646,1.28645 -6.88841,1.71457 -0.12255,0.36962 9.14927,0.70786 10.577,0.38586 1.32446,-0.29872 2.27447,-0.94898 2.58687,-1.77065 0.2773,-0.72935 0.64491,-6.51765 0.92866,-14.62239 l 0.17977,-5.13493 -2.14885,0.16571 c -1.18187,0.0911 -2.14885,0.10807 -2.14885,0.0376 0,-0.0704 0.73313,-1.58476 1.62918,-3.36516 0.89604,-1.78039 2.4297,-5.00541 3.40811,-7.16672 1.94688,-4.30064 2.68046,-5.48857 3.12702,-5.0638 0.15437,0.14684 1.69849,3.26214 3.43137,6.9229 1.73288,3.66076 3.4654,7.21901 3.85005,7.90722 l 0.69936,1.25128 -1.86252,-0.1731 c -1.02439,-0.0952 -2.00592,-0.20171 -2.18118,-0.23669 -0.33458,-0.0668 -0.34603,2.43957 -0.0311,6.81698 l 0.15237,2.11807 2.75704,0.45134 c 3.47282,0.56853 6.84676,1.70357 10.48647,3.5278 1.63693,0.82043 2.84481,1.28866 2.84554,1.10306 7e-4,-0.17737 0.23646,-2.28703 0.52393,-4.68812 0.28746,-2.4011 0.52502,-4.56199 0.5279,-4.80199 0.004,-0.30024 -0.73761,-0.75092 -2.37601,-1.44469 -1.30969,-0.55458 -2.38125,-1.08139 -2.38125,-1.1707 0,-0.13569 6.15802,-5.2112 10.25739,-8.45425 1.64539,-1.30169 1.77677,-0.99828 1.27385,2.94165 -0.22976,1.79998 -0.71083,6.24925 -1.06903,9.88727 -0.35821,3.63802 -0.71633,7.23688 -0.79583,7.99746 l -0.14455,1.38288 1.03763,0.52936 c 0.5707,0.29115 1.27085,0.85948 1.55588,1.26295 0.75647,1.07081 2.24889,4.15005 3.08594,6.36705 1.43358,3.79693 3.25406,5.59791 5.66773,5.60699 l 1.15755,0.004 -0.17007,0.85032 c -0.29541,1.47705 -1.66859,2.51629 -4.31766,3.26767 -0.17631,0.05 0.44426,0.82533 1.37903,1.72294 1.99409,1.91482 3.5968,4.26988 4.40556,6.47361 0.49757,1.35582 0.56761,2.01981 0.50113,4.75108 -0.17512,7.19443 -0.18381,7.05572 0.51953,8.29417 0.81649,1.43769 1.67775,1.89229 3.585,1.89229 h 1.49703 l -0.17889,0.72761 c -0.0984,0.40018 -0.35706,1.00296 -0.57482,1.3395 -0.5019,0.77569 -2.50642,2.05676 -4.11587,2.63042 l -1.24035,0.44209 1.19271,1.2751 c 2.38476,2.5495 3.25646,5.98873 2.38251,9.40006 -0.23261,0.90798 -0.90146,2.77519 -1.48633,4.14935 -1.27265,2.9901 -1.38095,4.48758 -0.45163,6.24495 0.42434,0.80243 0.94749,1.32185 1.70745,1.69526 0.60261,0.2961 1.10121,0.6098 1.10801,0.69711 0.0412,0.52936 -1.7576,2.43738 -2.79474,2.96447 l -1.22595,0.62305 1.00246,0.59147 c 0.55136,0.3253 3.47678,1.90141 6.50093,3.50244 l 5.49846,2.91098 -0.5818,1.10672 c -0.45784,0.87089 -0.58738,1.58592 -0.60796,3.35567 l -0.0262,2.24896 -4.5217,7.07249 c -5.63917,8.82037 -5.16808,8.19412 -7.14702,9.50094 -0.91678,0.60541 -1.57162,1.18974 -1.45521,1.29851 0.37441,0.34982 3.59477,2.36868 3.77838,2.36868 0.0976,0 0.75913,-0.92273 1.47016,-2.05052 0.71102,-1.12779 3.60621,-5.62239 6.43375,-9.98802 2.82754,-4.36562 5.19093,-8.12077 5.25198,-8.34478 0.0611,-0.224 -0.13446,-0.62941 -0.43445,-0.9009 -0.84038,-0.76053 -0.70458,-1.97919 0.37862,-3.39782 1.02158,-1.33792 1.70155,-1.68274 2.48812,-1.26178 0.28697,0.15358 0.57672,0.27924 0.64387,0.27924 0.18895,0 1.76477,-2.52557 1.76477,-2.8284 0,-0.1477 -0.73991,-0.84984 -1.64424,-1.56033 -5.79033,-4.54914 -9.53968,-9.7428 -10.2519,-14.20109 -0.68795,-4.30645 1.18368,-9.48164 5.26024,-14.5449 0.85135,-1.05741 3.61544,-4.06831 6.14242,-6.69088 2.52699,-2.62257 5.25963,-5.5396 6.07254,-6.48229 1.66126,-1.92647 4.21052,-5.27647 4.21052,-5.53306 0,-0.0926 -1.16041,-0.32403 -2.5787,-0.51437 -1.41829,-0.19034 -2.66725,-0.4008 -2.77546,-0.46768 -0.10822,-0.0669 1.49569,-1.57383 3.56424,-3.34878 2.06854,-1.77495 5.3118,-4.70926 7.20723,-6.5207 1.89543,-1.81144 4.20479,-4.0141 5.13191,-4.89479 l 1.68568,-1.60127 -0.17732,1.19063 c -0.0975,0.65484 -0.5981,3.08926 -1.11237,5.40981 -2.63825,11.90453 -5.78991,17.562 -17.07983,30.65956 -5.63603,6.53844 -6.44107,9.0226 -4.31909,13.32774 0.79523,1.61339 1.53124,2.57369 3.36923,4.39598 1.29345,1.2824 2.51167,2.29444 2.70716,2.24896 0.31373,-0.073 18.20229,-26.61947 21.46186,-31.84925 1.41317,-2.26732 1.43307,-2.2007 -0.87881,-2.94197 -0.76398,-0.24496 -1.38906,-0.5223 -1.38906,-0.6163 0,-0.094 1.33845,-1.29265 2.97433,-2.66366 1.63588,-1.37101 5.29433,-4.77057 8.1299,-7.55456 l 5.15558,-5.06181 -1.4303,-2.34653 c -7.81614,-12.82297 -19.8421,-25.39772 -32.4243,-33.9039 -8.01198,-5.41649 -18.26344,-10.46519 -27.26675,-13.42849 -12.49203,-4.11156 -24.84371,-5.91056 -38.48221,-5.60485 -11.64413,0.26101 -21.17177,1.88683 -32.01458,5.46306 -23.09026,7.61576 -43.31892,22.89171 -56.78068,42.87871 -17.8273,26.46862 -23.28797,59.17853 -15.19455,91.01666 2.97695,11.71078 9.07002,24.85725 16.12845,34.79892 1.08058,1.52196 1.99348,2.73841 2.02868,2.70321 0.0352,-0.0352 -0.0613,-0.65923 -0.21452,-1.38672 z m 79.646,-12.32764 c 10.79657,-4.33227 17.37388,-8.52565 26.4918,-16.88992 4.76483,-4.37098 17.3181,-16.42389 17.99558,-17.2783 1.22751,-1.54806 0.91201,-4.95923 -0.54054,-5.84443 -1.06842,-0.6511 -1.51327,-0.32077 -12.99087,9.6465 -3.41228,2.96326 -8.4578,7.22779 -11.21227,9.47672 -8.48282,6.92593 -11.99663,10.01113 -16.12062,14.15426 -3.62605,3.64286 -7.55202,8.08281 -7.14714,8.08281 0.0911,0 1.67688,-0.60644 3.52406,-1.34764 z m 6.81229,-27.76974 c 1.86248,-1.27544 3.28159,-3.85142 3.86448,-7.01485 0.43733,-2.3735 0.002,-4.90922 -1.49053,-8.68301 -1.44496,-3.65341 -1.78732,-5.76041 -1.43973,-8.86064 0.14081,-1.25592 0.31197,-2.46509 0.38035,-2.68704 0.31927,-1.03624 0.63378,-4.66675 0.48493,-5.59762 -0.35747,-2.23552 -2.50548,-3.96515 -5.38736,-4.33805 -1.43826,-0.1861 -1.44854,-0.18255 -0.9846,0.34034 0.25786,0.29061 0.60948,1.19892 0.78137,2.01845 0.39363,1.87663 0.0904,3.47818 -1.41469,7.47224 -0.97544,2.58852 -1.07503,3.06761 -0.96303,4.63295 0.15647,2.18686 0.96363,3.9911 3.25719,7.28075 2.33065,3.34283 3.03681,4.94998 3.216,7.31928 0.17025,2.25105 -0.48691,5.05194 -1.79181,7.63694 -0.79756,1.57996 -0.79967,1.59509 -0.19568,1.40594 0.33581,-0.10516 1.09321,-0.52172 1.68311,-0.92568 z m -8.1517,-5.01579 c 0.18861,-1.83341 -0.3317,-3.23247 -2.24234,-6.02942 -3.52964,-5.16697 -3.64873,-8.75939 -0.48707,-14.69276 1.65313,-3.10237 2.11164,-4.68247 2.1246,-7.32173 0.009,-1.83782 -0.10209,-2.47871 -0.60787,-3.50573 -0.3404,-0.69122 -0.70266,-1.25677 -0.80502,-1.25677 -0.10235,0 -0.33648,0.56226 -0.52028,1.24946 -0.69966,2.61596 -1.99413,5.32495 -3.94262,8.25085 -3.21286,4.82453 -4.14104,7.75216 -3.55017,11.1978 0.4808,2.80381 1.60522,4.66176 4.87736,8.05916 2.80989,2.91744 3.88067,4.54745 3.89238,5.9252 0.016,1.87731 1.03012,0.36852 1.26103,-1.87606 z m 20.35224,-6.00506 c 1.68142,-3.58856 1.46597,-7.25776 -0.6804,-11.58781 -0.85716,-1.72921 -1.72837,-3.05259 -2.51478,-3.81995 -0.6618,-0.64577 -1.25778,-1.11961 -1.32441,-1.05299 -0.0666,0.0666 0.40722,1.43951 1.053,3.05084 1.91773,4.78514 2.30997,6.58265 2.33175,10.68565 0.0104,1.96453 -0.0691,3.92906 -0.17672,4.36562 -0.18859,0.76497 -0.18005,0.77457 0.23539,0.26458 0.23709,-0.29104 0.72137,-1.14871 1.07617,-1.90594 z m 7.9128,-9.03993 c 0.33372,-1.061 0.41404,-2.00201 0.31622,-3.70485 -0.16587,-2.88721 -0.9342,-4.87807 -3.55955,-9.2233 -2.06648,-3.42025 -2.36158,-4.09765 -3.41747,-7.84488 -0.91373,-3.24269 -2.00747,-5.27748 -3.89121,-7.2392 -2.12775,-2.21584 -4.25303,-3.27798 -6.89878,-3.44777 -1.70791,-0.10961 -2.13334,-0.0365 -3.59037,0.61743 -1.49029,0.6688 -1.73486,0.70833 -2.4863,0.40184 -0.45838,-0.18696 -1.5478,-0.51843 -2.42092,-0.7366 -3.14173,-0.78501 -6.78194,0.50851 -9.52546,3.38481 -1.65396,1.734 -2.57293,3.51632 -3.20634,6.2186 -0.9345,3.9868 -1.46193,5.38048 -2.90354,7.67225 -0.81578,1.29688 -1.76021,2.90224 -2.09873,3.56748 -1.72121,3.38237 -1.90424,7.57126 -0.46195,10.57242 l 0.82265,1.71181 0.0247,-1.45521 c 0.0507,-2.98738 1.01183,-5.35738 4.60852,-11.36448 1.25923,-2.10312 2.71887,-4.96062 3.24364,-6.35 2.99666,-7.9338 4.7083,-9.60483 10.58644,-10.33528 2.50498,-0.31128 4.44156,-0.1824 6.7119,0.44668 4.0156,1.11267 6.28187,3.77668 7.95136,9.34683 0.80055,2.67098 1.49787,4.00453 4.27212,8.16998 3.61993,5.4352 4.44367,7.39488 4.45451,10.59732 l 0.006,1.73791 0.50766,-0.66078 c 0.27921,-0.36342 0.70896,-1.30078 0.955,-2.08301 z m 63.48078,-1.50216 c 1.54228,-0.73047 3.31011,-2.63359 4.41222,-4.74988 0.53048,-1.01865 2.05699,-4.47146 3.39224,-7.67292 3.28719,-7.88153 5.19622,-11.81198 7.29731,-15.0242 2.30797,-3.5285 3.23773,-4.64831 7.37475,-8.8822 3.09595,-3.16845 3.36417,-3.51486 2.5963,-3.3532 -0.9824,0.20684 -0.73372,0.61135 -2.59783,-4.22581 -0.67295,-1.74625 -2.12044,-5.02047 -3.21665,-7.27604 l -1.9931,-4.10105 -3.38325,10.17695 -3.38325,10.17694 -1.01604,-1.64122 c -0.55882,-0.90267 -1.0943,-1.64253 -1.18995,-1.64413 -0.0956,-0.002 -1.16058,1.75326 -2.36651,3.89969 -2.49374,4.43861 -13.09173,22.48246 -16.34715,27.83221 -1.19037,1.95618 -2.11467,3.68603 -2.05401,3.84411 0.15969,0.41614 4.36181,2.44722 6.02792,2.91357 1.87758,0.52555 5.0443,0.39154 6.447,-0.27282 z M 366.4639,214.82059 c -0.20785,-4.31638 0.50604,-6.75074 3.37028,-11.49264 3.52959,-5.84342 4.6289,-10.2512 3.5711,-14.31867 -0.22556,-0.86732 -0.67204,-2.1549 -0.99219,-2.86129 l -0.58208,-1.28436 -0.005,2.87186 c -0.008,4.57112 -0.6884,6.54973 -3.56843,10.37181 -1.8551,2.46191 -3.3953,5.60102 -4.239,8.63962 -0.73236,2.6376 -0.63519,5.68752 0.24051,7.54875 0.47321,1.00578 2.01481,3.16687 2.25907,3.16687 0.04,0 0.0155,-1.18888 -0.0544,-2.64195 z m 53.87329,-5.59492 c -0.3054,-2.23316 -1.09958,-4.28867 -2.60621,-6.74547 -1.87141,-3.05165 -3.63422,-6.88002 -4.77057,-10.36047 -0.53611,-1.64204 -1.06651,-3.07079 -1.17867,-3.175 -0.11215,-0.10421 -0.13465,1.25277 -0.05,3.01551 0.27046,5.63189 1.51312,9.10064 4.68113,13.06689 1.8856,2.3607 3.36308,5.22213 3.62863,7.02755 l 0.19222,1.30682 0.15704,-1.29791 c 0.0864,-0.71386 0.0623,-1.99092 -0.0536,-2.83792 z m -58.97911,-12.0159 c 0.37479,-0.84728 1.37696,-2.06225 3.02714,-3.66993 2.91669,-2.84158 3.71007,-3.97729 4.25916,-6.09695 0.40706,-1.57136 0.49636,-4.60627 0.17876,-6.07527 -0.15092,-0.69807 -0.22812,-0.58259 -0.79592,1.19063 -0.86674,2.70673 -2.11554,5.10113 -3.67849,7.05294 -2.89552,3.61593 -4.2758,6.62781 -4.2861,9.35257 -0.007,1.84751 0.33422,2.26803 0.56324,0.69419 0.0946,-0.64987 0.42406,-1.75155 0.73221,-2.44818 z m 36.53439,2.51923 c 0,-0.36688 -1.80567,-1.49761 -3.14212,-1.96762 -2.26407,-0.79625 -5.17556,-0.29892 -6.97819,1.19199 -0.54571,0.45134 -0.99231,0.90124 -0.99245,0.99979 -1.4e-4,0.0986 2.50017,0.14481 5.55625,0.10281 3.26771,-0.0449 5.55651,-0.17959 5.55651,-0.32697 z m 31.78797,-3.83645 c -0.45099,-2.44761 -1.26593,-4.11285 -3.42772,-7.00418 -2.53328,-3.38817 -4.09053,-6.0619 -6.0104,-10.31957 -2.45288,-5.43972 -2.27336,-5.20255 -2.10278,-2.77813 0.42968,6.10708 2.74785,11.10091 7.67635,16.53646 2.11717,2.33499 3.55523,4.52095 3.55951,5.41073 0.002,0.3957 0.0751,0.44336 0.31392,0.2045 0.23885,-0.23886 0.23679,-0.71655 -0.009,-2.04981 z m -51.20206,-5.43803 c 0.41853,-0.3751 1.35628,-1.10918 2.08388,-1.6313 1.85398,-1.33039 2.6316,-2.23314 3.31864,-3.85269 0.46045,-1.08541 0.82404,-1.52012 1.60439,-1.91822 1.18299,-0.60352 2.48656,-0.74029 1.75404,-0.18404 -0.94181,0.71518 -1.33672,3.28426 -0.59897,3.89654 0.30696,0.25475 0.65975,0.25405 1.6639,-0.003 1.09473,-0.28057 1.39225,-0.26564 2.11085,0.10596 0.46007,0.23792 1.36761,0.43257 2.01674,0.43257 1.00332,0 1.2872,-0.1271 1.89368,-0.84787 0.80997,-0.96259 0.80843,-1.34024 -0.0236,-5.76671 -0.70153,-3.73223 -0.70341,-11.74978 -0.003,-13.75833 l 0.50729,-1.45521 0.31286,1.56199 c 0.31989,1.59706 0.85175,2.27447 1.78578,2.27447 0.2742,0 1.75347,-0.49065 3.28727,-1.09034 3.07931,-1.20395 5.14979,-1.81215 6.18535,-1.81694 1.24726,-0.006 3.41847,0.80416 4.35123,1.62313 0.79954,0.70201 0.92762,0.74452 0.96221,0.31937 0.16087,-1.97743 -0.55031,-3.52064 -2.38103,-5.16661 -1.63363,-1.46878 -2.74205,-1.80611 -5.93452,-1.80611 -2.63948,0 -5.78592,-0.48154 -7.34559,-1.12419 l -0.91522,-0.37712 2.2042,-0.19543 c 2.86025,-0.25361 4.4256,-0.67515 7.45114,-2.00657 4.38493,-1.92962 8.40504,-2.55039 11.65627,-1.79992 0.75677,0.17468 2.24134,0.74023 3.29906,1.25677 1.8581,0.90741 1.90715,0.91678 1.45089,0.27691 -0.69156,-0.96983 -3.16403,-3.2397 -4.23343,-3.88654 -1.29607,-0.78394 -3.55986,-1.40433 -5.12435,-1.40433 -1.86534,0 -4.27375,0.65233 -8.10482,2.19523 -2.54995,1.02696 -3.7315,1.35923 -5.15979,1.45103 -2.12022,0.13627 -5.38711,-0.30201 -6.48569,-0.8701 -0.72046,-0.37257 -0.82682,-0.33591 -3.01994,1.04098 -2.13146,1.33817 -5.47354,2.86515 -9.83166,4.49206 -2.48525,0.92775 -3.93768,2.03931 -5.18368,3.96712 -1.21252,1.876 -1.62372,3.216 -2.23132,7.27143 -0.68184,4.55098 -0.10791,7.38178 2.05361,10.129 1.74511,2.21799 2.85328,5.87625 2.87219,9.48158 l 0.0104,1.98438 0.49,-1.05833 c 0.26949,-0.58209 0.83242,-1.36523 1.25096,-1.74032 z m 8.71593,-13.16775 c -0.13509,-1.72681 -0.28919,-2.42214 -0.53681,-2.42214 -0.19102,0 -0.95519,0.41814 -1.69813,0.92919 -1.42537,0.98048 -3.25228,1.78514 -4.79399,2.1115 l -0.92604,0.19603 0.66146,-0.72752 c 0.3638,-0.40013 1.00548,-0.94074 1.42596,-1.20135 l 0.7645,-0.47384 -1.02909,-0.27259 c -0.56599,-0.14993 -1.79372,-0.3938 -2.72827,-0.54194 -0.93456,-0.14813 -1.81114,-0.38127 -1.94796,-0.51809 -0.31728,-0.31729 1.66978,-1.78402 2.7334,-2.01763 1.13003,-0.2482 1.19521,-0.6068 0.14606,-0.80362 -1.20167,-0.22544 -3.42301,0.26644 -4.87944,1.08045 -0.64152,0.35855 -1.21093,0.65191 -1.26536,0.65191 -0.29812,0 -0.0133,-1.36341 0.52727,-2.52435 0.72811,-1.56361 1.79145,-2.53537 3.47986,-3.18018 1.47733,-0.5642 2.40447,-0.39557 6.72188,1.2226 1.59086,0.59626 3.15695,1.04495 3.48019,0.99708 0.8029,-0.11889 1.48272,-1.12863 1.92901,-2.86515 0.36591,-1.42379 0.37889,-1.43807 0.60122,-0.66146 0.12497,0.43656 0.22174,2.2225 0.21503,3.96875 -0.0117,3.0472 -0.0527,3.27618 -1.01937,5.68854 -1.67454,4.17903 -1.64296,4.15589 -1.86138,1.36381 z m 20.17393,9.66292 -0.0831,-2.7316 1.14614,-1.51908 c 2.00621,-2.65898 2.54788,-3.96679 2.63728,-6.3675 0.089,-2.38893 -0.32138,-3.53838 -1.59706,-4.47364 -0.97925,-0.71794 -3.54608,-0.90793 -4.5946,-0.34009 l -0.76676,0.41525 0.70406,0.0106 c 1.00885,0.0152 3.69661,1.09472 3.58448,1.4397 -0.16257,0.50017 -3.1596,1.5644 -4.76025,1.69035 -0.97948,0.0771 -2.1067,-0.0414 -3.1326,-0.32926 -0.88141,-0.24731 -1.68106,-0.37115 -1.77701,-0.27521 -0.25551,0.25552 -0.099,3.85816 0.23174,5.33395 0.32182,1.43603 0.70051,1.9355 2.30835,3.04458 0.71666,0.49435 1.37984,1.27569 1.81995,2.14419 0.66771,1.31766 3.63208,4.68937 4.12284,4.68937 0.13292,0 0.20259,-1.21596 0.1565,-2.7316 z m 21.30898,-9.84078 c 0.22374,-2.53682 -0.17181,-4.66612 -1.28713,-6.92864 -1.96466,-3.98552 -4.82777,-6.14451 -8.40735,-6.33974 l -1.90798,-0.10407 1.63813,0.81337 c 4.14482,2.05798 6.46732,5.57167 8.9658,13.5643 0.5602,1.79207 0.77049,1.58037 0.99853,-1.00522 z"
       id="path1" /></g></svg>
