<?xml version="1.0" encoding="UTF-8" standalone="no"?>
<!-- Created with Inkscape (http://www.inkscape.org/) -->

<svg
   width="243.90666mm"
   height="241.26099mm"
   viewBox="0 0 243.90666 241.26099"
   version="1.1"
   id="svg1"
   xml:space="preserve"
   inkscape:version="1.4 (86a8ad7, 2024-10-11)"
   sodipodi:docname="Deco2.svg"
   xmlns:inkscape="http://www.inkscape.org/namespaces/inkscape"
   xmlns:sodipodi="http://sodipodi.sourceforge.net/DTD/sodipodi-0.dtd"
   xmlns="http://www.w3.org/2000/svg"
   xmlns:svg="http://www.w3.org/2000/svg"><sodipodi:namedview
     id="namedview1"
     pagecolor="#ffffff"
     bordercolor="#000000"
     borderopacity="0.25"
     inkscape:showpageshadow="2"
     inkscape:pageopacity="0.0"
     inkscape:pagecheckerboard="0"
     inkscape:deskcolor="#d1d1d1"
     inkscape:document-units="mm"
     inkscape:zoom="0.76167929"
     inkscape:cx="473.29631"
     inkscape:cy="506.11852"
     inkscape:window-width="1828"
     inkscape:window-height="1057"
     inkscape:window-x="2004"
     inkscape:window-y="-8"
     inkscape:window-maximized="1"
     inkscape:current-layer="layer1" /><defs
     id="defs1" /><g
     inkscape:label="Warstwa 1"
     inkscape:groupmode="layer"
     id="layer1"
     transform="translate(20.058638,-14.657932)"><path
       style="fill:#000000"
       d="m 16.216256,255.64915 c -0.632792,-0.6553 -0.320366,-1.58421 1.384332,-4.1159 2.157689,-3.20445 2.820859,-4.90606 2.983039,-7.65412 0.234065,-3.96613 -1.022177,-7.33108 -3.749689,-10.04384 -1.80342,-1.79367 -3.167086,-2.6267 -6.170435,-3.76936 -4.3579201,-1.65803 -9.84007765,-2.01032 -13.5633915,-0.8716 -5.2827041,1.61564 -9.2677935,4.76308 -10.4927445,8.28722 -0.69268,1.99282 -0.630386,5.21114 0.134131,6.92966 0.898675,2.02009 2.232432,3.45736 4.052215,4.36672 2.9177681,1.45802 6.4369547,1.00513 8.62661445,-1.11018 1.4558726,-1.40644 1.72355945,-3.70831 0.528579,-4.54531 -0.4583632,-0.32105 -0.6479326,-0.31537 -1.39705675,0.0419 -1.6890408,0.80544 -3.1006913,-0.30305 -3.147458,-2.47154 -0.046601,-2.16079 1.7516031,-3.55807 4.59651774737,-3.57167 C 6.3452509,237.09083 8.5267319,245.33676 3.5748769,250.6307 c -8.1292106,8.69078 -22.6143479,2.69171 -22.6143479,-9.36582 0,-1.17994 0.177295,-2.82603 0.393989,-3.65797 0.887282,-3.40651 3.355196,-7.04736 6.437021,-9.49637 2.3322239,-1.85333 4.1392826,-2.80458 7.191906,-3.78587 4.12480255,-1.32595 11.4658509,-1.19839 15.632311,0.27162 0.61544,0.21714 1.155654,0.35813 1.200475,0.31331 0.140666,-0.14067 -4.9772041,-2.74114 -6.7786199,-3.44432 -0.9458854,-0.36923 -4.63682265,-1.58123 -8.2020829,-2.69334 -15.0963282,-4.70897 -15.0812492,-4.70254 -15.0812492,-6.43146 0,-1.23123 1.476097,-2.68299 3.571875,-3.51298 1.418839,-0.56191 1.995096,-0.62781 5.4239578,-0.62027 4.3413334,0.01 6.3899168,0.43674 9.92354165,2.06938 3.21503305,1.48544 5.30088245,3.03808 9.33211555,6.94654 2.076944,2.01369 3.773298,3.62912 3.769676,3.58985 -0.0036,-0.0393 -0.30275,-0.80028 -0.66473,-1.69111 -0.827288,-2.03597 -1.625112,-4.96769 -1.837984,-6.75394 -0.212234,-1.7809 0.402205,-4.72593 1.348898,-6.46532 0.915343,-1.68178 2.984687,-3.56646 4.372438,-3.98224 1.695298,-0.50792 3.08653,0.0994 3.876797,1.69233 0.340841,0.68703 0.683521,1.95286 0.76151,2.81294 0.160058,1.76514 -0.08734,3.0394 -1.471555,7.57957 -0.923795,3.03001 -0.968,3.3502 -0.968,7.01146 0,3.64769 0.03641,3.91422 0.739986,5.41683 0.406992,0.86921 1.346539,2.52594 2.087882,3.68163 1.718904,2.67961 3.013971,5.48423 3.516253,7.61484 0.50809,2.15524 0.519466,6.61781 0.02119,8.31392 l -0.381561,1.29882 0.855756,-0.97268 c 1.187199,-1.3494 2.227898,-4.03738 2.751785,-7.10747 0.437182,-2.56197 0.434372,-2.65161 -0.208445,-6.65112 -0.510049,-3.17344 -0.648541,-5.00252 -0.637517,-8.41977 0.01506,-4.67034 0.356538,-6.93228 1.982799,-13.1342 0.425125,-1.62126 0.955485,-3.64532 1.178578,-4.49792 0.889583,-3.39973 2.527368,-10.48762 2.442877,-10.57211 -0.04941,-0.0494 -1.548516,-0.51374 -3.331337,-1.03184 -8.696233,-2.52718 -11.76067,-4.57625 -12.474705,-8.34134 -0.783729,-4.13259 2.771575,-11.37641 9.216747,-18.77884 4.963315,-5.70048 10.133239,-9.33147 14.861583,-10.43772 2.227172,-0.52108 6.332682,-0.52358 8.32338,-0.005 5.342315,1.39149 9.798854,6.11934 13.70924,14.54382 4.731548,10.1936 5.709749,18.86586 2.559138,22.6881 -2.015466,2.44511 -7.121256,3.84432 -12.926192,3.54236 -1.832156,-0.0953 -3.825724,-0.24599 -4.430153,-0.33485 l -1.098961,-0.16156 -0.209505,2.08193 c -0.551063,5.47613 -0.110614,11.12255 1.34054,17.18532 0.636383,2.65874 1.080086,5.63037 1.311043,8.78051 0.134308,1.83189 -0.175332,4.19023 -0.800239,6.09496 -0.759581,2.31521 -2.957123,6.52771 -4.05553,7.7741 -1.480027,1.67943 -4.118608,3.74364 -6.573709,5.14274 -1.117067,0.63659 -1.882884,1.15743 -1.701816,1.15743 0.882211,0 6.607201,-2.06301 9.246578,-3.33202 2.35527,-1.13242 3.323016,-1.77401 4.651459,-3.08384 2.904134,-2.86344 4.659945,-6.61462 4.675207,-9.9883 0.0077,-1.70903 0.453132,-3.07883 1.314606,-4.04299 1.374966,-1.53885 3.532735,-1.02156 4.412888,1.05793 0.84843,2.00453 0.283427,4.71217 -1.720965,8.24729 -0.609642,1.07522 -1.057511,2.00588 -0.995265,2.06812 0.255694,0.2557 4.1058,-3.89764 5.292569,-5.7094 1.590157,-2.42759 1.925103,-3.22373 2.273333,-5.40356 0.76577,-4.79353 -1.779989,-9.9615 -6.163617,-12.51232 -3.033422,-1.76515 -3.802003,-3.01984 -3.010398,-4.91442 0.445661,-1.06662 2.432379,-2.50409 3.8209,-2.76458 4.333618,-0.81299 8.630415,2.5539 10.033629,7.86217 0.515927,1.95172 0.59711,6.67178 0.142271,8.27186 -0.403133,1.41817 -0.09894,1.01435 0.747868,-0.99281 1.63069,-3.86518 3.761205,-6.47646 5.730159,-7.02321 1.471698,-0.40867 1.806759,-0.35906 2.710406,0.40131 1.803418,1.51748 0.767462,4.27196 -3.168041,8.42343 -1.389785,1.46605 -3.413848,3.72404 -4.497916,5.01774 -3.749424,4.47447 -3.682261,4.34058 -1.511988,3.01406 5.53353,-3.38222 12.661068,-9.90917 15.518762,-14.21111 3.292813,-4.95696 4.519468,-8.191 4.726356,-12.46088 0.154019,-3.17874 -0.137356,-4.91662 -1.182032,-7.05013 -1.603657,-3.27509 -4.158842,-5.16248 -6.970867,-5.14903 -3.15268,0.0151 -5.281007,2.01961 -5.322315,5.01274 -0.02768,2.00581 1.038554,2.74554 2.720551,1.88744 1.265104,-0.6454 2.129184,-0.33181 2.762368,1.00252 1.107776,2.33447 -0.954309,4.62229 -4.150771,4.60515 -2.309356,-0.0124 -4.299488,-1.30629 -5.726287,-3.72303 -0.998773,-1.69174 -1.150478,-5.06731 -0.337525,-7.51024 0.83933,-2.52218 2.741979,-4.64748 5.307922,-5.92904 1.321517,-0.66004 1.723851,-0.72716 4.379347,-0.7306 2.841755,-0.004 2.979903,0.0238 4.90346,0.97445 2.925087,1.44565 5.568934,4.21944 6.833335,7.16916 1.481323,3.45579 1.736403,8.85558 0.577507,12.22552 -0.680396,1.97852 -0.08173,1.36413 1.031246,-1.05833 2.54521,-5.53982 3.20398,-10.24632 2.14795,-15.34584 -0.99573,-4.80836 -2.784879,-8.25063 -5.623464,-10.81941 -4.278958,-3.87223 -9.080376,-4.87799 -14.756427,-3.09106 -2.900218,0.91305 -3.9918,0.90839 -5.174684,-0.0221 -0.845731,-0.66526 -1.231806,-2.06038 -0.901358,-3.25717 0.662302,-2.39865 2.922632,-3.62144 7.007554,-3.79092 4.217752,-0.17499 7.075067,0.71431 12.936992,4.02645 l 2.116666,1.19597 -2.116666,-1.99948 c -3.949918,-3.73127 -11.45214,-8.33733 -23.415621,-14.37626 -14.021781,-7.07793 -19.481138,-9.12903 -26.144638,-9.82264 -6.935405,-0.72192 -10.658757,1.00664 -14.438249,6.70293 -1.757493,2.64882 -4.667234,5.45447 -6.680473,6.44148 -0.746985,0.36622 -1.997141,0.73106 -2.778125,0.81076 -1.277472,0.13035 -1.496361,0.0738 -2.181182,-0.56361 -0.734817,-0.68394 -0.756833,-0.77671 -0.634974,-2.67553 0.183782,-2.86372 1.499613,-5.41271 4.152574,-8.04425 2.486321,-2.46625 5.226682,-4.05133 8.957369,-5.18113 l 2.779429,-0.84172 -2.518718,-0.18884 c -8.10756,-0.60785 -16.614886,1.80537 -23.3781303,6.63152 -2.680905,1.91305 -6.19535365,5.78755 -7.3106216,8.05959 -2.9198462,5.94833 -1.988608,13.07205 1.97302865,15.09313 3.15653405,1.61034 7.65639115,-0.45184 6.65878115,-3.05157 -0.08833,-0.23019 -0.450929,-0.41852 -0.805777,-0.41852 -0.9236803,0 -1.9440408,-1.11794 -1.9440408,-2.12996 0,-2.05475 1.7021358,-3.29357 4.2701548,-3.10781 3.0700741,0.22207 4.8614151,2.30165 4.8536611,5.63465 -0.0036,1.54889 -0.131918,2.08374 -0.783817,3.26716 -1.681655,3.05281 -5.2703161,5.31615 -8.7868866,5.54183 -3.41490385,0.21915 -7.1746283,-1.28239 -9.1887834,-3.66979 -2.0381842,-2.41587 -3.2292804,-6.50695 -3.0078945,-10.33126 0.065597,-1.13315 0.023087,-2.00084 -0.094468,-1.92819 -0.8989018,0.55556 -3.9179775,6.24463 -4.7264935,8.90649 -2.504472,8.24543 -1.450135,15.6327 2.83836,19.88713 4.8113933,4.77318 12.8845488,5.08215 14.7534858,0.56464 0.4191007,-1.01303 0.4590841,-1.31619 0.1856481,-1.40763 -1.4621261,-0.48892 -2.3618269,-2.52808 -1.7536284,-3.97455 0.5147687,-1.22428 1.4733281,-1.7319 2.9944027,-1.58574 1.6879705,0.16219 2.9959925,1.17562 3.8986595,3.02061 1.3149313,2.68762 0.5396503,6.17914 -1.917707,8.6365 -5.8625583,5.86256 -17.1939451,4.32495 -23.1332297,-3.13905 -2.940681,-3.6956 -4.449269,-7.93002 -4.669096,-13.10558 -0.219425,-5.16607 0.545253,-8.13649 3.771701,-14.65132 3.241077,-6.54437 7.4680548,-11.62765 13.3269551,-16.02673 1.5144658,-1.13711 3.44938345,-2.43835 4.2998168,-2.89162 0.8504333,-0.45328 1.5462424,-0.85759 1.5462424,-0.89846 0,-0.0409 -1.1608593,0.15401 -2.57968735,0.4331 -3.54213815,0.69675 -9.17705605,0.54048 -11.70781195,-0.32468 -3.483394,-1.19084 -5.745465,-3.16069 -6.483517,-5.64598 -0.512214,-1.72482 -0.502796,-1.90618 0.171297,-3.29867 1.237215,-2.55575 4.80197,-2.57026 6.329606,-0.0258 1.136647,1.89324 1.8721463,2.62865 3.4006917,3.40026 2.7926729,1.40973 5.1658468,1.9811 8.09129675,1.94806 2.67852495,-0.0302 3.53727055,-0.21149 11.11249955,-2.34535 3.69278,-1.04022 8.753573,-1.70612 12.964583,-1.70587 4.93227,2.8e-4 9.437298,0.68865 17.324383,2.64715 3.507379,0.87094 6.461573,1.5829 6.564876,1.58214 0.103302,-7.7e-4 -0.133959,-0.20913 -0.527248,-0.46303 -0.39329,-0.25389 -2.536415,-1.78312 -4.7625,-3.39828 -9.570683,-6.94412 -15.31148,-9.77162 -20.9003,-10.29398 -3.559624,-0.33269 -6.037968,0.49429 -10.928377,3.64664 -1.7153283,1.10569 -3.6875513,1.20115 -4.7228023,0.22858 -0.8508704,-0.79935 -1.1236446,-2.36477 -0.6850341,-3.93133 0.4238851,-1.51397 2.5034271,-3.7024 4.4606054,-4.69418 4.004884,-2.02943 8.302582,-1.82039 14.292345,0.69518 1.391437,0.58437 2.70235,1.1329 2.91314,1.21894 0.65584,0.26771 -0.76378,-1.5196 -3.287121,-4.13851 -5.894043,-6.11728 -14.9803693,-13.26488 -19.6271843,-15.43938 -5.9221089,-2.77129 -11.8912205,-2.28936 -15.6933037,1.26704 -3.649434,3.41362 -4.118001,9.16488 -0.995723,12.22166 1.360428,1.33188 2.6811363,1.91536 4.4243309,1.95463 1.6071633,0.0362 2.4997415,-0.49308 3.0492207,-1.80817 0.3814244,-0.91288 0.3727341,-0.99711 -0.1615555,-1.56583 -0.334242,-0.35579 -0.6196034,-1.08848 -0.6992972,-1.79552 -0.1202927,-1.06724 -0.048739,-1.28037 0.6717495,-2.00085 0.7012207,-0.70122 0.9941615,-0.80639 2.2462626,-0.80639 2.10216655,0 3.56810535,1.21556 4.285764,3.55375 0.8183472,2.66625 0.2409531,4.84619 -1.82897845,6.90526 -2.38680385,2.37429 -6.00079765,3.59372 -9.18835835,3.10033 -8.5363972,-1.32131 -12.9618362,-11.49262 -8.6047992,-19.77705 1.196142,-2.27433 4.091606,-5.05737 6.537255,-6.28342 2.9247324,-1.46624 4.8917043,-1.90796 8.458276,-1.89947 4.7616629,0.0113 8.5805951,1.32505 13.80764,4.74986 1.45631,0.95418 2.606526,1.64072 2.556035,1.52563 -0.05049,-0.1151 -0.730738,-1.51895 -1.511661,-3.11968 -0.780923,-1.60073 -2.3936523,-5.242771 -3.5838413,-8.093421 -2.9155283,-6.98305 -4.0075428,-8.85947 -6.7673446,-11.62838 -2.4899439,-2.498159 -4.4975336,-3.715404 -6.9535234,-4.216072 -2.3180225,-0.472542 -4.4629697,0.207378 -5.8483967,1.853865 -1.025901,1.219217 -0.910541,3.787187 0.204764,4.558177 0.160116,0.11068 0.728691,0.13149 1.2634998,0.0462 1.7307246,-0.2759 3.1127952,0.88883 3.1227784,2.63169 0.00476,0.83087 -0.167264,1.1904 -0.9004241,1.88185 -2.1915967,2.06695 -5.8730151,1.69177 -8.0815281,-0.82359 -3.707244,-4.22231 -1.845984,-12.131035 3.410073,-14.489813 3.0794191,-1.381961 6.1046069,-1.512543 9.6526752,-0.416657 2.13821245,0.660427 4.1622443,2.01127 6.5470072,4.369486 L 5.6110155,81.448959 5.4268307,80.390625 C 5.3255291,79.808542 4.9708435,78.644255 4.6386406,77.80332 3.1286011,73.980825 0.85373685,71.454061 -3.3939642,68.881251 -10.912437,64.327352 -14.046911,61.652045 -15.948728,58.165626 c -1.824663,-3.344979 -1.927402,-4.997418 -0.371663,-5.977753 0.716483,-0.451485 1.169979,-0.518817 2.83717,-0.421244 3.157204,0.184778 6.5231515,1.984265 9.5739211,5.118366 1.3763551,1.41395 2.3215725,2.759456 6.9295245,9.864095 0.8549686,1.31821 1.5916421,2.396744 1.6370523,2.396744 0.04541,0 -0.2598266,-0.755126 -0.678304,-1.678058 C 2.4012491,63.98818 1.378039,58.269254 1.8305168,55.459623 c 0.4688515,-2.911301 1.5461538,-4.462581 3.2963216,-4.746594 1.8416955,-0.298866 3.0857725,1.253665 3.0857725,3.850853 0,0.720524 -0.297656,2.805987 -0.661458,4.634363 -0.675508,3.394926 -0.845924,7.130539 -0.423628,9.286131 0.236888,1.209181 0.286956,1.087445 0.816151,-1.984375 0.452118,-2.624412 0.937529,-4.1838 3.0532601,-9.808633 3.551322,-9.441461 4.446148,-13.100044 4.428148,-18.104907 -0.02174,-6.043921 -1.627196,-10.755403 -4.607526,-13.521539 -3.9353061,-3.652478 -9.4648617,-4.690234 -14.080011,-2.64246 -1.8796325,0.834007 -4.425009,3.592061 -5.1950099,5.629077 -0.8244341,2.181017 -0.6627197,5.942546 0.3401892,7.912906 1.5646521,3.073988 4.760267,4.563488 7.41282925,3.455177 1.1788484,-0.492554 2.56705565,-2.132439 2.56705565,-3.032454 0,-0.831168 -0.6583916,-1.901749 -1.16954825,-1.901749 -0.1901859,0 -0.6596845,-0.313892 -1.0433303,-0.697537 -1.48671525,-1.486716 -0.5339473,-4.35266 1.57878305,-4.749011 2.0042934,-0.376007 4.3275258,1.248325 5.4657592,3.821491 0.42219,0.954431 0.500298,1.592455 0.408669,3.338218 -0.09855,1.877695 -0.238992,2.38306 -1.080308,3.887473 -1.0973157,1.962184 -2.6310733,3.344741 -4.8791224,4.39813 -1.35895175,0.636777 -1.84021925,0.716861 -4.3079853,0.716861 -2.5060066,0 -2.925644,-0.07244 -4.2841846,-0.739581 -3.1483406,-1.546057 -5.4535496,-4.380789 -6.5719946,-8.081631 -0.854836,-2.828579 -0.666455,-6.746034 0.462497,-9.61786 3.6407157,-9.261239 14.25233345,-13.84361 22.8991789,-9.888458 2.1244771,0.971757 5.4543931,3.544452 6.7236941,5.194731 2.314058,3.008616 4.108112,7.876167 4.541122,12.320776 l 0.202717,2.080773 0.845675,-2.778125 c 2.673446,-8.782527 3.572427,-11.001819 5.239426,-12.934438 2.460214,-2.852225 6.748196,-3.212911 8.30228,-0.698351 1.217128,1.969354 0.412115,4.106315 -2.593987,6.885915 -8.150538,7.536417 -10.017037,10.536881 -16.41758,26.391863 -4.476442,11.088728 -5.856299,17.156762 -5.869599,25.812037 -0.01217,7.917594 1.596547,15.149304 4.817955,21.658325 0.90166,1.82185 1.501237,2.79514 1.433631,2.3272 -0.06391,-0.44237 -0.192596,-2.10924 -0.285963,-3.704161 -0.342674,-5.85361 1.21108,-10.28802 4.125789,-11.77499 1.681503,-0.85784 2.822131,-0.60052 3.546395,0.80005 0.803088,1.553 0.484147,3.44192 -1.35347,8.01585 -2.594872,6.458781 -2.578407,10.096031 0.07146,15.785851 1.123117,2.41156 4.29281,7.68901 4.618108,7.68901 0.08751,0 -0.119715,-0.96266 -0.460504,-2.13925 -1.779291,-6.14309 -1.522266,-12.35035 0.709014,-17.12299 3.072288,-6.571531 10.842946,-9.733391 16.763015,-6.820841 2.075254,1.02099 3.977223,2.8431 4.904351,4.69845 0.710847,1.42253 0.812222,1.899591 0.812222,3.822181 0,1.56779 -0.153268,2.59733 -0.5353,3.59576 -0.633753,1.65629 -1.050719,2.18805 -2.70705,3.45236 -2.420332,1.84748 -5.450739,1.9221 -6.924609,0.1705 -1.006875,-1.1966 -0.925831,-2.42879 0.236175,-3.5908 0.854801,-0.8548 0.997588,-0.90506 2.101,-0.7396 1.043756,0.15652 1.264009,0.0974 1.860994,-0.49959 1.864409,-1.86441 -0.07405,-5.542661 -3.28379,-6.231031 -1.8422,-0.39508 -2.145592,-0.37466 -3.837423,0.25834 -2.91416,1.09033 -5.245011,4.308351 -6.117902,8.446511 -0.619582,2.93729 -0.389879,7.60739 0.527059,10.71563 0.90439,3.0657 2.915277,7.21605 4.533202,9.35625 2.796268,3.69891 7.097628,7.76707 10.491453,9.92264 l 1.503184,0.95475 -1.639221,-2.17932 c -3.514347,-4.67227 -4.731453,-9.54289 -3.324397,-13.30358 1.316875,-3.51967 4.928888,-5.50732 6.731777,-3.70444 0.541386,0.54139 0.648781,0.90454 0.645521,2.18282 -0.0022,0.84336 -0.177178,2.26815 -0.388948,3.16621 -1.288826,5.46553 -0.483408,9.97871 2.605833,14.60186 3.467346,5.189 9.127921,9.77663 18.424525,14.93222 5.058025,2.80501 5.660849,3.0316 3.354497,1.2609 -8.781653,-6.7421 -14.132463,-16.95221 -16.049673,-30.62508 -1.237173,-8.82308 -1.323169,-16.71439 -0.303653,-27.864191 0.286082,-3.1287 0.590647,-6.65217 0.67681,-7.82994 l 0.15666,-2.1414 -4.787501,-0.17973 C 38.507778,85.931099 30.248464,84.276089 24.217595,80.55043 20.224648,78.083724 18.332457,75.88479 17.443193,72.677826 16.877082,70.636253 16.775228,66.832702 17.226741,64.594795 18.96677,55.9704 24.510912,46.47309 33.976643,35.901621 42.875676,25.963049 49.803867,20.353839 56.354534,17.784007 c 9.327495,-3.659183 17.943525,-4.091205 27.396615,-1.373709 5.446913,1.565833 11.687979,5.091275 16.436871,9.284827 2.62744,2.320188 9.10529,9.561424 12.00664,13.421576 7.59279,10.101935 11.79842,20.754176 11.30657,28.637861 -0.23637,3.788763 -2.12624,6.978685 -5.60534,9.461274 -3.23405,2.307724 -8.4914,4.523213 -14.03641,5.915053 -6.270431,1.57393 -16.197746,3.20061 -22.138503,3.62759 l -2.559339,0.18395 -0.106078,1.88347 c -0.686671,12.192161 2.159943,24.782511 8.517405,37.671831 l 1.46985,2.98001 0.0442,-3.2446 c 0.03028,-2.22231 0.307539,-4.82851 0.879987,-8.27168 1.55946,-9.37988 1.171761,-11.95766 -2.526876,-16.80104 -1.895456,-2.482111 -2.327803,-3.480511 -2.158326,-4.984101 0.238107,-2.11248 1.981316,-3.08157 4.380876,-2.43544 2.106611,0.56726 4.577953,3.45487 5.439375,6.355601 0.539769,1.8176 0.559822,6.28287 0.03597,8.00925 -0.209746,0.69122 -0.297754,1.25258 -0.195574,1.24745 0.212908,-0.0107 3.26794,-4.127 5.413123,-7.29359 2.16127,-3.190341 2.64597,-4.643031 2.82491,-8.466591 0.15317,-3.27311 0.27441,-3.66002 1.46132,-4.66368 0.70154,-0.59323 2.72839,-0.6146 3.55238,-0.0375 0.70216,0.49181 1.35384,1.87522 1.35384,2.87395 0,1.04842 -0.91409,3.40107 -1.84992,4.76125 -0.4658,0.67702 -0.79891,1.27896 -0.74023,1.33764 0.16531,0.16531 1.9925,-1.12319 4.17765,-2.946 3.45855,-2.88506 9.55464,-9.44112 12.67042,-13.62644 3.75087,-5.038428 6.20822,-11.499345 7.58841,-19.951643 0.6793,-4.16006 0.59948,-6.973438 -0.274,-9.657291 -1.53073,-4.703355 -3.43715,-7.519544 -6.49108,-9.588749 -2.63719,-1.786837 -3.70416,-3.177307 -3.70416,-4.827211 0,-2.487037 2.55548,-3.748301 5.15937,-2.546422 2.83847,1.310155 4.7596,4.471686 6.20752,10.215508 l 0.46688,1.852083 0.20631,-1.308333 c 0.28643,-1.816513 -0.0108,-7.264938 -0.53397,-9.787663 -1.49811,-7.224023 -5.7531,-12.211104 -11.42277,-13.388123 -2.80462,-0.582238 -5.5704,0.572523 -6.06193,2.530968 -0.2097,0.83549 0.36833,1.447944 1.36655,1.447944 0.73782,0 1.14169,0.490408 1.21292,1.472796 0.0779,1.074317 -0.3906,1.821536 -1.46037,2.329173 -1.04542,0.496086 -1.76796,0.535092 -3.09305,0.166979 -2.6224,-0.728504 -4.02017,-4.935348 -2.60864,-7.851183 1.05744,-2.184378 4.44525,-4.475601 7.57981,-5.126333 2.05351,-0.426308 5.67292,-0.195309 7.54636,0.481625 3.70602,1.339097 7.40149,4.705782 9.21448,8.394651 1.79965,3.661739 2.14524,5.506141 2.33008,12.435416 l 0.16232,6.085416 0.8462,-3.439583 c 0.4654,-1.891771 0.97617,-4.808802 1.13503,-6.482291 0.71167,-7.497122 1.14485,-9.504693 2.69473,-12.488916 1.80361,-3.472756 4.5386,-5.747904 6.92602,-5.761523 0.81733,-0.0047 1.20333,0.178879 1.95317,0.928717 0.9239,0.923897 0.93305,0.9552 0.80451,2.75174 -0.15193,2.123439 -0.82714,3.506274 -4.61221,9.445938 -2.04783,3.213517 -4.85238,8.773299 -5.51974,10.942402 -0.11151,0.362442 0.91036,-0.704041 2.27083,-2.369961 4.22029,-5.167839 12.63872,-13.104796 17.10604,-16.12771 4.32187,-2.924491 11.00865,-5.528028 16.0321,-6.242199 7.65319,-1.088034 14.79393,0.01269 20.8097,3.207759 4.62116,2.454369 9.54792,6.605173 12.47635,10.511363 0.89051,1.187825 1.55005,1.921557 1.46566,1.630515 -0.66588,-2.296431 -0.93892,-8.588348 -0.45129,-10.399297 0.97628,-3.625611 5.53359,-5.909602 8.48348,-4.251671 2.03027,1.141076 2.11603,2.743194 0.26261,4.906109 -0.7466,0.871264 -1.66288,2.357646 -2.10514,3.414912 -1.57384,3.762467 -2.43894,11.454934 -1.8872,16.780988 0.84433,8.150377 0.90477,9.812908 0.46418,12.767672 -0.75177,5.04161 -2.80721,10.090888 -5.96989,14.665271 -1.55421,2.247967 -2.2259,3.065712 -4.63263,5.639972 -1.73925,1.860327 -1.67811,1.991539 0.27812,0.596835 2.63329,-1.877417 3.99307,-2.62531 6.47935,-3.563717 1.92416,-0.726243 2.5582,-0.837477 4.85877,-0.852406 2.21249,-0.01436 2.79735,0.07184 3.57097,0.526301 1.40434,0.824973 2.11757,2.061126 2.11757,3.670118 0,2.773582 -1.072,3.327035 -6.4442,3.327035 -3.27979,0 -4.14448,0.09352 -6.16006,0.666213 -6.75605,1.919631 -11.85552,6.118706 -14.77484,12.166076 -1.53598,3.18179 -1.97261,4.94994 -2.1561,8.73125 -0.12813,2.640491 -0.0585,3.636321 0.41383,5.915221 0.31235,1.50713 0.72141,3.11447 0.90903,3.57188 0.32344,0.78854 0.34937,0.70559 0.50021,-1.60019 0.49205,-7.52176 5.23913,-15.022961 10.9581,-17.315691 1.31347,-0.52657 2.01047,-0.61816 4.72962,-0.62148 3.15162,-0.004 3.21259,0.008 5.18288,0.98166 4.65204,2.29964 7.04039,6.27255 6.78803,11.291561 -0.13964,2.77717 -0.73785,4.24288 -2.50096,6.12779 -1.55308,1.66037 -2.76321,2.30344 -4.87912,2.59281 -4.08341,0.55844 -6.85392,-1.19904 -6.85392,-4.3478 0,-1.10763 0.13834,-1.56019 0.67012,-2.19217 1.44464,-1.71686 3.77971,-1.64467 4.52535,0.13991 0.46236,1.10658 1.19019,1.15008 2.20827,0.13201 0.75281,-0.75282 1.32456,-2.25706 1.32456,-3.48488 0,-3.147801 -2.94155,-5.815921 -6.45824,-5.857931 -2.95654,-0.0353 -5.07398,0.91616 -7.46837,3.35593 -3.74078,3.811651 -5.40395,8.842051 -6.16334,18.641581 -0.72011,9.29278 -0.90592,10.9055 -1.71189,14.85846 -0.46912,2.30081 -0.82755,4.15538 -0.79652,4.12127 0.031,-0.0341 0.61042,-1.12417 1.28751,-2.42235 4.70025,-9.01171 10.01046,-13.42631 17.39238,-14.45899 1.95005,-0.2728 2.54525,-0.256 4.20431,0.11867 3.26846,0.73811 5.27336,2.30642 5.27336,4.12503 0,1.26612 -0.29268,1.63341 -3.64595,4.57554 -4.37293,3.83677 -5.98675,4.91647 -11.62448,7.77717 -2.73361,1.38709 -5.94297,3.1668 -7.13192,3.9549 -2.37729,1.57581 -6.40458,5.03658 -7.4406,6.39394 -0.77911,1.02076 -0.76176,1.01608 2.55083,-0.68764 3.038,-1.56249 7.12566,-2.87467 9.88193,-3.1722 4.35534,-0.47015 9.21064,0.46688 12.13168,2.34131 3.76364,2.41512 6.07226,6.90496 6.07226,11.80943 0,5.27612 -2.40386,9.34385 -6.81295,11.52863 -2.22337,1.10173 -2.33611,1.12745 -4.94106,1.12745 -2.36796,0 -2.84314,-0.083 -4.25328,-0.74278 -3.69926,-1.73087 -5.72696,-5.61646 -4.48388,-8.59228 1.42546,-3.41246 6.20824,-4.74208 7.48435,-2.08066 0.43973,0.91709 0.0502,2.04817 -0.92559,2.68752 -0.52731,0.3455 -0.63443,0.60804 -0.56855,1.39344 0.193,2.30116 3.60937,2.9251 6.12487,1.1186 1.60428,-1.15211 2.71147,-2.83526 3.10177,-4.71532 1.44093,-6.94091 -4.86789,-12.26417 -13.25938,-11.18801 -3.71937,0.47699 -7.12109,1.89495 -11.08999,4.62271 -3.44947,2.37077 -5.66405,4.83209 -9.31517,10.35303 -2.19705,3.32222 -4.35853,6.19357 -6.37351,8.46667 -1.67694,1.89177 -3.0164,3.47516 -2.97656,3.51865 0.0398,0.0435 0.83059,-0.44827 1.75724,-1.0928 4.09203,-2.84622 7.70189,-4.13577 12.1457,-4.33877 3.5105,-0.16038 5.14245,0.11162 7.54263,1.25712 4.41124,2.10529 6.83879,6.41959 5.16069,9.17172 -1.13517,1.86173 -2.9109,1.853 -5.30267,-0.0261 -2.88219,-2.26437 -5.94338,-3.332 -9.54406,-3.3286 -5.51526,0.005 -13.75382,3.51647 -22.325,9.5149 -2.39773,1.67802 -4.57271,3.19806 -4.83328,3.37786 -0.4243,0.29276 -0.4047,0.3138 0.18768,0.2014 2.4827,-0.47105 7.90273,-0.96195 13.09687,-1.1862 3.34698,-0.1445 7.15698,-0.39182 8.46667,-0.54961 3.75255,-0.45208 10.96951,-0.39873 13.92041,0.1029 6.07248,1.0323 11.26395,3.64835 15.81319,7.9685 1.0428,0.99028 1.62793,1.40055 1.5312,1.0736 -0.0861,-0.29104 -0.45865,-1.70306 -0.82787,-3.13782 -2.0356,-7.91023 0.80753,-14.45697 6.2784,-14.45697 2.44646,0 4.42738,1.77179 4.42738,3.95998 0,1.08323 -0.34251,1.71188 -1.77526,3.25836 -3.71482,4.00971 -3.80609,9.6073 -0.3396,20.82749 2.21031,7.15424 2.83082,11.27642 2.39781,15.92938 -0.36484,3.92053 -1.24373,6.94298 -3.1771,10.92583 -1.81507,3.73916 -3.1441,5.57756 -6.14684,8.50274 l -2.20983,2.15274 1.62817,0.16682 c 3.34156,0.34235 6.17868,1.7902 7.88375,4.02326 2.12003,2.77652 1.8824,5.74428 -0.50799,6.34423 -1.19415,0.29971 -2.7416,-0.40102 -4.61836,-2.09133 -3.66286,-3.29898 -6.59284,-4.21774 -13.33007,-4.17995 -2.44893,0.0137 -4.55983,0.0912 -4.69089,0.17224 -0.13105,0.081 -1.81831,0.0278 -3.74947,-0.11817 -4.26798,-0.32264 -7.20329,-1.11755 -11.01034,-2.98173 -3.79984,-1.86065 -7.24394,-4.528 -11.35911,-8.79731 l -3.51243,-3.64398 0.53182,1.34923 c 1.47744,3.74831 4.43171,8.36945 7.24164,11.32757 1.00575,1.05881 2.85611,2.61677 4.11189,3.46216 1.97143,1.32714 2.29445,1.65093 2.36525,2.37089 0.1845,1.87626 -1.19525,2.82069 -3.89252,2.66439 -2.2753,-0.13184 -3.85126,-0.91125 -5.81676,-2.87675 -3.29236,-3.29236 -4.99907,-6.92819 -7.57039,-16.12726 -1.60054,-5.72607 -4.53342,-12.60011 -6.82967,-16.00729 -1.13961,-1.69096 -4.4728,-5.2904 -5.32258,-5.74774 -0.42975,-0.23128 -0.39642,-0.0916 0.21112,0.88446 2.74825,4.41537 5.61958,11.63107 6.39286,16.06536 0.47142,2.70334 0.5344,7.39599 0.13299,9.90876 -0.52105,3.26164 -2.23463,7.94098 -3.38738,9.25009 -0.22425,0.25467 -0.67307,0.46303 -0.99739,0.46303 -1.79056,0 -6.13594,-7.35483 -7.28611,-12.3322 -0.52681,-2.27978 -0.56839,-2.97508 -0.42284,-7.07051 0.0888,-2.49814 0.34155,-5.73271 0.56171,-7.18792 0.98584,-6.5161 0.23317,-10.95715 -2.2703,-13.3956 -2.53158,-2.46583 -6.21477,-4.00026 -10.79437,-4.49696 -4.51777,-0.48999 -8.72735,0.18729 -15.64706,2.51747 -2.12635,0.71604 -2.07362,0.77715 0.94419,1.09432 5.54303,0.58255 10.3928,2.93387 14.05016,6.81194 2.27763,2.41507 3.58899,4.6373 4.64161,7.86571 1.59606,4.89514 1.29164,10.5715 -0.81627,15.22038 -3.66983,8.09365 -11.89642,13.37024 -19.85602,12.73579 -8.33263,-0.66418 -13.75449,-5.71861 -14.43751,-13.45912 -0.33685,-3.81736 1.0391,-7.48838 3.87341,-10.33427 2.00559,-2.01377 3.7108,-2.90983 6.44277,-3.38559 7.78326,-1.35539 13.47241,6.64022 8.14337,11.44484 -2.2255,2.00649 -5.13613,1.50924 -5.5292,-0.9446 -0.15242,-0.95153 -0.0849,-1.09901 0.93409,-2.0399 1.2066,-1.11414 1.36668,-1.82549 0.5864,-2.60577 -2.29988,-2.29988 -7.20856,0.0328 -8.7538,4.15993 -2.0833,5.56423 2.44255,11.52826 9.03805,11.91006 10.53533,0.60988 18.67965,-10.45418 15.26186,-20.73325 -0.87535,-2.63263 -2.16642,-4.66876 -4.3677,-6.88824 -2.26236,-2.28106 -5.16057,-3.83247 -8.34017,-4.46448 -2.61733,-0.52025 -7.56895,-0.51837 -10.79292,0.004 -4.67252,0.75722 -10.73479,3.15966 -15.610419,6.18631 -2.854837,1.77221 -13.485132,9.27922 -13.139824,9.27922 0.08561,0 0.738541,-0.22975 1.450961,-0.51056 0.71242,-0.28081 2.57609,-0.71925 4.141489,-0.97431 3.556497,-0.57949 5.930545,-0.31589 8.48625,0.94228 2.23995,1.10273 3.16217,2.28406 3.16217,4.05064 0,2.66242 -2.23605,3.2809 -6.493584,1.79608 -2.918782,-1.01792 -5.715528,-1.43927 -8.190795,-1.23399 -3.522397,0.29213 -8.986989,1.83338 -13.642007,3.84764 l -1.836117,0.7945 2.917358,0.009 c 3.779645,0.0123 6.811127,0.40261 9.345845,1.20332 7.874525,2.48756 11.701571,9.30063 7.633282,13.58908 -2.543995,2.68168 -7.206007,2.91113 -10.564106,0.51996 -1.592088,-1.13367 -1.908244,-3.49055 -0.58457,-4.35785 0.590506,-0.38691 0.71288,-0.36894 1.862417,0.27355 1.951339,1.09062 3.015815,0.89502 3.015815,-0.55418 0,-1.90973 -4.01081,-4.79127 -8.107868,-5.82504 -1.347992,-0.34012 -2.833569,-0.45182 -5.782756,-0.4348 -4.092601,0.0236 -5.525858,0.20686 -10.054166,1.28534 -1.455209,0.34658 -4.014135,0.95182 -5.686503,1.34499 l -3.04067,0.71485 2.253885,0.45631 c 5.365167,1.08621 9.330431,4.55752 8.293308,7.26022 -0.225953,0.58883 -1.492313,1.20248 -2.481479,1.20248 -1.0039,0 -2.064462,-0.53104 -3.799351,-1.90239 -2.901207,-2.29327 -5.549391,-2.98015 -11.41419,-2.96059 -6.053702,0.0202 -10.440699,0.89541 -19.209734,3.83238 -4.283704,1.43472 -6.98197,1.88587 -7.579327,1.26726 z M 205.50323,242.315 c 2.62852,-1.17525 5.99385,-4.16049 7.99991,-7.09638 1.15055,-1.68385 2.69971,-5.068 3.59553,-7.85449 2.27494,-7.07626 0.26161,-17.38526 -4.67589,-23.94226 -1.73472,-2.3037 -5.16951,-5.69567 -7.0956,-7.00713 -3.3773,-2.29959 -7.88889,-4.09083 -12.43541,-4.93724 -3.01368,-0.56105 -10.91316,-0.62346 -16.27188,-0.12857 -5.53693,0.51135 -6.1513,0.71562 -4.03489,1.34152 1.90417,0.56314 5.05632,2.34038 6.61515,3.72975 2.83674,2.52834 3.93474,6.11118 2.42331,7.90741 -0.87196,1.03627 -1.55123,1.03658 -3.71959,0.002 -1.5458,-0.73774 -1.83381,-1.01233 -3.13638,-2.99015 -1.58272,-2.40319 -2.72781,-3.44972 -5.08566,-4.64789 -2.57287,-1.30744 -4.88614,-1.70156 -9.99527,-1.70292 -4.72272,-0.001 -7.12807,0.30726 -12.03854,1.54411 -3.09055,0.77844 -8.41918,2.51525 -11.21754,3.65622 l -2.08942,0.85192 4.60296,0.15569 c 5.19271,0.17563 7.45745,0.59477 13.73108,2.54123 6.75001,2.09426 9.19803,2.36776 12.56771,1.40412 2.84114,-0.81249 3.95843,-0.72469 5.08252,0.39939 0.83633,0.83634 0.91059,1.02685 0.74772,1.91823 -0.26316,1.44018 -0.78173,2.09349 -2.25386,2.83948 -3.05008,1.54559 -7.61098,1.26474 -13.10138,-0.80675 -0.29104,-0.10981 0.3638,0.51285 1.45521,1.38369 4.26212,3.40079 7.19667,6.73335 10.45341,11.87123 3.85671,6.08439 5.83266,8.57869 9.53248,12.03308 4.74596,4.43115 9.60067,6.7661 14.68371,7.06237 6.36402,0.37092 10.81465,-2.96751 11.25062,-8.43913 0.35786,-4.4912 2.21465,-6.30116 4.82902,-4.70722 2.90979,1.77406 2.32615,6.86015 -1.30037,11.3321 -0.74988,0.92469 -1.91351,2.03761 -2.58583,2.47315 -1.36559,0.88463 -0.75446,0.80703 1.46717,-0.18628 z M 186.1015,230.77557 c -3.86692,-0.69688 -6.50217,-4.90219 -6.47635,-10.33493 0.0225,-4.73939 0.98968,-7.27622 3.86572,-10.1396 4.60004,-4.5798 10.42615,-5.62104 16.17914,-2.89155 3.90571,1.85306 6.05527,5.28211 6.04201,9.63842 -0.008,2.55851 -0.5375,4.05793 -2.11264,5.98018 -1.65413,2.01865 -5.3747,3.24232 -7.61262,2.50374 -1.17301,-0.38712 -2.48585,-1.69666 -2.70605,-2.69922 -0.22521,-1.02536 0.29749,-2.48687 1.1211,-3.13473 0.80946,-0.63672 2.25771,-0.6965 2.83711,-0.11711 0.59594,0.59595 1.23163,0.37686 1.93501,-0.66689 1.1611,-1.72294 1.10799,-3.19784 -0.1791,-4.97462 -1.08318,-1.49528 -2.83156,-2.28335 -5.33202,-2.40336 -2.62748,-0.1261 -4.19478,0.51899 -6.06474,2.4962 -2.23586,2.36409 -3.00671,4.88798 -2.39413,7.83878 0.44202,2.12919 1.17811,3.0664 3.23616,4.12034 1.969,1.00835 2.61273,1.94166 2.17893,3.15913 -0.49904,1.40053 -2.25631,2.03273 -4.51753,1.62522 z m -31.16828,1.71318 c -0.62031,-7.00902 -0.86581,-8.15096 -0.90208,-4.19605 -0.0282,3.07905 0.19067,5.25426 0.79361,7.88564 0.16018,0.69908 0.34421,1.21808 0.40895,1.15334 0.0647,-0.0648 -0.0705,-2.24406 -0.30048,-4.84293 z M -1.4446803,214.80609 c -1.0186457,-0.48005 -2.2688019,-0.94527 -2.7781248,-1.03381 -0.753611,-0.13101 -0.6797122,-0.0679 0.396875,0.33866 0.7276041,0.2748 1.8586978,0.74777 2.5135415,1.05104 0.65484375,0.30327 1.30968745,0.54364 1.45520825,0.53417 0.1455209,-0.009 -0.5688541,-0.41 -1.58749995,-0.89006 z M 110.30158,206.35208 c 3.89347,-2.35369 6.41234,-3.55061 18.9579,-9.00843 4.1005,-1.78388 9.79819,-4.70631 11.94719,-6.12788 4.98341,-3.29657 8.9072,-7.66203 10.58199,-11.77313 0.75461,-1.85234 0.93695,-4.61473 0.52167,-7.90306 -0.1984,-1.57102 -0.16266,-1.7999 0.41315,-2.64583 1.26338,-1.85606 4.02429,-2.06567 5.66022,-0.42974 1.92579,1.92579 1.93996,6.14471 0.0346,10.30655 -1.08289,2.36534 -2.61363,4.39507 -5.1721,6.85808 -1.32265,1.27331 -2.33074,2.31511 -2.24019,2.31511 0.35896,0 7.23689,-4.74798 9.60444,-6.63014 1.38363,-1.09996 3.15522,-2.7073 3.93687,-3.57188 6.67615,-7.38435 10.18442,-20.44733 6.99504,-26.0459 -0.90085,-1.58133 -2.61248,-3.35063 -3.91831,-4.05034 -1.32066,-0.70765 -4.33059,-0.77549 -5.55625,-0.12522 -2.31537,1.2284 -3.44149,4.41744 -2.36268,6.69085 0.59231,1.24821 1.71988,1.66923 2.84613,1.0627 1.08326,-0.58337 1.69628,-0.46568 2.38519,0.45791 1.70255,2.28253 -0.77279,4.97677 -4.26419,4.64129 -2.83055,-0.27198 -5.04467,-2.13032 -6.03657,-5.06656 -0.6102,-1.80631 -0.40111,-5.57783 0.4246,-7.65894 0.79419,-2.00169 2.85264,-4.10302 5.06848,-5.17408 3.84777,-1.85988 7.34257,-1.61299 10.90612,0.77046 6.55575,4.38475 8.16109,13.29551 4.26353,23.66547 -0.4149,1.10389 2.60786,-3.8164 3.84101,-6.25218 1.94452,-3.84095 2.37676,-5.34321 2.36662,-8.22541 -0.0106,-3.01693 -0.42162,-4.26681 -2.45606,-7.46881 -1.62156,-2.55217 -1.92104,-3.93114 -1.10636,-5.09427 0.60605,-0.86526 2.09559,-1.26692 3.32848,-0.89754 2.96698,0.88894 4.20267,3.57572 4.20819,9.15 l 0.003,3.1722 1.1927,-2.45443 c 1.29305,-2.66095 2.67171,-6.92137 3.52765,-10.90143 2.30659,-10.72543 1.71692,-22.60121 -1.71416,-34.5225 -1.60626,-5.580941 -3.96631,-10.365701 -7.2464,-14.691341 -1.81653,-2.39557 -6.66159,-7.090423 -9.61618,-9.318069 -2.50863,-1.891416 -5.52463,-4.86165 -6.76048,-6.657897 -1.17719,-1.710977 -2.78659,-5.21407 -3.35656,-7.306025 -0.60882,-2.234529 -0.60697,-6.832989 0.004,-9.385397 0.79076,-3.304766 2.08058,-5.561411 4.62635,-8.094215 3.55111,-3.533011 7.01804,-5.00997 11.76012,-5.00997 6.71718,0 12.14199,4.211473 13.40078,10.40351 1.00153,4.926511 -1.72922,10.153383 -6.11254,11.699908 -1.71465,0.604965 -4.35444,0.49672 -5.92276,-0.242863 -2.12563,-1.002399 -3.04271,-2.322417 -3.04271,-4.379599 0,-2.864338 4.58415,-4.548244 5.11781,-1.879937 0.12703,0.635179 0.29774,0.803146 0.81625,0.803146 2.40833,0 3.9341,-3.102055 3.06049,-6.222289 -1.01754,-3.63431 -5.91202,-5.907314 -10.29976,-4.783228 -5.64585,1.446399 -8.77966,6.004105 -8.84071,12.857601 -0.0274,3.078571 0.58528,5.247187 2.37064,8.390799 1.54967,2.728606 3.83665,5.217265 8.78216,9.556583 4.68985,4.115002 5.48982,4.970492 7.83493,8.378662 2.07748,3.01923 2.39755,3.40818 2.17724,2.64583 -0.39109,-1.35334 -1.0129,-10.575888 -0.89194,-13.229167 0.17182,-3.768805 0.70653,-5.479305 2.17049,-6.943265 0.96779,-0.96779 1.28301,-1.126526 2.23706,-1.126526 1.40811,0 2.0174,0.329797 2.56474,1.388235 0.81504,1.576119 0.56705,3.848663 -0.91776,8.410021 -1.61525,4.962072 -1.89784,6.448272 -1.88157,9.895652 l 0.0126,2.66338 0.63042,-2.38125 c 1.08712,-4.10625 3.07534,-8.280565 6.36405,-13.361455 4.33541,-6.69798 5.76256,-10.16368 6.50997,-15.808853 0.7612,-5.74935 -1.45502,-12.824785 -4.99354,-15.942203 -0.70279,-0.619149 -2.67241,-1.787899 -4.45378,-2.642813 -3.73406,-1.792054 -4.61144,-2.618124 -4.61144,-4.341767 0,-2.087941 1.89897,-3.093663 4.55605,-2.412951 5.77768,1.480173 10.65123,6.842904 12.79803,14.082617 1.26788,4.275719 1.18511,11.395592 -0.18832,16.1982 -0.26817,0.937739 -0.44102,1.751535 -0.38412,1.808435 0.1664,0.166406 1.92194,-3.104846 2.77033,-5.162203 4.25733,-10.324137 1.74462,-22.863544 -6.28798,-31.37943 -2.47252,-2.621284 -7.45052,-5.953954 -10.75045,-7.197209 -4.25707,-1.603859 -10.84123,-2.217704 -15.48829,-1.443981 -4.36931,0.727476 -11.46537,3.211623 -12.40367,4.3422 -0.27291,0.328836 0.0983,0.382589 2.67504,0.387317 4.71726,0.0087 7.52978,0.980905 10.01906,3.463446 1.20158,1.198323 1.5528,1.760746 1.91823,3.071763 0.52176,1.871816 0.53134,2.050875 0.17787,3.323419 -0.40912,1.472857 -1.43408,2.347765 -2.75044,2.347765 -1.41353,0 -2.10506,-0.506398 -3.10074,-2.270643 -1.76843,-3.133494 -4.41544,-4.57187 -8.8283,-4.797281 -3.31315,-0.169237 -5.10865,0.26352 -8.66386,2.088194 -6.82509,3.502902 -12.76504,9.291915 -16.62233,16.199937 l -0.8727,1.562916 2.36382,-2.360739 c 4.83112,-4.824829 9.94989,-7.329979 14.09258,-6.896981 2.93916,0.307202 4.54311,1.368312 4.54311,3.005529 0,0.818469 -0.20251,1.168309 -1.26354,2.182812 -1.56646,1.497757 -4.06215,2.722049 -9.1875,4.507045 -4.68579,1.631911 -6.34314,2.514111 -8.41314,4.478288 -1.94691,1.847372 -3.05193,3.673723 -4.51452,7.461506 -1.43995,3.729128 -3.91916,11.346881 -3.80466,11.69038 0.0465,0.139414 0.78791,-0.683379 1.64764,-1.82843 2.60546,-3.470132 6.31869,-7.829275 7.9012,-9.275603 3.21027,-2.934003 7.41029,-3.950053 10.68668,-2.585269 1.97745,0.823713 3.07425,2.997515 2.35932,4.676059 -0.73345,1.722039 -1.85909,2.316674 -5.36579,2.834554 -3.7303,0.550903 -6.84375,1.947397 -10.94777,4.910474 -0.94589,0.682923 -6.54182,6.092872 -12.43542,12.022105 -7.42434,7.46925 -11.85335,11.70242 -14.41979,13.78219 -12.563181,10.180861 -16.092257,14.743731 -17.902896,23.147331 -0.503084,2.33493 -0.357243,8.20554 0.272775,10.98021 l 0.510652,2.24895 0.02692,-2.01586 c 0.07743,-5.79764 1.961995,-11.43737 4.922035,-14.72965 2.799424,-3.11363 6.645864,-3.87852 7.765154,-1.54416 0.4915,1.02506 -0.045,2.36037 -1.9801,4.92822 -5.10525,6.7746 -6.256364,9.63233 -6.287964,15.61041 -0.0201,3.79401 0.39196,5.74859 1.924184,9.12813 l 0.95966,2.11666 0.17644,-3.04271 c 0.3492,-6.02178 2.78687,-11.07002 6.80337,-14.08928 4.77743,-3.59125 10.53339,-3.33682 14.75103,0.65204 2.00045,1.89194 2.58986,3.24687 2.56273,5.89117 -0.0468,4.55615 -2.55683,7.88558 -6.49369,8.61334 -1.22084,0.22569 -1.67526,0.19163 -2.74565,-0.2058 -2.3618,-0.87692 -3.2436,-3.36071 -1.80155,-5.0745 0.81349,-0.96678 1.39959,-1.01466 2.79821,-0.22859 1.16288,0.65358 1.52948,0.5504 2.45666,-0.69147 0.75868,-1.01617 0.75113,-3.2794 -0.0144,-4.30636 -0.97508,-1.30811 -2.13994,-1.80616 -4.20567,-1.79818 -3.39234,0.0131 -5.89712,1.87435 -7.81757,5.80904 -1.54401,3.16341 -2.11287,6.41989 -2.11489,12.10673 -0.002,5.02353 0.2307,7.54355 1.11434,12.07947 0.64312,3.30133 0.70077,3.29227 1.3792,-0.21681 0.71588,-3.70274 2.34386,-6.47716 4.44922,-7.58239 1.14241,-0.59973 2.69587,-0.47683 3.60113,0.28489 1.66976,1.40501 1.26781,3.37954 -1.39591,6.85725 -1.82886,2.38775 -3.1624,5.27018 -3.68501,7.96513 -0.32505,1.67617 -1.05815,13.58443 -0.85017,13.80997 0.0283,0.0307 0.39374,-0.74319 0.81203,-1.7198 2.3661,-5.52423 4.89869,-10.93209 10.00079,-21.3548 6.47224,-13.22168 9.76086,-20.30241 11.12107,-23.9448 0.86677,-2.32105 3.20032,-10.56848 3.03658,-10.73213 -0.0394,-0.0394 -1.5004,-0.49078 -3.24665,-1.00309 -6.35991,-1.86588 -12.47418,-4.59282 -15.80125,-7.04731 -7.57859,-5.59096 -5.48374,-12.68534 7.68406,-26.022621 8.87675,-8.991 19.14878,-15.23838 26.33998,-16.019799 2.99655,-0.325616 6.60905,0.220496 9.58518,1.44902 2.95293,1.218944 8.21852,5.527649 10.91411,8.930749 5.54545,7.00094 11.1669,18.456401 13.32893,27.161851 0.43144,1.7372 0.55468,3.03166 0.54159,5.68854 -0.0196,3.98045 -0.57077,6.22078 -1.93653,7.87162 -1.43066,1.72928 -4.31306,3.08175 -7.73186,3.6279 -4.04557,0.64628 -13.04125,0.1898 -20.16049,-1.02303 l -2.76328,-0.47075 -0.52611,2.27317 c -1.3897,6.00451 -2.83305,14.72774 -4.00968,24.23359 -1.41744,11.45126 -3.0638,16.70774 -7.24947,23.14602 -2.14032,3.29217 -4.32704,5.79401 -7.20299,8.24097 -3.3068,2.81355 -4.56763,3.69596 -10.53719,7.37456 -7.52687,4.63827 -8.62599,5.36501 -12.07232,7.98232 -2.58038,1.95966 -4.51889,3.64635 -3.53809,3.07848 0.14552,-0.0843 1.37759,-0.82603 2.73793,-1.64839 z M 56.284955,194.30511 c 1.849859,-0.21272 4.315153,-1.05197 4.315153,-1.469 0,-0.0682 -0.927543,-0.59032 -2.061206,-1.16031 -6.842186,-3.44019 -20.784047,-5.55975 -29.207008,-4.44032 -1.69955,0.22588 -3.470029,0.60716 -3.934397,0.8473 l -0.844306,0.4366 0.759397,0.45899 c 1.735936,1.04921 8.239673,3.11543 8.949234,2.84314 0.187566,-0.072 0.425157,-0.4679 0.52798,-0.87983 0.352645,-1.41278 0.827663,-1.67512 3.031002,-1.67395 3.048112,0.002 9.927034,1.23321 10.826614,1.93839 0.225577,0.17683 0.319847,0.70512 0.264584,1.48273 l -0.08585,1.20802 2.513541,0.29652 c 1.382448,0.16309 2.573073,0.31101 2.645833,0.32872 0.07276,0.0177 1.107504,-0.0799 2.29943,-0.217 z m 81.191855,-22.87124 c 2.86034,-6.01752 4.12011,-10.31546 6.1732,-21.06096 0.65602,-3.4335 2.57167,-15.00284 2.78191,-16.80104 0.15319,-1.31027 0.14695,-1.30272 -0.65278,0.78881 -1.82909,4.78359 -2.93017,9.16456 -4.75586,18.92265 -1.7961,9.59993 -2.71818,13.657 -3.92303,17.26102 -0.54786,1.63878 -1.09038,3.18796 -1.2056,3.44263 -0.11522,0.25466 -0.12895,0.46302 -0.0305,0.46302 0.0984,0 0.82414,-1.35726 1.61266,-3.01613 z M 99.545969,156.11981 c -2.03742,-4.17345 -4.119623,-7.47395 -10.385765,-16.46252 -3.058448,-4.38724 -5.537691,-8.48672 -7.005158,-11.58317 -0.635934,-1.34186 -1.161817,-2.32068 -1.16863,-2.17516 -0.03516,0.75093 2.787916,8.38954 3.977383,10.76192 2.191723,4.37136 3.912882,6.91191 13.29157,19.6193 1.69982,2.30311 3.099971,4.32717 3.111461,4.49792 0.0148,0.21972 0.0595,0.21484 0.15314,-0.0167 0.0727,-0.17993 -0.81556,-2.26864 -1.974001,-4.64159 z m -74.664609,-3.3099 c 0,-0.31801 -0.151603,-0.27015 -0.661458,0.20884 -0.363802,0.34177 -0.661458,0.72246 -0.661458,0.84597 0,0.12351 0.297656,0.0295 0.661458,-0.20884 0.363802,-0.23838 0.661458,-0.61906 0.661458,-0.84597 z m 180.08211,-21.94376 c 1.76448,-1.30928 3.93737,-2.8306 4.82864,-3.38073 0.89127,-0.55012 1.62049,-1.04109 1.62049,-1.09104 0,-0.24704 -2.95451,1.10498 -4.23333,1.93721 -2.14741,1.3975 -4.96138,3.74155 -5.62011,4.68157 -0.31731,0.45282 -0.40298,0.69059 -0.19039,0.52839 0.2126,-0.16219 1.83021,-1.36613 3.5947,-2.6754 z m -31.29139,-2.23123 1.28551,-0.28899 -0.75635,-0.63186 c -2.17613,-1.81796 -8.34062,-4.58466 -15.7053,-7.04874 -11.72525,-3.92304 -30.40582,-6.34571 -37.30251,-4.83775 -1.08935,0.23818 -2.08315,0.53558 -2.20846,0.66089 -0.30315,0.30315 2.58666,2.2453 4.95059,3.32713 3.43728,1.57304 12.28498,4.32488 12.82742,3.98963 0.1277,-0.0789 0.31327,-0.96647 0.41239,-1.97234 0.2525,-2.56254 0.52768,-2.76804 3.22093,-2.40533 4.9103,0.6613 13.15449,2.41856 13.77925,2.93706 0.45981,0.38161 0.44166,1.85264 -0.0452,3.66663 -0.21482,0.80036 -0.392,1.46839 -0.39373,1.4845 -0.002,0.0161 0.5624,0.10017 1.25363,0.18679 0.69122,0.0866 2.50693,0.35073 4.03489,0.58691 5.74334,0.88774 11.61838,1.02631 14.64698,0.34547 z M 68.661266,118.4748 c -0.534484,-4.29582 -1.152364,-12.13589 -1.19774,-15.19772 -0.02049,-1.38244 0.05144,-6.741901 0.159836,-11.909891 0.108397,-5.16799 0.101159,-10.109087 -0.01608,-10.980207 l -0.213171,-1.583857 -0.35696,1.984375 c -0.663822,3.690239 -1.374275,8.842859 -1.824064,13.229169 -0.70696,6.894221 -0.230326,14.084481 1.364221,20.579971 0.688343,2.804 2.195401,7.31896 2.381047,7.13331 0.05279,-0.0528 -0.0809,-1.51761 -0.297084,-3.25515 z m 96.494564,-2.14185 c 0.67918,-0.61465 0.64799,-2.4571 -0.0568,-3.35306 -0.57954,-0.73676 -1.95769,-1.13801 -2.89111,-0.84176 -1.19248,0.37848 -1.26277,2.73491 -0.1184,3.96969 0.73272,0.79062 2.3132,0.90666 3.06628,0.22513 z m 12.11207,-2.38323 c 0.78808,-1.00188 0.9182,-1.784 0.53388,-3.2089 -0.50917,-1.88779 -1.05638,-2.65732 -2.32702,-3.27242 -1.09829,-0.53168 -1.20241,-0.53815 -2.06231,-0.12809 -1.5205,0.72508 -1.95224,3.12209 -0.925,5.13563 0.73957,1.44968 1.76059,2.15953 3.12105,2.16984 0.88741,0.007 1.21451,-0.13047 1.6594,-0.69606 z m -53.10165,-5.65917 c 0.77045,-0.83491 0.96032,-2.02908 0.41011,-2.5793 -0.60292,-0.60292 -2.04796,-0.374 -2.87786,0.4559 -0.91917,0.91917 -0.97155,1.54916 -0.20935,2.51814 0.7027,0.89333 1.61224,0.75922 2.6771,-0.39474 z m 25.18476,-0.01 c 2.94985,-0.74278 4.69828,-3.92508 3.46589,-6.30826 -0.93143,-1.80117 -3.60537,-2.930251 -5.74818,-2.427171 -4.9389,1.159531 -5.88038,7.028531 -1.38446,8.630421 1.27323,0.45364 2.17915,0.47959 3.66675,0.10501 z m -16.34174,-7.25145 c 0.79543,-0.23621 1.84295,-0.84515 2.59953,-1.511111 2.77832,-2.44558 3.00909,-5.76257 0.48427,-6.96067 -0.85476,-0.40561 -1.15998,-0.42798 -2.16656,-0.15876 -4.56261,1.22031 -7.06078,7.4582 -3.4764,8.680531 1.1884,0.40526 1.01474,0.40866 2.55916,-0.05 z m 34.31311,0.0313 c 1.56066,-0.65209 2.2411,-3.256301 1.38572,-5.303501 -0.91668,-2.19394 -3.59339,-4.11975 -5.7873,-4.16379 -4.87265,-0.0978 -3.84709,7.59943 1.25384,9.410571 1.38332,0.49116 2.07801,0.50368 3.14774,0.0567 z M 149.78434,88.723649 c 1.38797,-0.38557 2.21728,-1.38769 2.21728,-2.67933 0,-1.36791 -0.82541,-2.06782 -2.44851,-2.07622 -2.01541,-0.0104 -3.49259,1.1656 -3.49259,2.78055 0,1.3433 0.55509,1.80739 2.64583,2.2121 0.0728,0.0141 0.55786,-0.0926 1.07799,-0.2371 z M 85.338649,82.101833 c 11.67941,-1.036182 23.735701,-4.401985 25.873141,-7.223106 1.64417,-2.170075 1.55138,-2.759242 -0.6404,-4.066312 -5.02729,-2.998025 -15.528182,-4.590997 -30.259221,-4.590286 -12.200491,5.89e-4 -23.648802,0.854052 -32.111134,2.393862 -13.380489,2.43472 -18.702164,4.263792 -19.216312,6.60469 -0.242143,1.102468 0.481475,2.212388 1.963376,3.011522 1.321265,0.712508 6.098753,2.117067 8.617635,2.533544 4.150495,0.68625 14.869236,1.607464 18.71927,1.608813 l 1.256771,4.4e-4 v -2.513541 -2.513542 l -1.521354,-0.0028 c -1.880306,-0.0035 -7.7989,-0.624835 -11.219271,-1.177799 -2.990858,-0.483526 -8.26615,-2.1352 -7.566145,-2.368932 0.254662,-0.08503 0.66312,-0.21865 0.907686,-0.29693 1.20688,-0.386293 12.559147,-0.03785 18.102924,0.555653 l 1.481964,0.158654 0.164558,-1.410469 c 0.304162,-2.607057 0.857293,-2.728537 12.43668,-2.731382 9.355255,-0.0023 8.90879,-0.124226 8.90879,2.432942 v 1.407765 l 0.992188,-0.125513 c 0.545703,-0.06903 1.944687,-0.193721 3.108854,-0.277088 1.164166,-0.08337 4.438385,-0.613209 7.276041,-1.177428 6.731249,-1.338393 7.48627,-1.442448 7.349809,-1.012938 -0.14968,0.471113 -3.67974,2.451577 -5.84612,3.279834 -3.5203,1.345893 -10.718996,3.011046 -13.017182,3.011046 h -0.837613 l -0.244947,2.529871 -0.244947,2.529868 1.194979,-0.14436 c 0.657239,-0.0794 2.62373,-0.271121 4.36998,-0.426046 z M 49.418144,62.804446 c 1.404553,-0.637576 2.715298,-2.565333 2.715298,-3.99348 0,-2.905482 -3.958533,-3.821052 -6.078971,-1.406007 -1.438389,1.638234 -1.705271,3.095548 -0.814392,4.446994 0.997731,1.513537 2.292067,1.808613 4.178065,0.952493 z m 45.03322,-3.179192 c 0.498927,-0.14309 1.301813,-0.642696 1.784195,-1.110236 0.78634,-0.762154 0.87687,-1.002047 0.8753,-2.319523 -0.003,-2.717078 -2.01605,-4.529397 -5.056673,-4.55295 -5.270985,-0.04083 -5.678547,6.03733 -0.528238,7.877849 1.173787,0.419465 1.755721,0.440324 2.925416,0.10486 z m 19.762046,-0.20874 c 1.33975,-1.085241 1.4807,-2.478673 0.45825,-4.530461 -1.18043,-2.368807 -3.77901,-3.815123 -5.53578,-3.081097 -1.9132,0.799383 -2.21269,2.96984 -0.74231,5.379517 1.29562,2.123268 4.45721,3.335811 5.81984,2.232041 z M 35.389581,55.500225 c 3.522536,-2.064198 4.564145,-7.50213 1.692621,-8.836675 -1.781903,-0.828141 -4.977607,0.925843 -6.245483,3.427876 -0.708003,1.397178 -0.893955,3.597656 -0.411299,4.86714 0.596903,1.569972 2.79927,1.810281 4.964161,0.541659 z m 37.138667,-0.547049 c 1.578008,-0.85886 2.751494,-2.246237 3.446051,-4.074163 0.619322,-1.629922 0.627602,-2.44576 0.04322,-4.258523 -0.886799,-2.750876 -3.082533,-4.197571 -6.370902,-4.197571 -1.683485,0 -4.733403,1.481056 -5.857021,2.844199 -3.831095,4.647782 -0.472943,10.955502 5.610336,10.538066 1.28291,-0.08803 2.167086,-0.328843 3.128314,-0.852008 z M 97.460849,42.039588 c 1.99581,-0.711794 2.917261,-2.11942 2.896261,-4.424365 -0.026,-2.859035 -2.232091,-5.591011 -5.502835,-6.814754 -1.67434,-0.62645 -2.323127,-0.671146 -3.589166,-0.24726 -2.325844,0.778723 -3.641464,2.80883 -3.299234,5.090983 0.232137,1.548 1.871176,4.056199 3.292137,5.037911 1.247601,0.861942 3.521045,1.725112 4.531678,1.720565 0.363799,-0.0016 1.115819,-0.165023 1.671159,-0.36308 z m -45.183,-1.373668 c 3.033343,-1.478439 4.475327,-3.667793 4.46311,-6.776309 -0.0076,-1.924702 -0.371876,-2.687969 -1.787436,-3.744837 -1.138858,-0.85028 -3.216227,-0.702838 -5.34888,0.37964 -3.019415,1.532574 -4.679095,4.009592 -4.723424,7.049553 -0.02745,1.882611 0.486457,2.819563 1.979364,3.60874 1.259949,0.666031 3.411587,0.460773 5.417266,-0.516787 z m 23.505679,-8.407155 c 2.482297,-0.747061 4.112201,-2.721104 4.125352,-4.99638 0.0073,-1.260799 -0.502259,-2.2609 -1.677772,-3.293014 -1.204707,-1.057747 -2.577474,-1.501423 -4.585857,-1.482141 -4.562471,0.0438 -7.547786,3.929581 -5.688298,7.404066 0.455034,0.850238 2.094803,2.186926 2.900611,2.364486 0.397514,0.08759 0.841814,0.198975 0.987335,0.247518 0.678256,0.226253 2.815155,0.09358 3.938629,-0.244535 z"
       id="path1" /></g></svg>
