<?xml version="1.0" encoding="UTF-8" standalone="no"?>
<!-- Created with Inkscape (http://www.inkscape.org/) -->

<svg
   width="228.34317mm"
   height="235.6078mm"
   viewBox="0 0 228.34317 235.6078"
   version="1.1"
   id="svg1"
   xml:space="preserve"
   inkscape:version="1.4 (86a8ad7, 2024-10-11)"
   sodipodi:docname="Deco4.svg"
   xmlns:inkscape="http://www.inkscape.org/namespaces/inkscape"
   xmlns:sodipodi="http://sodipodi.sourceforge.net/DTD/sodipodi-0.dtd"
   xmlns="http://www.w3.org/2000/svg"
   xmlns:svg="http://www.w3.org/2000/svg"><sodipodi:namedview
     id="namedview1"
     pagecolor="#ffffff"
     bordercolor="#000000"
     borderopacity="0.25"
     inkscape:showpageshadow="2"
     inkscape:pageopacity="0.0"
     inkscape:pagecheckerboard="0"
     inkscape:deskcolor="#d1d1d1"
     inkscape:document-units="mm"
     inkscape:zoom="0.53858859"
     inkscape:cx="218.16281"
     inkscape:cy="401.97658"
     inkscape:window-width="1828"
     inkscape:window-height="1057"
     inkscape:window-x="84"
     inkscape:window-y="527"
     inkscape:window-maximized="1"
     inkscape:current-layer="layer1" /><defs
     id="defs1" /><g
     inkscape:label="Warstwa 1"
     inkscape:groupmode="layer"
     id="layer1"
     transform="translate(6.9716475,-32.010696)"><path
       style="fill:#000000"
       d="m 142.51536,267.47703 c -5.21842,-0.35164 -9.98874,-0.93234 -14.03135,-1.70806 -9.28903,-1.78245 -24.11743,-6.78757 -34.519694,-11.65166 -3.696016,-1.72826 -8.063258,-3.41146 -10.715624,-4.12997 -1.935517,-0.52432 -2.857405,-0.60732 -6.614583,-0.59555 -4.922971,0.0154 -6.987717,0.3812 -9.749156,1.72705 -1.969604,0.95993 -2.579139,1.96271 -2.304846,3.79183 0.387002,2.58071 1.913485,3.75755 4.496513,3.46657 2.837301,-0.31962 2.95286,-0.28427 2.676077,0.81852 -0.285235,1.13647 -2.220644,2.89878 -3.589802,3.26874 -1.651685,0.44631 -4.869147,0.21453 -6.384919,-0.45995 -2.544912,-1.13242 -4.549852,-4.01527 -4.97588,-7.15469 -0.525184,-3.8701 1.747251,-8.29881 5.231213,-10.19502 1.536731,-0.83639 4.709458,-1.55755 5.928444,-1.34753 0.659613,0.11365 0.772164,0.0817 0.470273,-0.1334 -0.218281,-0.15554 -0.281279,-0.28463 -0.139995,-0.28686 0.141284,-0.002 -0.989809,-0.63541 -2.513541,-1.40706 -1.523732,-0.77166 -4.13005,-2.15145 -5.791817,-3.0662 -6.681701,-3.67807 -11.973843,-5.27777 -18.939021,-5.72484 -8.756234,-0.56203 -16.722587,2.94721 -19.523798,8.60038 -0.766426,1.54673 -0.849117,1.94611 -0.849117,4.10104 0,1.84186 0.118916,2.62726 0.520392,3.43698 1.162995,2.3456 4.14525,4.36663 6.451079,4.37181 2.391537,0.005 4.360043,-1.64065 4.220614,-3.5292 -0.07606,-1.03026 -0.132306,-1.09311 -1.270211,-1.41931 -0.654844,-0.18773 -1.339453,-0.5425 -1.521354,-0.78839 -0.855765,-1.15679 0.143276,-3.74598 1.781809,-4.61786 1.156879,-0.6156 3.674614,-0.65023 5.366277,-0.0738 3.47637,1.18452 5.884929,5.51606 5.238829,9.4215 -0.915771,5.53549 -6.653415,9.75143 -13.379102,9.83078 -2.983367,0.0352 -4.730553,-0.38529 -7.369481,-1.77359 -9.306499,-4.89601 -11.6326401,-16.3889 -5.020507,-24.80509 3.41181,-4.34269 9.279464,-7.61404 16.623321,-9.26787 1.051815,-0.23687 3.417756,-0.35775 7.011458,-0.35822 6.224454,-8.2e-4 8.794249,0.41212 14.247268,2.28942 3.820719,1.31534 6.676666,2.74481 11.94648,5.97949 2.255573,1.3845 4.204696,2.57667 4.331385,2.64926 0.126689,0.0726 -0.396358,-0.79674 -1.162326,-1.93186 -1.766147,-2.61731 -3.307988,-5.89884 -3.830796,-8.15314 -0.531548,-2.29199 -0.54193,-6.73934 -0.02098,-8.98565 1.318308,-5.68443 5.965305,-10.63944 11.344129,-12.09604 6.890779,-1.86605 15.342796,1.75271 18.359373,7.86062 0.978045,1.98033 1.009274,2.13059 1.004737,4.83427 -0.0041,2.41933 -0.0909,2.96635 -0.653009,4.11333 -1.378587,2.81303 -4.331234,4.90444 -7.21896,5.11332 -3.433503,0.24835 -6.278556,-2.07213 -6.278556,-5.12093 0,-0.96756 0.151642,-1.57624 0.499816,-2.00622 0.484852,-0.59877 0.553858,-0.60799 2.304932,-0.30804 1.52096,0.26053 1.938238,0.24603 2.650774,-0.0921 2.501757,-1.18716 1.327227,-5.07005 -2.057199,-6.80091 -2.039015,-1.04279 -4.640576,-1.06746 -6.692654,-0.0635 -3.518577,1.72147 -5.695275,5.98066 -5.351091,10.47058 0.475673,6.20522 4.605252,11.57422 10.529033,13.68912 2.595547,0.92666 6.975185,1.13607 9.824004,0.46972 5.792156,-1.3548 17.400779,-9.30228 19.531849,-13.37186 0.77996,-1.48945 0.83487,-3.90746 0.12005,-5.28651 -0.26401,-0.50932 -1.42879,-1.98491 -2.58841,-3.27909 -4.48188,-5.00191 -5.88464,-8.07477 -5.88464,-12.89071 v -2.80835 l -0.64088,0.94313 c -0.94372,1.3888 -1.56553,3.21147 -1.76722,5.18006 -0.11863,1.15794 -0.29346,1.74246 -0.52114,1.74246 -0.55129,0 -2.22338,-2.23198 -2.81354,-3.75563 -0.353097,-0.91161 -0.589328,-2.28502 -0.673815,-3.91747 -0.241572,-4.6676 0.927602,-7.40303 4.806165,-11.24461 3.74243,-3.70674 7.68407,-5.66188 12.5187,-6.20956 2.88581,-0.32691 3.31479,-0.22207 3.05685,0.74704 -0.3166,1.18948 -0.20715,7.22772 0.16136,8.90211 1.52621,6.93471 5.52392,12.91361 10.93232,16.3502 l 1.51089,0.96004 -0.54912,1.24138 c -0.45734,1.03391 -0.52984,1.62147 -0.4338,3.51571 0.17684,3.48785 1.31869,5.35167 5.12802,8.37042 3.63883,2.88365 4.60708,4.18224 4.60708,6.1789 0,1.15861 -1.11601,3.01962 -2.36422,3.94246 -0.76041,0.56219 -0.84658,0.57233 -1.45814,0.17162 -1.58946,-1.04145 -4.36619,-0.24823 -7.79713,2.22739 -2.71305,1.95761 -5.6284,3.48024 -9.33344,4.87467 -3.77351,1.42018 -5.73008,2.56598 -7.24588,4.24328 -1.22327,1.35361 -1.60576,2.49072 -1.3308,3.95637 0.20947,1.11653 1.47608,2.64784 2.65151,3.20562 5.11932,2.42928 18.23584,5.60795 28.05834,6.79968 l 2.63544,0.31975 1.24352,1.36061 c 1.1795,1.29055 3.0113,2.49378 4.4658,2.93338 0.62112,0.18772 0.60704,0.14517 -0.23082,-0.69766 -1.96724,-1.97894 -2.76921,-5.05841 -2.04922,-7.8688 1.11909,-4.36824 3.64387,-6.77676 7.78521,-7.42671 1.09695,-0.17216 1.90368,-0.17255 2.35449,-0.001 0.58132,0.22101 0.63791,0.20304 0.37148,-0.11799 -0.17287,-0.20829 -1.08027,-0.58605 -2.01645,-0.83946 -2.00162,-0.54182 -4.1187,-0.39176 -5.67509,0.40225 -1.45324,0.74139 -3.57069,3.24639 -4.40653,5.21305 -0.54794,1.28925 -0.81978,1.65561 -1.13789,1.53354 -1.22615,-0.47052 -2.88414,-0.66121 -3.54951,-0.40823 -0.75592,0.2874 -1.04389,0.78557 -1.501,2.59665 -0.35964,1.4249 -0.8834,1.44402 -1.59046,0.0581 -0.79304,-1.55448 -1.04715,-3.28914 -0.75312,-5.14107 0.33775,-2.12732 1.12168,-3.69279 2.67453,-5.34093 1.49142,-1.58295 3.11481,-2.36663 5.51598,-2.6628 l 1.69486,-0.20905 0.15079,-1.12962 c 0.18311,-1.3717 0.90519,-2.41317 2.11697,-3.05336 0.70793,-0.374 1.34318,-0.45707 2.89161,-0.37812 2.41175,0.12297 3.9703,0.83331 6.45716,2.94298 3.52121,2.98714 6.91344,3.02067 9.59973,0.0949 2.31906,-2.5258 3.43464,-6.2293 3.18939,-10.58813 -0.10873,-1.93246 -0.27733,-2.62079 -1.00452,-4.10104 -1.98242,-4.03533 -5.23732,-6.00945 -13.03207,-7.90407 -5.77321,-1.40325 -8.85995,-2.39109 -12.77365,-4.0879 -6.55679,-2.84273 -10.56213,-5.42921 -14.14517,-9.13432 -3.87004,-4.0019 -5.90205,-7.31471 -7.29566,-11.89423 -0.64764,-2.1282 -0.71873,-2.76374 -0.72268,-6.46141 -0.004,-3.41858 0.0926,-4.45328 0.57825,-6.21771 1.15017,-4.17848 3.24215,-7.77472 6.23341,-10.71562 4.7136,-4.63424 11.27017,-6.6292 17.89977,-5.44635 4.31362,0.76963 8.6457,3.88195 10.93433,7.85561 2.67089,4.63734 2.99133,10.84403 0.79982,15.49175 -1.35195,2.86722 -4.57316,5.63844 -7.51186,6.46248 -1.57136,0.44063 -0.83713,0.60003 2.10445,0.45686 3.85604,-0.18768 6.64818,-1.93998 8.74789,-5.49004 1.54883,-2.61865 2.23352,-5.35374 2.22282,-8.87927 -0.0104,-3.42246 -0.46673,-5.40327 -1.95056,-8.46667 -3.4014,-7.02226 -9.48045,-10.99746 -17.4746,-11.42696 -4.49206,-0.24134 -8.77085,0.60071 -12.59671,2.47899 -5.93063,2.91161 -9.85783,7.40763 -12.1492,13.90891 l -0.7227,2.05052 h -2.18553 c -3.52696,0 -7.19763,0.8672 -13.05095,3.08329 -3.974834,1.50488 -7.558387,2.37933 -10.726964,2.61755 -1.034817,0.0778 -2.316584,0.19575 -2.848372,0.2621 l -0.966888,0.12064 0.135125,-1.00743 c 0.219268,-1.63476 -0.385171,-4.6487 -1.538822,-7.6731 -2.680808,-7.02796 -3.141476,-8.56963 -3.143182,-10.51894 -0.002,-2.30961 0.534836,-3.95079 1.760943,-5.38322 1.39444,-1.62909 2.751485,-2.23857 4.984294,-2.23857 1.379027,0 2.131066,0.14513 2.94434,0.5682 1.173571,0.61049 3.273368,2.80519 3.273368,3.42131 0,0.20638 0.119063,0.30165 0.264584,0.21171 0.342822,-0.21187 0.336684,-1.84642 -0.01164,-3.10063 -0.783377,-2.82067 -4.480529,-4.89339 -8.292129,-4.64878 -5.422724,0.34801 -9.135122,4.46371 -9.188705,10.18694 -0.022,2.34954 0.519149,4.36195 2.164273,8.04847 2.08375,4.66942 2.701945,6.995 2.733685,10.2838 0.02521,2.612 -0.0245,2.88645 -0.831214,4.58977 -1.525283,3.2205 -3.218806,4.81516 -6.390159,6.01711 -1.305601,0.49482 -1.999415,0.55882 -5.798201,0.53478 -4.488997,-0.0284 -6.514349,0.24194 -10.059002,1.3427 l -1.765444,0.54824 1.058333,0.33075 c 0.582083,0.18191 1.967039,0.75252 3.077679,1.26802 1.110641,0.5155 2.561145,1.01852 3.223342,1.11782 0.6897,0.10343 1.268681,0.34912 1.355428,0.57517 0.223363,0.58208 -1.416842,2.09222 -2.641781,2.4323 -1.629653,0.45245 -4.582945,0.3482 -6.752353,-0.23834 -5.020732,-1.35746 -7.396198,-1.60031 -10.330889,-1.05615 -1.765331,0.32734 -4.792762,1.7879 -6.165385,2.97444 -0.880265,0.76092 -1.004994,0.99744 -0.850541,1.61283 0.216675,0.8633 1.351403,1.60547 3.341793,2.18572 1.777848,0.51828 3.185666,1.88853 3.803621,3.70213 1.777985,5.2181 -2.234437,10.1627 -8.24678,10.1627 -1.934822,0 -3.494341,-0.59424 -3.494341,-1.33148 0,-0.26259 0.414767,-0.73378 0.921703,-1.04709 1.979786,-1.22357 2.422155,-2.59486 1.49527,-4.63515 -0.608506,-1.33947 -2.106202,-2.66264 -3.9924,-3.52717 -1.211161,-0.55512 -1.836755,-0.66725 -3.583948,-0.64233 -3.704258,0.0528 -8.915175,2.08139 -10.50613,4.08996 -2.571963,3.2471 -3.179981,3.5466 -5.522262,2.72019 -1.382226,-0.48767 -1.671984,-0.39843 -2.357645,0.72617 -0.688987,1.13005 -0.659327,1.89855 0.135643,3.51461 0.792928,1.61192 0.820395,2.161 0.119234,2.38354 -1.335086,0.42374 -4.7405447,-2.2538 -5.9817031,-4.70311 -1.055026,-2.08199 -1.1428399,-4.19075 -0.2528546,-6.07202 0.8400368,-1.77569 2.3632737,-3.41175 3.9157387,-4.20575 0.624468,-0.31939 2.418741,-0.85881 3.987272,-1.19871 4.160068,-0.9015 5.500757,-1.69631 3.703335,-2.19546 -1.537035,-0.42684 -4.183143,-0.3265 -6.952085,0.26361 -3.5484358,0.75624 -4.8110983,0.72761 -6.1202522,-0.13875 -1.035299,-0.68512 -1.082956,-0.69171 -1.7662934,-0.24397 -1.0444076,0.68433 -1.5821161,1.41333 -2.0995179,2.84646 -0.2557377,0.70835 -0.6107834,1.34501 -0.7889905,1.41479 -0.1782071,0.0698 -0.7357184,-0.12757 -1.2389142,-0.43857 -1.32282226,-0.81754 -1.84547611,-2.35345 -1.69360541,-4.97692 0.27634107,-4.77363 3.50802981,-8.32412 7.62520301,-8.37742 1.5600691,-0.0202 1.8975284,0.0802 3.5718746,1.06296 2.225348,1.30614 3.232019,1.68075 5.179665,1.9275 l 1.478545,0.18732 -1.681536,-2.29966 c -2.027018,-2.77214 -2.872094,-3.28167 -5.44274,-3.28167 -1.6099932,0 -1.7858064,-0.0521 -1.7846049,-0.52917 0.00255,-1.013 1.8886669,-3.12782 3.5142629,-3.9404 4.22371,-2.11128 8.246112,0.19071 9.866278,5.6464 0.768079,2.58641 2.974212,3.52747 7.077629,3.01908 2.457383,-0.30445 4.681047,-1.21074 7.236454,-2.94931 4.685779,-3.18798 11.091421,-10.08592 16.051794,-17.28542 l 1.753523,-2.54507 -3.106473,-3.14347 c -6.013528,-6.08515 -9.001742,-12.01584 -10.027613,-19.90174 -0.391584,-3.01011 -0.4125,-3.96488 -0.147569,-6.73594 0.548556,-5.73764 1.831881,-9.47402 4.834862,-14.07662 1.632442,-2.50201 4.988415,-5.92895 7.390498,-7.54678 6.688814,-4.50499 15.807602,-5.16403 22.594949,-1.63301 5.9153,3.07736 8.911871,9.42408 7.544765,15.97978 -0.978805,4.69368 -4.728616,8.53035 -8.320128,8.51286 -3.805499,-0.0185 -6.069557,-3.40117 -4.114323,-6.14704 0.305803,-0.42946 0.556005,-0.85175 0.556005,-0.93843 0,-0.34817 -1.668646,-0.12694 -2.590228,0.34342 -1.212516,0.61884 -1.769327,1.21989 -2.294473,2.47674 -1.2228,2.92657 0.49437,6.35644 3.958659,7.907 1.990479,0.89091 5.533164,0.99751 7.79093,0.23444 5.462772,-1.8463 9.072196,-7.20048 9.457798,-14.02961 0.270222,-4.78569 -0.820469,-8.7269 -3.364696,-12.15829 -3.501392,-4.72233 -8.547782,-7.37082 -15.701558,-8.24064 -6.475427,-0.78733 -14.379611,1.27493 -19.890822,5.18968 -4.037689,2.86807 -8.202626,8.77979 -10.038433,14.24856 -1.311761,3.90767 -1.541039,5.52717 -1.559412,11.01486 -0.01597,4.76955 0.03912,5.39847 0.729062,8.32384 0.886857,3.76027 1.676396,6.07494 3.139826,9.20495 0.595371,1.27339 1.006087,2.39166 0.912702,2.48505 -0.253899,0.2539 -2.921691,-2.11638 -4.675469,-4.15406 -3.337686,-3.878 -5.017898,-6.97468 -6.929467,-12.77124 -3.840923,-11.64706 -3.158979,-22.28587 2.139861,-33.38333 3.206518,-6.71548 7.033534,-11.97676 14.114366,-19.404049 3.583047,-3.758363 4.472847,-4.958794 5.10247,-6.883756 1.018134,-3.112766 -0.516187,-5.987195 -3.494062,-6.545847 -1.096389,-0.205684 -1.130396,-0.177065 -1.327327,1.117014 -0.227695,1.496234 -1.192547,2.60558 -3.06385,3.522686 -3.158588,1.547991 -7.77709,1.678025 -10.486379,0.295243 -0.948,-0.483845 -2.066449,-1.511777 -1.857909,-1.707548 0.05974,-0.05608 0.882528,-0.298003 1.828413,-0.537601 2.379858,-0.602829 3.765119,-1.323144 5.169536,-2.688082 0.660426,-0.64186 1.452783,-1.167019 1.760793,-1.167019 0.552843,0 0.553561,-0.0072 0.05599,-0.565684 -1.347086,-1.511868 -3.693153,-1.495091 -8.292869,0.05931 -1.851213,0.625586 -2.758352,0.79912 -3.651249,0.698478 -1.118692,-0.126093 -2.444138,-0.83437 -2.635449,-1.408303 -0.04729,-0.14188 0.600044,-0.59035 1.438526,-0.996601 0.838483,-0.406251 2.417483,-1.31643 3.508889,-2.022621 2.961123,-1.915986 5.011583,-2.500508 8.731249,-2.489006 2.224185,0.0069 3.676163,0.166468 5.397456,0.593249 1.295111,0.321112 2.415029,0.523558 2.488706,0.449881 0.279179,-0.279179 -4.944603,-2.496522 -7.224703,-3.066676 -4.408443,-1.10236 -11.877579,-0.663025 -15.56567,0.915573 -1.966769,0.841828 -3.450676,3.492453 -3.431181,6.128936 0.0065,0.882104 0.09455,1.864369 0.195622,2.182813 0.475588,1.498444 -2.336859,-0.09796 -3.989238,-2.26437 -1.506491,-1.975142 -2.05046,-3.803759 -2.066333,-6.946225 -0.01382,-2.736363 0.0026,-2.811932 1.089375,-5.027083 1.213024,-2.472379 1.888673,-3.308083 4.040306,-4.997419 2.210506,-1.73556 6.007309,-3.469247 7.597707,-3.469247 0.514001,0 0.620037,-0.137197 0.620037,-0.802248 0,-3.483467 4.570127,-6.636821 9.137384,-6.304728 l 1.313657,0.09552 v -1.342303 c 0,-0.993428 0.171918,-1.597634 0.661459,-2.324698 1.150372,-1.70853 4.778777,-4.127803 8.191343,-5.461655 2.204114,-0.861511 8.731493,-2.476514 15.488864,-3.832252 8.727938,-1.751095 13.519347,-3.151346 18.479699,-5.400546 0.996022,-0.451633 1.918756,-0.754521 2.05052,-0.673087 0.131764,0.08143 0.238408,0.766115 0.236987,1.521511 -0.0058,3.074673 -2.518475,6.17503 -6.701786,8.269202 -3.478977,1.741581 -3.530376,1.722423 1.412704,0.526561 4.967813,-1.201845 10.49572,-3.6889 13.947784,-6.275234 1.132729,-0.848655 2.263677,-1.543223 2.513218,-1.543483 0.739668,-7.72e-4 1.059717,0.998206 1.027449,3.207005 -0.09943,6.805946 -4.655724,10.363722 -15.012706,11.722646 -1.725462,0.226396 -3.642261,0.442312 -4.259554,0.479814 l -1.12235,0.06819 2.066013,1.523394 c 6.292139,4.639566 10.392665,10.176288 13.936304,18.817449 0.940036,2.292277 1.949577,4.505416 2.243424,4.918086 0.293848,0.412671 1.18937,1.185142 1.990051,1.716604 0.80068,0.531461 1.455783,1.064413 1.455783,1.184336 0,0.647904 -0.887862,0.873423 -3.00182,0.762468 -1.782263,-0.09355 -2.438594,-0.251937 -3.414976,-0.824134 C 89.803408,78.40984 89.621775,78.170993 89.458945,77.190443 88.917396,73.929275 84.76501,67.809307 81.554667,65.540772 l -0.819517,-0.579098 0.470556,0.65598 c 3.923621,5.469728 5.704224,9.422873 7.217018,16.022615 0.66295,2.892197 0.725335,3.637696 0.751049,8.97503 0.01542,3.201458 -0.0785,7.725832 -0.20873,10.054161 -0.284163,5.08064 0.04726,6.79986 1.581832,8.20547 0.497145,0.45537 0.9039,1.03079 0.9039,1.27872 0,0.5141 -0.994679,0.96686 -2.124096,0.96686 -0.986134,0 -3.330234,-0.92197 -4.386492,-1.72527 l -0.822047,-0.62518 -0.173289,2.25443 c -0.214405,2.78934 0.283826,4.18439 1.869088,5.23347 3.263889,2.15994 7.158525,0.81686 12.132275,-4.18385 1.46244,-1.47037 3.287326,-3.6259 4.055316,-4.79006 1.71219,-2.59548 4.03516,-7.331584 4.75335,-9.691206 1.58498,-5.207494 1.41212,-11.682817 -0.50412,-18.883795 -1.07268,-4.031015 -1.33567,-8.355302 -0.66819,-10.987032 0.9769,-3.851732 3.2061,-7.527696 6.43353,-10.608958 4.66301,-4.45182 8.85223,-6.683161 20.84196,-11.101241 8.86314,-3.265965 19.80354,-8.297565 27.51667,-12.655199 1.79987,-1.016857 2.64888,-1.345465 3.47742,-1.345921 1.25882,-6.94e-4 1.41737,0.229143 1.41737,2.054652 0,2.655675 -1.16373,5.855594 -3.19766,8.792659 -2.77379,4.005442 -5.86892,6.289517 -12.03642,8.882375 -3.22166,1.354408 -8.96137,3.023875 -10.39623,3.023875 -0.72685,0 -0.8634,0.07045 -0.61604,0.317817 0.24681,0.246812 1.13054,0.248202 3.95552,0.0062 5.59746,-0.479462 13.83269,-2.81776 18.8579,-5.354482 0.8998,-0.454215 1.80218,-0.762073 2.00529,-0.68413 0.25201,0.0967 0.36849,0.585541 0.36672,1.539082 -0.003,1.87193 -0.91923,3.777461 -2.47246,5.144665 -1.05707,0.930467 -1.66214,1.198062 -4.33763,1.918315 -4.23071,1.138928 -13.28664,3.741729 -18.58732,5.342256 -7.07099,2.135065 -12.1173,4.932082 -16.15969,8.956817 -4.15069,4.132559 -5.76148,7.382947 -7.9206,15.982836 -0.84524,3.366674 -1.95176,7.200146 -2.45893,8.518827 -4.34772,11.304498 -12.55325,21.142058 -21.257456,25.485448 -1.162429,0.58005 -2.432778,1.13476 -2.822998,1.2327 -1.132399,0.28422 -0.82758,0.59704 0.777118,0.79754 4.475243,0.55914 8.893808,-1.12444 13.810686,-5.26222 5.48476,-4.61569 10.78287,-12.67026 13.93303,-21.18202 0.53257,-1.439002 1.62785,-5.249001 2.43395,-8.466666 1.65181,-6.593365 2.66982,-9.096609 5.04648,-12.409006 3.01123,-4.196797 9.03001,-8.426659 15.08555,-10.601771 1.0573,-0.379774 4.80777,-1.57899 8.33438,-2.664925 13.99193,-4.308479 23.39934,-7.579257 33.49957,-11.647163 13.9196,-5.606175 21.29479,-9.664348 29.30671,-16.125901 1.91268,-1.542561 3.67493,-2.804657 3.91611,-2.804657 1.17404,0 1.59369,4.447094 0.79378,8.411675 -0.53196,2.636513 -2.53816,6.780546 -4.62031,9.543761 -2.78899,3.701273 -7.88899,7.748542 -13.51863,10.728143 -5.35858,2.836141 -14.25988,6.076372 -21.30951,7.75704 -1.65142,0.393706 -3.00258,0.790908 -3.00258,0.882671 0,0.46717 7.06195,-0.256907 11.78668,-1.208514 10.95018,-2.205471 20.90274,-6.586951 29.50569,-12.989479 1.44747,-1.077247 2.80543,-1.958631 3.01768,-1.958631 0.74626,0 1.04944,1.124564 1.03432,3.836458 -0.0126,2.258992 -0.13929,3.013332 -0.86651,5.159375 -2.278,6.722455 -6.00428,11.173043 -12.63259,15.088086 -5.96356,3.522404 -13.17876,5.578173 -23.64318,6.736456 -1.96453,0.21745 -4.26351,0.396509 -5.10885,0.39791 -0.84533,0.0014 -1.47441,0.103771 -1.39794,0.22749 0.61746,0.999073 15.33148,1.323813 21.85262,0.482289 5.09034,-0.656885 7.64838,-1.125378 11.07468,-2.028269 1.65269,-0.435513 3.11121,-0.726137 3.24115,-0.64583 0.40647,0.251217 0.25887,1.889905 -0.29735,3.301039 -1.44105,3.655969 -5.52593,7.744191 -10.02293,10.031117 -4.03652,2.052753 -10.38202,3.789932 -15.58726,4.267242 -3.15675,0.28947 -9.86665,0.18164 -12.67837,-0.20375 -0.6278,-0.0861 -1.12992,-0.0461 -1.12992,0.09 0,0.48246 3.62733,2.17738 6.61458,3.09075 3.65612,1.11788 6.16622,1.65239 9.525,2.02828 2.98948,0.33457 3.34452,0.42865 3.54001,0.9381 0.2695,0.70231 -0.32769,1.68631 -2.0411,3.36313 -2.76032,2.70137 -5.82711,4.27558 -9.94663,5.10572 -3.15268,0.63531 -9.20183,0.41346 -14.04186,-0.51498 -1.96453,-0.37684 -3.68055,-0.6863 -3.81338,-0.68768 -0.74433,-0.008 3.73153,2.77471 8.70817,5.41353 2.92373,1.55028 3.04271,1.64418 3.04271,2.40126 0,1.64805 -3.63777,3.87166 -7.14375,4.36664 -3.89489,0.5499 -9.00857,-0.40325 -14.11145,-2.63025 l -1.27915,-0.55825 0.7873,0.99238 c 1.80053,2.26953 4.80382,4.76253 8.05486,6.68625 1.65521,0.97943 1.84711,1.45605 0.92605,2.29994 -1.67228,1.53215 -4.6173,2.31615 -8.03394,2.13871 -1.89939,-0.0986 -2.69082,-0.27842 -4.12035,-0.93602 -3.03012,-1.39388 -5.64014,-3.42953 -7.6626,-5.97635 l -1.01468,-1.27777 0.15066,1.27777 c 0.19507,1.65434 1.07903,4.69655 1.74258,5.99722 0.81109,1.58986 2.52947,3.28483 4.37857,4.3189 2.01367,1.12611 2.05833,1.5471 0.25879,2.43944 -2.30959,1.14526 -7.75199,0.65442 -9.09267,-0.82004 -0.43072,-0.47371 -0.58149,-1.08752 -0.70066,-2.85255 -0.0835,-1.23692 -0.34642,-2.84705 -0.58424,-3.57806 -0.98226,-3.01931 -4.17953,-6.25232 -7.07425,-7.15333 -1.32689,-0.41301 -7.24198,-0.83689 -6.14878,-0.44063 1.76658,0.64035 4.70072,2.49466 6.02679,3.80878 2.72553,2.701 3.72872,5.79244 3.31919,10.2285 -0.71255,7.71835 -8.94564,12.71541 -15.71059,9.53551 -3.7266,-1.75171 -5.63621,-6.15419 -4.00633,-9.23634 1.5381,-2.90859 6.14681,-3.1541 7.83809,-0.41754 0.68516,1.10861 0.95325,1.19116 1.17547,0.36197 0.63327,-2.36307 -0.23251,-4.39733 -2.41618,-5.67707 -1.08469,-0.63569 -1.52528,-0.73236 -3.27128,-0.71778 -3.42542,0.0286 -6.19031,1.7575 -7.69373,4.81095 -0.81028,1.64567 -0.87184,1.95792 -0.87184,4.42235 0,2.33026 0.0869,2.83708 0.71686,4.18151 0.39427,0.84143 1.15702,2.06702 1.695,2.72355 1.21772,1.48607 0.99392,1.85856 -0.85128,1.41684 -2.07883,-0.49765 -4.945,-1.98139 -6.46534,-3.34693 -0.77461,-0.69574 -2.042458,-2.24725 -2.817435,-3.4478 -0.774977,-1.20054 -1.458705,-2.18281 -1.519395,-2.18281 -0.250633,0 1.01232,3.92984 1.634936,5.0873 1.665134,3.09555 5.457714,5.74772 10.137994,7.08952 2.46744,0.7074 7.06812,0.96465 9.75501,0.54545 6.42957,-1.0031 11.95824,-4.4839 14.62378,-9.20697 l 0.81666,-1.44704 1.21785,0.18116 c 1.9871,0.2956 9.61888,2.68571 13.21794,4.13957 6.78378,2.74035 12.42358,5.9725 16.26063,9.31891 1.56322,1.36334 2.86232,2.15002 6.30112,3.81572 4.98804,2.41611 9.71115,5.19747 12.77855,7.52506 11.63206,8.82657 21.52765,19.51415 27.63953,29.85165 l 1.57866,2.6701 0.20942,-1.27636 c 0.11518,-0.702 0.20331,-2.70511 0.19584,-4.45136 -0.0155,-3.63185 -0.67915,-6.33565 -2.38902,-9.73358 -2.41489,-4.79896 -4.84425,-7.34798 -15.64026,-16.41067 -3.94036,-3.30773 -8.04433,-6.94954 -9.11994,-8.09292 -2.28713,-2.43123 -5.13113,-6.55481 -6.30239,-9.13796 -2.93329,-6.46925 -2.58918,-15.02994 0.82825,-20.60472 2.76294,-4.5071 7.7636,-8.39387 13.73557,-10.67596 6.09881,-2.33057 8.72251,-3.75536 11.0666,-6.00968 1.65533,-1.59194 2.53794,-2.99518 2.96761,-4.71817 0.27842,-1.11647 0.25053,-1.37057 -0.26792,-2.44156 -0.31827,-0.65746 -1.16464,-1.72222 -1.88082,-2.36613 -0.71618,-0.6439 -1.30214,-1.30807 -1.30214,-1.47592 0,-0.16786 0.55631,-0.55128 1.23625,-0.85204 1.7126,-0.75757 4.01655,-0.57076 5.80316,0.47052 6.28163,3.66109 6.4507,10.53513 0.40126,16.31473 -1.26768,1.21113 -2.92484,2.46031 -4.17589,3.14783 l -2.07416,1.13985 1.24412,0.17914 c 3.04268,0.43809 6.11917,2.17787 8.75856,4.95303 2.77344,2.91612 4.06139,7.01992 3.82317,12.18188 -0.2277,4.93413 -1.9333,8.47699 -5.30679,11.02323 -2.55438,1.92799 -4.69607,2.63582 -7.8576,2.59692 -3.5644,-0.0439 -5.15056,-0.68006 -7.4277,-2.97926 -1.91425,-1.93279 -2.62646,-3.44699 -2.62646,-5.58395 0,-3.44261 3.55704,-6.52649 6.43305,-5.57732 0.50121,0.16542 1.12146,0.53298 1.37832,0.81682 0.44874,0.49584 0.43963,0.55561 -0.23259,1.52561 -0.83822,1.20956 -0.86833,1.62629 -0.1715,2.37425 1.24262,1.33378 3.84095,0.98684 5.38171,-0.7186 1.19553,-1.3233 1.59841,-2.80168 1.41954,-5.20902 -0.42238,-5.68451 -5.6123,-9.62073 -12.68497,-9.62073 -3.72918,0 -6.823,1.29219 -9.15743,3.82475 -2.19449,2.38074 -3.08145,5.02257 -3.06857,9.13984 0.0111,3.55888 0.45733,5.48487 1.97693,8.53329 1.97911,3.97022 5.22884,7.38912 12.0328,12.65918 11.90017,9.21737 17.12338,15.4293 19.94025,23.71478 1.75784,5.17051 1.82468,13.05209 0.19018,22.4292 -0.22829,1.30969 -0.54508,2.79797 -0.70398,3.30729 -0.15891,0.50933 -0.39223,3.00964 -0.5185,5.55625 -0.38217,7.70762 -1.6424,13.02888 -4.48027,18.91771 -3.86035,8.01058 -10.05157,14.34751 -18.68842,19.12823 -9.61292,5.32101 -19.6504,8.20601 -31.45801,9.04174 -5.49803,0.38915 -17.74931,0.53537 -21.82812,0.26052 z m -76.922569,-5.18842 c -0.179132,-0.0725 -0.536319,-0.0769 -0.79375,-0.01 -0.257431,0.0671 -0.110869,0.12638 0.325693,0.13177 0.436563,0.005 0.647188,-0.0495 0.468057,-0.12197 z M 166.98931,258.499 c 5.8275,-0.82838 11.4981,-2.21384 13.68452,-3.34345 2.06347,-1.0661 2.45437,-2.73522 1.4186,-6.05731 -0.68055,-2.18274 -1.21249,-2.89373 -1.21249,-1.62058 0,1.07835 -1.76259,4.2416 -2.83783,5.09294 -2.59,2.05069 -5.0787,3.0124 -7.79542,3.0124 -2.15961,0 -3.42658,-0.46885 -4.74903,-1.75741 l -0.96249,-0.93781 -0.80106,1.1643 c -1.9762,2.87231 -4.62186,4.23481 -7.04046,3.6258 -0.67249,-0.16934 -1.28724,-0.4123 -1.36612,-0.53992 -0.27212,-0.4403 -0.90593,-0.23062 -0.90593,0.29971 0,0.59519 0.76733,1.35485 1.65954,1.64294 0.98994,0.31965 6.71553,0.0144 10.90817,-0.58161 z m -65.29144,-1.75294 c -0.0879,-0.0879 -0.31613,-0.0973 -0.50712,-0.0209 -0.21107,0.0845 -0.14837,0.14716 0.15985,0.15986 0.27892,0.0115 0.43518,-0.051 0.34727,-0.13897 z m 88.04561,-5.32391 c 9.24331,-4.62108 16.18223,-12.99935 18.02864,-21.76832 0.65817,-3.12581 0.65693,-10.49589 -0.002,-14.10239 -0.81032,-4.43251 -2.32335,-8.30709 -5.21705,-13.35981 -4.82132,-8.41859 -13.76349,-17.58584 -22.05493,-22.61006 -1.3016,-0.78871 -2.45799,-1.60252 -2.56976,-1.80848 -0.11176,-0.20595 -0.61132,-1.28568 -1.11013,-2.39939 -0.93717,-2.09243 -2.64356,-4.21721 -3.91472,-4.87455 -1.12594,-0.58225 -1.15616,-0.46017 -0.15924,0.6433 1.08046,1.19594 2.5362,4.77401 3.51414,8.63743 1.54001,6.08394 1.19319,13.18997 -0.95067,19.47827 -0.42759,1.2542 -0.77483,2.74248 -0.77163,3.3073 0.0122,2.16414 1.60417,4.35067 4.26889,5.8634 2.45036,1.39103 3.90826,1.6973 8.43132,1.7712 3.56272,0.0582 4.2509,0.14048 5.19224,0.62072 2.30577,1.17631 3.41726,3.41833 3.20319,6.46121 -0.0743,1.05645 -0.26891,2.25667 -0.43241,2.66716 l -0.29729,0.74636 -0.69656,-0.54792 c -0.86999,-0.68433 -1.5773,-0.69136 -2.66771,-0.0265 -1.91857,1.1698 -3.149,3.49858 -5.38619,10.19422 -1.52982,4.57859 -1.68056,5.22877 -1.68955,7.28768 -0.0128,2.92511 0.31667,3.44943 2.9099,4.6312 2.35242,1.07204 2.88818,1.85122 2.71433,3.94761 -0.14463,1.74408 -1.06992,3.64901 -2.53491,5.21876 l -1.15865,1.24149 1.01411,-0.27925 c 0.55775,-0.15359 1.60941,-0.57687 2.33702,-0.94063 z M 23.717445,252.3081 c 0,-0.0549 -0.20836,-0.2633 -0.463021,-0.46302 -0.419644,-0.3291 -0.429002,-0.31975 -0.0999,0.0999 0.345644,0.44073 0.562916,0.58088 0.562916,0.36312 z m 154.647075,-0.42624 c 0.0927,-0.14998 -0.0135,-0.19434 -0.24897,-0.10398 -0.45837,0.17589 -0.54223,0.36554 -0.16164,0.36554 0.13693,0 0.32171,-0.1177 0.41061,-0.26156 z M 97.867909,247.279 c 1.440491,-0.33898 3.838791,-1.6366 3.553011,-1.92239 -0.0729,-0.0729 -1.26854,0.23131 -2.656941,0.67605 -1.388397,0.44474 -3.031973,0.88979 -3.652392,0.989 -0.892687,0.14275 -1.019638,0.22276 -0.608485,0.38351 0.779032,0.30459 1.677422,0.2709 3.364807,-0.12617 z m -46.97004,-13.55169 c -0.08792,-0.0879 -0.316122,-0.0973 -0.507118,-0.0209 -0.211067,0.0845 -0.148372,0.14715 0.159852,0.15985 0.278915,0.0115 0.435185,-0.051 0.347266,-0.13897 z m 68.521871,-0.78835 c 2.97931,-0.82842 6.00785,-3.65685 6.7108,-6.26739 0.50614,-1.87968 -0.33652,-4.8495 -1.69618,-5.97792 -0.33254,-0.27598 -0.33132,-0.16602 0.009,0.81484 0.69569,2.00471 0.0261,4.31493 -1.96077,6.76489 -1.05265,1.298 -3.89691,3.66159 -5.63775,4.68498 l -1.18475,0.69648 1.19062,-0.16631 c 0.65485,-0.0915 1.81088,-0.33878 2.56897,-0.54957 z m -1.11376,-1.43304 c 0.0899,-0.14552 0.0374,-0.26459 -0.11668,-0.26459 -0.1541,0 -0.28019,0.11907 -0.28019,0.26459 0,0.14552 0.0525,0.26458 0.11667,0.26458 0.0642,0 0.19026,-0.11906 0.2802,-0.26458 z m 62.65178,-5.09323 c 0.0806,-0.61847 0.34199,-2.01713 0.58075,-3.10814 0.2493,-1.13918 0.36208,-2.37819 0.26493,-2.91041 -0.39672,-2.17335 -2.15883,-4.09034 -5.10221,-5.5507 -1.81838,-0.9022 -5.69811,-2.02017 -7.72754,-2.22676 l -1.45521,-0.14813 1.71979,0.61173 c 7.17005,2.55036 11.14109,7.03207 11.21977,12.6626 0.0282,2.02069 0.27961,2.35763 0.49972,0.66981 z M 168.97369,212.0899 c 0,-0.0558 -0.23829,-0.16375 -0.52953,-0.23991 -0.29125,-0.0762 -0.46281,-0.0305 -0.38126,0.10144 0.14241,0.23042 0.91079,0.34725 0.91079,0.13847 z m -35.71875,-4.74724 c 0,-0.0474 -0.32742,-0.37481 -0.72761,-0.7276 l -0.7276,-0.64143 0.64143,0.7276 c 0.59952,0.68006 0.81378,0.84894 0.81378,0.64143 z m 10.93021,-3.03148 c -0.31855,-0.24982 -1.07392,-0.81141 -1.67862,-1.24797 -2.05743,-1.48536 -4.95074,-4.77393 -5.95545,-6.76903 -3.72441,-7.39568 -1.0731,-16.16811 4.90594,-16.23235 3.68097,-0.0395 6.09397,3.29768 4.53858,6.27696 l -0.52346,1.00265 0.57213,-0.17052 c 1.16145,-0.34616 2.17243,-1.09507 2.92634,-2.16775 1.61977,-2.30465 0.65815,-6.04126 -2.03178,-7.89499 -1.59337,-1.09804 -4.49035,-1.80934 -6.59267,-1.61871 -7.29846,0.6618 -11.81265,9.7727 -9.09005,18.34623 1.49507,4.708 4.68034,7.62255 11.12695,10.18125 2.14903,0.85297 2.61062,0.92833 1.80209,0.29423 z m 19.33582,-3.06921 c 0.6608,-0.38725 1.51449,-1.11452 1.8971,-1.61614 0.90789,-1.1903 1.70687,-3.79706 1.69064,-5.51588 l -0.0129,-1.36549 -0.68937,1.71979 c -0.57354,1.43084 -1.1098,2.1354 -3.19167,4.19336 -1.37628,1.36047 -2.99502,2.70716 -3.59722,2.99266 l -1.09491,0.5191 1.89843,-0.11165 c 1.44089,-0.0847 2.18799,-0.28134 3.09989,-0.81575 z m -59.68588,-1.36076 c -0.0815,-0.0815 -0.2294,0.0654 -0.32876,0.32632 -0.14359,0.37708 -0.1132,0.40747 0.14811,0.14811 0.18082,-0.17948 0.26211,-0.39297 0.18065,-0.47443 z m 30.2136,-0.48116 c 0,-0.0502 -0.26789,-0.3181 -0.59531,-0.59531 l -0.59532,-0.50403 0.50403,0.59531 c 0.47366,0.55945 0.6866,0.71576 0.6866,0.50403 z m -59.065142,-5.91134 c -0.252965,-0.0662 -0.729215,-0.0686 -1.058334,-0.005 -0.329118,0.0633 -0.122147,0.11747 0.459936,0.12041 0.582084,0.003 0.851363,-0.0488 0.598398,-0.11507 z m 2.372653,-0.24264 c -0.08792,-0.0879 -0.316122,-0.0973 -0.507118,-0.0209 -0.211067,0.0845 -0.148372,0.14715 0.159852,0.15985 0.278915,0.0115 0.435184,-0.0511 0.347266,-0.13896 z M 61.737278,181.79605 c 0.901794,-0.67233 2.131546,-1.5643 2.732782,-1.98214 0.783556,-0.54455 1.012131,-0.84074 0.807066,-1.04581 -0.49662,-0.49662 -3.583836,0.20309 -5.249785,1.18985 -1.718663,1.01799 -4.515089,3.67509 -6.077862,5.77505 -0.945054,1.26991 -2.979952,4.96231 -2.979952,5.40724 0,0.0871 2.053828,-1.7046 4.564062,-3.98166 2.510234,-2.27706 5.301894,-4.69019 6.203689,-5.36253 z m 141.632242,7.01206 c 0,-0.0549 -0.20836,-0.2633 -0.46302,-0.46302 -0.41965,-0.32911 -0.429,-0.31975 -0.0999,0.0999 0.34565,0.44073 0.56292,0.58089 0.56292,0.36313 z M 71.608262,187.34437 c 1.973248,-0.74977 4.602558,-2.54433 5.385626,-3.67581 1.776294,-2.5666 1.414629,-5.6722 -0.929248,-7.97939 -1.479077,-1.45593 -2.141626,-1.75514 -1.3411,-0.60565 2.653037,3.80957 0.40271,7.87005 -7.092301,12.79732 -0.621999,0.40891 -0.578114,0.41807 0.981276,0.20481 0.897818,-0.12278 2.245903,-0.45636 2.995747,-0.74128 z m 119.061258,-0.65293 c 0,-0.0549 -0.20836,-0.2633 -0.46302,-0.46302 -0.41965,-0.32911 -0.429,-0.31975 -0.0999,0.0999 0.34565,0.44073 0.56292,0.58089 0.56292,0.36313 z m 12.17083,-10.85201 c 0,-0.0572 -0.18478,-0.17489 -0.41061,-0.26155 -0.23546,-0.0904 -0.34167,-0.046 -0.24897,0.10399 0.15538,0.2514 0.65958,0.37185 0.65958,0.15756 z m -103.371342,-1.1738 c 0.979062,-0.48199 3.535972,-2.2669 5.682042,-3.96647 4.06732,-3.22109 7.95777,-5.86528 10.8405,-7.36786 2.17866,-1.13559 1.41287,-1.15856 -2.46833,-0.074 -3.61774,1.01091 -6.4484,2.38786 -9.50474,4.6235 -6.091645,4.45589 -7.568203,5.45073 -9.789581,6.59585 l -2.381249,1.22752 2.920626,-0.0811 c 2.687232,-0.0746 3.062879,-0.15112 4.700732,-0.95743 z m 0.843432,0.22249 c 0.0927,-0.14999 -0.0135,-0.19434 -0.24897,-0.10399 -0.458364,0.17589 -0.542229,0.36554 -0.161644,0.36554 0.136934,0 0.321714,-0.1177 0.410614,-0.26155 z m -2.511666,-3.06436 c 0,-0.0728 -0.238125,-0.005 -0.529166,0.15091 -0.291042,0.15576 -0.529167,0.34273 -0.529167,0.41549 0,0.0728 0.238125,0.005 0.529167,-0.15091 0.291041,-0.15576 0.529166,-0.34273 0.529166,-0.41549 z m -46.302081,-0.72144 c 0,-0.0432 -0.506015,-0.54924 -1.124479,-1.12447 l -1.124479,-1.04589 1.045884,1.12448 c 0.972662,1.04575 1.203074,1.24606 1.203074,1.04588 z m 10.027313,-7.44478 c -0.06328,-0.0633 -1.197494,-0.65692 -2.520484,-1.31921 -1.923812,-0.96307 -2.770462,-1.58933 -4.228528,-3.12783 -3.128704,-3.3013 -4.336634,-6.30501 -4.336634,-10.78375 0,-2.80719 0.407852,-4.71826 1.537901,-7.20612 0.808977,-1.781 2.839163,-4.32635 3.403371,-4.26698 0.189585,0.0199 0.290683,-0.0511 0.224663,-0.15795 -0.185657,-0.3004 1.154032,-1.46513 2.870698,-2.4958 2.07198,-1.24399 4.568971,-2.04544 7.018675,-2.25276 l 2.010316,-0.17014 -1.455208,-0.50174 c -2.717406,-0.93694 -7.302481,-0.48533 -10.248543,1.00943 -3.652804,1.85335 -6.277604,4.59544 -8.13779,8.50144 -1.466383,3.07909 -1.84942,4.72237 -1.819333,7.80521 0.04454,4.5638 1.371984,7.88273 4.350198,10.87657 2.393673,2.40623 4.963508,3.67513 7.974491,3.93755 3.022959,0.26347 3.488698,0.28457 3.356207,0.15208 z m 126.497684,-0.24943 c 0,-0.0549 -0.20836,-0.2633 -0.46302,-0.46302 -0.41965,-0.32911 -0.42901,-0.31975 -0.0999,0.0999 0.34564,0.44073 0.56292,0.58089 0.56292,0.36313 z m 3.175,-5.55625 c 0,-0.0549 -0.20836,-0.2633 -0.46302,-0.46302 -0.41965,-0.32911 -0.42901,-0.31975 -0.0999,0.0999 0.34564,0.44073 0.56292,0.58089 0.56292,0.36313 z M 74.445784,145.0919 c -0.08792,-0.0879 -0.316122,-0.0973 -0.507118,-0.0209 -0.211067,0.0845 -0.148372,0.14716 0.159853,0.15986 0.278914,0.0115 0.435184,-0.0511 0.347265,-0.13897 z M 32.56036,130.62815 c 1.759434,-4.62408 3.826981,-7.84259 7.40428,-11.52611 6.316591,-6.50416 13.653862,-10.69785 22.08255,-12.62153 1.508808,-0.34435 2.798754,-0.68156 2.866546,-0.74935 0.283637,-0.28364 -3.115998,-0.4924 -5.487609,-0.33698 -4.977798,0.32621 -10.428199,2.19736 -14.401485,4.94409 -5.207112,3.59967 -8.831426,7.64838 -11.240024,12.55619 -2.125961,4.33191 -2.696543,6.36938 -2.815605,10.05417 l -0.102589,3.175 0.506176,-1.85208 c 0.278397,-1.01865 0.812889,-2.65818 1.18776,-3.6434 z m 32.625008,2.02834 c -0.08792,-0.0879 -0.316122,-0.0973 -0.507118,-0.0209 -0.211067,0.0845 -0.148372,0.14715 0.159852,0.15985 0.278915,0.0115 0.435185,-0.051 0.347266,-0.13896 z m 62.513322,-2.3213 c 0,-0.0549 -0.20836,-0.2633 -0.46302,-0.46302 -0.41965,-0.3291 -0.429,-0.31975 -0.0999,0.0999 0.34565,0.44073 0.56292,0.58088 0.56292,0.36312 z m 29.36875,0 c 0,-0.0549 -0.20836,-0.2633 -0.46302,-0.46302 -0.41965,-0.3291 -0.42901,-0.31975 -0.0999,0.0999 0.34565,0.44073 0.56292,0.58088 0.56292,0.36312 z m 41.99709,-0.06 c -0.0879,-0.0879 -0.31612,-0.0973 -0.50712,-0.0209 -0.21107,0.0845 -0.14837,0.14715 0.15985,0.15985 0.27892,0.0115 0.43519,-0.0511 0.34727,-0.13896 z m -94.45674,-3.05273 c 6.33217,-1.95499 12.4573,-6.78726 17.24062,-13.60156 3.69528,-5.26427 5.97276,-10.56935 8.60708,-20.04896 2.1293,-7.662291 6.10516,-12.632133 12.46139,-15.576792 3.91298,-1.812767 5.66304,-2.144631 11.69492,-2.21771 5.07154,-0.06144 5.42461,-0.09916 6.79322,-0.725733 1.47332,-0.67451 3.66398,-2.487533 4.19263,-3.46988 0.42957,-0.798253 0.70879,-2.551687 0.54132,-3.399392 -0.13209,-0.668624 -0.18646,-0.700006 -0.58611,-0.338328 -0.6531,0.591049 -4.14368,2.151059 -6.81744,3.046852 -1.29114,0.432571 -5.02311,1.373653 -8.29327,2.091294 -6.95952,1.527279 -9.28528,2.361133 -12.64071,4.532078 -6.33359,4.097785 -8.71953,7.818438 -11.82296,18.436827 -2.15652,7.378494 -4.42679,12.754474 -7.15613,16.945594 -1.95851,3.00746 -6.86696,7.9197 -9.94437,9.95206 -2.67916,1.76935 -7.0798,3.99948 -8.7998,4.45951 -0.801457,0.21436 -1.099381,0.39901 -0.883437,0.54756 0.485307,0.33385 3.375527,-0.004 5.413047,-0.63342 z m 34.2034,-8.7107 c 3.73332,-0.60265 7.39065,-3.1665 8.89073,-6.23257 1.03622,-2.11796 1.06518,-5.1181 0.0701,-7.26006 -1.38068,-2.97191 -4.31009,-5.063241 -7.64565,-5.458289 -1.38036,-0.163482 -3.98627,0.308392 -5.15161,0.932849 l -0.79375,0.42533 1.5875,0.16003 c 3.68324,0.37129 6.15022,1.76265 7.28627,4.1094 0.75264,1.55476 0.64322,4.41053 -0.23461,6.12309 -1.86492,3.63828 -5.26913,5.51578 -10.62353,5.85913 l -2.77813,0.17814 1.3926,0.48014 c 2.68928,0.9272 5.17296,1.13918 8.00011,0.68281 z m 30.88459,-3.58241 c -0.0879,-0.0879 -0.31612,-0.0973 -0.50712,-0.0209 -0.21107,0.0845 -0.14837,0.14716 0.15985,0.15986 0.27892,0.0115 0.43519,-0.0511 0.34727,-0.13897 z M 64.127035,114.40024 c -0.08792,-0.0879 -0.316122,-0.0973 -0.507118,-0.0209 -0.211067,0.0845 -0.148372,0.14716 0.159852,0.15985 0.278915,0.0115 0.435184,-0.051 0.347266,-0.13896 z m 14.303386,-4.74313 c 2.930383,-1.46601 4.285839,-3.35343 4.967734,-6.91737 0.650753,-3.401183 0.459212,-6.44361 -0.669584,-10.63564 -0.169625,-0.629938 -0.338718,-1.103558 -0.375764,-1.052488 -0.03704,0.05107 0.05091,1.394007 0.195447,2.984306 0.519718,5.718162 -0.976855,9.857062 -5.104728,14.117552 -1.027263,1.06027 -1.867751,2.04253 -1.867751,2.18281 0,0.4872 0.99767,0.24984 2.854646,-0.67917 z m 80.875209,-2.44525 c 2.9226,-2.20968 4.08393,-5.54669 3.3243,-9.552174 -1.10043,-5.802566 -6.4122,-9.583482 -13.4552,-9.577413 -2.86005,0.0025 -4.85469,0.503287 -7.65156,1.921189 -2.34117,1.186876 -2.89527,1.740812 -1.05834,1.058003 0.84962,-0.31581 2.12693,-0.416481 5.22553,-0.411848 3.54741,0.0053 4.31249,0.08393 5.66739,0.582452 4.4779,1.647579 6.704,4.310222 7.56272,9.045741 0.38114,2.10187 0.0385,3.7806 -1.30998,6.41733 l -1.02241,1.99923 0.7027,-0.24522 c 0.38648,-0.13487 1.29317,-0.69165 2.01485,-1.23729 z M 52.869731,97.337624 c 1.846977,-0.942258 3.496189,-2.711912 4.476423,-4.803338 0.852913,-1.819774 0.899267,-2.069459 0.896566,-4.829404 -0.0024,-2.414184 -0.09985,-3.121346 -0.571736,-4.147521 -0.681941,-1.482951 -2.629175,-3.669906 -3.229426,-3.626995 -0.386159,0.02761 -0.385264,0.04238 0.0089,0.146917 0.241025,0.06392 0.717275,0.794253 1.058333,1.622954 0.549613,1.335445 0.618089,1.912777 0.602361,5.078603 -0.01347,2.710313 -0.12773,3.859063 -0.473722,4.7625 -0.588475,1.536596 -2.315261,4.39057 -3.321768,5.490104 -0.926425,1.012051 -0.879925,1.037747 0.554065,0.30618 z m 12.255003,-2.074892 c 1.985545,-1.504173 5.531573,-5.036017 6.949893,-6.922093 1.316463,-1.750629 2.750469,-4.598233 3.38467,-6.721173 0.672776,-2.252066 0.602282,-6.272245 -0.153103,-8.73125 -1.000105,-3.255638 -3.239686,-6.816999 -5.500613,-8.74702 -1.136807,-0.970426 -4.554463,-3.291521 -4.846542,-3.291521 -0.109727,0 0.453975,0.618032 1.25267,1.373405 0.798696,0.755373 1.973598,2.104116 2.610894,2.997207 4.382051,6.140894 5.241182,12.159432 2.530144,17.724614 -0.810494,1.66377 -2.171928,3.207156 -2.597208,2.944318 -0.13676,-0.08452 -0.313106,-0.864455 -0.391879,-1.733185 -0.231381,-2.551704 -1.224575,-4.333135 -3.808738,-6.8315 -1.244363,-1.203048 -2.387807,-2.18736 -2.540986,-2.18736 -0.153179,0 -0.09468,0.20836 0.129993,0.463021 0.719004,0.814966 2.267682,4.157967 2.737813,5.909887 1.227547,4.574397 0.0081,11.07327 -2.833228,15.099185 -0.27261,0.386266 -0.495655,0.769204 -0.495655,0.850973 0,0.242533 1.867932,-0.906666 3.571875,-2.197508 z M 32.977861,86.674856 c 0,-0.05719 -0.184778,-0.17489 -0.410617,-0.261552 -0.235459,-0.09036 -0.341662,-0.046 -0.248968,0.103984 0.155378,0.251408 0.659585,0.371858 0.659585,0.157568 z M 186.89369,83.443988 c -0.0879,-0.08792 -0.31612,-0.09732 -0.50711,-0.02089 -0.21107,0.08446 -0.14838,0.147157 0.15985,0.159852 0.27891,0.01149 0.43518,-0.05105 0.34726,-0.138964 z m -146.843737,-1.5875 c -0.08792,-0.08792 -0.316122,-0.09732 -0.507118,-0.02089 -0.211067,0.08446 -0.148372,0.147157 0.159852,0.159852 0.278915,0.01149 0.435184,-0.05105 0.347266,-0.138964 z m 93.238737,-1.361501 c 0.32911,-0.419644 0.31975,-0.429003 -0.0999,-0.09989 -0.25466,0.199719 -0.46302,0.408078 -0.46302,0.463021 0,0.217761 0.21727,0.0776 0.56292,-0.363126 z m 22.91334,-4.194748 c -0.0879,-0.08792 -0.31612,-0.09732 -0.50712,-0.02089 -0.21106,0.08446 -0.14837,0.147157 0.15985,0.159853 0.27892,0.01149 0.43519,-0.05105 0.34727,-0.138963 z M 23.222027,73.351237 c 0.329108,-0.419644 0.319749,-0.429002 -0.0999,-0.0999 -0.254661,0.199719 -0.463021,0.408079 -0.463021,0.463021 0,0.217761 0.217272,0.0776 0.562916,-0.363126 z m 10.742509,-2.078082 c -0.08792,-0.08792 -0.316122,-0.09732 -0.507118,-0.02089 -0.211067,0.08446 -0.148372,0.147157 0.159853,0.159853 0.278915,0.01149 0.435184,-0.05105 0.347265,-0.138965 z m 52.459155,-1.527542 c 0,-0.05494 -0.208359,-0.263301 -0.46302,-0.463021 -0.419644,-0.329107 -0.429003,-0.319749 -0.0999,0.0999 0.345643,0.440729 0.562915,0.580887 0.562915,0.363126 z M 38.488146,65.942904 c -0.633435,-2.492659 -1.515124,-4.076716 -2.663673,-4.785596 -0.81722,-0.504384 -4.169529,-1.441421 -4.169529,-1.165465 0,0.07131 0.529686,0.595909 1.17708,1.165768 0.647394,0.569859 1.787921,1.894557 2.534503,2.943773 1.039053,1.460241 3.28497,3.885496 3.603578,3.891325 0.02152,3.94e-4 -0.195366,-0.922019 -0.481959,-2.049805 z m 46.083462,1.686043 c 0,-0.05494 -0.208359,-0.263302 -0.463021,-0.463021 -0.419643,-0.329108 -0.429002,-0.319749 -0.09989,0.0999 0.345643,0.440729 0.562915,0.580887 0.562915,0.363126 z M 46.330244,64.17781 c 1.111982,-0.464616 1.937903,-1.874319 1.504618,-2.568119 -0.240753,-0.385507 -0.124037,-0.593379 0.695059,-1.23791 1.753612,-1.379885 6.090237,-3.189527 6.716238,-2.802637 0.121706,0.07522 0.221284,-0.0077 0.221284,-0.184264 0,-0.507734 -7.778477,-0.106631 -10.715624,0.552558 -2.6818,0.601882 -5.693931,1.537761 -6.072188,1.886649 -0.147647,0.136184 0.159733,0.231838 0.744999,0.231838 1.694755,0 3.303576,1.201226 2.819711,2.105336 -0.403203,0.753393 -0.330991,1.273904 0.258519,1.863414 0.64105,0.641049 2.483236,0.714756 3.827384,0.153135 z m 3.647095,-7.472113 c -0.181901,-0.0734 -0.479557,-0.0734 -0.661458,0 -0.181901,0.0734 -0.03307,0.133452 0.330729,0.133452 0.363802,0 0.51263,-0.06005 0.330729,-0.133452 z M 162.12827,54.830405 c 0.32911,-0.419644 0.31975,-0.429003 -0.0999,-0.09989 -0.25467,0.199719 -0.46303,0.408078 -0.46303,0.463021 0,0.217761 0.21728,0.0776 0.56292,-0.363126 z M 43.958069,53.821129 c 2.930002,-0.640354 5.920047,-1.120196 8.069791,-1.295038 3.296276,-0.268091 8.531856,-0.937785 9.657291,-1.235285 2.364888,-0.625137 3.836458,-2.025001 3.836458,-3.649515 0,-0.559623 -0.0019,-0.559748 -0.992187,-0.06521 -1.557272,0.777693 -3.126471,1.070709 -8.050411,1.503254 -8.038825,0.706173 -11.22805,1.338409 -13.314692,2.639521 -0.582084,0.362954 -1.503607,0.869229 -2.04783,1.125055 -1.183376,0.556278 -1.226997,0.73314 -0.267274,1.083661 0.977224,0.356913 0.990865,0.356446 3.108854,-0.106443 z M 81.32495,49.841907 c -0.08792,-0.08792 -0.316122,-0.09732 -0.507118,-0.02089 -0.211066,0.08446 -0.148372,0.147157 0.159853,0.159853 0.278915,0.01149 0.435184,-0.05105 0.347265,-0.138964 z M 22.638063,180.42816 c -1.340851,-0.21539 -3.130511,-1.04076 -3.672375,-1.69367 -0.192903,-0.23244 -0.304001,-0.46324 -0.246884,-0.51291 0.05712,-0.0497 0.623448,-0.41404 1.258512,-0.80973 1.692403,-1.05447 3.502167,-2.80111 3.911478,-3.77504 0.910384,-2.16618 0.411237,-3.55042 -3.294616,-9.13663 -1.603871,-2.41768 -3.356631,-5.18347 -3.895021,-6.1462 -2.190805,-3.91753 -3.7925,-8.75776 -3.854148,-11.64702 -0.01552,-0.7276 -0.112819,-1.62057 -0.216207,-1.98437 -0.17977,-0.63257 -0.196203,-0.6212 -0.37625,0.26025 -0.298013,1.45898 -1.307624,2.7253 -2.8511272,3.57608 -2.8003796,1.54358 -6.2148137,0.85289 -8.5474016,-1.72901 -1.54598446,-1.71122 -2.4816212,-4.16426 -1.75873346,-4.61103 0.13677234,-0.0845 0.64278794,0.0866 1.12447911,0.38027 2.06148765,1.25685 4.82508935,0.25752 6.00006485,-2.16966 0.7070412,-1.46055 0.7122971,-2.60655 0.021075,-4.59517 C 5.9421459,134.97479 5.614724,133.14045 5.513304,131.758 l -0.1843999,-2.51354 -1.1190124,-0.0811 c -0.9621083,-0.0697 -1.2560257,-0.2483 -2.096168,-1.27358 -1.075592,-1.31262 -2.09511816,-1.95262 -3.11053935,-1.95262 -0.86487055,0 -2.70670295,1.74618 -2.93666635,2.78416 -0.3580842,1.61627 -0.393372,1.63524 -1.2189291,0.65542 -1.3113177,-1.55634 -1.8220812,-2.89833 -1.8192245,-4.77988 0.00453,-2.98636 1.5848873,-5.3891 4.3630401,-6.63348 2.61555094,-1.17156 4.9107649,-0.6208 8.0571056,1.93339 2.9161966,2.36735 2.7400012,2.327 1.8905551,0.4329 -0.8532125,-1.9025 -1.4930207,-3.85963 -1.7366271,-5.31223 -0.4522308,-2.69659 -4.5069766,-4.58483 -7.5615162,-3.52129 -1.7651615,0.6146 -1.9335945,0.56731 -1.7612975,-0.49443 0.3775071,-2.3263 2.1203035,-4.3909 4.8378753,-5.73117 2.8320196,-1.39671 5.5409612,-1.30021 7.7152397,0.27482 2.3026416,1.66803 3.2500346,3.73402 3.9982286,8.71898 l 0.461356,3.07385 0.494945,-2.24895 c 0.272219,-1.23693 0.498559,-3.21112 0.502977,-4.38708 0.01052,-2.80066 -0.8442,-4.70619 -2.64639,-5.89991 -0.662304,-0.43869 -1.342079,-0.85595 -1.510612,-0.92724 -0.4913838,-0.20785 0.595435,-0.92893 2.052105,-1.36151 3.070842,-0.91194 6.347671,-0.20218 8.270753,1.79144 1.415732,1.46765 1.909384,2.49131 2.105284,4.36558 0.219414,2.09924 -0.322073,4.03627 -2.427391,8.68336 -2.088814,4.61065 -2.446679,5.73139 -2.656254,8.31869 -0.317676,3.92185 0.814701,8.46374 3.397219,13.62604 1.497887,2.99419 2.391975,4.36988 4.062553,6.25086 0.63865,0.71908 1.161182,1.53475 1.161182,1.81259 0,1.07893 1.901251,6.23039 3.331187,9.02589 3.53149,6.90402 9.424611,12.64494 16.181832,15.7639 1.491589,0.68848 2.711979,1.38759 2.711979,1.55357 0,0.16599 -0.603152,0.63007 -1.340339,1.0313 -1.253642,0.68232 -1.473909,0.71768 -3.405332,0.54671 -2.560952,-0.2267 -3.116648,0.0228 -5.068224,2.27553 -1.455275,1.67985 -2.963784,2.60149 -4.275166,2.61196 -0.850191,0.007 -0.865677,-0.0993 -0.299109,-2.04818 0.644275,-2.21622 0.12801,-4.94413 -1.283601,-6.78246 -0.348811,-0.45425 -0.374236,-0.36584 -0.26693,0.92812 0.06523,0.78661 -0.01605,1.93027 -0.180633,2.54147 -0.946793,3.51612 -5.608615,6.254 -9.566296,5.61827 z"
       id="path1" /></g></svg>
