<?xml version="1.0" encoding="UTF-8" standalone="no"?>
<!-- Created with Inkscape (http://www.inkscape.org/) -->

<svg
   width="243.78282mm"
   height="241.41476mm"
   viewBox="0 0 243.78282 241.41477"
   version="1.1"
   id="svg1"
   xml:space="preserve"
   inkscape:version="1.4 (86a8ad7, 2024-10-11)"
   sodipodi:docname="chimera.svg"
   xmlns:inkscape="http://www.inkscape.org/namespaces/inkscape"
   xmlns:sodipodi="http://sodipodi.sourceforge.net/DTD/sodipodi-0.dtd"
   xmlns="http://www.w3.org/2000/svg"
   xmlns:svg="http://www.w3.org/2000/svg"><sodipodi:namedview
     id="namedview1"
     pagecolor="#ffffff"
     bordercolor="#000000"
     borderopacity="0.25"
     inkscape:showpageshadow="2"
     inkscape:pageopacity="0.0"
     inkscape:pagecheckerboard="0"
     inkscape:deskcolor="#d1d1d1"
     inkscape:document-units="mm"
     inkscape:zoom="0.53858859"
     inkscape:cx="143.89462"
     inkscape:cy="158.74826"
     inkscape:window-width="1828"
     inkscape:window-height="1057"
     inkscape:window-x="3924"
     inkscape:window-y="-8"
     inkscape:window-maximized="1"
     inkscape:current-layer="layer1" /><defs
     id="defs1" /><g
     inkscape:label="Warstwa 1"
     inkscape:groupmode="layer"
     id="layer1"
     transform="translate(-112.70691,-195.99188)"><path
       style="fill:#000000"
       d="m 225.43499,437.23378 c -23.02998,-1.90265 -45.2281,-10.10743 -63.23416,-23.37234 -32.89841,-24.23598 -51.31711,-62.66221 -49.35103,-102.95915 0.85935,-17.61334 4.94904,-33.33559 12.68616,-48.77018 6.11524,-12.19913 15.11636,-24.26093 24.75736,-33.17569 11.56091,-10.69003 24.54946,-18.87026 38.76146,-24.41207 13.9604,-5.44369 27.59472,-8.16969 42.59791,-8.51687 21.40925,-0.49542 41.62574,4.18036 60.72188,14.04407 10.63365,5.4926 20.0899,12.4538 28.9767,21.33116 9.94685,9.9363 16.76822,19.44299 22.87672,31.88248 4.15959,8.4707 6.79485,15.61795 8.84774,23.99657 2.18898,8.93404 3.15767,16.2805 3.37724,25.6128 0.89275,37.94359 -14.50197,72.16781 -43.24237,96.13269 -19.12358,15.94599 -40.20612,24.88325 -65.68291,27.84411 -4.24587,0.49345 -17.81284,0.71601 -22.0927,0.36242 z m 14.34022,-8.45606 c 28.53045,-1.38478 54.44334,-12.70791 75.05655,-32.79738 17.8285,-17.3755 29.12634,-39.96325 32.29382,-64.56494 1.0891,-8.45898 1.21833,-20.91132 0.29381,-28.31042 -3.41354,-27.31926 -16.52359,-52.24125 -36.92087,-70.18594 -17.86722,-15.71886 -40.14041,-25.34373 -64.49167,-27.86866 -5.09612,-0.52841 -16.46022,-0.59809 -21.36561,-0.13101 -31.39916,2.98975 -59.25095,17.57751 -78.56301,41.14846 -18.52618,22.61176 -27.46989,52.69639 -24.36605,81.96191 2.35041,22.16146 10.55875,41.83936 24.69971,59.21274 3.08319,3.78796 11.34541,12.02219 15.48111,15.42866 19.22786,15.8375 42.92604,25.01698 67.37844,26.09899 2.4011,0.10625 4.54422,0.20978 4.7625,0.23009 0.21828,0.0203 2.80185,-0.0798 5.74127,-0.2225 z m -81.11124,-35.91051 -1.41894,-0.0982 0.11281,-1.63878 c 0.15705,-2.28146 1.10307,-4.08015 3.68903,-7.01405 3.10695,-3.52499 3.52563,-3.67939 6.94794,-2.56224 3.61237,1.1792 6.64384,0.71295 9.36873,-1.44095 1.48319,-1.1724 4.38928,-4.74561 6.46714,-7.95175 1.9669,-3.03493 4.15411,-7.46861 6.02994,-12.22324 1.98453,-5.03016 2.63374,-7.36649 2.63374,-9.47814 0,-1.51643 -0.16264,-2.03522 -1.57073,-5.01021 -2.29757,-4.85428 -2.94808,-7.29186 -3.10979,-11.65299 -0.0939,-2.53317 -0.0228,-4.09123 0.24461,-5.35782 0.20737,-0.98226 0.30342,-1.78593 0.21342,-1.78593 -0.27462,0 -1.85679,2.76284 -2.44473,4.26906 -0.40003,1.02485 -0.58909,2.24088 -0.68004,4.37404 -0.15516,3.63905 0.22323,5.05916 2.70843,10.16501 1.92069,3.94604 2.45985,5.79133 2.02269,6.92261 -0.23825,0.61653 -0.43445,0.72761 -1.28523,0.72761 -0.55223,0 -1.87827,-0.24226 -2.94676,-0.53835 -3.95653,-1.09641 -7.08319,-2.72583 -10.03461,-5.2294 l -1.66921,-1.41592 0.52142,1.01215 c 0.7928,1.53894 2.97798,4.54785 4.55952,6.27832 l 1.41545,1.54873 -1.04982,0.88187 c -1.38854,1.16639 -3.5161,2.2251 -4.47153,2.2251 -0.65265,0 -1.96602,-1.18609 -8.72745,-7.8817 -5.20926,-5.15854 -8.5635,-8.26907 -9.70828,-9.00291 -1.93572,-1.24084 -4.05176,-2.06804 -5.64511,-2.20677 l -1.0442,-0.0909 -0.46505,2.24895 c -0.51318,2.48173 -0.60304,3.70417 -0.27229,3.70417 0.11933,0 0.69637,0.41036 1.28231,0.9119 0.74961,0.64164 1.23606,1.38008 1.64133,2.49158 0.82355,2.25865 2.28336,3.43542 5.9753,4.81675 0.80709,0.30197 1.46744,0.63388 1.46744,0.73757 0,0.6914 -3.68997,1.89012 -5.81828,1.89012 -1.24736,0 -1.7439,-0.156 -3.06083,-0.96163 -3.06273,-1.87361 -2.98209,-1.83835 -3.48509,-1.52356 -0.72079,0.45109 -0.70571,1.06835 0.0579,2.37142 0.7664,1.30776 2.1583,2.44138 4.30261,3.50424 0.76399,0.37868 1.38906,0.77799 1.38906,0.88736 0,0.42813 -2.13925,0.80562 -3.99787,0.70545 -2.49067,-0.13424 -4.48278,-1.02651 -6.45387,-2.89068 -1.25605,-1.18792 -1.4545,-1.29638 -1.4545,-0.79493 0,0.80144 0.69646,2.10926 1.66902,3.1341 l 0.81603,0.85989 -0.9118,-10e-4 c -2.52857,-0.004 -4.12666,-1.13158 -6.30345,-4.44723 -1.61824,-2.46489 -1.67498,-3.0574 -0.56578,-5.90886 1.18017,-3.03388 1.27569,-4.49777 0.43125,-6.60854 -0.88102,-2.2022 -0.8686,-2.75079 0.10179,-4.49468 2.05434,-3.69187 2.92809,-5.64026 3.84143,-8.56602 1.41776,-4.54159 2.06715,-5.11586 5.55171,-4.90948 0.58209,0.0345 2.1299,0.47521 3.43959,0.97941 3.74,1.43981 5.86932,1.95033 8.86354,2.12513 l 2.77812,0.16218 2.21402,2.08935 c 1.21771,1.14913 2.25145,2.0519 2.29721,2.00614 0.0458,-0.0458 -0.32633,-1.45055 -0.82687,-3.12175 -1.40854,-4.70285 -1.98304,-8.28304 -2.15404,-13.42344 -0.0835,-2.51024 -0.20507,-4.56407 -0.27017,-4.56407 -0.0651,0 -0.42108,0.23813 -0.79108,0.52917 -1.30923,1.02985 -1.49103,0.7825 -1.31265,-1.78594 0.30656,-4.41418 2.37642,-11.05017 4.66753,-14.96416 1.20341,-2.05583 1.06635,-2.11611 -1.50864,-0.66352 -2.95923,1.66934 -5.76719,4.90825 -6.83884,7.88841 -0.26169,0.72772 -0.57789,1.32313 -0.70267,1.32313 -0.12478,0 -0.54418,-0.68461 -0.93199,-1.52136 -0.62035,-1.33848 -0.70606,-1.8563 -0.71304,-4.30781 -0.007,-2.57801 0.0521,-2.90759 0.79389,-4.40562 l 0.80182,-1.61916 -3.05078,-0.10625 c -3.71947,-0.12954 -4.46148,-0.43908 -7.81024,-3.25817 -2.36565,-1.99148 -4.09708,-3.03479 -5.04751,-3.0415 -0.28148,-0.002 -0.77683,-0.0747 -1.10077,-0.16149 -0.84745,-0.22717 -0.37501,-0.96415 1.06492,-1.6612 1.64078,-0.79429 3.4026,-0.71811 6.28392,0.2717 3.92347,1.34783 6.86716,0.92815 9.8274,-1.40109 0.80713,-0.63509 2.06741,-2.24101 2.06534,-2.63178 -3e-4,-0.0556 -0.98256,-0.10106 -2.18282,-0.10106 h -2.18227 l -2.13521,-1.38401 c -2.302,-1.49211 -3.61112,-2.04508 -5.5189,-2.33117 -1.51649,-0.22741 -1.67861,-0.47049 -0.74952,-1.12383 1.4302,-1.00572 2.55703,-1.43686 5.06688,-1.93867 2.93556,-0.58692 5.00978,-1.50717 5.97044,-2.64885 0.85043,-1.01068 0.84835,-1.2891 -0.01,-1.2891 -0.37579,0 -1.49707,-0.35719 -2.49174,-0.79375 -0.99467,-0.43656 -2.24374,-0.79375 -2.77573,-0.79375 -0.77738,0 -0.95044,-0.0909 -0.88169,-0.46302 0.13311,-0.72048 2.11708,-1.56559 4.81635,-2.0516 1.35386,-0.24377 2.91982,-0.70044 3.47992,-1.01482 0.97225,-0.54572 3.45934,-3.27723 3.21053,-3.52604 -0.11438,-0.11438 -1.98198,0.96164 -3.8514,2.21897 -1.67777,1.12843 -1.75742,0.69835 -0.38395,-2.07325 0.70021,-1.41302 1.52406,-2.50379 2.97656,-3.94098 2.34603,-2.3213 4.37343,-3.47266 8.77432,-4.98296 1.663,-0.57071 3.97613,-1.46312 5.1403,-1.98314 10.07856,-4.502 21.12976,-3.27365 27.4674,3.05302 1.13708,1.1351 2.27892,2.06382 2.53743,2.06382 1.32642,0 3.84215,1.73761 7.28936,5.03473 3.84757,3.68004 4.35363,4.02584 7.15273,4.88749 l 1.84901,0.56918 -1.31984,0.50899 c -0.95879,0.36975 -1.98579,0.50899 -3.75424,0.50899 -1.33892,0 -2.35095,0.0686 -2.24896,0.15249 5.51073,4.53163 10.10882,9.1211 10.10473,10.08579 -10e-4,0.3353 -0.31591,1.26448 -0.69885,2.06484 -0.38295,0.80037 -0.78967,2.09084 -0.90382,2.86772 -0.37341,2.54129 -2.40486,4.68366 -4.73788,4.99658 -0.88382,0.11855 -1.16774,0.30145 -1.50508,0.96955 -0.63871,1.265 -1.43857,2.01407 -2.1506,2.01407 -0.63103,0 -0.64356,-0.0408 -0.53514,-1.7436 l 0.11102,-1.74359 -1.65886,-1.18374 c -3.27164,-2.33459 -6.65273,-2.85251 -8.65449,-1.32569 -1.26515,0.96497 -2.21946,2.25732 -2.80471,3.79817 l -0.48329,1.27241 3.61162,5.2e-4 c 3.13888,4.6e-4 3.77321,0.0751 4.84608,0.57056 1.4321,0.66131 2.14692,1.59738 2.02591,2.65296 -0.0803,0.70041 -0.16901,0.7495 -1.49167,0.82528 -1.85804,0.10645 -1.67047,0.51182 0.5732,1.23881 0.9825,0.31835 1.98204,0.7745 2.22122,1.01367 0.40342,0.40342 0.39287,0.50956 -0.1459,1.46818 -0.69238,1.23192 -0.73828,2.60504 -0.18393,5.50205 0.44558,2.32856 0.52307,5.00731 0.1515,5.23696 -0.13499,0.0834 -0.95319,-0.50358 -1.81822,-1.30445 l -1.5728,-1.45613 -0.32146,1.65079 c -0.35493,1.82261 -1.25965,4.70569 -1.58137,5.03932 -0.41869,0.43419 -3.1523,-2.45633 -4.08373,-4.31816 -0.81788,-1.63484 -0.92713,-1.75222 -1.0766,-1.15668 -0.54573,2.17436 1.44294,5.77346 4.38235,7.93118 1.29811,0.95291 1.37579,0.97554 1.72225,0.50174 0.39281,-0.5372 1.94917,-4.43603 1.94917,-4.88286 0,-0.45541 0.26331,-0.31921 1.518,0.78521 0.66128,0.58209 1.28781,1.05834 1.39228,1.05834 0.10447,0 0.58279,-0.98227 1.06294,-2.18282 1.08581,-2.71493 1.32872,-5.57033 0.68411,-8.04183 -0.2332,-0.89413 -0.424,-1.68314 -0.424,-1.75336 0,-0.19049 2.48016,-1.22429 5.02708,-2.09544 6.25466,-2.13933 13.87796,-3.41053 20.56276,-3.42886 l 4.29088,-0.0118 -0.14751,-1.23098 c -0.44799,-3.73834 -2.61174,-7.68726 -7.01608,-12.80457 -5.42876,-6.30758 -8.33437,-12.07537 -8.97432,-17.81453 -0.50869,-4.56196 0.49824,-9.03533 2.95551,-13.13002 0.72496,-1.20805 1.4876,-2.36726 1.69477,-2.57604 0.3267,-0.32924 0.12326,-0.44376 -1.53373,-0.86334 -2.23193,-0.56517 -4.82082,-2.0532 -4.82082,-2.77089 0,-0.4268 0.31314,-0.50183 2.64584,-0.634 3.38369,-0.19172 4.87199,-0.70792 7.04601,-2.44383 0.9649,-0.77045 2.03174,-1.58499 2.37077,-1.8101 l 0.61642,-0.40929 -3.06582,-3.54656 c -5.08984,-5.88796 -7.85716,-8.27759 -12.00841,-10.36952 -1.93659,-0.97589 -6.512,-2.52222 -8.07745,-2.72988 -1.48001,-0.19633 -1.89807,-0.67942 -1.19575,-1.38174 0.37596,-0.37597 1.04778,-0.44075 4.46795,-0.43084 3.83384,0.0111 4.15138,0.0534 6.67128,0.88898 4.94542,1.63983 9.20028,4.04106 13.62604,7.68985 5.18847,4.2776 7.00899,5.36658 7.53874,4.50943 0.27958,-0.45237 -0.78226,-2.45165 -2.21847,-4.17705 -1.76361,-2.11872 -4.37301,-4.27088 -6.60941,-5.45125 -0.96447,-0.50905 -1.9917,-1.10344 -2.28274,-1.32087 -1.40757,-1.05159 1.62626,-1.39827 4.93803,-0.56429 0.92211,0.2322 2.90297,1.02523 4.40192,1.76228 2.16987,1.06695 3.17851,1.76903 4.94856,3.44453 1.22275,1.15744 2.83867,2.93467 3.59093,3.94942 0.75226,1.01474 1.7401,2.03833 2.19519,2.27463 0.56464,0.29319 1.85155,0.4791 4.05175,0.58533 3.12364,0.15082 3.25064,0.18046 4.06836,0.94943 0.90692,0.85286 2.09325,3.10076 2.09747,3.97438 0.002,0.43049 0.81534,0.9163 4.16977,2.49085 5.66564,2.65942 5.98569,2.74544 8.28364,2.2265 1.53356,-0.34632 1.98526,-0.36001 2.65981,-0.0806 1.0644,0.44089 1.99208,1.88326 2.37455,3.69199 0.16924,0.80037 0.58081,1.99757 0.9146,2.66045 1.21816,2.41915 0.98185,4.6516 -0.54041,5.1055 -1.16729,0.34806 -1.74958,0.63721 -2.74155,1.3614 -1.04846,0.76543 -2.59137,1.12369 -3.01498,0.70008 -0.21434,-0.21433 -0.0571,-0.6216 0.58545,-1.51632 1.01713,-1.41634 1.04035,-1.38449 -1.63632,-2.24515 -2.03815,-0.65535 -3.57322,-0.57803 -5.77811,0.29106 -2.32236,0.91539 -3.42178,1.75521 -3.42178,2.61383 0,0.98602 0.30217,1.08332 3.36438,1.08332 2.76754,0 4.32249,0.34285 5.01239,1.10519 0.77309,0.85425 0.11231,1.09631 -2.94151,1.07756 -1.53419,-0.009 -2.78943,0.0743 -2.78943,0.18611 0,0.33098 2.96099,1.80468 4.02104,2.00129 0.53808,0.0998 1.19135,0.33722 1.4517,0.52759 0.45359,0.33168 0.45265,0.36902 -0.0225,0.89402 -0.27271,0.30134 -0.89621,0.623 -1.38555,0.7148 -0.77412,0.14523 -0.88972,0.26962 -0.88972,0.95738 0,1.91674 -1.61437,3.60942 -4.36563,4.5774 -2.43685,0.85736 -8.06862,0.52287 -7.74108,-0.45977 0.0589,-0.17678 0.69153,-0.62253 1.40578,-0.99056 1.46401,-0.75435 2.49885,-2.09294 2.49885,-3.23235 0,-1.75297 -1.93716,-4.06639 -4.40563,-5.26136 -1.10162,-0.53328 -1.20343,-0.53759 -3.15715,-0.13355 -2.59686,0.53704 -4.54797,0.50782 -6.85702,-0.1027 l -1.85208,-0.4897 -0.99672,0.95995 c -1.53112,1.47463 -2.16351,3.00976 -2.14596,5.20932 0.0287,3.59249 1.64325,6.22785 7.04109,11.49266 4.00144,3.90281 6.62714,6.87696 8.3952,9.50928 1.41802,2.11118 3.27073,6.01491 3.84533,8.10223 0.57256,2.07995 0.85825,8.1761 0.40856,8.71794 -0.6285,0.7573 5.2943,4.10822 7.265,4.11029 3.46365,0.004 5.15958,-2.08149 3.9831,-4.89719 -0.21038,-0.50353 -1.14818,-2.01775 -2.084,-3.36494 -3.02629,-4.35662 -4.10371,-7.01578 -4.33547,-10.70031 -0.29336,-4.66387 1.17969,-8.7504 4.33075,-12.01432 3.13745,-3.24984 6.28361,-4.35025 11.86395,-4.1496 3.05727,0.10993 3.74838,0.22816 6.21771,1.06365 1.52797,0.51699 5.04031,2.01101 7.80521,3.32005 7.39724,3.50222 10.0601,4.19334 12.98931,3.37124 3.60146,-1.01077 5.76158,-3.89081 5.72284,-7.63016 -0.0429,-4.13743 -2.67699,-8.57782 -6.71871,-11.32583 -2.76249,-1.87825 -5.79193,-2.74203 -8.10636,-2.31135 -0.68269,0.12703 -2.61047,0.88042 -4.28396,1.67419 -1.67349,0.79377 -3.54872,1.52181 -4.16718,1.61787 -1.05679,0.16413 -1.12442,0.13677 -1.12349,-0.45448 10e-4,-0.94451 0.91947,-2.31825 2.59693,-3.88624 l 1.50312,-1.40502 -1.03655,0.16856 c -1.55303,0.25255 -3.67256,1.10928 -4.84434,1.95812 -0.57297,0.41505 -1.70258,1.75803 -2.51025,2.9844 -1.71618,2.60585 -2.84269,3.65209 -3.93229,3.65209 h -0.77345 l 1.12448,-1.12448 1.12448,-1.12448 -0.79375,-0.0725 c -2.15924,-0.19736 -2.6396,-0.67168 -0.99306,-0.98057 0.77581,-0.14554 1.46268,-0.66375 3.15954,-2.38367 2.57171,-2.60667 3.96214,-3.36017 7.62718,-4.13329 1.45297,-0.3065 2.90965,-0.72565 3.23707,-0.93146 0.89598,-0.56319 0.74129,-1.32154 -0.41899,-2.054 -1.31259,-0.8286 -3.01316,-2.77082 -4.05854,-4.63525 -2.89854,-5.16956 -4.19483,-7.082 -5.37459,-7.92924 -0.74205,-0.5329 -1.19046,-1.04582 -1.14061,-1.30469 0.0716,-0.37161 0.54215,-0.41719 3.65229,-0.35375 4.26986,0.0871 4.82241,0.21497 7.47632,1.73019 3.60441,2.0579 6.32744,4.1772 9.61931,7.48659 1.76371,1.7731 4.38308,4.11054 5.82083,5.19431 6.22905,4.69546 10.55932,10.52812 12.00074,16.16439 1.19291,4.66457 0.49092,9.73494 -1.83952,13.28654 -3.23195,4.92549 -8.50438,7.76247 -14.4263,7.76247 -4.06647,0 -7.2712,-0.95869 -14.15521,-4.2345 -2.69213,-1.28108 -5.54148,-2.5172 -6.33188,-2.74694 -5.0343,-1.46328 -9.34253,1.26713 -8.94346,5.66808 0.18529,2.0435 1.03594,3.71381 4.17808,8.20402 4.16791,5.95605 5.28293,8.55643 5.26996,12.29026 -0.008,2.42016 -0.34193,3.80544 -1.49368,6.20393 -1.12205,2.33664 -4.51799,5.94027 -6.47193,6.86774 l -1.22521,0.58157 1.72304,1.64533 c 0.94767,0.90492 3.42434,3.55951 5.50371,5.89907 6.5836,7.40739 10.59021,10.79164 15.33746,12.95503 3.92688,1.78954 8.69694,2.43964 12.35078,1.68327 1.94015,-0.40162 4.90367,-1.85773 6.61027,-3.24792 6.50071,-5.29544 8.83963,-16.8427 5.20524,-25.6983 -1.55269,-3.78328 -5.1155,-7.88144 -8.46399,-9.73578 -4.49461,-2.48904 -10.36009,-2.95052 -14.00778,-1.1021 -3.60916,1.82891 -4.96066,6.45563 -3.01122,10.30864 1.16441,2.30142 3.02251,3.66417 5.4497,3.99685 1.78339,0.24444 2.97555,-0.41041 3.97673,-2.1844 1.75671,-3.11271 3.2797,-0.76764 1.63932,2.52418 -1.34237,2.6938 -4.32588,4.1612 -8.01224,3.94073 -2.67643,-0.16006 -4.66334,-1.10592 -6.78757,-3.2312 -5.25719,-5.25975 -5.08257,-13.58803 0.39298,-18.74375 3.3941,-3.19585 6.86275,-4.42938 12.4337,-4.4217 7.16133,0.01 11.91503,2.05045 17.22174,7.39259 4.40942,4.43886 6.96889,9.08048 8.24926,14.96011 0.53814,2.47118 0.44665,10.31164 -0.15282,13.09688 -1.9622,9.11677 -8.32392,17.4854 -15.90535,20.92298 -5.60036,2.53933 -14.21884,2.8024 -20.68605,0.63143 -3.81262,-1.27985 -9.00937,-4.2069 -11.27601,-6.35117 -0.40971,-0.38759 -0.78705,-0.66258 -0.83853,-0.6111 -0.1543,0.1543 1.56769,3.71886 2.8072,5.81097 0.63663,1.07454 1.98322,2.82427 2.99241,3.88831 2.81268,2.9655 6.33492,4.43671 11.85701,4.95257 2.32471,0.21717 2.57996,0.5567 2.57996,3.43171 0,3.23714 0.4366,6.14413 1.70875,11.37742 1.84058,7.57163 2.06322,10.09536 0.97703,11.07501 -0.24025,0.21668 -1.11032,0.64558 -1.93348,0.95311 -1.78815,0.66802 -3.26989,2.15775 -4.42789,4.45173 -0.52888,1.0477 -0.99913,1.62992 -1.40408,1.73838 -0.33488,0.0897 -4.15098,0.16471 -8.48022,0.1667 -8.82424,0.004 -8.1683,0.17547 -7.57931,-1.98077 0.59421,-2.17537 2.89209,-4.17586 5.19295,-4.5209 0.80301,-0.12041 1.06815,-0.25013 0.82554,-0.40388 -0.57503,-0.36439 -3.09667,-0.26828 -3.90315,0.14877 -1.18307,0.61179 -2.4207,2.21763 -3.52451,4.5731 l -1.025,2.18729 h -1.81105 c -1.31104,0 -1.85041,-0.1026 -1.95365,-0.37162 -0.2231,-0.58139 0.45108,-3.05362 1.26955,-4.65546 0.88343,-1.72896 5.53267,-6.4972 6.59504,-6.76384 0.99802,-0.25049 2.15746,0.0342 3.95972,0.97213 1.6679,0.86805 2.44451,0.882 4.36843,0.0785 l 0.89322,-0.37304 -0.13979,-4.56364 c -0.16424,-5.36191 -0.68452,-7.78887 -1.7824,-8.31437 -0.36189,-0.17323 -2.2058,-0.45033 -4.09757,-0.61578 -7.62088,-0.66651 -12.36836,-2.2146 -17.70893,-5.77464 -1.83571,-1.2237 -6.23586,-5.32025 -6.23586,-5.80561 0,-0.13847 0.89671,-0.93859 1.99269,-1.77804 4.15643,-3.18357 8.87638,-9.13169 10.66421,-13.43912 1.29636,-3.12334 2.18409,-8.92046 1.36601,-8.92046 -0.14552,0 -0.26567,0.20836 -0.26701,0.46302 -0.004,0.68562 -2.69676,6.13534 -3.91155,7.91516 -3.00844,4.40777 -7.4672,8.54716 -13.41623,12.45527 -1.89177,1.24276 -4.22222,2.77694 -5.17878,3.40927 -2.30644,1.52468 -2.57836,2.04669 -1.88394,3.61655 0.73824,1.66891 2.31454,3.91805 4.45397,6.35513 3.31243,3.77328 3.79938,4.43622 3.79938,5.1725 0,1.12178 -0.6033,1.73187 -3.79973,3.84259 -4.36081,2.87959 -6.68902,5.51359 -10.19965,11.53926 -1.24326,2.13395 -2.20122,2.71953 -4.20636,2.57127 -1.38057,-0.10207 -1.42547,-0.0822 -2.61417,1.15816 -0.66522,0.69411 -1.52138,1.39096 -1.9026,1.54855 -0.46255,0.19122 -3.64159,0.26316 -9.55666,0.21626 l -8.86354,-0.0703 0.0878,-0.66146 c 0.10434,-0.78587 1.0791,-2.5272 2.0816,-3.71861 0.84193,-1.00058 2.50516,-1.82359 3.70195,-1.83183 0.46435,-0.003 0.91786,-0.12487 1.0078,-0.27039 0.10302,-0.1667 -0.50302,-0.26244 -1.63803,-0.25878 -3.09649,0.01 -4.59327,1.06268 -6.76333,4.75669 l -1.16573,1.98438 -2.59418,0.0761 -2.59418,0.0762 0.13105,-1.16266 c 0.30595,-2.7144 2.68142,-6.06809 5.59369,-7.8972 0.74679,-0.46903 1.85312,-1.29845 2.45852,-1.84315 1.83819,-1.6539 2.68498,-1.63329 6.94996,0.16913 1.34862,0.56994 1.94465,0.68528 2.87923,0.55719 1.32193,-0.18119 5.26369,-1.96925 7.51257,-3.40784 3.23592,-2.06999 7.35439,-6.70905 7.35439,-8.28402 0,-0.93068 -1.855,-2.32158 -5.68333,-4.26143 -5.81022,-2.94408 -8.84424,-5.37016 -10.18845,-8.14693 -1.84058,-3.80213 -0.21325,-10.72326 3.99978,-17.01123 0.70877,-1.05784 1.28866,-1.97722 1.28866,-2.04308 0,-0.37532 -5.23071,1.80998 -8.89695,3.71699 -3.76366,1.95768 -8.8029,4.217 -8.97265,4.02285 -0.37528,-0.42925 -2.30589,-4.70391 -2.66806,-5.90747 -0.56227,-1.86857 -0.63981,-6.37579 -0.14717,-8.55405 0.17759,-0.78522 0.27457,-1.47599 0.21551,-1.53506 -0.22928,-0.22927 -1.7326,3.86078 -2.13029,5.79585 -0.47484,2.31041 -0.53953,6.1133 -0.13393,7.87344 0.14975,0.64985 0.93056,2.58303 1.73512,4.29595 1.68095,3.57873 1.69035,3.9622 0.14465,5.90401 -0.53589,0.67322 -3.89138,3.76253 -7.45664,6.86513 -7.31312,6.36411 -11.54944,10.41598 -13.20127,12.62647 -1.68206,2.25096 -2.14429,3.7084 -2.14604,6.7667 -8.1e-4,1.41727 -0.13358,3.0527 -0.29504,3.63431 -0.28566,1.02896 -2.2307,3.30816 -2.82315,3.30816 -0.15338,0 -0.42223,-0.44648 -0.59743,-0.99219 -0.35576,-1.10807 -0.96545,-1.91822 -1.44359,-1.91822 -0.75534,0 -2.65765,1.78209 -4.37827,4.10158 -1.02212,1.37788 -2.0928,2.63068 -2.37928,2.784 -0.31594,0.16908 -4.00759,0.34347 -9.38257,0.44322 l -8.86169,0.16445 v -1.30098 c 0,-3.35372 1.43013,-4.90808 5.23979,-5.69496 0.90166,-0.18623 1.63937,-0.41745 1.63937,-0.51382 0,-0.0964 -0.66402,-0.25326 -1.47559,-0.34865 -3.0865,-0.36276 -4.90086,0.81211 -6.48859,4.20161 -0.54533,1.16417 -1.07298,2.44409 -1.17255,2.84427 -0.19692,0.7914 -0.23302,0.79613 -4.05616,0.53151 z m 79.87652,-55.66052 c 2.06366,-0.26465 2.33574,-0.36575 2.71579,-1.00913 1.19778,-2.02768 6.88293,-7.40951 10.63704,-10.06952 l 1.5875,-1.12484 -1.05834,0.18553 c -3.1959,0.56025 -8.21548,3.06335 -11.75376,5.86121 -2.13358,1.6871 -5.57644,5.44973 -5.57644,6.09437 0,0.43291 0.48985,0.44178 3.44821,0.0624 z m -45.81978,-32.74956 c 0.29439,-0.18654 0.2733,-0.35749 -0.11778,-0.95435 -0.26202,-0.3999 -0.73071,-1.68809 -1.04152,-2.86264 -0.59858,-2.26204 -1.18205,-2.9802 -1.18601,-1.45981 -0.004,1.61572 -0.33277,3.66007 -0.58822,3.66007 -0.13873,0 -0.99011,-0.74414 -1.89197,-1.65365 -1.88653,-1.90253 -3.32928,-4.58301 -4.09974,-7.61689 l -0.49614,-1.95366 -0.18824,1.11418 c -0.22607,1.33809 -0.47598,1.40072 -1.01459,0.25429 -1.15071,-2.44929 -1.3761,-3.90552 -1.3761,-8.89112 v -4.85623 l -0.62821,1.38444 c -1.40321,3.09236 -1.72661,6.53579 -0.95564,10.17548 0.66731,3.15032 1.47645,4.41382 5.38598,8.41047 3.60447,3.68478 4.61337,4.49777 6.35319,5.11949 1.1476,0.4101 1.3773,0.42628 1.84499,0.12993 z m 23.43201,-24.00225 c 0.34864,-0.13379 0.31076,-0.24513 -0.22748,-0.6685 -1.65198,-1.29945 -3.65041,-1.62693 -4.6823,-0.76728 l -0.62462,0.52036 1.32292,0.0157 c 0.7276,0.009 1.79916,0.24111 2.38125,0.51655 1.23523,0.58452 1.28064,0.59403 1.83023,0.38313 z m -15.95878,-10.18153 c 0.49466,-0.15834 1.06871,-0.34107 1.27568,-0.40606 0.20696,-0.065 -0.80841,-0.69937 -2.25639,-1.40973 -1.44797,-0.71035 -3.55207,-1.95119 -4.67577,-2.75741 l -2.0431,-1.46585 v 1.45217 c 0,2.45627 0.89063,3.78856 3.04271,4.55156 1.0563,0.37451 3.53841,0.39333 4.65687,0.0353 z m 98.40888,-27.63837 c 0.76125,-0.91725 -1.09472,-3.00666 -2.11218,-2.37783 -0.49791,0.30773 -0.2966,1.47157 0.36982,2.13798 0.74929,0.7493 1.26109,0.81975 1.74236,0.23985 z m -36.81504,-2.08727 c -0.0636,-0.0636 -0.84292,-0.47646 -1.73186,-0.91751 -2.89463,-1.43618 -4.85531,-1.55575 -4.85531,-0.29611 0,0.66998 0.4016,0.89034 1.98437,1.08882 1.59756,0.20034 4.7642,0.2862 4.6028,0.1248 z"
       id="path1" /></g></svg>
