<?xml version="1.0" encoding="UTF-8" standalone="no"?>
<!-- Created with Inkscape (http://www.inkscape.org/) -->

<svg
   width="247.58447mm"
   height="239.62193mm"
   viewBox="0 0 247.58447 239.62193"
   version="1.1"
   id="svg1"
   xml:space="preserve"
   inkscape:version="1.4 (86a8ad7, 2024-10-11)"
   sodipodi:docname="Deco6.svg"
   xmlns:inkscape="http://www.inkscape.org/namespaces/inkscape"
   xmlns:sodipodi="http://sodipodi.sourceforge.net/DTD/sodipodi-0.dtd"
   xmlns="http://www.w3.org/2000/svg"
   xmlns:svg="http://www.w3.org/2000/svg"><sodipodi:namedview
     id="namedview1"
     pagecolor="#ffffff"
     bordercolor="#000000"
     borderopacity="0.25"
     inkscape:showpageshadow="2"
     inkscape:pageopacity="0.0"
     inkscape:pagecheckerboard="0"
     inkscape:deskcolor="#d1d1d1"
     inkscape:document-units="mm"
     inkscape:zoom="0.76167929"
     inkscape:cx="468.04476"
     inkscape:cy="462.7932"
     inkscape:window-width="1828"
     inkscape:window-height="1057"
     inkscape:window-x="84"
     inkscape:window-y="527"
     inkscape:window-maximized="1"
     inkscape:current-layer="layer1" /><defs
     id="defs1" /><g
     inkscape:label="Warstwa 1"
     inkscape:groupmode="layer"
     id="layer1"
     transform="translate(18.651408,-26.226207)"><path
       style="fill:#000000"
       d="m 122.4188,265.66561 c -1.95574,-0.40847 -3.62088,-2.25569 -3.62088,-4.01682 0,-1.1565 0.70507,-1.82796 1.91945,-1.82796 1.14621,0 2.54463,-0.69461 2.87992,-1.43047 0.79017,-1.73424 -1.45519,-5.11296 -4.45472,-6.70329 -2.72859,-1.44667 -5.1404,-2.02625 -8.41445,-2.02208 -5.08869,0.006 -8.99649,1.42278 -17.899622,6.48729 -8.876778,5.04953 -13.275112,6.92065 -19.27433,8.19962 -3.904872,0.83248 -10.665038,0.84672 -14.203072,0.0299 -4.937602,-1.13992 -8.604908,-3.02457 -11.46151,-5.89014 -2.453081,-2.46079 -3.704166,-4.66989 -3.704166,-6.54061 0,-1.81727 0.817026,-2.71358 2.473565,-2.71358 1.086754,0 1.332543,0.14227 3.241596,1.87627 4.530467,4.11503 9.666995,5.55439 15.013715,4.20716 2.97567,-0.7498 5.029488,-1.92204 7.226384,-4.12456 3.12145,-3.12943 4.428048,-6.51024 4.387099,-11.35157 -0.04919,-5.81545 -2.428677,-11.05155 -6.958975,-15.31333 -2.144595,-2.01748 -4.85824,-3.8153 -6.862552,-4.54651 -1.558348,-0.56851 -5.594989,-0.7944 -7.374863,-0.41268 -1.697944,0.36414 -3.895303,1.41255 -5.179967,2.47148 -1.362972,1.12348 -2.941323,3.56821 -3.463625,5.36487 -0.557968,1.91934 -0.429229,5.12664 0.260226,6.48304 0.768125,1.51118 2.265856,2.87291 3.784972,3.44129 1.796823,0.67227 2.789777,0.66551 4.224023,-0.0288 1.869661,-0.90509 2.42246,-2.65416 1.413013,-4.47082 -1.348488,-2.42681 -1.389242,-2.58742 -0.911843,-3.59346 1.126127,-2.37314 4.445762,-2.09263 7.03515,0.59448 1.48197,1.53789 2.052331,3.03474 2.059187,5.40411 0.0049,1.70765 -0.112663,2.24535 -0.785642,3.5921 -1.94188,3.88605 -6.347858,6.43818 -11.114797,6.43818 -5.179251,0 -9.969371,-3.07394 -12.420067,-7.97028 -0.590525,-1.17984 -1.073682,-2.36949 -1.073682,-2.64369 0,-0.27419 -0.0501,-0.49852 -0.111342,-0.49852 -0.417279,0 -4.806789,2.03505 -6.106366,2.83101 -2.332508,1.42861 -3.451772,2.38578 -4.658008,3.98343 -4.072594,5.39411 -5.131145,11.9837 -2.431675,15.13742 1.594635,1.86298 3.539605,2.41024 5.310802,1.49431 1.720887,-0.8899 4.253044,-0.20302 4.828184,1.30971 0.939907,2.47215 -0.449015,4.72076 -3.672463,5.94557 -4.326477,1.64393 -9.365176,0.43948 -12.703003,-3.03652 -4.564652,-4.75361 -5.14799,-11.0318 -1.688027,-18.16745 0.55945,-1.15378 0.929055,-2.06608 0.821343,-2.02732 -0.107712,0.0387 -1.492477,1.17182 -3.077256,2.51793 -2.734406,2.32261 -4.442493,4.09106 -7.7303725,8.00357 -4.6931956,5.58481 -7.53139509,8.22267 -11.5715021,10.75469 -4.5836032,2.87265 -10.4887404,3.57747 -11.6583404,1.39151 -0.818502,-1.52976 0.608978,-6.32284 2.942557,-9.88028 1.8067,-2.75424 4.8281723,-5.97719 7.3200543,-7.80818 3.4426979,-2.52964 9.3938262,-5.64454 14.6843743,-7.68601 1.6229844,-0.62626 2.5066944,-1.14628 1.5010844,-0.8833 -0.947403,0.24775 -5.8419425,-0.42836 -8.987937,-1.24156 -10.0559794,-2.59932 -17.198789,-9.55871 -18.990377,-18.50272 -0.551792,-2.75467 -0.392062,-6.72048 0.375365,-9.31964 1.257829,-4.26007 4.088461,-7.9072 7.4036877,-9.53928 1.519879,-0.74823 2.0024094,-0.85661 3.7393299,-0.83983 3.5247339,0.0341 5.83629639,1.62846 5.43811306,3.75096 -0.18898185,1.00736 -1.07629798,2.00264 -3.77387226,4.23305 -3.6835642,3.04564 -4.8047326,9.85618 -2.4701578,15.00498 2.9438842,6.4926 13.9184569,11.29093 24.2314304,10.59453 3.439069,-0.23223 6.909569,-0.90016 13.859637,-2.66741 3.111655,-0.79123 5.939389,-1.43859 6.283854,-1.43859 0.510537,0 0.626299,-0.13784 0.626299,-0.74573 0,-1.23069 0.773407,-3.47816 2.065131,-6.00115 0.958416,-1.87196 1.702609,-2.86594 3.479619,-4.64753 3.824683,-3.83455 7.380396,-5.16886 13.179714,-4.94581 4.867425,0.1872 9.698522,1.88648 13.473309,4.73905 l 1.638399,1.23813 -1.765046,-2.55754 c -4.288885,-6.21457 -7.138463,-9.46012 -11.301335,-12.87172 -10.215259,-8.37172 -19.227784,-12.09557 -28.310415,-11.69748 -4.350093,0.19066 -7.702777,1.33307 -10.401041,3.54409 -4.58245,3.75498 -6.308349,11.212 -3.75387,16.21919 1.272649,2.4946 3.932697,4.23275 6.477752,4.23275 1.509107,0 4.207456,-0.9589 5.134033,-1.82445 0.875271,-0.81762 1.399168,-2.37398 1.175528,-3.49219 -0.177529,-0.88764 -0.4698,-1.15805 -1.524961,-1.41091 -0.42674,-0.10227 -1.230412,-0.64046 -1.785937,-1.19598 -1.290222,-1.29022 -1.34317,-2.26198 -0.194529,-3.57021 0.946398,-1.07789 2.102616,-1.46729 4.362871,-1.46937 5.686748,-0.005 8.996069,5.03191 7.380613,11.23407 -0.565549,2.17129 -1.544987,3.85235 -3.197601,5.48821 -2.797484,2.76912 -5.724655,3.91559 -9.984582,3.91061 -2.889891,-0.003 -4.576847,-0.34648 -6.873566,-1.39795 -3.266726,-1.49556 -6.113067,-4.45608 -7.834983,-8.1493 -2.3468117,-5.0335 -2.2638863,-10.90702 0.232547,-16.4711 2.85063,-6.35351 7.173724,-10.30111 13.700202,-12.51022 1.771016,-0.59945 2.636504,-0.71513 6.161482,-0.82349 4.527874,-0.1392 7.077172,0.19497 10.582332,1.38715 2.370934,0.80641 2.42247,0.80855 1.564002,0.0652 -0.687043,-0.59494 -3.4989,-3.89662 -6.464308,-7.59038 -1.804962,-2.24829 -6.103349,-7.0025 -8.625403,-9.54007 -7.547312,-7.59376 -13.973386,-10.95395 -20.8691216,-10.91244 -4.9246385,0.0296 -8.7269371,1.44903 -11.6857616,4.36227 -3.2110403,3.16157 -4.8550805,6.79102 -4.8247033,10.65121 0.029781,3.78446 1.187415,6.54109 3.7182634,8.85414 4.7942955,4.38172 12.9297546,2.28491 12.8691228,-3.31685 -0.019757,-1.82538 -0.6354574,-2.87986 -2.3051904,-3.94798 -1.5779778,-1.00942 -1.7404807,-1.28078 -1.7404807,-2.90646 0,-0.97258 0.1365751,-1.26149 0.9225677,-1.9516 2.5425209,-2.23237 6.4367787,-1.50644 9.4181187,1.75562 1.823709,1.99543 2.474907,4.17106 2.302322,7.69198 -0.108742,2.21848 -0.246751,2.812 -1.054905,4.53677 -1.090112,2.32653 -2.118245,3.67236 -4.0021,5.23877 -1.5546438,1.29268 -4.4478389,2.74977 -6.3774885,3.21188 -1.8890247,0.45238 -6.0843935,0.37739 -7.8226578,-0.13982 -6.1699727,-1.83583 -10.8502077,-6.80108 -12.7489877,-13.52537 -0.875263,-3.09963 -0.81159,-7.57026 0.153716,-10.79275 1.348043,-4.50018 2.687168,-6.82974 5.824771,-10.13282 3.0262487,-3.18585 6.4594771,-5.33637 9.94506044,-6.22943 l 1.45520825,-0.37284 -3.11907309,-1.47466 c -5.1127931,-2.41726 -8.8301606,-5.2325 -11.5298266,-8.73177 -1.478176,-1.91599 -3.28075,-5.67811 -4.015346,-8.38035 -0.798609,-2.93772 -0.870749,-7.54575 -0.15533,-9.92188 1.139189,-3.78359 3.837903,-7.2348 6.619154,-8.4648 5.7748178,-2.5539 12.41810481,-0.21074 15.1659765,5.3492 0.8649279,1.75006 0.9675192,2.17661 0.9603105,3.9927 -0.012019,3.02787 -1.2813086,5.57011 -3.4013749,6.81255 -1.29984576,0.76176 -2.2394762,0.81844 -3.0120133,0.18171 -0.6464063,-0.53278 -0.8255076,-2.24167 -0.3316521,-3.16445 0.4243061,-0.79282 0.3820521,-2.60103 -0.081739,-3.49791 -0.8827458,-1.70704 -2.8425519,-2.66205 -4.648764,-2.26534 -1.2029934,0.26422 -2.789767,1.80695 -3.3489247,3.25598 -0.695774,1.80305 -0.639153,5.75218 0.111678,7.78932 0.8248423,2.23794 2.6913848,4.87721 5.0239611,7.10384 3.199159,3.05384 6.4497544,5.02677 11.9315848,7.24178 7.9650821,3.21841 13.0223231,6.15243 17.0447561,9.88875 l 1.252961,1.16383 -1.947622,-4.06754 c -3.746313,-7.82404 -5.940281,-13.67924 -7.428204,-19.82419 -0.523496,-2.16198 -0.855631,-2.95731 -1.691358,-4.05014 -3.342928,-4.37134 -5.295089,-9.7944 -4.8969488,-13.6036 0.1417823,-1.3565 0.050735,-1.78851 -0.8221953,-3.90126 -3.8336813,-9.27865 -9.15485588,-14.865301 -14.443533,-15.164138 -1.7510113,-0.09894 -1.7817269,-0.08892 -2.649518,0.864722 -1.3519059,1.485645 -2.3639379,2.001698 -3.9255269,2.001698 -1.591503,0 -2.360867,-0.587757 -3.205752,-2.449042 -1.209056,-2.663554 -0.05342,-5.708396 2.872436,-7.568236 5.3070603,-3.373469 13.78651932,-0.416369 18.4821416,6.445403 0.7881547,1.151741 0.8816923,1.220211 0.7228957,0.529167 C 4.35493,87.376417 0.4033999,80.25523 -4.4950633,76.118054 c -1.6149972,-1.364005 -5.017832,-2.985476 -7.3892027,-3.520999 -2.742462,-0.619327 -3.516662,-1.352954 -3.670375,-3.478028 -0.191895,-2.652909 1.113737,-4.304734 4.26261,-5.392858 6.6570323,-2.300404 14.9128781,4.54476 18.7142604,15.516543 1.1579298,3.342087 2.1387976,6.929443 2.4901463,9.107282 l 0.3235003,2.005217 0.182535,-1.852083 C 10.825207,84.375603 11.467762,80.381103 12.602026,74.928492 15.067297,63.077491 15.61803,58.289389 15.10844,53.137611 14.031658,42.251748 9.5696041,35.757754 2.4025956,34.645755 c -5.6051155,-0.869664 -11.1338397,3.165699 -11.1338397,8.126483 0,4.805819 3.6776043,8.093133 7.3414128,6.562296 0.53592931,-0.223926 1.0637219,-0.551347 1.17287236,-0.727604 0.10915047,-0.176257 0.12655779,-1.172551 0.0386829,-2.213987 -0.15185302,-1.799665 -0.12479959,-1.928493 0.5457971,-2.59909 0.84654074,-0.846541 1.74743754,-0.758827 3.58674564,0.349217 3.2927349,1.983622 3.343233,7.386466 0.097005,10.378734 -2.3123829,2.13148 -5.9142968,3.154794 -9.2363947,2.624086 -4.7930451,-0.765692 -9.166696,-5.042351 -10.413274,-10.182343 -0.408859,-1.685842 -0.408992,-6.494656 -2.27e-4,-8.209403 0.601903,-2.524951 2.106652,-5.160075 4.08564,-7.154794 2.0866773,-2.103263 3.6073762,-3.038917 6.457749,-3.973316 6.831619,-2.239518 14.4338359,-0.0418 19.106594,5.523517 5.038728,6.001186 7.005509,12.250576 6.807745,21.631415 -0.04912,2.329988 -0.004,4.024558 0.100262,3.765711 3.791186,-9.412044 4.440637,-11.525386 4.440637,-14.450038 0,-3.761065 -1.245494,-6.982969 -3.960618,-10.245522 -1.44887,-1.740994 -1.80944,-2.90053 -1.342196,-4.316292 0.766951,-2.323883 2.5884,-3.44951 5.3311,-3.294533 1.523869,0.08611 1.945598,0.223557 2.801071,0.91293 2.50311,2.017104 3.791264,5.35557 3.986158,10.330795 l 0.126156,3.220469 0.925025,-1.236095 c 5.994936,-8.010924 16.202833,-12.808806 27.190594,-12.780033 5.583971,0.01462 9.248245,0.886216 13.60602,3.236364 5.222872,2.816695 9.485181,7.880904 11.223161,13.334658 0.960299,3.013401 1.323871,8.644748 0.7281,11.277505 -0.981518,4.337408 -2.755974,7.522497 -5.951591,10.682911 -4.024267,3.979934 -8.311311,5.757033 -13.917149,5.769044 -5.140398,0.01101 -8.786603,-1.460282 -12.320616,-4.971542 -4.60023,-4.570613 -6.111253,-10.53408 -3.878223,-15.305956 1.038972,-2.220231 3.037639,-4.354544 5.016052,-5.356481 1.410901,-0.714529 1.744127,-0.772535 4.435913,-0.772169 2.543404,3.46e-4 3.060558,0.07901 4.101041,0.623835 3.018282,1.580442 4.176443,3.983581 2.720021,5.643935 -0.235547,0.268529 -0.989774,0.514816 -1.886934,0.616165 -2.006002,0.226611 -3.147163,0.583366 -4.359587,1.362913 -1.063639,0.683883 -2.014701,2.342317 -2.022463,3.526714 -0.02846,4.341829 5.607504,7.584983 10.819472,6.225953 7.548222,-1.968213 11.577726,-9.121534 9.533849,-16.92483 -0.953533,-3.640484 -2.729976,-6.322122 -5.6377,-8.510417 -3.624085,-2.727413 -7.340047,-3.874126 -12.606241,-3.890172 -11.29689,-0.03442 -19.6792,5.329007 -28.473324,18.21868 -4.137976,6.06509 -8.250119,14.827105 -10.299776,21.946411 -0.251373,0.873125 -0.511807,1.766093 -0.578742,1.984374 -0.06693,0.218282 0.180603,-0.109417 0.550082,-0.728219 1.081044,-1.810527 3.086574,-4.310588 4.828118,-6.018655 2.705238,-2.653236 6.295143,-4.474195 9.831121,-4.986782 5.44437,-0.789233 11.074527,2.44418 13.818951,7.936257 1.509251,3.02028 2.044816,7.76296 1.224516,10.843679 -1.232801,4.629913 -5.215949,8.313307 -8.968683,8.293742 -1.246272,-0.0065 -3.174709,-0.786075 -4.116865,-1.664257 -1.685659,-1.5712 -2.14281,-4.291975 -0.95778,-5.700303 1.03337,-1.228091 2.227249,-1.513859 3.864669,-0.925051 l 1.342231,0.48266 0.632281,-0.789973 c 1.762482,-2.202047 0.847526,-6.450347 -1.657041,-7.693934 -0.785471,-0.390007 -1.588846,-0.504372 -3.543062,-0.504372 -2.395492,0 -2.633929,0.05272 -4.573003,1.011059 -1.125157,0.556083 -2.754964,1.601283 -3.621795,2.322667 -1.995871,1.66098 -5.04377,5.59049 -6.347565,8.183609 -1.159474,2.306078 -2.448424,6.333529 -3.003507,9.384747 -0.438505,2.410409 -0.823488,6.217713 -0.628716,6.217713 0.07156,0 0.651097,-0.18388 1.287856,-0.40862 3.145147,-1.110068 4.739794,-1.308742 10.41816,-1.297983 6.036062,0.01144 8.246658,0.289056 13.890625,1.744473 11.626181,2.99804 26.327602,11.92775 39.173711,23.79429 l 2.793505,2.58048 1.225788,-1.81747 1.225787,-1.81747 -1.167169,-1.74056 c -2.854741,-4.25717 -3.26314,-10.37003 -1.030197,-15.41987 0.794619,-1.79704 3.106553,-5.13952 4.248317,-6.142 l 0.88967,-0.781144 -0.521511,-1.323082 c -1.733546,-4.398043 -4.418981,-8.413655 -7.690505,-11.499845 -3.071962,-2.897933 -4.059602,-3.41716 -9.558726,-5.02526 -1.608152,-0.47027 -2.974785,-1.697585 -3.290359,-2.954935 -0.244809,-0.975396 0.449664,-2.536207 1.419175,-3.189561 1.604708,-1.081412 3.641447,-1.093338 6.929145,-0.04057 2.686345,0.860204 4.699146,2.209472 7.580118,5.081285 3.629693,3.618154 5.883482,6.721417 8.096644,11.148348 l 1.861145,3.722799 2.284292,-1.150376 c 4.432331,-2.232131 7.444021,-2.097367 12.704871,0.568507 0.7733,0.39186 1.43792,0.674703 1.47693,0.628539 0.039,-0.04616 0.55994,-1.193493 1.15761,-2.549621 2.79473,-6.34133 7.79234,-12.60987 12.45643,-15.624199 3.33649,-2.156326 8.20377,-3.093264 10.15354,-1.954532 1.86488,1.089149 2.56649,3.293943 1.48551,4.66819 -0.74398,0.94581 -1.70645,1.407414 -4.25939,2.042803 -2.74786,0.683904 -4.67201,1.663032 -7.17159,3.649357 -3.63171,2.885984 -6.95222,7.506722 -9.02843,12.563734 l -0.42189,1.027584 1.94811,2.039069 c 5.26735,5.51327 6.36658,12.81287 2.95029,19.59191 -0.4017,0.7971 -0.96245,1.77828 -1.24613,2.18041 l -0.51577,0.73115 0.61585,0.73211 c 0.33872,0.40266 0.84036,1.23021 1.11475,1.839 l 0.49891,1.10689 2.5438,-2.32971 c 3.57013,-3.26965 10.94688,-9.24747 14.74073,-11.9453 9.34959,-6.64854 19.61823,-11.41296 28.54891,-13.24606 4.0171,-0.824545 10.46827,-1.190661 14.29371,-0.811192 1.80641,0.179188 3.82391,0.488174 4.48335,0.686632 0.65944,0.19846 1.19898,0.30477 1.19898,0.23624 0,-0.698343 -1.53388,-5.853572 -2.33111,-7.83467 -1.46961,-3.651913 -2.54072,-5.310271 -5.07722,-7.860902 -2.47969,-2.493491 -4.68991,-3.866184 -7.78574,-4.835455 -2.16968,-0.679301 -5.42856,-0.788586 -7.29551,-0.244651 -2.85602,0.832098 -5.02709,3.498881 -5.02709,6.174904 0,1.67118 0.41158,2.49024 1.5143,3.013512 1.07054,0.508006 1.82019,0.374137 3.26719,-0.583442 1.22468,-0.810454 2.22555,-0.72179 3.58867,0.317906 1.80736,1.378545 1.68611,4.038854 -0.27131,5.952746 -2.26032,2.210045 -6.75852,2.93248 -9.68635,1.555678 -3.09217,-1.454083 -5.26195,-4.611737 -5.81886,-8.468111 -0.94448,-6.540113 3.25271,-12.870673 10.10302,-15.238245 2.89118,-0.999234 7.19062,-1.147863 10.40056,-0.359541 7.86207,1.930827 14.08455,8.269157 18.16423,18.502442 l 1.01406,2.543596 -0.1514,-1.5875 c -0.2949,-3.092088 -1.19964,-8.759882 -1.73164,-10.847916 -1.69512,-6.653085 -4.62091,-10.681208 -10.19713,-14.039032 -2.12999,-1.282613 -4.59876,-1.968259 -7.087,-1.968259 -2.31834,0 -3.48987,-0.424129 -4.50549,-1.631136 -2.0392,-2.423452 -1.01429,-6.243228 2.08157,-7.757894 3.45611,-1.690914 8.11293,-0.501185 12.41877,3.172761 1.05938,0.903916 2.36627,2.166345 2.9042,2.805397 l 0.97804,1.161914 -1.02626,-2.422227 c -2.5335,-5.979732 -5.82203,-10.72312 -10.97877,-15.835834 -6.5283,-6.472568 -12.66816,-9.766245 -19.9646,-10.70984 -3.71482,-0.480409 -8.47781,0.05497 -11.6648,1.31116 -4.50769,1.776765 -8.91605,6.871182 -10.19507,11.781697 -0.93229,3.579283 -0.30606,7.56642 1.66815,10.620898 1.25875,1.947536 2.80665,3.246407 5.2149,4.375924 1.58165,0.741828 2.18653,0.875421 4.35061,0.960872 2.98518,0.117874 4.77387,-0.420534 6.60543,-1.988283 2.88937,-2.473191 3.19628,-6.992172 0.63783,-9.391268 -1.48091,-1.388666 -4.78243,-2.263447 -6.81711,-1.806284 -0.93713,0.210557 -1.16332,0.167731 -1.68055,-0.318188 -1.28024,-1.202718 -0.44745,-3.940124 1.57629,-5.181309 4.41967,-2.710641 10.81003,-1.008855 13.9676,3.719641 2.01265,3.013968 2.74327,7.340325 1.8655,11.046583 -1.17407,4.957398 -5.62447,9.485312 -10.99562,11.187134 -1.52971,0.484681 -2.42775,0.58233 -5.15937,0.561005 -2.98664,-0.02331 -3.53558,-0.105873 -5.66187,-0.851525 -3.3396,-1.171133 -4.98161,-2.225362 -7.69959,-4.943423 -1.78073,-1.780784 -2.66026,-2.915108 -3.48762,-4.497983 -5.74885,-10.998441 -0.93571,-24.183175 11.00397,-30.143407 3.86115,-1.927468 6.66191,-2.691597 11.26907,-3.074531 6.75233,-0.561234 14.07978,0.989193 19.39357,4.103517 4.8568,2.846491 11.2919,9.074392 14.62504,14.154128 0.38688,0.589613 0.4082,0.372476 0.2995,-3.050369 -0.1538,-4.842973 0.19847,-7.057191 1.56266,-9.822001 2.93001,-5.938298 8.35856,-6.960461 10.44534,-1.966794 0.67477,1.614721 0.48448,2.934845 -0.69399,4.814518 -2.03435,3.244818 -3.6827,6.894138 -4.09547,9.067069 -0.74025,3.896811 -0.41051,7.140924 1.61463,15.885173 l 1.03413,4.46522 0.19754,-2.87772 c 0.40635,-5.919808 1.9924,-14.435831 3.27766,-17.598869 3.79473,-9.338881 10.8552,-15.606926 18.7467,-16.64268 3.67673,-0.482569 6.9789,0.330827 8.33806,2.053845 0.48759,0.618126 0.56352,0.992859 0.47751,2.35687 -0.19044,3.020529 -1.81616,4.275862 -5.99516,4.629278 -2.67897,0.226559 -4.83603,0.761683 -6.50741,1.614358 -5.42029,2.765226 -9.87996,9.31183 -11.55535,16.962767 -0.41445,1.892662 -1.29316,10.818267 -1.28053,13.007128 0.002,0.291042 0.30078,-0.363802 0.66467,-1.455208 0.9151,-2.744679 3.89653,-8.700755 5.19654,-10.381282 1.92874,-2.493292 4.80682,-5.245056 6.56373,-6.275657 6.59109,-3.866326 12.93175,-1.042007 14.03487,6.251549 0.63212,4.179454 -1.02473,8.040949 -4.11163,9.58262 -2.35171,1.1745 -5.69717,0.371579 -5.90901,-1.418179 -0.14907,-1.259539 0.1744,-1.914379 1.67533,-3.39154 1.80418,-1.775602 1.86008,-2.708434 0.21481,-3.58471 -2.5445,-1.355206 -6.61567,1.541505 -9.8886,7.035923 -3.17228,5.325433 -4.87326,10.769457 -7.37772,23.612524 -0.61011,3.128698 -1.17059,5.986198 -1.24551,6.35 -0.0749,0.363802 0.30497,-0.112448 0.84421,-1.058333 1.99145,-3.493234 4.25732,-6.544865 6.5899,-8.875177 2.02887,-2.026892 2.77967,-2.579564 4.90876,-3.613397 4.54502,-2.206944 7.91899,-2.572974 10.94542,-1.187429 1.85091,0.847375 2.85473,2.261964 3.02008,4.255943 0.13857,1.67096 -0.38562,2.875112 -1.50316,3.453015 -0.41683,0.215551 -2.02022,0.579352 -3.56309,0.808446 -1.54287,0.229094 -3.25993,0.576967 -3.81569,0.773051 -5.30855,1.872963 -10.4942,6.649925 -15.72868,14.489079 -2.93804,4.4 -3.02471,4.61955 -2.45734,6.22491 0.24616,0.69649 0.51425,2.32196 0.59575,3.61215 0.11248,1.78044 0.21217,2.22681 0.41364,1.85208 0.67729,-1.25977 3.40874,-4.65354 5.20893,-6.472 3.45911,-3.49421 6.80004,-4.88514 11.26476,-4.68987 2.05667,0.09 2.67581,0.23174 4.12294,0.94416 5.12991,2.52544 7.91488,8.80211 6.43184,14.49587 -1.29987,4.99056 -5.14603,8.40029 -9.49712,8.41947 -2.07769,0.009 -2.93143,-0.32764 -4.33289,-1.70928 -1.23086,-1.21346 -1.69561,-2.23839 -1.69561,-3.73935 0,-0.98403 0.14498,-1.44795 0.60582,-1.93848 0.79821,-0.84967 1.36369,-0.81354 2.80677,0.17933 0.97389,0.67005 1.37242,0.79587 2.13101,0.67276 1.91193,-0.31026 2.82082,-1.81978 2.67281,-4.43912 -0.1699,-3.00672 -1.63015,-4.32308 -4.76383,-4.29438 -4.02533,0.0369 -6.48401,2.19816 -14.10153,12.39592 -2.71753,3.63802 -6.12554,7.88774 -7.57337,9.44381 -2.90027,3.1171 -3.2712,3.77082 -5.61279,9.8921 l -1.42512,3.7255 2.80227,-2.77187 c 3.04159,-3.0086 4.45708,-4.13377 7.30548,-5.80712 6.71399,-3.94429 14.38678,-4.23484 21.29895,-0.80656 1.7386,0.86231 2.7446,1.60623 4.43304,3.27818 1.84516,1.82714 2.36558,2.54762 3.35366,4.6429 1.61944,3.43412 2.07274,5.34535 2.07137,8.73362 -0.001,3.05659 -0.2874,4.69083 -1.30036,7.42591 -2.1202,5.72477 -7.98796,10.74131 -13.86837,11.85651 -7.43329,1.40969 -13.8888,-2.38464 -15.08616,-8.86715 -0.34811,-1.88468 -0.20191,-3.21233 0.58593,-5.3208 0.77292,-2.06852 3.23302,-4.58145 5.10751,-5.21718 2.89354,-0.98135 5.44297,-0.30584 5.44297,1.4422 0,0.88547 -0.32579,1.59215 -1.68651,3.6583 -1.12619,1.71004 -1.44571,3.31695 -0.87699,4.41045 1.72154,3.31002 6.78202,3.33299 10.37731,0.0471 2.5324,-2.31447 3.82785,-5.2959 3.82785,-8.80964 0,-7.00427 -5.2553,-11.78329 -12.96458,-11.78962 -5.05624,-0.004 -9.48455,2.14938 -14.36712,6.98689 -3.5425,3.5098 -6.70182,7.85583 -12.24262,16.84127 -2.90771,4.71539 -7.70385,11.41078 -11.89229,16.60154 l -0.69299,0.85883 1.93657,-1.034 c 2.46655,-1.31697 8.51573,-3.57303 11.37459,-4.24219 11.63981,-2.72447 22.87308,-1.32162 30.46606,3.80471 6.22659,4.20382 11.044,10.90078 12.87171,17.8937 0.7557,2.89135 1.02619,8.88049 0.53423,11.8288 -1.72883,10.36089 -9.31991,18.60077 -19.70793,21.39236 -3.33731,0.89684 -7.98901,1.02511 -10.71562,0.29548 -2.54146,-0.68008 -6.27538,-2.6208 -7.98322,-4.14931 -3.23074,-2.89151 -5.84375,-7.06396 -6.73177,-10.7493 -0.60077,-2.4932 -0.596,-6.61005 0.0104,-8.97666 1.19027,-4.64535 4.55537,-8.95152 8.5019,-10.87953 l 2.10164,-1.02672 h 3.43959 c 3.32941,0 3.49472,0.027 5.16116,0.84269 2.17915,1.06668 4.4818,3.29866 5.46155,5.29394 0.66432,1.35291 0.75288,1.82052 0.7419,3.91753 -0.0141,2.68386 -0.33983,3.56745 -1.93491,5.24794 -1.91314,2.0156 -4.78288,2.73384 -6.32933,1.58413 -1.18418,-0.88038 -1.11819,-2.12602 0.19287,-3.64084 1.26468,-1.46122 1.39131,-2.50742 0.46913,-3.87585 -0.83981,-1.24619 -1.64557,-1.60353 -3.3655,-1.49253 -2.65309,0.17123 -4.62044,1.5936 -5.94294,4.29669 -3.12268,6.38253 0.69434,13.97706 7.97846,15.87433 1.77886,0.46334 5.02971,0.5135 7.01344,0.10823 3.18419,-0.65052 7.31852,-3.30317 9.7705,-6.26889 1.43306,-1.73332 3.00412,-4.85322 3.7013,-7.35026 0.45029,-1.61277 0.58673,-2.80953 0.5865,-5.1444 -3.9e-4,-3.95487 -0.69856,-6.82578 -2.60589,-10.71563 -3.69351,-7.53258 -9.28245,-11.27276 -18.47216,-12.36174 -5.1585,-0.61129 -12.26048,0.52525 -18.56567,2.97109 -6.46847,2.50918 -15.5042,7.25098 -20.89354,10.96457 -2.71401,1.87013 -10.01852,7.81888 -9.83104,8.00636 0.0466,0.0466 0.61209,-0.21 1.25663,-0.57024 4.40715,-2.46321 11.13446,-3.8353 15.09342,-3.07843 2.36924,0.45295 6.20592,2.37419 7.98104,3.99655 3.20479,2.929 3.93016,6.87807 1.72474,9.3899 -0.71988,0.8199 -0.95548,0.92257 -2.11717,0.92257 -1.27459,0 -1.36456,-0.0544 -3.6121,-2.18282 -3.79761,-3.59636 -6.56323,-4.60262 -12.0206,-4.37362 -3.65689,0.15345 -6.46605,0.95424 -10.61928,3.02718 -5.15586,2.57337 -8.43356,5.12328 -15.40602,11.98523 -2.66754,2.62525 -4.81024,4.77319 -4.76157,4.77319 0.0487,0 1.19256,-0.60909 2.54197,-1.35354 6.383,-3.52137 14.98691,-6.57774 20.71861,-7.35987 3.29688,-0.44988 7.91851,-0.34406 10.56899,0.242 4.09492,0.90544 8.66469,3.39946 12.26192,6.69211 1.00229,0.91742 2.34548,2.0456 2.98488,2.50708 0.63939,0.46147 3.67549,3.26467 6.74687,6.22933 10.65695,10.28666 13.93406,12.89641 19.34267,15.40367 3.36043,1.5578 4.60411,1.85043 7.80521,1.83654 2.49636,-0.0108 2.93192,-0.0875 4.29458,-0.75625 2.74937,-1.34927 4.16624,-3.59554 3.80161,-6.027 -0.2421,-1.61446 -0.91085,-2.59186 -2.70798,-3.95781 -1.92925,-1.46638 -2.27772,-2.09348 -2.09998,-3.77917 0.33215,-3.15023 4.2664,-4.78123 7.69198,-3.18883 1.48611,0.69083 4.36179,3.68813 5.2012,5.42119 0.97025,2.00316 1.5464,4.38924 1.54176,6.38499 -0.0209,8.99372 -8.40607,16.25665 -17.45051,15.11503 -5.16458,-0.65189 -11.49684,-3.77193 -14.36317,-7.07703 -0.45512,-0.5248 -0.45911,-0.52059 -0.19843,0.20926 0.40723,1.14019 0.32073,3.82241 -0.15564,4.82629 -0.71136,1.49907 -1.63341,2.23409 -2.80256,2.23409 -1.29135,0 -2.19366,-0.46466 -3.42569,-1.76413 -1.48955,-1.57108 -2.20505,-2.90859 -3.53022,-6.59916 -2.05328,-5.71837 -3.90638,-9.09524 -6.7875,-12.36874 l -0.89824,-1.02058 0.0967,2.12872 c 0.42487,9.35583 -6.49512,18.27709 -15.55137,20.04884 -6.85879,1.34185 -14.60945,-2.07473 -17.83133,-7.86026 -1.26508,-2.27171 -1.74108,-3.85821 -1.93679,-6.45531 -0.43418,-5.7617 2.86613,-10.76358 8.04848,-12.19813 1.43694,-0.39777 1.89291,-0.41602 3.41008,-0.13647 2.9066,0.53556 4.63858,1.72999 5.50047,3.79329 0.79999,1.9151 0.3471,4.45062 -0.91118,5.1013 -1.11156,0.57481 -2.0634,0.48985 -2.95949,-0.26416 -1.58915,-1.33718 -4.03701,-0.65537 -4.8786,1.35884 -1.19365,2.85681 0.42741,6.35303 3.70452,7.9897 3.95386,1.97465 8.66561,1.05928 12.06502,-2.34394 2.47538,-2.47816 3.70157,-5.5435 3.70157,-9.25356 0,-5.10712 -3.03435,-10.42739 -7.43576,-13.03749 -2.81365,-1.66854 -5.37703,-2.35362 -9.379,-2.50661 -7.08135,-0.27071 -12.40429,1.48291 -28.06575,9.24613 l -8.7727,4.34855 2.75632,0.44337 c 4.89228,0.78695 8.68374,2.59387 11.51579,5.48814 3.23027,3.30126 4.22524,7.78787 2.53489,11.43068 -1.68522,3.63175 -6.24992,5.83521 -10.32508,4.9841 z M 82.042301,252.6716 c 11.499569,-2.9361 30.417219,-17.39532 50.706219,-38.75598 8.04138,-8.46612 10.64136,-11.79306 12.7759,-16.34804 1.54796,-3.30326 2.11943,-5.79243 2.29078,-9.978 0.2061,-5.03473 -0.39517,-7.13226 -3.23255,-11.27668 -1.40694,-2.05504 -1.52789,-3.13964 -0.51339,-4.60357 1.45278,-2.09636 4.60284,-2.80918 7.00302,-1.5847 4.11831,2.10101 6.17866,6.93932 5.72193,13.43682 -0.22673,3.22555 -0.58168,4.83607 -1.52918,6.93855 -0.42627,0.94588 -0.66397,1.60073 -0.52821,1.45521 1.08868,-1.16702 6.85708,-8.4084 8.597,-10.79228 4.34037,-5.9468 10.49361,-16.59062 14.25713,-24.66189 1.72463,-3.69867 3.90751,-9.44806 5.02086,-13.22424 0.42984,-1.45792 0.89615,-2.93281 1.03623,-3.27754 l 0.2547,-0.62678 -0.86856,0.58203 c -1.13993,0.76389 -7.59668,3.90232 -8.27689,4.02315 -0.46584,0.0828 -0.55067,0.37608 -0.70885,2.45093 -0.34583,4.53649 -2.1574,8.24638 -5.58864,11.44489 -7.22834,6.73809 -18.25436,7.66653 -29.65526,2.49711 -4.05818,-1.84006 -11.00738,-6.15567 -13.89257,-8.62759 l -1.42656,-1.22223 -0.75625,0.72453 c -0.41593,0.3985 -0.75624,0.82127 -0.75624,0.9395 0,0.11823 1.12281,1.37588 2.49515,2.79477 2.98035,3.08147 3.75821,4.03123 5.57998,6.81314 1.90147,2.90359 3.09433,5.3608 4.18328,8.61723 3.46677,10.36708 2.85698,20.48654 -1.80847,30.01193 -2.94577,6.01432 -5.44721,9.14533 -13.5439,16.95264 -6.51161,6.27887 -8.25293,8.26697 -10.71419,12.23262 -2.36565,3.81159 -2.53738,3.83141 -4.83695,0.55835 -2.90251,-4.13124 -5.687084,-7.33343 -9.219142,-10.60175 -6.72833,-6.22594 -10.626767,-10.37228 -12.727288,-13.53662 -4.037845,-6.08283 -6.165087,-11.33112 -7.05241,-17.39955 -0.451987,-3.09116 -0.16836,-10.5531 0.513424,-13.50768 1.831356,-7.93636 5.421689,-14.49688 11.23008,-20.52043 l 2.343934,-2.43076 -0.861616,-0.76986 -0.861616,-0.76985 -2.046277,1.61311 c -2.290752,1.80584 -4.410246,3.29382 -6.586758,4.6242 -8.95483,5.4736 -15.954559,7.50705 -22.894524,6.65096 -5.788711,-0.71407 -10.137298,-2.85663 -14.052656,-6.92377 -3.312425,-3.44084 -4.359972,-5.7277 -4.541739,-9.91491 l -0.116284,-2.67872 -1.09233,-0.32727 c -1.317106,-0.39461 -6.786631,-3.11919 -8.188426,-4.07896 -0.552166,-0.37805 -1.050303,-0.68737 -1.106972,-0.68737 -0.05667,0 0.293049,1.16086 0.777152,2.57969 3.936982,11.53866 10.847223,24.73677 18.061026,34.49538 1.91819,2.59486 8.918765,10.84976 11.415058,13.46034 l 2.403503,2.51355 -0.933582,-2.06416 c -2.771033,-6.12677 -2.800373,-12.84294 -0.07408,-16.95889 1.527668,-2.30635 4.503952,-3.7618 6.824776,-3.3374 1.360061,0.2487 3.061437,1.41328 3.414993,2.33753 0.715404,1.87018 0.630629,2.37608 -0.628566,3.75104 -0.944056,1.03085 -2.182661,3.69135 -2.656916,5.707 -0.904359,3.84366 -0.137251,9.90821 1.896165,14.99057 1.169456,2.92296 2.281556,4.80117 7.20108,12.16178 5.424371,8.11596 6.910245,10.79142 8.861686,15.95627 2.786026,7.37375 3.020908,15.34081 0.651328,22.09271 -0.985385,2.80776 -1.327741,3.48999 -2.622286,5.22552 -0.56986,0.76399 -0.962793,1.38906 -0.873184,1.38906 0.08961,0 1.105229,-0.24059 2.256933,-0.53464 z m 27.759779,-35.50544 c 1.38245,-1.36064 3.14227,-3.13231 3.91071,-3.93707 l 1.39716,-1.46318 -2.45549,0.65393 c -2.20598,0.58749 -2.97978,0.65467 -7.61488,0.66112 -4.72687,0.007 -5.370076,-0.0498 -7.672913,-0.67331 -1.382448,-0.37428 -2.534061,-0.66367 -2.559141,-0.6431 -0.02508,0.0206 1.641795,1.49095 3.704166,3.26751 2.062368,1.77656 4.464138,3.87484 5.337268,4.66286 l 1.5875,1.43276 0.92604,-0.74383 c 0.50932,-0.4091 2.05714,-1.85706 3.43958,-3.21769 z m 90.94501,-0.89685 c -0.0879,-0.0879 -0.31613,-0.0973 -0.50712,-0.0209 -0.21107,0.0845 -0.14837,0.14716 0.15985,0.15985 0.27892,0.0115 0.43519,-0.051 0.34727,-0.13896 z m -90.35372,-16.10836 c 7.02509,-0.92091 12.40165,-2.99546 16.60015,-6.40517 1.61934,-1.3151 2.12756,-2.19974 2.63858,-4.59288 0.41676,-1.95171 0.62695,-5.35739 0.42861,-6.94479 l -0.18432,-1.47523 -1.81073,1.39904 c -9.04067,6.98519 -26.72879,8.57987 -39.696794,3.57888 -1.782316,-0.68733 -4.521275,-2.3249 -7.399462,-4.42398 -0.426142,-0.31079 -0.480377,-0.20965 -0.638449,1.19062 -0.199513,1.76738 0.187989,5.89615 0.752012,8.01256 0.29012,1.08863 0.640384,1.67501 1.390444,2.32776 4.742442,4.12718 11.677464,6.72164 20.184919,7.5514 2.27079,0.22147 4.95953,0.14562 7.73504,-0.21821 z m 73.1558,-13.52497 c -0.0879,-0.0879 -0.31612,-0.0973 -0.50712,-0.0209 -0.21106,0.0845 -0.14837,0.14716 0.15986,0.15985 0.27891,0.0115 0.43518,-0.051 0.34726,-0.13896 z m -71.77105,-11.61944 c 3.08384,-0.49624 6.48447,-1.46646 8.76623,-2.50106 1.92177,-0.87137 5.01403,-2.84925 5.78296,-3.6989 0.49223,-0.54391 0.48547,-0.57789 -0.48402,-2.43389 -1.03763,-1.98645 -2.80514,-4.46435 -4.35075,-6.09941 l -0.92664,-0.98026 -0.68556,0.48373 c -3.43109,2.42099 -8.74746,3.76227 -14.9095,3.76154 -5.510057,-6.4e-4 -10.49862,-1.16911 -13.628839,-3.19227 l -1.613189,-1.04265 -1.166226,1.37196 c -1.634686,1.92306 -2.879555,3.73835 -3.91434,5.70795 l -0.887969,1.69015 1.313091,1.14186 c 1.730057,1.50446 5.06233,3.35226 7.533563,4.1775 2.007692,0.67044 6.230128,1.64443 7.934739,1.8303 2.53556,0.27647 8.93954,0.15306 11.23645,-0.21655 z M 62.632644,156.76385 c 5.955431,-1.12973 12.603888,-4.46174 17.734545,-8.88803 1.843465,-1.59039 2.399553,-2.33172 1.486143,-1.98121 -0.689291,0.2645 -4.944215,0.90651 -8.941457,1.34914 -2.457591,0.27214 -6.203037,0.40809 -11.244791,0.40817 -7.507601,1.2e-4 -10.605273,-0.19118 -15.296004,-0.94467 -3.156479,-0.50703 -2.97941,-0.53923 -2.97941,0.54187 0,2.96253 3.59421,6.8785 7.854654,8.55781 3.343717,1.31797 7.598173,1.67552 11.38632,0.95692 z m 95.476636,-0.49542 c 4.78582,-1.53996 8.39218,-5.09908 8.94653,-8.82937 0.0919,-0.61846 0.0764,-1.12357 -0.0345,-1.12246 -0.11086,0.001 -1.92797,0.24964 -4.03802,0.55229 -5.52632,0.79266 -17.1312,0.98324 -23.8125,0.39107 -4.72581,-0.41885 -8.87526,-0.99671 -10.65414,-1.48371 -0.77711,-0.21275 -0.68605,-0.0783 0.99685,1.47182 5.24549,4.83162 11.97101,8.33363 18.25625,9.50609 3.18984,0.59504 7.62876,0.38651 10.33949,-0.48573 z m -144.21865,-7.5726 c -0.08994,-0.14552 -0.305323,-0.26276 -0.478636,-0.26053 -0.18934,0.002 -0.156706,0.10642 0.08176,0.26053 0.508297,0.32849 0.599891,0.32849 0.396875,0 z m 134.20438,-6.77443 c -0.0879,-0.0879 -0.31613,-0.0973 -0.50712,-0.0209 -0.21107,0.0845 -0.14837,0.14716 0.15985,0.15985 0.27892,0.0115 0.43519,-0.051 0.34727,-0.13896 z m -76.392925,-1.03261 c 1.964531,-0.21588 4.500333,-0.47069 5.635115,-0.56626 1.134783,-0.0956 1.96822,-0.25743 1.852084,-0.3597 -0.116137,-0.10227 -1.937564,-0.91162 -4.047616,-1.79856 -4.088194,-1.71842 -11.782556,-4.3582 -17.859374,-6.12718 -2.037292,-0.59306 -4.478073,-1.37473 -5.423958,-1.73703 -3.918089,-1.50076 -6.073739,-3.21427 -5.395775,-4.28907 0.397293,-0.62984 1.201487,-0.8063 3.808275,-0.83563 6.288633,-0.0708 18.646297,3.15769 28.442707,7.43072 2.328333,1.01558 4.471458,1.91105 4.7625,1.98993 0.678787,0.18397 -3.634167,-4.22281 -7.408333,-7.56951 -11.228231,-9.95648 -25.94647,-17.93541 -37.639035,-20.40454 -3.721543,-0.78588 -10.064863,-0.98974 -13.07325,-0.42015 -2.808543,0.53176 -3.992312,1.00626 -5.427509,2.17555 -1.713184,1.39577 -2.554414,3.3754 -2.682921,6.3136 -0.08973,2.05163 -0.0085,2.68287 0.552662,4.2966 0.93799,2.69719 2.326739,5.04792 4.585357,7.76163 6.57803,7.90343 17.214867,12.76221 30.93053,14.12871 4.841353,0.48234 14.048501,0.48779 18.388541,0.0109 z m 85.328125,0.0596 c 0.29104,-0.0706 1.30307,-0.21331 2.24895,-0.31713 14.45944,-1.587 27.35989,-9.15591 32.02668,-18.7906 3.03409,-6.26395 2.24251,-11.54308 -2.12876,-14.1969 -2.3346,-1.41735 -7.30668,-2.04359 -12.48459,-1.57246 -4.43734,0.40375 -7.54891,1.0744 -11.90067,2.56499 -10.05567,3.44433 -20.47472,9.70979 -30.0943,18.0971 -2.86283,2.4961 -8.53367,7.98535 -8.39391,8.12511 0.0578,0.0578 1.81569,-0.62643 3.90645,-1.52047 9.05833,-3.87349 17.17647,-6.39489 24.66363,-7.66023 4.69966,-0.79426 9.36859,-0.6253 9.46391,0.34248 0.20705,2.10228 -2.42427,3.47387 -12.48149,6.50606 -7.49619,2.26006 -13.7415,4.38428 -17.58007,5.97952 -3.87642,1.61098 -3.88252,1.52228 0.13229,1.92344 1.96453,0.1963 4.52438,0.4597 5.68854,0.58534 2.1217,0.22898 15.93922,0.17491 16.93334,-0.0662 z M 66.603344,70.483901 c -0.08792,-0.08792 -0.316122,-0.09732 -0.507118,-0.02089 -0.211067,0.08446 -0.148372,0.147157 0.159852,0.159853 0.278915,0.01149 0.435185,-0.05105 0.347266,-0.138965 z M 4.6908472,27.621404 c -0.087919,-0.08792 -0.316122,-0.09732 -0.5071181,-0.02089 -0.2110667,0.08446 -0.148372,0.147157 0.1598525,0.159853 0.2789149,0.01149 0.4351844,-0.05105 0.3472656,-0.138964 z M 107.7196,70.707622 c -0.13696,-0.255914 -0.32688,-1.416773 -0.42203,-2.579687 -0.83855,-10.248037 -1.75692,-15.99555 -3.32027,-20.779616 -0.95262,-2.915114 -2.53636,-6.366075 -3.69322,-8.047525 l -0.840107,-1.221048 -0.901974,0.791945 c -2.001823,1.757624 -4.075711,1.644668 -5.988333,-0.326158 -1.428204,-1.471666 -1.84782,-2.379096 -2.004867,-4.335573 -0.225608,-2.810606 1.247934,-5.471483 3.731713,-6.738613 1.446152,-0.737771 4.532568,-0.606436 6.322178,0.269026 2.8063,1.372818 5.19397,4.27681 6.77738,8.242966 1.03703,2.597587 2.27149,7.297946 2.57104,9.789583 l 0.20676,1.719791 0.32169,-1.852083 c 1.24207,-7.151005 2.07408,-10.035256 3.85432,-13.361458 1.32363,-2.473049 2.81752,-4.029336 4.83702,-5.039054 1.97381,-0.986865 3.65237,-1.047503 4.94185,-0.178525 1.31982,0.889428 1.59719,1.610151 1.49887,3.894663 -0.10272,2.386818 -0.84661,4.001591 -4.08427,8.865853 -5.54311,8.327955 -6.40828,10.33779 -9.737,22.619562 -1.89874,7.005659 -2.58555,8.731249 -3.47517,8.731249 -0.19061,0 -0.45862,-0.209384 -0.59558,-0.465298 z"
       id="path1" /></g></svg>
