<?xml version="1.0" encoding="UTF-8" standalone="no"?>
<!-- Created with Inkscape (http://www.inkscape.org/) -->

<svg
   width="249.67068mm"
   height="247.55296mm"
   viewBox="0 0 249.67068 247.55296"
   version="1.1"
   id="svg1"
   xml:space="preserve"
   inkscape:version="1.4 (86a8ad7, 2024-10-11)"
   sodipodi:docname="Apollon.svg"
   xmlns:inkscape="http://www.inkscape.org/namespaces/inkscape"
   xmlns:sodipodi="http://sodipodi.sourceforge.net/DTD/sodipodi-0.dtd"
   xmlns="http://www.w3.org/2000/svg"
   xmlns:svg="http://www.w3.org/2000/svg"><sodipodi:namedview
     id="namedview1"
     pagecolor="#ffffff"
     bordercolor="#000000"
     borderopacity="0.25"
     inkscape:showpageshadow="2"
     inkscape:pageopacity="0.0"
     inkscape:pagecheckerboard="0"
     inkscape:deskcolor="#d1d1d1"
     inkscape:document-units="mm"
     inkscape:zoom="0.19041982"
     inkscape:cx="-1026.6788"
     inkscape:cy="-622.30916"
     inkscape:window-width="1828"
     inkscape:window-height="1057"
     inkscape:window-x="3924"
     inkscape:window-y="-8"
     inkscape:window-maximized="1"
     inkscape:current-layer="layer1" /><defs
     id="defs1" /><g
     inkscape:label="Warstwa 1"
     inkscape:groupmode="layer"
     id="layer1"
     transform="translate(-250.9051,-310.24352)"><path
       style="fill:#000000"
       d="m 368.30251,557.56184 c -9.64382,-0.60374 -21.08749,-2.7724 -30.55937,-5.79123 -10.42397,-3.32228 -23.53412,-9.79222 -33.03515,-16.30305 -7.50334,-5.14187 -15.07283,-11.7849 -21.22734,-18.62929 -12.30638,-13.68582 -20.79983,-28.18719 -26.41397,-45.09813 -7.57372,-22.81362 -8.18338,-48.0029 -1.72898,-71.43567 7.82114,-28.39471 26.38885,-53.76121 51.3169,-70.10722 15.12433,-9.91744 32.9937,-16.51373 51.19687,-18.89878 7.11565,-0.93232 11.83774,-1.1684 20.18096,-1.00896 11.20944,0.21421 18.85662,1.15086 28.54675,3.49648 23.68791,5.73396 45.45932,18.5895 61.65907,36.40834 17.74993,19.52394 28.14411,42.09039 31.59198,68.58824 0.70149,5.39119 0.98029,18.04554 0.51969,23.58882 -2.29452,27.61485 -11.91361,50.92649 -29.50897,71.51427 -16.0853,18.82091 -37.6672,32.60763 -61.54655,39.31651 -13.24027,3.71985 -27.30986,5.21621 -40.99189,4.35967 z m -5.683,-11.19589 c 6.84746,-1.86778 14.26991,-4.35044 22.35175,-7.4762 3.56526,-1.37892 8.05372,-3.11012 9.97435,-3.84713 l 3.49205,-1.34 1.79961,0.56068 c 2.74561,0.85543 4.85654,1.10515 9.34024,1.10496 6.67498,-2.8e-4 13.50658,-0.99752 22.62187,-3.30221 6.43639,-1.62736 6.55302,-1.66781 7.88858,-2.73543 l 1.00942,-0.80691 -0.87712,-0.14397 c -0.48242,-0.0792 -2.96072,-0.33684 -5.50734,-0.57256 -2.54661,-0.23572 -4.67312,-0.46874 -4.72557,-0.51783 -0.0524,-0.0491 0.23425,-0.92938 0.63711,-1.95621 0.58213,-1.48374 0.84599,-1.86696 1.28547,-1.86696 2.56877,0 12.11163,-0.6193 12.78688,-0.82983 1.80175,-0.56175 2.45808,-2.4866 1.30497,-3.82717 -0.60072,-0.69839 -0.75613,-0.73043 -5.75469,-1.18668 -2.82551,-0.2579 -6.41721,-0.55218 -7.98156,-0.65395 -1.56435,-0.10177 -2.84418,-0.25901 -2.84406,-0.34943 3.7e-4,-0.28003 0.93567,-2.64368 1.11843,-2.82645 0.0951,-0.0951 3.72202,-0.3368 8.05991,-0.5372 4.33789,-0.2004 8.19776,-0.43154 8.57749,-0.51364 0.92075,-0.19907 2.03956,-1.40421 2.24164,-2.41459 0.13263,-0.66314 0.0162,-0.98133 -0.61932,-1.69261 -0.96589,-1.08102 -1.32668,-1.12795 -12.23461,-1.59144 -4.29287,-0.18241 -7.83754,-0.35457 -7.87705,-0.38259 -0.0395,-0.028 0.17612,-0.69886 0.47917,-1.49077 l 0.55099,-1.43984 8.30712,-0.30582 c 8.73304,-0.3215 9.53779,-0.45117 10.17359,-1.63917 0.90881,-1.69812 -0.32127,-2.70453 -4.00355,-3.27557 -5.14614,-0.79805 -10.93699,-1.29326 -15.56777,-1.33128 -5.33516,-0.0438 -5.69691,0.0434 -11.24479,2.71105 -6.20292,2.98259 -12.29436,7.26524 -17.57456,12.35599 l -3.12894,3.01667 -3.27429,0.77729 c -10.60848,2.51836 -20.09108,3.90307 -40.05138,5.84857 -4.8724,0.4749 -12.52177,1.57246 -15.85027,2.27424 -5.65829,1.19301 -10.78347,3.17927 -14.74897,5.71597 -2.04043,1.30525 -4.65732,3.80017 -4.32576,4.12414 0.55174,0.53909 8.09016,4.30696 11.64167,5.81877 4.40812,1.87646 11.25497,4.26021 15.47691,5.38834 3.13412,0.83746 10.66911,2.54464 11.38384,2.57921 0.22133,0.0107 2.78118,-0.6294 5.68854,-1.42244 z m -43.00826,-25.76084 c 1.6139,-5.78211 0.55825,-15.64353 -2.75676,-25.75239 -1.04281,-3.17998 -3.88478,-10.59818 -4.01164,-10.47132 -0.0457,0.0457 0.2591,2.45885 0.67732,5.36257 1.63407,11.34559 1.98155,15.20235 1.98941,22.08054 0.007,6.15348 -0.21983,8.88103 -1.10811,13.32241 -0.14825,0.74126 0.006,0.65161 2.38952,-1.38697 1.97794,-1.69183 2.60892,-2.39767 2.82026,-3.15484 z m -15.92644,0.94284 c 2.00687,-6.98212 2.3856,-14.22039 1.12481,-21.49739 -0.58188,-3.35851 -1.97145,-9.59317 -2.18591,-9.80762 -0.0699,-0.0699 -0.79464,0.0467 -1.61048,0.25921 -2.07822,0.54131 -4.91064,0.78281 -6.64283,0.56639 l -1.4694,-0.18359 2.18044,-1.60682 c 4.46456,-3.29001 7.86545,-7.33131 10.40189,-12.36062 2.99947,-5.94742 5.36294,-14.96658 6.25558,-23.87176 l 0.30914,-3.08397 -2.01973,-2.14699 c -1.27,-1.35001 -2.29559,-2.7396 -2.76287,-3.74345 l -0.74315,-1.59648 -3.17499,0.11919 c -7.82414,0.29371 -14.84821,4.29998 -20.20436,11.52381 -4.82855,6.51227 -7.18491,14.10904 -7.22125,23.28085 -0.0304,7.66693 1.54623,14.16607 5.20621,21.46122 2.79609,5.57323 6.23129,10.10316 12.15029,16.02234 3.25716,3.25725 9.25607,8.58391 9.66725,8.58391 0.1034,0 0.43611,-0.8632 0.73936,-1.91823 z m 52.25978,-12.93782 c -8.54633,-4.7649 -17.31917,-13.93403 -24.96173,-26.08929 -2.67056,-4.24744 -6.70715,-12.28581 -9.2351,-18.39055 -1.07031,-2.58469 -1.99084,-4.65463 -2.04561,-4.59985 -0.15294,0.15294 0.90988,6.73176 1.66633,10.31449 1.68156,7.96431 4.87414,16.20336 8.61727,22.23854 5.02627,8.10402 11.82721,13.62 20.225,16.40374 2.55128,0.84571 5.33208,1.42675 6.97926,1.4583 l 1.19063,0.0228 z m 102.51574,-33.76113 0.0672,-32.08073 h -2.11773 -2.11772 l 0.004,27.7151 c 0.003,24.57664 0.0512,27.84993 0.42198,28.90573 0.53038,1.51026 0.55304,3.82962 0.0491,5.02708 -0.37009,0.87942 -0.35649,0.96996 0.27001,1.79835 0.6141,0.81199 0.75293,0.86687 2.00791,0.79375 l 1.34819,-0.0786 z m -59.46851,28.18212 c 10e-4,-0.10694 -0.30141,-1.23804 -0.67268,-2.51354 -2.71837,-9.33901 -1.54826,-19.38799 3.84381,-33.01077 0.69119,-1.74625 2.22066,-5.44844 3.39883,-8.2271 3.52139,-8.30501 4.28275,-11.23779 4.27684,-16.47452 -0.004,-3.649 -0.61793,-6.9678 -1.81826,-9.8312 -1.17374,-2.79994 -1.10225,-2.7258 -2.1328,-2.2117 -2.28737,1.14109 -4.35059,0.60474 -6.33175,-1.64598 -1.73572,-1.97188 -2.01932,-4.12873 -0.84344,-6.41451 0.6983,-1.3574 1.75191,-2.279 3.54091,-3.09723 3.90676,-1.78683 9.3014,-0.27362 13.27735,3.72434 1.01865,1.02428 2.25891,2.55175 2.75613,3.39436 1.37238,2.32568 2.64859,6.00077 3.14645,9.0608 l 0.44742,2.74998 2.4474,4.4e-4 2.44739,4.5e-4 v -2.38125 -2.38125 h 1.7198 1.71979 v 2.38125 2.38125 h 2.24895 2.24896 v -2.38125 -2.38125 h 1.85209 1.85208 v 2.38125 2.38125 h 2.11667 2.11666 v -2.38125 -2.38125 h 1.85209 1.85208 v 2.38125 2.38125 h 2.24896 2.24896 v -2.38125 -2.38125 h 1.71979 1.71979 v 2.38125 2.38125 h 2.11667 2.11666 v -2.38125 -2.38125 h 1.71979 1.7198 v 2.38125 2.38125 h 1.97238 1.97239 l 0.16245,-0.99219 c 1.14433,-6.98887 2.83944,-10.95781 6.06589,-14.20274 2.97425,-2.99128 6.17386,-4.38635 10.04939,-4.38166 4.3779,0.005 7.02919,2.4007 7.02552,6.34742 -10e-4,1.2995 -0.92169,3.55046 -1.75405,4.28937 -1.20071,1.06593 -2.97735,1.58687 -5.08506,1.49103 l -2.02037,-0.0919 -0.73968,1.52622 c -1.46424,3.02128 -1.8744,5.18547 -1.86695,9.85086 0.009,5.75142 0.0552,5.91254 5.25201,18.38854 0.81832,1.96454 1.8839,4.87489 2.36796,6.46745 l 0.88011,2.89557 0.96617,-2.98866 c 2.08897,-6.46182 3.65477,-14.30526 4.51626,-22.62292 2.47797,-23.92453 -3.07286,-48.62365 -15.67344,-69.74101 -10.96865,-18.3824 -27.78056,-34.06377 -46.69187,-43.55204 -11.86178,-5.95133 -26.14891,-10.19787 -40.02724,-11.89721 -4.68886,-0.57413 -16.36227,-0.78719 -21.96755,-0.40095 -20.38559,1.40471 -39.60474,7.77159 -56.34911,18.66725 -13.93261,9.06602 -26.54424,22.2119 -35.32651,36.82298 -8.41967,14.00784 -13.64427,29.45532 -15.78189,46.66205 -0.64599,5.19993 -0.64586,18.78901 2.4e-4,24.20937 1.23818,10.3876 3.3761,19.34093 6.76715,28.33994 1.53498,4.07346 1.58451,4.16254 1.59745,2.87299 0.0435,-4.33797 1.71799,-12.55423 3.44937,-16.92543 3.77465,-9.52986 10.09344,-16.49501 19.84732,-21.87755 3.66976,-2.02511 9.83164,-4.37288 16.19209,-6.16943 2.3453,-0.66245 2.6271,-0.8129 3.27572,-1.74886 0.39032,-0.56323 1.25461,-1.38501 1.92064,-1.82617 1.19013,-0.7883 4.11306,-1.84778 5.09775,-1.84778 0.83473,0 0.5741,-0.39107 -0.96883,-1.45373 -3.81564,-2.62793 -5.27325,-5.9815 -4.25563,-9.79106 0.38531,-1.44243 1.28863,-3.35003 2.04517,-4.31891 0.4749,-0.60819 0.4681,-0.62939 -0.63816,-1.98757 -1.87384,-2.30057 -2.41101,-3.83705 -2.42022,-6.92269 -0.007,-2.43658 0.0591,-2.78726 0.83914,-4.43402 1.00581,-2.12335 3.11736,-4.45267 4.75505,-5.24547 0.71047,-0.34393 1.12572,-0.70415 1.0473,-0.90851 -0.44994,-1.17254 -0.75043,-3.86105 -0.62173,-5.56277 0.18152,-2.40009 1.02071,-4.3614 2.59851,-6.07311 2.08948,-2.26682 4.62539,-3.235 10.06255,-3.84178 6.44364,-0.7191 9.14304,-1.98979 10.68302,-5.0288 l 0.63047,-1.24418 -1.54765,0.62513 c -0.85122,0.34382 -2.89994,0.85631 -4.55273,1.13887 -5.79961,0.99149 -7.52887,1.55965 -10.20126,3.35168 -0.95862,0.64283 -1.76898,1.13738 -1.80078,1.099 -0.0318,-0.0384 -0.20335,-1.08182 -0.38121,-2.31874 -0.39996,-2.78155 -0.40643,-8.76538 -0.0122,-11.2448 1.45342,-9.14 6.08958,-17.76736 13.16526,-24.49901 5.80203,-5.51993 12.93627,-9.04357 21.72085,-10.72803 3.09031,-0.59258 4.38014,-0.69753 8.90538,-0.72461 3.49528,-0.0209 5.98776,0.0933 7.34218,0.33648 1.12779,0.20249 2.05052,0.40556 2.05052,0.45127 0,0.0457 -0.29823,0.52258 -0.66273,1.0597 -0.88616,1.30584 -1.43856,3.24101 -1.63498,5.72764 -0.12434,1.57413 -0.0833,2.05052 0.17674,2.05052 0.59651,0 1.95482,-1.68881 3.15746,-3.92573 1.77916,-3.30929 3.74145,-4.87477 7.23212,-5.76967 1.99176,-0.51063 4.43377,-0.36769 6.68132,0.39108 1.46082,0.49317 1.66288,0.50069 3.4216,0.12748 3.63157,-0.77065 6.34167,-0.0885 8.17967,2.05875 1.20536,1.40819 1.4664,2.87755 0.84742,4.76997 -0.51266,1.56737 -0.40389,2.08251 0.44047,2.08613 0.33199,0.001 1.2216,0.29031 1.97691,0.64198 3.27618,1.52536 4.33898,5.46812 2.46444,9.14252 l -0.52973,1.03837 0.64488,0.95028 c 0.98053,1.44489 1.28782,2.66576 1.13867,4.52388 -0.1639,2.04177 -0.97414,3.53378 -2.82058,5.19388 -0.72297,0.65002 -1.97436,1.46747 -2.78087,1.81657 l -1.46638,0.63472 0.19439,1.71979 c 0.10691,0.94589 0.19439,3.20808 0.19439,5.02709 0,3.14665 -0.036,3.36857 -0.74163,4.56896 l -0.74163,1.26167 1.46154,4.44531 c 2.0263,6.163 3.08504,10.37236 3.258,12.9532 0.14316,2.13602 0.12716,2.21558 -0.59741,2.97187 -1.12782,1.17719 -2.71394,1.68499 -4.59748,1.47189 -0.8629,-0.0976 -1.62779,-0.0822 -1.69978,0.0343 -0.072,0.11647 3.1e-4,1.20536 0.16064,2.41976 0.26484,2.00598 0.23981,2.36884 -0.27363,3.96605 -0.31083,0.96693 -0.63042,2.33439 -0.71021,3.0388 -0.0798,0.70441 -0.38491,1.82296 -0.67806,2.48566 -0.49152,1.11116 -0.50833,1.37543 -0.21611,3.39654 0.75208,5.2016 -1.28113,8.76118 -5.81403,10.17874 -1.24884,0.39055 -2.81971,0.6007 -5.30079,0.70913 -3.41742,0.14936 -3.52142,0.17119 -3.37706,0.70893 0.0819,0.30516 0.15058,1.33284 0.15257,2.28374 l 0.004,1.7289 4.43177,1.24794 c 2.43748,0.68637 4.8141,1.3213 5.28139,1.41097 0.68747,0.13192 0.90784,0.34646 1.15473,1.1242 0.82047,2.58456 3.50178,5.45271 5.95588,6.37091 0.86074,0.32204 2.08658,0.54339 3.00939,0.54339 1.52466,0 1.5627,0.0179 1.82826,0.85989 0.97819,3.10152 1.09392,7.92569 0.2862,11.93083 -0.53554,2.65552 -1.39931,4.96667 -5.55314,14.85823 -2.33047,5.54958 -4.75523,12.76333 -5.64734,16.80104 -1.03464,4.6828 -1.3051,7.58968 -1.13242,12.17084 0.19698,5.22587 0.95393,8.90592 2.79325,13.58002 l 0.29424,0.74773 1.31946,-1.54148 c 0.72571,-0.84782 1.32052,-1.62898 1.32181,-1.73592 z m 27.13616,-76.73316 c -0.0559,-0.1819 -0.35912,-2.95011 -0.67379,-6.15157 -0.31467,-3.20145 -0.97955,-9.20149 -1.47753,-13.33342 -0.49797,-4.13192 -0.9054,-7.6145 -0.9054,-7.73906 0,-0.12456 -0.15842,-0.22647 -0.35204,-0.22647 -0.19362,0 -0.93102,-0.29312 -1.63867,-0.65138 -0.71505,-0.36201 -1.41084,-0.55718 -1.5662,-0.43933 -0.15375,0.11663 -1.23205,0.98925 -2.39622,1.93916 -1.16416,0.94991 -4.84739,3.88715 -8.18494,6.5272 -5.97691,4.72783 -6.48258,5.01775 -6.49538,3.72413 -0.002,-0.22527 2.86104,-4.14863 6.36282,-8.71858 4.00853,-5.23127 6.31609,-8.46069 6.22977,-8.71853 -0.89217,-2.66502 -0.71555,-2.492 -2.83731,-2.77938 l -1.22087,-0.16537 -0.14434,-1.39852 c -0.0794,-0.76919 -0.34559,-2.20098 -0.59156,-3.18177 -0.24597,-0.98079 -0.38597,-1.8445 -0.31111,-1.91937 0.0749,-0.0749 1.06037,-0.27902 2.19002,-0.45368 1.38305,-0.21384 2.08767,-0.44449 2.15729,-0.70618 0.0569,-0.21373 0.28709,-0.82421 0.51159,-1.35661 l 0.4082,-0.968 -3.86574,-5.082 c -4.20393,-5.52661 -4.06146,-5.20172 -3.64411,-8.31032 l 0.17526,-1.30541 4.29538,3.86114 c 2.36246,2.12362 4.92954,4.40291 5.70462,5.06508 l 1.40923,1.20395 1.28554,-0.65083 c 0.70704,-0.35795 1.44168,-0.65082 1.63253,-0.65082 0.19084,0 0.40755,-0.26789 0.48156,-0.59531 0.16301,-0.72108 2.05521,-17.18385 2.65334,-23.0849 0.53431,-5.2714 0.5661,-5.42404 1.12982,-5.4236 0.40503,3.2e-4 0.60371,1.20089 1.71859,10.3849 0.69333,5.7115 1.45658,12.18488 1.69609,14.3853 l 0.43548,4.00077 1.66056,0.65251 1.66056,0.65251 2.99335,-2.52348 c 1.64634,-1.38792 6.28965,-5.34881 10.31846,-8.802 5.76454,-4.94091 7.38679,-6.2042 7.6146,-5.92971 0.21769,0.2623 0.13344,0.53659 -0.33974,1.10601 -0.34607,0.41647 -4.09344,5.30041 -8.32748,10.85321 l -7.69827,10.09599 0.57982,1.47312 c 0.54896,1.39471 0.63619,1.48031 1.63893,1.60838 0.58251,0.0744 7.25036,0.67817 14.81744,1.34172 7.56708,0.66355 14.02622,1.26267 14.35365,1.33139 0.34657,0.0727 0.59531,0.32097 0.59531,0.5941 0,0.417 -0.72808,0.54976 -6.54844,1.19403 -12.01361,1.3298 -22.9462,2.58761 -23.52861,2.70698 -0.39376,0.0807 -0.7923,0.59051 -1.25966,1.61135 l -0.68365,1.49329 1.11606,1.48307 c 0.61384,0.8157 4.43526,5.63419 8.49205,10.70777 5.06966,6.34031 7.29061,9.31007 7.10295,9.49774 -0.27424,0.27423 -5.73214,-3.9998 -16.56871,-12.97479 l -4.75822,-3.94082 -1.49784,0.68409 -1.49785,0.68409 -0.27848,1.85208 c -0.15317,1.01865 -0.94245,6.97177 -1.75396,13.22917 -0.81151,6.25739 -1.5344,11.64497 -1.60643,11.97239 -0.14139,0.64273 -0.60319,0.80176 -0.76832,0.26459 z m 4.41807,-31.75198 c 6.05108,-2.77027 7.24471,-10.66275 2.28674,-15.12039 -1.92629,-1.7319 -3.77208,-2.35248 -6.58653,-2.21447 -3.61288,0.17717 -6.21191,1.82678 -7.72589,4.90367 -0.79979,1.62543 -0.87136,1.9746 -0.85274,4.16027 0.0236,2.76576 0.53179,4.19118 2.12184,5.95118 2.73681,3.02933 7.13489,3.97781 10.75658,2.31974 z m 34.8109,109.65324 c 4.20877,-2.33526 7.14494,-5.28017 8.93365,-8.96023 1.25043,-2.57262 1.68724,-4.85528 1.69273,-8.84596 0.007,-5.38078 -0.69879,-8.61553 -4.23865,-19.41539 -3.74672,-11.43096 -4.90485,-15.90047 -5.57034,-21.49739 l -0.32247,-2.71198 h -1.94343 -1.94343 v 31.50324 31.50325 l 0.59531,-0.17706 c 0.32742,-0.0974 1.5859,-0.7267 2.79663,-1.39848 z m -14.50444,-35.50179 v -25.92916 h -2.24896 -2.24896 v 25.47356 25.47356 l 1.78594,0.42192 c 0.98226,0.23206 1.99429,0.43708 2.24895,0.4556 0.43806,0.0319 0.46303,-1.36459 0.46303,-25.89548 z m -36.36376,24.10579 c 0.57303,-0.27526 3.06594,-1.11174 5.5398,-1.85886 2.47385,-0.74711 5.00393,-1.54378 5.62239,-1.77037 l 1.12448,-0.41199 v -22.99687 -22.99686 h -2.51354 -2.51354 v 1.30377 c 0,3.6448 -1.4938,9.98782 -4.58431,19.46602 -4.20828,12.90626 -5.44282,18.73512 -5.14553,24.2945 0.11938,2.23236 0.86633,5.47112 1.2618,5.47112 0.0916,0 0.63541,-0.22521 1.20845,-0.50046 z m 28.16167,-24.89954 v -25.13541 h -2.11802 -2.11802 l 0.0675,24.80468 0.0675,24.80469 1.85208,0.29937 c 1.01865,0.16466 1.94138,0.31349 2.05053,0.33073 0.10914,0.0172 0.19843,-11.27958 0.19843,-25.10406 z m -63.43212,23.71339 c 1.41978,-0.36577 3.68196,-1.1857 5.02708,-1.82207 l 2.44567,-1.15705 -3.83646,-0.002 c -11.40149,-0.006 -23.42999,-4.92339 -36.27573,-14.82874 -6.00559,-4.63091 -14.81946,-14.04033 -19.51,-20.82829 -0.89587,-1.29646 -1.62885,-2.22629 -1.62885,-2.06628 0,0.64801 1.46254,4.33189 2.8066,7.06932 3.71564,7.5676 9.96043,15.88286 15.93596,21.21955 7.90955,7.06393 16.51026,11.68188 24.05354,12.91499 3.30533,0.54032 7.72716,0.3393 10.98219,-0.49928 z m 55.43005,-27.62858 0.0677,-21.22022 h -2.25053 -2.25053 v 22.37768 22.37769 l 2.18281,-1.15747 2.18281,-1.15746 z m -54.96876,2.08261 c 9.06876,-2.03028 16.12361,-7.66674 18.6859,-14.92906 l 0.37766,-1.0704 -2.0573,1.98754 c -4.53654,4.38271 -9.60949,7.03595 -15.38727,8.04782 -2.59424,0.45433 -8.95319,0.51303 -12.20926,0.1127 -10.04691,-1.23527 -21.40977,-5.22423 -33.92525,-11.90954 -2.74489,-1.46622 -5.11377,-2.62483 -5.26419,-2.57469 -0.48539,0.16179 5.64571,5.84746 9.04341,8.38639 8.66322,6.47359 19.02722,10.99533 27.90401,12.17432 1.16417,0.15462 2.47386,0.33212 2.91042,0.39445 1.70444,0.24334 7.75531,-0.13448 9.92187,-0.61953 z m -0.19957,-17.60949 c 2.5604,-0.5359 5.11311,-1.84081 6.69003,-3.41985 1.51341,-1.51545 2.82947,-3.95611 2.87316,-5.32836 l 0.0291,-0.91364 -2.91042,-1.27204 c -1.60073,-0.69962 -3.83144,-1.75484 -4.95715,-2.34493 l -2.04674,-1.07288 -0.7092,1.22032 c -1.77946,3.0619 -5.70078,9.26883 -6.02652,9.53917 -0.43518,0.36116 -0.5772,-0.77596 -0.83057,-6.64991 -0.16406,-3.80351 -0.15021,-3.9461 0.64257,-6.61458 0.44564,-1.5 1.06036,-3.78131 1.36605,-5.06958 0.68641,-2.89278 0.76736,-2.77369 -3.2855,-4.83323 -4.2982,-2.18421 -6.11607,-3.47761 -8.8285,-6.28142 -5.2005,-5.3757 -8.12082,-11.6104 -8.68287,-18.53734 l -0.18572,-2.28891 -1.42382,-0.67358 c -0.7831,-0.37046 -1.76569,-0.96124 -2.18355,-1.31285 -0.62303,-0.52424 -0.78702,-0.56818 -0.91136,-0.24417 -0.0834,0.2173 -0.87309,4.29509 -1.75491,9.06175 -2.30021,12.43388 -3.77966,17.97135 -5.27465,19.74276 -0.67847,0.8039 -4.98972,3.93259 -7.69193,5.58203 -1.38245,0.84386 -2.52761,1.54865 -2.54481,1.5662 -0.0172,0.0175 0.24203,1.37482 0.57605,3.01616 0.33403,1.64134 0.69044,4.04669 0.79202,5.34523 l 0.18469,2.36096 2.24572,0.94008 c 10.02334,4.19585 24.82617,8.05937 33.93591,8.85722 3.42164,0.29968 8.52898,0.12436 10.91293,-0.37461 z m -21.76084,-4.73201 -2.77813,-0.58303 -0.19307,-2.90113 c -0.15972,-2.39984 -1.34814,-14.61286 -1.96867,-20.23134 -0.0884,-0.80036 -0.0678,-1.36893 0.0457,-1.26347 0.11354,0.10545 2.1314,5.90975 4.48413,12.89843 3.88986,11.55464 4.22831,12.70475 3.73292,12.68514 -0.29963,-0.0119 -1.79493,-0.28394 -3.3229,-0.6046 z m -35.65114,-1.04955 c 2.05015,-0.8566 3.90114,-3.13817 3.90114,-4.80862 0,-0.89796 -0.82465,-2.46794 -1.76546,-3.36111 -2.37455,-2.25432 -7.67728,-1.97566 -10.48238,0.55085 -2.3862,2.14921 -2.49844,4.3478 -0.32428,6.35186 0.65076,0.59986 1.27517,1.09591 1.38756,1.10233 0.11239,0.006 0.79966,0.18454 1.52727,0.39582 1.56261,0.45375 4.38858,0.34028 5.75615,-0.23113 z m -1.12594,-25.17028 c 0,-0.58471 1.51957,-2.19605 2.75223,-2.91844 0.60068,-0.35202 2.51912,-1.13031 4.26319,-1.72952 3.27232,-1.12427 5.04839,-2.07444 6.26944,-3.35403 0.70666,-0.74055 2.05354,-3.35101 2.05838,-3.98947 10e-4,-0.19602 -0.64947,0.10221 -1.53359,0.70261 -1.69707,1.15245 -2.55429,1.55147 -5.87215,2.73332 -4.34532,1.54783 -6.39663,2.9712 -7.52611,5.22224 -0.69513,1.38538 -1.1296,3.72096 -0.69219,3.72096 0.15444,0 0.2808,-0.17445 0.2808,-0.38767 z m 70.63834,-2.5889 c 1.46857,-0.7504 2.14444,-1.67233 2.31131,-3.15275 0.23822,-2.11347 -0.96161,-3.95392 -4.06143,-6.22997 -1.39327,-1.02301 -1.6188,-1.28655 -1.23178,-1.43937 0.65643,-0.2592 3.41249,-0.24686 4.80154,0.0215 l 1.15279,0.2227 0.51788,-1.17077 c 0.28484,-0.64393 0.48047,-1.43394 0.43472,-1.75559 -0.0825,-0.5803 -0.11682,-0.58416 -4.44879,-0.50094 -2.4011,0.0461 -4.47874,0.19496 -4.61698,0.33073 -0.36934,0.36273 -0.67469,0.30093 -0.67469,-0.13655 0,-0.5452 1.38459,-1.5089 3.83646,-2.67023 1.76249,-0.83481 2.47553,-1.0226 4.26136,-1.12231 l 2.1447,-0.11974 -0.37482,-1.27862 c -0.2786,-0.95039 -0.30632,-1.52671 -0.10798,-2.24503 0.25441,-0.92141 0.23976,-0.95866 -0.31467,-0.80009 -0.31983,0.0915 -1.14304,0.23891 -1.82935,0.32763 -2.94945,0.38128 -4.54462,-1.77297 -3.06827,-4.14362 l 0.57671,-0.92604 0.22394,1.0856 c 0.16116,0.78129 0.41063,1.17067 0.88996,1.38907 0.88589,0.40364 1.21058,0.38476 3.63958,-0.2116 1.51451,-0.37184 2.56333,-0.46766 3.89606,-0.35593 2.83382,0.23758 3.08646,-0.27498 2.11379,-4.28839 -0.44484,-1.83548 -3.65407,-12.32822 -3.82214,-12.49668 -0.0336,-0.0337 -1.10532,0.19652 -2.38157,0.51159 l -2.32044,0.57285 -1.83676,2.59057 -1.83676,2.59058 -1.30458,-0.51422 c -0.71752,-0.28281 -2.35139,-1.03904 -3.63084,-1.6805 -1.27944,-0.64146 -3.01087,-1.3813 -3.84761,-1.64408 -0.83674,-0.26278 -1.52048,-0.54534 -1.51942,-0.6279 0.001,-0.0826 1.45788,-0.49349 3.23736,-0.91317 1.77949,-0.41967 3.65385,-0.90799 4.16525,-1.08514 l 0.92983,-0.3221 -1.18284,-0.60366 c -1.97028,-1.00551 -3.81309,-0.98271 -8.06285,0.0998 -2.02919,0.51686 -3.75541,0.87378 -3.83604,0.79315 -0.24399,-0.24399 0.78695,-0.90145 3.29215,-2.09948 4.18517,-2.00143 5.4681,-2.34948 8.59896,-2.33285 2.40201,0.0128 3.22227,0.14632 6.05879,0.98653 1.80437,0.53448 3.47406,0.9104 3.71043,0.83538 0.67851,-0.21535 1.8338,-2.21396 2.02788,-3.50815 0.22116,-1.47483 0.022,-3.53258 -0.87173,-9.00441 l -0.70295,-4.30402 -0.58839,1.22084 c -2.08974,4.33596 -6.1633,5.17214 -12.61854,2.59022 l -1.79387,-0.7175 -2.70404,2.78554 c -3.71988,3.83199 -6.04121,5.30091 -9.51748,6.02258 l -1.52094,0.31575 -0.005,1.63489 c -0.0149,5.31715 -2.92855,10.86329 -6.6922,12.73879 -1.22891,0.6124 -1.63689,0.67005 -4.74155,0.67005 -3.39114,0 -3.39642,9.7e-4 -3.09331,0.56734 0.167,0.31204 0.77046,1.07379 1.34102,1.69278 l 1.03739,1.12543 -0.89992,0.55619 c -1.13212,0.69969 -2.69214,0.71394 -3.80602,0.0348 -0.89251,-0.54419 -2.4554,-2.49509 -2.4554,-3.065 0,-0.23671 -0.32274,-0.29081 -1.12448,-0.18848 -0.61846,0.0789 -1.16526,0.17784 -1.2151,0.21979 -0.0498,0.0419 0.10091,0.73512 0.335,1.54038 0.88986,3.06101 3.71052,6.09665 6.31705,6.79852 1.02939,0.27718 2.88216,0.0949 4.17979,-0.4112 0.36556,-0.14257 0.44675,0.23499 0.6027,2.80269 0.18718,3.08191 0.95101,7.18381 1.53235,8.22903 0.30645,0.55098 0.35285,0.45142 0.53829,-1.15491 0.21884,-1.89569 1.89145,-8.70927 2.31707,-9.43885 0.18702,-0.32059 0.2644,0.10967 0.27685,1.53943 0.0747,8.58476 4.40254,14.238 15.08153,19.70044 7.50336,3.83807 11.65226,4.85977 14.28063,3.51674 z m -70.80957,-13.53489 c 0.61109,-0.61108 1.68351,-1.38817 2.38315,-1.72687 1.15441,-0.55883 1.65553,-0.61874 5.41706,-0.64759 3.7716,-0.0289 4.25791,-0.0874 5.39876,-0.64926 2.46637,-1.21465 4.18747,-4.01733 4.15908,-6.77274 l -0.0111,-1.07646 -0.46727,0.87642 c -0.65548,1.22943 -2.26027,2.82027 -3.42242,3.39266 -0.81569,0.40175 -1.54562,0.47499 -4.29021,0.43046 -6.76707,-0.1098 -9.40238,1.08934 -10.8674,4.94496 -0.29728,0.78238 -0.50481,1.97421 -0.49799,2.8599 l 0.0117,1.51852 0.53779,-1.01947 c 0.29578,-0.5607 1.03777,-1.51944 1.64885,-2.13053 z m 11.34947,-13.55285 c 1.48423,-0.47849 4.08907,-2.3295 5.04866,-3.58759 0.71046,-0.93147 1.74895,-3.03608 1.75895,-3.56471 0.003,-0.16898 -0.76031,0.20651 -1.69669,0.83441 -1.83741,1.23212 -3.99365,2.13599 -6.11285,2.56243 -1.76454,0.35507 -3.3861,-0.0829 -4.52558,-1.22242 l -0.86353,-0.86352 -0.27693,0.79442 c -0.391,1.12161 -0.34413,2.21368 0.13867,3.2311 1.09735,2.31251 3.18656,2.89354 6.5293,1.81588 z m 27.2137,-15.51017 c 0.9136,-0.47294 1.65114,-0.97896 1.63898,-1.12448 -0.0122,-0.14552 -1.01714,-0.594 -2.23329,-0.99663 -3.0475,-1.00893 -5.54408,-0.91716 -7.94875,0.29217 -0.91892,0.46213 -2.02795,1.13652 -2.46451,1.49864 l -0.79375,0.6584 2.38125,0.0326 c 1.30969,0.0179 2.73844,0.12351 3.175,0.23459 0.43656,0.11109 1.64655,0.21606 2.68886,0.23328 1.65518,0.0273 2.10541,-0.0776 3.55621,-0.82859 z m -23.56628,-6.9891 c 3.21884,-3.41829 4.44781,-6.79381 4.65607,-12.7885 l 0.12409,-3.57188 -1.75312,1.85208 c -4.65976,4.92281 -7.00479,10.19358 -7.00479,15.74427 v 2.14053 l 1.13348,-0.77985 c 0.62341,-0.42892 1.90333,-1.59741 2.84427,-2.59665 z m 17.60961,0.17812 c 1.89249,-0.47666 9.10431,-3.73138 9.10431,-4.10881 0,-0.0857 -0.62508,-0.4413 -1.38907,-0.79019 -6.02727,-2.75251 -13.30143,-1.58087 -18.13203,2.92052 -0.97782,0.91119 -1.70501,1.73204 -1.61596,1.82413 0.36746,0.38001 2.70172,0.62519 6.21192,0.65249 2.9195,0.0227 4.18187,-0.0853 5.82083,-0.49814 z m -7.57137,-7.27275 c 3.43834,-2.64574 5.77809,-6.05745 6.71736,-9.79491 0.54757,-2.17883 1.02353,-5.64921 0.91772,-6.69139 l -0.0875,-0.86212 -1.83385,1.65825 c -4.97617,4.49966 -7.80435,10.00559 -7.81884,15.22182 -0.003,1.00671 0.10677,1.65364 0.28008,1.65364 0.15658,0 0.97785,-0.53338 1.82506,-1.18529 z m 23.98473,-1.60805 c 1.84019,-0.3801 5.08295,-1.63444 7.62936,-2.95112 l 1.04779,-0.54179 -1.68862,-0.85241 c -0.92875,-0.46883 -2.829,-1.14812 -4.22279,-1.50955 -2.15541,-0.55891 -2.91865,-0.63572 -5.10662,-0.51388 -2.79583,0.15568 -6.48968,1.20513 -8.61671,2.44807 -1.2411,0.72524 -2.96605,2.15781 -2.96605,2.4633 0,0.15348 3.45392,1.02349 6.74688,1.69946 1.31187,0.2693 5.36248,0.13267 7.17676,-0.24208 z m 31.73356,-3.88739 c 2.15914,-2.56061 1.88879,-5.68056 -0.58167,-6.71279 -1.21803,-0.50892 -1.88015,-0.45461 -3.40365,0.27918 l -1.32292,0.63719 1.01835,0.0209 c 1.4026,0.0287 2.76157,0.73156 3.25334,1.68254 0.31652,0.61208 0.36908,1.19664 0.22693,2.52397 -0.10174,0.95007 -0.24556,1.88525 -0.31959,2.07817 -0.24928,0.64961 0.39838,0.3576 1.12921,-0.50913 z m -8.62294,0.0699 c 1.31122,-0.66893 1.5607,-1.06211 0.67394,-1.06211 -0.83077,0 -2.26929,-0.71239 -4.69319,-2.32418 -1.52727,-1.01556 -2.05173,-1.21993 -3.32508,-1.29569 -1.29144,-0.0768 -1.42396,-0.0446 -0.90912,0.22119 0.33147,0.17111 1.21756,1.14054 1.96908,2.15429 0.75152,1.01375 1.73047,2.0652 2.17545,2.33655 1.05665,0.64436 2.81213,0.63152 4.10892,-0.0301 z m -33.60795,-3.25777 c 2.35199,-1.38166 5.04235,-4.23569 6.28549,-6.66788 1.17098,-2.29101 2.2935,-5.58695 2.59962,-7.63301 l 0.19195,-1.28301 -1.15845,0.74557 c -7.13904,4.59463 -10.26729,9.04086 -10.28267,14.6149 -0.005,1.62914 -0.0255,1.62715 2.36406,0.22343 z m 16.47138,-3.09105 c 3.13025,-0.96683 7.32775,-3.83637 8.49012,-5.8041 l 0.46166,-0.78154 -1.20593,-0.18084 c -0.66326,-0.0995 -2.66432,-0.13228 -4.44681,-0.0729 -3.0891,0.10284 -3.3383,0.15416 -5.32125,1.09585 -1.66545,0.79093 -2.53414,1.44595 -4.35553,3.28424 l -2.27515,2.29627 1.32291,0.31824 c 2.12987,0.51234 5.39241,0.44328 7.32998,-0.15518 z m 18.42402,-4.12478 c 2.78737,-0.54282 5.99718,-0.48658 8.01159,0.14038 0.91623,0.28516 1.71,0.47434 1.76393,0.4204 0.0539,-0.0539 -0.34071,-0.58375 -0.87701,-1.17737 -1.48007,-1.63826 -3.93365,-2.73488 -6.44419,-2.88022 -2.30216,-0.13327 -3.2073,0.17678 -4.74973,1.62698 -0.74463,0.7001 -1.89505,2.47556 -1.89505,2.92466 0,0.0721 0.50602,-0.0507 1.12448,-0.27282 0.61846,-0.22216 1.99816,-0.57406 3.06598,-0.78201 z m -4.70111,-7.35184 c 4.41033,-0.19472 6.14979,-0.5869 7.10292,-1.60146 l 0.58286,-0.62042 -1.27246,-0.18052 c -0.69985,-0.0993 -2.21421,-0.36663 -3.36525,-0.59409 -4.65023,-0.91896 -7.90809,0.1669 -9.44082,3.14667 -0.27771,0.53991 -0.50493,1.08704 -0.50493,1.21585 0,0.12881 0.63341,-0.0853 1.40758,-0.47579 1.27784,-0.64456 1.78389,-0.72661 5.4901,-0.89024 z"
       id="path1" /></g></svg>
