<?xml version="1.0" encoding="UTF-8" standalone="no"?>
<!-- Created with Inkscape (http://www.inkscape.org/) -->

<svg
   width="240.68297mm"
   height="240.77481mm"
   viewBox="0 0 240.68296 240.77481"
   version="1.1"
   id="svg1"
   xml:space="preserve"
   inkscape:version="1.4 (86a8ad7, 2024-10-11)"
   sodipodi:docname="Artemis.svg"
   xmlns:inkscape="http://www.inkscape.org/namespaces/inkscape"
   xmlns:sodipodi="http://sodipodi.sourceforge.net/DTD/sodipodi-0.dtd"
   xmlns="http://www.w3.org/2000/svg"
   xmlns:svg="http://www.w3.org/2000/svg"><sodipodi:namedview
     id="namedview1"
     pagecolor="#ffffff"
     bordercolor="#000000"
     borderopacity="0.25"
     inkscape:showpageshadow="2"
     inkscape:pageopacity="0.0"
     inkscape:pagecheckerboard="0"
     inkscape:deskcolor="#d1d1d1"
     inkscape:document-units="mm"
     inkscape:zoom="0.19041982"
     inkscape:cx="-548.7874"
     inkscape:cy="-569.79362"
     inkscape:window-width="1828"
     inkscape:window-height="1057"
     inkscape:window-x="3924"
     inkscape:window-y="-8"
     inkscape:window-maximized="1"
     inkscape:current-layer="layer1" /><defs
     id="defs1" /><g
     inkscape:label="Warstwa 1"
     inkscape:groupmode="layer"
     id="layer1"
     transform="translate(-125.00393,-296.64782)"><path
       style="fill:#000000"
       d="m 237.54364,537.25892 c -31.18256,-2.40864 -60.63253,-16.53996 -80.88185,-38.81048 -12.03812,-13.23972 -20.04941,-26.78009 -25.48929,-43.08097 -4.65039,-13.93517 -6.45812,-26.06342 -6.13136,-41.13587 0.21919,-10.11049 1.21504,-17.64079 3.62516,-27.41242 4.64179,-18.81973 13.71007,-35.80179 27.18612,-50.91108 18.55238,-20.80087 44.96197,-34.6573 72.82768,-38.21082 8.40187,-1.07143 18.78475,-1.35044 26.32604,-0.70743 17.35828,1.48005 34.60896,6.56171 49.14748,14.47772 9.53532,5.19184 18.50453,12.01538 27.06079,20.58715 9.17015,9.18676 16.43076,19.36785 22.08841,30.97317 7.47148,15.32595 11.28925,30.46067 12.23009,48.48356 1.44459,27.6728 -7.32552,56.0499 -24.13735,78.10032 -20.15831,26.43966 -49.75841,43.28332 -82.81755,47.12655 -5.25518,0.61093 -16.31969,0.88478 -21.03437,0.5206 z m 24.20381,-10.08061 c 1.23504,-0.26486 1.39456,-0.38906 1.97757,-1.53956 0.34879,-0.68831 1.24367,-3.2078 1.98862,-5.59887 2.1445,-6.88324 1.85948,-6.23265 6.76174,-15.43434 2.55704,-4.79964 3.30055,-7.54506 3.30055,-12.18741 0,-5.20434 -1.16616,-10.48078 -3.91988,-17.73608 -3.36306,-8.86075 -9.8026,-22.78356 -9.42821,-20.38457 0.0898,0.57568 1.64963,5.57631 3.4662,11.1125 3.98647,12.14919 3.87302,11.78443 4.72009,15.17573 1.41039,5.64654 1.84176,11.81998 1.07777,15.42423 -0.49772,2.34808 -1.9142,5.71033 -4.22351,10.02523 -2.709,5.0617 -3.63971,7.37237 -5.58393,13.86325 -0.94202,3.14497 -1.88668,6.13434 -2.09923,6.64306 -0.36263,0.8679 -0.35547,0.92494 0.11618,0.92494 0.27645,0 1.10717,-0.12965 1.84604,-0.28811 z m -32.48934,-1.17208 c 6.38567,-1.32582 11.7749,-6.08671 16.04278,-14.17231 1.35327,-2.56382 3.64455,-8.11118 3.43627,-8.31946 -0.0644,-0.0644 -0.70431,0.6843 -1.42199,1.66381 -2.19526,2.99619 -7.43373,8.99253 -11.29712,12.93155 -3.74124,3.81447 -6.81101,6.27454 -9.43955,7.56474 l -1.47028,0.72167 1.10718,0.006 c 0.60895,0.003 1.97817,-0.17491 3.04271,-0.39593 z m 64.12229,-10.05255 c 0.79915,-1.23878 1.84856,-2.6973 2.33203,-3.24115 3.35325,-3.77202 10.06939,-12.65856 13.70384,-18.13238 3.59696,-5.41738 4.87965,-8.20187 5.67275,-12.3146 0.43374,-2.24917 0.50492,-6.39288 0.10982,-6.39288 -0.14552,0 -0.26458,0.23463 -0.26458,0.5214 0,1.23064 -2.25676,7.23498 -3.92049,10.43088 -2.31819,4.45303 -4.15417,7.39916 -7.60085,12.1968 -3.74454,5.21225 -6.92441,9.88601 -8.42879,12.38858 -1.16707,1.94146 -3.43513,6.79568 -3.17518,6.79568 0.0652,0 0.7723,-1.01355 1.57145,-2.25233 z m -87.58676,-0.66859 c 13.60232,-2.74067 27.38294,-10.30386 36.879,-20.24023 7.60179,-7.95426 13.02256,-17.11212 15.38939,-25.99884 1.0324,-3.87637 1.71469,-11.16501 1.04515,-11.16501 -0.14552,0 -0.26458,0.25123 -0.26458,0.55828 0,1.23775 -2.53667,8.02853 -4.48607,12.00943 -4.40898,9.00362 -11.00412,17.23144 -20.38477,25.43117 -9.58693,8.38006 -16.77761,12.93354 -28.57499,18.09508 -5.60829,2.45371 -5.58934,2.51626 0.39687,1.31012 z m 103.0552,-6.81678 c 12.36608,-8.41834 24.91391,-22.19161 32.92773,-36.14351 10.41398,-18.13052 15.65384,-40.1005 14.47846,-60.70615 -0.94419,-16.55271 -4.66433,-31.12407 -11.48667,-44.99201 -9.92346,-20.17165 -25.77005,-36.5083 -46.46416,-47.90107 -2.25796,-1.24307 -3.07934,-1.5785 -3.30729,-1.35058 -0.20101,0.20097 -0.3014,1.6147 -0.29771,4.19264 0.005,3.70139 0.0474,4.01016 0.87156,6.38669 1.5634,4.50837 3.74996,7.55073 14.08335,19.59544 8.17538,9.52931 11.03276,13.26634 15.06098,19.69749 6.8236,10.89405 9.80299,20.06389 9.46084,29.11814 -0.21388,5.65978 -1.02002,8.75582 -4.17168,16.02172 -2.94675,6.79349 -3.81466,10.21294 -4.13202,16.27953 l -0.16725,3.19708 4.33808,-0.1197 c 2.38594,-0.0658 4.4869,-0.23919 4.6688,-0.38521 0.52098,-0.41824 0.41079,-0.84564 -0.88125,-3.41823 l -1.21198,-2.4132 1.13061,0.18079 c 1.91319,0.30594 8.35359,2.52083 11.58596,3.9845 3.34631,1.51525 6.69803,3.35713 6.8301,3.75336 0.0896,0.26869 -4.08524,3.10355 -5.9497,4.04007 -2.28679,1.14867 -5.82502,2.45036 -8.65947,3.18576 -3.437,0.89173 -4.70082,1.13332 -4.53636,0.86714 2.75786,-4.46337 3.01444,-5.11975 2.13347,-5.45781 -0.23018,-0.0883 -1.98635,-0.16478 -3.9026,-0.16989 -1.95491,-0.005 -4.23891,-0.17198 -5.20388,-0.37995 -1.47826,-0.31861 -2.22144,-0.3177 -5.29167,0.006 -2.89832,0.306 -9.80845,0.37519 -36.64479,0.36691 l -33.07291,-0.0102 -1.99447,-0.84685 -1.99448,-0.84686 0.22411,-1.12448 0.2241,-1.12448 h 34.08286 34.08286 l 0.13909,-4.69635 c 0.16447,-5.55351 0.48653,-7.05995 2.85841,-13.37029 3.18286,-8.46796 4.11389,-13.67758 3.8716,-21.6638 -0.24032,-7.92163 -1.77311,-13.73382 -5.75696,-21.82984 -2.83877,-5.76898 -6.68344,-11.44392 -13.4825,-19.90086 -8.43965,-10.49757 -12.09075,-15.63741 -13.97482,-19.67308 -0.38994,-0.83523 -0.7685,-1.51559 -0.84126,-1.51192 -0.17258,0.009 -11.75023,19.47499 -11.85072,19.92541 -0.0422,0.18921 1.63855,1.91 3.73503,3.82397 5.49426,5.01594 7.05735,6.74506 7.05735,7.80695 0,0.47162 -0.17972,1.11408 -0.39938,1.4277 -0.53098,0.75807 -4.05888,3.39974 -6.25374,4.68276 -1.61417,0.94357 -1.77241,1.11593 -1.93013,2.10225 -0.18291,1.14384 -0.95159,3.04983 -1.6695,4.13961 -0.35434,0.53789 -0.42355,1.25454 -0.37047,3.83645 0.0675,3.2822 -0.33456,5.66192 -1.15426,6.83221 -1.03278,1.47449 -0.24783,5.81407 2.69393,14.89338 1.10827,3.42052 1.17938,3.79605 0.8472,4.47412 -0.63242,1.29099 -1.56441,1.74999 -4.25192,2.09405 -1.36963,0.17535 -2.62325,0.40102 -2.78583,0.5015 -0.55538,0.34324 -0.65415,1.73181 -0.21684,3.04843 0.86731,2.61122 -0.6414,3.84614 -3.47671,2.84578 -0.92993,-0.3281 -1.34068,-0.30774 -3.80358,0.18852 l -2.76106,0.55634 2.51355,0.35632 c 1.38244,0.19598 2.93026,0.55763 3.43958,0.80367 0.78406,0.37876 0.93872,0.60099 1.00875,1.44943 0.0699,0.84672 -0.0593,1.14413 -0.83344,1.91823 -0.50388,0.50388 -1.08088,0.91615 -1.28223,0.91615 -0.2855,0 -0.36554,0.53865 -0.36365,2.44739 0.003,2.99242 -0.54523,4.77188 -1.88182,6.10847 -2.30565,2.30564 -5.07094,1.97234 -12.88612,-1.55319 -1.87341,-0.84512 -4.37373,-2.11768 -5.55625,-2.8279 -4.91753,-2.95348 -9.72172,-7.27967 -12.51127,-11.26643 -1.64082,-2.34502 -1.75015,-2.45277 -1.52954,-1.5073 1.22169,5.23568 5.02108,10.17145 10.70015,13.90051 4.30271,2.8253 4.04538,2.59043 3.88965,3.55004 -0.1515,0.93364 -4.07903,11.84735 -5.90082,16.39709 -0.63677,1.59027 -1.11729,2.93188 -1.06782,2.98135 0.15702,0.15702 3.8109,-5.53903 4.66576,-7.27347 0.46851,-0.95058 1.07934,-1.78311 1.42322,-1.9398 0.60732,-0.27671 1.57365,0.0372 6.91189,2.24542 0.99021,0.40961 3.03094,0.86319 5.42396,1.20556 10.77226,1.54118 16.79339,5.58723 21.09759,14.17705 2.19746,4.38542 3.46554,8.93077 4.45843,15.98092 0.81275,5.77107 1.4503,8.32941 3.99386,16.0264 l 2.00859,6.07817 0.91525,-1.05108 c 2.38499,-2.73892 6.93695,-10.51773 10.35251,-17.69133 l 1.77724,-3.73267 -0.48394,-1.98437 c -1.08364,-4.44352 -0.87931,-10.24786 0.51673,-14.67812 1.75605,-5.57276 6.88995,-14.0758 9.00389,-14.91271 0.93509,-0.37021 4.19475,-0.9151 9.09815,-1.52086 4.53237,-0.55993 5.76323,-0.37932 6.44869,0.94621 0.45924,0.88807 0.52245,2.81731 0.12643,3.85891 -0.14959,0.39346 -0.21966,0.7677 -0.15572,0.83164 0.064,0.0639 1.44894,0.45019 3.07775,0.85833 3.04385,0.76269 4.10808,1.30964 4.7031,2.4171 0.41881,0.77951 0.27575,2.5205 -0.30235,3.67932 -0.42235,0.84662 -0.41603,0.87851 0.34611,1.74654 1.70812,1.94545 1.78316,5.70847 0.14452,7.24789 -0.63364,0.59528 -0.64201,0.64291 -0.19884,1.13261 0.35744,0.39497 0.46263,0.98171 0.46263,2.58068 0,2.26798 -0.35966,3.05131 -1.8791,4.09267 -0.75609,0.51818 -0.76487,0.55112 -0.42333,1.5875 0.2776,0.84235 0.28422,1.28925 0.0325,2.18989 -0.54763,1.95908 -1.78178,2.61341 -5.86597,3.11004 l -1.52135,0.185 -10e-4,1.22628 c -0.002,2.05316 -0.76964,6.1199 -1.63035,8.63462 -2.46005,7.18749 -8.74465,16.51621 -16.47386,24.45341 -3.72401,3.82422 -3.6316,3.87166 1.17194,0.6016 z m -123.02025,-0.59206 c 2.28627,-0.66032 4.49663,-2.13166 6.60359,-4.39571 4.66594,-5.01385 7.14082,-12.61078 7.14301,-21.92627 8.2e-4,-3.53228 -0.3328,-6.72056 -0.99599,-9.51805 l -0.43906,-1.85209 -0.19791,3.04271 c -0.54396,8.36292 -2.67985,16.54641 -6.19107,23.72061 -2.44012,4.9857 -4.8898,8.31238 -7.89595,10.72271 -1.46495,1.17461 -1.40257,1.18112 1.97338,0.20609 z m -13.41215,-7.92038 c -0.8448,-2.24913 -0.92687,-2.70093 -0.83972,-4.62287 0.0706,-1.55634 0.27517,-2.5221 0.75954,-3.58533 0.5297,-1.1627 0.62885,-1.69453 0.49327,-2.64583 -0.79464,-5.576 -0.83711,-6.31817 -0.56852,-9.93641 0.15064,-2.0293 0.2417,-3.72394 0.20236,-3.76588 -0.0393,-0.0419 -1.12862,0.62189 -2.42063,1.47516 -2.64882,1.74936 -9.76569,6.13371 -12.0752,7.43896 -0.9512,0.53757 -1.45692,0.97775 -1.34547,1.1711 0.52271,0.90688 4.36366,5.25104 7.4997,8.48226 3.19899,3.2961 9.00506,8.70753 9.16785,8.54473 0.0347,-0.0347 -0.3582,-1.18487 -0.87318,-2.55589 z m 4.68803,-7.30738 c 3.77474,-1.10872 6.79749,-4.28035 9.52882,-9.99814 3.34848,-7.00974 5.19234,-15.60871 5.45309,-25.4308 0.15574,-5.8668 0.007,-7.58497 -1.03947,-12.00625 -0.49777,-2.10302 -0.74207,-2.64749 -1.60269,-3.57187 l -1.0154,-1.09063 0.17136,1.98438 c 0.66516,7.70257 0.56493,15.96683 -0.26153,21.56354 -1.89834,12.85531 -6.93037,23.36427 -13.17194,27.50844 -0.83009,0.55115 -1.4451,1.10589 -1.36669,1.23276 0.22213,0.35941 1.72558,0.27232 3.30445,-0.19143 z m 53.56398,-5.47326 c -6.73663,-5.00643 -13.27066,-10.96842 -16.72891,-15.26431 -6.13752,-7.62413 -12.27202,-18.49766 -15.67725,-27.78824 -0.61337,-1.67349 -1.17553,-3.10224 -1.24924,-3.175 -0.2095,-0.20681 0.16146,2.75692 0.7406,5.91678 2.40361,13.11457 12.47642,31.5687 20.26457,37.12622 3.13166,2.2347 7.70276,3.75471 11.32334,3.76529 l 2.11666,0.006 z m 86.97539,-16.66037 c -1.2634,-1.34869 -1.32714,-2.83999 -0.16792,-3.92901 0.63377,-0.5954 0.68882,-0.60031 3.21876,-0.28713 2.85143,0.35299 7.83667,0.39203 8.65937,0.0678 0.46926,-0.18493 0.43931,-0.22657 -0.26458,-0.36776 -0.43657,-0.0876 -2.6722,-0.3537 -4.96807,-0.5914 -5.32685,-0.55152 -5.51096,-0.60353 -6.08453,-1.71898 -0.65868,-1.28096 -0.50073,-2.58108 0.39443,-3.24658 0.6415,-0.47693 1.29674,-0.55569 6.08541,-0.73156 2.95158,-0.1084 5.72369,-0.29079 6.16026,-0.40532 l 0.79375,-0.20823 -1.05834,-0.19572 c -0.58208,-0.10765 -3.63336,-0.20259 -6.78062,-0.21097 -4.68194,-0.0125 -5.78061,-0.0855 -6.04306,-0.40175 -0.77911,-0.93878 -0.54356,-3.86723 0.3722,-4.62725 0.19455,-0.16146 1.89272,-0.51945 3.7737,-0.79552 4.02772,-0.59114 8.20956,-1.53416 8.43729,-1.90263 0.10432,-0.16879 -0.9433,-0.20449 -2.97423,-0.10137 -1.7244,0.0876 -4.50449,0.18473 -6.17798,0.21592 l -3.04271,0.0567 -0.0788,-1.80975 c -0.0931,-2.13963 0.0116,-2.30466 2.17961,-3.4349 1.51639,-0.79053 1.56029,-0.83989 0.80958,-0.91024 -0.43656,-0.0409 -1.86531,0.0175 -3.175,0.12983 l -2.38125,0.20423 -0.16674,3.83646 c -0.32216,7.41258 -0.94646,9.40025 -4.13433,13.16302 -0.77054,0.9095 -1.24911,1.65253 -1.0635,1.65116 0.73316,-0.005 3.11045,-1.62713 4.12488,-2.81392 l 1.07183,-1.25393 0.20439,0.7784 c 0.24804,0.94463 0.24495,5.71147 -0.005,6.9961 -0.22481,1.15757 0.20698,2.03231 1.40006,2.83633 1.14501,0.77162 1.59988,0.77573 0.88066,0.008 z m -78.30035,-5.3797 c 5.96204,-1.31109 11.02202,-5.91773 13.17124,-11.99118 0.84756,-2.39511 1.37709,-5.47214 1.256,-7.29852 l -0.0875,-1.31992 -1.02983,2.61081 c -2.42007,6.13532 -6.44918,10.13006 -12.22532,12.12101 -7.83919,2.70205 -17.67406,-0.25397 -27.08496,-8.14082 -2.99176,-2.50725 -7.56573,-7.03984 -9.40155,-9.31648 -0.72761,-0.90231 -1.35913,-1.53321 -1.40338,-1.40198 -0.1447,0.42911 2.25334,4.90545 4.13702,7.72243 6.03096,9.01912 14.33771,15.1501 23.06323,17.02233 2.38574,0.51191 7.26,0.50801 9.60506,-0.008 z m -95.38471,-9.61101 c 4.22328,-2.86492 7.03054,-5.16207 8.83901,-7.23285 3.23506,-3.70431 6.45577,-6.89869 8.76905,-8.69738 3.94243,-3.06543 8.99136,-5.64152 13.95291,-7.11913 1.00715,-0.29995 1.83118,-0.6174 1.83118,-0.70546 0,-0.0881 -2.57935,-4.1506 -5.7319,-9.02788 l -5.7319,-8.86777 0.77096,-0.63335 c 0.42403,-0.34835 2.10559,-1.52954 3.73678,-2.62487 l 2.96582,-1.99151 -0.61628,-0.96991 c -5.73896,-9.03198 -9.22726,-14.29173 -13.10188,-19.75532 -5.65879,-7.97946 -10.41922,-14.95536 -10.2923,-15.08228 0.0511,-0.051 1.73555,0.40857 3.74333,1.02138 l 3.65051,1.1142 3.70298,6.31641 c 2.66221,4.54112 4.0631,6.65798 4.9843,7.53169 0.91696,0.86968 1.4208,1.62908 1.77181,2.67048 0.69938,2.075 1.78756,4.12988 5.41565,10.22676 l 3.19483,5.36879 1.05518,-0.53831 c 0.78648,-0.40123 1.0118,-0.65135 0.88483,-0.98222 -0.33273,-0.86707 -9.24507,-16.09085 -10.52146,-17.97241 -2.13906,-3.15325 -5.64299,-9.41376 -8.25861,-14.75574 -1.35379,-2.76489 -2.53558,-5.24616 -2.62621,-5.51392 -0.11638,-0.34385 0.32119,-0.14222 1.48971,0.68645 3.24191,2.29903 4.42903,3.10768 4.56218,3.10768 0.0743,0 0.13531,-0.44648 0.13567,-0.99219 7.4e-4,-1.09991 1.0009,-5.05057 1.78027,-7.03215 l 0.50244,-1.27746 4.16347,8.9941 4.16348,8.99409 -0.83801,3.92503 -0.83801,3.92504 2.82484,5.02708 c 3.71062,6.60343 6.82259,11.77396 7.08634,11.77396 0.11636,0 1.87527,-0.83344 3.90868,-1.85208 2.03342,-1.01865 3.81777,-1.85209 3.96523,-1.85209 0.14746,0 0.27026,0.26789 0.2729,0.59531 0.003,0.32743 0.3576,1.23536 0.78881,2.01763 0.43122,0.78227 0.723,1.52105 0.64842,1.64173 -0.0746,0.12068 -1.47135,1.02165 -3.10392,2.00214 -3.84583,2.30974 -13.85423,8.57492 -16.06236,10.0549 -0.94433,0.63294 -1.5214,1.15079 -1.28238,1.15079 0.88428,0 5.87856,-1.90907 9.28076,-3.54758 1.92949,-0.92925 5.53223,-2.81933 8.00608,-4.20018 l 4.49792,-2.51063 1.66017,3.07867 c 1.38631,2.57084 1.63767,3.23143 1.52384,4.00472 -0.6403,4.34972 -0.41824,6.10164 0.9899,7.80996 0.75918,0.92102 2.46199,1.91421 2.76404,1.61217 0.0736,-0.0736 -0.11338,-0.53393 -0.41557,-1.02289 -0.67731,-1.09591 -1.36272,-3.64961 -1.36384,-5.08139 -4.6e-4,-0.58789 0.2515,-1.92029 0.55992,-2.96089 l 0.56076,-1.892 -0.83557,-1.21446 c -0.45956,-0.66795 -1.12708,-1.84061 -1.48338,-2.60591 -1.29488,-2.78134 -0.6801,-6.48133 1.40958,-8.48338 l 0.74348,-0.71229 -1.21178,-1.2907 c -1.62664,-1.73259 -2.68989,-3.96323 -2.84788,-5.9747 -0.19405,-2.47071 0.72874,-4.8098 3.2702,-8.28927 0.42828,-0.58635 0.3985,-0.66868 -0.981,-2.71198 -1.14402,-1.69449 -1.55322,-2.10788 -2.08903,-2.11041 -0.36649,-0.002 -1.32118,-0.17639 -2.12155,-0.38814 -11.63421,-3.07808 -17.24207,-18.44378 -12.02404,-32.94622 3.77743,-10.49857 11.99174,-18.90769 22.47252,-23.00547 6.5473,-2.55987 10.96406,-3.32678 17.86194,-3.10149 5.06842,0.16554 7.71133,0.61196 11.90625,2.01111 3.06614,1.02267 7.58229,3.16427 10.51916,4.9883 1.20163,0.74631 3.64635,2.05607 5.4327,2.91058 7.66661,3.66735 17.49551,10.0871 23.95112,15.64366 1.06439,0.91617 1.97218,1.62382 2.0173,1.57256 0.0451,-0.0513 2.95753,-4.88237 6.47202,-10.7358 l 6.38997,-10.64259 -0.17197,-2.06208 c -0.19622,-2.35286 0.35476,-4.84777 1.75027,-7.92551 0.43676,-0.96325 0.76329,-1.78175 0.72562,-1.8189 -0.21367,-0.21073 -4.54597,-1.80135 -7.7414,-2.8423 -17.21869,-5.60916 -34.90188,-7.45532 -51.03211,-5.32786 -4.80119,0.63325 -7.47381,1.14149 -12.60018,2.39613 -26.56541,6.50168 -48.81761,21.44451 -64.21486,43.12167 -20.95031,29.49508 -26.42078,68.08379 -14.44683,101.90809 0.68257,1.92815 1.3139,3.50573 1.40294,3.50573 0.0891,0 1.37433,-0.82246 2.85618,-1.82769 z m 15.85144,-58.34547 c -1.7165,-0.32546 -3.27639,-0.76065 -3.46641,-0.9671 -0.78809,-0.85623 -11.27204,-14.67511 -11.27204,-14.85767 0,-0.0494 1.68337,0.0933 3.74082,0.31706 l 3.74082,0.40692 5.78418,7.78742 c 3.1813,4.28308 5.78418,7.82519 5.78418,7.87135 0,0.18015 -1.31854,0.01 -4.31155,-0.55798 z m 34.0668,39.89991 c 0.62814,-0.24104 1.46558,-2.04554 1.46558,-3.15799 0,-1.23747 -0.64862,-2.59334 -1.63941,-3.42704 -0.58677,-0.49373 -1.09166,-0.65945 -2.01891,-0.66264 -1.43511,-0.005 -6.13126,1.06016 -6.13126,1.39059 0,0.46172 2.58734,2.98706 4.58697,4.47703 1.96703,1.46569 2.75528,1.75678 3.73703,1.38005 z m 11.98142,-7.91826 c 0.69196,-0.3997 2.27414,-1.75082 3.51594,-3.0025 1.79474,-1.80901 2.52306,-2.79132 3.55098,-4.78932 0.91332,-1.77525 1.95986,-3.25904 3.563,-5.05163 2.72284,-3.0446 4.04777,-5.20844 4.92615,-8.04524 0.51845,-1.67437 1.26908,-6.21771 1.02727,-6.21771 -0.0287,0 -0.72461,1.22833 -1.54654,2.72963 -1.75058,3.19748 -4.68642,7.18782 -8.01691,10.89641 -1.50165,1.67213 -2.50126,3.03532 -2.71622,3.70417 -1.00747,3.13465 -3.30622,6.67327 -6.14859,9.46492 l -2.09395,2.05659 1.34037,-0.50931 c 0.73721,-0.28011 1.90653,-0.83632 2.5985,-1.23601 z m 64.09666,-24.2215 0.92604,-0.48026 -1.37406,-0.0117 c -2.05134,-0.0175 -2.61543,-1.02536 -1.82051,-3.25284 0.42462,-1.18982 0.12332,-1.26893 -0.90737,-0.23824 -1.43542,1.43541 -1.2999,3.67457 0.26975,4.45712 0.73051,0.3642 1.54641,0.2311 2.90615,-0.47408 z m -57.87267,-5.36678 c 2.40354,-0.72336 3.72612,-2.27808 4.06958,-4.78389 l 0.16201,-1.18205 -1.68831,1.68324 c -1.75216,1.74689 -3.42313,2.53125 -5.39249,2.53125 -1.28308,0 -3.28701,-0.68311 -4.96093,-1.69111 -1.52831,-0.92031 -1.77366,-0.88283 -1.22503,0.18715 0.73135,1.42629 2.51889,2.86208 4.19988,3.37341 1.09057,0.33174 3.5395,0.27197 4.83529,-0.118 z m 17.48618,-0.89156 c 0.0902,-0.5457 0.16531,-1.61121 0.16691,-2.36778 0.003,-1.2459 -0.0782,-1.43591 -0.85699,-2.01518 -1.3987,-1.04034 -5.22552,-2.26124 -5.22552,-1.66713 0,0.62891 2.05731,4.53658 2.67788,5.08638 0.75229,0.6665 2.66749,1.9559 2.90517,1.9559 0.0927,0 0.24235,-0.44649 0.33255,-0.99219 z m 36.27451,-8.08549 c -0.77351,-1.68955 -0.7584,-1.75264 0.9783,-4.08534 0.56878,-0.76399 0.91985,-1.38906 0.78014,-1.38906 -1.82529,0 -8.35334,1.40982 -8.6345,1.86474 -0.22224,0.35959 7.12541,5.41069 7.48611,5.14628 0.0385,-0.0282 -0.23605,-0.71968 -0.61005,-1.53662 z m -53.69948,-4.9831 c 3.10038,-1.59286 5.57256,-2.34339 7.71889,-2.34339 1.00396,0 3.47781,0.3968 5.99141,0.96101 5.70434,1.28042 10.03834,1.49794 12.61574,0.63318 3.68575,-1.23663 6.1248,-3.55341 8.22221,-7.81004 0.71653,-1.45418 1.30279,-2.74506 1.30279,-2.86862 0,-0.12356 -1.16086,0.95438 -2.57969,2.39542 -2.88399,2.92914 -5.3087,4.6429 -7.4657,5.27664 -1.79443,0.52723 -5.08425,0.35877 -8.74003,-0.44755 -1.38244,-0.30491 -3.28744,-0.72346 -4.23333,-0.93012 -5.23324,-1.14333 -10.50339,0.21236 -13.44153,3.45769 -1.22547,1.3536 -2.45962,3.20087 -2.00529,3.00153 0.1283,-0.0563 1.30484,-0.65289 2.61453,-1.32575 z m 46.96354,-1.97907 c 1.28837,-0.33349 3.04724,-0.45809 7.01146,-0.49669 4.38974,-0.0428 5.47205,-0.13073 6.35,-0.51616 l 1.05833,-0.46462 -1.19062,-0.51967 c -4.7845,-2.08825 -9.65976,-1.50113 -14.55209,1.7525 -0.80036,0.53228 -1.21708,0.90524 -0.92604,0.82879 0.29104,-0.0764 1.30307,-0.33932 2.24896,-0.58415 z m -2.63084,-7.11493 c 4.98281,-0.50821 12.42753,-2.23277 14.77606,-3.42287 1.95986,-0.99313 3.38407,-2.56288 3.88328,-4.2801 0.22698,-0.78081 0.3746,-1.67355 0.32804,-1.98388 -0.0707,-0.4714 -0.2871,-0.30295 -1.31511,1.02391 -2.66713,3.44246 -4.26554,4.14203 -14.61724,6.39749 -4.6439,1.01182 -4.75575,1.05228 -5.80245,2.09898 l -1.06727,1.06727 1.05495,-0.36346 c 0.58022,-0.1999 1.8221,-0.4417 2.75974,-0.53734 z m -31.76499,-2.48936 c 8.7365,-1.80608 21.82663,-4.83102 38.59641,-8.91906 7.47631,-1.82253 14.97725,-3.59622 16.66875,-3.94153 l 3.07546,-0.62784 -5.55625,0.0947 c -7.81581,0.13325 -14.13134,1.23359 -25.92917,4.51757 -9.34407,2.60098 -30.29479,9.20679 -30.29479,9.55202 0,0.0732 0.20836,0.068 0.46303,-0.0116 0.25466,-0.0796 1.59411,-0.3785 2.97656,-0.6643 z m -34.90457,-3.76226 c -1.80751,-2.38813 -3.07656,-5.4939 -3.72306,-9.11152 -0.52894,-2.95977 -0.22121,-9.20467 0.59219,-12.0175 1.43171,-4.95099 3.34514,-8.75437 5.75692,-11.44322 0.75053,-0.83675 1.29424,-1.52136 1.20826,-1.52136 -0.086,0 -0.70581,0.25828 -1.37738,0.57396 -2.40784,1.13181 -5.31765,4.35117 -7.07713,7.82998 -1.67461,3.31101 -3.06962,9.02339 -3.07208,12.57975 -0.003,4.95937 2.0109,10.44243 4.60093,12.52385 0.80993,0.65088 3.33976,1.89706 3.92675,1.9343 0.10691,0.007 -0.26902,-0.59993 -0.8354,-1.34824 z m 23.91485,-12.26547 c 1.20309,-1.45521 4.4825,-5.68193 7.28759,-9.39271 5.72119,-7.56843 7.04489,-9.1782 10.29559,-12.52052 2.85104,-2.93139 4.9247,-4.6006 7.44091,-5.98961 l 1.97292,-1.08911 -3.04271,0.0762 c -3.01399,0.0755 -3.05894,0.086 -4.7625,1.11292 -3.29956,1.98907 -8.30604,7.45538 -12.38998,13.52796 -1.432,2.12929 -10.75162,17.40914 -12.0149,19.69884 -0.67083,1.2159 2.15041,-1.71947 5.21308,-5.42395 z"
       id="path1" /></g></svg>
