<?xml version="1.0" encoding="UTF-8" standalone="no"?>
<!-- Created with Inkscape (http://www.inkscape.org/) -->

<svg
   width="253.27019mm"
   height="259.25043mm"
   viewBox="0 0 253.27018 259.25043"
   version="1.1"
   id="svg1"
   xml:space="preserve"
   inkscape:version="1.4 (86a8ad7, 2024-10-11)"
   sodipodi:docname="minotaur.svg"
   xmlns:inkscape="http://www.inkscape.org/namespaces/inkscape"
   xmlns:sodipodi="http://sodipodi.sourceforge.net/DTD/sodipodi-0.dtd"
   xmlns="http://www.w3.org/2000/svg"
   xmlns:svg="http://www.w3.org/2000/svg"><sodipodi:namedview
     id="namedview1"
     pagecolor="#ffffff"
     bordercolor="#000000"
     borderopacity="0.25"
     inkscape:showpageshadow="2"
     inkscape:pageopacity="0.0"
     inkscape:pagecheckerboard="0"
     inkscape:deskcolor="#d1d1d1"
     inkscape:document-units="mm"
     inkscape:zoom="0.38083965"
     inkscape:cx="547.47451"
     inkscape:cy="660.38293"
     inkscape:window-width="1828"
     inkscape:window-height="1057"
     inkscape:window-x="3924"
     inkscape:window-y="-8"
     inkscape:window-maximized="1"
     inkscape:current-layer="layer1" /><defs
     id="defs1" /><g
     inkscape:label="Warstwa 1"
     inkscape:groupmode="layer"
     id="layer1"
     transform="translate(18.472174,-28.52103)"><path
       style="fill:#000000"
       d="m 58.620908,287.36992 c -0.436563,-0.21753 -1.835547,-1.37619 -3.108854,-2.57481 -3.381894,-3.18352 -3.502898,-2.72609 2.430619,-9.18846 1.67015,-1.81901 3.306956,-3.60864 3.637348,-3.97694 l 0.600714,-0.66965 -1.430267,-1.11705 c -0.786647,-0.61438 -2.692946,-2.25721 -4.23622,-3.65074 l -2.805953,-2.53367 -2.570777,-0.38343 c -1.413927,-0.21088 -4.416245,-0.80346 -6.671818,-1.31685 -4.860827,-1.10636 -8.751362,-1.75197 -14.155206,-2.34896 -11.868838,-1.31123 -18.733073,-3.02502 -25.4453487,-6.35296 -3.7924625,-1.88029 -6.6217995,-3.77726 -10.5379826,-7.06534 -1.7945619,-1.50673 -3.0289059,-2.33336 -3.8364589,-2.56923 -3.8226998,-1.11654 -7.1947728,-3.39857 -8.3003868,-5.61725 -0.868316,-1.74248 -0.878355,-2.84648 -0.05787,-6.36373 0.400348,-1.71621 0.698464,-4.01112 0.801214,-6.16781 0.177865,-3.73328 0.82692,-7.40037 1.832253,-10.35203 0.524759,-1.5407 0.598262,-2.09043 0.40683,-3.04271 -0.436783,-2.17278 -0.591224,-9.24145 -0.263276,-12.04991 0.870018,-7.45061 3.692212,-13.90003 8.9901187,-20.5447 l 1.6453331,-2.06358 -0.3145041,-2.69892 c -0.801254,-6.87595 0.5163401,-13.53039 3.78245407,-19.10308 C 3.6055698,147.78198 10.595116,142.81582 19.72716,140.90036 c 1.225132,-0.25697 1.980065,-0.64058 3.307292,-1.68055 4.891713,-3.83296 10.523075,-7.00581 16.212468,-9.13448 1.319551,-0.49371 1.472251,-0.64453 2.194041,-2.16699 1.642756,-3.46504 6.284168,-10.0401 10.764136,-15.24855 l 2.050855,-2.38435 -1.786272,-0.58438 C 45.32181,107.36263 39.57804,102.80121 37.49217,97.806663 l -0.386742,-0.92604 h 2.687949 2.687948 l 3.96875,-1.89701 c 4.741488,-2.26637 6.935279,-2.97442 9.868449,-3.18508 1.207542,-0.0867 2.100511,-0.24198 1.984375,-0.34502 -0.116137,-0.10304 -1.21383,-0.51398 -2.439318,-0.91319 -8.076326,-2.63095 -14.405307,-7.657054 -17.205925,-13.663934 -1.303109,-2.79496 -1.669447,-4.70051 -1.542112,-8.0215 0.233684,-6.09466 2.206908,-9.0418 11.68853,-17.45762 8.757892,-7.77344 10.707563,-10.57434 12.040694,-17.29767 l 0.457339,-2.30648 0.821599,2.12083 c 1.292747,3.33701 1.750174,6.08553 1.582245,9.50714 -0.236257,4.81382 -1.752004,8.29237 -6.294579,14.4457 -2.808861,3.80486 -3.622232,5.21524 -3.862888,6.69823 -0.367001,2.26156 0.87392,4.53312 3.500153,6.40716 3.066843,2.18845 6.852893,3.33383 12.755637,3.85892 2.519706,0.22414 3.737478,0.45034 4.314863,0.80147 1.2221,0.7432 1.819284,2.33315 1.826167,4.86201 0.0095,3.48992 -0.799839,5.56237 -3.629958,9.295134 -0.794355,1.04771 -1.402136,2.03136 -1.350624,2.1859 0.119175,0.35752 3.505565,-1.25122 4.628517,-2.19883 1.1016,-0.92959 2.338669,-2.89088 3.042563,-4.823774 0.852988,-2.3423 0.859491,-6.86594 0.01252,-8.70989 -1.130181,-2.46053 -3.030602,-3.91003 -5.66503,-4.32086 l -1.397803,-0.21798 1.147657,-0.32671 c 4.299075,-1.22382 9.811907,-1.56924 15.563592,-0.97518 4.043201,0.41761 4.446258,0.41621 7.408337,-0.0258 4.539925,-0.67738 14.348445,-0.67612 16.746805,0.002 2.07582,0.58707 3.09181,1.08201 4.03822,1.96723 l 0.7192,0.6727 3.11726,-0.99857 c 5.60295,-1.79485 9.06799,-3.96342 10.16285,-6.36036 0.93732,-2.05207 0.50327,-3.47977 -2.2065,-7.25763 -3.52768,-4.91819 -4.97138,-8.68613 -4.97138,-12.97495 0,-5.11644 2.68309,-11.74198 6.37862,-15.75116 1.22554,-1.32956 1.66872,-1.51357 1.2982,-0.53904 -0.53904,1.4178 -1.11034,5.38374 -1.11034,7.70796 0,5.64319 2.13779,9.38202 9.68318,16.93517 4.60067,4.60541 5.83716,6.32153 6.84373,9.4984 0.83227,2.62674 0.81293,6.95011 -0.042,9.39271 -1.40643,4.01819 -5.14252,8.48121 -9.57281,11.43538 -1.24528,0.83037 -3.85892,2.339284 -5.80809,3.353124 -3.25185,1.69143 -3.47956,1.85696 -2.76293,2.00832 0.42955,0.0907 1.89188,0.46601 3.24963,0.83395 1.35775,0.36795 3.95348,0.94314 5.7683,1.2782 1.81481,0.33506 3.37425,0.68379 3.46541,0.77495 0.22108,0.22108 -0.815,2.08136 -2.11473,3.79699 -2.30619,3.04416 -5.83979,5.736667 -8.93884,6.811157 -0.64786,0.22463 -1.32024,0.45972 -1.49417,0.52243 -0.23025,0.083 -0.24668,0.35159 -0.0604,0.98777 0.1407,0.48057 0.43775,2.42158 0.66009,4.31335 0.45025,3.83077 0.52174,4.22796 1.08253,6.01419 0.35277,1.12366 0.55457,1.33782 1.97294,2.0938 1.81751,0.96872 2.8976,2.20197 3.50845,4.00594 0.48244,1.42477 0.55298,4.28487 0.14497,5.87773 -0.1491,0.58209 -0.36085,2.91271 -0.47055,5.17917 -0.18647,3.85268 -0.24765,4.20308 -0.94017,5.38477 -0.44325,0.75634 -1.19893,1.54532 -1.88168,1.96458 -1.09077,0.66983 -1.14881,0.77048 -1.31925,2.28815 -0.36352,3.23694 -2.15836,5.86714 -4.9586,7.26644 -1.94492,0.97188 -2.9152,1.00603 -4.50884,0.15869 l -1.21244,-0.64466 -1.75378,0.88238 c -3.13317,1.57638 -6.89724,1.87055 -9.42391,0.7365 -1.82638,-0.81975 -3.39032,-2.40559 -5.99403,-6.07801 -2.9474,-4.15717 -4.160525,-5.55544 -6.143805,-7.08154 -2.68171,-2.06353 -5.520597,-3.27479 -11.512363,-4.91194 -3.041859,-0.83113 -5.22722,-1.9476 -6.969398,-3.56055 -1.887974,-1.74793 -2.790698,-3.37456 -3.477417,-6.26602 -0.546676,-2.30179 -1.070559,-9.15574 -0.86565,-11.32525 0.109357,-1.15783 0.100535,-1.17428 -0.320335,-0.59742 -2.00828,2.75264 -2.629575,11.31665 -1.131994,15.60354 1.692551,4.84499 5.201549,7.7619 10.967375,9.11679 8.901608,2.09176 10.734605,2.92032 14.232832,6.4336 1.30969,1.31532 3.205195,3.32541 4.212225,4.46686 l 1.83097,2.07537 -0.63725,1.16653 c -0.85057,1.55706 -4.525775,6.54992 -6.304875,8.56535 -1.36706,1.54867 -1.39533,1.61017 -0.66145,1.43928 2.89313,-0.67372 6.138765,-2.51777 8.743145,-4.96752 l 1.92327,-1.80909 1.41051,0.52774 c 0.77577,0.29026 1.95712,0.60971 2.6252,0.7099 1.46641,0.2199 4.50526,-0.21076 6.78933,-0.96218 l 1.67481,-0.55099 1.4593,0.55844 c 2.01532,0.77122 3.89653,0.93138 5.58948,0.47586 l 1.40259,-0.37739 1.63505,1.05678 c 3.34562,2.16237 6.34629,5.79713 8.06206,9.7657 1.31036,3.03084 1.67903,5.0924 1.77524,9.92704 0.0844,4.23922 0.0938,4.29846 0.90826,5.72206 l 0.82302,1.43849 -4.32561,4.41643 -4.32562,4.41643 -0.15267,-3.39161 c -0.16916,-3.75825 -0.90193,-7.80128 -1.94463,-10.72949 -0.8548,-2.40054 -3.05127,-6.64795 -4.07277,-7.87567 l -0.77049,-0.92604 0.51782,1.71979 c 2.38184,7.91057 3.28275,16.67253 2.24437,21.82812 -0.64271,3.1911 -2.17623,6.19359 -4.17055,8.16554 -3.95989,3.91548 -8.8152,5.00294 -17.89719,4.00849 -2.35504,-0.25787 -4.34092,-0.40984 -4.41306,-0.3377 -0.19847,0.19848 3.26007,2.20861 4.91306,2.85551 3.0578,1.19667 6.86411,1.59374 9.89918,1.03267 0.84134,-0.15553 1.59141,-0.22107 1.66683,-0.14565 0.0754,0.0754 -0.3956,0.70868 -1.04671,1.40726 -0.65111,0.69857 -2.53345,2.75841 -4.18297,4.57742 -1.64953,1.81901 -3.81657,4.1901 -4.81566,5.26907 l -1.81653,1.96178 -1.89534,-0.90344 c -1.04243,-0.4969 -2.64904,-1.46899 -3.57024,-2.16022 -0.921205,-0.69122 -1.711885,-1.25677 -1.757075,-1.25677 -0.0452,0 0.03,0.62508 0.167,1.38906 0.46022,2.56566 1.483125,4.21806 3.515065,5.67826 l 0.79375,0.57041 -0.94628,1.00978 c -0.52045,0.55538 -3.723735,4.04588 -7.118405,7.75666 -3.39467,3.71078 -6.500975,7.09179 -6.902899,7.51335 l -0.73077,0.76648 -1.94041,-0.72885 c -2.378776,-0.8935 -5.681964,-1.16026 -8.329124,-0.67263 -0.997353,0.18371 -4.164121,1.03296 -7.037262,1.88721 -2.873141,0.85425 -5.397769,1.55319 -5.610283,1.55319 -0.573822,0 -8.031022,-2.19351 -11.523115,-3.38948 -6.713416,-2.29922 -8.632115,-3.35786 -11.381399,-6.2797 -6.609255,-7.02408 -9.153742,-9.30999 -12.384991,-11.12636 l -1.308079,-0.73531 1.532167,-1.78019 c 4.189707,-4.86794 6.782515,-10.48077 7.681439,-16.62855 0.45127,-3.08626 0.198794,-8.02618 -0.561829,-10.9927 l -0.610558,-2.38125 -0.455655,3.57187 c -0.585859,4.59254 -1.279798,7.69895 -2.605858,11.66508 -1.81698,5.43443 -4.100399,9.32822 -7.606354,12.97071 l -1.683759,1.74932 -1.51329,-0.36891 c -1.978956,-0.48246 -7.762576,-0.74367 -10.773735,-0.48662 l -2.3812497,0.20328 3.9687497,1.03485 c 8.08278,2.10757 13.365213,4.30114 17.10926,7.10475 1.212927,0.90826 4.110322,3.58684 6.438656,5.95241 4.529729,4.60216 6.202301,5.86431 9.723656,7.3376 2.796469,1.17001 16.400909,5.67902 17.793008,5.89725 0.870416,0.13645 1.976413,-0.14172 6.228878,-1.56662 9.025075,-3.02411 12.327528,-3.16046 16.252891,-0.67107 0.692746,0.43932 1.278639,0.76291 1.301985,0.71908 0.02335,-0.0438 1.175817,-1.32985 2.561046,-2.85782 1.38523,-1.52797 6.139094,-6.82625 10.564149,-11.77395 4.42505,-4.94771 9.5438,-10.66271 11.37499,-12.7 5.35912,-5.96228 14.28332,-15.93389 20.11868,-22.47997 2.97887,-3.34169 6.9964,-7.83337 8.92783,-9.9815 l 3.51168,-3.90569 -0.72461,-1.38579 c -0.99334,-1.89973 -1.15924,-4.32229 -0.3821,-5.57973 0.56452,-0.91341 1.52134,-1.5142 2.41154,-1.5142 0.46204,0 0.44934,-0.0872 -0.17549,-1.20516 -1.44017,-2.57675 -0.24879,-6.1769 2.48769,-7.51737 0.98495,-0.48248 1.32214,-0.78133 1.20391,-1.06705 -0.45053,-1.08882 -0.36157,-2.88271 0.20869,-4.20831 1.0463,-2.43218 3.19852,-3.72919 6.18812,-3.72919 1.18374,0 1.20577,-0.0157 1.20674,-0.85989 0.001,-1.10415 0.81779,-2.43714 1.91482,-3.12601 1.6972,-1.06573 4.70868,-0.27928 7.14607,1.8662 l 1.17076,1.03054 8.70816,-9.80903 c 4.78949,-5.39497 8.74273,-9.89705 8.78498,-10.00463 0.1334,-0.33967 -2.55441,-2.58363 -4.53481,-3.78596 -6.96974,-4.23143 -14.76235,-4.49518 -21.99959,-0.7446 -1.77617,0.92047 -5.27663,4.01315 -6.3086,5.57367 -0.23477,0.35503 -0.48933,0.58303 -0.56568,0.50668 -0.0763,-0.0763 -0.3276,-1.37885 -0.55833,-2.89445 -0.59409,-3.9023 -0.39466,-11.46319 0.40766,-15.45564 1.2072,-6.00721 3.82887,-12.40713 7.08939,-17.306397 1.89602,-2.84896 6.95952,-7.97764 9.55052,-9.67346 4.36203,-2.854974 9.45749,-4.916934 14.76039,-5.973034 3.19337,-0.63598 9.72538,-0.97382 12.68999,-0.65634 l 1.81106,0.19395 -0.78545,0.56064 c -1.63785,1.16907 -3.90784,3.53457 -5.07134,5.284734 -5.83764,8.78106 -4.30225,19.451757 3.95746,27.503767 1.30615,1.2733 2.45016,2.31278 2.54225,2.30995 0.0921,-0.003 0.87435,-0.83961 1.73836,-1.85949 0.86402,-1.01988 1.86423,-1.92795 2.22269,-2.01791 0.9348,-0.23462 1.94835,0.4055 4.60689,2.90956 1.99769,1.88161 2.31511,2.2997 2.31511,3.04939 0,1.14415 -0.38223,1.81077 -1.3895,2.42333 l -0.82656,0.50266 0.73639,0.27998 c 1.21924,0.46355 5.14547,1.06824 6.87214,1.0584 3.54058,-0.0202 7.20954,-1.05486 10.424,-2.93965 1.48865,-0.87287 5.68364,-4.7966 6.99095,-6.5389 l 0.66691,-0.88883 0.59789,2.21174 c 1.13148,4.18559 1.40904,6.29272 1.42401,10.8107 0.0156,4.72117 -0.2367,6.69939 -1.44368,11.31716 -3.00142,11.48307 -10.4295,21.53765 -20.21609,27.36429 -5.09899,3.03578 -11.13916,5.0803 -17.40991,5.89303 -2.93114,0.37989 -6.53488,0.54174 -6.53488,0.29349 0,-0.0612 0.64021,-1.04343 1.42268,-2.18282 4.27108,-6.21923 6.26793,-13.09969 5.49237,-18.92479 -0.17877,-1.34268 -0.68468,-3.52585 -1.12425,-4.85149 -0.81321,-2.45241 -2.29978,-5.44707 -2.70944,-5.45807 -0.12425,-0.003 -3.65462,3.83901 -7.84526,8.53856 l -7.61934,8.54463 0.86805,1.07102 c 2.11059,2.60411 2.67746,4.94515 2.42818,10.02767 -0.30247,6.16692 -1.27383,11.60401 -3.33948,18.69232 -1.11185,3.81532 -1.31752,5.49214 -3.73201,30.42708 -0.85838,8.86466 -1.31539,11.82827 -2.28481,14.81666 -1.45247,4.47749 -3.47971,7.71387 -8.93376,14.26228 -3.63055,4.35901 -5.22025,6.50824 -6.08543,8.22731 -0.64301,1.27761 -1.40929,2.06833 -2.65313,2.73772 -0.94385,0.50796 -1.45902,0.56805 -4.7625,0.55551 -3.24298,-0.0123 -3.90181,-0.0916 -5.29166,-0.63668 -2.29895,-0.90166 -3.2176,-1.55227 -5.27817,-3.73813 -1.01122,-1.07271 -2.85669,-2.73752 -4.10104,-3.69957 -4.33731,-3.35334 -8.88826,-8.68986 -11.9859,-14.05484 l -1.25677,-2.17668 0.003,-3.05356 c 0.005,-5.05393 -0.44031,-4.23471 6.31957,-11.63063 3.28935,-3.59885 7.29499,-7.96331 8.90142,-9.69878 2.80926,-3.03494 6.89964,-7.84296 9.37643,-11.02151 1.4461,-1.85583 1.61979,-1.68512 1.79203,1.7613 0.21385,4.27909 -0.83536,7.19577 -4.16719,11.58428 -2.82099,3.71565 -4.08323,6.69926 -4.62181,10.92469 l -0.16862,1.32292 1.06892,-2.04783 c 1.35793,-2.60152 3.46976,-5.87572 6.0887,-9.43998 2.79264,-3.80065 4.98003,-7.50093 7.59845,-12.85386 2.16254,-4.42096 2.45161,-5.24033 1.95666,-5.54622 -0.8373,-0.51748 -2.59108,-4.62634 -2.70657,-6.34111 -0.035,-0.51973 -0.1331,-0.94496 -0.218,-0.94496 -0.2333,0 -2.30543,2.30759 -26.47675,29.48533 -27.436315,30.84884 -28.561635,32.12472 -28.546405,32.36568 0.007,0.10658 0.48065,0.55097 1.05314,0.98753 1.3501,1.02954 3.133045,3.29914 3.583585,4.56173 0.52351,1.46708 0.45697,3.17809 -0.17431,4.48215 -0.6248,1.29065 -2.302705,2.84474 -3.563685,3.30072 -0.77976,0.28196 -0.85711,0.41848 -0.9952,1.75644 -0.28321,2.74402 -2.690689,5.35929 -5.292672,5.74948 -1.074425,0.16112 -1.152325,0.23487 -1.610416,1.52466 -0.82053,2.31026 -2.954547,3.78263 -5.927082,4.08943 -1.14665,0.11834 -1.612861,0.30111 -1.989523,0.77996 -1.506565,1.91529 -5.422078,2.395 -8.623474,1.05651 -0.934594,-0.39075 -1.725522,-0.71046 -1.757617,-0.71046 -0.0321,0 -2.300844,2.45174 -5.041663,5.4483 -4.41728,4.82945 -5.896163,6.2084 -6.635714,6.18735 -0.116367,-0.003 -0.568764,-0.18401 -1.005326,-0.40154 z m 15.560585,-57.60714 c 1.803507,-1.80351 3.856208,-3.14945 6.580843,-4.31502 3.78828,-1.62058 7.282986,-3.57738 8.793769,-4.92392 1.660598,-1.48006 2.963964,-3.84554 3.236496,-5.8739 l 0.173752,-1.29317 -1.45163,1.18236 c -1.964933,1.60046 -5.12188,3.46818 -9.875066,5.84231 -5.632324,2.81323 -7.621324,4.41159 -9.457705,7.60021 -0.817403,1.41931 -1.681924,3.98923 -1.932352,5.74422 l -0.180829,1.26724 1.363251,-1.92206 c 0.749788,-1.05713 1.987049,-2.54585 2.749471,-3.30827 z m 11.88256,-23.85258 c 4.292086,-0.80427 6.242989,-1.68199 8.478972,-3.81476 2.86351,-2.73132 4.44698,-6.27468 4.92607,-11.02316 0.611545,-6.06113 -1.17167,-14.40814 -4.38062,-20.50521 -0.77326,-1.46922 -0.882217,-1.58487 -0.747814,-0.79375 1.788524,10.52751 2.342804,18.02661 1.632044,22.0806 -0.77806,4.43784 -2.952292,7.68876 -6.130965,9.16702 -2.972018,1.38215 -5.33467,1.69333 -12.832291,1.69008 -7.29987,-0.003 -9.549603,-0.29966 -14.269969,-1.88073 -6.051144,-2.02681 -11.953091,-5.9692 -18.036341,-12.04796 l -2.821196,-2.81911 1.032315,2.4153 c 1.491776,3.49029 2.945582,5.7959 5.054591,8.01613 4.880599,5.13801 11.300054,8.28781 19.647892,9.64055 4.727398,0.76605 14.028393,0.70303 18.447312,-0.125 z M 25.812577,188.57731 c 3.890576,-1.02225 7.005572,-2.7624 10.060602,-5.62024 4.613541,-4.31574 7.384018,-10.05101 7.719239,-15.9799 0.180587,-3.19395 -0.15838,-5.38454 -1.319817,-8.52939 l -0.849608,-2.3005 -0.171192,3.70417 c -0.279054,6.03803 -1.700245,10.49886 -4.846418,15.21191 -1.865537,2.79463 -5.322206,6.31669 -8.184252,8.33908 -2.322761,1.64131 -7.252706,4.11649 -9.813286,4.92695 -1.088165,0.34442 -1.980618,0.73217 -1.983229,0.86166 -0.009,0.4451 7.135838,-0.022 9.387961,-0.61374 z M 158.50112,176.95077 c 0,-0.44626 -2.34874,-2.38956 -3.7405,-3.09482 -4.82587,-2.44546 -7.37217,-2.09925 -3.94668,0.5366 2.29489,1.76588 4.60458,2.78864 6.29812,2.78889 0.76398,1.2e-4 1.38906,-0.10369 1.38906,-0.23067 z m 7.40833,-7.39759 c 0,-0.30067 -2.65459,-2.24685 -4.82967,-3.54081 -1.9466,-1.15805 -5.72391,-2.57987 -6.86883,-2.58551 -0.95259,-0.005 -1.43662,0.83033 -0.79454,1.3707 1.82922,1.53947 6.95973,4.04967 9.32485,4.56236 1.99598,0.43268 3.16819,0.50418 3.16819,0.19326 z m 6.61459,-7.96423 c 0,-0.55761 -4.4873,-3.7104 -7.27604,-5.11216 -0.72761,-0.36574 -2.2499,-0.99339 -3.38288,-1.3948 -2.00593,-0.71068 -2.07,-0.71669 -2.44269,-0.22914 -0.34765,0.45481 -0.30437,0.56932 0.47247,1.24987 1.46072,1.27968 5.5649,4.06534 6.67601,4.53125 2.25007,0.9435 5.95313,1.53753 5.95313,0.95498 z m -87.461342,-4.01081 c -9.000483,-6.13499 -14.709343,-13.6286 -19.835863,-26.03711 l -1.202425,-2.91041 0.122864,3.96875 c 0.211317,6.82588 1.874127,11.34656 5.960843,16.20572 0.887313,1.05503 1.567917,1.91823 1.512454,1.91823 -0.05546,0 -0.608501,-0.17911 -1.228974,-0.39803 -0.620472,-0.21891 -4.237082,-1.30134 -8.03691,-2.40539 -7.699328,-2.23707 -12.984473,-3.30328 -19.476487,-3.92916 -2.401092,-0.23148 -4.693045,-0.4576 -5.093228,-0.50249 -2.601635,-0.29182 2.242524,1.45308 12.36927,4.45551 2.764895,0.81975 8.063176,2.49084 11.773957,3.71355 16.392231,5.40124 23.132944,7.4177 25.118874,7.5142 0.209183,0.0102 -0.683786,-0.70686 -1.984375,-1.59337 z m 29.782172,-16.12632 c 1.67349,-0.2952 4.29287,-0.60607 5.82084,-0.69081 2.40878,-0.13358 2.98917,-0.0794 4.36562,0.40789 0.87313,0.30908 1.69168,0.59096 1.81901,0.62642 0.12733,0.0354 0.40648,-0.44556 0.62033,-1.06892 0.50101,-1.46041 0.27046,-1.74573 -1.96974,-2.43765 -4.33836,-1.33998 -10.55484,0.0412 -14.7571,3.2788 -0.51183,0.39434 -0.50317,0.40791 0.26459,0.41435 0.43656,0.004 2.16296,-0.23487 3.83645,-0.53008 z m -8.33437,-8.96814 v -3.15855 l 1.5875,-3.10994 c 1.99781,-3.91375 2.83006,-5.06335 4.02792,-5.56385 1.22176,-0.51048 2.12821,-0.34394 5.62937,1.03428 2.46134,0.9689 3.03457,1.09526 5.02708,1.10815 3.37931,0.0219 5.39871,-1.12038 5.96422,-3.37356 0.23745,-0.9461 -0.15228,-0.92713 -2.38116,0.11589 -1.60656,0.7518 -1.9415,0.815 -3.66772,0.69206 -1.33051,-0.0948 -2.65283,-0.43244 -4.41325,-1.12702 -3.30359,-1.30345 -5.52373,-1.50526 -7.26835,-0.66071 -0.67427,0.32641 -1.25092,0.55008 -1.28144,0.49704 -0.55368,-0.962 -3.79831,-5.63082 -4.38806,-6.31414 l -0.79922,-0.92604 0.76371,1.85208 c 0.89107,2.16094 1.80752,5.52343 2.01916,7.40833 0.13653,1.21597 0.0605,1.46196 -0.94071,3.04271 -1.80229,2.84558 -2.22154,3.92682 -2.20571,5.68854 0.016,1.78096 0.55883,3.48563 1.57974,4.96094 0.37763,0.5457 0.70017,0.99222 0.71676,0.99226 0.0166,4e-5 0.0302,-1.42127 0.0302,-3.15847 z m 24.93023,-4.11765 c 1.04465,-2.69684 1.3272,-4.10104 0.82522,-4.10104 -0.78138,0 -2.30478,1.34803 -2.89031,2.55758 -0.75653,1.56279 -0.80164,3.85408 -0.11621,5.90344 l 0.48482,1.44956 0.43829,-1.84643 c 0.24106,-1.01554 0.80724,-2.79894 1.25819,-3.96311 z m -16.43784,1.42678 c 0.68511,-0.75704 2.68044,-0.67901 3.9061,0.15275 1.10761,0.75164 1.17923,0.63608 0.40503,-0.65348 -0.84656,-1.41009 -1.57536,-2.11067 -2.88165,-2.77005 -2.14975,-1.08515 -2.26541,-1.08002 -2.7463,0.12184 -0.54907,1.37226 -0.54334,2.61555 0.0185,4.0198 l 0.44722,1.11773 0.19896,-0.74393 c 0.10942,-0.40915 0.40287,-0.96925 0.65211,-1.24466 z m 9.58542,-18.4924 c -0.14599,-1.19262 -0.61466,-2.8817 -1.17462,-4.23333 -1.65724,-4.00023 -1.62988,-3.73771 -0.5578,-5.35286 2.14066,-3.225047 2.55512,-6.572637 1.17625,-9.500627 -0.36738,-0.78011 -1.74138,-2.68983 -3.05335,-4.24382 -1.48197,-1.75537 -2.84408,-3.713554 -3.59652,-5.170434 -1.48541,-2.87602 -3.3533,-5.21502 -4.86962,-6.09783 l -1.1416,-0.66463 0.70405,1.02916 c 0.87304,1.2762 2.55212,4.57979 3.75054,7.37916 0.49838,1.16417 1.90576,3.615884 3.12751,5.448254 1.22175,1.83237 2.36192,3.85709 2.5337,4.49938 0.42236,1.57916 -0.16877,3.58787 -1.74961,5.945307 -0.65351,0.97456 -1.1882,1.81121 -1.1882,1.85923 0,0.048 1.09042,2.14561 2.42316,4.66132 2.47691,4.67547 3.63894,6.67911 3.77974,6.51724 0.0436,-0.0501 -0.03,-0.98411 -0.16363,-2.07552 z m -61.599421,-3.85504 c 1.004635,-0.2285 2.218763,-0.67815 2.698063,-0.99923 0.808626,-0.54168 2.591247,-2.85784 2.591247,-3.3668 0,-0.12307 -0.565547,0.0591 -1.256771,0.40474 -2.484788,1.24261 -4.394002,1.59329 -8.532812,1.56729 -2.930832,-0.0184 -4.289271,-0.14702 -5.754687,-0.54482 -1.055026,-0.2864 -1.917188,-0.45252 -1.915915,-0.36916 0.0027,0.17759 2.657026,1.88722 3.895038,2.50877 2.381276,1.19552 5.295873,1.47699 8.275837,0.79921 z m 33.081096,-2.23575 c 0.57629,-0.294 1.0478,-0.62306 1.0478,-0.73125 0,-0.22391 -6.826615,-4.806387 -8.135941,-5.461377 l -0.859896,-0.43017 v 0.75252 c 0,1.308107 0.747937,3.325087 1.627329,4.388467 1.58673,1.9187 4.243466,2.54154 6.320708,1.48181 z m 11.410895,-1.48575 c 1.80622,-1.71559 2.30124,-4.400777 1.38685,-7.522827 -0.56202,-1.91891 -0.77659,-2.07162 -0.84072,-0.59832 -0.0932,2.1404 -1.88115,4.849767 -3.20052,4.849767 -0.24903,0 -1.84302,-1.474557 -3.5422,-3.276797 -3.364495,-3.56856 -6.021415,-5.72394 -8.828427,-7.1619 -3.345191,-1.71366 -5.752662,-1.78327 -8.573626,-0.24791 -1.223784,0.66606 -4.449434,3.67316 -4.203709,3.91889 0.0689,0.0689 1.133657,-0.18511 2.36612,-0.56446 1.801296,-0.55445 2.811726,-0.69444 5.151258,-0.71367 2.587711,-0.0213 3.042433,0.0462 4.101042,0.60887 2.196726,1.16754 4.338487,2.99279 8.660077,7.380307 l 4.294455,4.35996 1.21577,-0.13703 c 0.8529,-0.0961 1.4539,-0.36322 2.01363,-0.89488 z m 17.39597,-22.983631 c 6.52173,-2.68617 10.63839,-6.89897 11.03967,-11.29749 0.0836,-0.91646 0.0309,-2.08301 -0.1172,-2.59234 -0.23628,-0.81271 -0.27214,-0.84217 -0.29309,-0.24069 -0.0452,1.29703 -1.58413,3.87787 -3.15088,5.28399 -1.97847,1.77564 -6.02851,3.74487 -9.57298,4.65464 -1.52797,0.39219 -2.81273,0.73684 -2.85502,0.76589 -0.0423,0.029 0.15193,0.45477 0.43161,0.94606 0.27968,0.49128 0.71742,1.45878 0.97274,2.15001 0.29336,0.79419 0.62142,1.25499 0.89131,1.25193 0.23489,-0.003 1.42912,-0.41757 2.65384,-0.922 z M 92.505149,272.87813 c 0.08923,-0.23254 0.816098,-0.7918 1.615261,-1.24282 0.799165,-0.45102 1.992295,-1.31712 2.651415,-1.92467 1.26515,-1.16618 2.72055,-3.43251 2.72472,-4.24292 0.001,-0.26489 0.853305,-1.27693 1.893185,-2.24895 2.49905,-2.336 3.40047,-4.15185 3.40077,-6.85063 2.6e-4,-2.41454 -0.65153,-4.21219 -2.39371,-6.60188 -0.72064,-0.98848 -1.30946,-1.85932 -1.30849,-1.93519 0.003,-0.20063 15.10918,-17.0548 15.38027,-17.15949 0.67862,-0.26206 -0.0631,4.41696 -1.35608,8.55486 -0.69421,2.22162 -0.75526,2.78919 -0.9107,8.46667 -0.27393,10.00509 -1.17666,18.5752 -2.07164,19.66714 -0.67625,0.82507 -4.26138,2.95365 -6.29692,3.73864 -3.43433,1.32441 -6.146575,1.88125 -9.978405,2.04863 -3.146918,0.13745 -3.495053,0.10945 -3.349676,-0.26939 z"
       id="path1" /></g></svg>
