<?xml version="1.0" encoding="UTF-8" standalone="no"?>
<!-- Created with Inkscape (http://www.inkscape.org/) -->

<svg
   width="246.95302mm"
   height="247.48445mm"
   viewBox="0 0 246.95302 247.48445"
   version="1.1"
   id="svg1"
   xml:space="preserve"
   inkscape:version="1.4 (86a8ad7, 2024-10-11)"
   sodipodi:docname="hades2.svg"
   xmlns:inkscape="http://www.inkscape.org/namespaces/inkscape"
   xmlns:sodipodi="http://sodipodi.sourceforge.net/DTD/sodipodi-0.dtd"
   xmlns="http://www.w3.org/2000/svg"
   xmlns:svg="http://www.w3.org/2000/svg"><sodipodi:namedview
     id="namedview1"
     pagecolor="#ffffff"
     bordercolor="#000000"
     borderopacity="0.25"
     inkscape:showpageshadow="2"
     inkscape:pageopacity="0.0"
     inkscape:pagecheckerboard="0"
     inkscape:deskcolor="#d1d1d1"
     inkscape:document-units="mm"
     inkscape:zoom="0.76167929"
     inkscape:cx="567.16784"
     inkscape:cy="621.65271"
     inkscape:window-width="1828"
     inkscape:window-height="1057"
     inkscape:window-x="84"
     inkscape:window-y="-8"
     inkscape:window-maximized="1"
     inkscape:current-layer="layer1" /><defs
     id="defs1" /><g
     inkscape:label="Warstwa 1"
     inkscape:groupmode="layer"
     id="layer1"
     transform="translate(44.918631,16.075245)"><path
       style="fill:#000000"
       d="M 71.569791,231.3489 C 62.414887,230.62749 52.876029,229.04612 46.169793,227.13803 31.544081,222.97666 19.874498,217.52128 7.540628,209.07938 -3.2424011,201.69896 -15.89493,188.9843 -23.3232,178.064 c -6.041911,-8.88221 -11.441934,-19.67438 -14.82718,-29.63275 -2.915211,-8.57567 -5.423452,-19.92279 -6.170192,-27.91354 -0.09519,-1.01865 -0.228941,-2.2688 -0.297218,-2.77813 -0.337949,-2.52097 -0.412471,-14.95604 -0.113958,-19.0156 1.242009,-16.890419 5.573532,-32.659127 13.091608,-47.659393 C -22.404544,32.637478 -8.6626329,16.921983 8.2020863,5.500303 29.26329,-8.7634585 52.834772,-16.030479 78.184374,-16.075037 c 18.402902,-0.03235 35.853966,3.703369 52.770776,11.2965394 12.4998,5.61057983 25.88718,15.0478996 36.3774,25.6439386 l 2.89401,2.923204 -1.60171,3.385367 c -0.88094,1.861952 -1.80204,3.94019 -2.0469,4.618306 l -0.44519,1.232939 -3.30796,-3.536768 C 158.49896,24.863447 155.75263,22.305311 151.07708,18.545796 142.10053,11.327934 134.68723,6.7650466 124.75104,2.3421031 119.22677,-0.11693847 115.62459,-1.4016339 109.64224,-3.0463542 100.04487,-5.6849466 92.137299,-6.8117109 81.444605,-7.064289 66.637781,-7.4140492 54.164003,-5.4755274 39.687501,-0.57491128 30.66927,2.4779593 23.153819,6.3290776 13.096878,13.050835 -2.2006187,23.275222 -15.740073,38.904239 -24.074893,55.959378 c -6.188295,12.662809 -10.07886,26.241679 -11.538471,40.271629 -0.466555,4.484583 -0.640924,16.192573 -0.292746,19.656493 0.593595,5.90549 0.793144,7.56673 1.271282,10.58333 0.450162,2.8401 2.542529,12.69564 2.739494,12.90365 0.03716,0.0392 0.441022,-0.67513 0.897469,-1.5875 1.773114,-3.5442 5.956912,-8.70366 9.529967,-11.75236 10.990945,-9.37798 24.8043349,-11.16002 37.739776,-4.86872 6.270357,3.04966 11.243756,7.01976 22.264694,17.77318 3.22504,3.14676 7.503525,7.07582 9.507744,8.73125 8.869555,7.32601 13.93513,12.02684 18.695362,17.3492 3.246431,3.6298 7.414888,9.12579 9.571999,12.62042 0.861787,1.39613 1.601561,2.50375 1.643943,2.46137 0.140476,-0.14048 -0.623859,-2.41844 -1.618576,-4.82388 -3.606373,-8.72097 -9.740615,-17.93978 -15.957689,-23.98192 -1.557864,-1.51403 -4.439823,-3.98822 -6.404354,-5.4982 -2.690144,-2.0677 -5.531279,-4.71894 -11.509375,-10.74011 -7.952125,-8.00943 -9.740975,-9.66085 -13.867441,-12.80206 -3.062139,-2.33101 -8.442532,-5.54107 -11.353181,-6.77356 l -2.432081,-1.02984 2.609172,-0.8253 c 3.389688,-1.07219 5.732297,-2.40416 8.014058,-4.55665 3.768808,-3.55531 6.31808,-9.302106 6.931811,-15.62632 0.137101,-1.412767 -0.09002,-1.178497 -0.853627,0.88048 -2.044631,5.513139 -6.66614,10.68926 -11.930094,13.36178 -3.492597,1.77321 -6.59441,2.42945 -16.2769481,3.4437 -3.54031777,0.37085 -7.2732384,1.15159 -10.0951489,2.11139 -1.2757132,0.43391 -2.3988177,0.7009 -2.4957876,0.59331 -0.4591723,-0.50942 -1.1037464,-3.21762 -1.1176534,-4.69586 -0.01237,-1.3147 0.140163,-1.95601 0.7535744,-3.1684 1.5878166,-3.13826 4.1320778,-4.43928 11.3675155,-5.81283 3.8836396,-0.737258 6.6029117,-2.575808 7.3177543,-4.947673 1.3093998,-4.344619 -4.7037708,-7.041236 -7.9506467,-3.565481 -0.34809077,0.372629 -0.84673018,1.306676 -1.10808753,2.07566 L -0.4963802,95.11771 -1.100212,93.794793 c -0.4402143,-0.964452 -0.6311121,-1.95266 -0.7045101,-3.646991 -0.090709,-2.093937 -0.030942,-2.46661 0.6035663,-3.763498 1.45700107,-2.978003 3.8027028,-4.156516 8.0803255,-4.059665 4.9783113,0.112714 5.7237983,0.06973 6.9567233,-0.40113 1.992568,-0.760968 2.925691,-2.63825 2.285541,-4.598112 -0.178408,-0.546207 -0.835457,-1.886072 -1.460109,-2.977478 -1.565448,-2.735185 -2.064555,-4.624136 -1.89097,-7.156683 0.251668,-3.671772 2.298158,-6.638594 6.778288,-9.826569 1.253716,-0.892121 2.676596,-1.989988 3.161954,-2.439705 1.609167,-1.491001 1.728377,-1.94247 1.927539,-7.299958 0.135691,-3.650117 0.321571,-5.421495 0.730989,-6.9661 2.860636,-10.792274 13.268836,-20.548274 25.298584,-23.713319 6.156093,-1.619678 14.039552,-2.200269 20.189367,-1.48688 6.745394,0.782476 11.266358,2.337785 14.967509,5.149145 1.796965,1.364958 1.826299,1.375934 2.38125,0.890968 2.712525,-2.370447 7.838988,-4.300896 11.421373,-4.300896 h 1.646732 l -0.36155,1.918229 c -1.052036,5.581754 -3.151889,9.00587 -6.84763,11.166069 l -1.789117,1.045757 2.191443,0.736359 c 8.613474,2.894264 13.630684,8.567952 12.724384,14.389318 -0.27184,1.746053 -1.18867,3.988936 -2.08122,5.091359 l -0.49608,0.612719 -1.09355,-2.200218 c -0.65292,-1.313683 -1.57663,-2.672193 -2.29246,-3.371571 l -1.19892,-1.171352 0.14371,1.303644 c 0.13776,1.249703 1.09497,6.047635 2.21315,11.093226 0.90079,4.064632 0.59846,6.10175 -1.0833,7.299269 -0.41863,0.298085 -0.76114,0.721423 -0.76114,0.940751 0,0.219327 1.17431,3.33661 2.60958,6.927295 3.37826,8.451601 3.56372,9.037099 3.41822,10.791591 -0.20592,2.483193 -1.79899,3.443665 -4.54467,2.740021 -0.74296,-0.1904 -2.767321,-0.415237 -4.498583,-0.499638 -3.042988,-0.148349 -3.165694,-0.17755 -3.686944,-0.877396 -0.377193,-0.50643 -0.584117,-1.301375 -0.688709,-2.645833 l -0.149514,-1.921894 -0.691064,0.926042 c -0.916376,1.227964 -1.293311,2.427206 -1.293311,4.114752 v 1.389956 l -1.918229,0.579243 c -6.707302,2.025387 -11.526096,7.29121 -13.146334,14.36589 -0.486005,2.12212 -0.841177,4.68557 -0.649194,4.68557 0.05293,0 0.268286,-0.41176 0.478564,-0.91503 0.601921,-1.4406 2.38423,-4.38759 3.775646,-6.242912 5.049817,-6.733456 10.858724,-10.307444 16.745896,-10.303078 3.559556,0.0026 5.213046,0.896645 5.818756,3.146061 0.40727,1.512494 0.10693,3.562644 -0.48805,3.331487 -1.14074,-0.443191 -3.9573,-0.451138 -5.270776,-0.01487 -1.256177,0.417235 -4.195218,2.448019 -3.928659,2.714578 0.06531,0.06531 0.916696,-0.12772 1.891973,-0.428952 2.234001,-0.690013 3.718973,-0.696606 4.826344,-0.02143 1.206888,0.735855 1.186338,2.005469 -0.06615,4.085416 -0.509322,0.84581 -0.926041,1.61719 -0.926041,1.71417 0,0.097 0.609932,0.76717 1.355404,1.4893 1.522015,1.47436 3.351745,4.15781 4.044235,5.93119 0.60124,1.53969 0.60926,4.24415 0.0219,7.39305 -0.78027,4.18324 -0.16911,7.11863 1.78589,8.5777 2.22904,1.6636 3.75403,1.79842 6.61702,0.58503 0.38018,-0.16113 0.46302,-0.0577 0.46302,0.5778 0,0.9512 -0.68822,3.3272 -1.32495,4.57424 -0.26006,0.50933 -0.99007,1.51279 -1.62226,2.22991 -3.39602,3.85234 -9.2647,5.54568 -15.768455,4.54982 -7.129977,-1.09176 -12.912119,-4.35073 -15.939445,-8.98392 l -1.063638,-1.62785 0.01931,1.58529 c 0.01062,0.87191 0.109074,2.21608 0.218778,2.98705 0.109704,0.77097 0.119514,1.45117 0.0218,1.51156 -0.298757,0.18464 -2.909555,-0.90783 -4.779608,-2 -6.40121,-3.73851 -9.316015,-11.39013 -7.655218,-20.09561 0.152691,-0.80036 0.34851,-1.69333 0.435153,-1.98437 0.112972,-0.37948 -0.145383,-0.23806 -0.91332,0.49993 -1.161541,1.11625 -2.44385,3.32804 -2.977808,5.13628 l -0.336129,1.13829 -1.95896,-1.93204 C 52.727437,109.84292 48.7783,103.40278 47.209109,96.927909 46.939907,95.817116 46.705489,93.328736 46.602391,90.487501 l -0.168015,-4.630208 -0.572474,1.322917 c -1.059345,2.448015 -1.491209,5.242394 -1.49251,9.657291 -9.9e-4,3.358669 0.101355,4.484199 0.565375,6.217709 0.759578,2.83766 2.805836,6.90999 4.851924,9.65599 2.161174,2.90045 6.294064,7.18539 8.942494,9.27148 1.330805,1.04823 2.145938,1.89254 2.256279,2.33704 0.819866,3.30271 3.25774,7.4302 5.679638,9.61602 3.187001,2.87635 6.098865,4.15051 14.297397,6.25619 13.220961,3.39561 18.171031,6.27616 22.688571,13.20294 1.99709,3.06215 3.35705,6.06125 5.24134,11.55867 l 1.62753,4.74833 2.34301,1.4134 c 5.85808,3.53384 10.05537,7.54773 13.9142,13.30623 l 0.43861,0.65454 4.06712,-3.96875 c 2.23692,-2.18281 4.92681,-4.7925 5.97754,-5.7993 l 1.91041,-1.83056 v 16.05191 c 0,8.82855 0.0508,16.05191 0.11287,16.05191 0.0621,0 1.01458,-0.59714 2.11667,-1.32697 l 2.00379,-1.32698 V 189.01205 175.0968 l 0.64211,0.16116 c 1.21924,0.30601 5.84509,0.45742 7.42768,0.24312 l 1.5875,-0.21497 0.0779,-1.61851 0.0779,-1.61851 -3.91432,0.0312 c -5.81237,0.0463 -9.14806,-0.88452 -10.07476,-2.81135 -0.18678,-0.38836 -0.40588,-1.45548 -0.48689,-2.37137 -0.22004,-2.48759 -0.15786,-2.52915 4.26608,-2.85118 6.03283,-0.43915 11.69108,-1.41167 10.94874,-1.88183 -0.20097,-0.12729 -2.09182,-0.23769 -4.20187,-0.24532 -5.23576,-0.0189 -10.38166,-0.39786 -11.28534,-0.83098 -1.02399,-0.49079 -1.52773,-1.65032 -1.5117,-3.47974 0.021,-2.39547 0.20976,-2.50169 5.52223,-3.10749 3.87607,-0.442 7.29218,-1.10112 11.11127,-2.14386 2.00732,-0.54807 0.19893,-0.71325 -8.01715,-0.73231 l -8.01714,-0.0186 -0.38338,-0.91755 c -0.48396,-1.15827 -0.48233,-2.52346 0.005,-4.35531 0.62675,-2.35502 0.58275,-2.33601 6.78595,-2.93067 4.44175,-0.4258 8.0493,-1.33936 10.56531,-2.67549 l 1.1779,-0.62552 -1.32292,-0.16775 c -0.7276,-0.0923 -4.32924,-0.14088 -8.00365,-0.10804 l -6.68072,0.0597 v -0.99558 c 0,-1.78766 0.75678,-5.00364 1.49787,-6.36526 1.06151,-1.95034 1.61233,-2.14935 6.35364,-2.29558 7.58535,-0.23394 13.38598,1.46955 15.36364,4.5119 0.6833,1.05115 0.72991,1.30728 0.73393,4.03286 0.004,2.81706 0.0305,2.9486 0.82268,4.10104 1.87238,2.72397 2.1437,4.39307 1.1274,6.93552 -0.51962,1.2999 -0.53598,1.54471 -0.23126,3.46072 0.43185,2.71536 0.38155,4.2182 -0.17651,5.27456 -0.36094,0.68323 -0.46557,1.6184 -0.49646,4.43753 -0.0289,2.63665 -0.15005,3.81958 -0.46277,4.51793 -0.73113,1.63275 -1.48313,4.92347 -2.1655,9.47611 -0.36227,2.41698 -0.94623,5.94231 -1.29769,7.83408 -0.35146,1.89178 -0.60659,3.47493 -0.56696,3.51812 0.12146,0.13236 5.52163,-5.74087 7.85692,-8.5452 6.06094,-7.27827 12.57312,-18.01494 16.28865,-26.85521 3.69757,-8.79753 6.35819,-18.5013 7.87108,-28.70729 1.63966,-11.06122 1.53257,-24.478223 -0.28298,-35.45416 -1.91768,-11.593408 -5.28044,-21.8505 -10.86454,-33.139061 -1.09776,-2.219193 -2.09018,-4.034896 -2.20537,-4.034896 -0.21728,0 -0.4454,2.248023 -0.78755,7.760866 -0.10989,1.770638 -0.22101,8.176439 -0.24692,14.235113 -0.0355,8.295351 -0.14435,11.616931 -0.44083,13.450039 -1.16366,7.194709 -4.74505,12.451312 -10.70298,15.709359 -2.45402,1.34197 -6.79296,2.7113 -10.2526,3.23565 l -2.97656,0.45113 2e-4,9.68673 2e-4,9.68673 h -4.69656 c -2.5831,0 -5.14303,0.0818 -5.68874,0.18181 l -0.99218,0.1818 v -9.88903 -9.88903 l -1.25677,-0.16672 c -9.53578,-1.265 -15.81086,-4.62262 -19.76079,-10.573444 -1.1739,-1.768544 -2.09828,-3.957015 -2.84202,-6.728472 -0.49774,-1.854759 -0.55578,-3.138971 -0.74853,-16.56274 -0.24395,-16.989112 -0.55639,-21.080804 -2.53502,-33.198785 -1.11027,-6.799774 -2.64841,-14.00123 -4.71977,-22.09765 -1.07944,-4.21929 -1.93125,-7.7028122 -1.89291,-7.7411595 0.0383,-0.038347 1.19261,1.0920805 2.56501,2.5120625 6.33103,6.550486 11.4494,15.268294 14.74185,25.108917 2.59915,7.768415 4.13435,16.827307 4.67928,27.611407 0.4765,9.429756 0.93466,14.768313 1.40782,16.404166 1.87998,6.499602 6.63248,10.223228 14.24148,11.158319 1.93848,0.238224 2.97388,0.233241 4.64351,-0.02235 5.65465,-0.865628 9.57624,-3.444442 11.72423,-7.70979 1.43576,-2.851032 1.74614,-4.476016 2.3727,-12.422011 1.5928,-20.199633 2.47622,-26.149242 5.08756,-34.26354 2.29571,-7.133511 6.66013,-15.782699 10.60316,-21.012836 1.81014,-2.401009 6.16423,-7.4930403 6.29517,-7.3620946 0.0398,0.039819 -0.38426,2.0351546 -0.9424,4.4340816 -0.82629,3.551459 -1.94344,8.721582 -2.54324,11.770016 -0.0573,0.291042 -0.58167,2.897946 -1.16535,5.793121 -0.58367,2.895175 -1.06123,5.462766 -1.06123,5.705759 0,0.242993 0.75094,1.624682 1.66876,3.070421 9.79659,15.431594 16.90925,35.552382 18.69984,52.899446 0.65074,6.304233 0.75079,8.755176 0.66428,16.271876 -0.0996,8.65811 -0.33922,11.67854 -1.47949,18.65312 -5.54001,33.88606 -24.81342,63.81879 -53.15547,82.55353 -17.565,11.61087 -37.03213,18.57856 -57.282286,20.50251 -3.027291,0.28762 -16.212024,0.54876 -18.520833,0.36682 z m 0.396875,-9.36798 c 0,-0.14799 -0.295692,-1.63672 -0.657093,-3.30827 -2.672076,-12.35891 -7.633152,-26.3954 -12.75818,-36.09701 C 55.53044,176.857 50.475891,168.75743 47.398029,164.70312 39.390084,154.15467 27.685561,144.74833 18.051775,141.119 c -1.778936,-0.67018 -2.370766,-0.79217 -1.515314,-0.31235 9.888742,5.54653 23.826244,21.11668 32.707538,36.53893 2.314126,4.01844 6.885189,13.26967 8.696526,17.60062 3.43131,8.20433 5.528559,14.62612 8.458662,25.9005 0.281862,1.08454 0.317488,1.11253 1.538948,1.20908 2.673363,0.21131 4.028531,0.18613 4.028531,-0.0749 z m 26.855207,-1.24457 c 1.309687,-0.23737 2.481717,-0.51704 2.604507,-0.6215 0.20949,-0.1782 -0.57906,-6.03597 -1.16376,-8.64499 -0.25822,-1.15227 -0.23892,-1.21142 0.7437,-2.27902 4.34417,-4.7199 6.53761,-11.55652 6.50603,-20.27834 -0.0231,-6.38665 -0.98849,-10.52954 -3.72754,-15.99686 -1.04122,-2.07834 -4.147113,-7.02189 -4.411653,-7.02189 -0.05309,0 0.308661,1.07664 0.803893,2.39253 1.04914,2.78771 2.52498,8.30305 3.18296,11.89497 0.6704,3.65974 0.62458,10.16156 -0.0951,13.49375 -1.32621,6.14056 -4.014815,10.7889 -8.357858,14.44995 -1.747781,1.47333 -1.651703,0.75716 -0.883348,6.58442 0.211064,1.60073 0.465815,3.76833 0.566113,4.8169 l 0.182361,1.90648 0.834223,-0.13242 c 0.458822,-0.0728 1.905785,-0.32662 3.215472,-0.56398 z M 52.252727,218.2151 c -2.770131,-17.18255 -9.727284,-33.65838 -18.864473,-44.67459 -2.587208,-3.11925 -3.406574,-3.6027 -2.086651,-1.23117 4.156763,7.46852 11.737109,29.67897 14.361047,42.07794 l 0.771726,3.64666 0.926042,0.26898 c 0.792161,0.2301 4.178555,0.93628 4.851901,1.0118 0.121932,0.0137 0.140116,-0.48116 0.04041,-1.09962 z M 69.246517,94.588543 c 0.289035,-4.945761 -1.172651,-8.011121 -6.613568,-13.869581 -2.718536,-2.927159 -3.677385,-4.784574 -3.83525,-7.429376 -0.17125,-2.869029 0.197466,-3.902924 2.193377,-6.15032 2.059871,-2.319414 3.975388,-5.618205 4.37217,-7.529491 0.443917,-2.13834 0.252397,-2.487311 -0.631779,-1.151168 -1.233432,1.863929 -4.925288,5.543221 -7.084708,7.060598 -1.109231,0.779432 -2.138123,1.566705 -2.286429,1.749494 -0.530689,0.654088 -0.918871,3.473851 -0.756454,5.49489 0.375637,4.67422 1.792223,7.416787 6.148158,11.903079 1.766155,1.819011 3.695147,4.001459 4.286647,4.849885 1.380022,1.979451 2.685983,5.120231 2.858294,6.874071 0.07419,0.755105 0.200437,1.670575 0.280554,2.034377 0.136149,0.618236 0.171288,0.592302 0.537747,-0.396875 0.215643,-0.582083 0.454701,-2.129896 0.531241,-3.439583 z M 34.900998,72.694273 c -0.305879,-1.581155 -0.287876,-4.383139 0.03565,-5.548033 1.088169,-3.91812 6.03893,-4.550161 9.583267,-1.22345 l 1.312767,1.232161 -0.169181,-1.058004 c -0.363048,-2.270373 -2.006974,-4.309833 -4.035074,-5.005925 -0.558185,-0.191582 -1.729256,-0.343013 -2.602381,-0.336513 -2.411863,0.01796 -4.205896,1.107656 -5.260717,3.195375 -0.773398,1.530722 -0.441696,5.84075 0.693334,9.008973 0.437667,1.221663 0.699553,1.065016 0.442338,-0.264584 z m 55.105974,-3.107976 c 1.301953,-1.350752 1.55284,-1.954034 0.914498,-2.19899 -0.627236,-0.240692 -5.504229,-0.975774 -7.900481,-1.190795 -2.25778,-0.202595 -2.297401,-0.196241 -1.852083,0.296999 1.642652,1.819425 5.776475,4.405796 7.052129,4.41224 0.281414,0.0014 1.085086,-0.592333 1.785937,-1.319454 z m 7.260179,-7.199968 c 0.927858,-0.452406 1.687014,-0.897991 1.687014,-0.99019 0,-0.0922 -0.565547,-0.318037 -1.256771,-0.501862 -0.691224,-0.183825 -3.071131,-1.215539 -5.288682,-2.292697 -2.217551,-1.077159 -4.650177,-2.142076 -5.405835,-2.366482 -2.532884,-0.752186 -4.828151,-0.493516 -8.686211,0.97891 l -1.719792,0.656358 3.96875,-0.02945 c 4.904082,-0.03639 5.31597,0.09832 10.170893,3.326423 3.971095,2.640438 3.713821,2.592416 6.530634,1.218992 z M 52.879129,53.149118 c 2.62426,-0.569772 4.606919,-1.313832 6.574814,-2.467423 1.339154,-0.78502 4.271935,-3.052866 4.297794,-3.323376 0.02477,-0.259134 -3.310219,-2.368355 -4.881945,-3.087596 -1.073372,-0.491189 -2.165893,-0.760839 -3.373437,-0.832614 -0.982266,-0.05838 -1.785938,-0.155221 -1.785938,-0.215193 0,-0.05997 0.399981,-0.909738 0.888847,-1.888371 0.488866,-0.978633 1.137958,-2.553239 1.442426,-3.499124 0.650969,-2.02235 1.448925,-5.832996 1.260829,-6.021093 -0.07204,-0.07204 -1.115589,0.211438 -2.318995,0.629951 -6.073248,2.112117 -11.145553,7.089948 -13.193696,12.947957 -0.661124,1.890918 -1.308577,5.08071 -1.308577,6.446936 v 0.992618 l 1.918229,0.33545 c 1.055026,0.184497 2.037292,0.375936 2.182813,0.42542 0.835481,0.284103 6.287969,-0.0074 8.296836,-0.443542 z m 22.641162,-6.702953 c 2.880273,-0.551087 5.343497,-1.936545 8.072148,-4.540239 2.237745,-2.135269 2.258986,-2.167627 1.77476,-2.703545 -0.719385,-0.796182 -4.446673,-2.663566 -6.473226,-3.243108 -0.967373,-0.276644 -2.534807,-0.580206 -3.483187,-0.674582 -2.312419,-0.230115 -2.39542,-0.242954 -2.432639,-0.376269 -0.01777,-0.06364 0.457323,-1.127741 1.055755,-2.364668 1.042876,-2.155568 1.762453,-4.753558 1.941995,-7.011458 0.07888,-0.991924 0.04289,-1.052998 -0.573475,-0.973313 -4.251729,0.549674 -9.093458,4.106434 -11.709317,8.601728 -1.131919,1.945177 -3.085408,7.162267 -2.791786,7.455889 0.07346,0.07346 1.055734,-0.292514 2.182839,-0.813269 3.775823,-1.744537 8.251346,-2.187449 12.08133,-1.195607 2.179583,0.564442 4.474095,1.515274 4.474095,1.854039 0,0.121181 -0.539073,0.662059 -1.197939,1.201951 -2.704065,2.215777 -5.798213,3.622424 -8.806707,4.003661 -1.636099,0.207327 -1.516901,0.50033 0.347354,0.853839 1.960762,0.371808 3.297146,0.353698 5.538,-0.07505 z M 132.51737,149.74175 c -1.05555,-1.0266 -1.54682,-2.36999 -1.5436,-4.22092 0.001,-0.65484 -0.13966,-2.87775 -0.31289,-4.93978 -0.40915,-4.87019 -0.14885,-6.26971 1.41508,-7.60838 0.77554,-0.66384 1.57104,-1.0309 2.87874,-1.32833 3.01613,-0.68601 2.90614,-0.76366 2.32215,1.63951 -0.28988,1.19289 -0.51972,3.18537 -0.54952,4.76382 l -0.0512,2.71329 -1.02976,0.82754 c -1.5055,1.20986 -1.85721,2.23907 -2.02188,5.91671 l -0.14217,3.175 z"
       id="path1" /></g></svg>
