<?xml version="1.0" encoding="UTF-8" standalone="no"?>
<!-- Created with Inkscape (http://www.inkscape.org/) -->

<svg
   width="245.94762mm"
   height="245.00105mm"
   viewBox="0 0 245.94761 245.00105"
   version="1.1"
   id="svg1"
   xml:space="preserve"
   inkscape:version="1.4 (86a8ad7, 2024-10-11)"
   sodipodi:docname="Hades.svg"
   xmlns:inkscape="http://www.inkscape.org/namespaces/inkscape"
   xmlns:sodipodi="http://sodipodi.sourceforge.net/DTD/sodipodi-0.dtd"
   xmlns="http://www.w3.org/2000/svg"
   xmlns:svg="http://www.w3.org/2000/svg"><sodipodi:namedview
     id="namedview1"
     pagecolor="#ffffff"
     bordercolor="#000000"
     borderopacity="0.25"
     inkscape:showpageshadow="2"
     inkscape:pageopacity="0.0"
     inkscape:pagecheckerboard="0"
     inkscape:deskcolor="#d1d1d1"
     inkscape:document-units="mm"
     inkscape:zoom="0.2692943"
     inkscape:cx="-38.9908"
     inkscape:cy="-16.710343"
     inkscape:window-width="1828"
     inkscape:window-height="1057"
     inkscape:window-x="3924"
     inkscape:window-y="-8"
     inkscape:window-maximized="1"
     inkscape:current-layer="layer1" /><defs
     id="defs1" /><g
     inkscape:label="Warstwa 1"
     inkscape:groupmode="layer"
     id="layer1"
     transform="translate(-94.231103,-256.58339)"><path
       style="fill:#000000"
       d="m 209.36348,501.44605 c -0.43656,-0.0496 -2.28203,-0.22066 -4.10104,-0.38018 -9.53757,-0.8364 -21.19745,-3.56422 -31.08854,-7.27312 -4.96331,-1.86111 -7.15784,-2.82309 -12.17084,-5.33513 -8.85259,-4.43607 -15.68986,-8.8762 -23.6802,-15.37795 -3.28724,-2.67482 -12.03642,-11.34458 -14.85846,-14.72358 -15.99547,-19.15233 -25.539251,-41.1679 -28.387561,-65.48437 -1.775007,-15.1535 -0.754276,-30.31593 3.045796,-45.24375 5.272995,-20.7139 15.373485,-38.64178 30.540245,-54.20747 13.84079,-14.20482 29.79073,-24.16379 48.76635,-30.44917 31.30157,-10.36815 65.43253,-8.05025 95.43424,6.48112 16.53072,8.00667 31.87782,20.69513 43.03224,35.57761 11.77736,15.71361 19.55786,34.03105 22.70523,53.45436 1.84638,11.39456 2.08099,23.9926 0.65765,35.31334 -2.70425,21.50856 -10.89571,41.74885 -23.82403,58.86684 -20.95563,27.7467 -53.01702,45.5039 -87.68254,48.56297 -3.8627,0.34086 -16.03699,0.48551 -18.38854,0.21848 z m 2.3929,-9.15715 c -6.17642,-28.12845 -19.72738,-52.26825 -37.3179,-66.47846 -3.2464,-2.62255 -11.01721,-7.32533 -11.42706,-6.91548 -0.053,0.053 0.59142,0.6129 1.43203,1.24426 1.97989,1.48704 7.87929,7.38854 10.43191,10.43562 9.72045,11.60338 18.1598,26.12455 23.78425,40.92436 1.84521,4.85538 4.27799,12.45895 5.41571,16.92662 l 0.98705,3.87599 2.9443,0.25143 c 1.61937,0.13829 3.15494,0.26933 3.41237,0.29121 0.35449,0.0301 0.43634,-0.10468 0.33734,-0.55555 z m 24.75096,-0.75515 c 1.22369,-0.16067 2.31471,-0.37551 2.42449,-0.47741 0.10978,-0.1019 -0.16416,-1.98769 -0.60876,-4.19063 l -0.80835,-4.00535 1.45783,-2.41821 c 5.24845,-8.70601 6.03676,-19.38003 2.26618,-30.68501 -0.96127,-2.88207 -2.34312,-6.21672 -2.50137,-6.03622 -0.0401,0.0457 0.0802,0.97606 0.26732,2.06747 0.88146,5.14218 1.1914,14.04016 0.64537,18.52777 -0.73587,6.04787 -3.16704,11.87302 -6.78891,16.2664 l -1.37316,1.66567 1.04244,4.72162 c 0.57334,2.59688 1.04243,4.75186 1.04243,4.78882 0,0.12278 0.68803,0.07 2.93449,-0.22492 z m -43.77731,-2.02297 c -0.0729,-0.25466 -0.5633,-2.1299 -1.08966,-4.16719 -2.83479,-10.97213 -7.4814,-21.61142 -13.23096,-30.29479 -1.20443,-1.81901 -2.9146,-4.0812 -3.80037,-5.02708 l -1.61048,-1.71979 1.07689,2.51354 c 5.28587,12.33755 9.80821,25.73005 12.03721,35.64714 l 0.48493,2.15752 2.5194,0.65145 c 3.16376,0.81806 3.79077,0.85957 3.61304,0.2392 z m 79.48491,-10.70156 1.57458,-1.11042 v -1.55458 c 0,-2.30806 -0.73659,-10.4713 -1.47086,-16.30081 -0.35519,-2.82 -0.64581,-5.27333 -0.64581,-5.45184 0,-0.20692 0.62897,-0.38332 1.735,-0.4866 1.89847,-0.17728 4.7933,-0.84388 6.05893,-1.3952 l 0.80503,-0.35067 -1.05834,-0.0145 c -1.78593,-0.0245 -8.24693,-1.02091 -9.19904,-1.41873 -1.19585,-0.49966 -1.94732,-1.50799 -2.28004,-3.0594 -0.3006,-1.40165 -0.11992,-3.18834 0.33879,-3.35024 0.16081,-0.0568 2.19738,-0.28201 4.52571,-0.50057 4.32039,-0.40555 7.39967,-0.90226 7.14879,-1.15314 -0.0769,-0.0769 -2.80501,-0.27571 -6.06242,-0.44174 -6.45337,-0.32894 -6.90262,-0.44484 -7.69988,-1.98658 -1.03856,-2.00834 -0.62516,-4.75467 0.79711,-5.29541 0.38031,-0.1446 1.31333,-0.2629 2.07337,-0.2629 3.40712,0 12.40254,-1.48523 11.39287,-1.88107 -0.27835,-0.10912 -3.56953,-0.20678 -7.31373,-0.217 l -6.80765,-0.0186 -0.53454,-1.04779 c -1.10184,-2.15979 -0.40658,-4.96188 1.55997,-6.28714 1.11384,-0.75061 2.03613,-0.99817 5.71069,-1.53282 4.27456,-0.62196 8.59896,-1.76562 8.59896,-2.27415 0,-0.15293 -2.66935,-0.24294 -6.81302,-0.22974 l -6.81302,0.0217 0.0815,-2.32868 c 0.16142,-4.6132 1.44986,-6.95889 3.82239,-6.95889 2.01747,0 7.88511,0.52657 10.4954,0.94187 2.88894,0.45964 4.2742,1.0088 5.69789,2.25882 1.52542,1.33933 1.98252,2.57831 1.99159,5.39827 l 0.008,2.38125 1.30983,1.92225 c 1.66722,2.44674 1.83649,3.30361 1.06863,5.40953 -0.68878,1.88905 -0.72022,2.97054 -0.15031,5.1699 0.58096,2.242 0.51172,3.67015 -0.25333,5.2254 -0.5521,1.12235 -0.65113,1.70426 -0.65319,3.83821 -0.001,1.3834 -0.14142,2.93122 -0.31132,3.43958 -0.31779,0.95087 -0.75988,18.25541 -0.46637,18.25481 0.35552,-7.3e-4 5.69654,-4.97939 9.10971,-8.49166 15.53352,-15.98452 26.10966,-36.49677 30.13598,-58.44823 1.34114,-7.31189 1.59878,-10.585 1.60366,-20.37291 0.005,-9.72282 -0.1824,-12.11296 -1.59599,-20.37292 -5.81982,-34.00684 -27.93026,-63.88911 -59.24586,-80.07082 -25.1047,-12.97236 -53.80706,-16.31506 -81.50707,-9.49239 -20.20458,4.9765 -38.21083,15.06031 -52.91819,29.63509 -14.53664,14.4056 -24.73749,32.21238 -29.61662,51.69933 -4.40463,17.59179 -4.58728,36.95991 -0.51158,54.24797 0.54895,2.32847 2.16873,8.16153 2.6422,9.51491 0.0778,0.22234 0.51996,-0.27508 1.11491,-1.25418 1.87387,-3.08379 3.36921,-4.94691 6.40505,-7.98036 10.10642,-10.09848 23.79518,-13.82874 36.29806,-9.8914 7.37164,2.32144 13.63956,7.05678 28.0006,21.15416 4.52489,4.4418 7.2262,6.85398 9.92188,8.85988 2.03729,1.51598 4.95432,3.81912 6.48229,5.11808 3.7104,3.15429 10.95629,10.45897 13.89693,14.00967 1.99051,2.40346 5.99945,7.74915 7.19702,9.5968 0.2848,0.4394 0.29592,0.41981 0.0916,-0.16133 -0.64255,-1.82738 -1.54443,-3.50167 -4.63195,-8.59896 -7.12863,-11.76888 -12.72985,-18.35765 -20.79267,-24.45861 -4.96451,-3.75653 -5.82224,-4.54235 -9.22766,-8.45395 -10.77728,-12.37925 -22.29988,-20.84154 -30.44492,-22.359 l -1.71064,-0.3187 3.43043,-1.40791 c 4.71723,-1.93603 6.63857,-2.93775 8.42349,-4.39174 3.18574,-2.59509 5.95835,-6.86209 6.92298,-10.65435 0.57251,-2.25074 0.37906,-2.55676 -0.5229,-0.82716 -3.42495,6.5677 -8.98579,10.54385 -17.55726,12.55393 -4.16733,0.97727 -7.03042,1.84325 -12.41523,3.75516 l -4.821,1.71172 -0.71107,-0.55933 c -0.94257,-0.74142 -2.06368,-2.31885 -2.44004,-3.43318 -0.16706,-0.49466 -0.30375,-1.57478 -0.30375,-2.40026 0,-4.35377 2.74797,-7.14248 9.3927,-9.53198 4.16065,-1.49621 6.26762,-3.02236 7.17685,-5.19845 0.75675,-1.81116 0.13106,-3.18378 -1.86438,-4.09007 -3.06969,-1.39418 -5.94169,0.33637 -6.18702,3.72804 -0.12124,1.67609 -0.42937,1.96912 -1.22938,1.16911 -1.04696,-1.04695 -1.33572,-2.04565 -1.33154,-4.60514 0.003,-2.1304 0.10334,-2.71519 0.65514,-3.83645 0.87155,-1.77098 2.61071,-3.45967 4.44814,-4.31903 1.64118,-0.76758 2.66046,-0.83546 7.06344,-0.47037 2.14876,0.17818 2.46545,0.14416 3.24357,-0.34843 1.16501,-0.7375 1.91362,-2.04177 1.91482,-3.33612 0.001,-1.19058 -0.21489,-1.56294 -1.95144,-3.36409 -2.00475,-2.07933 -2.4118,-3.09574 -2.41136,-6.02134 3.4e-4,-2.22441 0.0868,-2.68988 0.75158,-4.04649 1.10282,-2.25051 3.30465,-4.45963 6.63562,-6.65758 4.53819,-2.99453 4.2212,-2.36203 4.42492,-8.82941 0.1786,-5.66998 0.46171,-7.43562 1.83561,-11.44818 2.91093,-8.5015 10.02739,-16.3662 18.4261,-20.36346 6.24787,-2.97359 14.93048,-4.74823 23.21531,-4.74498 7.59133,0.003 12.95197,1.30905 18.0334,4.39369 l 1.95375,1.18601 2.31302,-0.92236 c 2.50183,-0.99766 6.8653,-2.17919 7.11728,-1.92721 0.0855,0.0855 -0.10952,1.22802 -0.43343,2.53889 -0.98382,3.98161 -2.7221,7.03314 -4.78342,8.39726 l -1.07812,0.71346 1.56333,0.56607 c 1.74334,0.63125 3.5796,1.69719 6.14508,3.56719 0.94589,0.68946 2.58833,1.70485 3.64986,2.25641 2.198,1.14206 3.66116,2.64001 4.90919,5.0259 0.76058,1.45404 0.83053,1.79882 0.83203,4.10104 0.002,2.41597 -0.0421,2.6046 -1.12533,4.85923 l -1.12696,2.34569 -0.92714,-1.85324 c -0.50993,-1.01929 -1.10405,-2.00007 -1.32027,-2.17952 -0.33837,-0.28081 -0.37185,-0.20198 -0.24033,0.56589 0.46044,2.68828 0.78726,4.20312 1.75034,8.11298 1.28817,5.22965 1.25186,5.68198 -0.59858,7.45616 -0.71769,0.68812 -1.30489,1.49059 -1.30489,1.78328 0,0.2927 0.37289,1.35231 0.82864,2.35471 1.74381,3.83542 4.44938,12.87913 4.66442,15.59143 0.20777,2.62069 -1.10471,3.13525 -6.09345,2.38898 -2.36854,-0.35432 -3.24941,-0.37493 -5.22018,-0.12219 -2.07898,0.26662 -2.45156,0.25114 -3.02669,-0.12569 -0.82721,-0.54201 -1.29152,-2.06171 -1.1693,-3.82709 0.0521,-0.75219 0.0195,-1.36754 -0.0724,-1.36745 -0.45898,4.5e-4 -1.86065,1.8243 -2.10802,2.74295 -0.27006,1.00295 -0.22266,1.38877 0.43507,3.54107 0.14657,0.47962 0.079,0.59531 -0.34747,0.59531 -0.88577,0 -4.60863,2.02072 -6.03304,3.27465 -3.68627,3.2451 -6.95052,10.24012 -7.41822,15.89663 l -0.15405,1.86309 2.29892,-4.23333 c 4.51046,-8.30578 6.90702,-11.21416 10.75773,-13.05519 4.32696,-2.06873 10.41975,-2.94507 12.04407,-1.73233 1.14139,0.85217 1.72075,1.80866 1.86369,3.07689 0.21858,1.93924 -0.15152,2.31792 -2.26545,2.31792 -2.12053,0 -3.90096,0.75908 -5.34443,2.27857 l -0.91592,0.96416 0.79375,-0.17448 c 3.80645,-0.83674 5.80881,-0.0537 5.80881,2.27163 0,0.85644 -0.16037,1.20756 -0.82118,1.798 -0.45165,0.40355 -0.98473,0.78886 -1.18461,0.85626 -0.57154,0.1927 0.2816,1.61076 2.40569,3.99867 1.01318,1.13902 2.17382,2.74636 2.57921,3.57188 0.65718,1.33824 0.73708,1.78774 0.73708,4.14677 0,2.26198 -0.12973,3.0632 -0.89419,5.52265 -0.75891,2.44162 -0.86921,3.11578 -0.72908,4.45641 0.29655,2.83726 1.77797,5.34304 3.71242,6.2795 1.30714,0.63277 2.89919,0.69745 3.93012,0.15967 0.67613,-0.35271 0.7276,-0.34263 0.7276,0.14242 0,0.28708 -0.1841,0.96463 -0.40911,1.50566 -1.59234,3.82865 -5.4699,6.14306 -10.29206,6.14306 -3.63977,0 -7.4562,-1.29762 -12.80126,-4.35257 -1.94929,-1.11411 -1.94137,-1.17953 -0.29161,2.40833 0.55861,1.21486 0.94508,2.20883 0.85884,2.20883 -0.0862,0 -1.42025,-0.36384 -2.96445,-0.80854 -7.86445,-2.26478 -13.25408,-6.02235 -15.8652,-11.06099 -1.84886,-3.56773 -2.81947,-7.52859 -3.16016,-12.89599 l -0.18644,-2.93739 -2.64583,4.31581 c -2.50484,4.08581 -3.04271,4.79208 -3.04271,3.99531 0,-0.18799 -0.61717,-1.34885 -1.3715,-2.57969 -0.97984,-1.59884 -2.51527,-3.40899 -5.37687,-6.33894 -5.07731,-5.19856 -6.38641,-7.1202 -7.45113,-10.93752 -0.53496,-1.918 -0.71897,-7.33432 -0.39217,-11.54377 0.15216,-1.95997 0.24254,-3.5977 0.20084,-3.63939 -0.18702,-0.18703 -2.87349,7.04973 -3.34111,9.00025 -1.03657,4.32361 -0.54782,8.77717 1.38455,12.61613 0.95865,1.90451 1.69233,2.82736 4.86691,6.12179 2.05595,2.13357 4.35341,4.81535 5.10546,5.95951 1.72601,2.62592 4.12086,7.28895 5.04426,9.82172 l 0.70943,1.9459 1.94478,-2.94126 1.94477,-2.94126 0.58075,1.54483 c 3.35646,8.92841 9.32265,13.40085 22.53168,16.89045 6.215,1.64189 9.33293,3.28938 12.74267,6.73311 1.96747,1.98707 4.53951,5.59312 5.87178,8.23234 1.82228,3.6099 4.07097,10.0581 4.87922,13.99134 0.84089,4.09198 0.89496,4.18066 5.38699,8.83391 2.36938,2.45442 4.84208,5.31474 5.786,6.69301 1.67597,2.44718 3.81624,6.55067 4.3556,8.35092 0.16363,0.54614 0.37583,0.99299 0.47155,0.99299 0.2255,0 2.54786,-6.4486 2.79306,-7.75559 0.10321,-0.55018 0.23012,-0.95788 0.28202,-0.90598 0.28524,0.28524 1.6942,15.94599 1.6942,18.83123 0,0.37304 0.0654,0.67825 0.14522,0.67825 0.0799,0 0.85378,-0.49968 1.71979,-1.11041 z m -13.1098,-51.12141 c -0.43656,-0.19404 -1.06635,-0.64855 -1.39954,-1.01004 -0.97025,-1.05268 -0.99008,-2.1513 -0.0897,-4.96647 0.44217,-1.38244 1.10409,-3.70169 1.47093,-5.15388 0.7717,-3.05491 1.19773,-3.74857 2.81189,-4.5783 1.38493,-0.71191 3.62962,-0.74917 3.45782,-0.0574 -0.0542,0.21828 -0.25786,0.99219 -0.45254,1.71979 -0.19469,0.72761 -0.51677,3.30789 -0.71573,5.73396 -0.35382,4.31434 -0.37944,4.4312 -1.1686,5.33 -0.44377,0.50542 -1.01624,1.46725 -1.27217,2.13739 -0.39141,1.02487 -0.57521,1.2168 -1.15699,1.20809 -0.38041,-0.006 -1.04885,-0.16911 -1.48541,-0.36314 z m 13.36146,-19.74983 c -3.27833,-0.19437 -5.80827,-0.68168 -5.96627,-1.1492 -0.0541,-0.16006 -0.4074,-3.08899 -0.78513,-6.50873 -0.7597,-6.87785 -1.86608,-15.32026 -2.0291,-15.48327 -0.0577,-0.0577 -1.16607,0.0669 -2.46308,0.27686 -3.13388,0.50731 -8.77287,0.7747 -11.3146,0.53652 -2.04638,-0.19176 -2.04807,-0.19256 -2.04807,-0.96971 0,-1.18778 -0.84884,-3.33144 -2.18247,-5.51162 l -1.20441,-1.96892 0.7674,-1.35976 c 0.42207,-0.74787 0.7674,-1.61099 0.7674,-1.91806 0,-0.30707 0.10239,-0.62159 0.22755,-0.69894 0.12515,-0.0773 1.4646,0.10991 2.97656,0.41612 3.91738,0.79337 9.71603,0.83999 11.21568,0.0902 1.64839,-0.8242 1.98347,-1.76973 1.98396,-5.59835 2.3e-4,-1.7694 -0.17778,-6.17471 -0.39558,-9.78958 -0.2178,-3.61487 -0.75117,-12.94233 -1.18527,-20.72769 -0.4341,-7.78537 -0.93434,-16.57984 -1.11165,-19.54329 l -0.32239,-5.38807 -1.33662,0.16214 c -0.73514,0.0892 -1.98034,0.24065 -2.7671,0.33661 -0.96332,0.11749 -1.37497,0.0846 -1.2605,-0.10059 0.30732,-0.49725 3.29976,-15.95152 4.3063,-22.2396 l 0.98592,-6.15926 1.43194,3.51343 c 0.78757,1.93238 3.27951,7.95698 5.53765,13.388 2.25814,5.43102 4.04577,9.93452 3.97251,10.00778 -0.0732,0.0733 -1.27315,0.2012 -2.66643,0.28432 -2.40452,0.14346 -2.52675,0.17943 -2.40557,0.70785 0.0702,0.3062 0.7867,5.43828 1.59219,11.40464 2.04061,15.11514 3.08498,22.18519 4.76523,32.25916 2.07775,12.45719 2.52855,14.23488 3.90307,15.39145 0.80449,0.67695 0.91777,0.69646 3.09018,0.53227 3.08512,-0.23316 7.59524,-1.29063 9.61423,-2.2542 2.29552,-1.09556 3.9709,-2.63969 4.84428,-4.4648 0.62717,-1.31059 0.73792,-1.91677 0.83209,-4.55451 0.13788,-3.86227 -0.26397,-5.74833 -3.08924,-14.49911 -3.58486,-11.10345 -4.75435,-15.94391 -5.59236,-23.14655 l -0.33193,-2.85296 -2.60631,-1.33877 c -1.43347,-0.73632 -2.60631,-1.42513 -2.60631,-1.53068 0,-0.10555 1.16973,-2.74365 2.5994,-5.86244 1.42967,-3.11879 3.17641,-7.03975 3.88164,-8.71324 0.70524,-1.67349 1.37143,-3.14628 1.48045,-3.27286 0.10901,-0.12659 0.32834,0.2306 0.4874,0.79375 2.36042,8.35692 6.38966,23.4475 6.28778,23.54938 -0.0735,0.0735 -0.89856,-0.17242 -1.8335,-0.54645 -0.93495,-0.37404 -1.77237,-0.68007 -1.86094,-0.68007 -0.40311,0 0.894,5.60302 2.14382,9.26042 0.42268,1.23693 2.25772,5.93989 4.07786,10.45104 5.32108,13.18807 6.42006,17.07208 6.40089,22.62187 -0.01,2.90954 -0.0994,3.56064 -0.74256,5.41387 -2.88873,8.3231 -11.68829,13.09237 -24.17901,13.10479 -1.20055,10e-4 -2.18241,0.0915 -2.18191,0.20061 5e-4,0.10914 0.11692,1.50813 0.25871,3.10886 0.1418,1.60073 0.55809,6.66088 0.92509,11.24479 0.36701,4.5839 0.73223,8.72133 0.81161,9.19427 l 0.14433,0.85989 -1.40105,-0.0496 c -0.77058,-0.0273 -2.77027,-0.13077 -4.44376,-0.22999 z M 235.75449,302.52973 c -1.05425,-0.7931 -2.1131,-1.55184 -2.35299,-1.68609 -0.39013,-0.21833 -0.36402,-0.33867 0.24742,-1.1403 0.37597,-0.49292 1.11154,-1.76217 1.6346,-2.82055 1.13058,-2.28763 1.84065,-2.80216 4.48336,-3.24868 2.92415,-0.49408 9.41639,0.0333 9.41639,0.76494 0,0.10562 -0.42567,0.84416 -0.94593,1.64121 -1.12332,1.72095 -3.2633,3.97944 -4.75851,5.02203 -1.13214,0.78943 -5.20037,2.90944 -5.58311,2.90944 -0.12343,0 -1.08698,-0.6489 -2.14123,-1.442 z m -26.61632,68.05085 c 0.28845,-0.83705 0.47681,-2.13124 0.47397,-3.25664 -0.007,-2.73337 -0.86556,-4.33653 -3.64111,-6.79801 -1.18935,-1.05476 -3.1856,-2.92978 -4.43612,-4.16671 -1.99145,-1.9698 -2.34451,-2.46243 -2.84429,-3.96875 -1.08759,-3.27796 -1.35162,-8.06813 -0.5294,-9.60447 0.16277,-0.30415 1.0483,-1.30534 1.96783,-2.22487 1.93408,-1.93408 3.6496,-5.10748 4.09623,-7.57728 0.15389,-0.85099 0.23527,-1.59179 0.18085,-1.64621 -0.0544,-0.0544 -0.73408,0.78911 -1.51034,1.87453 -0.77626,1.08541 -2.0348,2.56309 -2.79676,3.28372 -1.2563,1.18815 -4.93709,3.78323 -5.75101,4.05464 -0.24984,0.0833 -0.32208,1.29799 -0.29636,4.98287 0.0604,8.65069 1.19972,11.03702 8.0413,16.8423 1.53101,1.29911 3.12698,2.7688 3.54661,3.266 1.01006,1.19678 2.20874,3.76307 2.42203,5.18541 0.0942,0.62839 0.26731,1.14253 0.38461,1.14253 0.11731,0 0.42869,-0.62508 0.69196,-1.38906 z M 178.10988,352.7212 c -1.93219,-2.82642 -3.22899,-6.5807 -3.45418,-9.99999 -0.20038,-3.04247 0.33443,-4.51931 1.90679,-5.26545 2.23387,-1.06004 5.32741,-0.0639 7.54359,2.42897 l 1.12097,1.26095 -0.14264,-1.64222 c -0.31963,-3.67995 -2.58723,-5.63087 -6.54489,-5.63087 -3.01803,0 -4.7654,1.0497 -5.82766,3.50085 -2.06532,4.76576 0.38295,12.82131 4.73566,15.58172 0.65758,0.41703 1.22823,0.75823 1.26812,0.75823 0.0399,0 -0.23271,-0.44648 -0.60576,-0.99219 z m 50.84363,-10.73971 c 0.79182,-0.79183 1.42139,-2.13758 1.13429,-2.42467 -0.62231,-0.62232 -10.27328,-1.27135 -10.27328,-0.69088 0,0.50799 2.26869,2.24097 4.05341,3.09628 2.55511,1.2245 3.87534,1.2295 5.08558,0.0193 z m 6.64459,-6.91859 c 0.73015,-0.21683 1.52467,-0.61205 1.7656,-0.87827 0.41639,-0.46011 0.36296,-0.51452 -1.08109,-1.10076 -0.83552,-0.33919 -2.65023,-1.23493 -4.03267,-1.99053 -4.81943,-2.63413 -7.99041,-3.53627 -10.65419,-3.0311 -1.6282,0.30879 -4.24391,1.46231 -4.86027,2.14338 -0.45359,0.50121 -0.40921,0.50669 2.69799,0.33286 4.68165,-0.26191 5.78825,0.0813 11.46963,3.55732 2.43076,1.4872 2.73359,1.54958 4.695,0.9671 z m -43.43254,-9.5147 c 3.19777,-0.94749 7.5422,-3.34093 10.55637,-5.81573 l 0.76679,-0.62957 -2.48658,-1.20668 c -3.30144,-1.60211 -5.3661,-2.111 -7.95636,-1.96105 l -2.04343,0.11829 0.4776,-0.68305 c 0.81728,-1.16887 1.80054,-3.99228 2.52872,-7.26123 0.38454,-1.72623 0.6527,-3.18505 0.59591,-3.24183 -0.0568,-0.0568 -0.77805,0.12893 -1.60283,0.41269 -5.99356,2.06209 -10.67269,6.8532 -12.73104,13.03571 -0.74599,2.24066 -1.68247,7.22414 -1.40894,7.49767 0.39461,0.39461 3.23213,0.61003 6.95379,0.52791 3.36223,-0.0742 4.33267,-0.19539 6.35,-0.79313 z m 25.36048,-7.29601 c 2.16755,-0.66949 5.26203,-2.71615 7.02768,-4.64805 0.74042,-0.81014 1.34622,-1.58129 1.34622,-1.71367 0,-0.39694 -2.38763,-2.0456 -4.36964,-3.01724 -2.42967,-1.19109 -4.75425,-1.71778 -7.60276,-1.72259 -1.27331,-0.002 -2.3151,-0.0512 -2.3151,-0.10905 0,-0.0578 0.35852,-0.82775 0.79672,-1.71094 0.66128,-1.33283 1.3582,-3.77304 2.26858,-7.94324 0.12748,-0.58399 0.076,-0.61883 -0.68914,-0.46581 -4.21219,0.84244 -9.22081,4.54042 -11.62049,8.57967 -1.26756,2.13363 -2.65297,5.83628 -2.65838,7.10484 l -0.004,0.82918 1.99183,-1.00065 c 2.99276,-1.50347 5.78066,-2.1801 9.56065,-2.3204 1.85434,-0.0688 3.9847,0.0122 5.02708,0.19119 1.92434,0.33045 5.38085,1.75992 5.38085,2.2253 0,0.45127 -2.96454,3.2016 -4.28521,3.97557 -0.67399,0.39498 -2.43893,0.99039 -3.95595,1.33455 -2.08865,0.47384 -2.55057,0.6507 -1.9453,0.74482 1.99895,0.31085 4.3861,0.17918 6.0459,-0.33348 z"
       id="path1" /></g></svg>
