<?xml version="1.0" encoding="UTF-8" standalone="no"?>
<!-- Created with Inkscape (http://www.inkscape.org/) -->

<svg
   width="255.70551mm"
   height="254.20047mm"
   viewBox="0 0 255.7055 254.20047"
   version="1.1"
   id="svg1"
   xml:space="preserve"
   inkscape:version="1.4 (86a8ad7, 2024-10-11)"
   sodipodi:docname="Zeus.svg"
   xmlns:inkscape="http://www.inkscape.org/namespaces/inkscape"
   xmlns:sodipodi="http://sodipodi.sourceforge.net/DTD/sodipodi-0.dtd"
   xmlns="http://www.w3.org/2000/svg"
   xmlns:svg="http://www.w3.org/2000/svg"><sodipodi:namedview
     id="namedview1"
     pagecolor="#ffffff"
     bordercolor="#000000"
     borderopacity="0.25"
     inkscape:showpageshadow="2"
     inkscape:pageopacity="0.0"
     inkscape:pagecheckerboard="0"
     inkscape:deskcolor="#d1d1d1"
     inkscape:document-units="mm"
     inkscape:zoom="0.53858859"
     inkscape:cx="54.77279"
     inkscape:cy="242.29997"
     inkscape:window-width="1828"
     inkscape:window-height="1057"
     inkscape:window-x="3924"
     inkscape:window-y="-8"
     inkscape:window-maximized="1"
     inkscape:current-layer="layer1" /><defs
     id="defs1" /><g
     inkscape:label="Warstwa 1"
     inkscape:groupmode="layer"
     id="layer1"
     transform="translate(-136.21956,-174.07088)"><path
       style="fill:#000000"
       d="m 257.2992,428.11071 c -6.34146,-0.29673 -16.28078,-1.73756 -22.48958,-3.26016 -30.35724,-7.44457 -55.75806,-24.17575 -74.09614,-48.80611 -13.12597,-17.62985 -21.06396,-37.90621 -23.9817,-61.25755 -0.68565,-5.48745 -0.68226,-22.66557 0.006,-28.4427 3.35719,-28.19521 14.57817,-52.30543 33.8535,-72.74013 20.77224,-22.02163 48.79253,-35.75022 79.43226,-38.91797 5.79864,-0.59951 17.4782,-0.80925 22.91293,-0.41147 27.43587,2.00806 52.84304,12.16527 73.84006,29.51957 4.0333,3.33357 12.6749,11.82902 15.60983,15.34583 16.09656,19.28787 25.69498,41.58374 28.64678,66.54271 1.57163,13.28893 1.05579,27.31341 -1.46463,39.81979 -6.7192,33.34083 -26.31779,62.29829 -55.20629,81.5688 -23.11354,15.41824 -48.58351,22.37197 -77.06264,21.03939 z m 51.59375,-17.0629 c 3.29839,-1.31559 10.1075,-4.73066 14.10521,-7.07439 l 2.86042,-1.67697 4.30546,-5.32405 c 6.99996,-8.65602 13.54198,-17.30509 14.22778,-18.81025 0.22568,-0.49531 0.1849,-1.49929 -0.17229,-4.24181 -0.25737,-1.97611 -0.54963,-3.55821 -0.64945,-3.51579 -0.0998,0.0424 -1.95828,1.98213 -4.12988,4.31047 -6.20385,6.65159 -9.80071,10.2891 -13.04261,13.19003 -1.65031,1.47673 -3.11729,2.72748 -3.25995,2.77943 -0.98588,0.35904 7.17496,-12.66112 14.10937,-22.51069 l 1.62483,-2.30789 -1.88193,-1.98119 c -1.03507,-1.08965 -2.2002,-2.46211 -2.58919,-3.04992 -0.38899,-0.5878 -0.78073,-1.06421 -0.87053,-1.05869 -0.0898,0.006 -0.6007,0.6306 -1.13533,1.38906 -1.82592,2.5904 -7.44821,8.89958 -17.35243,19.47242 -3.07268,3.2801 -4.78808,5.3073 -4.71354,5.57027 0.0645,0.22738 0.19633,1.66357 0.29304,3.19154 0.40107,6.33691 -1.23708,14.72099 -4.12278,21.10052 -0.41141,0.90951 -0.66618,1.65417 -0.56617,1.65481 0.10002,6.5e-4 1.432,-0.49747 2.95997,-1.10691 z m -27.32291,-0.58278 c 5.83691,-4.29689 9.51476,-11.03475 10.81051,-19.80496 0.3395,-2.29785 0.40304,-3.95003 0.27744,-7.2138 -0.25051,-6.50995 -0.25937,-6.51628 -2.00742,-1.43449 -0.82202,2.3897 -1.97766,5.36647 -2.56808,6.61505 -1.21624,2.57201 -3.46982,6.19493 -4.39289,7.0621 l -0.61777,0.58037 -2.50142,-0.66832 c -10.74973,-2.87207 -26.57252,-12.26723 -40.99599,-24.34235 -4.62406,-3.8712 -9.89837,-8.7177 -18.39084,-16.89914 -14.77467,-14.23356 -18.45011,-17.4839 -24.4866,-21.65448 -5.10347,-3.52596 -11.47453,-6.32178 -16.7884,-7.36727 -2.83095,-0.55698 -9.35264,-0.48486 -11.57552,0.12801 -0.98226,0.27082 -1.78593,0.58411 -1.78593,0.6962 0,0.11208 0.54097,0.34001 1.20216,0.5065 3.76574,0.94822 11.94864,4.90913 17.09437,8.27447 9.17691,6.00176 16.10972,12.3224 34.04725,31.04085 12.66937,13.22092 19.03241,19.60984 23.21838,23.31279 10.28473,9.09796 20.11653,15.4296 30.80033,19.83527 2.56361,1.05716 6.30286,2.39313 6.91621,2.47105 0.0931,0.0118 0.87802,-0.5002 1.74421,-1.13785 z m -52.35554,-9.88699 c -3.81282,-3.96151 -10.36813,-12.46418 -17.6958,-22.95261 -6.55514,-9.38268 -10.70039,-14.72415 -16.01572,-20.6375 -3.4905,-3.88319 -4.9829,-5.33198 -7.87353,-7.64344 -8.18235,-6.54293 -17.22265,-11.22262 -25.05107,-12.96764 l -1.7198,-0.38336 0.76714,0.57535 c 0.42192,0.31644 2.26739,1.69559 4.10104,3.06479 11.73802,8.76483 22.32673,19.03863 35.88898,34.82164 10.24501,11.9226 16.22411,18.05104 22.47826,23.03972 2.55426,2.03742 5.72513,4.29191 6.07547,4.31966 0.14005,0.0111 -0.28968,-0.54539 -0.95497,-1.23661 z m 46.00157,-32.25832 0.14042,-4.54322 -1.025,-0.69257 c -9.76118,-6.59539 -14.31047,-10.13894 -19.03551,-14.82725 -6.03006,-5.98317 -9.25926,-10.62632 -14.19689,-20.41315 -1.78572,-3.53946 -3.32537,-6.43689 -3.42145,-6.43872 -0.32787,-0.006 -0.56159,4.62037 -0.4022,7.96199 0.15977,3.34957 0.77099,8.21952 1.27004,10.1192 0.14722,0.56039 0.22687,1.05969 0.177,1.10956 -0.13273,0.13273 -5.42949,-4.54288 -9.36504,-8.2668 -3.92011,-3.70932 -7.07,-6.29161 -10.43221,-8.55235 -3.11927,-2.09739 -8.31772,-5.04519 -10.25235,-5.81362 l -1.55089,-0.61601 1.04011,-0.93968 c 1.83896,-1.66139 3.91719,-5.12979 5.36302,-8.95044 1.12834,-2.98167 2.23497,-7.94072 2.23005,-9.99334 l -0.004,-1.85872 -0.55769,0.92604 c -4.78987,7.9536 -9.53302,12.45158 -17.15042,16.26394 -2.8848,1.44379 -7.57528,3.25536 -9.99808,3.8615 -0.76398,0.19114 -1.38906,0.42064 -1.38906,0.51001 0,0.0894 1.16086,0.44119 2.57969,0.78184 7.46867,1.79315 14.47606,4.93892 22.29114,10.00695 3.54383,2.29816 7.19781,5.18493 14.77594,11.67351 11.58258,9.9173 18.11153,15.16949 24.93468,20.0586 6.99205,5.01013 15.15424,10.19651 20.87896,13.26681 l 2.51354,1.34806 0.22312,-0.71946 c 0.12272,-0.39571 0.28631,-2.76391 0.36354,-5.26268 z m 33.63744,3.81561 c 8.39139,-6.64026 18.18731,-16.13579 20.8699,-20.22994 0.38154,-0.58229 0.35966,-0.80196 -0.29214,-2.93282 -1.18829,-3.88482 -1.25784,-4.84252 -0.94543,-13.01901 0.30952,-8.10102 0.60984,-10.18096 1.75647,-12.16493 1.03066,-1.7833 4.81246,-6.55192 6.00687,-7.57429 1.19171,-1.02006 3.1521,-1.8266 5.06563,-2.08408 0.72188,-0.0971 1.45,-0.21917 1.61804,-0.27118 0.19725,-0.0611 -1.07197,-4.25034 -3.58118,-11.82036 -2.13769,-6.44918 -4.35878,-13.24157 -4.93574,-15.09419 -0.57696,-1.85262 -1.10855,-3.36895 -1.18131,-3.36962 -0.13672,-10e-4 -1.35166,2.23101 -8.20336,15.0724 -2.21288,4.14734 -4.08587,7.60016 -4.16221,7.67292 -0.24296,0.23156 0.7337,-29.22395 2.17565,-65.61667 0.36037,-9.09505 0.79953,-20.31743 0.97592,-24.93863 0.17638,-4.62119 0.42126,-8.30161 0.54416,-8.17871 0.48517,0.48518 2.94706,7.50316 10.64292,30.33922 13.5005,40.06025 17.45846,51.50559 17.6851,51.14044 0.11621,-0.18725 3.19867,-6.08845 6.8499,-13.1138 3.65124,-7.02535 6.69234,-12.71963 6.758,-12.65396 0.12673,0.12673 -0.61443,36.35905 -0.85839,41.96377 -0.0792,1.81901 -0.0512,3.43517 0.0622,3.59147 0.11339,0.15629 0.75905,0.43611 1.43481,0.62182 2.72924,0.75004 4.1941,2.80793 4.1973,5.89649 0.003,3.30898 0.43143,5.14683 1.85802,7.97837 1.23068,2.4427 1.31499,2.73821 1.31499,4.60959 0,1.09976 -0.18515,2.98765 -0.41145,4.19531 l -0.41144,2.19574 0.80832,2.3542 c 0.44457,1.2948 0.80832,2.66748 0.80832,3.0504 0,1.51669 0.45605,0.48954 1.77726,-4.00288 2.42321,-8.23947 3.50036,-13.39607 4.48998,-21.49467 0.67572,-5.52976 0.67262,-20.74922 -0.005,-26.19375 -1.9567,-15.71403 -5.42287,-27.50655 -11.84738,-40.30691 -5.4102,-10.77942 -12.20835,-20.1059 -21.25712,-29.16297 -14.81104,-14.82463 -32.32534,-25.02057 -52.46555,-30.54282 -10.66938,-2.92544 -20.47642,-4.22928 -31.83012,-4.23181 -16.1687,-0.004 -30.53892,2.64599 -44.82024,8.26398 -23.38611,9.19963 -43.9911,26.5734 -57.0353,48.09113 -14.63304,24.13871 -19.94153,53.91148 -14.6479,82.15294 0.38187,2.03729 0.77007,3.78861 0.86265,3.89182 0.0926,0.10321 0.81511,-0.63943 1.60562,-1.65032 3.61009,-4.61654 10.52232,-9.14752 19.06302,-12.49586 1.67349,-0.65609 6.31392,-2.30382 10.31208,-3.66164 l 7.26937,-2.46876 -1.18396,-0.34432 c -3.61399,-1.05101 -5.41772,-1.25988 -10.84124,-1.2554 -5.94274,0.005 -8.24935,0.32092 -12.31529,1.68723 -4.06061,1.36452 -7.94272,4.0988 -10.55434,7.43371 l -0.72519,0.92604 0.14201,-2.51354 c 0.52645,-9.31762 7.16124,-17.57803 15.84802,-19.73101 1.0144,-0.25141 3.8465,-0.4964 7.34021,-0.63494 4.33328,-0.17185 6.17937,-0.35515 7.74877,-0.7694 7.71961,-2.03762 12.90605,-8.34381 12.27682,-14.92736 -0.0862,-0.90223 -0.76131,-3.53277 -1.50018,-5.84564 -0.73887,-2.31287 -1.46349,-5.06863 -1.61027,-6.1239 -0.48817,-3.50986 0.37323,-6.4498 2.89546,-9.88206 1.24131,-1.68918 1.88523,-2.7349 1.88523,-3.06158 0,-0.0861 -1.10133,0.58219 -2.4474,1.48505 -3.34006,2.24031 -5.54954,4.49437 -6.61916,6.75269 -0.78662,1.66082 -0.85532,2.01836 -0.85532,4.45169 0,2.54962 0.0457,2.75724 1.25612,5.70963 1.59079,3.88009 1.80676,5.56774 1.03475,8.08565 -1.01598,3.31361 -3.98856,6.25988 -8.37628,8.30217 -3.51138,1.63439 -5.89301,1.96495 -8.52523,1.18327 -1.79043,-0.5317 -3.78881,-2.33731 -4.55306,-4.11385 -0.60147,-1.39818 -1.07234,-5.01388 -0.65227,-5.0088 0.13024,0.002 0.82128,0.18017 1.53563,0.39688 0.72173,0.21894 2.30878,0.39286 3.57187,0.39142 1.82324,-0.002 2.53485,-0.12475 3.59597,-0.61994 2.51559,-1.17393 4.30668,-3.98449 4.04105,-6.34117 -0.0712,-0.63199 -0.57447,-2.15143 -1.1183,-3.37654 -1.94872,-4.39 -2.31285,-5.69357 -2.31706,-8.29504 -0.009,-5.42592 3.14579,-10.33797 9.1839,-14.30037 4.17724,-2.74124 8.20479,-7.19133 10.89998,-12.04352 0.73786,-1.32839 0.82155,-1.73191 0.96031,-4.63021 0.70968,-14.82346 12.11846,-27.3298 30.53125,-33.46845 11.11265,-3.70486 22.44865,-4.34742 31.91586,-1.8091 1.66456,0.44629 2.48305,0.52272 4.12855,0.38549 2.53581,-0.21148 5.76623,-1.0136 8.79862,-2.1847 1.26881,-0.49002 2.43048,-0.89094 2.58149,-0.89094 0.36232,0 0.34948,1.25054 -0.039,3.80288 -0.29533,1.94006 -0.28289,2.10811 0.18111,2.4474 0.76637,0.56039 3.47298,0.44098 6.52745,-0.28797 1.50324,-0.35874 5.41207,-1.13484 8.68629,-1.72465 3.27422,-0.58982 6.22101,-1.13201 6.54843,-1.20486 0.52911,-0.11774 0.59532,-0.0296 0.59532,0.79257 0,1.29925 -1.13265,4.15931 -2.54383,6.42346 -0.72131,1.15729 -1.16364,2.15783 -1.11267,2.51679 0.0656,0.46193 0.76843,0.95265 3.12733,2.18354 3.7717,1.9681 5.19364,2.94623 6.59135,4.53411 2.54034,2.88598 3.5804,5.74306 3.55044,9.75318 -0.0219,2.92509 -0.52376,4.82275 -2.02846,7.66947 -0.83034,1.57091 -3.84001,4.8403 -5.79823,6.29858 -0.9169,0.68282 -0.99218,0.83978 -0.99218,2.06863 0,0.73136 0.42579,3.25637 0.9462,5.61112 0.52041,2.35475 1.01204,5.18028 1.09251,6.27894 0.16564,2.26151 -0.12229,3.08079 -1.70199,4.84289 -0.90985,1.01489 -0.91328,1.02838 -0.74043,2.91041 0.42527,4.63031 1.26543,11.67898 1.73915,14.5908 0.90561,5.56651 0.64641,6.89284 -1.63286,8.35544 -0.71868,0.46118 -1.42202,1.05399 -1.56297,1.31736 -0.39785,0.74339 -0.30628,2.0215 0.2995,4.18039 0.87331,3.11228 0.65521,5.05081 -0.95678,8.5041 -1.0413,2.23073 -1.31743,3.12151 -1.40137,4.52086 -0.1233,2.05533 0.23134,2.90017 2.60038,6.19476 4.81216,6.6922 5.44872,10.53907 3.00544,18.16254 -1.12233,3.50189 -1.44962,6.83702 -0.87304,8.89638 0.49139,1.75506 2.36253,3.58777 4.22886,4.14201 1.94389,0.57728 4.34376,0.5281 5.76806,-0.1182 0.63435,-0.28784 1.19349,-0.52335 1.24252,-0.52335 0.049,0 -0.14309,0.67499 -0.42693,1.49999 -1.04765,3.04506 -2.84033,5.08798 -5.74334,6.54505 -3.16935,1.59076 -6.38577,1.83696 -8.9839,0.68769 -0.65979,-0.29186 -1.25969,-0.53065 -1.33311,-0.53065 -0.0734,0 -0.0707,0.4681 0.006,1.04022 0.48667,3.62845 4.74367,7.34928 8.74535,7.64389 l 1.53915,0.11332 -0.7454,0.79489 c -1.06589,1.13665 -3.26922,2.50305 -5.32363,3.30145 -2.36082,0.91748 -6.06475,0.97988 -8.19619,0.13808 -2.0946,-0.82726 -3.94982,-2.11711 -5.00469,-3.47953 l -0.94299,-1.21795 0.17491,1.45521 c 0.41484,3.45115 2.73862,6.32898 7.17115,8.88094 5.49652,3.16453 7.28121,4.27037 9.39777,5.8231 2.4334,1.78516 4.48584,3.81325 5.67018,5.60292 0.40921,0.61836 0.80062,1.12429 0.86979,1.12429 0.0692,0 0.91568,-0.62508 1.88114,-1.38906 z m 44.3028,-6.81547 c 1.37272,-0.42399 4.94914,-2.422 4.94914,-2.7649 0,-0.0428 -1.15903,-0.22362 -2.57563,-0.40193 -5.28493,-0.66521 -7.03883,-2.02659 -7.61885,-5.91374 -0.10486,-0.7028 -0.34227,-1.33599 -0.52756,-1.40709 -0.18529,-0.0711 -0.91449,0.16293 -1.62045,0.52007 -0.70595,0.35715 -2.10777,0.90352 -3.11514,1.21415 -2.51702,0.77615 -2.54974,0.81382 -2.15682,2.48259 0.42979,1.82531 0.95671,2.77034 2.18066,3.91099 2.92955,2.73017 6.60637,3.55773 10.48465,2.35986 z m 13.81004,-8.02618 c 0.5349,-0.81635 1.98702,-4.80905 1.98702,-5.46343 0,-0.28173 -0.21348,-0.62649 -0.4744,-0.76613 -0.58532,-0.31325 -15.52287,0.14953 -16.39279,0.50787 -0.48825,0.20112 -0.59531,0.45174 -0.59531,1.3935 0,1.45793 0.66373,3.71711 1.23075,4.18918 0.54672,0.45517 3.15967,0.65954 9.14804,0.71549 4.65026,0.0434 4.69372,0.0385 5.09669,-0.57648 z m -25.8992,-5.15344 c 1.5847,-1.02424 3.80913,-3.29237 3.80913,-3.88396 0,-0.17754 -0.242,-1.50938 -0.53779,-2.95967 -0.52859,-2.59172 -0.56372,-2.66372 -2.05141,-4.20403 -0.83249,-0.86193 -1.90056,-2.29892 -2.37349,-3.19331 -1.00364,-1.89805 -2.71022,-6.99411 -2.71022,-8.09306 0,-0.82317 0.66764,-2.31932 1.03497,-2.31932 0.1252,0 0.7232,0.83417 1.3289,1.8537 1.50866,2.53946 3.48488,4.85287 4.5959,5.38009 2.84523,1.35015 5.83794,-0.61212 5.20705,-3.41418 -0.41911,-1.86148 -2.10891,-6.26203 -3.6257,-9.442 l -1.48287,-3.10886 -1.4786,10e-4 c -2.29948,0.002 -3.39868,0.4254 -4.75982,1.83218 -1.33104,1.37566 -3.49568,4.85682 -4.14956,6.67328 -0.24642,0.68456 -0.50778,2.75736 -0.64545,5.1191 -0.12724,2.18282 -0.35941,5.25459 -0.51594,6.82616 -0.3265,3.27825 -0.0618,6.21775 0.75306,8.36225 1.20143,3.16191 3.45209,5.58139 5.19194,5.58139 0.53036,0 1.42829,-0.37679 2.4099,-1.01124 z m -66.66989,-8.58217 c 1.67697,-4.61787 2.01564,-6.06851 2.02242,-8.66284 0.009,-3.40655 -0.48176,-5.07326 -3.12068,-10.6007 -1.22037,-2.55616 -2.57464,-5.71132 -3.00948,-7.01146 -0.92463,-2.76453 -1.44623,-6.47234 -1.20447,-8.56198 0.16506,-1.42669 0.15615,-1.45509 -0.27289,-0.87019 -0.24393,0.33255 -0.91703,1.61508 -1.49576,2.85006 -2.70144,5.76473 -2.39654,10.62137 1.10486,17.59872 0.73371,1.46209 1.7047,3.75258 2.15775,5.08997 0.75606,2.23186 0.84018,2.83373 1.02398,7.32641 0.19597,4.79009 0.44219,6.18579 1.34871,7.64495 0.32569,0.52423 0.371,0.42923 0.55229,-1.15794 0.10861,-0.95096 0.51059,-2.59121 0.89327,-3.645 z m 84.55976,3.14954 c 8.43682,-0.57695 8.67444,-0.60849 9.35231,-1.24125 0.9645,-0.90033 1.59592,-2.22792 1.97426,-4.15096 0.46387,-2.35783 0.38687,-2.45142 -2.01682,-2.45142 -4.03055,0 -18.96415,1.52032 -19.61608,1.99702 -0.40376,0.29524 -0.39059,0.53812 0.17328,3.19614 0.6747,3.18051 0.71022,3.28019 1.16116,3.25799 0.17331,-0.009 4.21066,-0.28192 8.97189,-0.60752 z m 3.51405,-12.21507 c 5.91905,-0.49113 6.3677,-0.64571 6.96787,-2.40071 0.19431,-0.56818 0.41933,-1.95075 0.50006,-3.07238 0.14504,-2.01518 0.13838,-2.04314 -0.56313,-2.36277 -0.55848,-0.25446 -1.45529,-0.25514 -4.20423,-0.003 -3.48968,0.31985 -11.62135,1.35432 -11.78054,1.49866 -0.0463,0.042 0.10254,0.70497 0.33072,1.47334 0.51175,1.72323 0.51929,3.59907 0.018,4.47599 -0.20796,0.3638 -0.38234,0.76794 -0.38749,0.89808 -0.005,0.13164 0.84168,0.16906 1.90885,0.0843 1.05502,-0.0838 4.29948,-0.34988 7.20989,-0.59136 z m -105.41851,-2.04471 c 0.45131,-1.8683 0.58726,-3.19865 0.57454,-5.6224 -0.0263,-5.01129 -0.37652,-6.18385 -4.14872,-13.89062 -1.8163,-3.71078 -3.50234,-7.52078 -3.74676,-8.46667 -0.48197,-1.86519 -0.63529,-6.31379 -0.30094,-8.73125 l 0.20127,-1.4552 -0.65443,0.73089 c -1.12455,1.25595 -2.72978,4.20753 -3.48765,6.41286 -0.62588,1.82124 -0.72839,2.54133 -0.73446,5.15937 -0.0104,4.48471 0.92412,7.01742 4.87936,13.2241 2.51995,3.95439 4.32518,7.72484 5.44957,11.38215 0.51449,1.67349 0.98144,3.19154 1.03768,3.37344 0.19819,0.64109 0.34509,0.30697 0.93054,-2.11667 z m 30.81495,-2.37027 c 1.44608,-2.81222 2.0537,-5.41964 1.92874,-8.27664 -0.12984,-2.96863 -0.69198,-4.24013 -3.48127,-7.87417 -2.59579,-3.38193 -3.04626,-4.50826 -3.4899,-8.72586 -0.1989,-1.89087 -0.42124,-3.49755 -0.49408,-3.5704 -0.2587,-0.2587 -1.18674,1.61708 -2.04208,4.12753 -0.78494,2.30381 -0.86905,2.84926 -0.88233,5.72158 -0.0134,2.88733 0.0477,3.30685 0.67364,4.63021 0.37858,0.80036 1.43818,2.46216 2.35468,3.69287 0.91649,1.23071 2.01489,2.98247 2.44088,3.8928 0.86041,1.83866 1.50215,4.94249 1.5224,7.36329 0.015,1.79859 0.0529,1.77331 1.46932,-0.98121 z m 66.26919,-7.09461 c 1.23693,-0.14663 4.38409,-0.5064 6.9937,-0.7995 2.60961,-0.2931 4.92,-0.67825 5.13421,-0.85588 0.21421,-0.17763 0.55822,-0.72666 0.76446,-1.22005 0.49287,-1.17914 0.21034,-4.56226 -0.44902,-5.37653 l -0.45714,-0.56454 -8.57279,0.33759 c -4.89237,0.19266 -8.71478,0.45334 -8.90352,0.6072 -0.49703,0.40518 -0.42965,0.69586 0.82774,3.57089 0.63716,1.45687 1.30124,3.08144 1.47573,3.61014 0.17449,0.52871 0.45685,0.96039 0.62746,0.95928 0.17062,-0.001 1.32224,-0.12197 2.55917,-0.2686 z m -127.08641,-9.41901 c 2.00704,-1.5062 2.94946,-2.48249 4.18296,-4.3333 2.35218,-3.52931 2.75753,-6.49101 1.73819,-12.7 -0.98536,-6.00198 -0.69701,-8.51677 1.66064,-14.48279 0.7914,-2.00264 1.52598,-3.93882 1.63241,-4.30262 0.2126,-0.72675 0.1378,-0.66998 -3.13281,2.378 -2.64993,2.46955 -4.6616,5.64586 -5.62442,8.88062 -0.59801,2.00912 -0.60002,6.24152 -0.005,9.51117 0.62308,3.42109 0.79935,6.63249 0.46244,8.42544 -0.23867,1.27017 -0.90393,3.12469 -2.60114,7.25112 -0.24057,0.58489 0.37669,0.35514 1.68625,-0.62764 z m 37.4849,-13.43059 c 4.19976,-9.08431 11.5742,-13.92146 21.22387,-13.92146 2.15504,0 2.78349,-0.0778 2.67255,-0.33073 -0.0798,-0.1819 -0.52156,-1.28322 -0.98177,-2.44739 -0.4602,-1.16417 -0.94488,-2.24965 -1.07706,-2.41218 -0.24151,-0.29696 -4.28643,-0.69385 -7.24545,-0.71093 -3.13271,-0.0181 -7.68584,2.16876 -10.97418,5.27082 -4.19937,3.96147 -6.09145,8.70469 -6.09145,15.27056 0,1.66144 0.0796,3.41871 0.17686,3.90506 0.17516,0.87582 0.18238,0.86791 0.75459,-0.82682 0.31775,-0.9411 1.01167,-2.64972 1.54204,-3.79693 z m -68.17258,-1.90781 c 5.66492,-1.80016 10.52513,-6.23142 12.59617,-11.48448 1.63428,-4.14523 1.60809,-7.9168 -0.0983,-14.15521 -0.94762,-3.46437 -1.10371,-4.43138 -1.22824,-7.60899 -0.16905,-4.31345 0.12284,-6.16273 1.39269,-8.82357 1.46463,-3.06895 3.93548,-5.42011 8.13483,-7.74073 2.59609,-1.43465 8.61483,-4.005 12.18196,-5.20242 1.86759,-0.62691 3.44474,-1.18896 3.50477,-1.24899 0.06,-0.06 -1.042,-0.48943 -2.44898,-0.95421 -6.19438,-2.04627 -12.58176,-1.64481 -18.20975,1.1445 -4.0083,1.98657 -6.78622,4.76055 -8.751,8.73858 -2.60604,5.27638 -2.94903,9.82071 -1.46776,19.44687 1.0343,6.72157 1.25863,10.24967 0.84729,13.32582 -0.34861,2.60704 -1.40943,5.78592 -2.53134,7.58548 -1.83197,2.9385 -5.04773,5.89324 -7.83451,7.1986 -0.70145,0.32857 -1.28024,0.66867 -1.28621,0.75578 -0.0198,0.28913 3,-0.27844 5.19839,-0.97703 z m 92.95346,-3.34522 c 1.18937,-0.74278 0.82457,-2.52048 -0.66199,-3.2259 -1.2531,-0.59464 -7.22105,-0.58296 -8.98352,0.0176 -1.48721,0.50675 -3.58594,2.3891 -3.58594,3.21624 0,0.56454 0.005,0.56488 6.34932,0.4449 4.45602,-0.0843 6.5082,-0.21929 6.88213,-0.45281 z m -40.34431,-10.13251 c 1.19697,-5.91163 0.86522,-7.9769 -2.26401,-14.0945 -1.69566,-3.31499 -2.15783,-4.46938 -2.29068,-5.7216 l -0.16644,-1.56872 4.0055,3.24022 c 7.4998,6.06692 8.14523,7.25061 9.70674,17.80147 l 0.45695,3.08757 1.29735,-1.61652 c 1.75045,-2.18111 4.07347,-4.10445 7.17517,-5.94068 l 2.58168,-1.52836 1.06038,-2.1347 c 1.12472,-2.26423 2.88844,-4.29425 4.98287,-5.73526 1.41676,-0.97476 3.87665,-2.03661 4.73893,-2.04564 0.57957,-0.006 0.56858,0.039 -0.32768,1.34188 -0.51005,0.74149 -1.07132,1.82864 -1.24726,2.41588 -0.30003,1.0014 -0.28002,1.1 0.3222,1.58765 0.57445,0.46516 0.85175,0.49646 2.63194,0.29709 3.39412,-0.38013 4.58521,-0.23807 6.79236,0.8101 4.37094,2.07575 7.50061,0.66158 7.50061,-3.3892 0,-1.72153 -0.98339,-8.69729 -2.11842,-15.02717 -0.4356,-2.42928 -0.792,-4.7795 -0.792,-5.22272 0,-0.59586 0.34474,-1.18652 1.32292,-2.26666 1.61702,-1.78557 1.59696,-1.39754 0.53326,-10.31875 -1.81561,-15.22732 -2.48557,-18.49792 -4.62193,-22.56343 -2.38588,-4.54033 -6.03051,-7.42102 -10.61887,-8.39306 -2.87996,-0.61011 -5.2549,-0.46308 -8.70078,0.53866 -1.72647,0.5019 -1.63547,0.66461 0.65415,1.16968 2.53768,0.55978 5.63534,1.61659 7.27458,2.48183 2.35489,1.24297 4.8758,3.85809 6.03557,6.26111 1.19081,2.46733 2.28157,7.67291 1.60776,7.67291 -0.0898,0 -1.96507,-0.89114 -4.16719,-1.98032 -8.35821,-4.13402 -15.44876,-4.99549 -19.85638,-2.41245 -2.40926,1.41192 -3.87223,3.6011 -9.12404,13.65319 -3.77628,7.2279 -6.34911,11.13379 -9.2057,13.97543 -2.12712,2.11599 -2.2273,2.2701 -2.57979,3.96875 -0.74191,3.57516 -1.00461,6.91336 -0.87249,11.08685 0.15612,4.93193 0.60882,6.88359 2.62114,11.30018 2.51279,5.51501 3.3737,8.00985 4.20603,12.18858 0.38954,1.95573 0.50618,1.72018 1.44557,-2.91929 z m 38.62223,-15.13038 c -1.1094,-0.27027 -1.47527,-0.86685 -3.29896,-5.37909 -0.44403,-1.09863 -1.13356,-2.3858 -1.5323,-2.86038 l -0.72498,-0.86286 -2.02746,0.9395 c -1.83278,0.8493 -4.95815,1.85259 -5.15568,1.65506 -0.0433,-0.0433 0.50138,-0.51182 1.2104,-1.04115 1.55574,-1.16147 2.88011,-3.53613 2.43548,-4.36693 -0.15377,-0.28732 -1.33758,-0.94086 -2.73264,-1.50861 -1.35375,-0.55093 -3.4494,-1.52673 -4.65701,-2.16844 -1.84346,-0.97959 -2.62267,-1.22667 -4.85776,-1.54033 -1.46415,-0.20547 -2.71001,-0.42149 -2.76857,-0.48005 -0.10186,-0.10187 4.13854,-2.12882 7.89664,-3.77468 1.79504,-0.78613 2.22013,-1.17591 1.28245,-1.17591 -0.28083,0 -1.95759,-0.72967 -3.72612,-1.62148 -3.16774,-1.59739 -3.24172,-1.61955 -4.9795,-1.49153 -0.97019,0.0715 -2.62719,0.43202 -3.68221,0.80122 -1.05503,0.3692 -1.91823,0.58983 -1.91823,0.4903 0,-0.0995 0.62508,-0.79074 1.38906,-1.53602 3.04315,-2.96866 7.05248,-4.79315 9.88954,-4.50034 0.88414,0.0913 3.18095,0.85342 5.99164,1.98825 6.16979,2.49108 8.58137,3.22377 10.61084,3.22377 1.9405,0 2.29452,-0.27465 3.52443,-2.73426 0.68267,-1.36524 0.81304,-1.49403 1.12809,-1.11442 0.22291,0.26859 0.40374,1.41607 0.4832,3.06632 0.15954,3.31316 -0.18676,4.31317 -2.33729,6.74925 -1.0655,1.20698 -1.57495,2.0073 -1.57413,2.47288 6.7e-4,0.37859 0.22773,2.23617 0.50458,4.12794 0.27684,1.89177 0.71473,5.38982 0.97309,7.77346 0.45756,4.22156 0.45689,4.34327 -0.026,4.69635 -0.27264,0.19936 -0.56225,0.34867 -0.64358,0.33179 -0.0813,-0.0169 -0.38599,-0.0887 -0.67704,-0.15961 z m -54.65515,2.44893 c 1.26699,-0.65519 1.60572,-1.61483 1.60975,-4.5606 0.003,-2.28251 0.38123,-7.76143 0.95315,-13.81196 l 0.18515,-1.95873 -1.13887,0.18212 c -1.63077,0.26077 -3.64118,1.18675 -4.24603,1.95569 -0.64452,0.81938 -0.69339,3.62517 -0.11855,6.80672 0.55514,3.07253 0.52483,3.57188 -0.21681,3.57188 -0.79776,0 -2.77847,-1.26782 -3.70968,-2.37449 -0.92417,-1.09832 -1.88326,-2.97467 -2.28713,-4.47455 -0.30152,-1.11977 -0.33503,-1.14758 -1.21117,-1.00541 -1.33614,0.21683 -4.06291,1.5106 -4.50051,2.13536 -0.87385,1.2476 -0.23298,4.37602 1.41949,6.92931 3.44233,5.31884 9.71064,8.44073 13.26121,6.60466 z m -28.10688,-32.3784 c 3.46551,-2.77147 7.82411,-7.34282 9.72501,-10.19969 2.06599,-3.105 3.39362,-6.2794 4.64543,-11.10741 0.93976,-3.62447 1.84889,-8.09429 1.84889,-9.09022 0,-0.87043 -5.53224,2.94502 -8.99832,6.20591 -5.12392,4.8206 -8.52926,10.67446 -9.81525,16.87264 -0.53469,2.57709 -0.71612,9.3927 -0.25003,9.3927 0.13805,0 1.41797,-0.93326 2.84427,-2.07393 z m 34.13729,-5.4443 c 2.64075,-0.72472 5.44296,-2.02783 7.74662,-3.60239 1.4792,-1.01105 3.09653,-2.54391 2.89113,-2.74015 -0.29035,-0.27741 -6.20899,-1.56599 -8.82703,-1.92178 -4.56556,-0.62048 -10.15757,-0.13669 -14.47321,1.25213 -1.87175,0.60235 -5.57118,2.36522 -6.55169,3.12205 l -0.63476,0.48995 1.82539,1.08233 c 2.25003,1.33412 4.94162,2.37283 7.38163,2.84864 2.78938,0.54395 7.6001,0.30401 10.64192,-0.53078 z m -13.17291,-11.28213 c 7.08794,-2.32685 12.81893,-7.3987 16.28371,-14.41088 1.80121,-3.64535 3.8102,-8.97929 3.41743,-9.0734 -0.59049,-0.14148 -4.83428,1.99142 -7.49807,3.76848 -3.48788,2.32682 -6.23225,4.73509 -8.41749,7.38661 -3.04103,3.68992 -4.43796,6.31762 -5.75356,10.82278 -0.70039,2.39844 -0.71506,2.38721 1.96798,1.50641 z m 24.05188,-8.73305 c 3.37645,-0.84693 7.87387,-2.89378 10.61384,-4.83053 2.55198,-1.80387 5.81404,-5.16753 7.10384,-7.32508 1.06883,-1.7879 2.8842,-6.51494 2.60806,-6.79108 -0.0691,-0.0691 -0.46407,0.0463 -0.87777,0.25648 -0.41371,0.21013 -2.41907,1.00704 -4.45636,1.77092 -7.48559,2.8067 -13.40059,6.11962 -16.18758,9.06645 -1.38493,1.46435 -3.18154,4.67817 -4.08968,7.3157 -0.27089,0.78676 -0.49253,1.48254 -0.49253,1.54618 0,0.22551 2.81892,-0.26675 5.77818,-1.00904 z"
       id="path1" /></g></svg>
