<?xml version="1.0" encoding="UTF-8" standalone="no"?>
<!-- Created with Inkscape (http://www.inkscape.org/) -->

<svg
   width="227.16092mm"
   height="232.9906mm"
   viewBox="0 0 227.16092 232.9906"
   version="1.1"
   id="svg1"
   xml:space="preserve"
   inkscape:version="1.4 (86a8ad7, 2024-10-11)"
   sodipodi:docname="Deco3.svg"
   xmlns:inkscape="http://www.inkscape.org/namespaces/inkscape"
   xmlns:sodipodi="http://sodipodi.sourceforge.net/DTD/sodipodi-0.dtd"
   xmlns="http://www.w3.org/2000/svg"
   xmlns:svg="http://www.w3.org/2000/svg"><sodipodi:namedview
     id="namedview1"
     pagecolor="#ffffff"
     bordercolor="#000000"
     borderopacity="0.25"
     inkscape:showpageshadow="2"
     inkscape:pageopacity="0.0"
     inkscape:pagecheckerboard="0"
     inkscape:deskcolor="#d1d1d1"
     inkscape:document-units="mm"
     inkscape:zoom="0.76167929"
     inkscape:cx="435.22254"
     inkscape:cy="457.54165"
     inkscape:window-width="1828"
     inkscape:window-height="1057"
     inkscape:window-x="84"
     inkscape:window-y="527"
     inkscape:window-maximized="1"
     inkscape:current-layer="layer1" /><defs
     id="defs1" /><g
     inkscape:label="Warstwa 1"
     inkscape:groupmode="layer"
     id="layer1"
     transform="translate(10.05916,-27.606353)"><path
       style="fill:#000000"
       d="m 185.75205,260.25048 c -6.22778,-1.09587 -12.89465,-4.37433 -17.15037,-8.43376 l -2.27436,-2.16946 -2.40338,1.45012 c -3.59398,2.16849 -8.91541,4.64602 -12.19297,5.67676 -7.92148,2.49118 -13.17207,3.23951 -21.15692,3.01535 -8.35769,-0.23462 -12.96247,-1.23638 -26.99724,-5.87313 -8.164497,-2.69736 -9.896308,-3.1277 -12.705491,-3.15719 -1.892439,-0.0199 -2.314984,0.0726 -3.903469,0.85462 -1.267743,0.62408 -2.055141,1.23433 -2.731096,2.11667 -0.900553,1.1755 -0.943011,1.32205 -0.819071,2.82726 0.07189,0.87313 0.211443,1.83829 0.310111,2.1448 0.155699,0.48368 0.04975,0.57834 -0.802049,0.71657 -1.162124,0.18858 -1.973626,-0.17629 -3.332818,-1.49853 -1.394482,-1.35656 -1.911469,-2.9047 -1.757485,-5.26286 0.145725,-2.2317 0.781719,-3.67108 2.257379,-5.10888 1.169946,-1.13993 4.238658,-2.75644 5.287281,-2.78519 l 0.73421,-0.0201 -0.79375,-0.31216 c -0.436563,-0.17169 -1.311688,-0.58785 -1.944724,-0.92481 -0.633035,-0.33696 -2.702494,-1.20594 -4.598797,-1.93108 -7.255393,-2.77442 -11.44853,-3.41649 -15.545663,-2.38041 -2.534704,0.64098 -3.650982,1.38641 -4.95559,3.30929 -1.540528,2.2706 -1.485197,4.37108 0.158439,6.01472 1.253643,1.25364 2.461956,1.50956 4.2956,0.90981 0.742574,-0.24289 1.404541,-0.3872 1.471037,-0.32071 0.187651,0.18765 -1.126719,2.64699 -1.915911,3.58489 -1.119324,1.33024 -2.107367,1.72176 -4.348765,1.72325 -2.693108,0.002 -4.713868,-0.90914 -6.748257,-3.04198 -2.449556,-2.56811 -3.178279,-5.12587 -2.526592,-8.86813 0.638265,-3.66519 3.341152,-7.18948 6.801599,-8.86861 2.044782,-0.9922 1.865901,-0.9823 11.304255,-0.62514 l 4.994546,0.18901 -1.033666,-0.93386 c -1.466243,-1.32466 -4.788937,-3.6768 -8.029385,-5.68402 -6.836226,-4.23454 -13.502029,-7.1156 -19.20533,-8.30084 -3.932974,-0.81733 -9.837044,-0.81809 -12.873322,-0.002 -4.933984,1.32672 -8.555719,3.37842 -11.988161,6.79124 -2.736237,2.72059 -4.007238,4.66002 -5.030104,7.67545 -0.60399,1.78058 -0.72186,2.59497 -0.747086,5.16183 -0.02911,2.96232 -0.0046,3.09945 0.876214,4.89479 2.209908,4.50458 7.347486,7.63141 11.777995,7.16833 1.751805,-0.1831 3.162132,-0.81896 4.826626,-2.17614 1.246636,-1.01647 2.200669,-3.12299 2.200669,-4.85912 v -1.03272 l -0.727604,0.37955 c -1.834338,0.95688 -4.25395,0.21001 -5.549953,-1.71313 -1.759384,-2.61075 0.550424,-7.5854 3.947458,-8.50168 2.389855,-0.64461 5.626668,0.38428 7.677894,2.44057 2.5033,2.50949 3.529474,5.41251 3.321383,9.3961 -0.184827,3.53823 -1.266793,5.7192 -4.377199,8.82333 -3.059436,3.05326 -5.662697,4.36896 -10.245103,5.17791 -4.754139,0.83926 -9.794397,-0.25947 -14.343928,-3.12685 C 9.0462845,252.76789 5.5344345,248.22858 4.10992,244.27263 3.3975356,242.2943 3.3519231,235.7375 4.032969,233.21084 c 2.5510903,-9.46445 9.233595,-16.62538 18.581346,-19.91166 3.911925,-1.37526 6.521557,-1.8632 10.880708,-2.0344 4.844544,-0.19026 7.954539,0.14686 12.688772,1.37546 8.745629,2.26962 14.563355,5.03747 27.627392,13.14405 14.404973,8.93868 26.596383,14.61201 34.278483,15.95165 3.84219,0.67002 3.71468,0.75452 2.48813,-1.64885 -2.107,-4.12857 -1.82689,-8.32254 0.71384,-10.68799 0.88916,-0.82781 4.06694,-2.45274 5.38205,-2.75205 l 0.92604,-0.21077 -0.92604,-0.21642 c -1.24078,-0.28998 -3.97708,-0.007 -6.08542,0.62893 -2.73605,0.8255 -6.51844,2.81961 -8.01725,4.22677 -0.74544,0.69986 -1.43473,1.27247 -1.53174,1.27247 -0.48145,0 -0.82975,-1.72832 -0.70764,-3.51137 0.16977,-2.47883 1.09703,-4.55215 2.79548,-6.2506 2.82435,-2.82435 6.46712,-3.96218 11.5119,-3.59579 1.62839,0.11827 3.48673,0.19976 4.12966,0.1811 2.0625,-0.0599 4.47412,-1.5419 8.62063,-5.29772 1.75261,-1.58748 7.42138,-7.60055 7.81004,-8.28439 0.2015,-0.35452 -0.21897,-0.742 -2.32684,-2.14426 -3.50145,-2.32934 -4.03557,-2.61406 -8.62494,-4.59769 -10.1256,-4.37652 -14.12417,-7.46567 -17.15007,-13.24953 -0.67042,-1.28148 -1.66521,-3.69918 -2.21065,-5.37267 -1.75478,-5.38389 -1.57336,-10.64913 0.51601,-14.97586 1.04912,-2.17256 2.93349,-4.65733 4.47076,-5.89525 1.52739,-1.22997 4.4056,-2.56387 6.90853,-3.20176 2.92272,-0.74487 8.73997,-0.75243 11.6229,-0.0151 3.95004,1.01025 7.32963,3.13703 10.65051,6.70239 3.20414,3.44002 4.78172,6.86853 5.44184,11.8266 0.37179,2.79248 0.0438,6.0759 -0.86125,8.6231 -1.25561,3.53361 -1.12403,4.00063 0.43882,1.5575 1.53816,-2.40453 2.28627,-5.08776 2.43197,-8.72266 0.21068,-5.25589 -0.6942,-8.6109 -3.40232,-12.6147 -4.55705,-6.73735 -11.44184,-10.06247 -20.87469,-10.08179 -4.08405,-0.008 -7.03445,0.56754 -10.18645,1.98834 -6.61146,2.98018 -9.62264,6.88167 -10.82332,14.02342 l -0.32317,1.92223 -3.55488,0.17238 c -4.304575,0.20873 -7.028494,0.86716 -12.359692,2.98761 -5.105355,2.03063 -7.548216,2.72755 -10.691189,3.05008 -3.820398,0.39204 -5.771708,0.3596 -5.771708,-0.096 0,-0.2025 0.288404,-0.44057 0.640898,-0.52905 0.662164,-0.16619 2.42931,-2.11684 3.655097,-4.03465 0.578423,-0.90498 1.013371,-1.2153 2.501562,-1.78481 3.485341,-1.33378 6.143484,-3.04289 8.683452,-5.58321 1.311273,-1.31145 2.665289,-2.78048 3.008922,-3.2645 l 0.624789,-0.88004 -1.686006,0.84905 c -0.927304,0.46698 -3.114757,1.74793 -4.861006,2.84655 -2.647517,1.66565 -6.295891,3.49055 -6.972727,3.48772 -0.09406,-3.9e-4 -0.180958,-0.92312 -0.193101,-2.05052 -0.01214,-1.12739 -0.23339,-2.97675 -0.49166,-4.10968 -0.775713,-3.40274 -0.125875,-5.60426 2.476878,-8.39116 2.364473,-2.53177 3.509239,-4.98939 3.863063,-8.29335 0.35517,-3.31653 -1.548402,-7.35839 -4.295248,-9.12013 -2.675014,-1.71566 -4.264719,-2.26489 -6.899073,-2.38357 -1.85198,-0.0834 -2.73751,-0.004 -3.593019,0.32286 -1.2139,0.46359 -2.773791,1.87429 -2.440808,2.20736 0.11063,0.11066 1.590231,0.21155 3.288003,0.22419 4.492819,0.0335 6.609812,0.76322 8.746095,3.01488 1.558755,1.64295 2.241378,4.9811 1.523537,7.45038 -0.440599,1.51561 -1.787194,3.61313 -3.878148,6.04078 -2.094771,2.43209 -2.501004,3.45405 -2.474502,6.22514 0.01253,1.30968 0.172672,2.91703 0.355882,3.57187 0.514372,1.83852 0.388737,5.38758 -0.265523,7.50072 -0.974514,3.1475 -2.353438,4.2406 -9.254857,7.33653 -1.81901,0.816 -4.021666,1.88932 -4.894791,2.38517 l -1.5875,0.90154 1.696017,0.24118 c 1.258419,0.17895 2.521347,0.12735 4.894791,-0.19997 1.759326,-0.24264 3.589465,-0.44047 4.066974,-0.43962 1.144452,0.002 1.46074,0.72506 0.571005,1.30532 -0.350829,0.2288 -1.580113,1.28051 -2.731742,2.33713 -1.217631,1.11717 -2.822765,2.27976 -3.835643,2.77812 -1.699603,0.83626 -1.821954,0.85616 -5.05367,0.82227 -2.086536,-0.0219 -4.046094,-0.20467 -5.296273,-0.49403 -4.543637,-1.05163 -7.012463,-0.73352 -10.4842,1.35087 -1.518574,0.91174 -3.00955,2.14671 -3.00955,2.4928 0,0.0952 0.72665,0.3932 1.614778,0.6621 2.457939,0.74421 3.747932,1.68272 4.564084,3.32052 1.310205,2.62924 0.693977,6.67294 -1.281186,8.40716 -1.37183,1.20448 -4.749652,1.71344 -5.313781,0.80066 -0.08059,-0.1304 0.09913,-0.58207 0.399374,-1.00372 1.348163,-1.89332 -0.0019,-4.07143 -2.861277,-4.61605 -1.289841,-0.24568 -5.786805,0.53519 -9.160533,1.59067 -5.39525,1.68792 -11.051997,4.81126 -12.258675,6.76856 -0.8622112,1.39855 -0.919517,2.09404 -0.319341,3.87563 0.304773,0.90471 0.484276,1.75795 0.398897,1.8961 -0.263861,0.42693 -2.4430783,0.27767 -4.0156656,-0.27505 -2.5017454,-0.87929 -3.8361096,-2.6535 -4.1810144,-5.55919 -0.5126509,-4.3189 3.1986756,-7.92447 9.395921,-9.12819 1.328014,-0.25795 2.313519,-0.57005 2.190011,-0.69356 -0.778781,-0.77878 -6.1968908,-0.99065 -8.9580427,-0.3503 -3.3996634,0.78844 -5.41529589,2.29726 -6.849276,5.12708 -0.7564088,1.4927 -1.0645401,1.51795 -2.091621,0.17137 -0.9053015,-1.18691 -1.5481497,-3.58149 -1.5625782,-5.82052 -0.023139,-3.59071 1.9893641,-6.56161 5.32600978,-7.86238 1.18176352,-0.4607 2.07492402,-0.587 4.27225182,-0.60413 1.5279686,-0.0119 3.1353123,0.0756 3.5718748,0.19445 0.7675517,0.20898 0.7513756,0.17284 -0.4901027,-1.09492 -1.5478901,-1.58066 -3.4136102,-2.5687 -5.7888741,-3.06567 -2.07694631,-0.43456 -3.4577301,-0.21667 -4.9188435,0.77618 -0.5299572,0.36011 -1.0704669,0.65475 -1.2011327,0.65475 -0.6076866,0 0.083228,-2.4573 1.1522548,-4.09811 2.51255051,-3.85641 5.685626,-5.31382 10.1541329,-4.66384 3.4734558,0.50524 6.0747458,2.34669 7.8922838,5.58695 1.192824,2.12654 2.378135,3.2939 3.884011,3.82521 2.506426,0.88432 6.495525,0.25394 10.151309,-1.60416 2.35454,-1.19673 2.691457,-1.49018 8.798293,-7.66316 6.322509,-6.391 7.138041,-7.09615 12.170833,-10.5235 1.455208,-0.99101 3.050393,-2.09041 3.544856,-2.44311 l 0.899023,-0.64128 -1.163606,0.006 c -1.139207,0.006 -2.555846,0.27208 -3.478711,0.65296 -0.659809,0.27231 -0.60501,-0.47751 0.216778,-2.9662 1.157698,-3.50596 1.140091,-5.12719 -0.104766,-9.64674 -1.395437,-5.06623 -1.728554,-7.46897 -1.563236,-11.27547 0.345564,-7.95672 3.974985,-14.46888 10.129411,-18.17488 3.626474,-2.18375 9.514053,-3.2837 12.668792,-2.36685 1.694945,0.49259 1.826186,0.48074 1.661253,-0.14997 -0.07611,-0.29104 -0.03046,-0.52916 0.101433,-0.52916 0.708902,0 0.02061,-0.55357 -1.678416,-1.3499 -1.860715,-0.8721 -2.017391,-0.89906 -5.225521,-0.89906 -3.746294,0 -5.882947,0.51034 -9.02961,2.15674 -6.682323,3.49631 -11.273876,11.55315 -11.777687,20.66641 -0.193714,3.50401 0.234067,7.81632 1.121763,11.3081 0.895239,3.52144 1.100967,7.12547 0.536172,9.39289 -0.564261,2.26527 -2.475393,6.08592 -3.042819,6.08307 -1.375943,-0.007 -5.746416,-3.51077 -8.851092,-7.09603 -5.189292,-5.99254 -5.920772,-7.18137 -8.275439,-13.4495 -2.152795,-5.73074 -2.602134,-8.18602 -2.606975,-14.24502 -0.0034,-4.30273 0.08465,-5.42535 0.611306,-7.79114 2.323956,-10.43933 6.079102,-15.7484 19.753434,-27.927603 5.906939,-5.261087 9.964098,-9.341985 12.363075,-12.435416 1.797785,-2.318207 4.068479,-4.894792 4.313684,-4.894792 0.06693,0 0.121689,0.987207 0.121689,2.193793 0,1.709968 -0.203183,2.906451 -0.921288,5.425179 -1.035126,3.630672 -1.448991,4.543089 -3.482306,7.677178 -1.718316,2.648559 -2.97905,4.030532 -6.973489,7.644091 -6.652005,6.01773 -10.81028,11.36353 -14.158585,18.20201 -3.983251,8.13526 -5.03129,14.47768 -3.433743,20.77996 0.380989,1.50299 0.858949,3.0384 1.062133,3.41202 0.368087,0.67685 0.369445,0.67547 0.374699,-0.37903 0.0029,-0.58208 -0.110633,-1.83224 -0.252296,-2.77812 -0.43788,-2.92373 -0.344303,-6.08077 0.255834,-8.63113 1.39961,-5.94782 3.466439,-10.64829 7.082547,-16.10741 2.700642,-4.07708 4.635771,-6.49314 8.188044,-10.223 7.923148,-8.319249 11.030016,-13.126126 12.928832,-20.003205 1.056496,-3.826387 1.266073,-7.07787 0.654233,-10.150122 -0.34663,-1.740547 -0.34455,-1.755072 0.549407,-3.836459 0.814124,-1.89551 0.896562,-2.322431 0.888803,-4.602838 -0.0077,-2.265047 -0.09571,-2.709721 -0.890164,-4.497916 -0.991937,-2.232696 -2.030166,-3.837927 -3.550883,-5.490104 -1.354947,-1.472077 -1.801909,-1.453617 -0.590785,0.0244 2.082792,2.541774 3.196639,6.356971 2.793011,9.566744 -0.561486,4.465107 -3.936153,9.362345 -7.742987,11.236443 -2.313982,1.13917 -4.304189,1.280542 -8.01977,0.569676 -4.847474,-0.927421 -7.391268,-0.635835 -9.68655,1.110334 -1.280375,0.974064 -2.657952,3.436317 -3.14875,5.62801 -0.399618,1.784525 0.07872,2.795441 2.465725,5.211029 0.987706,0.999533 1.795829,1.986807 1.795829,2.193941 0,0.520875 -1.097272,0.480092 -3.175842,-0.118038 -2.710922,-0.780095 -3.753486,-1.302078 -4.960095,-2.483383 -0.807191,-0.790264 -1.124479,-0.97337 -1.124479,-0.648934 0,0.248579 0.0893,0.456433 0.198437,0.461897 0.328658,0.01645 2.33777,1.833962 2.032,1.838213 -0.155708,0.0022 -0.769947,-0.412783 -1.364976,-0.922106 -0.595029,-0.509322 -1.158937,-0.926041 -1.253127,-0.926041 -0.09419,0 -0.415579,0.552332 -0.714195,1.227404 -0.725589,1.640314 -0.534648,2.595347 0.972005,4.861677 0.673173,1.012597 1.140209,1.976583 1.037857,2.142192 -0.279033,0.451484 -3.402602,0.05632 -4.709576,-0.595806 -0.617673,-0.308195 -2.827565,-2.291392 -5.080272,-4.559126 -4.585374,-4.615964 -5.471983,-6.024087 -5.513783,-8.757057 -0.02929,-1.91471 0.391308,-2.152287 1.679668,-0.948778 0.472242,0.44114 1.312383,0.938023 1.866979,1.104184 1.98369,0.594328 3.248052,-0.062 6.880233,-3.571536 0.945885,-0.913946 2.13651,-1.964986 2.645833,-2.335645 1.069852,-0.778584 3.913122,-2.284777 5.357812,-2.838246 0.545703,-0.209062 0.992188,-0.463234 0.992188,-0.564826 0,-0.101593 -0.625078,-0.259027 -1.389063,-0.349853 -1.66754,-0.198246 -3.62813,0.276546 -5.419459,1.312418 -2.680418,1.550005 -3.387671,1.818422 -5.074376,1.925823 -2.054978,0.130851 -3.227317,-0.383357 -3.845872,-1.686864 -0.655408,-1.38117 -0.584055,-1.44721 1.563637,-1.44721 2.373612,0 4.196267,-0.616022 6.095342,-2.060107 2.435959,-1.85234 4.653983,-3.270403 6.435291,-4.114316 1.716915,-0.813406 1.869488,-0.837035 5.404628,-0.837035 2.306845,0 3.605999,-0.0968 3.55082,-0.264584 -0.146402,-0.445154 -2.85684,-1.690016 -4.671051,-2.14534 -2.403962,-0.603338 -4.080522,-0.357352 -8.272573,1.213758 -4.033244,1.511591 -6.126973,1.977128 -7.938146,1.765034 -1.236916,-0.144848 -1.265959,-0.131092 -1.757783,0.83255 -0.275047,0.538907 -0.734728,1.192026 -1.021513,1.451376 -0.507502,0.458952 -0.571112,0.421858 -2.382033,-1.389063 -1.023334,-1.023333 -2.042382,-1.860606 -2.264552,-1.860606 -1.108291,0 -2.8257956,2.306924 -2.8257956,3.795563 0,1.719969 -1.7074823,1.444544 -4.0636667,-0.655489 C 3.0242795,68.95928 2.4855716,67.894297 2.2655514,65.396273 1.8355762,60.514502 5.1739293,54.180529 8.8559823,52.892019 c 2.0231707,-0.707995 3.5071277,-0.594091 6.0673417,0.465713 1.230393,0.509323 2.453125,0.926042 2.717182,0.926042 0.264057,0 1.064187,-0.310932 1.778069,-0.690961 1.65986,-0.883612 3.117285,-0.778413 5.464337,0.394423 1.650887,0.824958 1.76274,0.843327 4.093373,0.672248 l 2.396107,-0.175886 -0.719562,-0.719562 c -1.703611,-1.703611 -1.535456,-5.092699 0.336866,-6.789386 0.977648,-0.885938 1.722754,-1.183563 4.162705,-1.662749 2.255366,-0.442935 2.281841,-0.457348 2.598692,-1.414791 0.442587,-1.337386 1.537967,-3.012135 2.294187,-3.507629 0.347454,-0.227661 1.332895,-0.544323 2.189868,-0.703694 1.417517,-0.263615 1.951555,-0.204369 5.917607,0.656494 5.489291,1.191495 10.344793,1.590191 17.588641,1.444242 7.594924,-0.153023 12.32657,-1.101313 16.735624,-3.35406 1.905144,-0.973408 5.496668,-3.849021 6.882398,-5.510505 1.910308,-2.290451 3.766352,-4.808132 3.766352,-5.108972 0,-0.162923 0.148828,-0.24723 0.330729,-0.187348 0.455955,0.150101 0.557247,2.307886 0.191125,4.071486 -0.500682,2.411771 -2.473766,6.011477 -4.320298,7.881975 -2.800743,2.837093 -4.990452,4.096526 -11.811972,6.793777 -4.287345,1.69523 -5.820833,2.395387 -5.820833,2.657664 0,0.644535 4.092771,1.813651 6.34912,1.813651 0.709061,0 2.100657,-0.167805 3.092436,-0.372901 2.467278,-0.510221 4.638308,-0.626715 4.765704,-0.25572 0.253235,0.737458 -3.980583,4.33676 -6.348123,5.39674 l -1.061003,0.475025 1.694162,0.855051 c 2.451284,1.237175 5.247526,4.04144 6.40795,6.426337 1.14872,2.360842 1.352711,3.135364 2.00074,7.596507 1.273392,8.766244 3.984996,12.333569 9.623491,12.660449 0.773988,0.04487 0.527599,1.008991 -0.448028,1.753138 -1.784117,1.360812 -5.634225,1.785921 -7.475246,0.825377 -0.408006,-0.212875 -1.456204,-1.033678 -2.329329,-1.824006 l -1.5875,-1.436961 -0.0673,3.728085 c -0.03701,2.050447 -0.258677,5.002269 -0.492583,6.559604 -0.233906,1.557336 -0.381158,3.705319 -0.327228,4.773296 0.08761,1.734887 0.219973,2.143558 1.242331,3.835618 1.604793,2.65602 1.218947,3.47562 -1.908404,4.05374 -2.049043,0.37879 -4.156223,-0.21278 -5.380015,-1.51038 l -0.864689,-0.91684 -0.798314,1.25881 c -2.152319,3.39386 -2.936341,8.31848 -1.557933,9.78572 1.280395,1.36292 3.782959,0.86623 9.080043,-1.80213 8.538432,-4.30116 15.121877,-10.4982 18.238857,-17.168365 2.22503,-4.761434 3.20561,-9.031669 3.02229,-13.161489 -0.21181,-4.771458 -1.73531,-6.78636 -6.25034,-8.266406 -3.439092,-1.127349 -4.571325,-1.817854 -5.594008,-3.411568 -1.496766,-2.332507 -1.957072,-4.912426 -1.300499,-7.289024 0.977599,-3.538612 7.297027,-10.943677 13.727587,-16.085884 12.1428,-9.710024 26.32119,-15.688342 42.86249,-18.072973 4.51377,-0.650715 14.4828,-0.785174 19.3323,-0.260748 13.0516,1.411406 25.04798,5.599778 35.17187,12.27978 3.83223,2.528604 7.52603,6.181324 9.35328,9.249259 2.67175,4.485835 3.55743,7.980183 3.13124,12.354043 -0.23708,2.433215 -0.39362,2.990601 -1.36327,4.854402 -2.09598,4.028742 -4.84119,6.300992 -8.41199,6.962734 -2.53115,0.469073 -4.25341,0.203273 -6.77316,-1.045311 -2.06464,-1.02307 -2.29385,-1.217707 -2.92461,-2.483489 -2.2111,-4.437094 1.76096,-9.485552 5.07416,-6.449227 0.89264,0.818039 0.98831,1.035738 0.98831,2.248959 v 1.343247 h 1.13761 c 1.35834,0 2.27746,-0.441338 3.39683,-1.631072 1.14742,-1.219553 1.67028,-2.355957 1.90047,-4.130552 0.74023,-5.706642 -2.9549,-10.657588 -9.63757,-12.912978 -1.88575,-0.636438 -2.33358,-0.689389 -4.60255,-0.544202 -4.98615,0.319053 -8.00074,1.641077 -11.27886,4.946254 -3.63287,3.662841 -5.02601,6.778749 -5.31665,11.8913 -0.11619,2.043654 -0.0359,2.933967 0.42956,4.7625 0.84702,3.327583 1.85127,5.165042 4.20532,7.694381 2.36941,2.545842 4.28771,4.927486 4.28771,5.323354 0,0.14862 0.54434,1.41189 1.20965,2.807266 1.78229,3.738047 2.0854,5.106216 2.092,9.442706 0.007,4.322653 -0.30091,5.546113 -2.14019,8.515483 -2.53681,4.09548 -7.24736,6.96871 -11.40745,6.95805 -4.22297,-0.0108 -7.78407,-1.35777 -10.04437,-3.79916 -3.05342,-3.29806 -3.72407,-7.26157 -1.79631,-10.61604 1.56778,-2.728065 3.9944,-3.809914 6.79877,-3.031065 3.02916,0.841282 4.75332,4.982055 2.96126,7.111805 -0.37674,0.44773 -0.85299,0.81405 -1.05834,0.81405 -0.60252,0 -0.43027,0.87785 0.35738,1.82133 0.58572,0.70159 0.98015,0.90341 1.98754,1.01696 1.05003,0.11835 1.53738,0.004 2.96232,-0.69797 2.86794,-1.41188 4.48536,-3.94776 4.81348,-7.546814 0.17342,-1.902188 -0.77385,-6.139131 -1.84527,-8.25347 -1.52693,-3.013248 -4.48503,-5.759682 -8.10427,-7.524353 -3.35721,-1.636914 -8.9585,-2.288824 -12.32905,-1.434926 -8.35697,2.117167 -14.17947,10.279001 -14.13285,19.811086 0.006,1.326207 0.181,3.899567 0.38781,5.718577 0.90735,7.98067 0.97995,9.25197 0.69256,12.1281 -0.55891,5.59342 -1.9047,8.84084 -4.90545,11.83696 -4.49707,4.49012 -10.68643,5.39571 -16.64798,2.43585 -2.07813,-1.03177 -3.71688,-2.59948 -4.60259,-4.40306 -0.59651,-1.21466 -0.7303,-1.83757 -0.71842,-3.34473 0.0191,-2.42081 0.43036,-3.75286 1.5697,-5.08392 2.37965,-2.78009 6.56934,-3.28789 9.20299,-1.11541 1.27315,1.05021 1.82575,2.12933 1.8742,3.65995 0.0476,1.50489 -0.79707,2.81653 -2.18364,3.39069 -1.4891,0.61662 -1.61354,0.78334 -1.30228,1.74465 0.38326,1.18367 1.39525,2.0349 2.4147,2.03111 2.41229,-0.009 5.58541,-1.59384 7.14835,-3.57039 1.39572,-1.76507 1.89507,-3.23409 1.88811,-5.55459 -0.005,-1.83429 -0.12383,-2.36972 -0.88697,-4.01345 -0.48434,-1.04324 -1.25253,-2.23386 -1.7071,-2.64584 -0.45456,-0.41198 -0.63808,-0.51092 -0.40783,-0.21988 0.23025,0.29104 0.50661,0.70776 0.61413,0.92604 0.20087,0.40779 -0.0514,0.13476 -1.77218,-1.91801 -2.70705,-3.2293 -9.59599,-4.24548 -15.54607,-2.29319 -2.22192,0.72903 -2.97551,1.12731 -4.83881,2.55733 -4.18121,3.20894 -6.38203,7.90953 -7.856,16.77915 -1.18471,7.12899 -2.1325,9.59582 -4.8142,12.53003 -1.73322,1.89642 -2.81765,2.58338 -5.23917,3.3189 -2.040148,0.61967 -4.516374,0.61083 -6.700109,-0.0239 -2.277513,-0.66201 -4.405319,-3.63327 -4.410459,-6.15875 -0.0031,-1.52973 0.448795,-2.47571 1.712898,-3.58561 0.850406,-0.74666 1.122399,-0.83302 2.623667,-0.83302 1.317513,0 1.830501,0.12239 2.404106,0.57359 0.826661,0.65025 1.456884,1.96677 1.462879,3.05593 0.0067,1.21794 0.346398,1.53578 1.244006,1.16398 1.712242,-0.70923 2.417802,-3.61245 1.392602,-5.73024 -0.50571,-1.04465 -0.839296,-1.35356 -2.070302,-1.91713 -1.980027,-0.90649 -4.740228,-1.08967 -6.685165,-0.44366 -1.921075,0.63808 -4.132311,2.85847 -4.864888,4.88503 -1.185082,3.27834 -0.356838,6.88551 2.147999,9.35496 1.370933,1.35157 1.779002,1.52962 4.862947,2.12186 3.824211,0.73439 7.542349,0.42042 10.496509,-0.88635 2.7905,-1.23437 6.55096,-6.09742 7.77982,-10.0609 l 0.45131,-1.45562 2.74087,0.0279 c 5.04629,0.0514 10.68708,1.33005 20.33565,4.60977 6.70044,2.27759 7.33299,2.38455 11.6885,1.9764 2.23556,-0.20948 2.10349,-0.30426 2.45035,1.75849 0.26913,1.6005 -0.71967,3.78352 -2.47058,5.45443 l -1.48181,1.41411 0.66146,0.5057 c 0.3638,0.27814 2.24861,1.35379 4.18846,2.39034 1.93986,1.03655 5.23335,3.00461 7.31889,4.37346 2.08553,1.36886 4.95493,3.01634 6.37645,3.66107 2.56202,1.162 4.07662,2.2523 4.07662,2.93462 0,1.15758 -2.21345,2.62345 -6.23133,4.12673 -0.79287,0.29665 -1.44159,0.63962 -1.44159,0.76216 0,0.12254 0.74414,0.81498 1.65365,1.53878 4.43347,3.52819 10.09383,10.19989 13.54562,15.96581 3.56774,5.95961 5.34203,10.47983 5.76851,14.69598 l 0.27269,2.69576 2.08315,-1.90201 c 2.76309,-2.52283 5.61383,-5.73041 7.00923,-7.88661 2.28849,-3.53621 4.1178,-8.69188 4.44806,-12.53623 0.32475,-3.78024 -0.95287,-8.06433 -2.82862,-9.48486 -2.08681,-1.58037 -5.76447,-1.9134 -8.08071,-0.73174 -0.96672,0.49318 -2.47506,1.97903 -3.14064,3.0938 -0.76099,1.2746 -2.27728,-1.17818 -2.43382,-3.93701 -0.15323,-2.70034 0.31615,-4.01267 2.06173,-5.76435 1.9895,-1.99646 3.65955,-2.62272 6.99403,-2.62272 5.64576,0 9.56917,2.7583 11.45169,8.05094 0.9464,2.66078 1.14249,4.4966 0.89781,8.4053 -0.13025,2.08062 -0.18894,3.83081 -0.13044,3.88932 0.1889,0.1889 1.67078,-3.23389 2.07007,-4.78137 1.3246,-5.13362 1.54987,-11.494 0.58405,-16.49023 -2.73757,-14.16151 -11.96084,-25.55631 -22.28487,-27.53163 -6.05514,-1.15853 -11.17869,0.66752 -13.22978,4.71516 -1.27692,2.51989 -1.00171,5.5981 0.63785,7.13422 1.64845,1.54445 4.30299,2.27242 5.16028,1.41512 0.20708,-0.20708 0.44809,-0.98092 0.53558,-1.71964 0.20171,-1.70308 0.82496,-3.0243 1.62982,-3.45505 0.90571,-0.48473 2.86833,-0.12556 3.85624,0.70571 1.61869,1.36205 2.61444,4.28139 2.10527,6.1723 -0.37632,1.39753 -2.40214,3.47019 -4.51081,4.61511 -1.22366,0.66439 -1.80309,0.79864 -3.83773,0.88922 -4.26978,0.19009 -7.0818,-0.81085 -10.19254,-3.62803 -1.26538,-1.14595 -1.93435,-2.00742 -2.4484,-3.15287 -1.79425,-3.99811 -1.66198,-8.62113 0.37127,-12.97673 1.32527,-2.83898 4.23939,-5.86716 6.86093,-7.12945 6.33328,-3.04955 15.4712,-1.5629 23.76875,3.86693 l 0.6177,0.40422 -0.4255,-1.01837 c -0.85927,-2.05654 -1.54513,-6.93555 -1.37584,-9.78746 0.18434,-3.10541 0.65672,-4.87312 1.97751,-7.40005 2.75767,-5.27596 7.8995,-8.09207 13.27279,-7.26933 6.02606,0.92269 10.25707,6.63456 8.6031,11.61419 -0.86512,2.60465 -3.38102,4.50676 -5.95727,4.50391 -1.64225,-0.002 -2.41268,-0.45691 -3.10885,-1.83642 -0.73206,-1.45061 -0.74874,-2.26783 -0.0691,-3.38262 0.40488,-0.66404 0.70597,-0.85989 1.32193,-0.85989 0.94975,0 0.99491,-0.29726 0.21488,-1.41437 -0.9238,-1.32301 -1.50356,-1.72366 -2.76878,-1.91339 -0.99362,-0.149 -1.4203,-0.0555 -2.67497,0.58615 -1.76368,0.90199 -2.64684,2.05953 -3.65439,4.78981 -0.67015,1.81594 -0.69989,2.09894 -0.57014,5.42395 0.10729,2.74947 0.29017,4.02252 0.84573,5.88718 1.0194,3.42144 2.50684,6.844 4.91481,11.30888 8.09676,15.01301 9.83609,27.82232 5.50634,40.55158 -1.86049,5.46973 -6.13745,12.71371 -9.99773,16.93333 -0.66564,0.7276 -1.44301,1.59879 -1.7275,1.93597 l -0.51724,0.61306 1.31384,-0.64447 c 3.28812,-1.61289 9.85943,-2.00179 12.67635,-0.75021 2.60959,1.15947 3.76401,2.44101 4.86799,5.40401 0.69181,1.85678 0.76691,4.76119 0.16074,6.21628 -0.50658,1.21603 -2.17547,2.96807 -2.82721,2.96807 -0.26607,0 -0.54891,-0.20836 -0.62852,-0.46303 -0.86659,-2.77213 -2.27548,-4.39376 -4.86573,-5.60045 -3.32161,-1.54741 -6.25499,-1.5449 -12.43541,0.0106 -6.55447,1.64965 -13.47103,5.4253 -19.57917,10.68795 -4.34859,3.74668 -6.21113,6.06927 -8.19133,10.21463 -2.07285,4.33933 -3.05637,9.29899 -2.45942,12.40237 l 0.22901,1.19062 0.62355,-1.84999 c 0.90133,-2.67413 1.57864,-4.12178 3.85495,-8.23931 2.67838,-4.84482 4.46582,-7.28816 7.66303,-10.47496 2.68991,-2.68113 8.00298,-6.56234 8.30812,-6.0691 0.0872,0.14095 0.14377,1.3789 0.12571,2.75098 -0.0955,7.25382 -4.81555,18.44987 -10.905,25.86676 -0.89607,1.0914 -1.62937,2.0564 -1.62954,2.14443 -6.2e-4,0.30587 2.78808,2.78033 4.51888,4.00968 2.44395,1.73588 4.45708,2.67621 7.51933,3.51224 2.44539,0.66763 2.88637,0.70936 5.82084,0.55083 3.81245,-0.20596 5.87301,-0.65924 8.48694,-1.86695 4.0571,-1.8745 6.25192,-3.97062 8.18932,-7.82107 1.3646,-2.71202 1.18074,-6.29504 -0.44419,-8.6568 -0.94548,-1.37422 -1.94947,-2.0443 -3.68777,-2.46131 -1.10494,-0.26507 -1.40922,-0.2352 -2.49449,0.24486 l -1.23605,0.54677 0.56442,0.73147 c 0.31042,0.40231 0.8803,1.18865 1.26639,1.74742 1.92739,2.78942 -0.29887,6.78926 -3.7788,6.78926 -3.02673,0 -5.38613,-1.34288 -6.67137,-3.79708 -0.61935,-1.18267 -0.71409,-1.67627 -0.71849,-3.74354 -0.004,-2.02035 0.0991,-2.60181 0.68208,-3.83646 2.07007,-4.38379 7.60291,-7.36134 12.28799,-6.6129 7.83152,1.25109 12.93638,7.64367 12.46452,15.60873 -0.45998,7.7645 -5.42324,14.08909 -13.9303,17.75112 -4.80877,2.07002 -10.51278,2.79549 -15.32371,1.94893 z m -175.176276,-7.3508 c 0,-0.0474 -0.327422,-0.37482 -0.7276042,-0.72761 l -0.7276041,-0.64143 0.641433,0.7276 c 0.5995163,0.68006 0.8137753,0.84894 0.8137753,0.64144 z M 131.53975,241.70732 c 5.13035,-1.30023 12.60888,-4.49141 16.14432,-6.88899 4.81192,-3.26323 8.80279,-8.35271 11.06553,-14.11165 1.47443,-3.75263 2.02814,-10.32156 1.20343,-14.27692 -0.5865,-2.81288 -2.32577,-6.53836 -3.93334,-8.42516 -1.82591,-2.14306 -4.42269,-4.19226 -6.52604,-5.1499 -2.28394,-1.03987 -4.37935,-0.96608 -6.02095,0.21202 -0.96519,0.69267 -1.07575,0.87789 -0.9423,1.5785 0.3962,2.0799 2.03774,4.45008 5.69485,8.22266 3.55127,3.66341 3.63793,3.78045 3.6344,4.90887 -0.007,2.18151 -0.0621,2.24185 -3.61794,3.94763 -3.78825,1.81728 -5.74634,3.06234 -8.5927,5.46375 -3.39165,2.86146 -4.98366,5.0767 -4.98366,6.93463 0,1.70731 2.57181,2.1622 5.19864,0.91951 1.7612,-0.83318 2.17024,-0.62408 1.57342,0.80432 -0.63611,1.52242 -1.41068,2.46482 -2.97685,3.62181 -1.97797,1.46121 -3.42979,2.07351 -4.93283,2.08039 -1.43844,0.007 -2.40687,-0.42002 -4.23146,-1.86399 -0.69742,-0.55194 -1.62579,-1.0821 -2.06304,-1.17814 -0.97935,-0.2151 -4.48502,0.53259 -5.92934,1.26461 -2.96122,1.50082 -4.89479,4.2704 -4.89479,7.01112 0,3.05301 1.31432,4.251 5.55625,5.0645 5.25655,1.00807 5.03322,1.01133 9.5744,-0.13957 z m 39.52757,-31.65012 c -0.0663,-0.32742 -0.19092,-1.30968 -0.27686,-2.18281 -0.44373,-4.50818 -3.0672,-10.0907 -7.61215,-16.198 -2.64018,-3.54775 -3.13109,-3.55943 -0.81099,-0.0193 2.10698,3.21494 4.50434,8.64584 8.06395,18.26782 0.32315,0.8735 0.80659,0.97405 0.63605,0.13229 z m -49.21166,-25.34621 c -1.59713,-3.10985 -1.9441,-5.13353 -1.34605,-7.85072 0.4085,-1.85602 0.57736,-2.17946 1.71448,-3.28392 0.69374,-0.67382 1.70384,-1.37117 2.24467,-1.54965 1.45258,-0.4794 4.09846,-0.12095 5.82979,0.78978 l 1.42097,0.74747 0.25524,-0.7322 c 0.54852,-1.57346 -0.9017,-3.14551 -3.70725,-4.0187 -5.08823,-1.58363 -9.13786,0.8174 -10.54644,6.25301 -0.72084,2.78169 -0.53987,4.70933 0.68139,7.25765 1.2451,2.5981 3.61727,5.02317 4.54539,4.64677 0.0311,-0.0126 -0.46043,-1.02937 -1.09219,-2.25949 z m 70.22427,-46.6542 c 0,-0.0549 -0.20836,-0.2633 -0.46302,-0.46302 -0.41964,-0.32911 -0.429,-0.31975 -0.0999,0.0999 0.34564,0.44072 0.56291,0.58088 0.56291,0.36312 z M 97.508962,118.31 c 7.936218,-3.81978 13.622768,-10.6065 16.085478,-19.197541 1.09648,-3.825002 1.61033,-7.387916 1.42967,-9.912911 -0.13666,-1.910082 -0.73167,-3.276956 -0.73167,-1.680825 0,1.880622 -3.3997,10.226953 -5.87487,14.422947 -3.21486,5.44992 -7.85728,11.34662 -12.076546,15.33936 -3.140908,2.97227 -3.045053,3.05672 1.167938,1.02897 z m -2.531109,0.5321 c 0.518152,-0.33485 0.86841,-0.33485 0.661458,0 -0.08994,0.14552 -0.364854,0.26276 -0.610927,0.26054 -0.385571,-0.003 -0.392555,-0.0395 -0.05053,-0.26054 z M 72.586658,103.91192 c 0.525372,-1.13709 1.836603,-3.39243 2.913846,-5.011861 2.304535,-3.464422 5.193348,-9.092243 5.948752,-11.589022 1.368443,-4.523007 1.754367,-9.805172 1.001871,-13.712681 l -0.331192,-1.719792 -0.17259,3.439584 c -0.177813,3.543644 -0.954685,8.52085 -1.693209,10.847916 -0.699982,2.205619 -3.297242,7.26137 -4.818868,9.380266 -2.07495,2.889412 -2.628423,3.81627 -3.207762,5.37179 -0.666958,1.79077 -1.334001,4.98781 -1.300576,6.23347 l 0.02616,0.97489 0.339173,-1.07355 c 0.186546,-0.59045 0.769024,-2.00391 1.294396,-3.14101 z m 70.657032,-1.01096 c -0.24451,-1.72745 -1.11278,-4.905604 -1.86131,-6.813022 -0.90767,-2.312936 -3.60819,-7.377617 -5.14934,-9.657291 -3.464,-5.123976 -9.34919,-9.918273 -15.98748,-13.024007 -2.54608,-1.191186 -5.74899,-2.481861 -5.86674,-2.364113 -0.0394,0.03936 1.04202,0.868592 2.40306,1.842737 5.97079,4.273488 10.41899,9.017678 18.15818,19.366468 1.95896,2.619513 4.15706,5.692863 4.88467,6.829667 0.7276,1.136801 1.70987,2.546941 2.18281,3.133631 0.47294,0.5867 0.85989,1.23405 0.85989,1.43857 0,0.20451 0.12047,0.37184 0.26771,0.37184 0.16353,0 0.20578,-0.43759 0.10855,-1.12448 z m 29.78624,-31.504084 c 0,-0.213902 -3.63414,-2.963105 -5.77619,-4.369653 -4.71876,-3.098499 -12.76624,-5.930301 -20.20489,-7.109832 -2.28894,-0.362951 -4.44991,-0.470106 -9.2085,-0.456617 -6.69355,0.01897 -9.99142,0.415496 -15.32335,1.842417 -2.47162,0.661449 -6.79154,2.377962 -7.05422,2.80298 -0.0782,0.126593 0.17793,0.108435 0.56927,-0.04035 0.39134,-0.148787 0.90537,-0.208999 1.14229,-0.133805 0.23691,0.07519 1.62017,-0.102368 3.0739,-0.394584 5.50803,-1.10717 18.53809,-0.975136 27.11711,0.274781 6.96129,1.014221 17.88319,4.226008 23.90433,7.029506 1.28922,0.600277 1.76025,0.748832 1.76025,0.555159 z M 8.6397878,61.096794 c 0.2984766,-0.465833 0.8713952,-2.144973 0.7673575,-2.24901 -0.1894513,-0.189452 -2.4065039,1.708244 -2.4875837,2.129258 -0.066211,0.343808 0.1020995,0.450481 0.7107805,0.450481 0.4386445,0 0.892895,-0.148828 1.0094457,-0.330729 z M 123.25014,53.622315 c 2.51507,-1.600729 5.96355,-3.795431 7.6633,-4.877116 3.56789,-2.270534 9.75369,-5.400377 13.01233,-6.583881 5.08494,-1.846798 11.11478,-3.202946 16.6536,-3.745497 7.46892,-0.731612 19.02869,-0.193735 25.93922,1.206955 1.35337,0.274313 -1.18463,-0.7189 -4.10093,-1.604849 -5.29133,-1.607461 -12.92954,-2.340093 -20.65436,-1.981097 -9.9652,0.463112 -18.08398,2.622725 -27.49482,7.313679 -4.63199,2.308872 -11.02534,6.480186 -12.85209,8.385292 -1.11322,1.160972 -3.49992,5.120517 -2.94397,4.884064 0.11268,-0.04792 2.26265,-1.39682 4.77772,-2.99755 z m -82.374505,0.922908 c 0.953552,-0.589328 4.09597,-4.531716 4.09597,-5.138687 0,-0.17604 -7.007849,1.858096 -8.672663,2.517374 -0.577814,0.228818 -0.584811,0.266305 -0.168334,0.901929 0.255621,0.390126 0.386931,0.987554 0.318915,1.450978 -0.06359,0.433285 0.01216,0.848027 0.168334,0.921648 0.615394,0.290097 3.430176,-0.141756 4.257778,-0.653242 z M 139.69243,40.260858 c 0.21829,-0.141064 0.27782,-0.256481 0.1323,-0.256481 -0.14553,0 -0.44318,0.115417 -0.66146,0.256481 -0.21828,0.141064 -0.27782,0.25648 -0.13229,0.25648 0.14552,0 0.44317,-0.115416 0.66145,-0.25648 z M 86.800516,224.77973 c -1.703372,-1.53148 -2.74984,-3.48762 -2.780406,-5.19734 l -0.02246,-1.25659 -2.267082,-1.8e-4 c -3.68745,-3e-4 -5.547066,0.77308 -7.137245,2.96826 l -0.74841,1.03315 -0.393118,-0.61174 c -0.961969,-1.49693 -0.728813,-5.25362 0.416423,-6.70955 0.305443,-0.38831 1.003119,-1.03038 1.550391,-1.42682 l 0.99504,-0.7208 -1.235083,-0.42425 c -0.679295,-0.23334 -1.61965,-0.50041 -2.089678,-0.59349 -1.393675,-0.27601 -3.653993,0.33774 -4.984725,1.35351 -0.658501,0.50265 -1.310682,0.84381 -1.44929,0.75815 -0.138607,-0.0857 -0.252014,-0.748 -0.252014,-1.47185 0,-2.55177 2.112799,-5.68366 4.806466,-7.12482 1.470847,-0.78693 1.967088,-0.90949 4.057076,-1.00197 l 2.381249,-0.10537 3.175,1.63707 3.175,1.63707 2.38125,-0.10992 c 2.269812,-0.10478 5.509381,-0.96597 8.188769,-2.17687 0.443885,-0.2006 1.876383,-0.81617 3.18333,-1.36793 2.718851,-1.14783 2.865371,-1.00048 -1.897522,-1.90827 -4.597858,-0.87633 -6.498082,-2.07394 -7.935031,-5.00101 -0.687731,-1.40092 -0.745492,-1.75609 -0.741889,-4.5619 0.0044,-3.43549 0.300682,-4.59619 2.059833,-8.06979 1.599782,-3.15893 4.75277,-6.18995 8.373937,-8.05001 1.492571,-0.76668 2.806313,-1.29314 2.919433,-1.1699 0.11313,0.12324 0.40469,1.17657 0.64792,2.34074 0.57192,2.73738 1.57297,5.82883 2.64918,8.18128 1.97035,4.30692 6.19407,8.5992 10.67381,10.84708 0.76937,0.38607 1.33637,0.80303 1.26001,0.92659 -0.13209,0.21371 -0.8002,0.39123 -2.72502,0.72405 -0.47294,0.0818 -0.85989,0.1694 -0.85989,0.19472 0,0.0253 0.81189,0.87582 1.8042,1.89 1.44291,1.47472 1.86986,2.10474 2.13211,3.14624 0.42058,1.67028 0.18196,3.03972 -0.71243,4.08855 -0.64756,0.75939 -1.0064,0.89125 -4.06039,1.49207 -1.84252,0.36248 -4.16424,0.91015 -5.15937,1.21703 -2.08346,0.64251 -6.866608,2.94827 -8.623498,4.15705 -2.748881,1.89128 -6.811867,7.6799 -6.811867,9.705 0,0.86659 -0.798672,1.72245 -1.746556,1.87162 -0.693104,0.10907 -1.034325,-0.0631 -2.197448,-1.10886 z M 22.910247,171.27231 c -3.037775,-4.13828 -4.21286,-6.20782 -7.08348,-12.47529 -1.133843,-2.47554 -2.760608,-4.78399 -4.287782,-6.08454 -0.964183,-0.8211 -2.0917266,-1.58714 -2.3395627,-1.58947 -0.1021497,-9.6e-4 -0.5565381,0.53721 -1.0097518,1.19594 -1.3007242,1.89054 -2.8964524,3.29667 -4.7576462,4.19237 -1.5176819,0.73039 -1.9840888,0.82681 -3.96874979,0.82048 -1.99491411,-0.006 -2.44930981,-0.10501 -4.02259661,-0.87323 -2.8428972,-1.38816 -3.914903,-3.03078 -3.914903,-5.99876 0,-1.9681 0.4857076,-3.3884 1.3095237,-3.82929 0.3083146,-0.16501 1.1209575,-0.26389 1.8058732,-0.21973 1.2082476,0.0779 1.2637707,0.11926 1.8660313,1.3908 0.7660656,1.61738 1.2208719,1.9776 2.51044469,1.98835 1.36855126,0.0114 1.92463058,-0.33865 2.62757491,-1.65408 0.5199136,-0.97292 0.5958186,-1.50486 0.5933779,-4.15834 -0.00569,-6.18254 -2.19335354,-9.81486 -6.6117842,-10.97797 -2.0517612,-0.54011 -3.9552497,-0.31911 -4.763556,0.55307 -0.3194478,0.34469 -0.6582526,0.54927 -0.7528997,0.45462 -0.094647,-0.0946 -0.1709227,-0.83685 -0.1695007,-1.64934 0.0086,-4.90896 5.1684539,-8.1986 9.5750172,-6.10448 0.53825436,0.25579 1.04426996,0.39945 1.1244791,0.31924 0.0802092,-0.0802 0.14321996,-0.92966 0.14002403,-1.88767 -0.007049,-2.11315 -0.59047883,-3.53031 -1.94188213,-4.71685 -1.0283686,-0.90292 -1.385805,-1.04119 -3.4578725,-1.33758 -0.7135109,-0.10207 -1.3431527,-0.32315 -1.3992038,-0.49131 -0.1729785,-0.51893 1.5818973,-2.26774 2.8293379,-2.81955 1.678014,-0.74227 4.2394299,-0.72148 5.9598062,0.0484 2.4502411,1.09645 3.6362939,2.73783 4.2050167,5.8193 l 0.32236,1.74662 0.8451657,-1.69133 c 0.4648411,-0.93023 0.8451656,-2.03332 0.8451656,-2.45131 0,-1.11541 -0.6253011,-2.42417 -1.4791022,-3.09577 -0.6145694,-0.48342 -0.6798725,-0.63356 -0.3627913,-0.83412 0.5854704,-0.37032 0.7793188,-0.32528 2.8305108,0.65773 2.1964017,1.0526 4.0394527,2.6466 5.0459967,4.36414 0.606487,1.03489 0.705122,1.50144 0.702419,3.32251 -0.003,2.01035 -0.08577,2.30774 -1.620853,5.82272 -2.183736,5.00024 -2.288094,5.38422 -2.154588,7.92785 0.09427,1.79612 0.276133,2.5144 1.048294,4.14035 1.576393,3.31944 5.235094,6.67173 9.464622,8.67198 0.885713,0.41888 1.807581,0.92432 2.048597,1.12321 0.241016,0.19888 1.683847,2.26661 3.206291,4.59494 3.178953,4.8617 5.260925,7.45108 8.257662,10.2702 1.164409,1.09539 2.116933,2.03068 2.11672,2.07842 -2.13e-4,0.0477 -1.339666,0.0884 -2.976562,0.0903 -2.883154,0.003 -3.040669,0.0342 -5.039604,0.98528 -1.134886,0.53999 -2.929078,1.58022 -3.987093,2.31163 -1.058016,0.7314 -1.994567,1.32983 -2.081225,1.32983 -0.08666,0 -0.580452,-0.5761 -1.097321,-1.28021 z M 56.877855,39.700545 C 53.68206,39.440138 52.366196,39.18155 52.324052,38.80565 c -0.01631,-0.145521 1.172158,-0.752074 2.641052,-1.347896 4.869202,-1.975075 7.941652,-4.082968 9.991526,-6.854811 0.80688,-1.091063 1.567736,-1.983751 1.690793,-1.983751 0.123056,0 0.443236,0.327422 0.711511,0.727604 0.773253,1.153452 0.663771,5.900636 -0.196788,8.532812 l -0.648769,1.984375 -3.428698,0.03147 c -1.885785,0.01731 -4.678856,-0.0704 -6.206824,-0.194905 z"
       id="path1" /></g></svg>
