<?xml version="1.0" encoding="UTF-8" standalone="no"?>
<!-- Created with Inkscape (http://www.inkscape.org/) -->

<svg
   width="241.81078mm"
   height="241.8183mm"
   viewBox="0 0 241.81077 241.8183"
   version="1.1"
   id="svg1"
   xml:space="preserve"
   inkscape:version="1.4 (86a8ad7, 2024-10-11)"
   sodipodi:docname="Cerber.svg"
   xmlns:inkscape="http://www.inkscape.org/namespaces/inkscape"
   xmlns:sodipodi="http://sodipodi.sourceforge.net/DTD/sodipodi-0.dtd"
   xmlns="http://www.w3.org/2000/svg"
   xmlns:svg="http://www.w3.org/2000/svg"><sodipodi:namedview
     id="namedview1"
     pagecolor="#ffffff"
     bordercolor="#000000"
     borderopacity="0.25"
     inkscape:showpageshadow="2"
     inkscape:pageopacity="0.0"
     inkscape:pagecheckerboard="0"
     inkscape:deskcolor="#d1d1d1"
     inkscape:document-units="mm"
     inkscape:zoom="0.53858859"
     inkscape:cx="-353.70226"
     inkscape:cy="257.15361"
     inkscape:window-width="1828"
     inkscape:window-height="1057"
     inkscape:window-x="3924"
     inkscape:window-y="-8"
     inkscape:window-maximized="1"
     inkscape:current-layer="layer1" /><defs
     id="defs1" /><g
     inkscape:label="Warstwa 1"
     inkscape:groupmode="layer"
     id="layer1"
     transform="translate(-244.35269,-170.01957)"><path
       style="fill:#000000"
       d="m 354.28063,411.47122 c -25.76955,-2.5579 -48.32225,-12.18847 -67.8958,-28.99323 -20.14819,-17.29812 -34.33314,-41.62053 -39.6367,-67.96363 -6.37462,-31.66314 0.0936,-64.47171 17.97151,-91.1556 4.53812,-6.77345 8.70769,-11.78567 15.20087,-18.27289 6.84861,-6.84233 11.89087,-10.99782 18.93897,-15.60822 24.27468,-15.8789 52.88428,-22.22033 82.81458,-18.35619 18.04907,2.33022 35.46306,8.75122 50.59988,18.65751 10.99115,7.19316 21.98119,17.51745 29.83006,28.02303 13.96147,18.68719 21.89687,39.90682 23.83242,63.72896 0.46349,5.70445 0.18122,18.67103 -0.51917,23.84863 -2.03081,15.0128 -5.72794,27.12873 -12.2316,40.08437 -12.88361,25.66482 -33.96501,45.34616 -61.2168,57.15126 -10.47724,4.5386 -24.91047,8.01974 -37.27852,8.99117 -4.61288,0.36232 -16.16881,0.28578 -20.4097,-0.13517 z m 23.29239,-9.25613 c 18.76352,-2.17671 36.45358,-8.83087 51.58292,-19.40306 23.57703,-16.47532 39.68376,-40.82664 45.63679,-68.99694 2.79037,-13.20433 3.13118,-28.04192 0.95341,-41.50842 -3.00291,-18.56888 -11.27471,-36.97429 -23.54285,-52.38473 -4.18687,-5.25927 -12.43983,-13.2133 -18.57375,-17.901 -9.6307,-7.36001 -21.47932,-13.57802 -33.30235,-17.47667 -6.6378,-2.18881 -15.97072,-4.15671 -23.8125,-5.02099 -4.92482,-0.54279 -19.64012,-0.46145 -24.47396,0.13527 -25.18024,3.10845 -47.31539,13.75019 -65.57966,31.5282 -15.50788,15.09501 -25.96762,34.47014 -30.71045,56.88659 -2.36327,11.16973 -2.90534,24.58004 -1.47056,36.38021 2.17346,17.87531 8.92808,35.51967 19.28367,50.37265 1.8692,2.68099 5.99037,7.89806 7.58367,9.60033 l 1.03257,1.1032 -0.49993,1.95473 c -0.89779,3.51032 -0.92848,4.19061 -0.23534,5.21728 0.33855,0.50145 1.01721,1.14632 1.50814,1.43304 0.89165,0.52075 0.89514,0.52069 3.30639,-0.0561 1.32759,-0.31757 2.55347,-0.57549 2.72417,-0.57315 0.17071,0.002 0.66757,0.36145 1.10413,0.79801 0.43656,0.43657 0.96252,0.79375 1.1688,0.79375 0.20627,0 2.03113,1.3143 4.05525,2.92066 18.16177,14.41343 38.57236,22.57228 61.49165,24.58044 4.039,0.35389 16.37801,0.12618 20.76979,-0.3833 z m -27.90963,-25.69412 c 0.008,-3.0193 1.02278,-6.02144 2.67096,-7.89861 0.96616,-1.1004 0.85276,-1.16265 -0.529,-0.29037 -1.89125,1.19388 -3.65902,3.89806 -4.36925,6.68363 l -0.32439,1.2723 -2.57385,0.44107 c -1.41562,0.24259 -2.94374,0.57001 -3.39581,0.7276 -1.33966,0.46701 -1.35664,0.44032 -1.20619,-1.89628 0.16448,-2.55448 0.7736,-4.30267 2.2908,-6.57469 0.60169,-0.90105 1.06171,-1.66852 1.02226,-1.7055 -0.0394,-0.037 -0.57848,0.17251 -1.19784,0.46552 -1.79948,0.85132 -3.63819,3.59082 -4.32027,6.43679 -0.17291,0.72145 -0.3514,1.454 -0.39666,1.62787 -0.0453,0.17387 -0.53502,0.39394 -1.08837,0.48905 -0.55335,0.0951 -1.59325,0.3398 -2.31088,0.54376 -2.12975,0.60532 -2.09624,0.63282 -1.88513,-1.54738 0.52694,-5.44181 4.23093,-11.4014 7.68771,-12.36924 0.81029,-0.22686 2.01432,-0.28958 3.59417,-0.18723 3.45836,0.22406 5.63927,-0.44829 9.56329,-2.94823 1.16653,-0.74318 1.63378,-1.23988 2.02842,-2.15624 1.3179,-3.06014 6.31976,-21.14194 7.44681,-26.9203 l 0.32233,-1.65259 -1.97576,-2.31616 c -5.08766,-5.96422 -6.85517,-10.09605 -6.87632,-16.07449 -0.0129,-3.6475 0.38192,-5.8032 1.71088,-9.3413 1.03085,-2.74442 0.74583,-2.72919 -0.9881,0.0528 -3.89981,6.257 -4.34031,13.77424 -1.17497,20.05128 0.78041,1.54759 4.05253,6.01712 5.5541,7.58656 l 0.84846,0.88682 -0.45439,3.21111 c -0.24991,1.76612 -0.51159,3.26832 -0.5815,3.33824 -0.23721,0.23721 -3.42051,-0.73488 -5.88279,-1.79642 -8.35196,-3.60073 -16.01229,-10.38189 -22.08805,-19.55303 -1.80642,-2.72672 -3.84785,-6.59199 -4.69278,-8.88537 l -0.5053,-1.3715 0.16198,1.45521 c 0.38626,3.47025 2.42614,9.08792 4.63427,12.7624 2.90749,4.83828 7.30914,9.51671 12.24162,13.01138 l 2.5815,1.82899 -10.71196,10.73872 c -5.89158,5.90629 -10.89955,11.11492 -11.12883,11.57472 -0.22928,0.4598 -0.53479,1.88855 -0.67892,3.175 -0.24347,2.17316 -0.32607,2.39819 -1.16505,3.17392 -0.69055,0.63848 -1.39276,0.94218 -2.98466,1.29085 -1.14491,0.25076 -2.22613,0.57062 -2.40272,0.7108 -0.17658,0.14019 -0.71236,1.21309 -1.19062,2.38423 -0.90926,2.22654 -2.38999,4.18298 -3.66485,4.84223 -0.48952,0.25314 -1.54511,0.38801 -3.03699,0.38801 -1.26318,0 -3.47775,0.24272 -4.94773,0.54228 -1.6514,0.33654 -2.75494,0.44839 -2.90852,0.29481 -0.15358,-0.15358 -0.13164,-1.03695 0.0578,-2.32822 0.31967,-2.1786 1.48429,-5.08797 2.44768,-6.1146 1.128,-1.20205 0.22292,-0.84036 -1.2378,0.49466 -1.47356,1.34675 -2.8263,3.55781 -3.55729,5.81439 -0.30412,0.93884 -0.34107,0.95897 -2.61623,1.42532 -1.26927,0.26017 -2.64965,0.53189 -3.06753,0.60382 l -0.75977,0.13079 0.11313,-2.61444 c 0.12862,-2.9726 0.61028,-4.33294 2.35007,-6.63728 0.58182,-0.77061 0.98973,-1.40112 0.90646,-1.40112 -0.73023,0 -2.44921,1.33155 -3.41812,2.64771 -1.1147,1.51422 -2.26846,4.26923 -2.26846,5.41677 0,0.48457 -0.29431,0.61289 -2.36642,1.03174 -1.30153,0.26308 -2.50157,0.39482 -2.66674,0.29273 -0.62986,-0.38927 0.61175,-6.38044 1.86762,-9.01188 0.93142,-1.95163 2.92388,-3.87039 5.22638,-5.03308 1.62166,-0.81888 1.35097,-0.79862 7.86568,-0.58875 2.5451,0.082 2.71868,0.0511 4.36563,-0.77659 0.94333,-0.47408 2.15217,-1.24799 2.68632,-1.71979 1.03377,-0.9131 3.64153,-5.80047 12.31388,-23.07823 l 4.38024,-8.72667 -0.27439,-1.47546 c -0.15092,-0.81151 -0.77734,-2.7781 -1.39206,-4.37021 -2.27726,-5.8981 -2.44565,-6.76036 -2.47705,-12.68433 -0.0326,-6.15943 0.20581,-7.62067 2.22357,-13.62604 2.71772,-8.0886 3.3099,-11.74563 2.52733,-15.60777 -0.24535,-1.21087 -0.75021,-2.80173 -1.12191,-3.53524 -0.93733,-1.84973 -3.24314,-4.18108 -5.12987,-5.1867 l -1.58432,-0.84443 0.68334,-0.81211 c 1.72384,-2.04866 2.77053,-5.34837 2.75153,-8.67416 l -0.0113,-1.98438 -0.45455,1.74128 c -1.00348,3.84409 -4.0847,7.30538 -8.29705,9.32049 -1.35448,0.64796 -3.49229,1.66831 -4.75068,2.26745 -2.79998,1.3331 -4.65777,3.19747 -5.50376,5.52323 -0.30418,0.83626 -0.74874,2.05159 -0.98791,2.70074 -0.59146,1.60536 -2.55029,3.51349 -4.17522,4.06716 -2.7476,0.9362 -4.9833,0.39885 -6.8258,-1.64059 -1.64436,-1.82011 -2.17305,-3.22989 -1.37809,-3.67478 0.35484,-0.19857 0.35908,-0.33891 0.0344,-1.13762 -0.20369,-0.50111 -0.45158,-1.743 -0.55085,-2.75976 l -0.18051,-1.84866 0.7414,0.69702 c 1.27311,1.19691 4.09776,2.868 4.84777,2.868 1.31462,0 2.05314,-0.95009 4.22685,-5.43781 1.15214,-2.37862 2.50881,-4.78304 3.01484,-5.34315 1.14339,-1.26559 0.9574,-1.80994 -0.53563,-1.56766 -1.48468,0.24093 -2.89922,1.3635 -4.71026,3.738 -2.20994,2.89754 -3.36804,3.67112 -5.69255,3.80246 -2.18976,0.12374 -3.42601,-0.24467 -4.62937,-1.37959 -0.82954,-0.78236 -1.45277,-2.11855 -1.13592,-2.4354 0.0725,-0.0725 0.48561,0.22193 0.918,0.65432 1.41488,1.41488 3.8483,1.3562 5.62115,-0.13555 0.50896,-0.42826 1.45007,-1.99353 2.52981,-4.20763 2.3663,-4.85226 3.93712,-6.20311 7.21816,-6.20735 0.62803,-8.1e-4 1.37217,0.12178 1.65364,0.27242 0.99739,0.53378 0.52918,-0.29882 -1.06388,-1.89188 -0.93618,-0.93619 -2.19789,-1.86599 -3.10885,-2.29105 -1.40082,-0.65363 -1.81137,-0.71565 -4.75494,-0.71828 -4.27861,-0.004 -4.46081,0.12216 -5.39152,3.7286 -0.96417,3.73606 -0.82293,3.55685 -1.95945,2.48622 -1.12349,-1.05835 -1.94238,-2.5119 -2.38494,-4.23333 -0.29726,-1.15625 -0.336,-1.19063 -1.34198,-1.19063 -0.95256,0 -1.0895,0.0958 -1.7025,1.19063 -0.59125,1.056 -0.66662,1.49626 -0.66662,3.89374 v 2.70312 l -1.28734,-1.24791 c -1.33753,-1.29656 -2.54206,-3.43547 -2.54653,-4.5219 -10e-4,-0.34549 -0.41378,-1.53887 -0.91636,-2.65196 -1.55244,-3.43831 -2.4984,-8.27416 -1.98339,-10.13934 0.51766,-1.87482 0.73805,-1.93665 6.56684,-1.84235 2.85662,0.0462 6.17613,0.006 7.37668,-0.0899 l 2.18281,-0.17392 0.003,-1.10073 c 0.003,-1.28015 0.97248,-3.49996 1.88063,-4.30607 1.51024,-1.34056 5.11961,-2.8849 8.25899,-3.53376 1.38032,-0.28529 1.57347,-0.40728 1.82963,-1.15555 0.69426,-2.02805 3.51817,-7.12199 5.15688,-9.30228 2.25942,-3.00617 5.43467,-6.21963 8.05877,-8.15575 1.12004,-0.82639 2.07923,-1.50253 2.13154,-1.50253 0.0523,0 -0.17891,1.08691 -0.51382,2.41536 -0.93401,3.70482 -1.2247,6.78812 -1.05151,11.15338 0.0853,2.1513 0.22615,4.0263 0.31291,4.16667 0.24854,0.40215 3.10127,-1.68311 4.61078,-3.37033 0.75423,-0.84303 1.78036,-2.20318 2.28028,-3.02255 0.99229,-1.62639 2.23192,-4.69653 2.23192,-5.52773 0,-0.92904 0.44414,-0.55793 1.03633,0.86593 1.8215,4.3796 2.37402,10.10506 1.37838,14.28319 -0.52674,2.21045 -1.83733,5.26987 -2.40879,5.62305 -0.62043,0.38345 -0.18875,0.66512 1.01934,0.66512 0.70941,0 1.64324,0.0707 2.07518,0.15706 l 0.78533,0.15707 -1.87674,1.91586 c -1.03221,1.05373 -2.29346,2.61667 -2.80278,3.4732 -0.83566,1.40533 -0.92329,1.73885 -0.89784,3.41717 0.0341,2.25156 0.88751,4.65401 2.66769,7.5102 2.12932,3.41634 5.48119,6.54696 7.55921,7.06022 0.93269,0.23037 0.93167,0.22832 1.25818,2.53054 0.35913,2.53218 1.24031,4.40363 2.8995,6.15798 1.64196,1.73613 3.88704,2.82162 6.22383,3.00919 l 1.63407,0.13117 -0.89374,2.0672 c -1.02132,2.36231 -2.02228,6.09088 -2.43851,9.08346 -0.31043,2.2319 -0.34014,7.89023 -0.0537,10.21509 l 0.17933,1.45521 0.20188,-1.85208 c 0.31991,-2.93509 1.41224,-8.00689 2.31072,-10.72897 1.05348,-3.19167 3.28683,-7.79865 4.92684,-10.16315 1.10079,-1.58705 1.44043,-1.889 2.45301,-2.18073 0.64643,-0.18624 1.26656,-0.42986 1.37807,-0.54137 0.11151,-0.11151 0.66888,-1.71339 1.23859,-3.55972 1.24734,-4.04235 1.91094,-5.23308 3.98827,-7.15633 1.22064,-1.13009 2.00188,-1.6057 3.38557,-2.06111 5.13257,-1.68925 7.18751,-3.8119 8.16799,-8.43714 0.76172,-3.59324 0.3232,-10.50159 -0.92488,-14.57044 l -0.44637,-1.45521 0.1139,3.8984 c 0.23419,8.01573 -1.29793,14.14504 -4.03101,16.12623 -0.5697,0.41297 -1.81574,0.99174 -2.76899,1.28617 -4.57384,1.41272 -8.17532,5.56737 -9.57704,11.04806 -0.28051,1.09675 -0.5527,2.03679 -0.60487,2.08896 -0.0522,0.0522 -1.51042,0.51551 -3.24054,1.02964 -2.69402,0.80056 -3.45584,0.92297 -5.30592,0.85261 -1.90913,-0.0726 -2.29359,-0.17579 -3.30729,-0.88765 -0.63087,-0.44303 -1.41485,-1.2899 -1.74216,-1.88194 -0.5707,-1.03227 -2.27796,-6.96309 -2.06556,-7.17549 0.0565,-0.0565 0.85688,0.48657 1.77859,1.20685 2.30117,1.79828 3.22731,2.22121 5.21316,2.38061 1.55887,0.12514 1.69327,0.0958 1.52854,-0.33346 -0.31553,-0.82227 -0.77206,-2.80051 -0.66805,-2.89483 0.0551,-0.0499 1.04593,0.19276 2.20195,0.5393 1.15601,0.34655 2.23892,0.63008 2.40645,0.63008 0.18842,0 0.42903,-1.02652 0.63076,-2.69103 0.5727,-4.72531 2.26241,-7.92407 4.99522,-9.45633 0.40164,-0.2252 0.36525,-0.34095 -0.34469,-1.09626 -1.49942,-1.59523 -3.56471,-1.99348 -5.55625,-1.07143 -2.45044,1.13452 -3.6001,3.36074 -3.81972,7.39654 l -0.14903,2.73878 -2.75244,-2.4361 c -3.08785,-2.73296 -2.96586,-2.70054 -5.94423,-1.5798 l -1.55291,0.58435 0.11589,2.20812 0.1159,2.20811 -1.05018,-0.58528 c -1.51927,-0.84673 -3.99203,-3.37231 -5.31021,-5.42366 -2.00466,-3.11964 -2.74627,-5.94337 -2.04328,-7.77991 0.49147,-1.28391 3.54622,-4.17028 6.75591,-6.3835 3.29356,-2.27104 3.51506,-2.53113 4.66036,-5.47218 l 0.56669,-1.45521 -0.69633,0.65363 c -0.38299,0.35949 -1.11358,1.28223 -1.62354,2.05052 -0.50997,0.76829 -1.06032,1.39689 -1.223,1.39689 -0.60982,0 -2.55818,-2.35894 -2.7374,-3.31426 -0.43098,-2.29735 0.30379,-3.87717 3.80575,-8.18269 1.65378,-2.03325 1.85512,-2.88762 0.41321,-1.75341 -0.96736,0.76092 -1.16224,0.69127 -0.86609,-0.30953 1.13163,-3.82414 1.82724,-11.86468 1.299,-15.0151 -0.31808,-1.89701 -1.12429,-4.07756 -1.62112,-4.38462 -0.60925,-0.37654 -0.16309,-0.70265 0.78698,-0.57522 1.56905,0.21045 2.88487,0.95023 4.6845,2.63368 2.82154,2.63942 4.65996,5.94939 5.59901,10.08071 l 0.46961,2.06602 1.19063,-0.15879 c 3.11326,-0.41519 6.0345,-0.53672 8.24324,-0.34294 1.33207,0.11687 2.44575,0.1813 2.47483,0.14318 0.0291,-0.0381 1.32143,-1.67106 2.87188,-3.62874 3.62404,-4.57593 4.00484,-5.34441 4.00484,-8.08224 0,-1.92331 -0.0903,-2.29313 -0.98832,-4.04835 l -0.98832,-1.93168 1.63924,0.87335 c 3.11445,1.65929 5.31438,4.42076 6.59763,8.28168 0.51221,1.54108 0.61586,2.40743 0.61726,5.15937 0.002,3.77652 -0.56005,6.34642 -2.13153,9.74769 -0.50261,1.08782 -0.88309,1.99732 -0.84552,2.02112 0.0376,0.0238 0.66362,0.3805 1.39122,0.79267 3.00685,1.70332 4.38752,3.09313 6.84593,6.89121 6.88848,10.64226 9.28333,21.11867 8.0981,35.42556 -0.14363,1.73371 -0.21529,3.19806 -0.15924,3.25411 0.1415,0.14149 1.15275,-5.39896 1.48319,-8.12611 0.40168,-3.31504 0.34696,-11.57168 -0.0991,-14.95568 -0.84445,-6.4061 -2.84954,-12.16236 -5.86658,-16.84192 l -1.13949,-1.76739 2.03319,-1.94054 c 1.11825,-1.06729 2.59874,-2.34597 3.28996,-2.84152 1.17969,-0.84573 1.55797,-1.34045 1.02496,-1.34045 -0.44838,0 -2.18056,-3.72054 -2.55514,-5.48818 -0.80933,-3.81923 -0.38321,-7.54231 1.24938,-10.91598 1.1168,-2.30783 3.94302,-5.11478 6.47105,-6.42694 1.03993,-0.53977 1.94446,-0.9814 2.01007,-0.9814 0.0656,0 -0.18993,0.62481 -0.56786,1.38847 -0.60361,1.21967 -0.6863,1.71021 -0.68013,4.0349 0.006,2.3678 0.0937,2.8475 0.83069,4.55626 0.9538,2.21161 2.69008,4.72392 4.44004,6.42454 l 1.22516,1.19062 2.52905,0.13229 c 1.39097,0.0728 2.55732,0.0728 2.59188,0 0.26414,-0.55609 -1.79484,-13.10726 -2.41556,-14.72482 -0.30173,-0.7863 2.96081,1.95278 5.59538,4.69763 3.54556,3.69396 5.31506,6.3343 7.26756,10.84422 0.72842,1.6825 0.79936,1.75517 2.04171,2.09136 2.04095,0.55231 4.57631,1.77558 5.85969,2.82721 1.44579,1.18471 2.16073,2.674 2.16844,4.51701 l 0.006,1.38906 1.91823,0.0159 c 9.62573,0.0799 13.85084,0.2942 14.61764,0.74125 1.27151,0.7413 1.49754,1.44472 1.37204,4.2699 -0.13043,2.93602 -0.57269,4.23189 -2.2067,6.46582 -0.63202,0.86407 -1.15029,1.81657 -1.15171,2.11667 -0.006,1.21523 -1.26558,3.22672 -3.03836,4.85115 -0.98895,0.90619 -1.87016,1.64688 -1.95826,1.64599 -0.0881,-9e-4 -0.17258,-1.04269 -0.18775,-2.31511 -0.019,-1.59125 -0.18635,-2.72647 -0.53618,-3.63639 l -0.50861,-1.32292 -1.385,-0.0801 c -0.96598,-0.0558 -1.41531,0.0242 -1.48518,0.26458 -0.5984,2.05891 -1.16617,3.04081 -2.61303,4.51903 l -1.61154,1.64646 -0.19537,-2.14437 c -0.38804,-4.25919 -0.58259,-4.53529 -3.64073,-5.16694 -4.11287,-0.8495 -9.71926,1.53006 -11.43482,4.85338 -0.74876,1.45046 -0.62034,1.68644 0.42047,0.7726 1.19826,-1.05209 3.50645,-1.72993 5.27065,-1.54784 2.59383,0.26773 4.25463,1.26878 7.29588,4.39758 2.22507,2.28913 2.96857,2.89331 3.7348,3.03498 0.52616,0.0973 1.18101,0.10557 1.4552,0.0184 1.09142,-0.34698 -1.85135,1.98458 -2.99791,2.37525 -2.08608,0.7108 -2.45052,0.59934 -5.09205,-1.55741 -2.08723,-1.70417 -4.07955,-2.77451 -4.4587,-2.39536 -0.0618,0.0618 0.41785,0.74318 1.0659,1.51418 0.64805,0.771 1.75439,2.2198 2.45853,3.21957 1.21501,1.72512 2.4753,2.80928 3.26818,2.81146 0.198,5.4e-4 1.13833,-0.54311 2.08963,-1.20811 1.84754,-1.29152 2.16831,-1.25955 2.17654,0.21691 0.002,0.40018 0.12049,0.72761 0.26281,0.72761 0.30903,0 3.17271,-3.42075 3.19942,-3.8218 0.0102,-0.15358 0.12092,-0.0411 0.24598,0.24992 0.32423,0.75452 0.31241,2.52908 -0.0274,4.11354 -0.21292,0.9928 -0.21292,1.44052 0,1.65344 0.47932,0.47932 0.33235,2.11089 -0.30333,3.36742 -1.19027,2.35277 -4.38374,3.91657 -7.36235,3.60524 -2.76687,-0.28919 -4.62971,-1.47747 -6.81727,-4.34863 -3.61032,-4.73854 -5.85006,-5.98672 -13.10389,-7.3027 -4.12573,-0.74848 -5.31058,-1.29603 -7.02904,-3.2483 -2.36254,-2.68399 -3.89016,-7.10988 -4.18586,-12.12751 l -0.17153,-2.91041 -0.33106,1.71979 c -0.44748,2.3245 -0.42975,5.82023 0.0409,8.06979 1.06935,5.11082 5.55032,10.57469 9.68943,11.81479 l 0.99863,0.2992 -0.47884,0.95446 c -1.30644,2.60407 -1.74087,4.5581 -1.74164,7.83363 -6.5e-4,2.78865 0.0924,3.4593 0.76503,5.51138 0.82733,2.5242 2.62331,5.73566 4.383,7.83741 1.58278,1.89047 3.76247,3.5307 8.87414,6.6779 12.39956,7.63426 17.03862,10.87427 21.09001,14.72969 6.28516,5.98116 10.87912,13.6675 12.90975,21.59987 0.33527,1.30968 0.79966,2.53939 1.03199,2.73269 0.92681,0.77108 4.43107,-0.31814 6.06877,-1.88635 1.94128,-1.85891 3.14678,-5.52778 2.85342,-8.68424 -0.52349,-5.6326 -3.95774,-11.60728 -10.64242,-18.51499 -5.49729,-5.68071 -7.00493,-7.64595 -9.11328,-11.8794 -3.66935,-7.36786 -3.84813,-15.73375 -0.46283,-21.65821 2.61869,-4.58286 7.43225,-7.45026 12.49438,-7.44282 4.278,0.006 7.87798,1.57953 11.13678,4.86689 1.16755,1.17779 2.46315,2.78166 2.87911,3.56415 0.41595,0.7825 0.65131,1.37159 0.52301,1.30909 -4.89561,-2.38472 -6.98169,-2.96428 -10.68431,-2.96834 -2.26026,-0.002 -3.05712,0.10741 -4.27479,0.58953 -4.75613,1.88313 -6.35228,8.63748 -3.54254,14.9908 1.14378,2.5863 2.96045,4.82268 8.59873,10.58537 7.33028,7.49201 10.06576,10.96433 12.56585,15.95065 2.24825,4.48405 3.28522,8.45799 3.50136,13.41809 0.44969,10.32005 -4.17455,19.04619 -12.32348,23.25495 -2.27343,1.17418 -6.36142,2.54193 -7.59744,2.54193 -0.59814,0 -0.63214,-0.0883 -0.63703,-1.65365 -0.005,-1.59792 -0.66786,-7.30966 -0.87201,-7.5138 -0.0552,-0.0552 -0.17581,1.13406 -0.26812,2.64272 -0.21461,3.50744 -1.03401,7.75284 -2.18386,11.31478 -0.93399,2.89323 -3.45494,8.19358 -3.97793,8.36367 -0.1626,0.0529 -2.51481,-2.0814 -5.22713,-4.74285 -2.71233,-2.66145 -4.85726,-4.60087 -4.76651,-4.30983 0.0907,0.29104 0.55582,1.3834 1.03351,2.42746 1.54324,3.37296 3.49204,5.88622 6.74693,8.70117 1.16759,1.00977 2.40835,2.26516 2.75723,2.78975 1.98578,2.98583 1.89658,8.42009 -0.15624,9.51872 -0.33785,0.18082 -2.23656,0.42214 -4.21933,0.53627 -5.94515,0.34222 -9.79743,1.43619 -11.94985,3.39351 -0.76201,0.69294 -1.67091,1.41065 -2.01977,1.59491 -0.34886,0.18425 -2.52175,0.65373 -4.82865,1.04328 l -4.19435,0.70827 v -1.27938 c 0,-2.12329 0.77787,-4.63032 2.004,-6.4588 0.61821,-0.92191 1.03339,-1.6762 0.92262,-1.6762 -0.49921,0 -2.42667,1.66691 -3.16013,2.73296 -0.88407,1.28496 -1.88315,3.61521 -1.88315,4.39227 0,0.596 -0.26729,0.70865 -2.27363,0.95826 -0.85956,0.10694 -2.20241,0.41407 -2.98411,0.68251 l -1.42127,0.48808 0.11248,-2.31194 c 0.12681,-2.60666 0.76968,-4.32562 2.4231,-6.47912 1.05809,-1.37811 0.93935,-1.52265 -0.60402,-0.73529 -1.80347,0.92007 -3.46755,3.43942 -4.11198,6.22539 l -0.30601,1.32292 -2.2303,0.61346 c -1.22667,0.3374 -2.43867,0.67871 -2.69333,0.75846 -0.39277,0.12301 -0.46242,-0.0303 -0.45911,-1.01033 0.009,-2.75512 1.53971,-6.8999 3.47283,-9.40558 1.43392,-1.85863 3.68798,-3.34357 5.73468,-3.7779 1.26363,-0.26817 2.22208,-0.27784 4.46693,-0.0451 4.56975,0.47382 9.36157,-0.35494 13.16446,-2.27683 l 1.31052,-0.66231 -0.94246,-0.8282 c -0.51835,-0.45551 -2.12011,-1.71913 -3.55948,-2.80804 -3.23195,-2.44506 -12.12016,-11.27256 -14.32728,-14.22943 -3.03674,-4.06829 -4.96176,-7.91943 -6.20357,-12.41066 -0.47896,-1.73227 -0.57375,-2.78707 -0.57848,-6.43736 -0.005,-4.0543 0.0457,-4.51954 0.71429,-6.52393 3.05995,-9.1734 11.57162,-11.71894 21.72418,-6.49694 2.36677,1.21735 5.51247,3.41789 7.36478,5.15194 1.34495,1.25908 1.24706,0.87618 -0.29768,-1.16437 -2.53333,-3.34645 -6.77468,-6.7665 -10.46845,-8.44134 -9.52639,-4.31947 -18.87158,0.63313 -21.74026,11.52151 -0.65397,2.48221 -0.66275,8.59703 -0.0168,11.69238 1.69986,8.14545 6.5314,15.88699 14.25085,22.83404 2.67165,2.40432 7.40018,6.16924 8.5715,6.82475 0.70093,0.39226 0.23077,0.79121 -1.59814,1.35611 -2.50922,0.77502 -4.54512,0.91881 -7.89706,0.55774 -3.52997,-0.38024 -5.0901,-0.15627 -7.58066,1.08828 -1.9386,0.96873 -4.38705,3.3232 -5.52602,5.31391 -0.46453,0.81192 -1.05109,1.55546 -1.30346,1.6523 -0.25236,0.0968 -2.18494,0.29168 -4.2946,0.43299 -3.42486,0.22938 -6.12733,0.65393 -7.47527,1.17432 -1.02239,0.39471 -0.3801,-4.52643 0.87328,-6.69088 0.62882,-1.08591 0.13524,-1.17342 -1.04013,-0.18442 -0.843,0.70935 -2.67742,4.07427 -2.67742,4.91128 0,0.31762 -0.2546,0.54485 -0.7276,0.6494 -1.32066,0.29191 -3.89448,0.91986 -4.36563,1.0651 -0.37022,0.11413 -0.46302,-0.0173 -0.46302,-0.65582 0,-4.21408 3.71734,-10.39274 7.19931,-11.96611 1.28654,-0.58134 1.65624,-0.62317 4.57465,-0.51758 6.15692,0.22276 9.61635,0.16448 9.94829,-0.1676 0.24654,-0.24665 -0.0519,-0.80613 -1.3401,-2.51221 -0.9115,-1.20719 -2.18028,-3.10162 -2.8195,-4.20984 l -1.16222,-2.01494 -2.32991,-0.96574 c -1.28145,-0.53115 -2.9502,-1.35684 -3.70833,-1.83485 l -1.37842,-0.86912 3.83659,-6.47029 c 2.95361,-4.98115 3.83784,-6.68341 3.84199,-7.39632 0.004,-0.64974 -0.39512,-1.59197 -1.33694,-3.15793 -2.56406,-4.26323 -4.73959,-10.35321 -5.53535,-15.4952 -0.40437,-2.61285 -1.38188,-6.48229 -1.63758,-6.48229 -0.38548,0 -0.24093,8.77436 0.18577,11.27628 0.7368,4.32014 2.02422,7.87113 4.27041,11.77872 l 1.1615,2.02063 -9.34272,15.57416 c -5.13849,8.56579 -9.4881,15.93136 -9.66579,16.36792 -0.17769,0.43656 -0.49365,1.76867 -0.70213,2.96024 -0.50696,2.89758 -0.89765,3.56364 -2.68051,4.56982 -2.3904,1.34906 -3.10226,2.32672 -3.79248,5.20855 -0.17935,0.74884 -0.58508,1.60478 -0.90162,1.9021 -0.74837,0.7029 -2.4706,1.08635 -4.94116,1.10012 -1.0914,0.006 -2.81781,0.19381 -3.83645,0.41715 -1.01865,0.22335 -2.23904,0.47499 -2.71198,0.5592 l -0.8599,0.1531 z m -15.057,-131.91886 c 0.76173,-1.49249 0.67842,-1.87653 -0.35889,-1.6543 -0.47294,0.10132 -0.87299,0.20008 -0.88901,0.21946 -0.016,0.0194 -0.10542,0.79794 -0.19869,1.73012 l -0.16957,1.69488 0.55757,-0.50425 c 0.30667,-0.27735 0.78303,-0.946 1.05859,-1.48591 z m -5.81549,0.32019 c -0.36065,-1.1753 -0.4885,-1.32292 -1.14577,-1.32292 -0.4069,0 -0.73981,0.0674 -0.73981,0.14969 0,0.62854 1.48564,2.49615 1.98563,2.49615 0.21813,0 0.18943,-0.37956 -0.10005,-1.32292 z m -53.38648,-2.4474 c 0.65936,-0.76398 1.09856,-1.4904 0.97602,-1.61426 -0.36272,-0.36661 -1.83008,0.0893 -2.25917,0.7019 -0.4318,0.61649 -0.54634,2.30143 -0.15644,2.30143 0.13242,0 0.78024,-0.62508 1.43959,-1.38907 z m 25.33111,-4.6302 c 1.29578,-0.54571 2.35626,-1.06827 2.35663,-1.16125 0.002,-0.41745 -3.48357,-1.09099 -4.89271,-0.94556 -1.38293,0.14274 -5.1608,1.63702 -5.1608,2.04128 0,0.35664 2.52107,1.02515 3.92723,1.04139 1.06379,0.0123 1.99681,-0.22925 3.76965,-0.97586 z m 135.70323,-6.52761 c 0.006,-1.06412 -0.68074,-1.74062 -1.76586,-1.74062 h -0.89416 l 1.11871,1.58632 c 1.16504,1.65203 1.53326,1.68889 1.54131,0.1543 z m -87.67886,0.36598 c 0.57829,-0.35827 1.74977,-1.39554 2.60329,-2.30504 l 1.55184,-1.65365 h -1.08868 c -0.59878,0 -1.75931,0.25092 -2.57897,0.55759 -1.43445,0.5367 -5.99736,3.39438 -6.36204,3.98446 -0.12424,0.20101 0.57025,0.25404 2.32295,0.17738 2.07713,-0.0909 2.67808,-0.21957 3.55161,-0.76074 z m 65.53825,-4.67914 c 1.23428,-0.55259 1.46788,-0.75085 1.19063,-1.01054 -0.92446,-0.86588 -6.15826,-2.23776 -8.53721,-2.23776 -1.33078,0 -2.79062,0.26037 -2.78159,0.4961 0.0116,0.30246 4.03845,3.03156 5.0002,3.38875 1.25906,0.4676 3.19981,0.22669 5.12797,-0.63655 z"
       id="path1" /></g></svg>
