<?xml version="1.0" encoding="UTF-8" standalone="no"?>
<!-- Created with Inkscape (http://www.inkscape.org/) -->

<svg
   width="247.93021mm"
   height="246.75053mm"
   viewBox="0 0 247.9302 246.75053"
   version="1.1"
   id="svg1"
   xml:space="preserve"
   inkscape:version="1.4 (86a8ad7, 2024-10-11)"
   sodipodi:docname="Aphrodite.svg"
   xmlns:inkscape="http://www.inkscape.org/namespaces/inkscape"
   xmlns:sodipodi="http://sodipodi.sourceforge.net/DTD/sodipodi-0.dtd"
   xmlns="http://www.w3.org/2000/svg"
   xmlns:svg="http://www.w3.org/2000/svg"><sodipodi:namedview
     id="namedview1"
     pagecolor="#ffffff"
     bordercolor="#000000"
     borderopacity="0.25"
     inkscape:showpageshadow="2"
     inkscape:pageopacity="0.0"
     inkscape:pagecheckerboard="0"
     inkscape:deskcolor="#d1d1d1"
     inkscape:document-units="mm"
     inkscape:zoom="0.19041982"
     inkscape:cx="-1630.6075"
     inkscape:cy="-34.135101"
     inkscape:window-width="1828"
     inkscape:window-height="1057"
     inkscape:window-x="3924"
     inkscape:window-y="-8"
     inkscape:window-maximized="1"
     inkscape:current-layer="layer1" /><defs
     id="defs1" /><g
     inkscape:label="Warstwa 1"
     inkscape:groupmode="layer"
     id="layer1"
     transform="translate(-411.40318,-154.95515)"><path
       style="fill:#000000"
       d="m 527.19506,401.44225 c -18.36275,-1.30114 -37.39868,-7.04399 -52.91667,-15.96414 -9.83059,-5.65089 -17.61387,-11.50854 -25.50573,-19.19548 -6.51213,-6.34303 -11.86311,-12.77 -16.74464,-20.1117 -19.01762,-28.60204 -25.28344,-64.30732 -17.12557,-97.58879 7.80478,-31.841 27.93771,-59.2057 55.93636,-76.02877 14.69007,-8.82656 32.09828,-14.77771 48.94791,-16.73327 20.89869,-2.42548 42.75486,0.28884 61.64792,7.65607 18.6595,7.27615 34.23133,18.20442 47.69151,33.46976 15.53739,17.62115 25.60938,39.56939 29.01854,63.23542 1.00574,6.98174 1.20819,10.07209 1.18729,18.12396 -0.0213,8.19082 -0.31672,12.09692 -1.45036,19.17376 -5.73639,35.80993 -27.35972,67.62833 -58.83718,86.57798 -10.219,6.15192 -22.22802,11.17499 -33.35251,13.95053 -12.11933,3.02375 -26.36229,4.2945 -38.49687,3.43467 z m 2.62378,-16.22265 c -0.0606,-0.0603 -1.83665,-1.02958 -3.9467,-2.15394 -14.58238,-7.77035 -24.07641,-16.98664 -30.23871,-29.35411 -3.73328,-7.49253 -5.51051,-13.44236 -6.79672,-22.75416 -1.39188,-10.07677 -1.58192,-10.94785 -2.09439,-9.59997 -0.83062,2.18465 -0.94896,9.06072 -0.25402,14.75934 1.76846,14.50166 9.24582,28.37232 20.24329,37.55173 5.94709,4.96394 14.33849,9.56318 20.33118,11.14329 1.75868,0.46371 2.99639,0.64686 2.75607,0.40782 z m 53.30627,-1.97859 c 1.22608,-0.56645 2.36059,-1.27533 2.52112,-1.5753 0.5586,-1.04376 0.61508,-3.58177 0.1591,-7.14986 -0.40365,-3.15853 -0.40917,-3.58026 -0.0516,-3.93786 0.35761,-0.3576 0.55397,-0.25535 1.83354,0.95482 1.59885,1.51212 2.68814,3.31883 3.49827,5.80226 l 0.54253,1.6631 3.0392,-1.80783 c 5.43154,-3.23086 10.3598,-6.70485 15.60692,-11.00149 2.68969,-2.20248 11.88222,-11.39666 12.41214,-12.41438 0.48996,-0.94098 0.0832,-2.84022 -1.16684,-5.4487 -3.05778,-6.38051 -8.7682,-11.53857 -17.19842,-15.53485 -1.60073,-0.75881 -6.12511,-2.6608 -10.05417,-4.22664 -3.92906,-1.56583 -8.56022,-3.53941 -10.29145,-4.38572 -1.73124,-0.84632 -3.24514,-1.47854 -3.36423,-1.40494 -0.11908,0.0736 -0.66012,0.97799 -1.2023,2.00977 -2.12848,4.05051 -6.33683,6.01854 -12.92327,6.04358 -1.60073,0.006 -3.4462,0.13447 -4.10104,0.28531 -1.19436,0.27511 -2.38125,1.12338 -2.38125,1.70189 0,0.17014 0.60976,0.8235 1.35502,1.45191 1.64127,1.38394 2.33551,2.79745 2.34333,4.77118 0.008,1.92957 -0.8181,3.56441 -2.33185,4.61659 -1.01051,0.70239 -1.40416,0.80672 -3.30729,0.87655 -1.80357,0.0662 -2.30223,-0.01 -3.02015,-0.45913 -1.22773,-0.76871 -1.14486,-1.50738 0.21005,-1.87222 2.16052,-0.58177 1.88661,-2.86787 -0.48778,-4.07106 -1.59235,-0.80691 -3.2896,-2.67166 -3.71059,-4.07679 -0.77146,-2.5749 -0.0221,-5.48824 1.98618,-7.72194 0.93821,-1.04352 1.78322,-1.61396 3.75609,-2.53563 4.56463,-2.13246 5.44386,-2.64749 6.05126,-3.5446 1.69578,-2.50464 -0.23376,-5.53614 -5.95627,-9.3579 -4.22827,-2.82384 -5.98635,-5.17529 -6.82391,-9.12705 -0.47736,-2.25227 -0.47346,-2.80086 0.0376,-5.27983 0.53498,-2.59516 1.74392,-5.18466 3.65444,-7.82764 2.00885,-2.779 2.82007,-4.44486 2.99638,-6.15313 0.12678,-1.22834 0.0354,-1.63877 -0.68385,-3.07253 -0.45659,-0.91015 -1.7863,-2.78591 -2.95491,-4.16835 -2.33472,-2.76192 -3.47509,-4.85267 -3.96864,-7.27604 -0.31351,-1.53939 -0.21483,-4.80257 0.17603,-5.82114 0.12484,-0.32532 -0.35297,-0.11141 -1.51468,0.67812 -4.14195,2.81498 -7.45465,3.11883 -9.55157,0.87612 -0.79822,-0.85372 -1.2736,-1.93396 -1.2736,-2.89408 0,-0.7951 0.21375,-0.80145 1.6455,-0.0489 1.60095,0.84147 4.42407,0.83922 5.85198,-0.005 1.29377,-0.76459 3.79429,-2.8866 5.99627,-5.08858 1.80847,-1.80847 2.56162,-3.01796 4.06176,-6.52282 l 0.9144,-2.13635 -2.317,-0.17491 c -1.27436,-0.0962 -2.51176,-0.10018 -2.7498,-0.009 -0.23803,0.0913 -0.5562,0.65985 -0.70704,1.26335 -0.4358,1.74354 -0.96809,2.73525 -2.16523,4.03399 -1.46549,1.58986 -3.38459,2.55656 -5.12528,2.58172 -1.15629,0.0167 -1.53512,-0.12158 -2.72442,-0.9946 -1.72485,-1.26616 -2.75045,-1.30099 -5.15847,-0.17515 -1.98685,0.92893 -3.26841,1.01376 -4.79871,0.31764 -1.98303,-0.90206 -2.22482,-1.89654 -0.68338,-2.81071 2.54319,-1.50825 3.18203,-2.86102 2.15023,-4.55322 -0.64511,-1.05802 -1.26389,-1.4631 -4.37572,-2.86457 -5.16249,-2.32502 -7.19439,-4.64996 -8.36257,-9.56863 -1.18325,-4.98208 -2.43288,-6.0761 -8.9936,-7.87357 -1.8352,-0.5028 -3.56503,-1.15567 -4.16656,-1.57252 -1.20529,-0.83527 -2.24801,-2.63903 -2.65751,-4.59715 -0.70712,-3.38122 -1.61204,-4.56257 -5.41588,-7.07024 -3.76296,-2.48073 -4.86611,-3.44181 -6.55029,-5.70668 -0.75154,-1.01067 -1.46102,-1.83758 -1.57662,-1.83758 -0.56305,0 -2.73092,4.08927 -3.64689,6.87917 -1.20224,3.6618 -1.63834,6.35784 -1.7975,11.1125 -0.13239,3.95475 -0.0706,5.18987 0.42328,8.46666 0.8398,5.57143 0.55188,7.30691 -2.32414,14.00911 -1.50244,3.50124 -2.55218,5.5005 -4.78176,9.10699 -0.53019,0.85761 -0.18415,1.92367 0.78751,2.42614 1.39178,0.71971 5.81849,1.97443 6.9659,1.97443 1.30758,0 2.08176,-0.4815 2.53551,-1.57696 0.39182,-0.94594 0.79215,-1.01263 1.48471,-0.24735 0.74877,0.82738 0.69299,2.90346 -0.10071,3.74831 -0.67658,0.72018 -2.17463,1.251 -3.53053,1.251 -0.86185,0 -0.91384,0.0572 -1.26206,1.38906 -0.65039,2.48754 -0.57298,2.89379 0.63483,3.33195 3.08597,1.11949 8.09641,3.33653 8.46774,3.74684 0.39577,0.43732 0.37339,0.50764 -0.31678,0.99564 -0.40844,0.2888 -1.81419,1.06232 -3.12388,1.71895 -1.30968,0.65662 -2.60581,1.4428 -2.88028,1.74706 -0.48899,0.54208 -0.48899,0.55677 0,0.73008 2.7251,0.96585 3.14707,1.62671 2.92298,4.57783 -0.0837,1.10176 -0.23227,2.56873 -0.33024,3.25992 -0.41572,2.93282 1.23708,5.426 4.00813,6.04614 1.30253,0.29149 2.07166,0.27161 5.36465,-0.13868 4.98641,-0.62127 8.47538,-1.42288 13.30403,-3.05667 11.91402,-4.03115 17.82714,-8.33295 21.46644,-15.61687 1.29379,-2.58948 1.39384,-2.7175 1.47341,-1.88526 0.11621,1.21541 -0.64272,4.50886 -1.58973,6.89882 -2.14598,5.41581 -5.4864,9.30454 -11.85195,13.79734 -1.28883,0.90966 -2.47981,1.95346 -2.64662,2.31955 -0.83224,1.82658 -0.2161,6.69046 2.39327,18.89258 1.659,7.75795 1.80606,8.92969 1.18538,9.44481 -0.63705,0.5287 -1.58946,-0.70987 -3.34856,-4.35465 -1.88809,-3.91207 -1.70925,-3.8384 -5.44454,-2.24251 -3.68895,1.57609 -6.47985,2.27605 -12.50737,3.13688 -6.25768,0.8937 -6.20878,0.86676 -6.49937,3.58029 -0.20674,1.93051 0.21772,7.81836 0.83127,11.53089 0.91269,5.52265 3.79802,12.49294 7.12665,17.21634 3.39943,4.82388 9.20039,10.05209 14.82842,13.36436 8.23542,4.84681 16.26044,7.51778 36.09091,12.01218 8.0277,1.81941 14.37401,3.48117 17.72708,4.64179 3.13166,1.08397 7.16312,2.99887 8.34238,3.96254 0.43216,0.35315 0.93241,0.64638 1.11167,0.65161 0.17927,0.005 1.32909,-0.45395 2.55517,-1.0204 z m -54.57858,-23.70933 c -0.3476,-0.65523 -1.79036,-2.4958 -3.20612,-4.09015 -1.41577,-1.59435 -2.96796,-3.51256 -3.44932,-4.26268 -1.55227,-2.41901 -1.35398,-5.52219 0.49055,-7.67711 1.09007,-1.27351 2.23016,-1.82873 3.75508,-1.82873 1.49291,0 2.68143,0.55835 4.18778,1.96737 l 1.28857,1.2053 0.50297,-0.55616 c 1.21664,-1.34527 3.32699,-1.96061 5.31131,-1.54866 2.61534,0.54294 4.13772,2.43003 4.15456,5.14986 0.0179,2.88782 -1.31364,4.6482 -6.58164,8.70144 -1.45521,1.11965 -3.22167,2.50713 -3.92546,3.08329 -0.70379,0.57616 -1.41837,1.04756 -1.58795,1.04756 -0.16959,0 -0.59274,-0.5361 -0.94033,-1.19133 z M 490.54557,243.52739 c -2.82947,-0.26239 -3.01134,-0.52698 -1.7401,-2.53151 0.47007,-0.74123 0.8877,-1.90124 1.07493,-2.98575 0.37062,-2.14672 0.87839,-3.02819 1.67878,-2.91426 0.49567,0.0705 0.5885,0.27195 0.64773,1.40527 0.10751,2.05717 0.27322,2.47176 1.17417,2.93766 1.21651,0.62908 3.7242,0.36248 7.15721,-0.76091 1.56435,-0.5119 2.84427,-0.83707 2.84427,-0.7226 0,0.11447 -0.66907,0.87719 -1.48681,1.69494 -2.20186,2.20185 -6.83499,4.29097 -9.06649,4.08815 -0.2348,-0.0213 -1.26246,-0.11629 -2.28369,-0.21099 z m 13.49845,-11.15791 c -8.34932,-1.78902 -10.44339,-1.95038 -13.03734,-1.00458 -2.35062,0.85707 -2.42569,0.86629 -2.97865,0.36587 -0.36173,-0.32736 -0.52047,-0.81329 -0.52047,-1.59323 0,-0.94735 0.1417,-1.24662 0.90939,-1.92066 1.24989,-1.09742 3.14118,-1.47683 6.53742,-1.31146 3.04643,0.14834 6.34399,0.90864 8.80065,2.02911 1.90556,0.86912 6.24212,3.65594 6.24212,4.01141 0,0.44378 -2.17428,0.23324 -5.95312,-0.57646 z m -23.79564,140.85509 c -0.0866,-0.40018 -0.46219,-3.16838 -0.83461,-6.15156 -1.21791,-9.7555 -1.18561,-16.94406 0.14919,-33.20521 0.66496,-8.10089 0.74168,-10.24588 0.37096,-10.37189 -0.90191,-0.30657 -3.56475,9.54988 -4.37465,16.19273 -0.54048,4.43307 -0.47269,18.30825 0.10538,21.56668 0.77502,4.3687 2.20551,8.80554 3.64576,11.30779 0.89145,1.54878 1.17298,1.74732 0.93797,0.66146 z M 449.8846,353.22223 c 0.30332,-0.92397 1.52095,-3.87076 2.70584,-6.54844 6.97167,-15.75481 12.52033,-23.03742 20.7845,-27.27965 5.72007,-2.93626 10.32104,-4.14926 22.86303,-6.02757 4.94204,-0.74013 9.87212,-1.57244 10.95574,-1.84959 2.72784,-0.69766 5.66216,-1.96182 6.87583,-2.96223 l 1.01996,-0.84074 -0.17968,-2.21456 c -0.40075,-4.93901 -1.44259,-9.62742 -2.53353,-11.40121 -0.65872,-1.07105 -1.93244,-1.63773 -3.68111,-1.63773 -0.72543,0 -3.61652,0.42686 -6.42464,0.94857 -5.64639,1.04902 -8.69909,1.11177 -11.56096,0.23766 -2.0754,-0.63389 -3.99015,-2.61255 -4.74017,-4.89835 -0.64697,-1.97174 -0.718,-3.06064 -0.44189,-6.7741 l 0.19934,-2.68102 -1.44537,-0.92459 c -0.96744,-0.61887 -1.60603,-1.26314 -1.93122,-1.94843 -0.45791,-0.96498 -0.46142,-1.11513 -0.0611,-2.6121 0.39478,-1.47624 0.39342,-1.60692 -0.0193,-1.85284 -0.24424,-0.14553 -0.90845,-0.71344 -1.47604,-1.26205 l -1.03196,-0.99746 0.19273,-2.44212 c 0.35302,-4.47308 0.35124,-4.49567 -0.38452,-4.86573 -0.3638,-0.18298 -1.36668,-0.53898 -2.22862,-0.79111 -2.8691,-0.83925 -4.90167,-3.01947 -4.91078,-5.26752 -0.003,-0.76015 0.25439,-1.4945 0.88128,-2.51354 0.48709,-0.7918 1.43712,-2.33261 2.11116,-3.42402 0.67404,-1.0914 2.07622,-4.12334 3.11595,-6.73764 2.22007,-5.58213 2.49941,-7.4107 1.69904,-11.12173 -0.25108,-1.16417 -0.50348,-3.66448 -0.56088,-5.55625 -0.0574,-1.89177 -0.16178,-3.68748 -0.23194,-3.99046 -0.0702,-0.30298 -0.90704,-1.48843 -1.85972,-2.63434 -1.99345,-2.39775 -2.77799,-4.41083 -2.77799,-7.12814 0,-2.91688 1.13313,-5.09524 3.31579,-6.37436 l 1.1812,-0.69223 -0.16645,-1.79096 c -0.59787,-6.4328 4.05741,-12.92278 10.25942,-14.30279 0.8212,-0.18273 1.78676,-0.25852 2.14568,-0.16844 0.58046,0.14569 0.6685,0.3393 0.79658,1.75179 0.1944,2.1438 1.05083,3.8122 2.88351,5.61727 1.93853,1.90935 4.15331,2.98186 9.46828,4.58506 6.34063,1.91258 8.05519,2.87589 12.7139,7.14316 4.56464,4.1811 6.46143,5.29686 11.90625,7.00367 4.20093,1.31689 4.68045,1.54587 8.40678,4.01452 3.33375,2.20856 5.36866,3.2124 7.73235,3.81445 1.98254,0.50497 3.47282,0.42268 7.98404,-0.44087 3.25288,-0.62268 6.37792,-0.60616 8.74281,0.0462 0.68654,0.18939 1.33194,0.26068 1.4342,0.15842 0.32637,-0.32637 -1.04328,-1.53362 -2.682,-2.364 -2.09994,-1.0641 -4.99834,-1.2634 -8.69462,-0.59787 -3.14192,0.56571 -5.93012,0.44587 -7.44543,-0.32002 -0.58208,-0.29421 -2.9038,-1.49025 -5.15938,-2.65787 -2.96546,-1.5351 -5.19998,-2.46854 -8.06979,-3.37103 -5.33599,-1.67806 -6.97996,-2.58487 -10.58028,-5.83605 -4.5339,-4.09423 -5.64035,-4.76196 -11.38013,-6.86786 -4.17667,-1.53239 -5.51057,-2.18324 -8.02423,-3.91527 -3.633,-2.5033 -6.18228,-6.0573 -7.07996,-9.87031 -0.51828,-2.20148 -0.39032,-6.68843 0.29111,-10.20768 0.60476,-3.12329 0.78538,-3.34099 2.41115,-2.90616 0.70047,0.18735 2.2865,0.8153 3.52451,1.39545 8.08259,3.78763 11.70201,8.26583 13.41694,16.60039 0.41862,2.03448 1.23062,4.01151 1.64759,4.01151 0.12278,0 0.24342,-1.0418 0.26809,-2.3151 0.0519,-2.67955 0.50116,-6.76596 0.84252,-7.66379 0.12923,-0.3399 0.41505,-0.68711 0.63517,-0.77158 1.01497,-0.38948 7.14212,3.67108 10.19319,6.75521 3.44344,3.48073 4.61928,6.04201 5.68592,12.38541 0.34773,2.06797 0.76522,4.00843 0.92777,4.31214 0.28024,0.52364 1.53101,1.1995 1.77264,0.95786 0.0622,-0.0621 -0.0414,-0.63102 -0.23014,-1.26417 -0.45666,-1.53205 -0.44827,-8.87962 0.0122,-10.72923 0.54529,-2.19006 0.70646,-2.21819 3.81328,-0.66543 6.18791,3.09267 10.36773,7.73046 12.62613,14.00952 0.32628,0.90716 0.76997,1.79606 0.98598,1.97533 0.26909,0.22332 1.57187,0.3288 4.13758,0.335 3.71123,0.009 3.76141,0.0171 5.59263,0.908 1.53237,0.74551 2.43872,1.50123 5.30961,4.42723 4.00096,4.07774 5.02452,4.69457 7.78297,4.69024 1.70344,-0.003 4.49792,-0.90357 4.49792,-1.45006 0,-0.1276 -0.57639,-0.232 -1.28087,-0.232 -3.07714,0 -5.48556,-1.40621 -8.58525,-5.01271 -2.27953,-2.65225 -4.03215,-4.08938 -6.40576,-5.25267 -2.13833,-1.04799 -3.75133,-1.38999 -6.8594,-1.4544 l -2.61395,-0.0542 -0.87853,-2.05923 c -2.54737,-5.97088 -8.03063,-11.35754 -14.34795,-14.09519 -3.15457,-1.36705 -3.55425,-1.40095 -4.92343,-0.41768 -1.29671,0.93123 -1.85884,1.03523 -2.10653,0.38976 -0.40069,-1.04418 -2.78428,-4.31395 -4.37065,-5.99559 -3.13637,-3.32471 -6.91384,-5.51524 -12.06455,-6.99614 -4.38992,-1.26216 -3.93801,-1.62508 4.50875,-3.62095 8.39999,-1.98481 9.46387,-2.11601 17.06562,-2.10445 5.50523,0.008 7.40483,0.11252 10.32207,0.5659 14.10876,2.19269 24.25214,6.56782 31.10241,13.41535 3.09363,3.09241 6.23284,7.60398 7.66975,11.02271 0.51379,1.22243 1.025,2.39096 1.13604,2.59675 0.11103,0.20579 1.50503,0.69492 3.09778,1.08695 4.03843,0.99399 6.41214,2.2489 8.76297,4.63268 4.4415,4.5038 5.86961,10.97409 3.91268,17.72704 -0.35839,1.23674 -0.65162,2.38031 -0.65162,2.54126 0,0.16095 0.59126,1.32001 1.31391,2.57569 1.59198,2.76622 2.66254,5.32219 3.33889,7.97159 0.7392,2.89563 0.68784,8.28917 -0.10945,11.49349 -1.05154,4.22612 -3.51995,8.75981 -6.55311,12.03599 l -1.48347,1.60232 1.4818,2.48324 c 2.57752,4.31946 3.28008,6.87193 2.80788,10.20131 -0.41997,2.96122 -1.33992,5.25414 -3.31616,8.26537 -3.10954,4.73806 -3.67226,6.66991 -2.49683,8.5718 0.72415,1.17169 2.11448,1.63236 5.54571,1.83749 3.30036,0.19731 5.51944,0.71085 7.13988,1.6523 3.77747,2.19466 5.83457,5.94768 5.8201,10.61832 -0.003,0.81688 -0.35972,2.85104 -0.79375,4.52034 -0.43403,1.6693 -0.78915,3.54836 -0.78915,4.17569 0,1.23588 0.546,2.78687 1.26686,3.59867 1.29263,1.45571 4.63091,1.95296 6.47516,0.9645 0.54302,-0.29104 1.06202,-0.52917 1.15333,-0.52917 0.0913,0 0.11244,0.64599 0.047,1.43553 -0.16076,1.93864 -1.48302,4.55622 -3.01476,5.96813 -1.14974,1.05979 -4.14778,2.65754 -5.73341,3.0555 -0.39782,0.0999 -0.72331,0.29015 -0.72331,0.4229 0,0.13274 0.55647,0.62585 1.23659,1.09579 4.7641,3.29183 9.29587,7.91389 11.4489,11.677 0.4659,0.81431 1.01745,1.48057 1.22565,1.48057 0.96269,0 6.7867,-9.08208 10.43456,-16.27187 6.10458,-12.03189 9.79977,-23.99081 11.6499,-37.70313 0.70965,-5.25961 1.00799,-18.74294 0.5399,-24.40041 -2.09879,-25.36625 -12.41785,-48.84291 -29.92012,-68.07059 -3.20534,-3.52132 -8.65369,-8.62247 -12.4278,-11.63582 -21.65987,-17.29381 -47.71529,-25.86279 -76.60528,-25.19356 -12.46513,0.28875 -22.63077,2.03487 -34.13125,5.86264 -10.51692,3.5004 -18.57118,7.45499 -28.04583,13.7703 -20.82556,13.88125 -36.12144,33.87734 -44.44259,58.09917 -4.05603,11.80659 -5.96053,23.59396 -5.96053,36.89098 0,14.27518 2.07597,26.28378 6.81396,39.41583 4.58702,12.71365 11.94461,25.21897 21.03859,35.7583 0.90667,1.05076 1.72103,1.9182 1.8097,1.92765 0.0887,0.009 0.40938,-0.7388 0.7127,-1.66277 z M 578.14768,319.7143 c 0.61023,-2.38194 0.3691,-4.38037 -0.8208,-6.80273 -1.18152,-2.4053 -2.88954,-4.27619 -6.46439,-7.08083 -3.88498,-3.04794 -4.95675,-4.80906 -4.7133,-7.74483 0.0933,-1.12467 0.48751,-2.16384 1.72028,-4.53441 2.2001,-4.23072 2.80844,-6.48256 2.28214,-8.44758 -0.14138,-0.52787 -0.24022,-0.42047 -0.73629,0.80008 -0.60175,1.48058 -1.44119,2.79028 -4.26149,6.64879 -1.97108,2.69669 -2.62086,4.48603 -2.45359,6.75662 0.22516,3.05628 2.16167,5.85645 6.0344,8.72564 2.74754,2.03557 4.36145,3.58856 5.74942,5.5324 1.29108,1.80813 2.43614,4.67939 2.45069,6.14514 0.0124,1.24418 0.28753,2.20153 0.5557,1.93336 0.12006,-0.12006 0.41581,-0.9893 0.65723,-1.93165 z m 24.89997,-4.02169 c -0.3529,-4.20942 -2.80587,-7.13471 -8.0826,-9.63891 -6.07227,-2.88175 -7.01746,-3.4063 -8.37742,-4.64923 -2.91569,-2.66477 -3.15883,-5.03704 -1.06156,-10.35738 1.42369,-3.61161 1.74911,-5.85598 1.18035,-8.1407 l -0.35502,-1.42609 -0.19019,1.62451 c -0.20741,1.77149 -0.92808,3.37558 -2.90147,6.4582 -2.06451,3.22495 -2.46279,4.30897 -2.47418,6.73396 -0.008,1.7976 0.10249,2.34599 0.73587,3.63796 0.90303,1.84197 2.90617,4.09007 4.63014,5.19634 0.69897,0.44853 2.92994,1.55568 4.95769,2.46033 2.02776,0.90464 4.40121,2.05664 5.27434,2.55998 2.10021,1.21075 5.11766,4.29136 5.9322,6.05638 0.3523,0.76338 0.69699,1.38797 0.76598,1.38797 0.069,0 0.0536,-0.85649 -0.0341,-1.90332 z m -22.38724,-41.64998 c 3.08219,-0.52673 6.27095,-1.66492 8.13862,-2.90498 0.77913,-0.51732 1.37565,-0.98146 1.32559,-1.03143 -0.0501,-0.05 -1.46024,0.27921 -3.13373,0.7315 -2.89092,0.78132 -3.28689,0.82225 -7.9375,0.8204 -4.4313,-0.002 -5.1328,-0.0666 -7.40833,-0.68426 -3.21662,-0.87318 -5.91482,-2.11906 -8.68504,-4.01027 -1.85334,-1.26526 -2.17327,-1.40832 -2.017,-0.90187 1.86462,6.04268 10.5315,9.55073 19.71739,7.98091 z m 4.85992,-13.05547 c 1.15572,-0.30006 3.00119,-0.98945 4.10104,-1.53197 3.6177,-1.7845 6.92416,-5.69912 7.5775,-8.97121 0.16399,-0.82131 0.14324,-0.81122 -1.38302,0.67303 -1.9578,1.9039 -4.27828,3.48304 -7.05074,4.79818 -7.01274,3.32655 -15.80808,3.0509 -21.47803,-0.67314 -1.93901,-1.27355 -1.90636,-0.94518 0.12729,1.27995 2.29047,2.50614 5.09818,4.05953 8.7286,4.82917 2.29895,0.48737 6.66928,0.29908 9.37736,-0.40401 z m -0.80131,-14.46386 c 2.40676,-0.61802 5.10319,-2.10335 6.67895,-3.67911 0.77756,-0.77756 1.41375,-1.53283 1.41375,-1.67837 0,-0.14554 -0.8632,0.13376 -1.91823,0.62068 -3.30087,1.52342 -4.89194,1.83763 -9.32656,1.84185 -6.47105,0.006 -8.62692,-0.82544 -13.17219,-5.08106 -5.7145,-5.35034 -9.47006,-6.18314 -20.56218,-4.55969 -2.98279,0.43656 -6.01872,0.79285 -6.74652,0.79175 -1.29215,-0.002 -4.23523,-0.39255 -5.29202,-0.70235 -1.01994,-0.299 0.57404,1.10485 2.10647,1.85521 3.32627,1.62871 5.27659,1.7819 11.99251,0.94192 8.33109,-1.04199 11.58733,-0.13604 16.70417,4.64745 3.59462,3.36043 6.52346,4.81592 10.91975,5.42657 2.06623,0.28701 5.13482,0.10599 7.2021,-0.42485 z m 5.22667,-16.0333 c 2.75976,-1.26346 4.80447,-4.04746 5.15666,-7.02113 0.20184,-1.70422 -0.41477,-3.79921 -1.61513,-5.48754 l -0.9328,-1.312 0.16186,2.1107 c 0.38352,5.00136 -2.06284,9.28498 -6.65264,11.64886 l -1.85088,0.95325 2.12191,-0.1052 c 1.55311,-0.077 2.52107,-0.28794 3.61102,-0.78694 z M 547.9516,214.87145 c -0.86053,-2.82708 -3.11027,-6.29434 -5.7882,-8.92064 -1.64366,-1.61198 -1.69461,-1.56101 -1.18665,1.18681 0.57515,3.11126 2.45644,5.72131 5.4006,7.49262 1.61527,0.97181 1.8055,1.00095 1.57425,0.24121 z m -19.68369,-9.38257 c -0.71278,-2.83981 -2.97434,-6.86438 -5.67136,-10.0925 -1.17553,-1.40702 -1.36122,-1.12916 -1.14613,1.71492 0.17524,2.31702 1.15045,4.61568 2.72606,6.42558 1.06811,1.22694 4.06107,3.56726 4.28091,3.34742 0.0707,-0.0707 -0.0146,-0.69862 -0.18948,-1.39542 z m -18.53535,-9.4326 c 0,-0.3338 -1.7827,-4.31995 -2.65633,-5.9396 -1.35605,-2.51403 -3.06337,-4.72909 -5.53866,-7.18581 l -1.99147,-1.97653 -0.0782,1.93349 c -0.13566,3.35389 1.10144,6.47287 3.61467,9.11335 0.81984,0.86135 2.01539,1.9282 2.65679,2.37078 1.37265,0.94716 3.9932,2.05251 3.9932,1.68432 z"
       id="path1" /></g></svg>
