<?xml version="1.0" encoding="UTF-8" standalone="no"?>
<!-- Created with Inkscape (http://www.inkscape.org/) -->

<svg
   width="248.45198mm"
   height="245.97285mm"
   viewBox="0 0 248.45198 245.97285"
   version="1.1"
   id="svg1"
   xml:space="preserve"
   inkscape:version="1.4 (86a8ad7, 2024-10-11)"
   sodipodi:docname="Athena.svg"
   xmlns:inkscape="http://www.inkscape.org/namespaces/inkscape"
   xmlns:sodipodi="http://sodipodi.sourceforge.net/DTD/sodipodi-0.dtd"
   xmlns="http://www.w3.org/2000/svg"
   xmlns:svg="http://www.w3.org/2000/svg"><sodipodi:namedview
     id="namedview1"
     pagecolor="#ffffff"
     bordercolor="#000000"
     borderopacity="0.25"
     inkscape:showpageshadow="2"
     inkscape:pageopacity="0.0"
     inkscape:pagecheckerboard="0"
     inkscape:deskcolor="#d1d1d1"
     inkscape:document-units="mm"
     inkscape:zoom="0.53858859"
     inkscape:cx="69.626428"
     inkscape:cy="231.15974"
     inkscape:window-width="1828"
     inkscape:window-height="1057"
     inkscape:window-x="3924"
     inkscape:window-y="-8"
     inkscape:window-maximized="1"
     inkscape:current-layer="layer1" /><defs
     id="defs1" /><g
     inkscape:label="Warstwa 1"
     inkscape:groupmode="layer"
     id="layer1"
     transform="translate(-132.29418,-176.59743)"><path
       style="fill:#000000"
       d="m 248.03881,422.43372 c -9.42422,-0.59448 -20.6829,-2.78875 -30.25928,-5.89741 -19.33613,-6.27685 -38.37792,-18.23065 -51.71319,-32.4638 -18.61237,-19.86558 -30.08395,-44.48964 -32.99115,-70.81639 -3.2176,-29.13778 3.54852,-57.34751 19.52319,-81.39729 9.96565,-15.00323 22.32348,-27.02789 37.58512,-36.57181 4.34669,-2.71822 14.49289,-7.84325 19.22615,-9.71148 33.77923,-13.33274 71.63963,-11.75598 103.98124,4.33048 13.25236,6.59161 24.04976,14.64479 34.35491,25.6234 8.19994,8.73582 14.51838,17.59878 19.65574,27.57136 7.08276,13.74896 10.86591,26.25602 12.84591,42.46846 0.66496,5.44471 0.66495,21.15885 -1e-5,26.85521 -1.17917,10.10142 -3.11649,18.81637 -6.13801,27.61162 -5.79487,16.86815 -16.00859,33.09477 -29.09596,46.22501 -9.49938,9.53048 -19.29876,16.59428 -31.88716,22.98558 -15.03176,7.63182 -30.36477,11.83934 -47.75729,13.10503 -3.4122,0.24831 -13.90667,0.29799 -17.33021,0.082 z m 23.28333,-9.04651 c 22.55499,-3.03058 41.35974,-11.01651 59.00208,-25.0568 4.40346,-3.5044 12.97774,-12.04999 16.56243,-16.50701 14.3382,-17.82734 22.4446,-37.16269 25.15842,-60.00766 0.66179,-5.57098 0.65974,-19.76517 -0.004,-25.31046 -1.5802,-13.20877 -4.94107,-24.92409 -10.47581,-36.51665 -7.12675,-14.92703 -18.37952,-28.98586 -31.77055,-39.69304 -17.31292,-13.84305 -38.16047,-22.26236 -61.25104,-24.73632 -1.45521,-0.15592 -5.4576,-0.35701 -8.8942,-0.44687 -48.05317,-1.25657 -90.77933,25.61377 -109.65893,68.96412 -8.73675,20.06086 -11.44931,42.67721 -7.75974,64.69793 5.10908,30.49293 23.14364,58.2211 49.10135,75.49343 13.96486,9.29225 29.28964,15.49899 44.80006,18.14464 3.34433,0.57045 8.60696,1.23825 12.43542,1.57799 0.65484,0.0581 5.11969,0.0701 9.92187,0.0267 7.02133,-0.0635 9.5344,-0.18687 12.83229,-0.62999 z m -14.41979,-7.59394 c -3.59682,-0.36139 -7.98903,-0.97671 -8.3497,-1.16974 -0.23451,-0.12551 -0.57513,-0.91074 -0.76462,-1.76271 -0.61773,-2.77737 -2.67564,-8.87823 -4.26803,-12.65293 -5.91802,-14.02847 -15.85886,-25.27036 -27.49231,-31.09047 -1.60832,-0.80463 -4.83387,-2.11068 -5.21274,-2.11068 -0.0936,0 0.53423,0.49218 1.3951,1.09374 4.28219,2.9923 11.44842,10.01555 14.87518,14.57838 5.79856,7.72097 9.65276,15.93817 11.971,25.52233 0.81617,3.37422 0.93565,4.31388 0.54853,4.31388 -0.39901,0 -7.1146,-2.35026 -9.11538,-3.19011 l -1.90718,-0.80057 -0.47781,-2.17185 c -3.01769,-13.71665 -11.86414,-27.08239 -22.5312,-34.04145 -3.76426,-2.45577 -8.95986,-4.58592 -12.10469,-4.96285 -0.69122,-0.0828 -1.25596,-0.22334 -1.25496,-0.31221 9.9e-4,-0.0889 0.42485,-0.44972 0.94191,-0.80188 1.48867,-1.01391 4.53616,-4.4303 5.70115,-6.39128 0.58633,-0.98693 1.33257,-2.55717 1.65833,-3.48943 l 0.59228,-1.695 2.36528,0.4818 c 17.22738,3.50923 37.86973,16.24926 49.87887,30.7842 3.74511,4.5328 7.50583,10.39195 9.63641,15.01339 0.58208,1.2626 1.13906,2.3004 1.23773,2.30623 0.75101,0.0444 0.83044,-11.45123 0.10688,-15.46753 -1.36894,-7.59869 -4.94773,-16.21185 -9.72924,-23.41563 -1.20737,-1.81901 -2.24051,-3.41103 -2.29586,-3.53782 -0.16397,-0.37565 3.08159,1.88034 5.7857,4.02162 8.14717,6.45145 14.32745,15.03681 17.6071,24.45901 2.34717,6.74323 3.13159,11.57964 3.14938,19.41767 0.007,3.22498 -0.0462,5.92232 -0.11898,5.99408 -0.0728,0.0718 -1.62058,0.33247 -3.43959,0.57934 -3.15066,0.4276 -15.70643,0.76796 -18.38854,0.49847 z m 30.82396,-14.0102 v -10.95371 l 1.25677,0.14147 c 3.04395,0.34266 2.81765,0.196 3.34096,2.1652 0.26079,0.98134 0.94033,2.71008 1.51009,3.84166 l 1.03593,2.05742 v 5.66264 5.66263 l -1.38906,0.51877 c -0.76399,0.28532 -2.37133,0.82001 -3.57188,1.1882 l -2.18281,0.66944 z m 11.73323,5.63877 c 0.0828,-0.47294 0.29466,-2.55995 0.47089,-4.63778 l 0.32042,-3.77789 -0.81465,-0.85232 c -1.30805,-1.36854 -2.63996,-4.09646 -3.38865,-6.94038 -0.38272,-1.45376 -0.83399,-2.77814 -1.00282,-2.94307 -0.16883,-0.16493 -2.62868,-0.63493 -5.46634,-1.04446 -4.77415,-0.68899 -5.2137,-0.79843 -5.88698,-1.46571 -0.58621,-0.581 -0.7276,-0.96039 -0.7276,-1.95245 0,-0.99322 0.1407,-1.36986 0.7276,-1.9477 0.64005,-0.63016 1.23703,-0.80532 4.96094,-1.45557 4.86159,-0.84891 6.21771,-1.16505 6.21771,-1.44952 0,-0.1112 -2.68655,-0.38545 -5.97011,-0.60945 -5.49404,-0.37479 -6.01623,-0.45338 -6.54844,-0.98559 -0.42557,-0.42557 -0.57833,-0.89693 -0.57833,-1.78451 0,-1.71304 0.77587,-2.32073 3.48088,-2.72634 8.70641,-1.30554 11.47553,-1.81763 12.12312,-2.24195 0.39259,-0.25723 0.63706,-0.54442 0.54328,-0.6382 -0.0938,-0.0938 -3.47652,-0.24821 -7.5172,-0.34319 -4.04068,-0.095 -7.59574,-0.25172 -7.90013,-0.34833 -0.63196,-0.20057 -1.12682,-1.39835 -1.12682,-2.7274 0,-0.64279 0.21806,-1.12497 0.74873,-1.65565 0.85694,-0.85693 0.55394,-0.80751 9.8346,-1.60425 3.41974,-0.29359 6.53658,-0.65992 6.9263,-0.81407 0.60354,-0.23872 1.18543,-0.95297 0.95128,-1.16767 -0.11192,-0.10263 -14.19817,-1.44889 -15.61664,-1.49253 -0.69122,-0.0213 -1.25677,-0.085 -1.25677,-0.14174 0,-0.24323 4.24836,-5.82429 4.89132,-6.42572 0.68736,-0.64295 0.83301,-0.66406 5.20703,-0.75473 6.07742,-0.12598 5.86285,-0.22072 10.471,4.62335 2.00201,2.10451 3.84526,4.2679 4.09611,4.80753 0.2804,0.60322 0.45902,1.64359 0.4637,2.70094 0.004,0.94588 0.48549,6.42276 1.06955,12.17083 1.11165,10.94046 1.22467,12.56623 1.44542,20.79166 l 0.13549,5.04895 -3.37262,1.86715 c -3.08821,1.70969 -7.39484,3.77766 -7.86714,3.77766 -0.10702,0 -0.12688,-0.38696 -0.0441,-0.8599 z m -40.2461,-20.90208 c -8.8597,-12.18536 -23.72212,-23.3799 -39.88192,-30.03948 -10.50804,-4.33045 -11.91775,-4.85676 -12.62822,-4.71467 -0.40328,0.0807 -0.73324,0.0981 -0.73324,0.0387 0,-0.0594 1.02144,-0.72489 2.26987,-1.47898 10.54332,-6.36847 16.50007,-16.31737 16.51869,-27.58933 l 0.003,-1.89908 2.22827,-1.15969 c 6.12527,-3.18785 9.26631,-7.18985 9.57676,-12.20177 l 0.12291,-1.98437 -0.74079,1.4552 c -0.43252,0.84965 -1.62194,2.33603 -2.85825,3.57188 -4.65886,4.6571 -12.42241,8.06128 -23.51203,10.30959 -4.71994,0.95692 -11.32199,2.04121 -11.47808,1.88512 -0.0495,-0.0496 0.34962,-0.84035 0.88705,-1.75733 1.88753,-3.22057 3.68305,-7.91703 4.32902,-11.32321 0.24274,-1.27998 0.18521,-1.55922 -0.94177,-4.57196 -2.77208,-7.41052 -3.97907,-13.56584 -3.72886,-19.01617 0.4113,-8.95918 3.84133,-17.72722 9.6463,-24.65842 7.30477,-8.72196 19.09451,-13.51608 32.20591,-13.09605 4.88121,0.15637 7.8252,0.6394 11.87649,1.9486 2.77184,0.89574 7.27063,3.00304 8.6118,4.03389 l 0.64455,0.49541 -1.17371,1.81261 c -5.12743,7.91846 -13.27674,14.86383 -23.26642,19.82916 -4.25309,2.11398 -5.5607,2.65371 -10.81612,4.46447 -2.38361,0.82127 -5.04766,1.85356 -5.92011,2.29398 -4.09397,2.06663 -6.54596,6.6045 -5.75687,10.65416 0.89327,4.58433 4.52022,7.82786 9.00076,8.04923 2.60408,0.12866 4.11405,-0.40821 7.83443,-2.78555 3.99804,-2.55476 6.25426,-3.74697 10.59855,-5.60035 9.80215,-4.18185 22.07299,-7.2928 32.03487,-8.12161 l 2.18282,-0.18161 -0.013,2.61385 c -0.007,1.43762 -0.11833,4.28073 -0.24707,6.31802 l -0.23409,3.70417 2.23145,8.75673 c 1.22729,4.81621 2.23145,9.10573 2.23145,9.53228 0,1.74324 -1.48996,2.74536 -4.08181,2.74536 -1.56731,0 -1.76843,0.0635 -2.17717,0.68732 -0.49606,0.75708 -0.55964,1.67856 -0.25382,3.67831 0.32035,2.09468 0.0489,2.28868 -3.70611,2.64874 -2.85237,0.27351 -5.12693,0.90524 -5.12693,1.42393 0,0.0968 1.5166,0.40917 3.37022,0.69424 3.69592,0.56841 4.3027,0.88766 4.3027,2.26382 0,0.6531 -0.31597,1.10909 -1.60625,2.31805 l -1.60625,1.50501 0.31204,1.79189 c 0.71517,4.10682 -0.7201,6.52127 -4.12984,6.94729 -1.62355,0.20284 -7.91279,-0.63878 -11.88741,-1.59078 -6.96602,-1.66849 -13.30155,-4.52779 -16.56467,-7.47583 -1.29331,-1.16843 -1.30639,-0.92347 -0.0435,0.81527 2.50524,3.44928 5.4272,5.88449 9.74817,8.12429 1.44468,0.74885 2.66142,1.39323 2.70387,1.43194 0.0425,0.0387 -0.54103,3.57261 -1.29663,7.85311 l -1.37382,7.78271 2.26748,3.22948 c 4.02275,5.72944 7.01288,11.35222 9.22038,17.33846 0.75826,2.05623 2.63164,8.38275 2.48225,8.38275 -0.0387,0 -0.78453,-0.98227 -1.65742,-2.18281 z m 11.45275,-68.29908 c -0.34754,-0.34755 -0.71281,-1.06324 -0.81171,-1.59043 -0.25414,-1.35464 -0.649,-1.45352 -0.649,-0.16252 0,1.14448 0.88196,2.38484 1.69574,2.38484 0.28717,0 0.22221,-0.17466 -0.23503,-0.63189 z m -3.04821,-15.99993 c 0,-0.85281 0.0757,-2.10297 0.16825,-2.77812 l 0.16826,-1.22756 -0.89586,0.003 c -2.17566,0.008 -8.70107,1.8654 -8.70107,2.47609 0,0.25216 2.80644,1.69907 4.12094,2.12461 1.54926,0.50154 3.36457,0.88136 4.41187,0.92308 0.71428,0.0285 0.72761,5.9e-4 0.72761,-1.52158 z m -11.77111,-6.51105 c 3.87799,-1.12668 7.2451,-1.54842 10.9403,-1.3703 1.83939,0.0887 3.76107,0.2369 4.27039,0.32941 l 0.92604,0.1682 -1.05833,-1.10194 c -2.10908,-2.19597 -5.48644,-3.13467 -8.63439,-2.39984 -2.63978,0.61621 -6.49241,2.67011 -8.9604,4.77694 -0.54887,0.46855 -0.57139,0.53476 -0.13229,0.38899 0.29104,-0.0966 1.48294,-0.45277 2.64868,-0.79146 z m -79.24555,70.09052 c -2.71575,-0.58538 -5.39126,-2.0499 -7.3189,-4.00622 -0.92231,-0.93604 -1.67694,-1.80466 -1.67694,-1.93027 0,-0.12702 0.3459,-0.12919 0.77934,-0.005 5.09202,1.46038 11.82892,-0.46272 14.80341,-4.22573 1.43032,-1.8095 2.1215,-3.81518 2.55417,-7.4118 0.66062,-5.49147 0.95041,-6.98879 1.70101,-8.789 1.98006,-4.74893 6.66477,-9.19608 12.77664,-12.12876 2.19081,-1.05122 2.75461,-1.19191 9.98335,-2.49118 3.38141,-0.60776 8.83233,-1.90492 10.18322,-2.4233 0.44437,-0.17052 0.46248,-0.0217 0.2804,2.3058 -0.54051,6.90943 -3.53538,13.09418 -8.61366,17.78822 -2.32294,2.14718 -5.09986,4.01642 -9.333,6.28236 -4.14452,2.2185 -5.09186,3.04573 -5.46143,4.76897 -1.14391,5.3339 -6.5638,10.67637 -12.3262,12.15015 -2.42862,0.62113 -5.77104,0.66753 -8.33141,0.11564 z m 103.74109,-10.01227 c -0.82978,-0.88326 -1.01298,-2.525 -0.39795,-3.56618 0.62693,-1.06129 2.00521,-1.71944 3.15078,-1.50453 1.6366,0.30703 1.60765,0.64946 -0.27764,3.2849 -0.95265,1.33169 -1.76497,2.42126 -1.80515,2.42126 -0.0402,0 -0.3417,-0.28595 -0.67004,-0.63545 z m 7.3839,-54.28298 c 0,-34.4049 -0.08,-47.13563 -0.29896,-47.55885 -0.16443,-0.31786 -1.61664,-2.71096 -3.22714,-5.318 l -2.92818,-4.74009 0.55789,-2.13908 c 0.30684,-1.1765 2.48468,-9.69955 4.83965,-18.94012 2.35498,-9.24057 4.34434,-16.97964 4.42082,-17.19792 0.0765,-0.21828 0.9437,2.75828 1.92716,6.61459 0.98347,3.8563 3.23392,12.5892 5.001,19.40644 l 3.21289,12.39498 -0.59471,0.96647 c -0.32709,0.53156 -1.7584,2.80485 -3.18069,5.05175 l -2.58598,4.08528 v 47.17774 47.17775 h -3.57188 -3.57187 z m -127.79374,44.68066 c 10.66397,-8.89543 16.56009,-20.91931 16.06297,-32.75701 -0.18585,-4.42571 -0.65676,-6.80007 -2.57127,-12.96459 -1.93311,-6.22439 -2.494,-8.41602 -3.16456,-12.36521 -2.35917,-13.89408 -0.19815,-29.11669 5.8694,-41.3452 3.52438,-7.10302 7.24173,-12.24555 13.01598,-18.00615 13.29749,-13.26603 30.41888,-20.5632 50.31042,-21.44241 9.65748,-0.42686 21.17171,1.571 29.81557,5.17336 l 2.04997,0.85434 -2.31139,1.62918 c -4.67972,3.29848 -9.95787,9.30669 -13.19848,15.02404 -0.77316,1.36408 -1.49879,2.63001 -1.6125,2.81318 -0.16056,0.25865 -0.85404,0.1567 -3.10473,-0.45643 -6.90507,-1.88108 -14.24332,-2.52663 -19.85618,-1.74677 -8.01433,1.11351 -15.06642,3.58857 -21.16409,7.42789 -14.67598,9.24056 -23.32635,26.79971 -21.8646,44.38237 0.23334,2.80671 0.75214,5.74434 2.02994,11.49412 0.94407,4.24809 1.8925,8.89153 2.10762,10.31875 0.99756,6.61815 0.0756,13.52858 -2.62288,19.66019 -4.99819,11.35697 -16.81328,20.4127 -30.18807,23.1378 -0.76967,0.15682 -0.75764,0.1316 0.39688,-0.83145 z m 191.07484,-0.35415 c -3.92588,-1.35865 -7.47911,-3.73727 -11.02589,-7.38101 l -1.5875,-1.6309 -8.0698,0.0281 c -4.43838,0.0154 -8.15758,0.021 -8.26489,0.0123 -0.38016,-0.0306 1.1613,-3.07155 1.99479,-3.93522 0.46538,-0.48224 1.7085,-1.3036 2.7625,-1.82525 l 1.91635,-0.94844 -0.74198,-0.55601 c -5.75182,-4.31013 -10.91096,-11.7391 -13.79939,-19.87058 -1.42,-3.9976 -2.1398,-7.57353 -2.31092,-11.48068 l -0.15519,-3.54318 -1.22446,-1.61773 c -2.50801,-3.31354 -3.45277,-6.13841 -3.64886,-10.91019 -0.16431,-3.9985 0.2437,-6.4335 1.57918,-9.42453 l 0.79776,-1.78673 -0.69541,-1.54958 c -0.38247,-0.85227 -0.86628,-2.42949 -1.07513,-3.50494 -0.43725,-2.25161 -0.62858,-3.41056 -0.56303,-3.41056 0.0252,0 1.6656,0.53578 3.6453,1.19062 4.06872,1.34585 5.75988,1.4958 7.80119,0.69173 0.69662,-0.2744 2.56611,-0.82415 4.15444,-1.22168 2.55205,-0.63874 3.24432,-0.70848 5.95313,-0.59978 2.69467,0.10814 3.46789,0.25584 6.39572,1.22168 4.35072,1.43524 5.13473,1.42775 9.70846,-0.0928 1.97116,-0.65534 3.64283,-1.13263 3.71482,-1.06064 0.26401,0.26402 -0.80001,4.80894 -1.53585,6.56027 l -0.75789,1.80384 0.76758,1.64038 c 1.32325,2.82787 1.84202,5.41917 1.80673,9.02488 -0.0172,1.75936 -0.11342,3.55601 -0.21378,3.99258 -0.16621,0.72304 -0.004,0.9823 1.81894,2.91041 4.43737,4.69293 7.05288,10.32589 8.53821,18.38854 0.45892,2.49112 0.56382,4.12192 0.57868,8.99584 0.0104,3.39936 -0.12289,6.97463 -0.31062,8.33437 -0.5239,3.79474 -1.71541,11.36785 -1.8053,11.47429 -0.14459,0.17122 -4.65471,-2.35976 -7.25753,-4.07277 -1.38554,-0.91187 -3.46913,-2.4272 -4.63021,-3.3674 -2.9724,-2.40696 -7.61056,-7.30294 -9.71916,-10.25941 -2.41379,-3.3844 -5.41507,-9.42878 -6.83902,-13.77336 l -1.16328,-3.54926 -0.0765,2.47771 c -0.29158,9.44681 5.47111,20.24132 15.09095,28.26796 2.57067,2.14492 7.91421,5.72616 10.59657,7.10181 1.12205,0.57544 1.99747,1.16533 1.94537,1.31085 -0.0521,0.14552 -0.37372,1.7231 -0.71471,3.50573 -0.341,1.78263 -0.74535,3.23218 -0.89856,3.22122 -0.15321,-0.0109 -1.27003,-0.36304 -2.48183,-0.78242 z m -21.55225,-53.75237 c 0.4812,-1.1192 0.94597,-2.55332 1.03281,-3.18693 0.13576,-0.99048 0.0589,-1.26966 -0.54804,-1.99098 -0.87203,-1.03635 -2.14235,-1.33359 -3.25046,-0.76056 -1.65837,0.85757 -1.79085,3.21528 -0.3582,6.37492 0.73188,1.61413 0.86423,1.76017 1.5252,1.68299 0.6257,-0.0731 0.84232,-0.36024 1.59869,-2.11944 z m -7.92034,-6.7169 c 1.48169,-0.73836 2.40297,-1.68259 3.30581,-3.38819 0.44427,-0.83927 0.57654,-1.54442 0.57654,-3.07353 0,-2.35357 -0.54493,-3.59949 -2.24675,-5.13698 -1.46202,-1.32085 -2.69318,-1.80519 -4.62015,-1.8176 -4.93362,-0.0318 -8.14451,4.49703 -6.69108,9.43743 0.39866,1.35508 2.8667,3.90514 4.17753,4.31637 1.74964,0.54888 3.99609,0.41098 5.4981,-0.3375 z m -4.63655,-3.17853 c -1.78218,-0.90801 -2.45364,-3.33059 -1.40142,-5.05628 1.71567,-2.81379 6.13485,-1.82441 6.5348,1.46304 0.32379,2.66137 -2.74555,4.80983 -5.13338,3.59324 z m 22.56378,3.41945 c 1.77647,-0.6053 3.61014,-2.47433 4.21544,-4.29673 1.56016,-4.69719 -1.72779,-9.35122 -6.60639,-9.35122 -5.69327,0 -9.10933,6.12387 -6.08687,10.91176 1.72493,2.73247 5.19852,3.85356 8.47782,2.73619 z m -4.3116,-3.26163 c -0.47427,-0.28916 -1.0989,-0.9138 -1.38807,-1.38807 -1.37381,-2.25322 0.32641,-5.22433 2.99113,-5.22695 3.7619,-0.004 5.05686,5.10699 1.6979,6.70092 -1.22877,0.58309 -2.24721,0.55658 -3.30096,-0.0859 z m -112.62863,15.49274 c -4.44095,-1.64145 -5.43637,-7.03339 -1.87561,-10.15978 1.30996,-1.15016 2.29903,-1.61431 7.01969,-3.29416 11.93845,-4.2483 18.7314,-8.03033 26.59062,-14.80451 5.78457,-4.98595 10.19373,-10.93635 13.1094,-17.69182 l 1.25148,-2.89963 0.78915,1.00131 c 3.02058,3.83263 5.97285,9.7818 7.78401,15.68568 1.24359,4.05377 3.12742,12.51883 3.12742,14.0532 0,1.19103 -0.77108,1.47419 -4.52115,1.6603 -15.60001,0.7742 -33.23255,6.08972 -44.95593,13.55245 -5.22601,3.32671 -6.21996,3.67283 -8.31908,2.89696 z m -29.60503,-9.3382 c -0.0782,-0.12657 -0.34262,-1.5932 -0.58755,-3.25919 -0.60527,-4.11692 -0.40976,-11.92942 0.39148,-15.64364 1.8586,-8.61567 5.89465,-16.16359 11.78843,-22.04584 3.59596,-3.58892 6.90181,-5.96787 11.38279,-8.19126 4.06568,-2.01732 6.88487,-3.02786 11.00101,-3.94331 7.69347,-1.71107 14.05471,-1.5615 22.68426,0.53335 2.74612,0.66663 2.98041,0.77155 2.83411,1.26917 -0.72363,2.46124 -1.24118,4.81588 -1.49702,6.81088 -0.25707,2.00448 -0.36669,2.33217 -0.72913,2.17952 -3.99601,-1.68309 -10.0853,-2.49083 -14.84636,-1.96936 -11.42554,1.25141 -20.15503,4.99691 -27.04249,11.60294 -6.25989,6.0041 -10.40069,13.42175 -12.51119,22.41198 -0.55383,2.35917 -1.18033,6.99608 -1.18698,8.78515 -0.004,1.0203 -0.10478,1.38906 -0.3804,1.38906 -0.20638,0 -0.55153,0.0676 -0.76699,0.15033 -0.21546,0.0827 -0.45575,0.0468 -0.53397,-0.0798 z"
       id="path1" /></g></svg>
