<?xml version="1.0" encoding="UTF-8" standalone="no"?>
<!-- Created with Inkscape (http://www.inkscape.org/) -->

<svg
   width="211.00388mm"
   height="187.97334mm"
   viewBox="0 0 211.00388 187.97334"
   version="1.1"
   id="svg1"
   xml:space="preserve"
   inkscape:version="1.4 (86a8ad7, 2024-10-11)"
   sodipodi:docname="deco1.svg"
   xmlns:inkscape="http://www.inkscape.org/namespaces/inkscape"
   xmlns:sodipodi="http://sodipodi.sourceforge.net/DTD/sodipodi-0.dtd"
   xmlns="http://www.w3.org/2000/svg"
   xmlns:svg="http://www.w3.org/2000/svg"><sodipodi:namedview
     id="namedview1"
     pagecolor="#ffffff"
     bordercolor="#000000"
     borderopacity="0.25"
     inkscape:showpageshadow="2"
     inkscape:pageopacity="0.0"
     inkscape:pagecheckerboard="0"
     inkscape:deskcolor="#d1d1d1"
     inkscape:document-units="mm"
     inkscape:zoom="0.76167929"
     inkscape:cx="384.01989"
     inkscape:cy="550.75673"
     inkscape:window-width="1828"
     inkscape:window-height="1057"
     inkscape:window-x="2004"
     inkscape:window-y="-8"
     inkscape:window-maximized="1"
     inkscape:current-layer="layer1" /><defs
     id="defs1" /><g
     inkscape:label="Warstwa 1"
     inkscape:groupmode="layer"
     id="layer1"
     transform="translate(-3.6376004,-2.7929815)"><path
       style="fill:#000000;stroke-width:1.15507"
       d="m 47.977722,190.40422 c -5.176323,-1.24027 -8.501838,-5.63455 -8.224777,-10.8681 0.208747,-3.94308 2.915385,-6.61685 6.933726,-6.84949 2.204673,-0.12765 3.71182,0.31493 5.251869,1.5422 1.747256,1.39241 2.428614,3.72708 1.406343,4.81885 -0.621276,0.66351 -2.137673,1.16485 -3.201777,1.05854 -1.175481,-0.11743 -1.809856,-0.54838 -2.454012,-1.66705 -0.512818,-0.8906 -0.832465,-0.95978 -1.68577,-0.36484 -1.021708,0.71233 -1.668088,2.16472 -1.505367,3.38249 0.229882,1.72041 1.965082,3.78247 3.734027,4.43742 2.459095,0.91048 5.209851,0.59208 7.791866,-0.90192 4.046525,-2.34139 5.725089,-5.42533 5.164387,-9.48828 -0.356884,-2.58604 -1.693538,-5.29079 -3.481548,-7.04498 -0.441014,-0.43268 -1.675252,-1.30753 -2.742749,-1.94411 -2.829441,-1.6873 -7.809647,-5.44698 -9.52758,-7.19262 -1.518347,-1.54282 -1.911417,-1.7923 -0.958764,-0.60852 0.453758,0.56385 0.528356,0.91575 0.516219,2.43512 -0.01485,1.85886 -0.587847,4.77781 -1.299734,6.62108 -0.826318,2.13956 -2.479372,3.98167 -8.213848,9.15329 -10.856871,9.79123 -11.366819,10.22092 -12.975308,10.93335 -1.909922,0.84593 -2.663659,0.85131 -3.595191,0.0257 -0.664161,-0.58868 -0.709508,-0.71965 -0.581311,-1.67906 0.319698,-2.39256 3.13008,-5.23681 6.699994,-6.78072 l 1.000943,-0.43289 -2.062404,0.0874 c -7.521064,0.31873 -14.4578858,-3.62254 -17.2390968,-9.79466 -1.645541,-3.65182 -1.898853,-8.19503 -0.647231,-11.60829 1.867264,-5.09217 6.9752858,-8.82622 13.2553058,-9.68986 4.461339,-0.61354 9.301152,1.67931 11.947694,5.6602 1.316238,1.97987 1.665387,3.24331 1.53005,5.53666 -0.134824,2.28463 -0.944759,4.06705 -2.549078,5.60972 -1.958705,1.88345 -5.714967,2.87553 -8.420779,2.22406 -1.849094,-0.44521 -3.573325,-2.29923 -3.586705,-3.85669 -0.01581,-1.84072 1.782723,-4.0779 3.313655,-4.1218 1.376868,-0.0394 1.825003,0.0372 3.278391,0.5606 0.774642,0.27899 1.56967,0.50726 1.766729,0.50726 1.069825,0 1.803279,-2.10846 1.304536,-3.75015 -0.352181,-1.15926 -1.839997,-2.7336 -3.204021,-3.39034 -1.846288,-0.88895 -3.696034,-0.9795 -6.061471,-0.29671 -3.761613,1.08578 -6.37314,3.22409 -7.720337,6.32139 -0.741812,1.70548 -0.925837,5.53322 -0.350886,7.29844 0.935904,2.87345 3.351413,5.49073 6.383744,6.91701 3.112669,1.46407 7.941903,2.04498 11.185404,1.34549 5.313951,-1.146 9.607712,-4.87683 11.454551,-9.95281 0.723368,-1.98816 0.983896,-5.46124 0.622106,-8.29326 -0.221584,-1.73452 -0.30122,-1.91254 -1.775858,-3.96997 -6.3578,-8.87039 -10.170794,-17.7545 -10.475313,-24.40703 -0.265787,-5.80639 1.8413,-12.21984 6.021387,-18.32761 0.803523,-1.17406 1.460951,-2.1856 1.460951,-2.24783 0,-0.0623 -0.769089,0.43757 -1.709087,1.11068 -0.939999,0.67311 -2.66382,1.82029 -3.830715,2.54928 -10.083844,6.29964 -14.368756,9.58701 -16.881026,12.95108 -1.758929,2.35531 -2.228574,3.20973 -2.827019,5.14317 -1.5652708,5.05705 1.613931,9.11969 6.20986,7.93546 1.503779,-0.38747 3.102353,-1.38015 3.889243,-2.41511 0.698495,-0.9187 0.67827,-0.98836 -0.258813,-0.89139 -0.987555,0.10218 -2.238333,-0.79312 -2.963857,-2.12152 -0.735115,-1.34597 -0.646858,-2.25266 0.306492,-3.14863 0.700947,-0.65876 0.929602,-0.74618 1.951474,-0.74618 1.673288,0 4.30696,1.15373 5.240127,2.29552 1.639717,2.00631 1.450745,4.6657 -0.508696,7.15884 -1.04947,1.33532 -2.526537,2.29778 -5.309894,3.45993 -1.66357,0.69461 -1.988664,0.75726 -3.935011,0.75832 -2.926638,10e-4 -4.223111,-0.42241 -6.1326508,-2.00569 -2.59812,-2.1542 -3.666166,-4.45358 -3.680757,-7.92423 -0.01547,-3.68012 1.406055,-6.87116 4.887269,-10.97094 1.4603698,-1.71986 4.9395148,-4.9624 6.1048198,-5.68966 l 0.707209,-0.44136 -2.030516,-0.007 c -3.753329,-0.0123 -5.7161898,-0.5963 -7.8713918,-2.34217 -2.070522,-1.67728 -3.182811,-3.85171 -3.180139,-6.21691 0.0018,-1.57565 0.308315,-2.44386 1.383343,-3.91811 1.225282,-1.68031 2.457598,-2.222873 5.0980888,-2.244583 2.107185,-0.0174 3.073421,0.29033 4.328977,1.378363 0.815556,0.70674 1.479471,2.34113 1.21358,2.98752 -0.492773,1.19797 -2.590492,1.58009 -4.108681,0.74843 -0.977866,-0.53566 -1.366278,-0.53863 -1.9014458,-0.0144 -0.849715,0.83222 0.208182,3.68019 1.6857928,4.53833 1.570058,0.91183 5.380854,1.13146 8.098098,0.46671 1.855117,-0.45383 2.650487,-0.80567 11.546337,-5.10759 3.046892,-1.47343 6.653656,-3.14142 8.015033,-3.70662 1.361377,-0.56521 4.225573,-1.807043 6.364878,-2.759613 6.627553,-2.95107 10.254378,-4.170717 14.465794,-4.86464 3.110533,-0.512535 13.326886,-0.506488 16.17992,0.0091 1.717626,0.31069 5.087888,1.13743 6.254902,1.53436 0.422615,0.14374 -2.901183,-3.807221 -6.178804,-7.344684 -1.440896,-1.555129 -2.640584,-2.645605 -3.158969,-2.871396 -1.295165,-0.564144 -5.083602,-1.196445 -7.171656,-1.196979 -1.486181,-3.75e-4 -2.310582,0.131199 -3.889648,0.620776 -2.365812,0.733496 -3.147745,0.771411 -4.198505,0.203584 -2.025406,-1.094521 -1.873926,-4.27913 0.272568,-5.730279 2.956057,-1.99845 9.124824,-1.244292 12.707113,1.553492 1.387337,1.08352 1.433813,0.865037 0.116912,-0.54963 -0.550508,-0.59125 -2.32224,-2.51877 -3.937183,-4.283256 -4.20836,-4.598037 -7.140299,-7.14339 -13.63285,-11.835257 -2.083981,-1.505986 -6.35961,-3.471727 -9.597614,-4.412524 -10.265454,-2.982616 -20.09902,-1.283501 -26.726069,4.617915 -4.108012,3.658206 -6.245189,8.075241 -6.551728,13.540883 -0.309034,5.510148 1.521256,9.763775 5.859565,13.617735 2.924073,2.597621 6.760335,4.27943 11.392425,4.9944 3.416371,0.52732 7.579828,-0.1492 11.245497,-1.827282 3.444398,-1.576791 6.046375,-4.03295 6.990218,-6.598487 2.287897,-6.218902 0.131433,-12.68553 -4.980996,-14.936594 -4.81397,-2.119647 -9.314138,-1.592406 -12.804881,1.500202 -1.387604,1.229346 -1.986382,2.522815 -1.986382,4.29095 0,2.009758 1.730807,4.375359 3.432491,4.691379 0.881045,0.163624 1.307387,-0.21221 1.730805,-1.525739 0.161796,-0.501919 0.561495,-1.132174 0.88822,-1.400563 1.140222,-0.936625 3.663221,-0.877208 5.093452,0.11996 0.820059,0.571747 1.584788,2.045456 1.584788,3.054045 0,1.576541 -1.75479,3.413572 -4.243251,4.442107 -1.10068,0.454936 -1.63487,0.536765 -3.536045,0.541709 -2.047665,0.0057 -2.371372,-0.05137 -3.779105,-0.662111 -5.39537,-2.340621 -7.690431,-8.872133 -4.92261,-14.009253 0.72479,-1.345226 3.757181,-3.980909 5.519276,-4.797223 2.244991,-1.040037 4.992318,-1.58827 8.015032,-1.59943 4.414384,-0.01625 7.847952,1.141425 10.733386,3.619042 1.359143,1.167043 1.821819,1.763895 2.929348,3.778836 1.730396,3.148138 2.11018,4.873721 1.952245,8.8702 -0.08809,2.229117 -0.240232,3.273291 -0.63932,4.387861 -1.292127,3.608586 -3.651623,6.775711 -6.36869,8.548581 -1.710941,1.11638 -4.863982,2.2522 -8.461871,3.0482 -6.810628,1.506813 -10.893649,1.210123 -16.836262,-1.22335 -2.492338,-1.02061 -3.769114,-1.79104 -5.845864,-3.52749 -3.8429968,-3.213283 -6.4480248,-7.559468 -7.4221518,-12.383001 -0.436726,-2.162517 -0.420086,-7.057901 0.03134,-9.222748 0.988738,-4.741454 3.497905,-9.035632 7.1938968,-12.311582 3.811514,-3.378339 9.993853,-6.181931 15.449821,-7.006246 4.31788,-0.65236 11.1704,-0.181513 14.223465,0.977313 0.31596,0.119925 -0.490807,-0.704686 -1.792815,-1.832485 -1.604293,-1.389629 -3.595876,-3.507959 -6.179131,-6.572381 -5.694958,-6.755735 -7.899963,-8.430073 -12.34609,-9.374859 -3.435887,-0.730109 -6.582163,-0.46754 -9.069619,0.756886 -2.265859,1.115342 -3.192863,2.51811 -3.16231,4.7853 0.01811,1.344124 0.422651,2.27318 1.434642,3.294783 1.504565,1.518851 3.528638,2.083825 4.987059,1.392005 0.535123,-0.253841 0.535406,-0.256455 0.06427,-0.594603 -0.777719,-0.558188 -0.983477,-1.056505 -0.775115,-1.87724 0.494082,-1.94617 3.23593,-2.36734 5.135415,-0.788822 1.991284,1.65479 1.863039,3.998093 -0.337537,6.167498 -1.540916,1.519101 -2.931045,1.980072 -5.629483,1.866773 -1.83889,-0.07717 -2.347069,-0.185696 -3.663449,-0.782105 -4.3302738,-1.961888 -6.8845458,-6.51534 -5.8202978,-10.375744 1.15427,-4.186936 4.307816,-7.192907 8.7631078,-8.35304 2.079335,-0.541436 5.62117,-0.504408 7.965878,0.08331 3.227878,0.809063 6.246911,2.332335 8.751933,4.415842 0.807271,0.671431 1.321181,0.984166 1.219844,0.742327 -0.732544,-1.748155 -1.837054,-4.602799 -3.193365,-8.253334 -2.393058,-6.440977 -3.966387,-8.920749 -6.151602,-9.695732 -1.095616,-0.388558 -1.402733,-0.304963 -1.402733,0.381809 0,0.638435 -0.756393,1.463749 -1.638234,1.787507 -1.422192,0.522143 -3.373726,-0.28547 -4.017232,-1.662471 -0.170592,-0.365043 -0.252933,-1.142195 -0.195536,-1.845523 0.303544,-3.71955 5.484439,-5.554364 9.933496,-3.517949 1.146558,0.524801 1.720571,0.977178 2.691918,2.121488 0.679034,0.799948 1.499691,2.041362 1.82368,2.758697 0.678593,1.502453 2.080841,6.284231 2.560619,8.731911 0.318764,1.626241 0.33223,1.648903 0.496649,0.835783 0.09295,-0.459675 0.528001,-1.983539 0.966779,-3.386352 1.310306,-4.189169 2.857754,-6.501747 6.353948,-9.495636 3.479137,-2.979283 5.970636,-4.437949 10.073581,-5.897656 5.353513,-1.9046202 13.359918,-2.0755802 19.158396,-0.409089 1.670096,0.479987 5.98134,2.402095 7.676687,3.422542 3.369396,2.028074 6.368238,5.075215 8.113489,8.244159 1.389882,2.523685 1.770733,3.902569 1.933325,6.999666 0.302289,5.758102 -1.246989,10.005308 -4.91877,13.484376 -4.18527,3.9656 -9.839819,6.155303 -15.897356,6.156212 -3.578913,5.34e-4 -7.210832,-0.769467 -10.662262,-2.260496 -3.090412,-1.335066 -6.470698,-4.832159 -7.776498,-8.045215 -0.547133,-1.346271 -0.610315,-1.808868 -0.618598,-4.52913 -0.0082,-2.694804 0.05114,-3.162174 0.536845,-4.228124 1.238068,-2.717091 4.045521,-5.601601 6.649082,-6.831577 1.709911,-0.807797 4.589121,-1.477022 6.354605,-1.477022 3.820274,0 8.320653,2.453053 9.848199,5.368023 0.578048,1.10308 0.636556,1.442398 0.641596,3.721101 0.005,2.266543 -0.05298,2.617749 -0.603866,3.656888 -1.16031,2.188726 -3.269491,3.265665 -6.049362,3.088801 -1.826547,-0.11622 -3.241011,-0.670158 -4.146381,-1.623854 -1.904571,-2.006212 -0.728526,-4.853276 2.128654,-5.153214 1.156717,-0.121425 1.242065,-0.09479 2.082739,0.65036 0.79002,0.700242 0.912519,0.745134 1.240305,0.454607 0.488827,-0.433274 0.482984,-2.539307 -0.0094,-3.371987 -0.996782,-1.685828 -3.166258,-2.68369 -5.834655,-2.68369 -2.296755,0 -3.531471,0.485714 -5.364218,2.11017 -3.388069,3.003028 -3.779191,6.549344 -1.206564,10.939944 1.675791,2.860009 4.50845,4.729577 8.383283,5.533015 2.496947,0.517728 7.418871,0.31902 9.69966,-0.39161 2.47447,-0.770967 4.16331,-1.716741 6.051636,-3.388999 2.920145,-2.586006 4.362731,-5.816882 4.387208,-9.825772 0.01565,-2.56248 -0.409845,-4.152477 -1.787849,-6.680911 -1.875729,-3.441688 -4.89247,-5.995344 -9.43723,-7.988566 -2.360352,-1.035193 -2.928112,-1.225581 -4.83252,-1.620488 -4.731417,-0.981127 -11.512363,-0.401993 -15.718336,1.342442 -5.69425,2.361699 -10.29434,7.281791 -12.222136,13.072362 -0.483855,1.453366 -0.653373,2.497483 -0.746309,4.596798 -0.200271,4.523846 0.627008,7.831368 3.018746,12.069175 2.710001,4.801701 4.636407,6.827938 10.682867,11.236438 7.589336,5.533424 8.939427,6.599658 13.032112,10.292119 4.21568,3.803419 4.28511,3.854346 3.808851,2.794033 -1.047197,-2.331403 -1.398664,-3.625611 -1.539785,-5.669919 -0.281627,-4.07974 1.252765,-7.95893 4.245814,-10.734098 1.846741,-1.712309 3.702864,-2.564776 7.10881,-3.264892 2.053376,-0.422091 4.439347,-0.425409 4.831388,-0.0068 0.81765,0.873231 -0.650381,3.035691 -5.318914,7.834925 -1.868713,1.92103 -4.259943,4.994942 -4.9044,6.304573 -1.740705,3.537372 -1.839701,8.150058 -0.248556,11.581359 1.096625,2.364874 5.056725,8.027565 6.341555,9.068022 l 0.64505,0.522366 -0.155797,-0.940251 c -0.335427,-2.024351 -0.417081,-7.065243 -0.144064,-8.893783 1.024832,-6.863864 3.726346,-13.028974 9.333015,-21.298821 3.872569,-5.712062 5.222761,-8.655024 5.773701,-12.584744 0.28226,-2.013304 0.18898,-2.877147 -0.52174,-4.831819 -0.38396,-1.055982 -0.7908,-1.617171 -1.987648,-2.741697 -0.998482,-0.938148 -1.504863,-1.584724 -1.504863,-1.921473 0,-1.326371 1.321905,-2.398208 2.711261,-2.198374 1.7797,0.255988 3.68623,1.952261 5.01049,4.457949 0.60507,1.144881 0.64651,1.4037 0.64098,4.003537 -0.007,3.163788 -0.16427,3.152036 1.951917,0.145713 1.9219,-2.730298 4.7725,-7.810479 5.80358,-10.342796 2.50269,-6.146586 2.67905,-11.878196 0.47589,-15.4661 -2.14194,-3.4881812 -6.12848,-5.3643662 -9.758297,-4.5925472 -2.71989,0.578338 -4.441726,3.1641792 -3.76696,5.6572252 0.23537,0.869656 1.4728,2.549109 1.68181,2.282586 0.0451,-0.05746 0.29409,-0.480178 0.5534,-0.939373 0.58018,-1.027411 1.80826,-1.484205 3.12433,-1.162121 1.1282,0.27611 2.612127,1.219479 3.021217,1.920665 0.79381,1.360616 0.0575,4.016024 -1.463,5.276175 -2.227397,1.845996 -7.094777,1.311273 -10.051275,-1.104219 -1.94501,-1.589093 -3.263848,-5.220421 -2.881382,-7.93368 0.498832,-3.5387792 3.449816,-6.7874692 7.42794,-8.1772953 1.64287,-0.5739633 4.85711,-0.7759972 6.876227,-0.4322102 3.39447,0.577965 7.12185,2.8043713 9.10757,5.4400603 2.10079,2.7884302 3.35089,7.5410352 2.88747,10.9774882 -0.13948,1.03428 -0.40042,2.429572 -0.57987,3.100651 -0.17944,0.671079 -0.24639,1.141205 -0.14876,1.044726 0.48545,-0.479715 5.63517,-13.409903 5.98269,-15.0216212 0.51727,-2.39902 1.41303,-3.436516 2.96707,-3.436516 1.98026,0 1.88007,4.097645 -0.22498,9.2023142 -0.25733,0.624021 -0.46787,1.167513 -0.46787,1.207759 0,0.04024 1.14037,-0.808182 2.53416,-1.885396 5.83653,-4.5108672 9.67013,-6.7211252 14.77504,-8.5185472 2.81905,-0.9925797 5.897,-1.4736533 10.27194,-1.6054721 7.93932,-0.239215 13.70663,1.2281801 19.17695,4.8792561 6.7962,4.5360102 10.57614,10.9408382 11.1355,18.8682952 0.0954,1.352818 0.0438,2.954931 -0.13474,4.178913 -0.29724,2.037739 -1.25397,5.109173 -1.66091,5.33209 -0.12565,0.06887 -0.22846,0.206016 -0.22846,0.304847 0,0.09888 0.92822,-0.228258 2.0627,-0.726881 1.13448,-0.498635 3.33566,-1.348829 4.89153,-1.889333 3.74347,-1.300493 5.14858,-1.94001 8.28128,-3.76913 3.22275,-1.881719 5.25968,-3.781735 6.64977,-6.202832 1.24108,-2.161574 1.54207,-3.514551 1.19147,-5.355984 -0.57375,-3.013603 -2.74886,-5.724546 -5.58667,-6.962954 -1.27439,-0.556138 -1.89933,-0.695335 -3.34079,-0.744114 -1.5021,-0.05084 -1.91716,0.01401 -2.71541,0.424207 -1.29853,0.667278 -2.04389,1.929562 -2.17507,3.683498 -0.0934,1.248857 -0.0386,1.4721 0.55768,2.272897 0.70888,0.951976 1.05891,1.144477 0.86094,0.47348 -0.33978,-1.151658 0.90148,-2.299401 2.48845,-2.300971 0.57979,-5.74e-4 0.99648,0.182494 1.56762,0.68872 1.54393,1.368462 1.59455,3.198641 0.13188,4.768069 -0.95989,1.02995 -2.02898,1.437628 -3.77004,1.437628 -2.46394,0 -4.04559,-0.894868 -5.21699,-2.951682 -1.47979,-2.598292 -1.79594,-5.283321 -0.87424,-7.424758 0.66865,-1.553498 3.02269,-3.7084782 4.9767,-4.5558322 1.77652,-0.770396 4.91146,-0.964745 7.22794,-0.448094 4.83588,1.078557 8.9885,4.7330112 10.24784,9.0184592 0.48347,1.645219 0.47302,5.113815 -0.0198,6.584817 -0.86605,2.584888 -3.41652,6.271029 -5.96538,8.62164 -1.40393,1.294753 -1.48198,1.410928 -0.84228,1.253679 1.7349,-0.426489 9.5923,-0.0308 11.98006,0.603263 1.98739,0.527775 3.20204,2.308866 2.47908,3.635192 -0.55256,1.013738 -1.54861,1.349817 -4.37359,1.475732 -2.45932,0.109674 -2.62278,0.08899 -4.90153,-0.617424 -1.29655,-0.401951 -2.91129,-0.92701 -3.58829,-1.166804 -0.71922,-0.254727 -2.04222,-0.484303 -3.18245,-0.552244 l -1.9515,-0.116266 1.76803,0.58484 c 2.35726,0.779752 4.52486,1.856612 7.06989,3.512323 2.5559,1.662768 4.51324,3.51854 6.50476,6.167179 1.89554,2.520997 3.04209,4.714859 3.80204,7.275055 0.51356,1.730141 0.59555,2.445975 0.58918,5.144008 -0.006,2.683757 -0.0953,3.434199 -0.61886,5.221859 -2.09269,7.144912 -7.48759,11.832381 -15.74567,13.680959 -4.8935,1.095419 -8.43012,1.064813 -12.44521,-0.107742 -3.2333,-0.944206 -6.2958,-2.919528 -8.45104,-5.450969 -2.40489,-2.824674 -3.19245,-5.03954 -3.18466,-8.956303 0.006,-2.789772 0.3889,-4.424662 1.49045,-6.356125 2.13264,-3.739399 5.35266,-6.022398 10.0237,-7.106816 2.22839,-0.517331 3.71938,-0.529901 5.79836,-0.04887 4.26542,0.986917 7.7172,4.472236 8.51543,8.598164 0.63985,3.307228 -1.36466,6.843429 -4.69878,8.289282 -1.15857,0.50242 -1.62756,0.581794 -3.47167,0.587613 -1.90633,0.0057 -2.24834,-0.05387 -3.22925,-0.564928 -1.29904,-0.676864 -2.05058,-1.867034 -2.24765,-3.559489 -0.20183,-1.733266 0.71499,-2.979808 2.36631,-3.217329 0.88388,-0.12713 1.02878,-0.03137 2.97842,1.968116 1.3374,1.371605 3.53953,-0.417521 3.53621,-2.872998 -10e-4,-1.103137 -0.96618,-2.705658 -2.28205,-3.790918 -1.54917,-1.277671 -3.10185,-1.628082 -5.57906,-1.259077 -5.41995,0.807346 -8.76681,4.5497 -8.72075,9.751273 0.0342,3.86262 2.61179,7.492095 6.52481,9.187527 2.60203,1.127401 4.3138,1.447205 7.58543,1.417178 7.15263,-0.06569 11.99441,-2.722512 15.15706,-8.317228 4.56546,-8.076253 -0.89508,-20.067725 -10.94968,-24.045769 -3.48861,-1.380253 -4.46285,-1.577314 -8.33276,-1.685476 -3.0979,-0.0866 -3.98294,-0.03751 -5.81613,0.322714 -6.78702,1.333565 -12.59401,5.312814 -18.03769,12.360361 -3.15404,4.08332 -9.32349,14.541393 -8.83415,14.975121 0.11716,0.103878 0.82093,-0.433933 3.38136,-2.584039 0.93098,-0.781798 2.257,-1.723527 2.9467,-2.092735 2.31076,-1.236984 5.58675,-1.635845 7.02493,-0.855297 0.93609,0.508034 1.48888,1.563892 1.35793,2.593655 -0.20332,1.598862 -1.36083,2.318026 -4.65363,2.891353 -3.9532,0.688297 -5.7952,1.343362 -8.60437,3.059944 -2.10077,1.283707 -3.86937,2.881978 -4.93645,4.461042 -0.82727,1.224198 -1.88227,3.440995 -1.71018,3.593527 0.0486,0.04307 1.45796,-0.433604 3.1318,-1.059369 5.34292,-1.99745 8.39409,-2.615271 12.94427,-2.621068 4.74982,-0.0057 8.91119,0.861729 13.20124,2.752847 2.6089,1.15004 4.18413,2.129137 6.19994,3.853607 3.72997,3.190905 7.97173,4.621858 13.01256,4.389759 4.7978,-0.220905 8.08484,-1.689795 10.143,-4.53263 0.7261,-1.002942 0.75149,-1.102682 0.4719,-1.853601 -0.33325,-0.894972 -0.18734,-1.275978 0.80311,-2.097168 1.30359,-1.080815 3.28133,-0.371686 4.28343,1.535854 1.72555,3.284668 -0.47724,7.440145 -5.09331,9.608288 -2.51736,1.182386 -4.09304,1.464299 -8.25076,1.476175 -2.00966,0.0057 -4.13128,-0.05933 -4.71474,-0.144587 l -1.0608,-0.155032 3.2706,2.831834 c 3.62286,3.136828 5.94038,4.699508 7.56895,5.103658 1.24597,0.3092 1.39515,0.24808 1.09609,-0.4491 -0.43643,-1.01747 0.79945,-2.49122 2.34074,-2.79128 0.94502,-0.18397 2.53929,0.52173 3.23346,1.43132 1.48672,1.94806 1.33581,4.781933 -0.33344,6.261483 -1.27105,1.12659 -2.50652,1.47166 -4.85351,1.3556 -3.96009,-0.19583 -6.79839,-1.79909 -10.09525,-5.702483 -0.87358,-1.03428 -1.8262,-2.06856 -2.11696,-2.2984 l -0.52866,-0.41789 0.20899,1.04472 c 0.11492,0.57462 0.20495,2.31408 0.20002,3.865503 -0.007,2.26101 -0.11575,3.17321 -0.54702,4.5968 -2.32214,7.66511 -9.67747,13.79836 -18.18504,15.16365 -2.35467,0.37788 -5.59539,0.37003 -8.16096,-0.0198 -8.54659,-1.2985 -14.02268,-5.30473 -16.13042,-11.80074 -0.77104,-2.37632 -0.89269,-6.59825 -0.2628,-9.119533 1.05434,-4.22015 3.53295,-6.951205 8.18283,-9.016244 2.85576,-1.26826 5.46473,-1.647357 8.83746,-1.284103 5.74308,0.618537 9.57147,3.238968 11.45633,7.841557 1.15444,2.81897 0.89897,5.418413 -0.77273,7.862593 -1.0221,1.49441 -2.35747,2.53597 -4.3284,3.37604 -1.41262,0.6021 -1.71639,0.65202 -3.88965,0.63912 -2.75709,-0.0164 -3.95052,-0.3896 -5.6281,-1.7602 -1.30311,-1.06466 -1.79907,-1.97003 -1.79241,-3.27208 0.0153,-2.98153 2.9224,-4.868373 6.17156,-4.005543 2.03137,0.539453 2.47001,2.331313 0.9911,4.048613 l -0.84721,0.98376 1.30449,-0.0959 c 4.10527,-0.30175 5.70942,-4.654343 3.07736,-8.349953 -1.64971,-2.316335 -6.86868,-3.678302 -10.70248,-2.79299 -3.40213,0.78564 -5.54618,2.31813 -6.96891,4.98112 -1.77894,3.329733 -1.65404,6.596663 0.39568,10.348213 1.51195,2.76732 3.18795,4.29924 6.23806,5.70184 2.94165,1.35271 4.90549,1.74132 8.82168,1.74563 4.23281,0.005 6.14481,-0.4397 9.19371,-2.13663 3.56362,-1.98341 6.73784,-5.90466 8.0234,-9.91164 1.88886,-5.887423 -0.51989,-13.124479 -6.00467,-18.040979 -5.85262,-5.246203 -14.34997,-7.499744 -22.40991,-5.94324 -9.2365,1.783705 -15.94096,6.300833 -23.29308,15.693686 -0.86741,1.10818 -1.5771,2.05843 -1.5771,2.11169 0,0.0532 0.71604,0.15708 1.59122,0.23071 0.87517,0.0737 1.98131,0.23071 2.45809,0.34905 1.39228,0.34557 3.06599,1.47432 3.84099,2.590393 0.60901,0.87705 0.71279,1.23056 0.70536,2.40287 -0.0149,2.35111 -1.42252,3.98373 -3.43625,3.98557 -0.96017,8.9e-4 -2.09484,-0.81379 -2.09484,-1.50407 0,-0.72839 -0.435,-1.14603 -1.69968,-1.63179 -1.83317,-0.70411 -4.15232,-0.78708 -6.05348,-0.21656 -4.9401,1.48251 -8.21296,4.11691 -11.48764,9.24671 -1.49157,2.33654 -4.82284,9.47816 -4.79711,10.28412 0.004,0.12353 0.12675,0.0366 0.27292,-0.1933 0.56023,-0.88099 3.31042,-3.61083 4.9553,-4.91869 6.12925,-4.87333 11.00266,-6.68753 17.9709,-6.68998 2.30089,-7.9e-4 3.53658,0.10331 4.893,0.41214 8.10259,1.84491 13.36752,6.04534 16.21556,12.93699 1.285,3.10942 4.29986,6.10776 7.57947,7.53793 2.68073,1.16901 5.50462,1.78011 7.50397,1.62386 2.17818,-0.17021 3.77243,-0.64861 5.13144,-1.53985 1.44019,-0.94446 2.18659,-1.87555 2.34442,-2.92454 0.1602,-1.06472 -0.5598,-1.93981 -1.46924,-1.78571 -0.3389,0.0574 -0.67336,0.23647 -0.74326,0.3979 -0.16899,0.39034 -1.32072,0.90489 -2.02545,0.90489 -0.68818,0 -1.34479,-0.59971 -1.34479,-1.22826 0,-1.1642 1.30966,-2.4303 3.41817,-3.30449 1.1365,-0.47119 1.74594,-0.58641 3.10163,-0.58641 1.53293,0 1.76921,0.0588 2.5839,0.64327 2.08239,1.49387 2.59752,4.04441 1.30493,6.46087 -0.87619,1.63801 -1.60919,2.38285 -3.78257,3.84377 -2.39684,1.61112 -2.85947,1.86583 -4.39122,2.41762 l -1.3076,0.47106 2.18841,0.13242 c 1.20362,0.0728 4.15092,0.0479 6.54954,-0.0555 9.01954,-0.38857 15.25426,-2.53482 19.47752,-6.70494 1.92672,-1.90249 3.62667,-4.75777 4.15048,-6.97124 0.8337,-3.52297 -1.46776,-8.37845 -4.61045,-9.7269 -1.3515,-0.5799 -4.72981,-0.62004 -5.47791,-0.0651 -0.77079,0.57178 -1.29083,1.4499 -1.39188,2.35028 -0.098,0.87341 0.0914,1.04204 0.582,0.51807 0.1614,-0.17238 0.63191,-0.31342 1.04557,-0.31342 1.64158,0 2.70336,2.0275 2.02121,3.85953 -0.39993,1.07411 -2.04096,1.99542 -3.52547,1.97927 -3.44444,-0.0375 -5.44166,-2.39461 -5.47173,-6.45782 -0.0106,-1.4493 0.0816,-1.8559 0.64536,-2.84359 1.30072,-2.27866 4.37525,-4.02637 7.40669,-4.21035 1.81758,-0.11035 5.0181,0.49734 7.00275,1.32953 2.85431,1.19686 5.45816,4.52706 6.32901,8.09452 1.46033,5.98229 -2.14688,13.3542 -8.50287,17.37694 -2.70518,1.71213 -8.83498,4.057 -11.66526,4.46237 l -1.0608,0.15194 1.76802,0.26561 c 0.97241,0.14607 2.3656,0.39829 3.09598,0.56047 1.44057,0.31988 7.0275,0.91766 8.60707,0.92091 0.53738,0.001 1.67955,0.19433 2.53815,0.42938 4.28643,1.17349 5.5945,4.98664 2.20895,6.43931 -2.56025,1.09853 -7.56394,0.0384 -11.0953,-2.35083 -1.13174,-0.7657 -2.90938,-1.79955 -3.0942,-1.79955 -0.0583,0 0.9289,0.91674 2.19388,2.03721 2.49212,2.20745 3.70751,3.71627 5.34378,6.63402 1.5938,2.84199 2.22423,5.35884 2.22423,8.8796 0,5.54031 -1.31438,9.4813 -4.74585,14.22973 -0.63115,0.87338 -1.14754,1.63922 -1.14754,1.70187 0,0.0626 0.98124,-0.11402 2.18056,-0.39257 1.1993,-0.27855 3.15915,-0.56442 4.3552,-0.63528 2.6835,-0.15897 3.75525,0.1483 5.26208,1.50865 l 1.04978,0.94773 0.0701,1.9242 c 0.0559,1.53333 -0.016,2.06973 -0.3536,2.64066 -0.59644,1.00864 -1.50002,1.53446 -2.63688,1.53446 -1.59094,0 -2.79667,-0.9924 -3.07399,-2.53009 -0.12801,-0.7098 -0.23237,-0.7938 -1.43294,-1.15345 -0.92729,-0.27778 -1.96288,-0.38619 -3.64804,-0.38188 l -2.35315,0.006 -4.82774,2.12764 c -8.01653,3.53298 -12.28662,4.57646 -19.4058,4.7422 -6.50773,0.15151 -10.80276,-0.57699 -15.68509,-2.6604 -4.64269,-1.98115 -8.09573,-4.34128 -10.42436,-7.12498 -1.91209,-2.28577 -2.60531,-3.64093 -3.72927,-7.29033 l -0.22523,-0.73131 -0.0241,0.92693 c -0.0598,2.30355 -1.69262,5.96027 -3.69723,8.28004 -2.75596,3.18922 -5.85302,5.21097 -9.7638,6.37376 -1.91934,0.57068 -2.67759,0.68088 -5.30407,0.77082 -2.64944,0.0907 -3.35196,0.0413 -5.1862,-0.3652 -1.16689,-0.25858 -2.7581,-0.75403 -3.53603,-1.10097 -2.7206,-1.21336 -6.30789,-5.02367 -7.62082,-8.09465 -0.49714,-1.16281 -0.5818,-1.71878 -0.58867,-3.86549 -0.007,-2.17619 0.0716,-2.70269 0.59514,-3.98635 0.73482,-1.80187 1.40847,-2.77124 2.99517,-4.31002 2.17254,-2.10697 5.22152,-3.50905 7.63076,-3.50905 3.79727,0 8.10649,2.25766 9.57157,5.01469 0.87735,1.65101 0.99498,4.29903 0.2584,5.81668 -0.5404,1.11342 -1.93722,2.41195 -2.9683,2.7594 -0.93849,0.31627 -2.47922,0.22514 -3.56244,-0.21071 -1.32426,-0.53282 -1.94768,-1.45943 -1.94881,-2.89662 -7.6e-4,-0.95216 0.0987,-1.20132 0.68819,-1.7238 0.78004,-0.69139 1.62317,-0.7835 2.50166,-0.27332 l 0.58104,0.33745 v -0.76571 c 0,-1.92331 -2.30721,-3.69473 -4.83853,-3.71489 -1.54838,-0.0124 -3.09844,0.613 -4.14944,1.674 -1.0979,1.10832 -2.3568,3.65414 -2.50022,5.05604 -0.22995,2.24777 1.25376,5.38009 3.3335,7.03744 2.48149,1.97753 4.94681,2.85042 7.95305,2.81593 2.41841,-0.0277 3.64402,-0.30644 6.33079,-1.43956 5.06916,-2.13785 8.01503,-6.33526 8.01503,-11.42016 0,-3.72136 -1.84181,-7.85271 -4.76445,-10.68712 -3.4375,-3.33373 -7.97143,-5.069 -13.74085,-5.25903 -3.23431,-0.10649 -5.81312,0.22082 -9.65554,1.22565 -4.2089,1.10066 -11.71589,5.51905 -19.575737,11.52172 -1.037243,0.79215 -1.915498,1.51 -1.95168,1.59522 -0.03618,0.0852 1.024631,0.11444 2.35737,0.065 2.92045,-0.10843 5.22564,0.27173 7.292157,1.20251 3.31649,1.49379 4.97375,3.1319 6.44755,6.37302 0.56525,1.24308 0.66575,1.76056 0.66952,3.4476 0.004,1.6903 -0.0903,2.18608 -0.63364,3.33959 -0.81887,1.73846 -1.98331,2.801 -4.03797,3.6846 -1.39296,0.59904 -1.89607,0.70647 -3.300307,0.70475 -2.00642,-0.002 -3.64339,-0.59871 -4.7721,-1.73815 -2.25149,-2.27287 -1.01166,-5.55456 1.91468,-5.06797 1.08695,0.18074 2.35508,1.43432 2.15735,2.1326 -0.20592,0.72721 0.59172,0.65475 1.622437,-0.14738 1.72202,-1.34012 1.73051,-3.98144 0.0202,-6.27827 -0.78671,-1.05647 -3.575247,-2.63766 -5.989767,-3.39639 -2.00966,-0.63149 -2.09174,-0.6392 -7.630256,-0.71615 -3.943949,-0.0548 -5.598736,-0.0102 -5.598736,0.15041 0,0.12552 0.194184,0.22822 0.43152,0.22822 0.237337,0 0.90196,0.21155 1.476942,0.47013 4.664708,2.09772 6.721898,7.33817 4.515517,11.50278 -0.941428,1.77696 -2.948666,3.59996 -4.891693,4.44267 -1.781659,0.77274 -4.15632,0.85736 -5.657671,0.20161 -1.293331,-0.56489 -3.019683,-2.13812 -3.752196,-3.41938 -1.836977,-3.21311 0.613424,-6.81224 4.228709,-6.21109 1.876116,0.31196 3.337022,2.30572 2.747791,3.75002 -0.323415,0.79275 -0.35936,1.38209 -0.0843,1.38209 0.106312,0 0.651158,-0.34737 1.210758,-0.77193 1.889325,-1.4334 2.657704,-3.97673 1.770215,-5.85939 -1.011044,-2.14477 -3.606809,-4.26424 -6.338816,-5.17569 -1.588145,-0.52984 -2.73815,-0.79259 -8.736575,-1.99608 -3.801843,-0.76279 -3.702507,-0.76159 -3.305049,-0.0396 0.907198,1.64807 1.206334,7.25148 0.499164,9.35031 -1.355121,4.02188 -5.567754,7.94187 -10.232185,9.52136 -1.957745,0.66294 -5.266569,0.74929 -7.569402,0.19752 z m 138.566418,-7.04018 c 3.17147,-0.80264 8.2335,-3.34204 10.12696,-5.08028 2.01208,-1.84712 4.14644,-5.94504 4.96941,-9.54114 0.59242,-2.58869 0.62875,-5.51494 0.10518,-8.47333 -0.81817,-4.62299 -4.43417,-9.75772 -9.02945,-12.82182 -7.35757,-4.90599 -16.68413,-6.365 -25.24326,-3.94895 -8.83544,2.49404 -15.18211,9.24315 -16.88963,17.96059 -0.5012,2.55881 -0.33228,7.54392 0.32578,9.61473 1.11306,3.50257 2.5032,5.57648 5.4622,8.14887 0.92534,0.80445 1.79223,1.49574 1.92645,1.53623 0.1342,0.0405 -0.0322,-0.1712 -0.36972,-0.47039 -0.86782,-0.76919 -2.42742,-3.75929 -2.73558,-5.24474 -0.38232,-1.84291 -0.19098,-3.58789 0.52787,-4.81419 1.05187,-1.79439 2.95659,-2.50343 4.12081,-1.53399 0.5153,0.42908 0.52736,0.52918 0.39636,3.29088 -0.15939,3.36011 0.0783,4.62667 1.26158,6.72313 0.98657,1.74791 2.41665,2.81443 4.9251,3.673 1.39859,0.4787 2.00006,0.56138 4.11335,0.56541 4.11359,0.008 7.22334,-0.95124 10.78346,-3.32571 6.80508,-4.53873 9.1064,-12.99862 5.15975,-18.96771 -2.16033,-3.2674 -6.00057,-5.02738 -10.99275,-5.03799 -2.69977,-0.006 -3.77744,0.38186 -5.8964,2.1207 -2.18128,1.78995 -3.03035,3.37887 -3.09302,5.7881 -0.0421,1.62112 1.04941,3.6044 2.53846,4.61217 1.36893,0.92645 3.25637,1.33838 4.23246,0.92372 0.93391,-0.39674 0.96987,-0.89915 0.12536,-1.75167 -0.80083,-0.80844 -1.29354,-2.12639 -1.07864,-2.8853 0.25663,-0.90633 1.47967,-1.99563 2.51918,-2.24373 2.1796,-0.52021 4.78324,0.51558 5.6471,2.24653 0.99896,2.00165 0.19247,4.79057 -1.99301,6.89209 -1.82429,1.7542 -3.97135,2.40099 -7.12457,2.14625 -3.6992,-0.29884 -5.9061,-1.65256 -7.73128,-4.74233 -1.14054,-1.93079 -1.62304,-3.54289 -1.62962,-5.44475 -0.0106,-3.03112 1.6807,-6.55073 4.06347,-8.45677 3.09218,-2.47352 5.88073,-3.48029 9.65625,-3.48629 3.17784,-0.005 5.67521,0.51772 8.51737,1.78292 2.61011,1.16189 4.26799,2.49394 5.77979,4.64389 3.36869,4.79059 4.09064,10.47231 2.03212,15.99288 -1.35343,3.62965 -4.8441,7.70897 -8.56047,10.00404 l -0.57886,0.35748 0.82508,-0.12569 c 0.45379,-0.0691 1.71621,-0.35121 2.80537,-0.62684 z M 80.160759,167.93422 c 7.818796,-1.19087 13.014784,-4.89636 15.465794,-11.02938 1.27686,-3.195 1.29788,-6.68119 0.0611,-10.1372 -1.95839,-5.47253 -7.663403,-9.22476 -14.022685,-9.22282 -5.82085,0.002 -11.102553,3.04553 -12.972721,7.47593 -1.496279,3.54467 -0.717181,7.29308 2.032918,9.78082 1.389329,1.25679 2.724551,1.79822 4.719461,1.91371 3.418212,0.19791 5.831938,-1.28388 6.801757,-4.1756 0.388254,-1.15767 0.187081,-2.04049 -0.680707,-2.98721 l -0.574576,-0.62684 -0.364339,0.76424 c -0.785561,1.6478 -2.577562,2.12969 -3.931712,1.05726 -1.589083,-1.25849 -1.041572,-3.76069 1.112948,-5.08634 1.084481,-0.66727 1.253573,-0.70488 3.149762,-0.70054 1.634768,0.003 2.194345,0.0939 3.038714,0.48933 1.281738,0.60034 2.23138,1.49006 3.041098,2.84921 0.542189,0.9101 0.621266,1.28707 0.613633,2.92524 -0.0099,2.12048 -0.405469,3.34455 -1.619572,5.01145 -2.26458,3.10913 -5.584064,4.70451 -9.788598,4.70451 -7.164132,0 -12.951762,-5.15882 -13.371488,-11.91873 -0.43989,-7.08463 5.507599,-13.72237 14.021856,-15.6492 9.613056,-2.17548 20.434321,3.97323 23.785518,13.51509 0.56114,1.59773 0.64429,2.18694 0.65629,4.6503 0.008,1.55141 -0.0706,3.17336 -0.17375,3.6043 -0.35598,1.48774 0.19619,0.77589 1.21557,-1.56708 3.11916,-7.16917 3.78119,-9.60345 3.96844,-14.59206 0.13799,-3.67572 -0.0756,-5.26233 -1.13492,-8.43261 -0.63658,-1.90503 -2.52522,-4.65502 -4.41901,-6.43438 -3.423397,-3.21657 -7.757887,-3.84059 -9.46266,-1.36231 -0.70925,1.03107 -0.628782,1.19459 0.466567,0.94816 1.877526,-0.42241 2.835016,0.34211 2.835016,2.26367 0,3.27788 -4.444707,4.80581 -7.165884,2.46338 -1.076861,-0.92699 -1.556359,-2.28158 -1.556359,-4.39678 0,-2.29419 0.584329,-3.69883 2.030111,-4.88005 2.4354,-1.98975 5.449982,-2.54265 8.655302,-1.58745 5.053357,1.50593 9.141997,5.52328 10.971547,10.78027 0.56672,1.62837 -0.0241,-3.23919 -0.68376,-5.63374 -1.22499,-4.44643 -2.36221,-6.75979 -4.73766,-9.63749 -1.45788,-1.76612 -4.708817,-4.5318 -6.186307,-5.2629 -3.272014,-1.61906 -6.615712,-1.54674 -8.663127,0.18736 -0.536018,0.45399 -0.601859,0.64734 -0.498153,1.46285 0.150772,1.18563 -0.25171,1.87873 -1.262711,2.17448 -1.094052,0.32003 -2.409797,-0.0436 -3.385276,-0.93571 -0.658508,-0.60219 -0.815167,-0.92517 -0.902735,-1.86112 -0.05828,-0.62287 0.01929,-1.46887 0.17237,-1.87999 0.394698,-1.06004 2.17863,-2.73734 3.368828,-3.16748 1.247409,-0.45082 4.907355,-0.65314 6.176645,-0.34145 0.51133,0.12557 0.960238,0.20123 0.997574,0.16813 0.03734,-0.0331 -0.752308,-0.5345 -1.754766,-1.11424 -4.980107,-2.880093 -7.505833,-3.505603 -14.080936,-3.487273 -4.795648,0.0134 -6.363162,0.32023 -10.363784,2.028893 -5.349362,2.28471 -8.305621,5.15983 -10.049666,9.77387 -0.867916,2.29613 -1.151351,5.20347 -0.69608,7.14001 0.7703,3.27654 3.802331,6.82664 7.042799,8.24616 1.762832,0.77222 1.817751,0.78149 4.630012,0.78149 2.740797,0 2.904182,-0.0253 4.419237,-0.68647 3.141724,-1.37089 5.134797,-3.88461 5.135163,-6.47661 1.04e-4,-0.72195 -0.142719,-1.61518 -0.31738,-1.98498 -0.453088,-0.95929 -2.078573,-2.18777 -3.125026,-2.36177 -1.220006,-0.20287 -1.643798,0.0914 -1.551226,1.07693 0.09228,0.98255 -0.534315,2.49334 -1.207425,2.91122 -0.667039,0.41412 -2.036968,0.39806 -2.763216,-0.0324 -3.321206,-1.96848 -3.72999,-4.5866 -1.074648,-6.88275 1.540764,-1.33234 2.854452,-1.75715 5.425311,-1.75439 1.532229,10e-4 2.149656,0.10388 3.170146,0.52494 2.516725,1.03843 4.581678,3.04712 5.686532,5.5316 0.362099,0.81425 0.491571,1.57644 0.49315,2.90311 0.0079,6.63597 -6.131544,11.52676 -14.450214,11.51133 -5.88044,-0.0114 -10.850742,-2.53013 -14.215143,-7.20499 -3.815648,-5.30188 -3.113477,-13.57557 1.636954,-19.28825 2.635219,-3.169 6.798644,-6.145083 10.468428,-7.482993 1.520301,-0.55426 1.421397,-0.57272 -1.495155,-0.27916 -3.84289,0.38681 -8.867979,1.79895 -12.376152,3.477943 -3.040549,1.45518 -4.517769,2.4156 -6.671456,4.33747 -4.813679,4.29552 -6.886534,8.4287 -6.869749,13.69794 0.01092,3.41121 0.856211,5.19331 2.768019,5.83534 0.602499,0.20234 0.694957,0.16692 1.060813,-0.40621 0.965797,-1.51297 3.903683,-1.146 4.541618,0.56729 0.872741,2.34389 -1.386623,4.71315 -4.474329,4.69195 -3.833991,-0.0264 -7.435196,-3.24529 -7.983693,-7.1363 l -0.191452,-1.35815 -0.182707,1.35815 c -0.100489,0.74698 -0.330966,2.11035 -0.512172,3.02971 -0.50881,2.58146 0.155603,6.73187 1.588815,9.9249 0.647577,1.44273 2.293388,3.94475 3.54171,5.38423 1.179933,1.36062 3.847448,2.97293 5.999939,3.62649 2.099067,0.63735 5.88432,0.69898 7.10251,0.11564 2.353486,-1.12698 4.210103,-3.99211 3.34136,-5.15639 -0.198069,-0.26545 -0.303693,-0.23348 -0.690133,0.20894 -0.390987,0.44762 -0.646478,0.52237 -1.785624,0.52237 -1.203523,0 -1.394463,-0.0646 -2.017224,-0.68238 -1.178795,-1.16936 -0.859411,-2.95318 0.712365,-3.97868 1.532783,-1.00006 3.778043,-1.34576 5.687256,-0.87566 1.185994,0.29202 2.685958,1.50324 3.163452,2.55447 0.540195,1.18928 0.733576,3.83336 0.373151,5.10207 -0.568379,2.0007 -3.449596,5.12784 -5.635125,6.1161 -2.737107,1.23768 -7.716511,1.39427 -11.100469,0.34909 -0.962708,-0.29733 -1.845102,-0.54061 -1.960877,-0.54061 -0.595795,0 5.014633,6.04673 7.700578,8.29942 7.224381,6.05907 16.47781,10.69917 23.614703,11.84153 2.494553,0.39928 5.935823,0.4061 8.491675,0.0168 z m 66.196181,-9.35612 c 3.03402,-10.6012 11.07556,-17.68566 22.23578,-19.58937 0.81034,-0.13823 1.47334,-0.33311 1.47334,-0.43308 0,-0.10001 -0.17421,-0.18176 -0.38714,-0.18176 -0.55219,0 -4.19363,-1.4108 -5.83282,-2.2598 -0.76305,-0.39523 -1.92235,-1.17564 -2.57623,-1.73427 -0.65387,-0.55863 -1.19791,-0.99329 -1.20897,-0.96591 -0.0106,0.0274 -0.32897,0.87971 -0.70647,1.89408 -1.52114,4.08731 -4.80301,7.5824 -9.44382,10.05737 -4.4033,2.34832 -11.06435,2.64607 -15.89815,0.71069 -3.23104,-1.29368 -5.51591,-3.23782 -6.96468,-5.92613 -1.66788,-3.09484 -1.92816,-4.9785 -1.04354,-7.55226 1.3825,-4.02233 5.30674,-7.59813 8.91114,-8.11991 1.47815,-0.21398 3.81277,-0.172 4.90282,0.0882 1.3949,0.33291 3.46305,1.74512 4.28077,2.92304 0.68448,0.98602 1.24276,2.81058 1.08308,3.53981 -0.0416,0.18999 -0.13775,0.60638 -0.21368,0.92531 -0.16374,0.6878 -1.58928,2.14447 -2.51296,2.56784 -0.84932,0.38928 -1.47992,0.37868 -2.47941,-0.0417 -1.42068,-0.59753 -1.67877,-1.45173 -1.13585,-3.75926 0.28912,-1.22884 -1.30741,-1.67287 -3.59588,-1.00011 -3.3868,0.99563 -4.93999,3.3428 -4.31545,6.52152 0.69474,3.53614 3.53427,5.76579 8.44913,6.63441 4.33495,0.76614 8.90983,-0.6577 11.92502,-3.71142 1.24459,-1.2605 2.74575,-3.70555 3.29939,-5.37396 0.48471,-1.46071 0.49649,-4.93754 0.0224,-6.60443 -0.19482,-0.68493 -0.88193,-2.1973 -1.52692,-3.36083 -1.00899,-1.82018 -1.43089,-2.33066 -3.02206,-3.65655 -2.04444,-1.70359 -3.44709,-2.46087 -5.96282,-3.21927 -6.72516,-2.02742 -13.75673,-0.54083 -20.79003,4.39539 -1.64212,1.1525 -3.49909,3.32837 -6.05987,7.10052 -2.652,3.90651 -3.24445,5.16483 -5.04931,10.72429 -0.86975,2.67908 -1.94464,5.63452 -2.38865,6.56764 -0.44399,0.93313 -0.76282,1.736 -0.70848,1.78416 0.0543,0.0482 1.51128,-1.12728 3.23766,-2.61211 3.64622,-3.136 4.11412,-3.44889 5.83371,-3.90117 1.65404,-0.43502 2.49928,-0.41925 3.71334,0.0693 1.16293,0.46798 1.72472,1.29416 1.72472,2.53636 0,0.72328 -0.13825,0.9893 -0.80287,1.54489 -0.65582,0.54822 -1.27116,0.77135 -3.35924,1.21812 -3.79689,0.81239 -6.4815,2.07957 -8.71096,4.11173 -0.96847,0.88276 -1.91929,1.80549 -2.11292,2.05053 -0.32034,0.40537 -0.22637,0.39023 1.04318,-0.16807 3.45979,-1.5215 8.05835,-2.21464 13.44425,-2.02645 4.15462,0.14516 6.46997,0.6569 10.15283,2.24399 5.73555,2.47168 9.69555,6.22955 11.33182,10.75342 0.29096,0.80444 0.59439,1.55664 0.67428,1.67156 0.0798,0.11492 0.22357,-0.83248 0.31931,-2.10535 0.0958,-1.27286 0.43379,-3.2218 0.75123,-4.33098 z M 113.3014,116.64357 c 1.1041,-2.58389 4.64169,-8.58763 6.61786,-11.23135 2.4591,-3.2898 4.82446,-5.573603 7.95002,-7.675953 2.37979,-1.60073 3.44017,-2.53921 4.69384,-4.154265 2.15155,-2.771792 2.48205,-6.811607 0.78466,-9.591195 -0.75612,-1.238212 -2.45335,-2.666869 -3.98593,-3.355234 -1.37732,-0.618617 -1.77231,-1.234109 -1.49397,-2.327971 0.34509,-1.356205 1.83736,-2.408403 3.4157,-2.408403 1.10868,0 3.04406,0.88413 4.03859,1.844918 0.87032,0.840783 2.17075,3.063229 2.81196,4.805667 0.32356,0.879254 0.38266,1.549708 0.2809,3.186575 -0.0709,1.140164 -0.0457,2.027454 0.056,1.971753 0.61211,-0.335306 3.55693,-4.692538 5.15671,-7.63 3.11356,-5.716971 4.26004,-9.246512 4.45105,-13.702792 0.19974,-4.660068 -0.31668,-6.446523 -2.40669,-8.325616 -1.31379,-1.181204 -1.43276,-2.050559 -0.41728,-3.048999 0.99811,-0.981348 2.02802,-1.032423 3.46169,-0.17166 2.21131,1.327621 3.3413,3.461214 3.63422,6.861875 l 0.15299,1.776033 0.44707,-1.044731 c 1.058,-2.472388 2.46743,-5.004171 4.36196,-7.835448 1.64134,-2.452886 2.43263,-3.392523 4.15619,-4.935389 2.05988,-1.843929 2.09668,-1.893458 1.13575,-1.528364 -2.36484,0.898484 -9.54658,1.080781 -12.64789,0.321043 -8.42664,-2.064288 -13.10452,-6.666075 -14.07994,-13.850891 -0.68479,-5.044005 0.82226,-9.202051 4.50457,-12.428499 2.67925,-2.347547 6.10601,-3.505277 10.39779,-3.512882 4.8697,-0.0086 9.22825,1.6471 11.27422,4.282859 0.91884,1.183706 2.03056,3.685919 2.22823,5.015211 0.35654,2.397765 -1.38475,6.34959 -3.50847,7.962375 -1.79672,1.364455 -5.23011,2.061969 -7.63381,1.550867 -1.72662,-0.367141 -3.2267,-1.282945 -3.84879,-2.349702 -1.34293,-2.302877 0.0922,-5.285924 2.6648,-5.539333 0.86819,-0.08558 1.1027,-0.02182 1.5775,0.428762 0.35563,0.337443 0.60228,0.879686 0.68071,1.496484 0.15203,1.195456 0.82139,1.681669 2.03693,1.47954 1.78248,-0.296381 2.97167,-1.934055 2.97167,-4.092367 0,-1.56704 -0.6351,-2.83904 -1.93869,-3.882905 -1.29025,-1.033187 -2.62875,-1.518831 -4.87383,-1.768346 -5.03046,-0.559082 -9.00864,1.292712 -11.15375,5.191928 -0.6855,1.246065 -0.77895,1.63181 -0.85197,3.516915 -0.14449,3.730545 1.0466,6.52001 3.82723,8.963122 1.80107,1.582462 3.52785,2.496868 6.15089,3.257198 1.39037,0.403031 2.13262,0.476291 4.71472,0.465369 4.84182,-0.02046 7.58663,-0.817633 11.41389,-3.31491 4.50021,-2.93636 6.60641,-6.109308 7.34199,-11.06054 0.47857,-3.221261 -0.13919,-7.112693 -1.66544,-10.491164 -3.09313,-6.846837 -11.42138,-11.7117752 -20.74435,-12.1177922 -4.25985,-0.185518 -10.03906,0.629027 -13.21474,1.862538 l -1.20751,0.46903 3.38041,0.0085 c 2.9393,0.0074 3.55491,0.06995 4.71758,0.4790642 1.4516,0.510787 2.84033,1.683641 3.40046,2.87188 0.44214,0.937912 0.42234,2.275437 -0.0398,2.685001 -0.57938,0.513527 -1.67429,0.410522 -2.28315,-0.214792 -0.6785,-0.696826 -2.20985,-1.383934 -4.39621,-1.972549 -1.48685,-0.400289 -2.07371,-0.449765 -4.11945,-0.347295 -3.74998,0.187836 -6.89038,1.133581 -10.21969,3.077703 -2.85433,1.666759 -8.64949,6.419495 -11.71257,9.605713 -1.83853,1.91245 -5.17642,5.850467 -4.95887,5.850467 0.23112,0 3.00624,-1.709889 4.23223,-2.607702 1.62081,-1.186921 2.20203,-1.485188 3.85728,-1.979425 5.0693,-1.513657 10.6405,0.940933 10.6405,4.688038 0,2.102327 -1.38474,2.52577 -5.81751,1.778966 -5.95304,-1.00293 -9.68536,-0.182923 -15.2192,3.343755 -1.26591,0.806767 -7.3376,6.052868 -7.17362,6.198217 0.0316,0.02807 1.1674,-0.438854 2.52392,-1.037537 4.69805,-2.073426 8.60131,-2.905412 13.66387,-2.912493 4.99139,-0.0068 8.78344,0.877129 12.54594,2.925086 6.44006,3.505367 9.5524,7.832152 10.19157,14.168342 0.31377,3.110372 -0.76357,7.459148 -2.49149,10.057099 -1.22792,1.846202 -4.48719,4.643054 -6.46609,5.548687 -2.77466,1.269818 -4.94654,1.715173 -8.35802,1.713888 -2.40534,-9.09e-4 -3.27149,-0.08956 -4.71471,-0.482621 -3.94652,-1.074803 -7.0059,-3.246162 -8.49501,-6.029263 -1.32612,-2.478491 -1.64164,-3.532235 -1.64164,-5.482655 0,-3.318945 1.14495,-5.799937 3.66736,-7.946804 1.9446,-1.655097 3.63417,-2.347304 6.02934,-2.470206 3.21252,-0.164829 5.77588,0.682261 7.64726,2.527134 1.98442,1.95633 2.0664,4.733259 0.18558,6.286195 -0.9098,0.75118 -2.14743,1.015988 -3.91848,0.838385 -1.1751,-0.117834 -1.59717,-0.266138 -2.14867,-0.754965 -0.6772,-0.600239 -0.68446,-0.631744 -0.54618,-2.368556 0.12606,-1.583337 0.0956,-1.781398 -0.30421,-1.971003 -2.20233,-1.044708 -5.5468,1.643379 -6.04386,4.857708 -0.29517,1.908733 1.51622,5.469199 3.52454,6.927838 1.87003,1.358205 3.50102,1.87233 6.24036,1.96715 2.08229,0.07205 2.63662,0.01693 3.88964,-0.386881 2.59355,-0.835817 4.554,-2.023454 5.83755,-3.536361 3.54655,-4.180322 3.95679,-9.633916 1.0924,-14.522083 -1.81575,-3.098631 -5.3365,-5.679943 -9.12258,-6.688408 -3.38107,-0.900575 -7.95083,-1.204071 -10.97737,-0.729041 -5.92736,0.930329 -13.902467,4.785369 -19.151937,9.257741 -0.956,0.814484 -2.402279,2.536397 -2.402279,2.860099 0,0.08081 0.443182,-0.04739 0.984849,-0.28497 0.76552,-0.335715 1.57842,-0.452037 3.65012,-0.52232 2.52816,-0.08581 2.73278,-0.06114 3.977627,0.47869 1.79121,0.776751 2.56658,1.818493 2.57712,3.46243 0.009,1.430055 -0.56854,2.143707 -2.05486,2.538408 -0.763057,0.202641 -1.105127,0.180729 -2.092647,-0.134018 -1.89726,-0.604717 -4.45006,-0.385461 -6.622487,0.568792 -3.122607,1.371627 -5.032497,3.291976 -6.540381,6.576177 -1.16241,2.531749 -1.673849,4.733033 -1.784209,7.679382 -0.07214,1.925974 -0.03772,2.498017 0.118285,1.966082 0.121017,-0.412624 0.856877,-1.944511 1.635246,-3.404206 1.153893,-2.163927 1.659091,-2.865032 2.735925,-3.796873 0.726389,-0.628596 1.843024,-1.377492 2.481412,-1.664212 2.293599,-1.030172 5.963749,-1.442386 8.119419,-0.91194 2.388027,0.587624 4.085637,2.463648 3.819737,4.221191 -0.24205,1.59985 -2.1383,2.524724 -3.528827,1.721139 -1.52574,-0.88172 -4.89291,-0.748691 -7.20218,0.284539 -1.789938,0.80088 -4.226621,2.799852 -5.052628,4.145021 -0.919391,1.497258 -1.350664,3.228069 -1.350664,5.42059 0,3.209738 1.644909,7.133627 4.441296,10.594588 0.733832,0.90822 1.652486,1.93752 2.041451,2.28733 0.388965,0.34979 0.574607,0.5649 0.412539,0.47803 -0.73444,-0.39373 -0.176343,0.10455 0.995136,0.88857 2.60036,1.740163 9.541747,8.245163 11.729937,10.992493 1.75035,2.1976 2.30522,3.10622 3.04103,4.97979 l 0.67019,1.70646 0.004,-1.84991 c 0.004,-2.16879 -0.43239,-7.69594 -0.67777,-8.59039 -0.13963,-0.50898 -0.33266,-0.64982 -1.079,-0.78727 -1.26384,-0.23275 -2.40701,-0.90598 -3.21308,-1.89226 -0.54921,-0.672 -0.68467,-1.05524 -0.68467,-1.93703 0,-0.97099 0.0846,-1.16239 0.7253,-1.640203 0.39891,-0.29752 0.98437,-0.54094 1.30103,-0.54094 0.47553,0 0.55483,-0.0818 0.45556,-0.47013 -0.0661,-0.25857 -0.2217,-1.05965 -0.34575,-1.78017 -0.45378,-2.63563 -2.24791,-4.766781 -4.20926,-4.99996 -0.8768,-0.104219 -0.97899,-0.06342 -1.324377,0.528559 -0.20585,0.352843 -0.37428,0.874538 -0.37428,1.159337 0,0.692934 -0.62812,1.211704 -1.37255,1.133614 -0.44869,-0.047 -0.90138,-0.44324 -1.74326,-1.525632 -1.52397,-1.959319 -2.07039,-3.314365 -2.07039,-5.134291 0,-2.673778 0.88469,-3.617962 3.38533,-3.613007 1.86124,0.0034 3.440327,0.615367 4.939817,1.913496 1.39927,1.211378 3.24554,3.874076 4.31268,6.219777 0.73911,1.624667 1.91291,5.263517 2.01768,6.254987 0.0243,0.22984 0.10965,-0.52236 0.18979,-1.67156 0.19505,-2.79874 -0.054,-4.113796 -1.32247,-6.983181 -2.21612,-5.013036 -2.45603,-5.738701 -2.48647,-7.521224 -0.0254,-1.486688 0.0554,-1.827291 0.71522,-3.015257 0.95839,-1.725515 3.12408,-4.353163 3.88555,-4.714382 1.03122,-0.489168 1.64916,-0.152941 2.93599,1.597521 1.50953,2.053401 2.20418,3.877384 2.20943,5.801392 0.005,1.600976 -0.61012,3.260096 -2.71456,7.329334 -1.5829,3.060786 -1.85432,4.200143 -1.70071,7.139447 0.0706,1.35068 0.13758,2.54982 0.14886,2.66475 0.0117,0.11491 0.2214,-0.61717 0.46693,-1.62686 1.5647,-6.434648 4.69025,-11.288094 8.27043,-12.842621 1.47769,-0.64162 3.38753,-0.64162 4.45305,0 1.72155,1.036673 2.13734,4.314124 0.84852,6.688681 -1.54977,2.85536 -3.66467,3.53305 -4.27378,1.369456 -0.1684,-0.598126 -1.01917,-0.974392 -1.91403,-0.846488 -1.42289,0.203368 -3.16441,2.331062 -4.40135,5.377312 -0.32665,0.80444 -0.6619,1.61384 -0.74499,1.79866 -0.12965,0.28836 0.0119,0.32216 0.99727,0.23824 1.06244,-0.0905 1.19562,-0.048 1.78041,0.568013 0.34765,0.3662 0.63208,0.89668 0.63208,1.17885 0,0.69123 -0.61289,1.94835 -1.24886,2.56165 -0.57036,0.55001 -2.63656,1.48478 -3.28906,1.48801 -0.36954,0.002 -0.41254,0.25991 -0.41254,2.47562 0,1.36047 0.0733,4.62786 0.16283,7.26086 0.15484,4.55251 0.17865,4.73603 0.48556,3.74255 0.1775,-0.5746 0.5437,-1.56187 0.81378,-2.19393 z"
       id="path1" /></g></svg>
