<?xml version="1.0" encoding="UTF-8" standalone="no"?>
<!-- Created with Inkscape (http://www.inkscape.org/) -->

<svg
   width="236.91052mm"
   height="243.34096mm"
   viewBox="0 0 236.91052 243.34096"
   version="1.1"
   id="svg1"
   xml:space="preserve"
   inkscape:version="1.4 (86a8ad7, 2024-10-11)"
   sodipodi:docname="medusa.svg"
   xmlns:inkscape="http://www.inkscape.org/namespaces/inkscape"
   xmlns:sodipodi="http://sodipodi.sourceforge.net/DTD/sodipodi-0.dtd"
   xmlns="http://www.w3.org/2000/svg"
   xmlns:svg="http://www.w3.org/2000/svg"><sodipodi:namedview
     id="namedview1"
     pagecolor="#ffffff"
     bordercolor="#000000"
     borderopacity="0.25"
     inkscape:showpageshadow="2"
     inkscape:pageopacity="0.0"
     inkscape:pagecheckerboard="0"
     inkscape:deskcolor="#d1d1d1"
     inkscape:document-units="mm"
     inkscape:zoom="0.53858859"
     inkscape:cx="647.06161"
     inkscape:cy="678.62559"
     inkscape:window-width="1828"
     inkscape:window-height="1057"
     inkscape:window-x="84"
     inkscape:window-y="-8"
     inkscape:window-maximized="1"
     inkscape:current-layer="layer1" /><defs
     id="defs1" /><g
     inkscape:label="Warstwa 1"
     inkscape:groupmode="layer"
     id="layer1"
     transform="translate(15.63868,-29.288348)"><path
       style="fill:#000000"
       d="m 112.83753,272.0806 c -2.05669,-0.81162 -3.95323,-2.78956 -4.78372,-4.98905 -0.53675,-1.42153 -0.64707,-2.17866 -0.63609,-4.36563 0.0152,-3.03349 0.52308,-4.56676 2.63495,-7.95512 2.19894,-3.52805 8.2253,-8.86378 13.15871,-11.65069 1.41778,-0.80091 2.69125,-1.66823 2.82994,-1.92737 0.30769,-0.57492 0.69263,-10.25571 0.44675,-11.23534 -0.49893,-1.98793 -2.64839,0.30474 -5.69367,6.07301 -4.26611,8.08077 -6.82727,11.29121 -10.41779,13.05881 -1.71057,0.84212 -4.93441,1.57199 -7.01822,1.58893 -1.81319,0.0147 -5.112153,-0.76448 -6.397304,-1.51106 -2.974702,-1.72808 -6.623054,-6.52178 -15.056196,-19.78289 -1.073401,-1.68792 -2.524126,-3.69534 -3.223835,-4.46093 -1.455232,-1.59226 -3.24452,-2.56628 -3.762992,-2.04844 -0.235372,0.23509 -0.34352,2.52067 -0.402149,8.49897 l -0.0802,8.17741 1.03864,0.75239 c 0.571252,0.41381 2.809997,1.56707 4.974988,2.56279 9.709939,4.46582 14.18107,8.2828 15.748992,13.44484 0.444747,1.46423 0.530407,2.32721 0.44908,4.52422 -0.0897,2.42321 -0.193772,2.90433 -0.968763,4.47856 -1.336381,2.71457 -3.38342,4.18416 -6.579386,4.72338 -2.133805,0.36001 -4.309686,0.0105 -5.669047,-0.91069 -1.285836,-0.87134 -1.189086,-1.10173 0.494441,-1.1774 2.228659,-0.10018 4.83171,-0.95478 5.71437,-1.87608 1.862336,-1.94386 1.184869,-5.35578 -1.593594,-8.0258 -1.439077,-1.38291 -2.960893,-2.07002 -9.934306,-4.48539 -3.388471,-1.17366 -7.113356,-2.5639 -8.277523,-3.08943 -6.50373,-2.93592 -11.819741,-7.3067 -15.362193,-12.63068 -3.831123,-5.75782 -4.841702,-10.97494 -3.552775,-18.34122 0.861159,-4.92156 0.659156,-7.3556 -0.891554,-10.7428 l -0.684506,-1.49516 0.626872,-0.99303 c 2.025577,-3.20872 3.453822,-6.83934 4.374518,-11.12008 0.294408,-1.36884 0.585577,-2.53908 0.647043,-2.60055 0.06147,-0.0615 0.663311,0.95616 1.337434,2.26138 1.296539,2.51034 5.076668,8.46009 6.083307,9.57484 0.549322,0.60832 0.622783,1.07593 0.91445,5.82084 0.174429,2.83765 0.282228,8.01687 0.239552,11.50937 -0.08002,6.54877 0.05323,7.61994 0.992731,7.98046 0.231749,0.0889 0.602353,-0.0193 0.823563,-0.24051 0.654625,-0.65462 0.946554,-6.11985 0.816222,-15.28058 -0.13525,-9.50648 0.114786,-8.42857 -2.945946,-12.69999 -4.161056,-5.80699 -5.660839,-8.84741 -7.17776,-14.55104 -0.522327,-1.96395 -1.06412,-3.68525 -1.203982,-3.82511 -0.466412,-0.46642 -1.050841,0.50494 -1.315623,2.18664 -1.281693,8.14038 -2.512546,13.32469 -3.823483,16.10437 -2.651358,5.62187 -5.949137,9.10628 -10.854118,11.46838 -3.477881,1.67485 -5.87147,2.16204 -11.641666,2.36953 -6.240899,0.22441 -6.44004,0.28729 -10.583333,3.34158 -2.222422,1.6383 -3.13993,2.12119 -4.69061,2.4687 -1.662867,0.37266 -2.9589732,-0.0277 -3.3799936,-1.04418 -0.377718,-0.9119 -0.2877422,-1.45602 0.5598726,-3.38581 0.772638,-1.75909 0.5459818,-1.97523 -1.9120514,-1.82329 -2.4011921,0.14842 -2.5067912,0.25933 -1.5588056,1.63718 0.4373218,0.63562 0.7951304,1.22352 0.7951304,1.30645 0,0.44571 -1.8922153,0.0594 -2.924762,-0.59716 -1.5950116,-1.01417 -4.906827,-4.61176 -5.2764624,-5.73177 -0.4711476,-1.42759 0.2150927,-2.55324 2.49408202,-4.09109 2.43047148,-1.64006 8.34481448,-4.60406 10.35018798,-5.18704 2.244829,-0.65259 5.718268,-0.40042 9.776745,0.7098 7.555818,2.06694 11.889314,1.08827 16.299554,-3.68105 l 1.747471,-1.88975 0.179214,-2.58903 c 0.365106,-5.2745 1.125299,-7.42995 4.427211,-12.55288 2.525755,-3.91872 4.808501,-8.34903 5.51985,-10.71282 0.601797,-1.99975 0.63529,-3.92957 0.0682,-3.92957 -0.183424,0 -1.028627,1.43401 -1.878228,3.18668 -0.849601,1.75268 -2.967504,5.56267 -4.706451,8.46667 -1.738947,2.90399 -3.485832,6.01477 -3.881967,6.91284 -1.004267,2.27676 -1.762575,5.37917 -1.953547,7.9924 -0.142073,1.9441 -0.264033,2.35111 -0.991029,3.30729 -1.594703,2.09743 -5.557573,3.85705 -8.90283,3.95309 l -1.66138,0.0477 -0.49956,-1.5875 c -0.343935,-1.09295 -0.544152,-2.74144 -0.642697,-5.29166 -0.164861,-4.26639 0.210591,-7.00821 1.529793,-11.17165 0.99185,-3.13031 4.41886,-9.8664 6.071243,-11.93357 1.222629,-1.52953 2.500037,-2.40902 9.202844,-6.3361 4.223897,-2.47471 7.535421,-5.66258 7.089465,-6.82472 -0.191913,-0.50012 -0.355309,-0.41845 -4.262989,2.13068 -1.600729,1.04422 -4.101042,2.59303 -5.55625,3.44182 -8.404482,4.90211 -12.716958,9.39164 -13.257191,13.8015 -0.08635,0.70489 -0.554286,2.23412 -1.03985,3.39829 -1.814454,4.35025 -2.641393,9.20555 -2.461751,14.45397 0.06929,2.0244 0.0097,2.87624 -0.201378,2.87624 -0.164904,0 -1.180409,-0.92274 -2.256676,-2.05053 -7.726007,-8.09583 -9.2179097,-17.48469 -4.298861,-27.05364 2.825306,-5.49602 6.901793,-9.4318 14.667022,-14.16076 9.601359,-5.84715 16.344777,-12.77875 18.737271,-19.26016 1.07966,-2.92487 1.190503,-3.86449 1.207412,-10.23533 0.01623,-6.11674 0.0276,-6.24133 0.699839,-7.67291 0.375836,-0.80037 1.179507,-2.028 1.785937,-2.72807 1.223336,-1.41225 1.275467,-1.56159 0.709161,-2.03158 -1.377028,-1.14283 -4.48031,2.26286 -5.421914,5.95027 -0.22588,0.88457 -0.322926,3.01227 -0.292879,6.42129 0.05056,5.73623 -0.198713,7.27331 -1.717973,10.59349 -2.493514,5.44931 -6.989551,10.2047 -14.13421,14.94955 -3.70201,2.45855 -8.650037,4.81478 -14.287499,6.80367 -5.789191,2.04241 -8.3421294,3.36359 -10.4681776,5.41742 l -1.6433209,1.5875 -0.1337019,2.33148 c -0.1626085,2.83556 -0.9957821,4.71219 -3.2524487,7.32581 -0.90714504,1.05063 -2.0402648,2.84421 -2.9122033,4.60963 -1.6097071,3.2592 -2.079814,3.85528 -3.5707743,4.52761 -0.6260956,0.28233 -1.0965211,0.69618 -1.1660534,1.02582 -0.064105,0.30391 -0.1607809,2.69569 -0.2148356,5.31506 -0.084897,4.11392 -0.1767151,4.96375 -0.6742123,6.24028 -0.5109733,1.3111 -1.7265532,2.90155 -1.9888979,2.60226 -0.053651,-0.0612 0.058763,-0.8618 0.2498082,-1.77908 0.4515858,-2.16825 0.3190089,-2.5548 -0.6961714,-2.02983 -0.4527659,0.23413 -1.4747389,0.388 -2.5538919,0.38452 l -1.799076,-0.006 1.060603,-0.48182 c 1.26905,-0.57652 2.5326,-1.95453 3.4472675,-3.75954 0.601914,-1.18782 0.6627013,-1.58356 0.5948202,-3.87248 l -0.075608,-2.54946 -1.4552077,-0.29906 c -2.00839,-0.41274 -3.152187,-1.07763 -3.568702,-2.07449 -0.306546,-0.73367 -0.252828,-1.57726 0.415877,-6.53087 0.422341,-3.1286 0.95477,-6.64087 1.183176,-7.80503 0.807585,-4.11621 2.620699,-6.97234 5.726369,-9.02056 1.0625015,-0.70072 3.1224458,-2.48444 4.577654,-3.96381 4.7107082,-4.78891 8.6619094,-6.92289 19.314583,-10.4315 5.944698,-1.95797 9.562227,-4.06594 13.11293,-7.64105 3.388477,-3.41177 6.151769,-7.8862 7.617618,-12.33475 1.045357,-3.17244 1.278959,-4.63021 0.741973,-4.63021 -0.556793,0 -1.149895,0.91677 -3.166685,4.89479 -2.048517,4.04061 -3.731015,6.64968 -5.434333,8.42709 -2.020358,2.10823 -7.734628,6.41972 -9.980938,7.53073 -12.3097032,6.0883 -27.633396,3.15202 -32.88081,-6.30052 -1.481158,-2.66812 -2.130108,-4.86288 -2.45155,-8.29119 -0.611412,-6.52096 1.236893,-12.22798 5.6260964,-17.37172 2.2425028,-2.628 7.6024723,-6.70738 11.227946,-8.54538 L 2.6294441,99.667651 2.5362391,102.197 c -0.1079438,2.92933 0.3132773,6.70762 1.0402663,9.33105 0.2794807,1.00854 0.5081468,1.88826 0.5081468,1.95493 0,0.0667 -0.8391818,0.56219 -1.8648483,1.10116 -2.31754543,1.21783 -3.9230389,2.81999 -4.9596785,4.94937 -2.1343712,4.38424 -1.4881918,7.87825 1.8670956,10.09574 4.0894998,2.70271 10.889682,2.15645 16.640035,-1.3367 3.37303,-2.04901 7.490597,-7.0228 11.916866,-14.39492 3.763558,-6.26835 6.476066,-7.47748 13.650014,-6.08462 3.324557,0.64548 8.472394,0.70328 11.86221,0.13319 4.073563,-0.68508 6.399008,-1.59441 11.021987,-4.30997 4.611777,-2.70898 8.495468,-4.593678 10.552116,-5.120782 0.704477,-0.180552 1.280866,-0.420641 1.280866,-0.533531 0,-0.422891 -1.069493,-0.752937 -2.430001,-0.749899 -2.61555,0.0058 -5.566859,1.107306 -9.835331,3.670672 -4.879631,2.93039 -7.701735,4.0406 -11.944041,4.69879 -3.761326,0.58357 -7.527029,0.3598 -12.152979,-0.72217 -3.369395,-0.78808 -3.829977,-0.83759 -5.357386,-0.57596 -3.622468,0.6205 -6.102348,2.63322 -7.949362,6.45187 -1.617147,3.3434 -2.088703,3.34116 -3.757165,-0.0178 -1.437703,-2.89442 -1.741523,-4.22565 -1.724322,-7.55538 0.01983,-3.838716 0.609799,-5.463209 2.749609,-7.571109 3.690064,-3.635036 10.252714,-4.98438 17.872855,-3.674832 6.614996,1.136811 10.040259,0.467224 16.29542,-3.185506 5.467419,-3.192726 8.536119,-4.436517 12.369402,-5.01351 3.159863,-0.475629 3.482052,-0.551609 3.482052,-0.821154 0,-0.542324 -1.86071,-1.032844 -3.917929,-1.032844 -3.483339,0 -7.699039,1.406267 -12.046729,4.01853 l -1.015701,0.610273 -0.625629,-0.727337 c -0.862323,-1.002511 -1.197114,-2.284187 -1.364983,-5.225561 -0.175521,-3.075448 0.179332,-4.942664 1.404878,-7.392387 2.066231,-4.130152 6.547472,-6.609937 11.971652,-6.624756 4.808909,-0.01314 9.979077,2.992986 13.40463,7.793939 1.566415,2.195349 3.698329,6.643716 4.648287,9.698931 0.785307,2.525674 1.503925,3.636769 2.10991,3.26225 0.552987,-0.341765 0.120199,-3.506443 -0.891316,-6.517588 -1.717266,-5.112066 -3.754284,-8.498247 -7.009078,-11.651351 -3.681298,-3.566282 -6.37849,-4.710827 -11.562784,-4.906632 -4.005695,-0.151291 -5.750033,0.181657 -8.822578,1.683995 -3.600608,1.760539 -6.495675,5.411844 -7.559049,9.533594 -0.25402,0.984609 -0.417149,2.706169 -0.413672,4.365625 0.0051,2.440451 0.106334,3.026734 0.926042,5.363837 0.506165,1.443147 0.9203,2.729656 0.9203,2.858908 0,0.129253 -0.68461,0.552436 -1.521354,0.940406 -1.382152,0.640858 -1.872386,0.714323 -5.357813,0.802903 -3.253682,0.08269 -4.037415,0.02266 -5.159374,-0.39518 L 40.464862,88.882943 40.001449,87.03673 c -1.175483,-4.683063 -1.157228,-11.208373 0.04404,-15.742439 1.797723,-6.785312 6.454355,-12.528405 12.924296,-15.939724 7.805914,-4.115718 16.596893,-4.69636 25.098545,-1.657753 9.019033,3.223527 16.813523,11.133041 21.518857,21.836411 0.671713,1.527969 1.357563,3.01625 1.524113,3.307292 0.28968,0.506229 0.31508,0.496881 0.586,-0.215662 0.71356,-1.876776 0.0919,-4.478724 -2.097283,-8.778629 -2.574954,-5.057547 -6.662673,-9.880591 -11.200871,-13.215754 l -2.071961,-1.522704 0.616753,-0.658491 c 0.824249,-0.880031 4.428115,-2.565865 6.606533,-3.090438 4.394784,-1.058283 9.179359,-1.148155 14.249689,-0.267664 2.61811,0.45465 6.33661,1.649517 7.77559,2.498535 0.98791,0.582879 1.00182,0.613325 0.82676,1.809332 -0.0979,0.669062 -0.25756,1.295568 -0.35473,1.392236 -0.0972,0.09667 -1.4912,0.836615 -3.09785,1.644326 -3.03357,1.525071 -5.67511,3.606917 -6.71828,5.294809 -1.39942,2.264313 -0.0741,2.340379 2.63533,0.151251 2.28573,-1.846806 6.0378,-3.785343 8.32704,-4.302235 l 1.5875,-0.358444 0.16107,-3.551691 c 0.13648,-3.009643 0.28676,-3.924097 0.9847,-5.991815 2.20512,-6.532872 5.93241,-11.388065 10.57613,-13.776538 3.66358,-1.884343 5.31162,-2.306745 8.9156,-2.285126 2.16772,0.013 3.72062,0.168176 4.89479,0.489108 1.5381,0.4204 2.01832,0.435848 4.54538,0.146221 4.6968,-0.538302 8.69679,0.361942 14.25878,3.209105 3.41181,1.746496 4.74376,2.89857 4.74376,4.103135 0,1.302657 -0.58583,2.535267 -1.86399,3.921907 -1.62557,1.763531 -2.63767,2.312642 -4.08349,2.215476 l -1.20648,-0.08108 0.6761,-0.992187 0.6761,-0.992188 h -0.81252 c -0.96206,0 -5.02739,1.29865 -5.02739,1.605976 0,0.376471 3.23527,1.797295 5.68855,2.498223 3.71377,1.061067 6.86404,1.527775 9.3109,1.379396 l 2.16716,-0.131417 -0.7413,0.623762 c -1.0606,0.892431 -1.95106,1.16781 -3.77623,1.16781 h -1.60397 l 1.03489,1.124479 c 1.48434,1.612832 3.36481,4.156414 3.19694,4.324281 -0.24663,0.246629 -2.81391,-1.185955 -7.34094,-4.096361 -4.17584,-2.684628 -9.34009,-5.328161 -9.70193,-4.966324 -0.094,0.09401 -0.0258,0.65535 0.15159,1.247418 0.37315,1.245453 1.77014,2.893596 3.16127,3.729593 0.53164,0.31949 1.0155,0.619016 1.07524,0.665613 0.19167,0.149501 -0.87747,1.188244 -1.61621,1.570264 -2.13643,1.104787 -4.40945,-0.04919 -6.89623,-3.501102 -3.32111,-4.610055 -4.12468,-5.425607 -6.54872,-6.646298 -2.62196,-1.320363 -4.3497,-1.47854 -6.33122,-0.57963 -3.49065,1.583528 -5.64896,4.907298 -6.21787,9.575463 -0.16542,1.35733 -0.25101,1.521354 -0.7939,1.521354 -1.35269,0 -5.81279,1.353171 -7.85619,2.383527 -3.17226,1.599571 -5.11399,3.085254 -8.14452,6.231661 -3.38031,3.50956 -5.61159,6.510963 -9.16884,12.333475 -1.54019,2.520995 -3.27959,5.205903 -3.86532,5.966461 -1.761723,2.287551 -4.545517,4.718174 -7.178439,6.267731 -1.367553,0.804847 -2.628534,1.634548 -2.80218,1.843779 -0.969024,1.167602 2.214906,0.729574 5.093941,-0.700797 1.705486,-0.847326 2.659484,-1.574776 4.560228,-3.477304 2.57809,-2.580506 3.37487,-3.666658 6.73137,-9.176075 8.89668,-14.603163 17.11374,-20.205573 28.96506,-19.748445 5.23898,0.202077 8.65583,1.36218 13.55931,4.603707 5.15636,3.408702 10.60625,10.527913 12.64263,16.515102 2.27039,6.675228 2.36164,13.541189 0.27455,20.657406 -0.44892,1.53064 -0.97878,2.24606 -1.44849,1.95577 -0.14459,-0.0894 -0.87971,-1.18365 -1.6336,-2.43176 -1.85114,-3.064665 -3.45621,-4.936061 -6.31074,-7.357899 l -2.39929,-2.035594 v -1.652001 c 0,-3.549632 -1.93014,-8.573256 -4.60978,-11.997947 -3.13925,-4.012095 -7.21007,-5.897 -12.00557,-5.558918 -2.55728,0.180287 -4.50674,0.908484 -6.86412,2.564002 -3.18355,2.235722 -5.13509,4.812558 -8.926,11.785992 -1.26574,2.328333 -2.9687,5.245365 -3.78436,6.482292 -1.84214,2.793545 -7.42285,8.449483 -9.97995,10.114483 -2.45891,1.60106 -6.330234,3.53366 -8.678286,4.33228 -3.086938,1.04994 -8.515038,1.44264 -10.327451,0.74715 -0.590979,-0.22678 -0.558439,-0.64952 0.215048,-2.7938 0.758974,-2.10405 1.319175,-6.145828 1.104398,-7.968081 -0.08145,-0.69108 -0.41326,-1.822174 -0.737349,-2.513542 l -0.589253,-1.257032 -0.200138,2.645833 c -0.231085,3.054965 -1.2086,6.672692 -2.428761,8.988722 -1.08716,2.06357 -5.190045,6.21758 -7.991547,8.09113 -1.164166,0.77856 -3.902604,2.47394 -6.085416,3.76751 -6.43557,3.81382 -9.093405,6.04419 -10.236673,8.5903 -0.279158,0.6217 -0.662199,2.46879 -0.85408,4.11852 -0.191353,1.6452 -0.482886,3.24347 -0.647851,3.55171 -0.164965,0.30824 -0.299937,0.61112 -0.299937,0.67306 0,0.0619 1.293524,-0.54289 2.874498,-1.34406 2.794159,-1.41595 2.947603,-1.46014 5.490104,-1.5811 2.20109,-0.10472 3.076843,-0.0138 5.526022,0.57346 4.043776,0.96967 5.685517,1.53582 10.847916,3.74089 2.473854,1.05668 5.331354,2.17782 6.35,2.49143 2.441331,0.7516 4.781474,0.81748 5.765531,0.1623 0.810925,-0.53991 2.039677,-2.44804 2.039677,-3.16742 0,-0.99797 0.477881,-0.0808 0.638795,1.22598 0.229746,1.86579 -0.198808,3.96435 -1.202914,5.89048 l -0.827574,1.5875 0.232826,2.91042 c 0.459756,5.74714 0.06845,14.1552 -0.658772,14.1552 -0.10028,0 -0.522896,-1.27992 -0.939146,-2.84427 -1.580999,-5.9417 -1.990648,-6.53767 -4.870997,-7.0865 -2.084934,-0.39727 -3.578882,-1.08054 -4.901352,-2.24168 -0.4962,-0.43567 -0.987256,-0.79213 -1.091236,-0.79213 -0.103979,0 -0.743105,0.49273 -1.420279,1.09494 -1.719613,1.52927 -3.266777,2.1735 -5.199975,2.16523 -2.298952,-0.01 -3.459939,-0.43464 -5.65878,-2.07055 -2.672338,-1.98818 -3.181656,-1.92614 -2.180577,0.26559 0.618126,1.35331 1.944492,2.65267 3.539878,3.46782 0.691224,0.35318 1.256771,0.71532 1.256771,0.80476 0,0.0894 -0.869715,0.10682 -1.932701,0.0386 -2.516921,-0.16153 -4.500345,-1.07006 -6.500002,-2.97741 -0.845358,-0.80633 -1.632353,-1.46606 -1.748878,-1.46606 -0.116524,0 -1.505572,-0.61433 -3.086771,-1.36518 -1.5812,-0.75084 -2.933338,-1.30674 -3.004752,-1.23533 -0.07141,0.0714 -0.380685,1.0727 -0.68727,2.22507 -1.27123,4.77823 -0.884426,11.84986 0.955384,17.46649 1.051933,3.21137 1.971527,5.08094 4.477392,9.1027 3.784279,6.07353 4.635231,8.02674 6.858591,15.7427 2.211656,7.67534 3.625614,10.66782 7.266643,15.37898 4.121861,5.33332 11.832774,10.79648 17.113821,12.1251 5.169969,1.30066 12.408713,1.1776 16.933333,-0.28788 2.27534,-0.73696 6.78232,-3.186 9.1626,-4.97886 4.20311,-3.16582 8.62911,-8.38873 10.81197,-12.75869 0.89634,-1.79441 2.2563,-6.38845 3.39644,-11.47337 1.15921,-5.17 2.04371,-7.33548 5.15322,-12.61635 4.35685,-7.39922 5.55019,-10.08461 6.55806,-14.75767 0.74288,-3.44442 0.93689,-8.92779 0.42021,-11.87644 -0.22662,-1.29329 -0.54013,-2.47953 -0.69669,-2.63609 -0.40981,-0.40981 -6.2847,1.54578 -6.47883,2.15663 -0.22963,0.72254 -2.27701,2.69371 -3.38491,3.25892 -1.49507,0.76273 -3.56542,1.07753 -5.24935,0.79818 -0.79006,-0.13107 -1.19834,-0.25483 -0.9073,-0.27504 1.53911,-0.10687 4.02524,-1.79669 4.78612,-3.25313 0.46555,-0.89114 0.49182,-2.32877 0.0425,-2.32677 -0.1819,8.1e-4 -1.13576,0.64411 -2.11968,1.42955 -2.05127,1.63746 -3.64216,2.15338 -5.98503,1.94094 -1.76425,-0.15998 -3.53102,-0.93542 -5.00409,-2.19631 -0.58541,-0.50109 -1.20271,-0.91107 -1.37178,-0.91107 -0.16907,0 -1.05809,0.53568 -1.97559,1.19039 -2.07127,1.47803 -3.25903,1.98461 -4.65324,1.98461 -2.05922,0 -2.33028,0.3615 -3.93469,5.24746 -0.57355,1.74666 -1.25285,3.49629 -1.50956,3.88807 l -0.46674,0.71234 -0.23825,-0.62445 c -0.4384,-1.14905 -0.32217,-9.93268 0.16232,-12.26613 0.62099,-2.99092 0.56475,-3.85448 -0.36678,-5.63158 -0.97496,-1.85996 -1.38529,-4.35191 -1.02737,-6.23925 0.34541,-1.82132 0.64797,-2.01171 0.99662,-0.62712 0.52259,2.0754 2.00262,3.36983 3.853,3.36983 1.29659,0 4.51309,-1.05563 10.1842,-3.34237 7.70105,-3.10528 13.57436,-4.41575 17.00361,-3.79391 0.88068,0.1597 1.63621,0.25311 1.67898,0.20759 0.0428,-0.0455 -0.68631,-1.65007 -1.62016,-3.56565 -3.05699,-6.27074 -5.27041,-7.93138 -12.44544,-9.33733 -7.3935,-1.44876 -12.78544,-4.19994 -17.50392,-8.93116 -1.62386,-1.62824 -2.17844,-2.35714 -2.11667,-2.78199 0.0529,-0.36412 0.95881,-1.23922 2.46495,-2.38123 5.78399,-4.385616 9.19825,-8.646894 14.1559,-17.667696 0.91971,-1.67349 2.18534,-3.886836 2.81251,-4.918547 1.53274,-2.521426 4.77734,-5.595149 7.12747,-6.752116 1.66306,-0.818718 2.03057,-0.897045 4.20897,-0.897045 2.14516,0 2.57109,0.08727 4.20691,0.861976 2.41266,1.142616 5.48622,4.206862 6.8415,6.820791 0.87364,1.684971 2.31861,5.984433 2.31861,6.898914 0,0.653597 -1.00382,0.399828 -5.77642,-1.460288 -6.01764,-2.345372 -7.37622,-2.728767 -9.72313,-2.743891 -1.86715,-0.01203 -3.28586,0.470121 -3.28586,1.116708 0,0.280309 1.80366,0.890436 4.3088,1.457549 4.74131,1.07333 12.13877,4.105051 15.55024,6.372988 2.47252,1.643729 5.02666,4.040422 6.46101,6.062736 3.2452,4.575461 5.46338,11.365891 5.86684,17.959971 l 0.16942,2.76885 -0.76618,0.39175 c -1.10995,0.56753 -2.20143,0.75521 -4.44309,0.764 -2.53546,0.01 -4.27954,-0.5706 -5.83958,-1.94381 -1.53387,-1.35017 -2.24812,-2.75568 -3.71695,-7.31435 -1.70513,-5.29203 -3.17122,-7.49579 -6.65171,-9.99852 -3.45633,-2.485364 -10.93512,-5.22808 -13.83672,-5.074374 l -1.46771,0.07775 1.14391,0.845209 c 0.62914,0.464866 2.53506,1.386388 4.23538,2.047827 7.16528,2.787368 10.58166,5.186648 12.54567,8.810648 0.37583,0.69349 1.17976,2.92777 1.7865,4.96506 0.60675,2.03729 1.41649,4.28227 1.79944,4.98883 2.61558,4.8259 9.97735,6.63612 15.83676,3.89417 3.94376,-1.8455 9.35846,-6.18068 11.20869,-8.97401 2.23377,-3.37238 2.73107,-8.57693 1.14366,-11.96915 -0.96117,-2.053955 -3.29204,-4.642675 -6.21897,-6.906926 -1.12986,-0.874054 -2.12879,-1.823908 -2.21985,-2.110786 -0.10677,-0.336423 0.0747,-0.867461 0.5113,-1.495818 0.6944,-0.999489 5.38006,-6.671605 6.23599,-7.54883 0.46313,-0.474655 0.55495,-0.438715 3.08963,1.20937 3.61353,2.349573 5.8675,4.335868 7.73992,6.820765 6.41772,8.51695 6.32915,19.651585 -0.23513,29.558665 -4.64723,7.0138 -11.7512,12.12265 -19.98383,14.37146 -2.69634,0.73653 -8.41322,0.99176 -11.81166,0.52734 -2.79136,-0.38146 -3.48537,-0.11831 -2.03804,0.77277 1.57297,0.96844 4.19635,1.63813 6.98063,1.78199 2.98,0.15397 5.89677,-0.33511 10.64133,-1.78431 l 2.70383,-0.82587 0.74524,0.53065 c 0.40988,0.29186 0.9083,0.83533 1.10759,1.20772 l 0.36235,0.67705 1.7886,-1.68727 c 2.08175,-1.96382 4.1956,-3.26836 6.90881,-4.26372 2.61761,-0.96028 7.12162,-1.19745 10.11082,-0.53242 5.48241,1.21972 10.26819,5.16234 12.85528,10.59043 1.58162,3.31846 1.96039,5.20221 1.9699,9.79707 0.01,4.84477 -0.28012,5.93216 -3.28284,12.30312 -2.39604,5.08375 -2.65153,5.7842 -2.65153,7.2694 0,1.65478 1.14596,2.53763 4.49791,3.46522 3.45234,0.95537 4.97964,1.9171 6.96638,4.38667 4.82772,6.001 4.98553,6.2962 5.01996,9.39034 0.0232,2.08387 -0.46457,2.84195 -2.41761,3.75754 -1.15282,0.54045 -1.90634,0.7027 -3.2633,0.7027 -1.60615,0 -1.99764,-0.12115 -4.36563,-1.35107 -1.43069,-0.74309 -3.43469,-1.62284 -4.45334,-1.955 -1.01865,-0.33216 -2.39361,-0.87487 -3.05547,-1.20602 -2.04721,-1.02428 -5.46174,-3.72875 -6.73464,-5.33414 -1.65855,-2.09177 -3.48838,-5.88606 -3.96847,-8.22887 -0.90416,-4.4123 -0.36806,-7.52865 2.44352,-14.20406 2.73321,-6.48934 3.03151,-7.38556 3.18087,-9.557 0.45583,-6.62664 -5.54867,-9.90248 -12.53558,-6.83899 -0.74536,0.32681 -1.43638,0.72556 -1.5356,0.8861 -0.0992,0.16055 0.16718,0.79892 0.592,1.4186 3.02063,4.40623 4.48102,11.24365 3.39005,15.87193 -0.7722,3.27593 -2.69692,6.9058 -5.55966,10.48509 l -1.61702,2.02177 -0.16701,-4.23333 c -0.13058,-3.31011 -0.31607,-4.80096 -0.85051,-6.8361 -0.86264,-3.28495 -2.78722,-7.29702 -4.96508,-10.35046 -1.94637,-2.72889 -6.75314,-7.66936 -10.02386,-10.30266 -2.62797,-2.11582 -3.35889,-2.47133 -3.92241,-1.9078 -0.71104,0.71104 0.0844,1.74036 5.05202,6.53763 5.07784,4.90368 6.99758,7.26539 9.01977,11.09634 4.61347,8.73999 4.79901,17.86517 0.51199,25.17987 -2.58073,4.40333 -5.90694,7.87824 -10.52435,10.99483 -3.00203,2.02626 -3.84202,3.05267 -3.84202,4.69472 0,1.55706 0.78632,2.6421 4.42941,6.11212 l 3.08592,2.93933 -2.31162,2.5914 c -1.27139,1.42526 -2.87305,3.45833 -3.55923,4.51792 -0.79406,1.22617 -1.42775,1.93278 -1.74317,1.94375 -1.26175,0.0439 -7.52189,-5.4313 -9.94095,-8.69443 -2.18276,-2.94438 -3.70836,-6.70616 -3.71555,-9.16169 -0.004,-1.49795 1.12684,-5.67811 2.02341,-7.47703 1.01753,-2.0416 4.25808,-5.2243 8.04598,-7.90233 3.7826,-2.67427 5.89696,-4.88671 7.17176,-7.5044 1.51515,-3.11122 1.90088,-4.75973 1.72878,-7.38827 -0.25558,-3.90356 -1.84823,-7.44453 -5.43687,-12.08791 -2.17848,-2.81876 -3.56829,-4.10866 -3.70055,-3.43453 -0.16257,0.82859 0.82343,3.17722 2.28476,5.44229 2.55612,3.96198 4.28376,8.42557 4.28376,11.06768 0,2.6026 -1.56011,6.17884 -3.78394,8.67392 -1.20638,1.35353 -7.82352,6.59175 -8.04596,6.36931 -0.0479,-0.0479 0.28831,-1.50351 0.74715,-3.23468 0.72509,-2.73573 0.83831,-3.61494 0.86527,-6.71945 0.0259,-2.97975 -0.0334,-3.57187 -0.35779,-3.57187 -0.28429,0 -0.78473,1.52911 -1.86172,5.68854 -2.77987,10.73614 -4.68308,15.70308 -7.75937,20.25016 -2.8688,4.24038 -3.59964,5.45174 -3.90297,6.46912 -0.15245,0.51132 -0.34328,4.14436 -0.42408,8.07342 -0.14713,7.15469 0.19764,12.51209 0.98329,15.27969 0.4778,1.68312 1.09115,1.17573 1.69969,-1.40606 0.48251,-2.04711 0.5071,-4.09504 0.1093,-9.106 -0.36761,-4.63083 -0.01,-10.01227 0.82768,-12.44021 0.63508,-1.84168 1.80677,-3.73424 2.10703,-3.40335 0.1138,0.12541 0.47168,1.11679 0.79529,2.20307 1.13746,3.81821 2.5287,6.05642 6.52653,10.49984 l 2.41602,2.6853 0.33575,2.25679 c 0.2117,1.42292 0.27896,3.41246 0.18205,5.38449 -0.36229,7.37167 -3.23514,13.87035 -8.59183,19.4356 -3.83902,3.98849 -8.54709,6.86796 -16.60177,10.1537 -8.06558,3.29018 -10.56507,4.90961 -11.95907,7.74832 -0.61605,1.25452 -0.74093,1.85099 -0.74093,3.53899 0,1.64432 0.1051,2.17233 0.55297,2.77813 0.93114,1.25949 1.81067,1.5417 4.80485,1.5417 1.68263,0 2.68292,0.10042 2.63542,0.26458 -0.0421,0.14552 -0.77477,0.61575 -1.62815,1.04494 -2.12186,1.06716 -5.37854,1.2278 -7.54658,0.37224 z M 12.899445,208.05714 c 0.685595,-0.35223 2.033127,-1.574 2.033127,-1.84337 0,-0.2701 -1.538112,-0.77013 -2.368932,-0.77013 -0.933993,0 -3.3532703,1.52738 -2.991809,1.88884 0.25657,0.25657 2.086315,0.98588 2.533864,1.00996 0.118707,0.006 0.475895,-0.122 0.79375,-0.2853 z M 209.36348,183.24762 c 0.57815,-0.36634 0.13229,-1.17238 -1.08547,-1.96239 -1.21466,-0.788 -3.01286,-1.42696 -3.2758,-1.16401 -0.32465,0.32464 0.18719,1.49495 1.05733,2.41757 0.7264,0.77021 1.08019,0.94368 1.9178,0.94038 0.56491,-0.002 1.18867,-0.10643 1.38614,-0.23155 z M -6.8043555,170.65731 c 1.0188668,-1.16043 1.0517465,-1.78173 0.1325527,-2.50477 -0.6733533,-0.52966 -0.7239973,-0.53318 -1.2290371,-0.0853 -0.6351925,0.56323 -1.3826854,2.21434 -1.6246541,3.58864 l -0.1769301,1.00489 1.0316118,-0.52629 c 0.5673865,-0.28945 1.4072921,-0.95416 1.8664568,-1.47712 z M 68.032001,143.26382 c 2.877184,-0.92164 5.22681,-1.30755 8.006088,-1.31494 1.497716,-0.004 1.897277,-0.0791 1.663588,-0.3128 -0.464071,-0.46407 -5.653214,-0.62161 -7.43271,-0.22565 -1.644816,0.36598 -4.239514,1.57647 -4.783063,2.23141 -0.467115,0.56284 -0.325362,0.54179 2.546097,-0.37802 z M 63.26051,140.0681 c 3.11979,-1.40809 5.287524,-1.82863 9.425946,-1.82863 3.418438,0 3.667129,-0.033 3.331113,-0.44151 -0.934739,-1.1365 -6.660266,-2.99225 -9.244219,-2.99622 -3.763493,-0.006 -7.706997,1.76433 -8.848524,3.9718 -0.463135,0.8956 -0.209389,1.18403 1.515504,1.72263 1.611491,0.50319 1.804899,0.48152 3.82018,-0.42807 z m 77.47557,0.10063 c 0.80359,-0.39412 1.46107,-0.80124 1.46107,-0.90472 0,-0.49425 -2.75242,-3.11511 -3.96402,-3.77455 -2.13994,-1.1647 -3.84252,-1.20415 -6.89286,-0.15971 -1.37752,0.47166 -3.21895,1.22761 -4.09208,1.67987 l -1.5875,0.8223 3.47854,0.1771 c 3.79561,0.19324 5.34215,0.56084 8.16313,1.9403 1.01864,0.49812 1.87921,0.91249 1.91236,0.92083 0.0332,0.008 0.71777,-0.3073 1.52136,-0.70142 z m 2.25391,-16.8826 c -0.6825,-3.28756 -3.12441,-6.85053 -6.05856,-8.83997 -2.20362,-1.49411 -3.75968,-2.20553 -7.56657,-3.45934 -4.11013,-1.35369 -6.86529,-2.68578 -9.00424,-4.35344 -1.87601,-1.46265 -3.84753,-2.78974 -4.14444,-2.78974 -0.52131,0 -0.13317,1.35109 0.70258,2.44563 2.30086,3.01335 5.48205,4.9794 11.2584,6.95795 7.51944,2.57561 10.68171,4.90092 13.2201,9.72113 1.48551,2.82088 1.69995,3.0991 1.81062,2.34915 0.0466,-0.31564 -0.0515,-1.22975 -0.21789,-2.03137 z m 12.16433,-83.203288 c 1.39941,-0.713925 1.48859,-0.966687 0.51812,-1.468537 -1.68733,-0.87255 -5.00863,-1.559304 -5.00863,-1.035647 0,0.469612 0.90608,1.756879 1.64841,2.341896 1.04319,0.822126 1.49782,0.848086 2.8421,0.162288 z m 6.62199,224.191738 c -1.73964,-0.56703 -2.46311,-1.06593 -2.98828,-2.06072 -0.50221,-0.95129 -0.57875,-1.59465 -0.66303,-5.57335 -0.11094,-5.23689 0.20129,-7.20497 1.65322,-10.42065 0.51687,-1.14475 0.93976,-2.50417 0.93976,-3.02093 0,-0.63399 -0.51451,-1.92436 -1.58199,-3.96755 -1.85508,-3.55067 -2.38676,-5.36741 -2.38676,-8.15548 0,-3.04492 0.61794,-5.75695 1.94016,-8.51496 2.16281,-4.51141 4.54517,-7.40984 9.73615,-11.84522 3.8205,-3.2644 5.23509,-4.89059 6.39255,-7.34881 0.91138,-1.93561 1.23715,-4.68024 0.7358,-6.19933 -0.51349,-1.5559 -1.73077,-2.97605 -3.57102,-4.16617 -0.95694,-0.61886 -1.73989,-1.168 -1.73989,-1.2203 0,-0.0523 0.53102,-0.77987 1.18005,-1.61681 1.51993,-1.96 3.39021,-5.25196 4.29713,-7.56355 0.39288,-1.00137 0.86758,-1.87949 1.05489,-1.95137 0.4199,-0.16113 2.14381,0.83282 3.9714,2.28976 1.89039,1.507 3.62915,3.88914 5.1287,7.02637 1.91688,4.01035 2.21995,5.38954 2.20936,10.05417 -0.008,3.74197 -0.057,4.11237 -0.84921,6.48229 -1.79863,5.38083 -4.54323,8.829 -11.2264,14.10423 -2.78261,2.19639 -5.49128,5.1679 -6.64786,7.29292 -1.46286,2.68774 -1.21546,4.79236 0.98065,8.34241 0.63902,1.03298 1.42286,2.39678 1.74188,3.03068 1.30771,2.59842 1.69652,7.30313 0.91589,11.08242 -0.48187,2.33286 -1.00041,3.44703 -2.64224,5.6773 -0.65619,0.89137 -1.36561,2.25625 -1.60476,3.08748 -0.79642,2.76806 -1.65865,3.98973 -3.45728,4.89848 -0.80097,0.40469 -2.6508,0.53963 -3.51887,0.25669 z m 3.96875,-11.4246 c 0,-1.01218 -0.7903,-2.42718 -1.35562,-2.42718 -0.7411,0 -1.30164,3.30702 -0.84795,5.00266 0.1681,0.62827 0.18442,0.62205 1.18701,-0.45278 0.81932,-0.87835 1.01656,-1.29022 1.01656,-2.1227 z M 13.621641,252.25044 c -2.932781,-0.57489 -6.1375981,-3.01735 -7.4320427,-5.6641 -0.8707459,-1.78041 -1.0468272,-5.28297 -0.3684191,-7.32849 0.7100454,-2.1409 2.4664749,-4.88215 4.0961459,-6.39283 2.5660209,-2.37866 5.4853659,-3.49828 14.2555649,-5.46726 2.53556,-0.56925 5.229294,-1.33794 5.986075,-1.7082 2.846429,-1.39263 4.999107,-4.67318 4.4403,-6.76676 l -0.270979,-1.01522 1.480788,-0.5844 c 2.163148,-0.85371 6.426191,-3.27213 8.395895,-4.763 0.941531,-0.71264 1.747756,-1.29571 1.791612,-1.29571 0.04386,0 0.35155,0.91561 0.683767,2.03468 0.534265,1.79968 0.586731,2.40322 0.454249,5.22552 -0.337614,7.1923 -2.985394,12.47907 -7.760204,15.49464 -3.590606,2.26767 -7.37201,3.16545 -13.430126,3.18859 -5.604366,0.0214 -7.472294,0.28267 -9.73962,1.3623 -1.063443,0.50638 -2.337501,1.26214 -2.831238,1.67948 -1.337975,1.13093 -2.140514,3.06385 -2.136608,5.14604 0.0051,2.70201 0.990107,4.30651 3.774545,6.14823 0.79028,0.52272 0.912764,0.69995 0.573673,0.83007 -0.237129,0.091 -0.510702,0.1524 -0.607941,0.13646 -0.09724,-0.016 -0.707185,-0.13296 -1.355437,-0.26004 z M 91.16936,203.0542 c -2.220481,-3.04721 -2.426945,-3.531 -1.677969,-3.93184 0.404571,-0.21652 0.942621,-0.13538 2.340205,0.35291 1.708829,0.59703 2.208959,0.63761 8.561554,0.69475 6.72796,0.0605 7.74245,-0.0317 10.30023,-0.93653 2.26663,-0.80182 2.14805,0.12156 -0.51081,3.97761 l -1.71979,2.49415 -1.7198,-0.19695 c -2.2635,-0.25922 -9.727292,-0.25243 -11.906246,0.0108 l -1.719791,0.20778 z m -9.441527,-8.04958 c -0.744487,-0.74449 -0.846654,-1.86167 -0.248365,-2.71584 0.335036,-0.47833 0.632197,-0.56426 1.804925,-0.5219 1.315827,0.0475 1.527101,-0.0395 3.369246,-1.38735 3.439199,-2.51643 4.228001,-2.9873 5.850165,-3.49217 2.170082,-0.67541 3.973905,-0.62262 5.904805,0.17279 1.986021,0.81812 2.711271,0.81803 5.027081,-6.3e-4 2.10689,-0.7448 3.62125,-0.82254 5.6261,-0.28884 1.68594,0.44881 3.00613,1.20274 5.79994,3.31223 1.89601,1.4316 2.25469,1.60239 3.36523,1.60239 1.17664,0 1.26424,0.0508 1.64024,0.95067 0.49485,1.18434 0.21043,2.19865 -0.7718,2.75243 -0.63976,0.36069 -0.90778,0.33979 -3.02149,-0.23553 -1.27571,-0.34722 -3.3315,-0.90612 -4.56843,-1.24198 -2.92367,-0.79387 -5.46356,-0.81596 -7.84348,-0.0682 -2.13667,0.67132 -3.745419,0.699 -5.385683,0.0927 -2.832505,-1.04707 -6.078394,-0.76512 -12.134663,1.05403 -2.794095,0.83928 -3.587042,0.84202 -4.413821,0.0152 z m 16.945359,-12.46424 c -0.436562,-0.22573 -1.27,-0.86594 -1.852083,-1.42268 -1.455005,-1.39166 -1.805875,-1.53084 -4.370398,-1.73353 -2.868578,-0.22673 -3.699009,-0.49022 -4.639791,-1.47218 -1.052983,-1.09908 -1.225341,-3.64264 -0.396267,-5.84789 0.893839,-2.37752 1.256235,-2.44124 1.380463,-0.24271 0.08457,1.49659 0.224378,1.97426 0.737847,2.52082 0.729159,0.77615 1.228317,0.82138 3.030718,0.2746 1.944264,-0.58981 3.059125,-0.50087 4.404065,0.35132 2.844029,1.80206 4.970854,1.84252 7.443354,0.14157 1.57976,-1.08679 2.85277,-1.24902 4.75978,-0.6066 0.89588,0.3018 1.88631,0.48411 2.20096,0.40514 1.05936,-0.26588 1.51393,-2.34448 0.94586,-4.3252 -0.47075,-1.64143 0.86585,-0.60892 1.80891,1.39735 0.85034,1.80901 0.97026,3.54272 0.34312,4.96047 -0.78222,1.76835 -1.44372,2.0846 -5.08568,2.43142 l -3.13814,0.29885 -1.14925,1.23409 c -0.63208,0.67875 -1.58798,1.41741 -2.12421,1.64146 -1.25006,0.52231 -3.28268,0.51933 -4.299258,-0.006 z M 186.96727,154.4452 c -0.44631,-2.32277 -0.89038,-3.71096 -1.75627,-5.4901 -0.77228,-1.58681 -1.06128,-2.44163 -0.86623,-2.56222 0.50085,-0.30967 2.77193,-0.53563 3.58611,-0.35681 0.42672,0.0937 1.30733,0.50746 1.9569,0.9194 2.50743,1.59017 3.04845,5.08107 1.17996,7.61366 -0.57843,0.78402 -3.05715,2.98492 -3.3617,2.98492 -0.0778,0 -0.41023,-1.39898 -0.73877,-3.10885 z m 16.21148,-19.42095 c -1.81427,-1.51213 -4.50776,-3.23702 -6.27561,-4.01884 l -1.47834,-0.6538 0.56668,-2.33992 c 0.38375,-1.58456 0.56752,-3.19405 0.56927,-4.98576 0.002,-2.37289 -0.072,-2.78789 -0.72056,-4.02291 -0.39773,-0.75739 -1.63196,-2.46901 -2.74273,-3.80359 l -2.01959,-2.42651 0.29008,-2.28183 c 0.15954,-1.255 0.34815,-2.82679 0.41914,-3.49286 0.12768,-1.19804 -0.21739,-5.46746 -0.54854,-6.78685 -0.16461,-0.655878 -0.13593,-0.67579 0.72747,-0.505128 0.49436,0.09772 1.78124,0.595598 2.85973,1.106408 6.78676,3.21445 11.60591,9.64275 13.2808,17.71535 0.60898,2.93515 0.63443,6.13752 0.0748,9.41223 -0.67534,3.95178 -2.41623,8.18257 -3.36697,8.18257 -0.17466,0 -0.91069,-0.49436 -1.63563,-1.09856 z M 13.960132,124.12662 C 7.0453324,119.03623 3.1795149,106.39763 5.6400955,96.925735 8.7764136,84.852624 20.732671,75.842599 34.114862,75.467652 l 2.38125,-0.06672 0.17696,4.497916 c 0.09733,2.473854 0.305688,5.139246 0.463021,5.923092 0.491379,2.448085 0.666863,2.284746 -2.822793,2.627422 -3.959214,0.388785 -5.748836,0.850125 -8.475214,2.184792 -2.683331,1.313593 -5.310627,3.67344 -6.267737,5.629701 -2.496416,5.102495 -1.635741,12.285935 2.116605,17.665775 2.036631,2.91998 2.060144,2.51033 -0.304331,5.30227 -2.571628,3.03655 -5.38715,6.04299 -5.659243,6.04299 -0.111886,0 -0.905348,-0.51672 -1.763248,-1.14827 z m 150.990818,-7.64913 c -3.8e-4,-1.72887 -0.46745,-4.8132 -1.22245,-8.07241 l -0.44496,-1.92086 1.35225,-2.84768 c 0.74373,-1.56623 1.61442,-3.827236 1.93485,-5.02446 0.32043,-1.197225 0.6963,-2.176772 0.83526,-2.176772 0.43336,0 2.70646,1.783492 3.83889,3.01203 3.19387,3.464942 3.52679,7.622602 0.9781,12.214912 -0.48866,0.88049 -1.521,2.25747 -2.29409,3.05996 -1.44131,1.49611 -4.04671,3.40893 -4.64323,3.40893 -0.23359,0 -0.33437,-0.49799 -0.33462,-1.65365 z m 49.56089,-11.8594 c -0.30073,-0.49871 -0.99814,-1.9783 -1.5498,-3.28799 -1.62714,-3.862964 -2.43311,-5.121634 -3.82986,-5.981062 -0.68521,-0.421617 -2.32605,-1.937216 -3.6463,-3.367998 -2.33184,-2.527067 -2.50209,-2.651697 -5.95641,-4.360412 -3.03239,-1.499999 -3.77383,-1.994315 -5.03565,-3.357226 -1.41079,-1.523827 -2.29042,-3.367346 -2.29042,-4.800242 0,-0.768289 -1.52221,-2.273713 -2.99459,-2.96158 -0.75407,-0.352286 -2.22914,-0.858402 -3.27793,-1.124702 -5.0474,-1.281594 -9.74869,1.386176 -16.29117,9.244497 l -2.43944,2.930069 -0.0612,-1.048172 c -0.20659,-3.539568 -1.22492,-6.936034 -3.3746,-11.255423 l -1.21351,-2.438331 0.60486,-0.649387 c 0.95472,-1.025022 6.46585,-4.606848 8.94768,-5.815328 4.1938,-2.0421 9.6358,-3.212423 13.36597,-2.874405 4.79316,0.434345 8.83335,2.343424 13.47167,6.365656 2.53868,2.201482 3.11121,2.563525 5.65158,3.573829 3.99113,1.587272 5.74221,3.668184 9.35679,11.119175 1.91097,3.939219 2.10491,4.481227 1.98564,5.549183 -0.1126,1.008309 -0.3123,1.335593 -1.34864,2.210346 -1.46434,1.236013 -1.52629,1.772192 -0.46383,4.014429 1.12353,2.371111 3.20036,4.052754 6.06038,4.907194 1.25557,0.3751 1.41593,0.64153 0.52917,0.87917 -1.77216,0.47492 -3.63131,0.0166 -5.15938,-1.27187 l -0.85989,-0.72508 v 0.90097 c 0,0.49554 0.12648,1.58518 0.28107,2.42144 0.36273,1.96216 0.2198,2.33423 -0.46221,1.20325 z m -6.16985,-22.404136 c -0.003,-0.516887 -1.14257,-1.978651 -1.91482,-2.455299 -0.9043,-0.558146 -1.99956,-0.927421 -2.18896,-0.738021 -0.0613,0.06126 0.0264,0.560198 0.19473,1.108759 0.42231,1.376013 1.56329,2.282999 2.87201,2.282999 0.57091,0 1.03758,-0.0893 1.03704,-0.198438 z M 11.310039,73.389145 c -0.791811,-0.229057 -1.9337171,-1.438047 -1.9337171,-2.047316 0,-0.162114 0.3599855,-0.214833 0.8850871,-0.129621 0.950893,0.154309 2.035618,-0.280794 3.575482,-1.43419 1.066003,-0.798462 1.875651,-2.462291 1.88362,-3.870842 0.01105,-1.952531 -2.640357,-3.598941 -6.4533847,-4.007282 -1.6610117,-0.177879 -1.8108115,-0.154472 -1.6524514,0.258208 0.095781,0.249601 0.1741471,0.545759 0.1741471,0.658129 0,0.112369 0.2960172,0.523716 0.6578159,0.914103 0.5472919,0.590538 0.5892488,0.736107 0.2497186,0.866397 C 7.7223912,64.970476 6.6232627,64.299204 5.8021789,62.829165 5.2576992,61.854348 4.6559482,61.196537 3.9453397,60.799339 2.230624,59.840891 1.7034057,59.048595 1.7034057,57.430195 c 0,-2.445621 0.2786807,-2.617804 7.6729162,-4.740714 1.2369271,-0.355126 3.1419271,-0.977475 4.2333331,-1.382998 2.302698,-0.855591 4.654553,-0.951663 7.338424,-0.29977 1.371642,0.333162 2.122884,0.351689 4.45464,0.10986 3.539605,-0.367097 6.84711,0.0098 9.955196,1.134449 2.426352,0.877957 6.148072,3.001723 8.007426,4.569367 l 1.184447,0.99862 -1.45563,1.883967 c -1.882349,2.436255 -3.163634,4.737361 -4.479345,8.044615 -0.583202,1.465974 -1.175445,2.692219 -1.316096,2.72499 -0.14065,0.03277 -0.405168,-0.598417 -0.587817,-1.40264 -1.21201,-5.336614 -5.535272,-8.029269 -10.297097,-6.413334 -1.547004,0.524979 -2.106998,1.063884 -3.164661,3.045486 -1.063534,1.992602 -3.858101,5.179103 -5.485021,6.254288 -1.32088,0.872932 -3.938013,1.750944 -5.06995,1.700899 -0.296848,-0.01312 -0.919708,-0.133785 -1.384132,-0.268135 z m 4.53135,-17.428536 c 0.830169,-0.31563 0.867798,-0.961765 0.103395,-1.775434 -0.898537,-0.956449 -2.885094,-0.671894 -3.907201,0.559671 -0.296148,0.356836 -0.185284,0.484698 0.81302,0.937676 1.298666,0.589267 2.000644,0.654538 2.990786,0.278087 z M 80.841467,52.106694 C 79.328704,51.493398 76.622586,50.65917 74.82787,50.252854 l -3.263121,-0.738758 -0.306377,-0.947205 c -1.012851,-3.13136 -3.018107,-5.737666 -5.286668,-6.871279 -0.905614,-0.452541 -1.974432,-0.822801 -2.37515,-0.822801 -0.478169,0 -1.482794,0.559216 -2.923004,1.627067 -3.995465,2.962457 -5.934392,3.53456 -14.215182,4.19436 -2.998205,0.238893 -3.776803,0.218539 -5.155956,-0.134784 -1.784402,-0.457142 -2.933383,-1.339991 -3.51597,-2.701583 -0.698376,-1.632212 -0.553461,-1.903445 2.876857,-5.384509 4.152629,-4.21406 6.21096,-5.497541 10.539463,-6.571929 1.661238,-0.41234 3.74433,-1.055766 4.629093,-1.429837 4.268428,-1.804655 9.941217,-1.531108 15.043624,0.725419 5.79092,2.561019 11.085695,8.711596 12.601485,14.63828 0.514219,2.010574 0.731602,7.061195 0.313417,7.2818 -0.109141,0.05757 -1.436152,-0.397106 -2.948914,-1.010401 z M 51.300697,38.381369 c 1.523838,-0.636701 2.30221,-2.525372 1.133529,-2.75044 -0.610663,-0.117603 -3.042025,1.060072 -4.008488,1.941585 -0.618832,0.564438 -0.696902,0.749168 -0.396875,0.939093 0.565875,0.358213 2.264645,0.290592 3.271834,-0.130238 z"
       id="path1" /></g></svg>
