<?xml version="1.0" encoding="UTF-8" standalone="no"?>
<!-- Created with Inkscape (http://www.inkscape.org/) -->

<svg
   width="243.02287mm"
   height="240.79604mm"
   viewBox="0 0 243.02287 240.79604"
   version="1.1"
   id="svg1"
   xml:space="preserve"
   inkscape:version="1.4 (86a8ad7, 2024-10-11)"
   sodipodi:docname="Cyclopus.svg"
   xmlns:inkscape="http://www.inkscape.org/namespaces/inkscape"
   xmlns:sodipodi="http://sodipodi.sourceforge.net/DTD/sodipodi-0.dtd"
   xmlns="http://www.w3.org/2000/svg"
   xmlns:svg="http://www.w3.org/2000/svg"><sodipodi:namedview
     id="namedview1"
     pagecolor="#ffffff"
     bordercolor="#000000"
     borderopacity="0.25"
     inkscape:showpageshadow="2"
     inkscape:pageopacity="0.0"
     inkscape:pagecheckerboard="0"
     inkscape:deskcolor="#d1d1d1"
     inkscape:document-units="mm"
     inkscape:zoom="0.53858859"
     inkscape:cx="-43.632562"
     inkscape:cy="181.02871"
     inkscape:window-width="1828"
     inkscape:window-height="1057"
     inkscape:window-x="3924"
     inkscape:window-y="-8"
     inkscape:window-maximized="1"
     inkscape:current-layer="layer1" /><defs
     id="defs1" /><g
     inkscape:label="Warstwa 1"
     inkscape:groupmode="layer"
     id="layer1"
     transform="translate(-162.31379,-190.16814)"><path
       style="fill:#000000"
       d="m 272.29527,430.64827 c -25.15283,-2.68094 -48.36713,-12.48434 -66.93958,-28.26859 -3.74618,-3.18377 -11.46283,-10.96274 -14.63751,-14.75571 -3.45919,-4.13289 -8.13366,-10.42739 -10.17711,-13.70419 -4.56672,-7.32304 -9.03395,-16.71629 -11.87119,-24.96161 -7.68237,-22.32575 -8.42624,-47.56562 -2.09252,-70.99986 3.67585,-13.60033 9.5001,-25.72918 18.27578,-38.05887 6.72138,-9.44342 16.48993,-19.3566 25.98344,-26.3681 14.63985,-10.81237 31.73408,-18.18046 49.91633,-21.51534 8.6797,-1.59198 11.66526,-1.83542 22.65485,-1.84726 8.21441,-0.009 10.92918,0.0804 14.02292,0.46087 15.20681,1.87024 28.38763,5.7018 41.14271,11.95984 23.53126,11.5452 41.74173,29.53719 53.83081,53.18498 2.6707,5.22424 3.93949,8.17557 5.97504,13.89864 4.40782,12.39281 6.5172,23.90705 6.90565,37.69511 0.55158,19.57865 -3.28727,36.95866 -12.33095,55.82708 -10.16144,21.20049 -27.90369,39.98827 -49.48576,52.4019 -13.23999,7.61542 -28.83777,12.666 -45.77292,14.82136 -4.73218,0.60227 -20.56166,0.74545 -25.39999,0.22975 z m -19.3703,-26.05994 c 5.65872,-0.61405 10.55055,-2.09617 14.4755,-4.38577 2.71933,-1.5863 6.29351,-5.12149 7.6505,-7.56705 2.4559,-4.42599 6.05601,-20.09599 5.56696,-24.23106 -0.19154,-1.61958 -0.92549,-3.56457 -1.6452,-4.35984 -1.24694,-1.37786 -6.24728,-3.55544 -11.96913,-5.2124 -9.95961,-2.88415 -35.392,-8.44683 -40.75965,-8.91513 -2.30364,-0.20098 -4.13301,0.34935 -6.62612,1.99335 -5.22233,3.4437 -10.51489,9.91933 -14.50732,17.75023 -3.15014,6.17879 -3.59244,8.37288 -2.23644,11.09402 0.80692,1.61928 5.31576,6.28004 9.74102,10.06925 4.59009,3.93034 13.88155,10.70879 16.4208,11.97955 3.12942,1.56611 16.61785,2.57389 23.88908,1.78485 z M 195.19013,369.6312 c 0.63537,-1.40901 4.13303,-6.7623 6.25127,-9.5678 4.12717,-5.46621 8.66403,-10.14769 12.78085,-13.18825 2.59957,-1.91996 2.64524,-1.70474 -0.72415,-3.41284 -4.30829,-2.18409 -8.45953,-3.18098 -13.19821,-3.16945 -3.48823,0.008 -5.92443,0.446 -8.92348,1.60255 -2.15673,0.83173 -5.97223,3.22221 -7.90762,4.95427 l -1.11711,0.99975 1.54984,3.87069 c 0.85241,2.12889 2.48525,5.69974 3.62853,7.93524 1.99797,3.90669 6.49404,11.08053 6.94452,11.08053 0.11958,0 0.44158,-0.49711 0.71556,-1.10469 z m 79.11448,-22.84356 c -7.45718,-8.16668 -14.02269,-16.79001 -17.74532,-23.30721 -0.65638,-1.14913 -1.19431,-1.93843 -1.19539,-1.75399 -0.004,0.66022 1.11096,5.53426 1.86347,8.14706 1.91806,6.65971 5.23994,13.07541 8.20717,15.85091 2.18014,2.03927 7.21775,4.05002 10.24834,4.0906 l 1.40325,0.0188 z m -24.0969,-6.41269 c -3.2316,-7.09652 -5.05118,-12.93568 -5.95951,-19.12453 -0.28175,-1.91972 -0.64944,-3.65568 -0.81709,-3.85768 -0.60905,-0.73386 -2.00571,-0.39249 -5.45239,1.33269 -5.5392,2.77256 -12.66836,7.83959 -17.319,12.30945 -1.64783,1.58378 -1.81029,1.83525 -1.81029,2.80222 0,1.23525 0.51105,2.07859 1.60118,2.64232 0.42642,0.22051 3.78271,1.04365 7.45842,1.8292 7.465,1.59537 15.06998,3.3978 20.04457,4.75068 1.81901,0.49469 3.44308,0.91164 3.60904,0.92656 0.16596,0.0149 -0.44376,-1.61 -1.35493,-3.61091 z m -65.90924,-9.31535 c 5.31512,-2.60868 11.74318,-4.37681 18.67597,-5.13708 1.81901,-0.19948 3.72401,-0.54578 4.23333,-0.76955 0.50932,-0.22378 1.93807,-1.26274 3.175,-2.30881 7.05104,-5.96306 16.54486,-12.27631 26.29211,-17.48387 5.22593,-2.792 4.98771,-2.36105 5.23133,-9.46378 0.10803,-3.14944 0.24804,-6.99831 0.31114,-8.55305 l 0.11472,-2.82681 -1.52794,-0.94311 c -3.83387,-2.36639 -6.91689,-7.75298 -8.41803,-14.70781 -1.60485,-7.43525 -1.93024,-15.62448 -0.88813,-22.35171 0.5776,-3.72863 0.84919,-4.36563 1.86137,-4.36563 0.21221,0 1.64797,1.22711 3.19057,2.72691 3.77434,3.66962 6.69328,6.30503 6.83091,6.1674 0.0621,-0.0621 0.27856,-1.92501 0.48096,-4.13975 0.2024,-2.21474 0.55334,-5.01591 0.77987,-6.22483 1.85253,-9.88629 7.98823,-18.60013 17.64055,-25.05288 6.36016,-4.25188 12.03408,-6.35741 19.0929,-7.08518 6.79312,-0.70037 13.98948,1.02565 21.06992,5.05355 4.02006,2.28692 7.1431,4.68091 10.4711,8.02668 6.97223,7.00945 10.73268,15.29355 11.49376,25.3202 0.13109,1.72703 0.31268,3.26033 0.40352,3.40732 0.42094,0.68108 1.33489,-0.016 5.02874,-3.83518 4.12359,-4.26357 4.81378,-4.71061 5.44676,-3.52787 0.57332,1.07125 1.58551,7.74998 1.73783,11.46676 0.25755,6.28404 -1.03203,14.48702 -3.12873,19.90188 -1.88295,4.86281 -4.83955,8.51959 -7.99215,9.88486 -1.753,0.75915 -1.62851,-0.31968 -1.10221,9.55232 0.41014,7.6929 0.51043,8.1449 2.06166,9.29096 0.47309,0.34953 2.52705,1.50454 4.56434,2.56668 9.07951,4.73362 18.94805,11.26266 26.19375,17.32982 2.76958,2.31911 3.17557,2.50679 6.04167,2.79311 9.20409,0.91945 16.79906,3.35177 23.85941,7.64108 0.98556,0.59875 1.82002,1.05597 1.85435,1.01604 0.0343,-0.0399 0.31081,-1.14415 0.61439,-2.45384 2.38915,-10.30721 2.90203,-23.73303 1.36469,-35.72384 -2.54658,-19.86265 -10.75392,-38.89178 -23.42872,-54.32064 -3.30498,-4.02311 -11.53722,-12.12703 -15.72975,-15.48458 -32.89034,-26.33985 -80.2182,-31.06239 -118.50053,-11.82439 -6.6227,3.32809 -13.324,7.76627 -19.71832,13.05914 -3.69708,3.06024 -10.52874,9.81694 -13.42496,13.27765 -13.55158,16.19284 -22.16127,35.97961 -24.42655,56.13708 -1.34082,11.93116 -0.91171,22.68205 1.33938,33.55666 0.36148,1.74625 0.70801,3.32369 0.77006,3.50541 0.0758,0.22187 0.6502,-0.0169 1.7487,-0.72691 0.89973,-0.58152 2.8398,-1.64821 4.31126,-2.37041 z m 105.5409,-1.87985 c 3.47069,-0.51281 5.23951,-1.39181 5.58702,-2.77642 0.26303,-1.04799 -0.70736,-2.78721 -2.45768,-4.40487 -3.75526,-3.47065 -8.58258,-4.23072 -13.18657,-2.07626 -2.23856,1.04755 -5.33574,4.08237 -6.02593,5.9046 -0.46339,1.22344 -0.4628,1.27695 0.02,1.81045 0.70375,0.77763 1.35259,1.09127 3.01697,1.45834 1.83368,0.40442 10.50031,0.46032 13.04619,0.0842 z M 268.00633,318.9041 c 0.9749,-0.49916 3.54303,-3.03691 5.38188,-5.31821 l 0.95971,-1.19063 9.31569,-0.0921 9.3157,-0.0921 2.45216,2.40474 c 2.46246,2.41486 3.72119,3.20334 5.11376,3.20334 1.22815,0 3.33503,-1.23438 4.89076,-2.8654 2.35328,-2.46716 3.44442,-5.04633 4.04868,-9.57001 0.66321,-4.96501 0.39716,-9.78515 -0.91707,-16.61447 l -0.49399,-2.56705 2.54989,-2.66461 c 3.5343,-3.69331 5.02753,-6.30812 5.05141,-8.84554 0.0153,-1.62619 -0.69096,-2.93371 -1.90511,-3.52699 -1.62553,-0.7943 -2.17926,-0.49281 -5.92781,3.22756 -3.08891,3.06569 -3.62973,3.48517 -5.91339,4.58655 -1.38245,0.66674 -2.72386,1.28159 -2.98091,1.36635 -0.4037,0.1331 -0.30213,0.37853 0.74571,1.80193 2.90355,3.94418 5.08168,10.6314 5.80176,17.81231 l 0.15919,1.5875 -1.19861,-2.20418 c -1.93174,-3.55234 -3.26572,-5.28104 -4.9857,-6.46093 -1.68807,-1.158 -2.32142,-1.00609 -3.45374,0.82842 -2.74042,4.43983 -7.92002,7.12767 -12.30881,6.38741 -2.54262,-0.42887 -4.20081,-1.48942 -7.72969,-4.94379 -3.0284,-2.96447 -3.07893,-2.99964 -4.31001,-2.99964 -3.33581,0 -6.37452,3.27895 -8.82714,9.525 l -0.88309,2.24896 0.1189,-2.91042 c 0.0654,-1.60073 0.30959,-3.80338 0.54264,-4.89479 1.00149,-4.69008 3.48593,-10.7995 5.72659,-14.08206 0.59255,-0.86809 1.039,-1.60569 0.99212,-1.63911 -0.0469,-0.0334 -0.68697,-0.31309 -1.42239,-0.62148 -4.86515,-2.04015 -8.74452,-5.48906 -10.73768,-9.54622 -1.44328,-2.93784 -5.03782,-2.85401 -6.36596,0.14845 -0.4491,1.01528 -0.51795,1.5603 -0.38997,3.08689 0.24084,2.87276 1.30288,4.74975 4.52183,7.99162 1.46699,1.47745 2.94416,2.86823 3.28262,3.09065 l 0.61536,0.40438 -0.57143,4.59125 c -0.74789,6.00907 -0.96736,12.01727 -0.53707,14.70291 0.75778,4.72966 2.71065,9.19439 5.24809,11.99834 1.20802,1.33491 3.48958,3.15771 3.95244,3.15771 0.0501,0 0.53277,-0.22618 1.07268,-0.50262 z m 34.18685,-6.94467 c -1.30472,-1.1029 -3.32306,-2.21238 -5.02708,-2.76339 -1.25897,-0.40711 -2.77105,-0.48453 -11.21295,-0.57418 -6.37098,-0.0677 -10.54936,8.1e-4 -12.03854,0.19724 -2.46158,0.3247 -6.10243,1.43772 -8.23051,2.5161 -0.72949,0.36966 -1.32633,0.57145 -1.32633,0.44842 0,-0.55025 1.78086,-2.82595 3.30283,-4.22056 1.80225,-1.65144 3.36985,-2.54764 5.51742,-3.15433 1.876,-0.52997 15.92023,-0.97851 18.75227,-0.5989 5.54492,0.74324 9.04338,2.86377 10.70209,6.48689 0.36101,0.78854 0.61823,1.66136 0.57161,1.9396 -0.077,0.45968 -0.16937,0.43439 -1.01081,-0.27689 z m -16.00729,-18.68439 c 0.43656,-0.22249 1.66543,-0.99167 2.73082,-1.70928 1.06539,-0.71762 2.97039,-1.7768 4.23333,-2.35374 1.26295,-0.57694 2.44509,-1.24519 2.62699,-1.485 0.81511,-1.07459 -0.0126,-4.35214 -1.31457,-5.2052 -0.34722,-0.2275 -0.99044,-0.48547 -1.42937,-0.57326 -0.93177,-0.18635 -1.52644,0.39333 -3.94657,3.84712 -1.76746,2.52234 -2.94429,3.59762 -4.35236,3.97678 -2.42966,0.65423 -4.68449,-0.88603 -6.31709,-4.31515 -1.22756,-2.57838 -1.75992,-3.11294 -3.26959,-3.2831 -0.9873,-0.11129 -1.23891,-0.0283 -1.89987,0.6266 -1.03903,1.02952 -1.48151,2.19013 -1.48151,3.88593 v 1.42827 l 2.05052,0.73717 c 2.78197,1.00012 3.95346,1.59881 5.35781,2.7381 1.98361,1.60922 2.07724,1.67083 3.10635,2.04439 1.12052,0.40674 2.68386,0.26277 3.90511,-0.35963 z m 2.34864,-17.51623 c 2.43062,-0.62164 5.6451,-2.24608 7.35943,-3.71909 2.02834,-1.7428 4.44714,-5.82322 4.44714,-7.50214 0,-0.97445 -1.87379,-2.85911 -4.82841,-4.8564 -3.60238,-2.43519 -3.54322,-2.40839 -2.75475,-1.24805 1.05043,1.54585 1.3906,3.46554 0.99477,5.61381 -0.65373,3.54791 -3.0267,6.80742 -6.03752,8.29312 -1.05816,0.52215 -1.67615,0.62475 -3.78382,0.62818 -2.31168,0.004 -2.66293,-0.0667 -4.26577,-0.85577 -3.43381,-1.69046 -5.54611,-5.03113 -5.72699,-9.05742 -0.093,-2.06966 -0.0387,-2.37626 0.66559,-3.75764 0.69849,-1.37006 0.71819,-1.47848 0.22113,-1.21658 -1.52479,0.80342 -3.91505,2.61787 -5.54367,4.2082 -1.70274,1.66271 -1.81179,1.83814 -1.65347,2.65984 0.34995,1.81634 2.07807,4.81527 3.71992,6.45547 2.27409,2.2718 5.96723,4.16642 9.14924,4.69364 1.97286,0.32688 6.11668,0.15201 8.03718,-0.33917 z m 39.62394,-4.04993 c 1.10218,-2.18158 1.64541,-4.50946 1.44675,-6.19975 -0.1362,-1.15883 -0.008,-1.88221 0.75346,-4.24294 0.93074,-2.88654 2.03281,-7.26393 1.86983,-7.42691 -0.049,-0.049 -0.53242,0.72349 -1.07417,1.71674 -2.13977,3.9231 -3.08097,5.38873 -4.35747,6.78543 l -1.33034,1.4556 0.6003,1.01578 c 0.53424,0.90397 0.60031,1.36521 0.60031,4.19077 0,1.74625 -0.1,3.64959 -0.22215,4.22965 l -0.22214,1.05465 0.5818,-0.52548 c 0.31999,-0.28902 0.92921,-1.21311 1.35382,-2.05354 z m -87.47859,-1.97748 c 0.001,-1.8555 0.10408,-4.20707 0.22847,-5.22572 l 0.22615,-1.85208 -1.28139,-1.71979 c -0.70476,-0.94589 -1.84937,-2.84313 -2.54357,-4.21609 -0.69421,-1.37297 -1.26219,-2.37083 -1.26219,-2.21747 0,0.93208 0.89118,5.12442 1.35795,6.38818 0.34983,0.94713 0.63126,2.57403 0.76305,4.411 0.15016,2.0931 0.41008,3.46769 0.92552,4.8948 0.56058,1.55208 1.28691,2.9085 1.55855,2.91061 0.0138,10e-5 0.0262,-1.51794 0.0275,-3.37344 z m 64.05788,-11.49365 c 0.28806,-0.46609 -2.95733,-3.38802 -6.93096,-6.24016 -10.32707,-7.41245 -16.24955,-7.69008 -26.12008,-1.22444 -4.23129,2.7717 -8.2967,6.37069 -7.77997,6.88742 0.0724,0.0724 2.13822,-0.70204 4.59078,-1.72091 7.48743,-3.11054 12.32836,-4.20664 17.26331,-3.90884 4.69646,0.28341 6.88384,0.98329 12.24879,3.91917 4.4478,2.43398 6.25746,3.04932 6.72813,2.28776 z m -40.2477,-13.27952 c 1.01864,-0.48265 3.39797,-2.03388 5.28738,-3.44717 4.13817,-3.09537 5.4409,-3.8608 8.20637,-4.82172 1.89896,-0.65983 2.48403,-0.73667 5.68854,-0.74707 3.02467,-0.01 3.87588,0.0833 5.55625,0.6076 2.4,0.74888 6.12929,2.58325 9.52255,4.68396 3.17384,1.96488 5.08426,2.75239 6.69632,2.76037 2.18314,0.0108 3.20549,-0.81367 5.40571,-4.35935 2.19765,-3.54154 2.26517,-3.71335 1.80729,-4.59878 -0.28546,-0.55202 -0.32901,-0.98967 -0.15786,-1.58642 0.20093,-0.7006 0.095,-1.07839 -0.70687,-2.52108 -0.88261,-1.58795 -1.02996,-1.72112 -2.2934,-2.0726 -1.46548,-0.40768 -1.42506,-0.338 -2.18259,-3.76272 -0.50251,-2.27182 -6.08359,-5.66397 -11.50362,-6.99184 -2.79308,-0.68429 -3.05998,-0.80542 -3.61615,-1.64123 -1.44543,-2.17216 -2.79003,-2.58382 -5.06632,-1.55111 l -1.16889,0.53031 -0.71859,-0.68845 -0.71858,-0.68845 -1.33248,0.67522 c -1.25809,0.63752 -1.39938,0.65509 -2.53079,0.31458 -1.15077,-0.34633 -1.27496,-0.32711 -3.13004,0.48429 -1.06246,0.46471 -2.45386,1.17727 -3.09201,1.58346 -0.81665,0.51981 -1.37137,0.69631 -1.8731,0.59596 -0.63354,-0.12671 -0.77633,-0.0119 -1.28369,1.03242 -0.60863,1.25275 -0.64452,1.26705 -2.35107,0.93671 -1.10914,-0.2147 -1.11765,-0.2102 -3.43958,1.81786 -8.35411,7.29679 -12.1651,15.24778 -9.86791,20.58773 0.6659,1.54793 2.5032,3.39627 3.62197,3.64374 0.40878,0.0904 0.8623,0.20943 1.00782,0.26446 0.6273,0.23725 2.51632,-0.22713 4.23334,-1.04068 z"
       id="path1" /></g></svg>
