<?xml version="1.0" encoding="UTF-8" standalone="no"?>
<!-- Created with Inkscape (http://www.inkscape.org/) -->

<svg
   width="250.14183mm"
   height="247.48206mm"
   viewBox="0 0 250.14183 247.48206"
   version="1.1"
   id="svg1"
   xml:space="preserve"
   inkscape:version="1.4 (86a8ad7, 2024-10-11)"
   sodipodi:docname="pegasus.svg"
   xmlns:inkscape="http://www.inkscape.org/namespaces/inkscape"
   xmlns:sodipodi="http://sodipodi.sourceforge.net/DTD/sodipodi-0.dtd"
   xmlns="http://www.w3.org/2000/svg"
   xmlns:svg="http://www.w3.org/2000/svg"><sodipodi:namedview
     id="namedview1"
     pagecolor="#ffffff"
     bordercolor="#000000"
     borderopacity="0.25"
     inkscape:showpageshadow="2"
     inkscape:pageopacity="0.0"
     inkscape:pagecheckerboard="0"
     inkscape:deskcolor="#d1d1d1"
     inkscape:document-units="mm"
     inkscape:zoom="0.53858859"
     inkscape:cx="-353.70226"
     inkscape:cy="-201.45247"
     inkscape:window-width="1828"
     inkscape:window-height="1057"
     inkscape:window-x="3924"
     inkscape:window-y="-8"
     inkscape:window-maximized="1"
     inkscape:current-layer="layer1" /><defs
     id="defs1" /><g
     inkscape:label="Warstwa 1"
     inkscape:groupmode="layer"
     id="layer1"
     transform="translate(-244.24943,-291.36089)"><path
       style="fill:#000000"
       d="m 360.88608,538.71309 c -35.43483,-2.56974 -67.56529,-19.32245 -89.66395,-46.75049 -15.80296,-19.61404 -24.90356,-42.91891 -26.77334,-68.56134 -0.39628,-5.43459 -0.1725,-17.55842 0.41267,-22.35729 3.09569,-25.38739 13.014,-47.93389 29.44704,-66.93958 32.9432,-38.1006 86.10593,-52.30194 135.52549,-36.20288 11.01185,3.58726 22.80831,9.45702 32.01458,15.93002 10.15965,7.14334 20.16905,16.72923 27.45647,26.29478 20.66276,27.12215 29.05691,61.51564 23.32701,95.57807 -5.07314,30.15817 -20.74548,56.57441 -45.17436,76.14282 -3.43994,2.75552 -11.45888,8.18907 -15.53099,10.52363 -16.32526,9.35937 -34.28235,14.83382 -53.31354,16.25334 -3.24403,0.24197 -14.8162,0.30001 -17.72708,0.0889 z m 21.12705,-8.95091 c 24.55566,-2.6608 46.28301,-12.28832 65.12711,-28.85819 19.08966,-16.78579 32.15311,-39.78249 36.88683,-64.93502 3.59393,-19.09631 2.08971,-39.78055 -4.23655,-58.25586 -6.41457,-18.73318 -18.35531,-36.45418 -33.01203,-48.99247 -14.27587,-12.21246 -29.23023,-20.09595 -47.26325,-24.91575 -8.59848,-2.29817 -16.28349,-3.46614 -24.98721,-3.79757 -32.69348,-1.2449 -61.89732,9.38098 -85.47633,31.10077 -12.86062,11.84655 -24.23249,29.27183 -30.01413,45.99109 -4.76349,13.77498 -6.62034,25.80725 -6.28238,40.70936 0.25198,11.11039 1.59379,19.67614 4.69761,29.98828 7.89142,26.21848 24.76864,48.50062 48.39994,63.90003 4.90265,3.19483 7.73103,4.79233 12.75606,7.20477 13.45955,6.46172 27.37585,10.08624 43.20607,11.25307 4.37694,0.32262 15.61383,0.10426 20.19826,-0.39251 z m 20.96224,-12.44756 c -0.93459,-0.20269 -1.81779,-0.48706 -1.96266,-0.63194 -0.39126,-0.39126 1.35144,-3.69977 3.38965,-6.43523 1.24162,-1.66635 2.15532,-2.58773 3.24881,-3.2761 2.00742,-1.26369 2.85077,-2.06283 3.90858,-3.70369 0.74507,-1.15573 1.08762,-1.43057 2.27437,-1.82474 0.87113,-0.28935 1.87835,-0.91414 2.67514,-1.65945 2.0278,-1.89677 9.29722,-13.16582 10.15084,-15.73581 0.5178,-1.55896 0.39414,-3.89389 -0.27474,-5.18736 -0.59893,-1.1582 -2.21932,-2.73578 -3.70325,-3.60542 -0.67578,-0.39603 -2.91231,-1.4212 -4.97007,-2.27815 -7.2083,-3.00187 -11.79537,-5.80362 -15.80904,-9.65603 -3.16393,-3.03682 -5.40413,-6.13709 -7.43254,-10.28611 -2.44804,-5.00734 -3.40869,-9.06413 -3.43482,-14.50508 l -0.0129,-2.69283 -0.65208,1.69529 c -1.76097,4.57826 -2.02159,8.43041 -0.81203,12.00246 0.38292,1.13085 0.69622,2.09951 0.69622,2.15257 0,0.0531 -0.8632,-0.14313 -1.91823,-0.43596 -2.94817,-0.81831 -7.72949,-0.89803 -13.82447,-0.23051 -8.74621,0.95789 -12.44772,1.16171 -18.12396,0.99796 -9.83586,-0.28373 -17.94969,-1.58091 -22.9894,-3.67538 l -1.95502,-0.81249 1.63238,-0.59107 c 3.27574,-1.18612 4.37875,-2.35931 6.27684,-6.67623 0.55862,-1.27049 1.64492,-3.54879 2.41401,-5.06289 0.76909,-1.5141 1.34981,-2.80145 1.29048,-2.86078 -0.26492,-0.26492 -4.7122,5.19421 -5.87978,7.21754 -2.05245,3.55676 -2.8467,4.50601 -4.20398,5.02436 -1.13922,0.43507 -1.36553,0.43536 -4.30595,0.005 -1.88989,-0.27629 -6.311,-0.55397 -11.30562,-0.71008 -4.51115,-0.14101 -9.54815,-0.42471 -11.19335,-0.63046 -1.91571,-0.23957 -3.21883,-0.28756 -3.62418,-0.13345 -3.40671,1.29524 -0.59099,10.67077 4.83953,16.11424 1.36376,1.36702 1.41991,1.47805 1.27111,2.51355 -0.18477,1.28579 0.27916,2.3717 1.0616,2.48489 0.29895,0.0433 1.17114,-0.3437 1.93819,-0.85989 0.76706,-0.51619 1.552,-0.93853 1.74432,-0.93853 1.11535,0 4.03786,5.00717 4.90779,8.40856 0.56082,2.19277 0.67346,5.34409 0.22122,6.18911 -0.3589,0.67061 -0.99582,0.56895 -4.3396,-0.69262 -3.92002,-1.47898 -4.2756,-1.6699 -6.00958,-3.22669 -2.58721,-2.32283 -3.59043,-2.96549 -5.53176,-3.54365 -3.13863,-0.93472 -4.04197,-2.10941 -4.9779,-6.47325 -1.34643,-6.27777 -3.2274,-12.90513 -4.41082,-15.54092 -1.94687,-4.33618 -2.24231,-5.20679 -2.25965,-6.65873 -0.0226,-1.8921 0.55771,-3.10205 2.34414,-4.88746 1.68392,-1.68296 2.22756,-1.88477 5.07732,-1.88477 3.32292,0 13.75551,-1.95738 15.72671,-2.95067 0.60679,-0.30576 2.59917,-2.08566 4.45235,-3.97752 2.97722,-3.03935 3.25966,-3.40404 2.51355,-3.24552 -1.59066,0.33797 -4.628,1.91554 -5.84132,3.03394 -1.40236,1.29265 -1.62081,1.23069 -2.53764,-0.71978 -1.73104,-3.68262 -1.69141,-9.82564 0.10919,-16.92899 0.36206,-1.42831 1.0243,-4.32308 1.47164,-6.43284 1.75224,-8.26384 2.99432,-12.08218 5.65709,-17.39083 1.96411,-3.91575 2.81401,-6.8649 2.81401,-9.76461 0,-2.01923 0.0864,-2.39753 0.93026,-4.07322 1.80157,-3.57744 2.19791,-7.88405 0.97914,-10.63929 -0.74405,-1.68204 -1.09729,-1.75121 -0.67744,-0.13265 0.66244,2.55379 0.3615,4.73285 -1.04962,7.59995 -1.32071,2.68341 -3.29123,4.49999 -6.62721,6.10951 -4.50361,2.17285 -6.34889,4.65057 -7.75033,10.40661 -0.72232,2.96673 -1.23952,3.86217 -2.23077,3.86217 -0.30303,0 -1.36478,0.35718 -2.35945,0.79375 -2.40794,1.05685 -3.75152,1.05279 -5.36541,-0.0162 -1.46108,-0.96778 -2.61998,-2.24079 -3.42428,-3.76147 -0.87056,-1.64594 -0.76565,-4.13004 0.30188,-7.14756 0.45264,-1.27944 1.3669,-4.25601 2.03169,-6.61458 0.66479,-2.35857 1.95545,-6.78863 2.86814,-9.84457 1.5282,-5.11683 1.64969,-5.70703 1.53617,-7.46291 -0.15471,-2.39307 0.46602,-3.83478 2.3265,-5.40357 l 1.27903,-1.07849 -1.27527,-1.62647 c -1.79782,-2.29294 -4.02961,-5.84409 -3.73463,-5.94244 0.51535,-0.17184 3.32312,0.50093 4.67651,1.12053 0.77473,0.35469 2.00772,1.20529 2.73997,1.89022 l 1.33137,1.24534 v -1.03895 c 0,-3.852 2.41776,-7.70748 6.21771,-9.91505 1.39113,-0.80818 4.82024,-1.98116 5.06786,-1.73354 0.0797,0.0797 -0.15113,0.53973 -0.51301,1.02223 -0.77139,1.02852 -1.67961,2.78445 -2.19337,4.24059 l -0.36465,1.03353 1.49639,-1.33371 c 1.88189,-1.67731 5.02608,-3.32595 7.59705,-3.9835 2.35218,-0.60158 6.4714,-0.98418 14.04514,-1.30453 6.16464,-0.26075 7.32216,-0.5115 9.4837,-2.05446 l 1.28162,-0.91484 -0.18715,0.8773 c -0.56157,2.63252 -2.29567,4.86109 -4.88176,6.27375 l -1.44734,0.79062 3.03484,-0.009 c 4.44996,-0.0129 6.5221,0.6476 11.78236,3.75581 3.03606,1.79397 4.98054,2.34443 6.72105,1.90264 0.58734,-0.14908 1.06789,-0.18252 1.06789,-0.0743 0,0.37394 -1.51187,2.28215 -2.40801,3.03927 -1.12774,0.9528 -3.08855,1.83092 -5.08373,2.27671 -1.76642,0.39467 -1.62868,0.53734 1.10224,1.14171 2.79534,0.61863 4.79924,1.78531 6.82543,3.97378 2.70695,2.92375 4.85732,7.94349 4.40539,10.28374 -0.0773,0.40018 -0.18718,0.7276 -0.24422,0.7276 -0.057,0 -1.22789,-0.76754 -2.60191,-1.70565 -2.40351,-1.64101 -4.49445,-2.52768 -5.96076,-2.52768 -0.62351,0 -0.43228,0.26742 1.87025,2.61547 4.80609,4.90109 6.0302,8.23913 4.86248,13.25953 -0.43542,1.87203 -1.21455,3.96618 -1.4762,3.96776 -0.0903,5.4e-4 -0.24836,-0.85254 -0.35115,-1.89575 -0.24932,-2.53014 -0.99809,-4.4296 -2.29446,-5.82053 -0.61897,-0.66411 -0.9895,-0.92369 -0.88089,-0.6171 0.58409,1.64876 0.90484,3.72258 0.90849,5.87395 0.006,3.78113 -0.50378,5.82004 -2.80806,11.22185 -2.17903,5.10819 -2.28971,6.69397 -0.57329,8.21406 l 0.79449,0.70362 -0.58445,0.31279 c -0.93906,0.50257 -2.2947,0.0859 -3.43707,-1.0565 -1.28162,-1.28162 -2.0385,-3.56117 -3.03151,-9.13019 -0.38922,-2.18281 -1.05934,-5.93328 -1.48916,-8.33438 -2.26037,-12.62712 -4.24444,-18.66307 -8.04478,-24.47395 -2.31451,-3.53899 -6.84418,-7.31156 -11.18938,-9.31917 -5.63627,-2.60412 -13.08731,-2.88998 -21.34469,-0.81889 -1.75395,0.43992 -3.3676,0.91484 -3.58588,1.05539 -0.28516,0.1836 -0.21069,0.20484 0.26458,0.0754 1.28899,-0.35096 11.78459,-0.45125 14.19005,-0.1356 10.64571,1.39696 17.42893,6.33445 22.40796,16.31068 2.68419,5.37818 4.75159,13.03706 6.27849,23.25923 1.29846,8.69283 2.04631,11.38741 3.65598,13.17284 2.55665,2.83581 5.9929,2.72432 10.57896,-0.34325 3.5188,-2.35368 6.26937,-5.39642 7.93812,-8.78131 1.6604,-3.36797 2.45417,-6.09921 3.34197,-11.49926 1.31135,-7.97634 2.21516,-10.67696 4.40626,-13.16619 0.61289,-0.69627 3.6234,-3.3612 6.69004,-5.92207 6.2235,-5.19708 15.35895,-14.12246 18.46772,-18.04305 5.99411,-7.55942 9.29833,-14.5385 11.4305,-24.14323 0.21923,-0.98752 0.72638,-0.91438 1.75093,0.25251 2.61358,2.97671 3.64236,8.79415 2.50934,14.18958 -1.29893,6.18553 -5.35675,13.98197 -9.62793,18.49853 -3.04494,3.21987 3.99913,-2.27522 8.39434,-6.54843 5.08691,-4.94572 8.49699,-9.3137 11.81205,-15.13009 l 1.14937,-2.0166 0.40738,1.4296 c 2.10866,7.39969 0.62007,14.49871 -4.45391,21.24045 -2.97901,3.95818 -9.70427,9.87156 -15.15085,13.32184 -1.06062,0.67187 -1.88817,1.26181 -1.839,1.31097 0.0492,0.0492 2.04288,-0.74994 4.43049,-1.77578 7.52794,-3.23438 13.36495,-6.71921 19.35621,-11.55608 l 3.37344,-2.72345 -0.005,1.65373 c -0.009,3.14446 -1.1061,6.83223 -2.94429,9.89446 -1.88208,3.13535 -6.22081,7.13322 -10.94174,10.08214 -2.6943,1.68298 -10.01821,5.37192 -13.28967,6.69378 -1.19745,0.48384 -2.13008,0.9268 -2.07253,0.98436 0.16033,0.16032 5.47251,-0.92457 8.87991,-1.81353 4.46901,-1.16592 11.52512,-3.53826 15.67656,-5.27064 2.06496,-0.8617 3.63802,-1.38537 3.63802,-1.21109 0,0.85888 -0.90935,3.60385 -1.6619,5.01663 -1.76297,3.30965 -5.22714,6.20754 -10.34048,8.65013 -4.54723,2.17216 -9.62032,3.67934 -19.74762,5.86685 l -1.71979,0.37148 2.64583,0.2165 c 4.52176,0.37 16.13495,-0.21213 21.39825,-1.07262 l 1.02534,-0.16763 -0.62846,1.14524 c -0.34566,0.62989 -1.36416,1.8868 -2.26335,2.79313 -1.27887,1.28903 -2.22954,1.93472 -4.36563,2.96513 -4.85596,2.34242 -9.69917,3.1032 -18.275,2.87066 -2.87404,-0.0779 -5.22552,-0.10209 -5.22552,-0.0537 0,0.25659 3.42485,1.59585 6.08541,2.37964 3.88852,1.14555 7.74672,1.92208 10.66399,2.14632 1.26533,0.0973 2.3006,0.2673 2.3006,0.37787 0,0.52249 -2.9345,2.74674 -4.86064,3.6842 -4.70313,2.28901 -10.03755,2.41723 -18.22426,0.43804 -1.41883,-0.34301 -2.57969,-0.59143 -2.57969,-0.55204 0,0.13962 3.59802,2.41649 5.35596,3.38931 0.98124,0.54301 2.98174,1.50331 4.44556,2.134 1.46381,0.63069 2.67703,1.25041 2.69603,1.37715 0.0537,0.35792 -3.19105,1.89408 -4.94636,2.34178 -2.03715,0.51959 -4.9792,0.5121 -7.31253,-0.0186 -1.0176,-0.23145 -3.76538,-1.12866 -6.10618,-1.9938 -2.3408,-0.86514 -4.30475,-1.52423 -4.36433,-1.46465 -0.22107,0.22107 3.80302,3.57631 5.28828,4.40931 l 1.53872,0.86298 -1.14184,0.77343 c -3.27055,2.2153 -8.14525,3.90996 -11.29609,3.927 -1.19973,0.006 -1.39177,0.0636 -0.99284,0.29539 0.32546,0.18909 1.90873,0.24385 4.6302,0.16013 4.682,-0.14404 6.46388,-0.56764 9.73295,-2.3138 2.26627,-1.21051 5.22796,-1.80442 10.14539,-2.03447 4.95782,-0.23194 9.67042,0.54956 13.83084,2.2936 l 1.7923,0.75133 0.55283,-1.10147 c 3.5052,-6.98379 10.19345,-12.29118 17.41964,-13.82317 4.09885,-0.86898 9.41681,-0.29221 12.88107,1.39703 4.92412,2.40109 9.08764,9.1494 10.15697,16.46258 0.42103,2.87942 0.18345,8.18865 -0.55151,12.3246 -0.78241,4.40298 -0.7865,7.35147 -0.0124,8.95051 0.67681,1.39812 2.44842,3.07114 4.09741,3.8694 1.2341,0.59742 4.57845,0.75903 5.83342,0.2819 0.67679,-0.25732 0.67952,-0.25317 0.30361,0.46302 -0.20862,0.39746 -0.83561,1.16327 -1.3933,1.7018 -2.42709,2.34363 -5.99502,2.88407 -9.04855,1.3706 -1.90666,-0.94503 -2.02904,-0.75543 -0.9326,1.44483 1.60916,3.22917 4.58422,5.42199 8.90101,6.56064 0.98226,0.25909 1.78593,0.55283 1.78593,0.65275 0,0.0999 -0.57516,0.55075 -1.27813,1.00185 -3.20255,2.05507 -7.6934,2.67964 -11.62687,1.61701 -4.12566,-1.11454 -6.5472,-3.26868 -8.77493,-7.80598 -1.51488,-3.08541 -2.12029,-5.34793 -2.16387,-8.0867 -0.0507,-3.18393 -0.43043,-0.89973 -0.4647,2.79503 -0.0342,3.68141 0.54543,6.60338 1.8189,9.17008 l 0.79551,1.60335 -0.72848,-0.17993 c -2.08331,-0.51455 -5.5597,-3.74586 -6.91197,-6.42469 -1.08282,-2.14505 -1.39639,-3.65519 -1.38754,-6.68235 0.009,-3.13559 0.51764,-5.58668 1.91085,-9.211 2.02705,-5.2732 2.3529,-6.50756 2.3529,-8.91311 0,-3.01437 -0.6797,-4.83469 -2.48466,-6.65421 -1.75713,-1.77131 -3.46661,-2.31827 -6.75433,-2.16108 -1.84938,0.0884 -2.60936,0.26333 -4.0274,0.92691 -1.70713,0.79886 -3.93152,2.52746 -3.93152,3.05523 0,0.14547 0.40223,0.81622 0.89386,1.49056 2.20679,3.02696 3.55174,6.81531 3.78911,10.67282 0.28761,4.67417 -0.65772,9.25063 -3.12182,15.1131 -2.24017,5.32971 -2.28752,6.5554 -0.37434,9.69091 1.94782,3.19229 5.6777,6.38689 9.13193,7.82139 2.75318,1.14335 4.49792,2.85405 4.49792,4.41015 0,0.84734 -0.60751,2.1302 -3.04707,6.43437 -4.53187,7.99568 -8.39413,16.72431 -9.79879,22.14508 -0.55306,2.13434 -1.28393,3.53626 -2.13391,4.09319 -0.44245,0.28991 -1.51223,0.50877 -3.01757,0.61735 -1.98292,0.14303 -2.47349,0.27605 -3.27633,0.8884 -1.55543,1.18639 -1.67548,1.66295 -0.67812,2.69196 0.73592,0.75928 0.82801,1.00245 0.67948,1.79421 -0.30535,1.62766 -1.20294,2.62124 -3.33394,3.69047 -3.35651,1.68414 -8.61581,2.25317 -12.67945,1.37187 z M 376.23191,410.26807 c -2.20848,-0.88507 -5.14599,-2.51518 -6.19261,-3.43645 -1.3936,-1.2267 -1.57522,-0.89401 -0.45926,0.84128 1.52377,2.36939 2.44313,2.86304 5.32895,2.86139 1.58993,-9.1e-4 1.85289,-0.0538 1.32292,-0.26622 z m -53.93265,-7.63303 c 7.04942,-7.61379 10.0075,-12.16186 11.36001,-17.46607 0.49175,-1.92856 0.44945,-7.39676 -0.0696,-8.99583 l -0.38647,-1.19063 -0.17264,2.51354 c -0.40734,5.93085 -2.50387,10.98208 -7.10008,17.1064 -2.23568,2.97898 -4.44608,6.43845 -6.22893,9.74881 -1.14233,2.12105 -1.51447,3.22211 -0.67191,1.98794 0.24703,-0.36184 1.71836,-2.02871 3.26962,-3.70416 z m 62.39931,2.70407 1.19063,-0.54639 -1.02014,-0.0223 c -2.04523,-0.0447 -6.50324,-1.52932 -8.18936,-2.72726 -1.16583,-0.82828 -1.07481,-0.43295 0.29054,1.26183 1.92692,2.39185 2.7316,2.84263 4.81792,2.69893 0.94588,-0.0651 2.25557,-0.36432 2.91041,-0.66482 z m 6.4823,-6.65125 c 0.58208,-0.27082 1.59411,-1.05762 2.24895,-1.74844 l 1.19063,-1.25605 -0.92604,0.17898 c -2.57108,0.4969 -5.68892,0.7325 -8.02755,0.6066 l -2.60358,-0.14017 0.60343,0.64232 c 0.33188,0.35328 1.31415,0.99747 2.18282,1.43155 1.87671,0.93781 3.71709,1.03626 5.33134,0.28521 z m 5.21567,-9.91818 c 1.34439,-0.58107 2.78221,-1.89333 3.39887,-3.1021 0.28247,-0.55368 0.51358,-1.11905 0.51358,-1.25637 0,-0.13732 -0.62508,0.0867 -1.38906,0.49771 -2.71095,1.45863 -8.74307,3.43255 -10.49514,3.43438 -0.90103,9.4e-4 -0.51097,0.28398 0.96585,0.70084 1.6285,0.45968 5.67401,0.30119 7.0059,-0.27446 z m -98.20824,-4.98977 c 0.61624,-1.00007 0.58513,-1.74431 -0.0901,-2.15579 -0.86899,-0.52956 -1.60331,1.23522 -1.08068,2.59717 0.24397,0.63578 0.58666,0.50658 1.17079,-0.44138 z m 98.82817,-4.44002 c 3.2195,-1.10012 5.81427,-3.5145 6.59213,-6.13384 0.22152,-0.74593 0.36971,-1.38929 0.32931,-1.42969 -0.0404,-0.0404 -0.66507,0.40368 -1.38817,0.98683 -2.3468,1.89263 -5.2228,3.75605 -8.15875,5.2862 -1.62795,0.84846 -2.71836,1.56093 -2.51354,1.64234 0.87057,0.34605 3.65444,0.15545 5.13902,-0.35184 z m -0.27935,-10.69125 c 3.8057,-1.77264 5.85045,-4.07488 6.14383,-6.91748 l 0.15506,-1.50236 -3.71486,3.08149 c -3.72206,3.08748 -5.56054,4.87123 -6.14365,5.96077 -0.30167,0.56369 -0.279,0.57705 0.69786,0.41143 0.55532,-0.0941 1.84311,-0.55938 2.86176,-1.03385 z m -89.88908,-7.00013 c 0.64504,-1.09081 1.20868,-3.35636 0.94471,-3.79724 -0.20426,-0.34115 -3.23812,1.89601 -3.64916,2.69088 -0.40854,0.79003 -0.55039,2.005 -0.46058,3.94478 l 0.0531,1.14608 1.21206,-1.41066 c 0.66664,-0.77587 1.52159,-1.9341 1.8999,-2.57384 z m 47.34866,150.01595 c -0.98702,-0.11039 -1.91524,-0.32136 -2.06271,-0.46883 -0.42925,-0.42925 0.65852,-2.83333 2.61194,-5.77267 1.8657,-2.80734 3.73205,-4.82789 5.56113,-6.02059 1.28554,-0.83828 1.89694,-1.74309 2.83948,-4.2022 0.37002,-0.96539 0.88118,-1.94386 1.13591,-2.17439 0.25472,-0.23053 3.07733,-1.72756 6.27244,-3.32674 6.2577,-3.13203 11.67796,-6.14644 13.66119,-7.59751 0.68051,-0.49791 1.61301,-1.46713 2.07223,-2.15382 0.72198,-1.07962 0.8207,-1.42943 0.72963,-2.58554 -0.13618,-1.72894 -1.17483,-3.30344 -4.93515,-7.48127 -3.51282,-3.90284 -4.66802,-5.611 -5.75653,-8.51193 -0.83731,-2.23149 -1.68185,-5.7333 -1.68185,-6.97367 0,-0.64087 0.0266,-0.6475 3.36514,-0.84006 4.02768,-0.23231 9.055,0.17273 11.49391,0.92603 1.57019,0.48498 1.80348,0.65637 2.73562,2.00981 0.56048,0.81379 2.43819,2.83185 4.1727,4.48459 l 3.15364,3.00498 -0.42196,1.85524 c -0.23209,1.02038 -0.42197,2.38414 -0.42197,3.03056 0,2.01083 0.78435,5.43287 1.86962,8.15694 1.13303,2.84398 1.22574,3.4991 0.68002,4.8052 -0.45522,1.0895 -1.10349,1.50957 -4.17712,2.7067 -5.78651,2.25376 -13.10059,6.33993 -16.8498,9.41349 -1.64861,1.35152 -3.51473,3.35943 -5.75704,6.19443 l -0.81869,1.0351 -1.82714,-0.30741 c -3.54952,-0.5972 -4.3016,0.0638 -3.03374,2.66632 1.47464,3.02697 0.93254,5.49319 -1.43795,6.54177 -3.11356,1.37727 -8.85525,2.06833 -13.17295,1.58547 z m -82.18346,-66.23664 c -1.5389,-4.18885 -1.66984,-4.90073 -1.73991,-9.45885 -0.0674,-4.38302 -0.10281,-4.59485 -1.32312,-7.91093 -0.69442,-1.88698 -0.42031,-2.42068 3.13485,-6.10363 6.14899,-6.37001 9.0772,-10.55392 11.53831,-16.48628 0.62995,-1.51845 1.04759,-2.15833 1.59272,-2.44022 1.05092,-0.54345 3.06568,-0.95491 4.7614,-0.97238 1.34927,-0.0139 1.88981,0.20794 7.40859,3.04048 5.78452,2.96893 8.82761,4.32813 11.47056,5.12333 1.18114,0.35538 1.27381,0.44323 1.15574,1.0956 -0.99399,5.49209 -1.24922,7.17593 -1.24922,8.2415 0,1.817 0.6765,5.43193 1.43742,7.68104 0.36098,1.06696 0.59493,2.03928 0.51988,2.16071 -0.22125,0.358 -2.18685,0.25248 -2.98495,-0.16023 -1.04112,-0.53838 -4.51896,-4.281 -8.4993,-9.14637 -3.8354,-4.68821 -5.08669,-5.87397 -6.8229,-6.46555 -3.34302,-1.13908 -4.75521,-0.20938 -9.79127,6.44604 -1.03696,1.3704 -2.3173,3.36576 -2.84519,4.43412 -0.8078,1.63487 -0.9455,2.16208 -0.86955,3.32919 l 0.0902,1.3867 -1.25677,0.60042 c -0.9595,0.45839 -1.25677,0.74396 -1.25677,1.20727 0,0.79588 1.18749,1.88099 2.51354,2.29682 0.58208,0.18253 1.40127,0.50563 1.82041,0.71799 0.73679,0.37331 0.75697,0.43563 0.60808,1.87823 -0.23492,2.27612 -1.91997,5.43834 -4.08749,7.67069 -1.52252,1.56808 -4.03126,3.48796 -4.55775,3.48796 -0.088,0 -0.43341,-0.74414 -0.76755,-1.65365 z m 93.06139,-50.69679 -0.84689,-0.75669 0.72073,-1.97609 c 0.67142,-1.84092 2.65202,-5.63472 5.56817,-10.66574 1.87644,-3.23727 2.34119,-4.65728 2.47892,-7.57415 0.0856,-1.81342 0.004,-2.94406 -0.28374,-3.92531 -0.37889,-1.29252 -0.37265,-1.43142 0.10045,-2.23326 1.3234,-2.24299 1.66027,-3.81275 1.68052,-7.83082 l 0.0193,-3.83646 2.53361,-3.0427 c 8.12666,-9.75961 13.23723,-18.44161 15.82416,-26.88255 1.36575,-4.45635 1.67894,-6.58218 1.57735,-10.7068 l -0.0914,-3.71017 0.66145,0.16204 c 0.98979,0.24248 2.85701,2.18247 3.70787,3.85238 2.64665,5.19434 2.28522,13.07567 -1.04763,22.84465 -0.44295,1.29833 -0.75977,2.40619 -0.70406,2.4619 0.23496,0.23496 2.07607,-2.38209 3.57581,-5.08283 2.78702,-5.01889 5.74051,-12.65338 6.79688,-17.56923 0.25369,-1.18056 0.55432,-2.14648 0.66806,-2.14648 0.32849,0 1.78198,2.24058 2.621,4.04031 2.46551,5.28865 2.02358,9.30922 -1.723,15.67531 -2.09972,3.5678 -4.85837,7.00608 -8.71582,10.86311 -3.79872,3.7983 -6.2122,5.86063 -12.19056,10.41691 -5.20312,3.96545 -7.45581,6.23862 -8.69299,8.77204 -1.22788,2.51438 -1.58543,3.96765 -2.422,9.8443 -0.37692,2.64773 -0.92358,5.76656 -1.2148,6.93073 -0.72116,2.88285 -2.81301,7.11042 -4.38158,8.85506 -1.73203,1.92643 -4.23891,3.97723 -4.86174,3.97723 -0.28119,0 -0.89235,-0.34051 -1.35813,-0.75669 z"
       id="path1" /></g></svg>
