<?xml version="1.0" encoding="UTF-8" standalone="no"?>
<!-- Created with Inkscape (http://www.inkscape.org/) -->

<svg
   width="255.04898mm"
   height="253.46831mm"
   viewBox="0 0 255.04897 253.4683"
   version="1.1"
   id="svg1"
   xml:space="preserve"
   inkscape:version="1.4 (86a8ad7, 2024-10-11)"
   sodipodi:docname="Hermes.svg"
   xmlns:inkscape="http://www.inkscape.org/namespaces/inkscape"
   xmlns:sodipodi="http://sodipodi.sourceforge.net/DTD/sodipodi-0.dtd"
   xmlns="http://www.w3.org/2000/svg"
   xmlns:svg="http://www.w3.org/2000/svg"><sodipodi:namedview
     id="namedview1"
     pagecolor="#ffffff"
     bordercolor="#000000"
     borderopacity="0.25"
     inkscape:showpageshadow="2"
     inkscape:pageopacity="0.0"
     inkscape:pagecheckerboard="0"
     inkscape:deskcolor="#d1d1d1"
     inkscape:document-units="mm"
     inkscape:zoom="0.19041982"
     inkscape:cx="-28.883547"
     inkscape:cy="70.89598"
     inkscape:window-width="1828"
     inkscape:window-height="1057"
     inkscape:window-x="3924"
     inkscape:window-y="-8"
     inkscape:window-maximized="1"
     inkscape:current-layer="layer1" /><defs
     id="defs1" /><g
     inkscape:label="Warstwa 1"
     inkscape:groupmode="layer"
     id="layer1"
     transform="translate(12.225067,-127.23006)"><path
       style="fill:#000000"
       d="M 110.04276,380.60347 C 97.480792,380.15809 83.419073,377.30158 70.884433,372.64883 47.371737,363.9211 26.25203,347.93918 11.69761,327.86036 -7.1725115,301.82773 -15.38098,268.8835 -11.126809,236.25583 -8.1632472,213.52658 1.6618168,191.21551 16.614362,173.26028 l 2.713504,-3.25841 0.709014,1.37756 c 0.896993,1.74278 3.215566,4.51435 4.978086,5.95069 l 1.358656,1.10722 -1.462838,1.8188 C 11.61991,196.78121 3.3082598,214.80007 -0.01902414,234.30159 -2.3464643,247.94294 -2.0626441,263.17994 0.77910177,277.1493 3.6175019,291.10221 9.3279312,305.00214 17.090142,316.85249 c 7.787845,11.88948 19.739782,24.09529 31.437001,32.10475 13.568361,9.29069 29.00603,15.78269 44.805302,18.84198 12.898625,2.49761 27.475645,2.7332 40.522815,0.6549 15.32738,-2.44152 32.07825,-8.70489 44.25156,-16.54623 l 1.78594,-1.1504 v -5.4293 c 0,-4.17152 -0.0766,-5.42735 -0.33073,-5.4209 -1.39831,0.0355 -5.5847,0.82069 -6.2729,1.17657 -0.46794,0.24198 -1.04878,0.79746 -1.29077,1.2344 -0.24198,0.43695 -1.69013,2.7423 -3.2181,5.12302 -1.52797,2.38072 -3.10504,4.87631 -3.5046,5.54577 -0.54514,0.91336 -1.04046,1.35359 -1.98438,1.76366 -3.19148,1.3865 -9.25671,3.7216 -12.50268,4.81351 -3.32963,1.12005 -10.34147,3.08611 -11.01319,3.088 -0.16366,4.6e-4 -0.67958,-1.10049 -1.14649,-2.44655 -0.46692,-1.34607 -1.98791,-5.2956 -3.37999,-8.77674 l -2.53105,-6.32935 0.89942,-0.78559 c 5.95634,-5.20251 19.69332,-18.40735 21.45979,-20.62848 0.50905,-0.64006 1.06409,-1.9276 1.54247,-3.5781 1.4109,-4.86785 7.84868,-18.81403 9.64567,-20.89546 1.21443,-1.40666 2.55992,-2.10673 4.99179,-2.59728 1.03888,-0.20957 4.04351,-0.87125 6.67696,-1.47041 5.32152,-1.21075 6.74059,-1.23355 8.85525,-0.14226 1.07133,0.55287 1.20503,0.76559 2.94143,4.68023 2.31982,5.22992 2.66018,6.34473 2.28225,7.47525 -1.4088,4.21424 -7.13733,2.86902 -10.15444,-2.38455 -0.27241,-0.47434 -0.55825,-0.82552 -0.63519,-0.7804 -1.23189,0.72241 -3.67549,1.63488 -4.99013,1.86339 -1.60509,0.279 -1.66952,0.3197 -1.53901,0.97225 0.0749,0.37459 0.28312,1.73121 0.46267,3.01471 0.67515,4.82618 -0.60286,10.54281 -3.46023,15.4778 -0.87637,1.5136 -1.5934,2.79658 -1.5934,2.85107 0,0.24499 1.5845,-0.78357 2.91041,-1.88927 2.25909,-1.88388 3.27425,-1.33636 2.07855,1.12107 -0.3882,0.79782 -0.64185,1.87316 -0.70064,2.97035 -0.079,1.47357 0.0147,1.92813 0.65403,3.175 0.59629,1.16288 1.01194,1.59732 2.06911,2.16263 1.21669,0.65062 3.77993,1.28313 6.74687,1.66487 l 1.19063,0.15319 -0.0777,4.75653 c -0.0427,2.61609 0.025,4.75653 0.15044,4.75653 0.12547,0 1.60553,-1.10133 3.28903,-2.4474 15.61948,-12.48884 27.25659,-27.86066 34.98084,-46.20729 4.11018,-9.76248 6.83066,-20.0462 8.25024,-31.18683 0.56223,-4.41222 0.77456,-15.98443 0.39024,-21.26805 -0.93284,-12.82472 -3.64388,-24.88799 -8.06274,-35.87671 -1.52061,-3.78141 -4.41919,-10.12289 -4.62512,-10.11877 -0.0902,0.002 -0.43862,0.42711 -0.77426,0.94514 -1.33727,2.0639 -4.84402,2.78286 -8.29585,1.70083 -0.92247,-0.28917 -1.89369,-0.52729 -2.15826,-0.52917 -0.83884,-0.006 0.44589,1.46269 2.15118,2.45914 1.771,1.03483 1.9105,1.60863 0.605,2.48841 -2.41807,1.62954 -4.70081,1.47826 -9.48503,-0.6286 -0.65884,-0.29013 -0.30594,0.41048 0.85989,1.70717 0.65484,0.72834 1.19063,1.44115 1.19063,1.58401 0,0.51237 -1.75082,0.98506 -3.57188,0.96436 -1.52143,-0.0173 -2.13822,-0.16692 -3.45487,-0.83804 l -1.60279,-0.81697 -2.63054,0.89316 c -2.06959,0.70269 -3.06782,0.8955 -4.68107,0.90417 l -2.05052,0.011 v 15.21354 c 0,8.36745 0.0581,15.21354 0.12908,15.21354 0.071,0 1.7691,-0.74796 3.77357,-1.66213 6.18289,-2.8198 10.04473,-5.71891 11.34902,-8.51978 0.71845,-1.54283 0.77991,-2.50617 0.22797,-3.5735 -0.69297,-1.34005 -1.29072,-1.59054 -2.72881,-1.14353 -1.91924,0.59657 -4.4555,0.33108 -6.51285,-0.68175 -1.92797,-0.94914 -3.32756,-2.36844 -3.32756,-3.37442 0,-0.93218 3.35281,-4.37039 5.12115,-5.25159 3.44116,-1.7148 8.63627,-5.8e-4 12.43588,4.10344 1.77191,1.91389 2.70478,3.779 3.1215,6.24092 0.272,1.60699 0.25433,2.13949 -0.12159,3.66281 -0.77638,3.1461 -1.90654,5.05845 -4.54224,7.68599 -2.53803,2.53015 -4.90291,4.09119 -9.10696,6.01145 l -2.3089,1.05462 -1.8364,-1.18442 c -2.38052,-1.53537 -5.12756,-2.9153 -8.58328,-4.31169 l -2.77812,-1.12258 -0.0684,-14.149 -0.0684,-14.149 -2.44511,-0.1244 c -1.96298,-0.0999 -2.87771,-0.29769 -4.63903,-1.00324 l -2.19392,-0.87885 -1.87205,0.90564 c -1.67285,0.80927 -2.10703,0.90564 -4.08048,0.90564 -1.71855,0 -2.3074,-0.099 -2.65452,-0.44608 -0.41838,-0.41838 -0.36968,-0.53105 0.7843,-1.81455 1.90672,-2.12074 1.80413,-2.18081 -1.54775,-0.90631 -2.36522,0.89935 -4.95102,0.8353 -6.76922,-0.16768 -1.62266,-0.89511 -1.60925,-1.34421 0.0726,-2.4337 1.51874,-0.98382 3.04819,-2.46621 2.80028,-2.71412 -0.0845,-0.0845 -0.95153,0.0929 -1.92681,0.39412 -1.99523,0.61626 -4.4327,0.70669 -6.04311,0.2242 -1.28522,-0.38506 -3.3473,-2.26506 -3.3473,-3.05173 0,-0.43142 0.32729,-0.67796 1.46514,-1.10369 0.80582,-0.30149 1.56515,-0.54817 1.68739,-0.54817 0.12224,0 0.362,-0.16838 0.53279,-0.37416 0.2569,-0.30955 0.0468,-0.45083 -1.21641,-0.81806 -1.94022,-0.56404 -3.26898,-1.24303 -4.43354,-2.26552 -1.03013,-0.90447 -2.53328,-3.68622 -2.53328,-4.68813 0,-0.60578 0.0718,-0.64179 0.99218,-0.49792 3.33148,0.52078 5.83692,0.46901 10.64948,-0.22004 5.89808,-0.84448 10.95608,-1.11664 12.92096,-0.69525 2.11564,0.45373 4.15245,1.56589 5.49359,2.99967 1.89096,2.02159 2.26796,3.15666 2.48777,7.49017 0.10394,2.04914 0.32232,3.97485 0.48529,4.27935 0.50409,0.94191 1.85923,1.9023 3.27921,2.32399 0.74712,0.22187 1.45584,0.4034 1.57495,0.4034 0.11911,0 0.21656,-3.70628 0.21656,-8.23616 v -8.23616 l -0.91547,-1.01332 c -1.27457,-1.4108 -1.91627,-3.66088 -1.49414,-5.23915 1.2912,-4.82767 7.65646,-6.12967 10.17153,-2.08056 1.47482,2.37436 1.19469,5.73831 -0.62286,7.47964 l -0.78906,0.75596 v 8.28487 8.28488 h 0.6192 c 0.34056,0 1.36545,-0.37291 2.27753,-0.82868 2.25168,-1.12518 2.64577,-1.98599 2.65371,-5.79646 0.01,-4.6325 1.03136,-7.24909 3.59597,-9.20931 2.71444,-2.07474 7.75503,-2.55755 14.33457,-1.37304 1.7822,0.32085 3.36436,0.54203 3.51591,0.49151 0.33399,-0.11133 -5.01883,-7.26582 -8.17981,-10.93298 -3.31731,-3.84853 -9.2028,-9.65928 -12.94374,-12.77936 -18.8587,-15.72881 -40.05394,-24.67256 -64.34625,-27.15217 -26.28732,-2.68325 -53.513693,3.77399 -74.843907,17.75061 l -3.009535,1.972 -2.811298,-1.12274 c -1.546213,-0.61751 -4.180359,-1.76266 -5.853657,-2.54477 l -3.042359,-1.42203 0.661109,-0.51213 c 1.63106,-1.2635 7.826616,-5.38795 10.715276,-7.13327 15.930123,-9.62495 34.083968,-15.55649 54.239581,-17.72209 4.4677,-0.48003 14.9419,-0.63212 19.84375,-0.28814 13.00987,0.91295 25.55343,3.49805 36.64479,7.55213 23.24308,8.49573 43.44929,23.52017 58.30078,43.34986 13.48185,18.00094 21.37037,37.95276 24.13334,61.03856 0.58211,4.86377 0.80349,17.77512 0.39992,23.32351 -1.97499,27.15239 -12.43421,52.79686 -29.84276,73.1701 -3.20361,3.74919 -11.09257,11.5498 -14.75899,14.5937 -13.21473,10.97101 -26.78714,18.62518 -42.06875,23.72469 -14.83051,4.94898 -29.56135,7.01371 -45.90521,6.43423 z m 85.19583,-159.46743 c 0.90613,-0.66852 1.01375,-1.35797 0.21198,-1.35797 -0.65152,0 -2.59323,1.42595 -2.59323,1.90442 0,0.40374 1.58695,0.0396 2.38125,-0.54645 z m 23.8125,-22.63891 c 0,-0.20837 0.38696,-0.64398 0.8599,-0.96802 2.42393,-1.66078 3.47127,-3.19286 3.85486,-5.63897 0.12772,-0.81445 0.19945,-1.48082 0.1594,-1.48082 -0.0401,0 -0.43264,0.62889 -0.87241,1.39753 -1.45838,2.54899 -2.95533,3.75597 -5.96564,4.81006 -0.86187,0.30178 -1.61375,0.68887 -1.67085,0.86019 -0.062,0.18597 0.56947,0.52061 1.56702,0.83044 2.08764,0.6484 2.06772,0.64658 2.06772,0.18959 z M 108.98443,365.13398 c -19.665319,-1.41413 -38.595074,-7.76183 -55.165621,-18.49866 -6.61537,-4.28641 -11.67132,-8.40575 -17.949007,-14.62398 -8.058071,-7.98175 -14.499722,-16.56654 -19.356854,-25.79689 -2.009578,-3.81894 -2.105411,-3.47038 1.216715,-4.42536 9.427081,-2.70991 26.305882,2.28525 38.650754,11.43842 3.246147,2.40687 6.886367,6.06183 12.070445,12.1193 5.322081,6.21874 12.788048,13.80548 16.456487,16.72271 3.003964,2.38883 6.862616,4.95007 9.350339,6.20644 2.283528,1.15324 6.631122,2.60918 9.016842,3.01959 2.7001,0.46449 8.75975,0.1742 11.238,-0.53835 3.81257,-1.09621 3.73833,-1.22783 -0.80109,-1.42032 -9.07212,-0.38468 -14.909227,-2.11722 -21.338717,-6.33365 -6.270295,-4.11203 -12.565576,-10.03018 -20.610952,-19.37621 -7.510676,-8.72489 -11.841137,-12.68665 -17.966647,-16.43695 -8.399553,-5.14256 -18.000709,-8.5911 -26.176667,-9.40212 -4.177037,-0.41435 -7.467456,-0.063 -11.423359,1.21977 -1.55852,0.50537 -2.85038,0.89365 -2.8708,0.86283 -0.453362,-0.68417 -3.294028,-8.00339 -3.294028,-8.48735 0,-0.43206 4.956496,-2.8071 7.76306,-3.71988 3.929156,-1.27789 6.083386,-1.59892 10.757772,-1.60317 4.9908,-0.005 5.666618,0.14004 12.496175,2.67305 15.801369,5.86055 27.041794,12.73782 41.161388,25.1839 11.216889,9.88742 16.074362,13.04343 22.230395,14.44359 1.91934,0.43654 5.74671,0.53112 6.92662,0.17117 0.75054,-0.22897 0.88068,-0.15383 -2.24896,-1.29842 -5.14151,-1.88038 -8.46414,-3.53554 -12.836172,-6.39431 -3.239905,-2.1185 -5.162046,-3.67084 -10.976324,-8.86459 -8.398908,-7.50253 -11.745341,-10.17808 -17.639873,-14.10348 -7.71398,-5.13704 -15.821914,-9.1557 -24.693458,-12.23919 -3.209024,-1.11536 -4.000411,-1.68063 -4.255333,-3.03948 -0.373912,-1.99312 0.891915,-3.41049 4.208767,-4.71263 1.272819,-0.49969 2.908918,-1.29014 3.635776,-1.75657 3.863137,-2.47897 6.620249,-7.84271 6.250424,-12.15971 -0.08103,-0.94588 -0.337178,-2.43416 -0.569214,-3.30729 -0.488757,-1.83913 -0.342363,-3.24616 0.441416,-4.24258 0.30506,-0.38782 1.845824,-1.3023 3.542833,-2.10276 3.781694,-1.78377 5.518644,-3.33584 6.928287,-6.19083 l 0.983709,-1.99233 v -3.53816 c 0,-3.95617 0.07291,-4.12124 1.964196,-4.44675 3.34927,-0.57644 5.446204,-1.56342 7.018005,-3.30321 2.177449,-2.41018 2.904525,-5.40205 2.143771,-8.8215 -0.931873,-4.18859 -0.04801,-4.77428 5.174522,-3.42891 3.06479,0.78952 4.783394,0.75435 6.523773,-0.13353 1.34263,-0.68496 2.795919,-2.3674 3.194709,-3.69844 0.391556,-1.3069 0.394922,-3.5239 0.0066,-4.37607 -0.562828,-1.23528 -0.950422,-1.01944 -1.52494,0.84918 -0.685445,2.22941 -1.37532,3.3515 -2.4717,4.02025 -1.497013,0.91312 -2.437371,0.93412 -5.203512,0.11618 -2.904222,-0.85878 -5.265029,-0.97021 -6.533588,-0.3084 -1.077133,0.56195 -2.438281,2.13081 -2.637239,3.0397 -0.08702,0.39751 -0.199717,0.86025 -0.250444,1.02831 -0.05073,0.16805 0.07828,1.12051 0.286682,2.11656 0.772927,3.6942 0.332636,5.9394 -1.507008,7.68478 -1.041048,0.9877 -2.122395,1.46399 -4.366319,1.92318 -2.029693,0.41535 -3.385597,1.1733 -4.438233,2.48097 l -0.818902,1.01731 v 3.6129 c 0,3.3142 -0.05369,3.718 -0.649393,4.88405 -0.998821,1.95514 -2.832987,3.48367 -5.903795,4.92003 -3.204207,1.49876 -4.174202,2.25849 -4.926272,3.85846 -0.673627,1.43307 -0.740947,3.88406 -0.159342,5.80127 1.154909,3.80705 -0.425836,8.74599 -3.629951,11.34155 -1.356772,1.09909 -2.055989,1.46597 -4.839579,2.53934 -1.164167,0.44891 -2.552408,1.17576 -3.08498,1.61522 -1.365581,1.12684 -2.338978,3.19453 -2.338978,4.96846 0,0.78038 -0.09266,1.36161 -0.205909,1.29162 -0.11325,-0.07 -1.214578,-0.26373 -2.447395,-0.43052 -1.232818,-0.16679 -2.539144,-0.48915 -2.902946,-0.71635 -3.681289,-2.29908 -4.494392,-6.67269 -1.807925,-9.72468 0.723561,-0.82201 1.796055,-1.55306 3.586562,-2.44474 6.111398,-3.04348 8.995911,-8.03224 7.641816,-13.2165 -0.639272,-2.4475 -0.562761,-5.04081 0.190846,-6.46863 0.72804,-1.37938 2.298006,-2.65069 4.064621,-3.29139 4.065837,-1.47458 5.696786,-2.68419 6.887313,-5.10805 0.721792,-1.46954 0.736026,-1.5906 0.751674,-6.39269 0.01526,-4.68469 0.04698,-4.97429 0.738938,-6.74688 0.397644,-1.01864 1.096055,-2.31769 1.552025,-2.88677 l 0.829036,-1.03468 -0.906516,0.50552 c -0.498584,0.27803 -1.690245,1.27942 -2.648136,2.22531 -2.334109,2.30485 -2.624005,3.18792 -2.624005,7.99313 0,3.78504 -0.247144,4.97906 -1.266861,6.12056 -0.713835,0.79909 -2.178517,1.63786 -3.760222,2.15334 -3.208604,1.04569 -5.590885,2.8944 -6.818447,5.29127 -0.907661,1.77225 -1.113978,4.93026 -0.467404,7.1544 0.705293,2.42612 0.585783,4.40855 -0.384598,6.37968 -1.034169,2.10069 -2.362367,3.24469 -5.511301,4.74697 -5.652318,2.69659 -8.000669,7.05007 -6.447578,11.95283 0.288112,0.90951 0.461767,1.65365 0.385899,1.65365 -0.07587,0 -1.224242,-0.25211 -2.551943,-0.56025 -3.145363,-0.72997 -5.032562,-1.63509 -6.516918,-3.12555 -1.510455,-1.51667 -2.182204,-2.90871 -2.326429,-4.82097 -0.174781,-2.31738 0.482143,-3.90912 2.493116,-6.04086 1.787495,-1.89484 3.597211,-2.99728 7.195844,-4.38357 2.056427,-0.79218 4.28101,-2.49197 4.28101,-3.27108 0,-0.40664 -0.180761,-0.37357 -1.521354,0.27828 -3.186159,1.54925 -6.596012,1.67707 -9.053791,0.33938 -1.636697,-0.89081 -2.499509,-1.85233 -3.423705,-3.81538 -0.920104,-1.95437 -0.971456,-5.13827 -0.108817,-6.74688 0.663557,-1.23736 1.982966,-2.54222 3.180466,-3.14538 1.245919,-0.62754 1.422646,-0.54005 0.991826,0.49105 -0.498709,1.19358 -0.489918,3.40817 0.01778,4.47806 0.767851,1.61812 2.603341,2.15814 4.558602,1.34118 2.892515,-1.20857 3.589846,-3.77527 2.424069,-8.92239 -1.30913,-5.78007 0.322531,-10.39479 4.437515,-12.55034 0.847067,-0.44371 2.430087,-1.07167 3.517823,-1.39546 3.532221,-1.05143 4.948835,-2.01093 6.269303,-4.24631 0.403026,-0.68226 0.967579,-0.94858 4.441727,-2.09531 18.340848,-6.05384 39.271288,-11.35885 52.134181,-13.21387 8.738217,-1.26018 12.059637,-1.4854 21.917647,-1.48625 l 9.48223,-8.1e-4 0.4992,0.61649 c 0.76348,0.94286 1.0535,2.27555 1.21893,5.60122 0.18789,3.7771 -0.0977,4.97521 -1.51799,6.36734 -0.65128,0.63838 -1.04064,1.26296 -1.04064,1.66928 0,0.35708 0.41456,1.73559 0.92126,3.06335 1.19044,3.1195 2.82136,9.15024 3.83144,14.16774 0.98136,4.87488 1.0042,5.67238 0.18446,6.44249 -1.01431,0.95289 -2.1036,1.12515 -4.37117,0.69124 -1.11505,-0.21337 -3.53359,-0.38679 -5.39464,-0.38681 -3.08606,-4e-5 -3.4213,-0.0479 -3.9353,-0.56191 -0.49886,-0.49886 -0.54778,-0.7813 -0.43627,-2.5189 0.12436,-1.9378 0.12042,-1.95243 -0.40069,-1.48866 -0.79845,0.71059 -1.24701,2.01278 -1.24701,3.62013 0,1.14987 0.13173,1.60218 0.63817,2.19131 0.62196,0.72351 0.72437,0.74623 4.03489,0.89503 1.8682,0.084 3.6521,0.28981 3.96421,0.45743 0.69417,0.37281 1.15231,1.607 1.15231,3.10423 0,1.74428 -0.55642,2.21306 -3.31984,2.79694 -1.46076,0.30864 -3.28145,0.94907 -4.74995,1.67079 l -2.38125,1.17031 3.43959,0.0212 c 3.82277,0.0235 4.90771,0.38114 5.44522,1.79491 0.42998,1.13092 0.0807,1.83643 -1.48009,2.98944 -2.03086,1.50028 -1.95182,2.12666 0.71361,5.65502 0.89227,1.18113 1.9905,2.92142 2.44053,3.8673 0.72392,1.52158 0.81593,1.979 0.79829,3.96875 -0.017,1.91432 -0.15006,2.56392 -0.89439,4.36563 -1.05705,2.55868 -1.37,5.40195 -0.73002,6.63256 0.78191,1.50352 1.68567,2.09869 3.18688,2.09869 0.75233,0 1.75483,-0.0863 2.22778,-0.19182 0.77037,-0.17186 0.85962,-0.13054 0.85731,0.39687 -0.004,1.0193 -1.22689,3.26918 -2.15176,3.96035 -2.61607,1.95505 -6.16544,1.72989 -8.51755,-0.5403 -1.43274,-1.38283 -1.96371,-2.56917 -2.42054,-5.4081 -0.6026,-3.74483 -1.02572,-4.87946 -3.09038,-8.28716 -1.9002,-3.13626 -3.11575,-5.97881 -3.12619,-7.31058 -0.01,-1.2546 -0.49687,-1.06632 -0.91904,0.3553 -0.84747,2.85373 -0.43743,4.76634 1.81848,8.48212 1.58453,2.60993 1.96862,3.76321 2.28719,6.86757 0.14522,1.41519 0.42728,3.11546 0.62679,3.77838 0.22826,0.75848 0.26725,1.26433 0.10517,1.3645 -0.41021,0.25353 -2.6205,-0.15905 -3.9881,-0.74444 -2.29617,-0.98284 -3.74419,-3.08581 -4.69857,-6.82373 -0.69074,-2.70538 -1.14944,-3.62255 -2.91111,-5.82084 -2.05756,-2.56752 -2.879744,-4.4047 -3.543828,-7.91878 l -0.578504,-3.06122 -0.470565,1.17606 c -1.581126,3.95162 -0.785841,7.67978 2.453145,11.49993 1.562842,1.84326 2.140442,3.35071 2.140442,5.58618 0,1.30377 -0.10795,1.72935 -0.5372,2.11782 -0.52709,0.47701 -0.56072,0.46339 -1.785938,-0.72327 -0.686803,-0.66519 -2.260763,-1.85659 -3.49769,-2.64757 -3.984428,-2.54793 -6.123531,-5.57169 -7.447174,-10.52706 -0.868074,-3.24985 -0.870286,-8.06782 -0.005,-10.84792 0.339701,-1.09141 0.953328,-2.60945 1.363615,-3.37344 0.410287,-0.76398 0.657237,-1.38906 0.548779,-1.38906 -0.32513,0 -3.303857,3.23371 -3.938152,4.27527 -0.324218,0.53239 -0.840724,1.96114 -1.147791,3.175 -0.45921,1.81529 -0.529134,2.65316 -0.393953,4.72056 0.142662,2.18184 0.791646,5.47303 1.369531,6.94532 0.234102,0.59642 0.07534,0.58332 -1.274478,-0.10514 -1.673662,-0.85364 -4.458751,-3.7978 -5.414518,-5.72377 -1.142178,-2.30162 -1.473745,-4.16645 -1.326649,-7.46146 0.111602,-2.49993 0.247302,-3.10908 1.333859,-5.98758 1.125961,-2.98289 2.004412,-6.31639 1.735398,-6.58541 -0.232288,-0.23228 -3.196916,3.90205 -4.320822,6.02562 -1.306258,2.46813 -1.984748,4.79309 -1.984748,6.8011 0,1.7169 -0.25119,1.66463 -1.919774,-0.39947 -2.017668,-2.49593 -2.435721,-3.85375 -2.441214,-7.929 l -0.0046,-3.43958 1.680297,-5.14104 c 0.924163,-2.82757 1.7469,-5.32789 1.828304,-5.55625 0.104646,-0.29357 -0.03881,-0.24896 -0.489671,0.15224 -1.000939,0.89069 -2.670851,1.68175 -3.544179,1.67892 -0.438717,-10e-4 -1.44005,-0.30161 -2.225184,-0.6671 -0.785134,-0.36548 -1.468398,-0.62363 -1.518365,-0.57367 -0.229991,0.22999 1.582539,2.64319 2.285858,3.04339 0.433933,0.24691 0.789722,0.54948 0.790642,0.67237 9.2e-4,0.1229 -0.421175,1.46097 -0.93799,2.97351 -2.216936,6.48818 -1.77296,11.21997 1.513842,16.13415 1.237788,1.85064 3.570283,4.07654 4.915925,4.69126 0.327421,0.14957 0.595312,0.41765 0.595312,0.59572 0,0.17807 0.498144,1.31982 1.106987,2.53722 2.009257,4.01756 6.071694,7.41185 10.156894,8.4864 0.900478,0.23686 1.542971,0.62445 2.095051,1.26385 1.124786,1.30269 1.71145,1.87434 2.854973,2.78194 l 1.000078,0.79375 -2.186324,4.8948 c -2.114557,4.73411 -2.188904,4.96861 -2.26489,7.14375 -0.05558,1.59089 0.0724,2.82959 0.437359,4.23333 0.341702,1.31427 0.52359,1.71633 0.538624,1.19062 0.02935,-1.02626 0.779055,-6.00704 0.92635,-6.15433 0.212422,-0.21243 3.723522,1.79887 6.018117,3.4474 7.155299,5.14068 12.995679,11.65099 20.572969,22.93282 3.71675,5.53386 5.6602,8.91539 9.25776,16.10809 2.89634,5.79075 4.47743,9.23474 6.15529,13.40769 1.2121,3.01457 3.41139,9.12812 3.28375,9.12812 -0.0467,0 -0.72626,0.12376 -1.5101,0.27503 -4.12977,0.79694 -10.75772,1.34938 -17.16789,1.43094 -3.71078,0.0472 -7.40171,0.0387 -8.20208,-0.0188 z m -4.42564,-103.08872 c 0.15788,-4.45121 0.5193,-6.18667 1.87342,-8.99584 0.47349,-0.98226 0.77829,-1.78594 0.67733,-1.78594 -0.10096,0 -0.91566,0.53895 -1.81045,1.19765 -2.74534,2.02101 -3.96038,4.66075 -3.62448,7.87442 0.20832,1.99307 1.85271,5.7446 2.518,5.7446 0.12269,0 0.28747,-1.8157 0.36618,-4.03489 z M 30.869336,241.50537 c 0.777666,-1.87127 2.302638,-3.42842 4.185602,-4.2739 2.095363,-0.94086 3.428448,-2.1367 4.24007,-3.80354 0.583786,-1.19893 0.59377,-1.26654 0.09097,-0.61603 -0.806565,1.04352 -2.410392,1.88861 -5.145345,2.71119 -1.309144,0.39375 -2.722002,0.95924 -3.139686,1.25666 -1.367042,0.97342 -2.012739,3.0802 -1.590731,5.19025 0.238254,1.19127 0.742615,1.01885 1.35912,-0.46463 z m 81.364384,-14.25282 c 0.93526,-2.34135 1.49231,-4.7459 1.03381,-4.46253 -0.11814,0.073 -1.39807,0.31725 -2.84427,0.54273 -2.90656,0.45318 -4.89165,0.91585 -5.23547,1.22024 -0.12363,0.10945 0.29309,0.50138 0.92604,0.87097 1.34059,0.78279 5.30549,2.78666 5.55385,2.80693 0.0933,0.008 0.34806,-0.43264 0.56604,-0.97834 z m 7.56636,-8.62253 c 0.20525,-0.53927 0.30748,-1.04618 0.2272,-1.12647 -0.44827,-0.44826 -6.68339,-1.44053 -9.19077,-1.46264 -3.43583,-0.0303 -5.69535,0.47154 -8.82806,1.96065 l -2.345767,1.11505 6.446807,0.0341 c 5.16263,0.0273 6.97386,0.13546 9.09265,0.54311 3.22734,0.62093 4.02716,0.43589 4.59794,-1.06377 z m 65.17501,116.75225 c -3.41003,-0.44289 -5.91196,-1.02914 -6.6574,-1.55994 -1.36324,-0.97071 -1.74811,-3.83047 -0.72555,-5.3911 l 0.41108,-0.62739 8.28696,0.128 c 8.64207,0.13348 9.05788,0.18906 10.1096,1.35119 0.62231,0.68766 0.65285,2.26656 0.0658,3.40181 -1.31351,2.54004 -5.37013,3.49234 -11.49049,2.69743 z m -2.4365,-9.9394 c -4.32647,-0.41991 -4.9369,-0.68248 -5.5104,-2.37028 -0.60331,-1.77554 0.0716,-4.75724 1.21366,-5.36225 0.28117,-0.14894 2.26209,-0.14599 5.09049,0.008 2.54662,0.13827 6.95193,0.17391 9.78959,0.0792 4.98201,-0.16625 5.18373,-0.153 5.86782,0.3856 1.63716,1.28896 1.63807,4.10615 0.002,5.81518 -0.81036,0.84644 -1.29637,1.0909 -2.87924,1.4482 -2.35568,0.53176 -8.07556,0.53039 -13.57381,-0.003 z m -1.93957,-10.3858 c -2.15062,-0.23848 -2.48948,-0.85499 -2.53197,-4.60657 l -0.0264,-2.3286 0.95158,-0.3976 0.95159,-0.3976 1.36352,1.28066 c 2.17016,2.03828 3.22097,2.73252 4.95086,3.27093 3.76005,1.17026 6.69936,0.0429 8.19176,-3.14184 0.32191,-0.68695 0.72033,-1.33648 0.88538,-1.4434 0.16506,-0.10691 1.13354,-0.19602 2.15218,-0.19802 3.29215,-0.006 4.76525,1.34301 4.55604,4.1737 -0.1177,1.59247 -0.71655,2.56516 -2.07015,3.36246 -0.8443,0.4973 -1.40818,0.53121 -9.36505,0.56306 -4.65667,0.0186 -9.16089,-0.0431 -10.00937,-0.13718 z m 12.31004,-14.25036 c -1.04722,-2.43747 -1.90398,-4.59678 -1.90392,-4.79846 2.2e-4,-0.69504 3.80195,0.0884 5.31797,1.09587 2.14075,1.42266 2.74123,4.88473 1.14219,6.5853 -0.6169,0.65607 -2.09454,1.54906 -2.56325,1.54906 -0.0489,0 -0.94577,-1.99429 -1.99299,-4.43177 z m -19.73609,-10.65508 c -1.52711,-3.05294 -1.56301,-3.17508 -1.68247,-5.72414 -0.1028,-2.1935 -0.0307,-2.87609 0.45652,-4.32442 0.57164,-1.69918 1.80875,-3.90616 2.52085,-4.49715 0.65106,-0.54033 5.19076,2.02722 8.08742,4.57406 l 2.49685,2.1953 0.13229,3.56025 0.13229,3.56024 0.76334,-0.99786 c 0.62332,-0.81484 0.78752,-1.33592 0.89521,-2.84095 0.079,-1.10436 -0.004,-2.32725 -0.20633,-3.05102 -0.63477,-2.26717 -3.85629,-5.13221 -9.38972,-8.35068 -2.22227,-1.29256 -3.47345,-2.25585 -5.29167,-4.07407 -2.80913,-2.80913 -4.13492,-5.14696 -4.82665,-8.51108 -0.5618,-2.73221 -0.25306,-5.31931 0.93873,-7.8661 1.19221,-2.5477 4.40272,-5.8234 5.15402,-5.25866 0.17677,0.13287 1.4525,0.69818 2.83494,1.25625 2.79354,1.12769 6.68853,3.01996 8.26622,4.01591 l 1.02987,0.65013 -0.1902,6.63076 c -0.22102,7.70532 -0.40445,7.40611 2.59265,4.22902 4.41494,-4.68007 3.72829,-9.42737 -1.90895,-13.19784 -1.84639,-1.23496 -4.62363,-2.56071 -9.04409,-4.3173 -4.81529,-1.91349 -10.26498,-4.54246 -12.65175,-6.10328 -2.37743,-1.55471 -5.77087,-5.04374 -6.79069,-6.98197 -2.09363,-3.97907 -2.20159,-7.17884 -0.36714,-10.88091 0.83441,-1.68392 1.47447,-2.53749 2.84324,-3.79172 1.98592,-1.81974 4.76024,-3.30651 6.99046,-3.74621 1.97894,-0.39017 3.85683,0.15249 6.00813,1.73618 1.7614,1.29667 3.75142,3.62172 3.75142,4.38299 0,0.85778 -1.31161,2.07888 -3.26059,3.0356 -2.34078,1.14905 -3.89485,1.3768 -6.29918,0.92313 -1.82638,-0.34461 -1.85442,-0.34118 -2.50186,0.30627 -2.02539,2.02539 -0.28437,6.00606 3.92728,8.97931 2.46494,1.74015 4.69465,2.85761 11.04477,5.53532 7.92641,3.34239 11.51645,5.44466 14.30953,8.3794 6.2799,6.59844 5.32557,15.94334 -2.26324,22.16179 l -1.2366,1.01331 -0.84079,-0.79563 c -1.31932,-1.24846 -4.46334,-3.38811 -7.33755,-4.99353 l -2.63135,-1.46977 v -6.85495 c 0,-4.8572 -0.0858,-6.85496 -0.29446,-6.85496 -0.16195,0 -1.15564,0.8632 -2.20821,1.91823 -2.26543,2.27073 -2.9516,3.83822 -2.70902,6.18853 0.32272,3.12692 2.84609,6.48283 6.42035,8.53866 6.17818,3.55354 9.99354,6.85921 11.61682,10.06495 0.88912,1.75588 1.46202,3.88618 1.46202,5.4365 0,2.48911 -1.40353,6.00339 -3.24664,8.12922 l -0.8544,0.98547 -1.49081,-0.51531 c -3.57386,-1.23532 -5.36945,-1.23518 -10.15086,8.4e-4 -3.67268,0.9494 -3.22313,1.16412 -5,-2.38811 z m 6.71979,-5.28606 c 0,-2.47386 -0.10595,-4.49792 -0.23544,-4.49792 -0.50832,0 -1.40435,2.53311 -1.54259,4.36095 -0.11175,1.47753 -0.0427,2.07974 0.32054,2.79598 0.43576,0.85921 1.16362,1.8389 1.36621,1.8389 0.0502,0 0.0913,-2.02406 0.0913,-4.49791 z m -7.9375,-63.22471 c 0,-0.40424 -1.39604,-1.59958 -2.06989,-1.77231 -0.84094,-0.21557 -1.30487,0.27606 -0.81619,0.86489 0.68564,0.82614 2.88608,1.51798 2.88608,0.90742 z m -146.691962,1.49147 c -0.441741,-0.32301 -0.44712,-0.40945 -0.06997,-1.12448 0.224708,-0.42601 1.319876,-1.66754 2.433708,-2.75895 2.464862,-2.41523 5.759778,-6.19855 7.232676,-8.30476 1.385513,-1.98125 1.560503,-2.90886 0.943634,-5.00212 -0.689492,-2.33971 -0.695213,-8.48905 -0.01067,-11.46731 0.272088,-1.18377 0.573435,-2.2797 0.669662,-2.4354 0.122614,-0.1984 0.805749,-0.1707 2.28342,0.0926 1.262258,0.22489 3.938403,0.37936 6.668068,0.38489 l 4.559606,0.009 0.696696,1.37486 c 0.383183,0.75618 1.367454,2.03819 2.18727,2.84891 3.190856,3.15548 7.452281,4.43341 12.687308,3.80472 l 1.407153,-0.16899 -2.333194,-0.59328 c -3.332544,-0.8474 -5.51875,-1.79792 -7.508428,-3.2645 -1.933333,-1.42504 -3.15216,-3.07031 -4.002806,-5.40329 -0.312802,-0.85788 -0.697426,-1.60822 -0.85472,-1.66741 -0.157295,-0.0592 -3.14349,-0.21473 -6.63599,-0.34564 -6.803581,-0.25501 -8.267784,-0.53312 -10.466192,-1.98796 -2.604249,-1.72341 -5.113499,-5.32513 -4.503713,-6.46453 0.467887,-0.87426 1.152867,-0.88649 3.623909,-0.0648 6.443411,2.14276 14.273325,2.61337 19.481933,1.17094 1.367792,-0.37879 2.045429,-0.88024 1.190625,-0.88107 -1.416418,-0.001 -11.443203,-0.89793 -13.545889,-1.21123 -5.04487,-0.75167 -9.023291,-1.97866 -11.965508,-3.69029 -1.953353,-1.13636 -4.889749,-4.22785 -5.843634,-6.15228 -1.52529,-3.07722 -1.782339,-5.87921 -0.539346,-5.87921 0.315228,0 1.711944,0.64972 3.103813,1.44383 6.549284,3.73657 15.794513,7.33959 21.714926,8.46268 1.164966,0.22099 3.27821,0.46905 4.696098,0.55125 l 2.577978,0.14946 -1.309377,-0.70521 c -0.720157,-0.38786 -4.335324,-1.70434 -8.033704,-2.9255 -7.155456,-2.36264 -15.437208,-5.86524 -19.330657,-8.1755 -3.806514,-2.25867 -6.898665,-6.14784 -8.077851,-10.15997 -0.424657,-1.44487 -0.560616,-3.84791 -0.261769,-4.62669 0.394408,-1.02781 3.184534,0.031 7.884948,2.99232 8.204114,5.16863 14.905947,8.42867 21.98466,10.69422 1.600729,0.51232 5.975501,1.77089 9.721715,2.79682 7.586182,2.07755 9.626078,2.81083 12.033364,4.32562 4.374034,2.75238 5.545762,7.29397 2.89013,11.20208 -0.357896,0.52669 -1.108386,1.26071 -1.667757,1.63115 -3.260139,2.15901 -4.272599,4.62866 -3.0244,7.37728 1.224083,2.69551 4.736676,3.68256 8.420454,2.36618 1.112247,-0.39746 0.909129,-0.54786 -1.056125,-0.78198 -1.492746,-0.17783 -2.988187,-0.89649 -3.901757,-1.87507 -0.493867,-0.529 -0.661459,-0.99775 -0.661459,-1.85005 0,-1.34296 0.441487,-1.92311 2.438147,-3.20396 2.789552,-1.78948 4.497486,-5.34458 4.247325,-8.8409 -0.348623,-4.87246 -4.323312,-9.12448 -10.885411,-11.64492 l -1.840349,-0.70686 2.623269,-0.83919 c 4.081843,-1.3058 6.210715,-1.64323 11.404127,-1.80761 5.486817,-0.17367 8.469858,0.1111 12.927759,1.23414 7.22981,1.82133 13.564117,5.44494 18.923447,10.82539 5.40843,5.42973 10.33022,13.28241 12.28942,19.60765 1.3631,4.40076 1.00833,4.0253 9.76043,10.32955 1.87839,1.35303 3.80479,2.80207 4.28089,3.22009 1.01449,0.89073 1.41185,2.1943 0.84246,2.76369 -0.33005,0.33005 -0.84511,0.22412 -3.93005,-0.80831 -6.37478,-2.13343 -11.0139,-2.80502 -19.37637,-2.80502 -19.477529,0 -41.869559,4.62601 -74.264467,15.34243 -12.601357,4.1686 -13.78841,4.45661 -14.92947,3.62225 z"
       id="path1" /></g></svg>
